<svg  xmlns="http://www.w3.org/2000/svg" xmlns:xlink="http://www.w3.org/1999/xlink" x="0" y="0" width="600" height="600">
<rect x="0%" y="0%" height="100%" width="100%" style="fill: #ffffff"/>
<svg x="0" y="0">
  <text fill="dark" font-size="35" transform="translate(250, 30)">cores</text>
</svg>
<svg x="0" y="0"> 
  <text fill="dark" font-size="35" transform="translate(30, 300) rotate(270)">time</text>
</svg>
<svg x = "50" y="550">
  <text fill="blue" font-size="30" transform="translate(0, 35)">t = 0s, lb = 0.894028</text>
</svg>
<svg x="50" y="50" width="500" height="500" >
  <rect x="0%" y="0%" height="100%" width="100%" style="fill: #eeeeee"/>
    <rect x="0"  y="0" height="4.68384" width="55.5556" style="fill: #76931f"/>
    <rect x="222.222"  y="0" height="65.5738" width="55.5556" style="fill: #ac9dab"/>
    <rect x="111.111"  y="0" height="24.5902" width="55.5556" style="fill: #2b36c2"/>
    <rect x="55.5556"  y="0" height="18.7354" width="55.5556" style="fill: #48b87d"/>
    <rect x="333.333"  y="0" height="155.738" width="55.5556" style="fill: #6ae33f"/>
    <rect x="277.778"  y="0" height="14.0515" width="55.5556" style="fill: #9a62d7"/>
    <rect x="166.667"  y="0" height="4.68384" width="55.5556" style="fill: #183a5d"/>
    <rect x="388.889"  y="0" height="18.7354" width="55.5556" style="fill: #5789e4"/>
    <rect x="0"  y="0" height="98.3607" width="55.5556" style="fill: #b2d6b4"/>
    <rect x="166.667"  y="0" height="174.473" width="55.5556" style="fill: #41e241"/>
    <rect x="277.778"  y="0" height="21.0773" width="55.5556" style="fill: #1dc709"/>
    <rect x="388.889"  y="0" height="209.602" width="55.5556" style="fill: #e111c7"/>
    <rect x="55.5556"  y="0" height="3.51288" width="55.5556" style="fill: #e1e7ac"/>
    <rect x="55.5556"  y="0" height="15.2225" width="55.5556" style="fill: #b6f8ca"/>
    <rect x="111.111"  y="0" height="17.5644" width="55.5556" style="fill: #c0bb2f"/>
    <rect x="277.778"  y="0" height="19.9063" width="55.5556" style="fill: #c4c8bc"/>
    <rect x="55.5556"  y="0" height="3.51288" width="55.5556" style="fill: #2ae3ba"/>
    <rect x="111.111"  y="0" height="12.8806" width="55.5556" style="fill: #aab916"/>
    <rect x="55.5556"  y="0" height="14.0515" width="55.5556" style="fill: #5cc458"/>
    <rect x="111.111"  y="0" height="23.4192" width="55.5556" style="fill: #e199cb"/>
    <rect x="277.778"  y="0" height="8.19672" width="55.5556" style="fill: #89f51b"/>
    <rect x="55.5556"  y="0" height="43.3255" width="55.5556" style="fill: #135f70"/>
    <rect x="222.222"  y="0" height="16.3934" width="55.5556" style="fill: #91a5ab"/>
    <rect x="277.778"  y="0" height="81.9672" width="55.5556" style="fill: #b0874d"/>
    <rect x="111.111"  y="0" height="155.738" width="55.5556" style="fill: #f3e8cb"/>
    <rect x="222.222"  y="0" height="18.7354" width="55.5556" style="fill: #4543a5"/>
    <rect x="222.222"  y="0" height="11.7096" width="55.5556" style="fill: #eb93b0"/>
    <rect x="55.5556"  y="0" height="2.34192" width="55.5556" style="fill: #441e9c"/>
    <rect x="0"  y="0" height="30.445" width="55.5556" style="fill: #a4c2b0"/>
    <rect x="55.5556"  y="0" height="23.4192" width="55.5556" style="fill: #fb3d30"/>
    <rect x="222.222"  y="0" height="11.7096" width="55.5556" style="fill: #875cbf"/>
    <rect x="222.222"  y="0" height="26.9321" width="55.5556" style="fill: #29abd5"/>
    <rect x="55.5556"  y="0" height="14.0515" width="55.5556" style="fill: #b1acf3"/>
    <rect x="0"  y="0" height="10.5386" width="55.5556" style="fill: #8984b3"/>
    <rect x="55.5556"  y="0" height="25.7611" width="55.5556" style="fill: #5ae882"/>
    <rect x="0"  y="0" height="66.7447" width="55.5556" style="fill: #809dd4"/>
    <rect x="277.778"  y="0" height="83.1382" width="55.5556" style="fill: #cfe7ab"/>
    <rect x="222.222"  y="0" height="25.7611" width="55.5556" style="fill: #c5c61b"/>
    <rect x="333.333"  y="0" height="175.644" width="55.5556" style="fill: #aa52e0"/>
    <rect x="55.5556"  y="0" height="7.02576" width="55.5556" style="fill: #53b4c3"/>
    <rect x="55.5556"  y="0" height="78.4543" width="55.5556" style="fill: #643f20"/>
    <rect x="222.222"  y="0" height="7.02576" width="55.5556" style="fill: #4ef259"/>
    <rect x="166.667"  y="0" height="26.9321" width="55.5556" style="fill: #d2e980"/>
    <rect x="222.222"  y="0" height="43.3255" width="55.5556" style="fill: #42a948"/>
    <rect x="166.667"  y="0" height="4.68384" width="55.5556" style="fill: #aac5e8"/>
    <rect x="166.667"  y="0" height="31.6159" width="55.5556" style="fill: #84cb3e"/>
    <rect x="0"  y="0" height="25.7611" width="55.5556" style="fill: #c7db92"/>
    <rect x="388.889"  y="0" height="10.5386" width="55.5556" style="fill: #5643fd"/>
    <rect x="222.222"  y="0" height="15.2225" width="55.5556" style="fill: #34fdd4"/>
    <rect x="277.778"  y="0" height="8.19672" width="55.5556" style="fill: #67e2cc"/>
    <rect x="111.111"  y="0" height="10.5386" width="55.5556" style="fill: #a40603"/>
    <rect x="0"  y="0" height="155.738" width="55.5556" style="fill: #5cb274"/>
    <rect x="388.889"  y="0" height="2.34192" width="55.5556" style="fill: #4cb90a"/>
    <rect x="277.778"  y="0" height="2.34192" width="55.5556" style="fill: #63e51c"/>
    <rect x="388.889"  y="0" height="59.719" width="55.5556" style="fill: #973790"/>
    <rect x="277.778"  y="0" height="12.8806" width="55.5556" style="fill: #334394"/>
    <rect x="166.667"  y="0" height="52.6932" width="55.5556" style="fill: #7e0208"/>
    <rect x="111.111"  y="0" height="15.2225" width="55.5556" style="fill: #6541e4"/>
    <rect x="222.222"  y="0" height="5.8548" width="55.5556" style="fill: #c48a99"/>
    <rect x="222.222"  y="0" height="21.0773" width="55.5556" style="fill: #630aa9"/>
    <rect x="55.5556"  y="0" height="19.9063" width="55.5556" style="fill: #aece15"/>
    <rect x="277.778"  y="0" height="15.2225" width="55.5556" style="fill: #3843a4"/>
    <rect x="111.111"  y="0" height="28.103" width="55.5556" style="fill: #b19027"/>
    <rect x="277.778"  y="0" height="42.1546" width="55.5556" style="fill: #4ebc95"/>
    <rect x="222.222"  y="0" height="25.7611" width="55.5556" style="fill: #5f8592"/>
    <rect x="55.5556"  y="0" height="108.899" width="55.5556" style="fill: #e30a22"/>
    <rect x="111.111"  y="0" height="29.274" width="55.5556" style="fill: #05a485"/>
    <rect x="166.667"  y="0" height="37.4707" width="55.5556" style="fill: #846248"/>
    <rect x="222.222"  y="0" height="11.7096" width="55.5556" style="fill: #987550"/>
    <rect x="388.889"  y="0" height="2.34192" width="55.5556" style="fill: #aaf209"/>
    <rect x="388.889"  y="0" height="19.9063" width="55.5556" style="fill: #4ec59e"/>
    <rect x="222.222"  y="0" height="16.3934" width="55.5556" style="fill: #7931dc"/>
    <rect x="277.778"  y="0" height="30.445" width="55.5556" style="fill: #650c74"/>
    <rect x="111.111"  y="0" height="4.68384" width="55.5556" style="fill: #51cc61"/>
    <rect x="111.111"  y="0" height="15.2225" width="55.5556" style="fill: #c0cb2c"/>
    <rect x="388.889"  y="0" height="2.34192" width="55.5556" style="fill: #46a1b3"/>
    <rect x="388.889"  y="0" height="40.9836" width="55.5556" style="fill: #f2c349"/>
    <rect x="333.333"  y="0" height="141.686" width="55.5556" style="fill: #faff76"/>
    <rect x="222.222"  y="0" height="33.9578" width="55.5556" style="fill: #3c7f8d"/>
    <rect x="166.667"  y="0" height="57.377" width="55.5556" style="fill: #14ddff"/>
    <rect x="111.111"  y="0" height="18.7354" width="55.5556" style="fill: #946351"/>
    <rect x="277.778"  y="0" height="1.17096" width="55.5556" style="fill: #744378"/>
    <rect x="277.778"  y="0" height="22.2482" width="55.5556" style="fill: #d62c59"/>
    <rect x="111.111"  y="0" height="5.8548" width="55.5556" style="fill: #285a8d"/>
    <rect x="222.222"  y="0" height="32.7869" width="55.5556" style="fill: #791561"/>
    <rect x="111.111"  y="0" height="23.4192" width="55.5556" style="fill: #4f5a2a"/>
    <rect x="388.889"  y="0" height="22.2482" width="55.5556" style="fill: #c9e0d6"/>
    <rect x="277.778"  y="0" height="39.8126" width="55.5556" style="fill: #8aca62"/>
    <rect x="55.5556"  y="0" height="39.8126" width="55.5556" style="fill: #48a922"/>
    <rect x="111.111"  y="0" height="3.51288" width="55.5556" style="fill: #7ab8f1"/>
    <rect x="388.889"  y="0" height="7.02576" width="55.5556" style="fill: #930ee3"/>
    <rect x="0"  y="0" height="12.8806" width="55.5556" style="fill: #8ac7a9"/>
    <rect x="166.667"  y="0" height="3.51288" width="55.5556" style="fill: #d239c9"/>
    <rect x="111.111"  y="0" height="99.5316" width="55.5556" style="fill: #b026a4"/>
    <rect x="222.222"  y="0" height="52.6932" width="55.5556" style="fill: #81e49d"/>
    <rect x="166.667"  y="0" height="7.02576" width="55.5556" style="fill: #53161f"/>
    <rect x="388.889"  y="0" height="21.0773" width="55.5556" style="fill: #9a9513"/>
    <rect x="166.667"  y="0" height="44.4965" width="55.5556" style="fill: #fe5271"/>
    <rect x="0"  y="0" height="69.0867" width="55.5556" style="fill: #c32e9c"/>
    <rect x="277.778"  y="0" height="15.2225" width="55.5556" style="fill: #21d156"/>
</svg>
</svg>
