<svg  xmlns="http://www.w3.org/2000/svg" xmlns:xlink="http://www.w3.org/1999/xlink" x="0" y="0" width="600" height="600">
<rect x="0%" y="0%" height="100%" width="100%" style="fill: #ffffff"/>
<svg x="0" y="0">
  <text fill="dark" font-size="35" transform="translate(250, 30)">cores</text>
</svg>
<svg x="0" y="0"> 
  <text fill="dark" font-size="35" transform="translate(30, 300) rotate(270)">time</text>
</svg>
<svg x = "50" y="550">
  <text fill="blue" font-size="30" transform="translate(0, 35)">t = 32s, lb = 0.356394</text>
</svg>
<svg x="50" y="50" width="500" height="500" >
  <rect x="0%" y="0%" height="100%" width="100%" style="fill: #eeeeee"/>
    <rect x="0"  y="0" height="7.59344" width="55.5556" style="fill: #76931f"/>
    <rect x="222.222"  y="0" height="2.92534" width="55.5556" style="fill: #ac9dab"/>
    <rect x="111.111"  y="0" height="27.1217" width="55.5556" style="fill: #2b36c2"/>
    <rect x="55.5556"  y="0" height="1.21371" width="55.5556" style="fill: #48b87d"/>
    <rect x="333.333"  y="0" height="1.49379" width="55.5556" style="fill: #6ae33f"/>
    <rect x="277.778"  y="0" height="3.81228" width="55.5556" style="fill: #9a62d7"/>
    <rect x="166.667"  y="0" height="2.84754" width="55.5556" style="fill: #183a5d"/>
    <rect x="388.889"  y="0" height="10.0209" width="55.5556" style="fill: #5789e4"/>
    <rect x="55.5556"  y="0" height="13.3041" width="55.5556" style="fill: #b2d6b4"/>
    <rect x="333.333"  y="0" height="1.26039" width="55.5556" style="fill: #41e241"/>
    <rect x="333.333"  y="0" height="5.89736" width="55.5556" style="fill: #1dc709"/>
    <rect x="166.667"  y="0" height="3.28323" width="55.5556" style="fill: #e111c7"/>
    <rect x="222.222"  y="0" height="2.34961" width="55.5556" style="fill: #e1e7ac"/>
    <rect x="277.778"  y="0" height="2.66082" width="55.5556" style="fill: #b6f8ca"/>
    <rect x="222.222"  y="0" height="8.26253" width="55.5556" style="fill: #c0bb2f"/>
    <rect x="166.667"  y="0" height="20.2751" width="55.5556" style="fill: #c4c8bc"/>
    <rect x="277.778"  y="0" height="1.805" width="55.5556" style="fill: #2ae3ba"/>
    <rect x="0"  y="0" height="6.16189" width="55.5556" style="fill: #aab916"/>
    <rect x="277.778"  y="0" height="23.3094" width="55.5556" style="fill: #5cc458"/>
    <rect x="333.333"  y="0" height="8.77602" width="55.5556" style="fill: #e199cb"/>
    <rect x="388.889"  y="0" height="9.88081" width="55.5556" style="fill: #89f51b"/>
    <rect x="222.222"  y="0" height="3.12763" width="55.5556" style="fill: #135f70"/>
    <rect x="0"  y="0" height="3.67224" width="55.5556" style="fill: #91a5ab"/>
    <rect x="55.5556"  y="0" height="2.31849" width="55.5556" style="fill: #b0874d"/>
    <rect x="222.222"  y="0" height="25.4723" width="55.5556" style="fill: #f3e8cb"/>
    <rect x="55.5556"  y="0" height="5.24383" width="55.5556" style="fill: #4543a5"/>
    <rect x="0"  y="0" height="2.52077" width="55.5556" style="fill: #eb93b0"/>
    <rect x="333.333"  y="0" height="6.05297" width="55.5556" style="fill: #441e9c"/>
    <rect x="388.889"  y="0" height="7.85797" width="55.5556" style="fill: #a4c2b0"/>
    <rect x="0"  y="0" height="19.4815" width="55.5556" style="fill: #fb3d30"/>
    <rect x="55.5556"  y="0" height="14.051" width="55.5556" style="fill: #875cbf"/>
    <rect x="333.333"  y="0" height="1.46267" width="55.5556" style="fill: #29abd5"/>
    <rect x="333.333"  y="0" height="12.3393" width="55.5556" style="fill: #b1acf3"/>
    <rect x="166.667"  y="0" height="4.49693" width="55.5556" style="fill: #8984b3"/>
    <rect x="111.111"  y="0" height="5.53948" width="55.5556" style="fill: #5ae882"/>
    <rect x="388.889"  y="0" height="8.60486" width="55.5556" style="fill: #809dd4"/>
    <rect x="166.667"  y="0" height="2.24069" width="55.5556" style="fill: #cfe7ab"/>
    <rect x="277.778"  y="0" height="5.63284" width="55.5556" style="fill: #c5c61b"/>
    <rect x="111.111"  y="0" height="2.7853" width="55.5556" style="fill: #aa52e0"/>
    <rect x="166.667"  y="0" height="27.3395" width="55.5556" style="fill: #53b4c3"/>
    <rect x="111.111"  y="0" height="13.9265" width="55.5556" style="fill: #643f20"/>
    <rect x="55.5556"  y="0" height="2.89422" width="55.5556" style="fill: #4ef259"/>
    <rect x="388.889"  y="0" height="6.05297" width="55.5556" style="fill: #d2e980"/>
    <rect x="277.778"  y="0" height="22.0957" width="55.5556" style="fill: #42a948"/>
    <rect x="333.333"  y="0" height="20.5085" width="55.5556" style="fill: #aac5e8"/>
    <rect x="55.5556"  y="0" height="1.9606" width="55.5556" style="fill: #84cb3e"/>
    <rect x="0"  y="0" height="4.43469" width="55.5556" style="fill: #c7db92"/>
    <rect x="55.5556"  y="0" height="1.97616" width="55.5556" style="fill: #5643fd"/>
    <rect x="222.222"  y="0" height="1.92948" width="55.5556" style="fill: #34fdd4"/>
    <rect x="388.889"  y="0" height="5.44611" width="55.5556" style="fill: #67e2cc"/>
    <rect x="55.5556"  y="0" height="68.0764" width="55.5556" style="fill: #a40603"/>
    <rect x="0"  y="0" height="456.058" width="55.5556" style="fill: #5cb274"/>
    <rect x="222.222"  y="0" height="45.9963" width="55.5556" style="fill: #4cb90a"/>
    <rect x="388.889"  y="0" height="12.1682" width="55.5556" style="fill: #63e51c"/>
    <rect x="111.111"  y="0" height="17.6921" width="55.5556" style="fill: #973790"/>
    <rect x="333.333"  y="0" height="6.28637" width="55.5556" style="fill: #334394"/>
    <rect x="277.778"  y="0" height="3.06538" width="55.5556" style="fill: #7e0208"/>
    <rect x="388.889"  y="0" height="2.08508" width="55.5556" style="fill: #6541e4"/>
    <rect x="166.667"  y="0" height="1.58715" width="55.5556" style="fill: #c48a99"/>
    <rect x="166.667"  y="0" height="2.84754" width="55.5556" style="fill: #630aa9"/>
    <rect x="388.889"  y="0" height="6.09965" width="55.5556" style="fill: #aece15"/>
    <rect x="277.778"  y="0" height="126.941" width="55.5556" style="fill: #3843a4"/>
    <rect x="333.333"  y="0" height="2.02284" width="55.5556" style="fill: #b19027"/>
    <rect x="166.667"  y="0" height="2.33405" width="55.5556" style="fill: #4ebc95"/>
    <rect x="333.333"  y="0" height="5.24383" width="55.5556" style="fill: #5f8592"/>
    <rect x="111.111"  y="0" height="6.09965" width="55.5556" style="fill: #e30a22"/>
    <rect x="166.667"  y="0" height="18.439" width="55.5556" style="fill: #05a485"/>
    <rect x="388.889"  y="0" height="21.4266" width="55.5556" style="fill: #846248"/>
    <rect x="333.333"  y="0" height="21.7067" width="55.5556" style="fill: #987550"/>
    <rect x="111.111"  y="0" height="1.77388" width="55.5556" style="fill: #aaf209"/>
    <rect x="111.111"  y="0" height="5.19715" width="55.5556" style="fill: #4ec59e"/>
    <rect x="111.111"  y="0" height="11.8725" width="55.5556" style="fill: #7931dc"/>
    <rect x="166.667"  y="0" height="4.07681" width="55.5556" style="fill: #650c74"/>
    <rect x="388.889"  y="0" height="1.7272" width="55.5556" style="fill: #51cc61"/>
    <rect x="166.667"  y="0" height="7.51564" width="55.5556" style="fill: #c0cb2c"/>
    <rect x="222.222"  y="0" height="1.36931" width="55.5556" style="fill: #46a1b3"/>
    <rect x="388.889"  y="0" height="17.552" width="55.5556" style="fill: #f2c349"/>
    <rect x="222.222"  y="0" height="7.82684" width="55.5556" style="fill: #faff76"/>
    <rect x="111.111"  y="0" height="5.50836" width="55.5556" style="fill: #3c7f8d"/>
    <rect x="333.333"  y="0" height="12.2771" width="55.5556" style="fill: #14ddff"/>
    <rect x="166.667"  y="0" height="1.63383" width="55.5556" style="fill: #946351"/>
    <rect x="111.111"  y="0" height="7.3756" width="55.5556" style="fill: #744378"/>
    <rect x="166.667"  y="0" height="4.38801" width="55.5556" style="fill: #d62c59"/>
    <rect x="222.222"  y="0" height="5.66396" width="55.5556" style="fill: #285a8d"/>
    <rect x="166.667"  y="0" height="14.8912" width="55.5556" style="fill: #791561"/>
    <rect x="111.111"  y="0" height="2.56745" width="55.5556" style="fill: #4f5a2a"/>
    <rect x="222.222"  y="0" height="9.07167" width="55.5556" style="fill: #c9e0d6"/>
    <rect x="333.333"  y="0" height="6.87766" width="55.5556" style="fill: #8aca62"/>
    <rect x="111.111"  y="0" height="5.60172" width="55.5556" style="fill: #48a922"/>
    <rect x="388.889"  y="0" height="2.56745" width="55.5556" style="fill: #7ab8f1"/>
    <rect x="55.5556"  y="0" height="7.64012" width="55.5556" style="fill: #930ee3"/>
    <rect x="388.889"  y="0" height="4.77702" width="55.5556" style="fill: #8ac7a9"/>
    <rect x="333.333"  y="0" height="1.91392" width="55.5556" style="fill: #d239c9"/>
    <rect x="111.111"  y="0" height="8.77602" width="55.5556" style="fill: #b026a4"/>
    <rect x="222.222"  y="0" height="7.04883" width="55.5556" style="fill: #81e49d"/>
    <rect x="333.333"  y="0" height="11.5458" width="55.5556" style="fill: #53161f"/>
    <rect x="388.889"  y="0" height="4.5903" width="55.5556" style="fill: #9a9513"/>
    <rect x="166.667"  y="0" height="3.20543" width="55.5556" style="fill: #fe5271"/>
    <rect x="55.5556"  y="0" height="1.83612" width="55.5556" style="fill: #c32e9c"/>
    <rect x="55.5556"  y="0" height="5.01043" width="55.5556" style="fill: #21d156"/>
</svg>
</svg>
