<svg  xmlns="http://www.w3.org/2000/svg" xmlns:xlink="http://www.w3.org/1999/xlink" x="0" y="0" width="600" height="600">
<rect x="0%" y="0%" height="100%" width="100%" style="fill: #ffffff"/>
<svg x="0" y="0">
  <text fill="dark" font-size="35" transform="translate(250, 30)">cores</text>
</svg>
<svg x="0" y="0"> 
  <text fill="dark" font-size="35" transform="translate(30, 300) rotate(270)">time</text>
</svg>
<svg x = "50" y="550">
  <text fill="blue" font-size="30" transform="translate(0, 35)">t = 17s, lb = 0.572962</text>
</svg>
<svg x="50" y="50" width="500" height="500" >
  <rect x="0%" y="0%" height="100%" width="100%" style="fill: #eeeeee"/>
    <rect x="0"  y="0" height="35.6336" width="55.5556" style="fill: #76931f"/>
    <rect x="222.222"  y="0" height="3.76615" width="55.5556" style="fill: #ac9dab"/>
    <rect x="111.111"  y="0" height="17.7299" width="55.5556" style="fill: #2b36c2"/>
    <rect x="55.5556"  y="0" height="13.1236" width="55.5556" style="fill: #48b87d"/>
    <rect x="333.333"  y="0" height="6.4604" width="55.5556" style="fill: #6ae33f"/>
    <rect x="277.778"  y="0" height="15.3543" width="55.5556" style="fill: #9a62d7"/>
    <rect x="166.667"  y="0" height="27.8116" width="55.5556" style="fill: #183a5d"/>
    <rect x="388.889"  y="0" height="17.0056" width="55.5556" style="fill: #5789e4"/>
    <rect x="222.222"  y="0" height="68.486" width="55.5556" style="fill: #b2d6b4"/>
    <rect x="333.333"  y="0" height="12.2545" width="55.5556" style="fill: #41e241"/>
    <rect x="55.5556"  y="0" height="12.5732" width="55.5556" style="fill: #1dc709"/>
    <rect x="277.778"  y="0" height="26.2182" width="55.5556" style="fill: #e111c7"/>
    <rect x="388.889"  y="0" height="2.40454" width="55.5556" style="fill: #e1e7ac"/>
    <rect x="111.111"  y="0" height="26.5948" width="55.5556" style="fill: #b6f8ca"/>
    <rect x="333.333"  y="0" height="10.0527" width="55.5556" style="fill: #c0bb2f"/>
    <rect x="388.889"  y="0" height="3.47645" width="55.5556" style="fill: #c4c8bc"/>
    <rect x="388.889"  y="0" height="2.40454" width="55.5556" style="fill: #2ae3ba"/>
    <rect x="388.889"  y="0" height="24.451" width="55.5556" style="fill: #aab916"/>
    <rect x="55.5556"  y="0" height="23.0894" width="55.5556" style="fill: #5cc458"/>
    <rect x="166.667"  y="0" height="12.8049" width="55.5556" style="fill: #e199cb"/>
    <rect x="333.333"  y="0" height="5.50437" width="55.5556" style="fill: #89f51b"/>
    <rect x="333.333"  y="0" height="10.1976" width="55.5556" style="fill: #135f70"/>
    <rect x="0"  y="0" height="13.0946" width="55.5556" style="fill: #91a5ab"/>
    <rect x="166.667"  y="0" height="4.92497" width="55.5556" style="fill: #b0874d"/>
    <rect x="277.778"  y="0" height="9.38641" width="55.5556" style="fill: #f3e8cb"/>
    <rect x="111.111"  y="0" height="13.732" width="55.5556" style="fill: #4543a5"/>
    <rect x="333.333"  y="0" height="3.07086" width="55.5556" style="fill: #eb93b0"/>
    <rect x="166.667"  y="0" height="8.45935" width="55.5556" style="fill: #441e9c"/>
    <rect x="333.333"  y="0" height="79.263" width="55.5556" style="fill: #a4c2b0"/>
    <rect x="0"  y="0" height="5.21467" width="55.5556" style="fill: #fb3d30"/>
    <rect x="55.5556"  y="0" height="4.66423" width="55.5556" style="fill: #875cbf"/>
    <rect x="388.889"  y="0" height="12.5442" width="55.5556" style="fill: #29abd5"/>
    <rect x="277.778"  y="0" height="5.24364" width="55.5556" style="fill: #b1acf3"/>
    <rect x="55.5556"  y="0" height="4.66423" width="55.5556" style="fill: #8984b3"/>
    <rect x="0"  y="0" height="10.1396" width="55.5556" style="fill: #5ae882"/>
    <rect x="166.667"  y="0" height="6.31555" width="55.5556" style="fill: #809dd4"/>
    <rect x="277.778"  y="0" height="2.37557" width="55.5556" style="fill: #cfe7ab"/>
    <rect x="111.111"  y="0" height="56.724" width="55.5556" style="fill: #c5c61b"/>
    <rect x="55.5556"  y="0" height="14.6011" width="55.5556" style="fill: #aa52e0"/>
    <rect x="277.778"  y="0" height="2.86807" width="55.5556" style="fill: #53b4c3"/>
    <rect x="166.667"  y="0" height="8.16965" width="55.5556" style="fill: #643f20"/>
    <rect x="277.778"  y="0" height="4.57732" width="55.5556" style="fill: #4ef259"/>
    <rect x="388.889"  y="0" height="4.54835" width="55.5556" style="fill: #d2e980"/>
    <rect x="0"  y="0" height="4.60629" width="55.5556" style="fill: #42a948"/>
    <rect x="277.778"  y="0" height="36.9373" width="55.5556" style="fill: #aac5e8"/>
    <rect x="388.889"  y="0" height="120.459" width="55.5556" style="fill: #84cb3e"/>
    <rect x="166.667"  y="0" height="6.2576" width="55.5556" style="fill: #c7db92"/>
    <rect x="0"  y="0" height="4.05585" width="55.5556" style="fill: #5643fd"/>
    <rect x="222.222"  y="0" height="9.50229" width="55.5556" style="fill: #34fdd4"/>
    <rect x="55.5556"  y="0" height="17.8458" width="55.5556" style="fill: #67e2cc"/>
    <rect x="0"  y="0" height="7.82201" width="55.5556" style="fill: #a40603"/>
    <rect x="166.667"  y="0" height="4.02688" width="55.5556" style="fill: #5cb274"/>
    <rect x="166.667"  y="0" height="3.47645" width="55.5556" style="fill: #4cb90a"/>
    <rect x="0"  y="0" height="7.50333" width="55.5556" style="fill: #63e51c"/>
    <rect x="222.222"  y="0" height="40.3847" width="55.5556" style="fill: #973790"/>
    <rect x="166.667"  y="0" height="3.47645" width="55.5556" style="fill: #334394"/>
    <rect x="166.667"  y="0" height="2.69425" width="55.5556" style="fill: #7e0208"/>
    <rect x="0"  y="0" height="19.4971" width="55.5556" style="fill: #6541e4"/>
    <rect x="166.667"  y="0" height="12.7759" width="55.5556" style="fill: #c48a99"/>
    <rect x="55.5556"  y="0" height="22.8287" width="55.5556" style="fill: #630aa9"/>
    <rect x="166.667"  y="0" height="22.5969" width="55.5556" style="fill: #aece15"/>
    <rect x="277.778"  y="0" height="4.49041" width="55.5556" style="fill: #3843a4"/>
    <rect x="277.778"  y="0" height="3.76615" width="55.5556" style="fill: #b19027"/>
    <rect x="0"  y="0" height="6.2576" width="55.5556" style="fill: #4ebc95"/>
    <rect x="277.778"  y="0" height="7.47436" width="55.5556" style="fill: #5f8592"/>
    <rect x="55.5556"  y="0" height="10.806" width="55.5556" style="fill: #e30a22"/>
    <rect x="0"  y="0" height="153.804" width="55.5556" style="fill: #05a485"/>
    <rect x="111.111"  y="0" height="11.9937" width="55.5556" style="fill: #846248"/>
    <rect x="277.778"  y="0" height="36.9662" width="55.5556" style="fill: #987550"/>
    <rect x="222.222"  y="0" height="15.4412" width="55.5556" style="fill: #aaf209"/>
    <rect x="166.667"  y="0" height="18.1934" width="55.5556" style="fill: #4ec59e"/>
    <rect x="55.5556"  y="0" height="2.31763" width="55.5556" style="fill: #7931dc"/>
    <rect x="55.5556"  y="0" height="373.255" width="55.5556" style="fill: #650c74"/>
    <rect x="111.111"  y="0" height="13.5002" width="55.5556" style="fill: #51cc61"/>
    <rect x="333.333"  y="0" height="20.9166" width="55.5556" style="fill: #c0cb2c"/>
    <rect x="222.222"  y="0" height="29.7236" width="55.5556" style="fill: #46a1b3"/>
    <rect x="111.111"  y="0" height="9.73405" width="55.5556" style="fill: #f2c349"/>
    <rect x="166.667"  y="0" height="11.4723" width="55.5556" style="fill: #faff76"/>
    <rect x="333.333"  y="0" height="228.982" width="55.5556" style="fill: #3c7f8d"/>
    <rect x="111.111"  y="0" height="6.83701" width="55.5556" style="fill: #14ddff"/>
    <rect x="166.667"  y="0" height="8.86494" width="55.5556" style="fill: #946351"/>
    <rect x="277.778"  y="0" height="5.09879" width="55.5556" style="fill: #744378"/>
    <rect x="111.111"  y="0" height="7.27157" width="55.5556" style="fill: #d62c59"/>
    <rect x="277.778"  y="0" height="12.2255" width="55.5556" style="fill: #285a8d"/>
    <rect x="166.667"  y="0" height="15.9047" width="55.5556" style="fill: #791561"/>
    <rect x="111.111"  y="0" height="2.40454" width="55.5556" style="fill: #4f5a2a"/>
    <rect x="111.111"  y="0" height="4.86703" width="55.5556" style="fill: #c9e0d6"/>
    <rect x="222.222"  y="0" height="62.8368" width="55.5556" style="fill: #8aca62"/>
    <rect x="111.111"  y="0" height="10.3714" width="55.5556" style="fill: #48a922"/>
    <rect x="277.778"  y="0" height="19.4391" width="55.5556" style="fill: #7ab8f1"/>
    <rect x="166.667"  y="0" height="3.44748" width="55.5556" style="fill: #930ee3"/>
    <rect x="166.667"  y="0" height="32.244" width="55.5556" style="fill: #8ac7a9"/>
    <rect x="111.111"  y="0" height="7.56127" width="55.5556" style="fill: #d239c9"/>
    <rect x="388.889"  y="0" height="4.05585" width="55.5556" style="fill: #b026a4"/>
    <rect x="111.111"  y="0" height="11.5882" width="55.5556" style="fill: #81e49d"/>
    <rect x="388.889"  y="0" height="8.28553" width="55.5556" style="fill: #53161f"/>
    <rect x="277.778"  y="0" height="26.7976" width="55.5556" style="fill: #9a9513"/>
    <rect x="388.889"  y="0" height="10.3424" width="55.5556" style="fill: #fe5271"/>
    <rect x="111.111"  y="0" height="40.0081" width="55.5556" style="fill: #c32e9c"/>
    <rect x="388.889"  y="0" height="33.5767" width="55.5556" style="fill: #21d156"/>
</svg>
</svg>
