<svg  xmlns="http://www.w3.org/2000/svg" xmlns:xlink="http://www.w3.org/1999/xlink" x="0" y="0" width="600" height="600">
<rect x="0%" y="0%" height="100%" width="100%" style="fill: #ffffff"/>
<svg x="0" y="0">
  <text fill="dark" font-size="35" transform="translate(250, 30)">cores</text>
</svg>
<svg x="0" y="0"> 
  <text fill="dark" font-size="35" transform="translate(30, 300) rotate(270)">time</text>
</svg>
<svg x = "50" y="550">
  <text fill="blue" font-size="30" transform="translate(0, 35)">t = 29s, lb = 0.555345</text>
</svg>
<svg x="50" y="50" width="500" height="500" >
  <rect x="0%" y="0%" height="100%" width="100%" style="fill: #eeeeee"/>
    <rect x="0"  y="0" height="36.5957" width="55.5556" style="fill: #76931f"/>
    <rect x="222.222"  y="0" height="2.60426" width="55.5556" style="fill: #ac9dab"/>
    <rect x="111.111"  y="0" height="16.4596" width="55.5556" style="fill: #2b36c2"/>
    <rect x="55.5556"  y="0" height="11.5064" width="55.5556" style="fill: #48b87d"/>
    <rect x="333.333"  y="0" height="5.14043" width="55.5556" style="fill: #6ae33f"/>
    <rect x="277.778"  y="0" height="12.4596" width="55.5556" style="fill: #9a62d7"/>
    <rect x="166.667"  y="0" height="30.0426" width="55.5556" style="fill: #183a5d"/>
    <rect x="388.889"  y="0" height="22.2128" width="55.5556" style="fill: #5789e4"/>
    <rect x="222.222"  y="0" height="66.9787" width="55.5556" style="fill: #b2d6b4"/>
    <rect x="333.333"  y="0" height="11.217" width="55.5556" style="fill: #41e241"/>
    <rect x="55.5556"  y="0" height="11.6085" width="55.5556" style="fill: #1dc709"/>
    <rect x="277.778"  y="0" height="25.1745" width="55.5556" style="fill: #e111c7"/>
    <rect x="333.333"  y="0" height="1.54894" width="55.5556" style="fill: #e1e7ac"/>
    <rect x="111.111"  y="0" height="22.0085" width="55.5556" style="fill: #b6f8ca"/>
    <rect x="333.333"  y="0" height="8.81702" width="55.5556" style="fill: #c0bb2f"/>
    <rect x="388.889"  y="0" height="3.55745" width="55.5556" style="fill: #c4c8bc"/>
    <rect x="55.5556"  y="0" height="1.49787" width="55.5556" style="fill: #2ae3ba"/>
    <rect x="55.5556"  y="0" height="22.8936" width="55.5556" style="fill: #aab916"/>
    <rect x="388.889"  y="0" height="21.9574" width="55.5556" style="fill: #5cc458"/>
    <rect x="333.333"  y="0" height="9.39574" width="55.5556" style="fill: #e199cb"/>
    <rect x="166.667"  y="0" height="2.68936" width="55.5556" style="fill: #89f51b"/>
    <rect x="166.667"  y="0" height="9.10638" width="55.5556" style="fill: #135f70"/>
    <rect x="333.333"  y="0" height="11.5915" width="55.5556" style="fill: #91a5ab"/>
    <rect x="0"  y="0" height="3.01277" width="55.5556" style="fill: #b0874d"/>
    <rect x="277.778"  y="0" height="11.8298" width="55.5556" style="fill: #f3e8cb"/>
    <rect x="111.111"  y="0" height="13.2936" width="55.5556" style="fill: #4543a5"/>
    <rect x="0"  y="0" height="3.01277" width="55.5556" style="fill: #eb93b0"/>
    <rect x="166.667"  y="0" height="4.95319" width="55.5556" style="fill: #441e9c"/>
    <rect x="0"  y="0" height="80.0851" width="55.5556" style="fill: #a4c2b0"/>
    <rect x="166.667"  y="0" height="4.22128" width="55.5556" style="fill: #fb3d30"/>
    <rect x="55.5556"  y="0" height="4.35745" width="55.5556" style="fill: #875cbf"/>
    <rect x="388.889"  y="0" height="10.1447" width="55.5556" style="fill: #29abd5"/>
    <rect x="333.333"  y="0" height="3.84681" width="55.5556" style="fill: #b1acf3"/>
    <rect x="277.778"  y="0" height="4.30638" width="55.5556" style="fill: #8984b3"/>
    <rect x="166.667"  y="0" height="8.97021" width="55.5556" style="fill: #5ae882"/>
    <rect x="333.333"  y="0" height="4.71489" width="55.5556" style="fill: #809dd4"/>
    <rect x="111.111"  y="0" height="1.42979" width="55.5556" style="fill: #cfe7ab"/>
    <rect x="55.5556"  y="0" height="77.2426" width="55.5556" style="fill: #c5c61b"/>
    <rect x="111.111"  y="0" height="13.4638" width="55.5556" style="fill: #aa52e0"/>
    <rect x="277.778"  y="0" height="1.88936" width="55.5556" style="fill: #53b4c3"/>
    <rect x="277.778"  y="0" height="6.26383" width="55.5556" style="fill: #643f20"/>
    <rect x="333.333"  y="0" height="3.59149" width="55.5556" style="fill: #4ef259"/>
    <rect x="388.889"  y="0" height="3.59149" width="55.5556" style="fill: #d2e980"/>
    <rect x="333.333"  y="0" height="3.72766" width="55.5556" style="fill: #42a948"/>
    <rect x="166.667"  y="0" height="35.6766" width="55.5556" style="fill: #aac5e8"/>
    <rect x="388.889"  y="0" height="103.66" width="55.5556" style="fill: #84cb3e"/>
    <rect x="277.778"  y="0" height="5.19149" width="55.5556" style="fill: #c7db92"/>
    <rect x="333.333"  y="0" height="2.94468" width="55.5556" style="fill: #5643fd"/>
    <rect x="111.111"  y="0" height="8.2383" width="55.5556" style="fill: #34fdd4"/>
    <rect x="333.333"  y="0" height="16.0851" width="55.5556" style="fill: #67e2cc"/>
    <rect x="277.778"  y="0" height="6.46809" width="55.5556" style="fill: #a40603"/>
    <rect x="222.222"  y="0" height="3.09787" width="55.5556" style="fill: #5cb274"/>
    <rect x="222.222"  y="0" height="2.43404" width="55.5556" style="fill: #4cb90a"/>
    <rect x="277.778"  y="0" height="6.21277" width="55.5556" style="fill: #63e51c"/>
    <rect x="111.111"  y="0" height="38.5702" width="55.5556" style="fill: #973790"/>
    <rect x="222.222"  y="0" height="2.55319" width="55.5556" style="fill: #334394"/>
    <rect x="222.222"  y="0" height="1.73617" width="55.5556" style="fill: #7e0208"/>
    <rect x="222.222"  y="0" height="18.3149" width="55.5556" style="fill: #6541e4"/>
    <rect x="277.778"  y="0" height="11.6085" width="55.5556" style="fill: #c48a99"/>
    <rect x="333.333"  y="0" height="20.7149" width="55.5556" style="fill: #630aa9"/>
    <rect x="277.778"  y="0" height="21.3957" width="55.5556" style="fill: #aece15"/>
    <rect x="166.667"  y="0" height="3.47234" width="55.5556" style="fill: #3843a4"/>
    <rect x="222.222"  y="0" height="2.6383" width="55.5556" style="fill: #b19027"/>
    <rect x="166.667"  y="0" height="4.78298" width="55.5556" style="fill: #4ebc95"/>
    <rect x="222.222"  y="0" height="6.24681" width="55.5556" style="fill: #5f8592"/>
    <rect x="333.333"  y="0" height="9.3617" width="55.5556" style="fill: #e30a22"/>
    <rect x="166.667"  y="0" height="161.362" width="55.5556" style="fill: #05a485"/>
    <rect x="222.222"  y="0" height="10.8596" width="55.5556" style="fill: #846248"/>
    <rect x="333.333"  y="0" height="34.5872" width="55.5556" style="fill: #987550"/>
    <rect x="277.778"  y="0" height="20.2723" width="55.5556" style="fill: #aaf209"/>
    <rect x="111.111"  y="0" height="15.8298" width="55.5556" style="fill: #4ec59e"/>
    <rect x="222.222"  y="0" height="1.65106" width="55.5556" style="fill: #7931dc"/>
    <rect x="222.222"  y="0" height="380.783" width="55.5556" style="fill: #650c74"/>
    <rect x="0"  y="0" height="12.2894" width="55.5556" style="fill: #51cc61"/>
    <rect x="55.5556"  y="0" height="11.6936" width="55.5556" style="fill: #c0cb2c"/>
    <rect x="111.111"  y="0" height="35.9489" width="55.5556" style="fill: #46a1b3"/>
    <rect x="277.778"  y="0" height="12.766" width="55.5556" style="fill: #f2c349"/>
    <rect x="0"  y="0" height="9.66809" width="55.5556" style="fill: #faff76"/>
    <rect x="55.5556"  y="0" height="243.455" width="55.5556" style="fill: #3c7f8d"/>
    <rect x="0"  y="0" height="5.58298" width="55.5556" style="fill: #14ddff"/>
    <rect x="277.778"  y="0" height="11.4553" width="55.5556" style="fill: #946351"/>
    <rect x="333.333"  y="0" height="3.54043" width="55.5556" style="fill: #744378"/>
    <rect x="0"  y="0" height="6.12766" width="55.5556" style="fill: #d62c59"/>
    <rect x="333.333"  y="0" height="9.65106" width="55.5556" style="fill: #285a8d"/>
    <rect x="0"  y="0" height="14.6383" width="55.5556" style="fill: #791561"/>
    <rect x="277.778"  y="0" height="2.1617" width="55.5556" style="fill: #4f5a2a"/>
    <rect x="277.778"  y="0" height="5.61702" width="55.5556" style="fill: #c9e0d6"/>
    <rect x="333.333"  y="0" height="60.1702" width="55.5556" style="fill: #8aca62"/>
    <rect x="388.889"  y="0" height="9.24255" width="55.5556" style="fill: #48a922"/>
    <rect x="277.778"  y="0" height="18.1447" width="55.5556" style="fill: #7ab8f1"/>
    <rect x="111.111"  y="0" height="2.45106" width="55.5556" style="fill: #930ee3"/>
    <rect x="111.111"  y="0" height="28.0681" width="55.5556" style="fill: #8ac7a9"/>
    <rect x="0"  y="0" height="6.1617" width="55.5556" style="fill: #d239c9"/>
    <rect x="388.889"  y="0" height="2.77447" width="55.5556" style="fill: #b026a4"/>
    <rect x="388.889"  y="0" height="10.3489" width="55.5556" style="fill: #81e49d"/>
    <rect x="0"  y="0" height="6.99574" width="55.5556" style="fill: #53161f"/>
    <rect x="277.778"  y="0" height="24.3574" width="55.5556" style="fill: #9a9513"/>
    <rect x="0"  y="0" height="9.08936" width="55.5556" style="fill: #fe5271"/>
    <rect x="388.889"  y="0" height="36.4255" width="55.5556" style="fill: #c32e9c"/>
    <rect x="0"  y="0" height="30.7915" width="55.5556" style="fill: #21d156"/>
</svg>
</svg>
