<svg  xmlns="http://www.w3.org/2000/svg" xmlns:xlink="http://www.w3.org/1999/xlink" x="0" y="0" width="600" height="600">
<rect x="0%" y="0%" height="100%" width="100%" style="fill: #ffffff"/>
<svg x="0" y="0">
  <text fill="dark" font-size="35" transform="translate(250, 30)">cores</text>
</svg>
<svg x="0" y="0"> 
  <text fill="dark" font-size="35" transform="translate(30, 300) rotate(270)">time</text>
</svg>
<svg x = "50" y="550">
  <text fill="blue" font-size="30" transform="translate(0, 35)">t = 4s, lb = 0.986486</text>
</svg>
<svg x="50" y="50" width="500" height="500" >
  <rect x="0%" y="0%" height="100%" width="100%" style="fill: #eeeeee"/>
    <rect x="0"  y="0" height="4.46633" width="250" style="fill: #eb9f1b"/>
    <rect x="0"  y="0" height="6.41319" width="250" style="fill: #ea57f6"/>
    <rect x="0"  y="0" height="3.66468" width="250" style="fill: #ae4f1b"/>
    <rect x="0"  y="0" height="5.15346" width="250" style="fill: #1de3b7"/>
    <rect x="0"  y="0" height="4.92442" width="250" style="fill: #fd9cee"/>
    <rect x="0"  y="0" height="3.66468" width="250" style="fill: #2d9cca"/>
    <rect x="0"  y="0" height="4.35181" width="250" style="fill: #7b4c24"/>
    <rect x="0"  y="0" height="2.40495" width="250" style="fill: #2d26c3"/>
    <rect x="0"  y="0" height="4.58085" width="250" style="fill: #1d000b"/>
    <rect x="0"  y="0" height="6.9858" width="250" style="fill: #7f90b7"/>
    <rect x="0"  y="0" height="6.29867" width="250" style="fill: #fe48a1"/>
    <rect x="0"  y="0" height="5.03894" width="250" style="fill: #31c7de"/>
    <rect x="0"  y="0" height="4.12277" width="250" style="fill: #bfbe58"/>
    <rect x="0"  y="0" height="4.46633" width="250" style="fill: #165266"/>
    <rect x="0"  y="0" height="2.1759" width="250" style="fill: #de56e1"/>
    <rect x="0"  y="0" height="8.13101" width="250" style="fill: #edf269"/>
    <rect x="0"  y="0" height="4.00825" width="250" style="fill: #39af07"/>
    <rect x="0"  y="0" height="2.74851" width="250" style="fill: #ec69ab"/>
    <rect x="0"  y="0" height="9.73431" width="250" style="fill: #1b17d8"/>
    <rect x="0"  y="0" height="3.7792" width="250" style="fill: #db6214"/>
    <rect x="0"  y="0" height="5.84059" width="250" style="fill: #3f2228"/>
    <rect x="0"  y="0" height="6.52771" width="250" style="fill: #b51551"/>
    <rect x="0"  y="0" height="6.18415" width="250" style="fill: #c3d2c7"/>
    <rect x="0"  y="0" height="4.35181" width="250" style="fill: #de3f50"/>
    <rect x="0"  y="0" height="4.58085" width="250" style="fill: #72bd4d"/>
    <rect x="0"  y="0" height="5.03894" width="250" style="fill: #18c3ae"/>
    <rect x="0"  y="0" height="6.18415" width="250" style="fill: #b64cb9"/>
    <rect x="0"  y="0" height="3.7792" width="250" style="fill: #e8cba8"/>
    <rect x="0"  y="0" height="2.40495" width="250" style="fill: #38667b"/>
    <rect x="0"  y="0" height="11.2231" width="250" style="fill: #6ed2b2"/>
    <rect x="0"  y="0" height="5.49702" width="250" style="fill: #fcab04"/>
    <rect x="0"  y="0" height="4.12277" width="250" style="fill: #abae86"/>
    <rect x="0"  y="0" height="4.00825" width="250" style="fill: #76e318"/>
    <rect x="0"  y="0" height="3.09208" width="250" style="fill: #b402a7"/>
    <rect x="0"  y="0" height="5.49702" width="250" style="fill: #d15b30"/>
    <rect x="0"  y="0" height="3.89372" width="250" style="fill: #d2d7dd"/>
    <rect x="0"  y="0" height="3.32112" width="250" style="fill: #b78650"/>
    <rect x="0"  y="0" height="11.5667" width="250" style="fill: #cc6af8"/>
    <rect x="0"  y="0" height="4.00825" width="250" style="fill: #2bc3d7"/>
    <rect x="0"  y="0" height="4.46633" width="250" style="fill: #aa805b"/>
    <rect x="0"  y="0" height="4.12277" width="250" style="fill: #02dd9a"/>
    <rect x="0"  y="0" height="5.49702" width="250" style="fill: #a523b7"/>
    <rect x="0"  y="0" height="4.46633" width="250" style="fill: #374a13"/>
    <rect x="0"  y="0" height="3.89372" width="250" style="fill: #23ee6b"/>
    <rect x="0"  y="0" height="4.46633" width="250" style="fill: #516d1b"/>
    <rect x="0"  y="0" height="3.7792" width="250" style="fill: #81e5f7"/>
    <rect x="0"  y="0" height="4.46633" width="250" style="fill: #09c2c7"/>
    <rect x="0"  y="0" height="3.2066" width="250" style="fill: #90edaf"/>
    <rect x="0"  y="0" height="3.43564" width="250" style="fill: #1c3fa9"/>
    <rect x="0"  y="0" height="6.41319" width="250" style="fill: #b0a1db"/>
    <rect x="0"  y="0" height="7.10032" width="250" style="fill: #c6dabc"/>
    <rect x="0"  y="0" height="5.15346" width="250" style="fill: #2b5ed2"/>
    <rect x="0"  y="0" height="3.66468" width="250" style="fill: #67244c"/>
    <rect x="0"  y="0" height="4.23729" width="250" style="fill: #458752"/>
    <rect x="0"  y="0" height="4.23729" width="250" style="fill: #002b10"/>
    <rect x="0"  y="0" height="4.00825" width="250" style="fill: #6d6381"/>
    <rect x="0"  y="0" height="4.46633" width="250" style="fill: #fad58a"/>
    <rect x="0"  y="0" height="5.3825" width="250" style="fill: #7e1936"/>
    <rect x="0"  y="0" height="6.9858" width="250" style="fill: #57bde0"/>
    <rect x="0"  y="0" height="7.67293" width="250" style="fill: #fe0291"/>
    <rect x="0"  y="0" height="6.06963" width="250" style="fill: #20f837"/>
    <rect x="0"  y="0" height="4.58085" width="250" style="fill: #931689"/>
    <rect x="0"  y="0" height="10.0779" width="250" style="fill: #1f828b"/>
    <rect x="0"  y="0" height="3.66468" width="250" style="fill: #8d24a0"/>
    <rect x="0"  y="0" height="4.00825" width="250" style="fill: #49e5b8"/>
    <rect x="0"  y="0" height="4.23729" width="250" style="fill: #6d855b"/>
    <rect x="0"  y="0" height="3.7792" width="250" style="fill: #cfed56"/>
    <rect x="0"  y="0" height="6.52771" width="250" style="fill: #765f9d"/>
    <rect x="0"  y="0" height="5.49702" width="250" style="fill: #a1ac54"/>
    <rect x="0"  y="0" height="5.3825" width="250" style="fill: #caeaf9"/>
    <rect x="0"  y="0" height="3.55016" width="250" style="fill: #257abc"/>
    <rect x="0"  y="0" height="7.55841" width="250" style="fill: #67b451"/>
    <rect x="0"  y="0" height="4.23729" width="250" style="fill: #bc70b0"/>
    <rect x="0"  y="0" height="8.93266" width="250" style="fill: #e52817"/>
    <rect x="0"  y="0" height="2.74851" width="250" style="fill: #dd1b70"/>
    <rect x="0"  y="0" height="5.03894" width="250" style="fill: #4a6b41"/>
    <rect x="0"  y="0" height="3.09208" width="250" style="fill: #8a83fd"/>
    <rect x="0"  y="0" height="2.74851" width="250" style="fill: #4a9ca4"/>
    <rect x="0"  y="0" height="9.1617" width="250" style="fill: #c89e1a"/>
    <rect x="0"  y="0" height="5.26798" width="250" style="fill: #6e779f"/>
    <rect x="0"  y="0" height="3.2066" width="250" style="fill: #8d9e9d"/>
    <rect x="0"  y="0" height="5.61154" width="250" style="fill: #f18747"/>
    <rect x="0"  y="0" height="3.89372" width="250" style="fill: #591e5b"/>
    <rect x="0"  y="0" height="5.49702" width="250" style="fill: #314c05"/>
    <rect x="0"  y="0" height="3.43564" width="250" style="fill: #763edc"/>
    <rect x="0"  y="0" height="3.55016" width="250" style="fill: #d59632"/>
    <rect x="0"  y="0" height="4.58085" width="250" style="fill: #423ca8"/>
    <rect x="0"  y="0" height="5.84059" width="250" style="fill: #3f14d6"/>
    <rect x="0"  y="0" height="4.58085" width="250" style="fill: #f073d7"/>
    <rect x="0"  y="0" height="2.63399" width="250" style="fill: #84db2b"/>
    <rect x="0"  y="0" height="2.97755" width="250" style="fill: #700164"/>
    <rect x="0"  y="0" height="3.89372" width="250" style="fill: #3a6760"/>
    <rect x="0"  y="0" height="6.75676" width="250" style="fill: #f9f0dd"/>
    <rect x="0"  y="0" height="3.55016" width="250" style="fill: #6ddd0a"/>
    <rect x="0"  y="0" height="4.12277" width="250" style="fill: #59e241"/>
    <rect x="0"  y="0" height="7.44388" width="250" style="fill: #dc1ed7"/>
    <rect x="0"  y="0" height="2.74851" width="250" style="fill: #202878"/>
    <rect x="0"  y="0" height="4.69537" width="250" style="fill: #96286f"/>
    <rect x="0"  y="0" height="2.86303" width="250" style="fill: #5cc3ad"/>
    <rect x="0"  y="0" height="5.84059" width="250" style="fill: #df6c1a"/>
</svg>
</svg>
