<svg  xmlns="http://www.w3.org/2000/svg" xmlns:xlink="http://www.w3.org/1999/xlink" x="0" y="0" width="600" height="600">
<rect x="0%" y="0%" height="100%" width="100%" style="fill: #ffffff"/>
<svg x="0" y="0">
  <text fill="dark" font-size="35" transform="translate(250, 30)">cores</text>
</svg>
<svg x="0" y="0"> 
  <text fill="dark" font-size="35" transform="translate(30, 300) rotate(270)">time</text>
</svg>
<svg x = "50" y="550">
  <text fill="blue" font-size="30" transform="translate(0, 35)">t = 8s, lb = 0.993009</text>
</svg>
<svg x="50" y="50" width="500" height="500" >
  <rect x="0%" y="0%" height="100%" width="100%" style="fill: #eeeeee"/>
    <rect x="0"  y="0" height="2.62146" width="250" style="fill: #76931f"/>
    <rect x="0"  y="0" height="8.0974" width="250" style="fill: #ac9dab"/>
    <rect x="0"  y="0" height="5.35943" width="250" style="fill: #2b36c2"/>
    <rect x="0"  y="0" height="4.71863" width="250" style="fill: #48b87d"/>
    <rect x="0"  y="0" height="5.76721" width="250" style="fill: #6ae33f"/>
    <rect x="0"  y="0" height="5.59245" width="250" style="fill: #9a62d7"/>
    <rect x="0"  y="0" height="4.54387" width="250" style="fill: #183a5d"/>
    <rect x="0"  y="0" height="2.27193" width="250" style="fill: #5789e4"/>
    <rect x="0"  y="0" height="3.78655" width="250" style="fill: #b2d6b4"/>
    <rect x="0"  y="0" height="5.88372" width="250" style="fill: #41e241"/>
    <rect x="0"  y="0" height="5.0099" width="250" style="fill: #1dc709"/>
    <rect x="0"  y="0" height="4.42736" width="250" style="fill: #e111c7"/>
    <rect x="0"  y="0" height="6.11674" width="250" style="fill: #e1e7ac"/>
    <rect x="0"  y="0" height="4.77688" width="250" style="fill: #b6f8ca"/>
    <rect x="0"  y="0" height="5.70896" width="250" style="fill: #c0bb2f"/>
    <rect x="0"  y="0" height="4.83514" width="250" style="fill: #c4c8bc"/>
    <rect x="0"  y="0" height="2.15542" width="250" style="fill: #2ae3ba"/>
    <rect x="0"  y="0" height="7.34009" width="250" style="fill: #aab916"/>
    <rect x="0"  y="0" height="8.97122" width="250" style="fill: #5cc458"/>
    <rect x="0"  y="0" height="5.30118" width="250" style="fill: #e199cb"/>
    <rect x="0"  y="0" height="4.95165" width="250" style="fill: #89f51b"/>
    <rect x="0"  y="0" height="4.77688" width="250" style="fill: #135f70"/>
    <rect x="0"  y="0" height="4.01957" width="250" style="fill: #91a5ab"/>
    <rect x="0"  y="0" height="6.69929" width="250" style="fill: #b0874d"/>
    <rect x="0"  y="0" height="3.96132" width="250" style="fill: #f3e8cb"/>
    <rect x="0"  y="0" height="7.51485" width="250" style="fill: #4543a5"/>
    <rect x="0"  y="0" height="3.90306" width="250" style="fill: #eb93b0"/>
    <rect x="0"  y="0" height="5.88372" width="250" style="fill: #441e9c"/>
    <rect x="0"  y="0" height="2.15542" width="250" style="fill: #a4c2b0"/>
    <rect x="0"  y="0" height="4.66038" width="250" style="fill: #fb3d30"/>
    <rect x="0"  y="0" height="5.5342" width="250" style="fill: #875cbf"/>
    <rect x="0"  y="0" height="6.05849" width="250" style="fill: #29abd5"/>
    <rect x="0"  y="0" height="2.91273" width="250" style="fill: #b1acf3"/>
    <rect x="0"  y="0" height="4.25259" width="250" style="fill: #8984b3"/>
    <rect x="0"  y="0" height="4.95165" width="250" style="fill: #5ae882"/>
    <rect x="0"  y="0" height="3.49528" width="250" style="fill: #809dd4"/>
    <rect x="0"  y="0" height="4.07783" width="250" style="fill: #cfe7ab"/>
    <rect x="0"  y="0" height="8.85471" width="250" style="fill: #c5c61b"/>
    <rect x="0"  y="0" height="6.93231" width="250" style="fill: #aa52e0"/>
    <rect x="0"  y="0" height="4.01957" width="250" style="fill: #53b4c3"/>
    <rect x="0"  y="0" height="3.0875" width="250" style="fill: #643f20"/>
    <rect x="0"  y="0" height="4.19434" width="250" style="fill: #4ef259"/>
    <rect x="0"  y="0" height="2.91273" width="250" style="fill: #d2e980"/>
    <rect x="0"  y="0" height="5.12641" width="250" style="fill: #42a948"/>
    <rect x="0"  y="0" height="7.39835" width="250" style="fill: #aac5e8"/>
    <rect x="0"  y="0" height="2.38844" width="250" style="fill: #84cb3e"/>
    <rect x="0"  y="0" height="7.10707" width="250" style="fill: #c7db92"/>
    <rect x="0"  y="0" height="4.01957" width="250" style="fill: #5643fd"/>
    <rect x="0"  y="0" height="4.89339" width="250" style="fill: #34fdd4"/>
    <rect x="0"  y="0" height="6.99056" width="250" style="fill: #67e2cc"/>
    <rect x="0"  y="0" height="3.02924" width="250" style="fill: #a40603"/>
    <rect x="0"  y="0" height="4.71863" width="250" style="fill: #5cb274"/>
    <rect x="0"  y="0" height="5.0099" width="250" style="fill: #4cb90a"/>
    <rect x="0"  y="0" height="5.0099" width="250" style="fill: #63e51c"/>
    <rect x="0"  y="0" height="3.0875" width="250" style="fill: #973790"/>
    <rect x="0"  y="0" height="4.31085" width="250" style="fill: #334394"/>
    <rect x="0"  y="0" height="5.0099" width="250" style="fill: #7e0208"/>
    <rect x="0"  y="0" height="6.58278" width="250" style="fill: #6541e4"/>
    <rect x="0"  y="0" height="4.25259" width="250" style="fill: #c48a99"/>
    <rect x="0"  y="0" height="9.2625" width="250" style="fill: #630aa9"/>
    <rect x="0"  y="0" height="3.96132" width="250" style="fill: #aece15"/>
    <rect x="0"  y="0" height="5.06816" width="250" style="fill: #3843a4"/>
    <rect x="0"  y="0" height="6.8158" width="250" style="fill: #b19027"/>
    <rect x="0"  y="0" height="4.71863" width="250" style="fill: #4ebc95"/>
    <rect x="0"  y="0" height="6.05849" width="250" style="fill: #5f8592"/>
    <rect x="0"  y="0" height="6.58278" width="250" style="fill: #e30a22"/>
    <rect x="0"  y="0" height="3.67005" width="250" style="fill: #05a485"/>
    <rect x="0"  y="0" height="2.62146" width="250" style="fill: #846248"/>
    <rect x="0"  y="0" height="4.95165" width="250" style="fill: #987550"/>
    <rect x="0"  y="0" height="6.29151" width="250" style="fill: #aaf209"/>
    <rect x="0"  y="0" height="5.76721" width="250" style="fill: #4ec59e"/>
    <rect x="0"  y="0" height="5.94198" width="250" style="fill: #7931dc"/>
    <rect x="0"  y="0" height="5.47594" width="250" style="fill: #650c74"/>
    <rect x="0"  y="0" height="5.24292" width="250" style="fill: #51cc61"/>
    <rect x="0"  y="0" height="4.60212" width="250" style="fill: #c0cb2c"/>
    <rect x="0"  y="0" height="7.28184" width="250" style="fill: #46a1b3"/>
    <rect x="0"  y="0" height="4.07783" width="250" style="fill: #f2c349"/>
    <rect x="0"  y="0" height="2.50495" width="250" style="fill: #faff76"/>
    <rect x="0"  y="0" height="7.51485" width="250" style="fill: #3c7f8d"/>
    <rect x="0"  y="0" height="5.35943" width="250" style="fill: #14ddff"/>
    <rect x="0"  y="0" height="3.90306" width="250" style="fill: #946351"/>
    <rect x="0"  y="0" height="5.70896" width="250" style="fill: #744378"/>
    <rect x="0"  y="0" height="11.5927" width="250" style="fill: #d62c59"/>
    <rect x="0"  y="0" height="5.41769" width="250" style="fill: #285a8d"/>
    <rect x="0"  y="0" height="4.07783" width="250" style="fill: #791561"/>
    <rect x="0"  y="0" height="5.12641" width="250" style="fill: #4f5a2a"/>
    <rect x="0"  y="0" height="3.0875" width="250" style="fill: #c9e0d6"/>
    <rect x="0"  y="0" height="5.70896" width="250" style="fill: #8aca62"/>
    <rect x="0"  y="0" height="3.32052" width="250" style="fill: #48a922"/>
    <rect x="0"  y="0" height="3.37877" width="250" style="fill: #7ab8f1"/>
    <rect x="0"  y="0" height="3.67005" width="250" style="fill: #930ee3"/>
    <rect x="0"  y="0" height="5.70896" width="250" style="fill: #8ac7a9"/>
    <rect x="0"  y="0" height="4.25259" width="250" style="fill: #d239c9"/>
    <rect x="0"  y="0" height="2.85448" width="250" style="fill: #b026a4"/>
    <rect x="0"  y="0" height="1.33986" width="250" style="fill: #81e49d"/>
    <rect x="0"  y="0" height="6.05849" width="250" style="fill: #53161f"/>
    <rect x="0"  y="0" height="3.67005" width="250" style="fill: #9a9513"/>
    <rect x="0"  y="0" height="4.3691" width="250" style="fill: #fe5271"/>
    <rect x="0"  y="0" height="2.50495" width="250" style="fill: #c32e9c"/>
    <rect x="0"  y="0" height="4.95165" width="250" style="fill: #21d156"/>
</svg>
</svg>
