<svg  xmlns="http://www.w3.org/2000/svg" xmlns:xlink="http://www.w3.org/1999/xlink" x="0" y="0" width="600" height="600">
<rect x="0%" y="0%" height="100%" width="100%" style="fill: #ffffff"/>
<svg x="0" y="0">
  <text fill="dark" font-size="35" transform="translate(250, 30)">cores</text>
</svg>
<svg x="0" y="0"> 
  <text fill="dark" font-size="35" transform="translate(30, 300) rotate(270)">time</text>
</svg>
<svg x = "50" y="550">
  <text fill="blue" font-size="30" transform="translate(0, 35)">t = 9s, lb = 0.993016</text>
</svg>
<svg x="50" y="50" width="500" height="500" >
  <rect x="0%" y="0%" height="100%" width="100%" style="fill: #eeeeee"/>
    <rect x="0"  y="0" height="2.66075" width="250" style="fill: #76931f"/>
    <rect x="0"  y="0" height="7.37251" width="250" style="fill: #ac9dab"/>
    <rect x="0"  y="0" height="5.09978" width="250" style="fill: #2b36c2"/>
    <rect x="0"  y="0" height="5.54324" width="250" style="fill: #48b87d"/>
    <rect x="0"  y="0" height="5.54324" width="250" style="fill: #6ae33f"/>
    <rect x="0"  y="0" height="5.59867" width="250" style="fill: #9a62d7"/>
    <rect x="0"  y="0" height="4.65632" width="250" style="fill: #183a5d"/>
    <rect x="0"  y="0" height="3.6031" width="250" style="fill: #5789e4"/>
    <rect x="0"  y="0" height="4.54545" width="250" style="fill: #b2d6b4"/>
    <rect x="0"  y="0" height="5.93126" width="250" style="fill: #41e241"/>
    <rect x="0"  y="0" height="4.15743" width="250" style="fill: #1dc709"/>
    <rect x="0"  y="0" height="3.88027" width="250" style="fill: #e111c7"/>
    <rect x="0"  y="0" height="6.65188" width="250" style="fill: #e1e7ac"/>
    <rect x="0"  y="0" height="4.32373" width="250" style="fill: #b6f8ca"/>
    <rect x="0"  y="0" height="3.82483" width="250" style="fill: #c0bb2f"/>
    <rect x="0"  y="0" height="6.37472" width="250" style="fill: #c4c8bc"/>
    <rect x="0"  y="0" height="2.54989" width="250" style="fill: #2ae3ba"/>
    <rect x="0"  y="0" height="7.26164" width="250" style="fill: #aab916"/>
    <rect x="0"  y="0" height="8.53659" width="250" style="fill: #5cc458"/>
    <rect x="0"  y="0" height="5.26608" width="250" style="fill: #e199cb"/>
    <rect x="0"  y="0" height="5.37694" width="250" style="fill: #89f51b"/>
    <rect x="0"  y="0" height="4.76718" width="250" style="fill: #135f70"/>
    <rect x="0"  y="0" height="3.71397" width="250" style="fill: #91a5ab"/>
    <rect x="0"  y="0" height="7.42794" width="250" style="fill: #b0874d"/>
    <rect x="0"  y="0" height="3.65854" width="250" style="fill: #f3e8cb"/>
    <rect x="0"  y="0" height="7.59424" width="250" style="fill: #4543a5"/>
    <rect x="0"  y="0" height="4.54545" width="250" style="fill: #eb93b0"/>
    <rect x="0"  y="0" height="4.93348" width="250" style="fill: #441e9c"/>
    <rect x="0"  y="0" height="2.54989" width="250" style="fill: #a4c2b0"/>
    <rect x="0"  y="0" height="4.15743" width="250" style="fill: #fb3d30"/>
    <rect x="0"  y="0" height="6.20843" width="250" style="fill: #875cbf"/>
    <rect x="0"  y="0" height="7.03991" width="250" style="fill: #29abd5"/>
    <rect x="0"  y="0" height="2.93792" width="250" style="fill: #b1acf3"/>
    <rect x="0"  y="0" height="3.9357" width="250" style="fill: #8984b3"/>
    <rect x="0"  y="0" height="3.27051" width="250" style="fill: #5ae882"/>
    <rect x="0"  y="0" height="3.88027" width="250" style="fill: #809dd4"/>
    <rect x="0"  y="0" height="4.43459" width="250" style="fill: #cfe7ab"/>
    <rect x="0"  y="0" height="7.98226" width="250" style="fill: #c5c61b"/>
    <rect x="0"  y="0" height="5.32151" width="250" style="fill: #aa52e0"/>
    <rect x="0"  y="0" height="4.54545" width="250" style="fill: #53b4c3"/>
    <rect x="0"  y="0" height="2.49446" width="250" style="fill: #643f20"/>
    <rect x="0"  y="0" height="5.15521" width="250" style="fill: #4ef259"/>
    <rect x="0"  y="0" height="2.82705" width="250" style="fill: #d2e980"/>
    <rect x="0"  y="0" height="5.9867" width="250" style="fill: #42a948"/>
    <rect x="0"  y="0" height="6.70732" width="250" style="fill: #aac5e8"/>
    <rect x="0"  y="0" height="2.16186" width="250" style="fill: #84cb3e"/>
    <rect x="0"  y="0" height="5.9867" width="250" style="fill: #c7db92"/>
    <rect x="0"  y="0" height="4.32373" width="250" style="fill: #5643fd"/>
    <rect x="0"  y="0" height="4.82262" width="250" style="fill: #34fdd4"/>
    <rect x="0"  y="0" height="6.54102" width="250" style="fill: #67e2cc"/>
    <rect x="0"  y="0" height="2.54989" width="250" style="fill: #a40603"/>
    <rect x="0"  y="0" height="5.87583" width="250" style="fill: #5cb274"/>
    <rect x="0"  y="0" height="4.43459" width="250" style="fill: #4cb90a"/>
    <rect x="0"  y="0" height="5.26608" width="250" style="fill: #63e51c"/>
    <rect x="0"  y="0" height="2.77162" width="250" style="fill: #973790"/>
    <rect x="0"  y="0" height="4.32373" width="250" style="fill: #334394"/>
    <rect x="0"  y="0" height="5.15521" width="250" style="fill: #7e0208"/>
    <rect x="0"  y="0" height="5.76497" width="250" style="fill: #6541e4"/>
    <rect x="0"  y="0" height="4.21286" width="250" style="fill: #c48a99"/>
    <rect x="0"  y="0" height="7.09534" width="250" style="fill: #630aa9"/>
    <rect x="0"  y="0" height="4.98891" width="250" style="fill: #aece15"/>
    <rect x="0"  y="0" height="4.71175" width="250" style="fill: #3843a4"/>
    <rect x="0"  y="0" height="6.37472" width="250" style="fill: #b19027"/>
    <rect x="0"  y="0" height="5.6541" width="250" style="fill: #4ebc95"/>
    <rect x="0"  y="0" height="6.20843" width="250" style="fill: #5f8592"/>
    <rect x="0"  y="0" height="6.15299" width="250" style="fill: #e30a22"/>
    <rect x="0"  y="0" height="4.04656" width="250" style="fill: #05a485"/>
    <rect x="0"  y="0" height="2.66075" width="250" style="fill: #846248"/>
    <rect x="0"  y="0" height="4.21286" width="250" style="fill: #987550"/>
    <rect x="0"  y="0" height="5.04435" width="250" style="fill: #aaf209"/>
    <rect x="0"  y="0" height="4.76718" width="250" style="fill: #4ec59e"/>
    <rect x="0"  y="0" height="5.59867" width="250" style="fill: #7931dc"/>
    <rect x="0"  y="0" height="5.21064" width="250" style="fill: #650c74"/>
    <rect x="0"  y="0" height="6.04213" width="250" style="fill: #51cc61"/>
    <rect x="0"  y="0" height="4.26829" width="250" style="fill: #c0cb2c"/>
    <rect x="0"  y="0" height="7.64967" width="250" style="fill: #46a1b3"/>
    <rect x="0"  y="0" height="4.71175" width="250" style="fill: #f2c349"/>
    <rect x="0"  y="0" height="3.54767" width="250" style="fill: #faff76"/>
    <rect x="0"  y="0" height="7.8714" width="250" style="fill: #3c7f8d"/>
    <rect x="0"  y="0" height="5.37694" width="250" style="fill: #14ddff"/>
    <rect x="0"  y="0" height="4.102" width="250" style="fill: #946351"/>
    <rect x="0"  y="0" height="7.26164" width="250" style="fill: #744378"/>
    <rect x="0"  y="0" height="10.5876" width="250" style="fill: #d62c59"/>
    <rect x="0"  y="0" height="5.21064" width="250" style="fill: #285a8d"/>
    <rect x="0"  y="0" height="4.93348" width="250" style="fill: #791561"/>
    <rect x="0"  y="0" height="6.09756" width="250" style="fill: #4f5a2a"/>
    <rect x="0"  y="0" height="3.49224" width="250" style="fill: #c9e0d6"/>
    <rect x="0"  y="0" height="7.15078" width="250" style="fill: #8aca62"/>
    <rect x="0"  y="0" height="3.82483" width="250" style="fill: #48a922"/>
    <rect x="0"  y="0" height="2.43902" width="250" style="fill: #7ab8f1"/>
    <rect x="0"  y="0" height="3.32594" width="250" style="fill: #930ee3"/>
    <rect x="0"  y="0" height="5.8204" width="250" style="fill: #8ac7a9"/>
    <rect x="0"  y="0" height="5.21064" width="250" style="fill: #d239c9"/>
    <rect x="0"  y="0" height="3.54767" width="250" style="fill: #b026a4"/>
    <rect x="0"  y="0" height="1.38581" width="250" style="fill: #81e49d"/>
    <rect x="0"  y="0" height="5.04435" width="250" style="fill: #53161f"/>
    <rect x="0"  y="0" height="3.99113" width="250" style="fill: #9a9513"/>
    <rect x="0"  y="0" height="3.65854" width="250" style="fill: #fe5271"/>
    <rect x="0"  y="0" height="3.65854" width="250" style="fill: #c32e9c"/>
    <rect x="0"  y="0" height="4.54545" width="250" style="fill: #21d156"/>
</svg>
</svg>
