<svg  xmlns="http://www.w3.org/2000/svg" xmlns:xlink="http://www.w3.org/1999/xlink" x="0" y="0" width="600" height="600">
<rect x="0%" y="0%" height="100%" width="100%" style="fill: #ffffff"/>
<svg x="0" y="0">
  <text fill="dark" font-size="35" transform="translate(250, 30)">cores</text>
</svg>
<svg x="0" y="0"> 
  <text fill="dark" font-size="35" transform="translate(30, 300) rotate(270)">time</text>
</svg>
<svg x = "50" y="550">
  <text fill="blue" font-size="30" transform="translate(0, 35)">t = 8s, lb = 0.992694</text>
</svg>
<svg x="50" y="50" width="500" height="500" >
  <rect x="0%" y="0%" height="100%" width="100%" style="fill: #eeeeee"/>
    <rect x="0"  y="0" height="2.55132" width="250" style="fill: #76931f"/>
    <rect x="0"  y="0" height="6.08837" width="250" style="fill: #ac9dab"/>
    <rect x="0"  y="0" height="5.04465" width="250" style="fill: #2b36c2"/>
    <rect x="0"  y="0" height="4.29085" width="250" style="fill: #48b87d"/>
    <rect x="0"  y="0" height="5.74046" width="250" style="fill: #6ae33f"/>
    <rect x="0"  y="0" height="4.92868" width="250" style="fill: #9a62d7"/>
    <rect x="0"  y="0" height="3.76899" width="250" style="fill: #183a5d"/>
    <rect x="0"  y="0" height="2.6093" width="250" style="fill: #5789e4"/>
    <rect x="0"  y="0" height="4.17488" width="250" style="fill: #b2d6b4"/>
    <rect x="0"  y="0" height="5.9724" width="250" style="fill: #41e241"/>
    <rect x="0"  y="0" height="3.65302" width="250" style="fill: #1dc709"/>
    <rect x="0"  y="0" height="4.40682" width="250" style="fill: #e111c7"/>
    <rect x="0"  y="0" height="5.62449" width="250" style="fill: #e1e7ac"/>
    <rect x="0"  y="0" height="5.16062" width="250" style="fill: #b6f8ca"/>
    <rect x="0"  y="0" height="4.4648" width="250" style="fill: #c0bb2f"/>
    <rect x="0"  y="0" height="6.78418" width="250" style="fill: #c4c8bc"/>
    <rect x="0"  y="0" height="2.14543" width="250" style="fill: #2ae3ba"/>
    <rect x="0"  y="0" height="7.94387" width="250" style="fill: #aab916"/>
    <rect x="0"  y="0" height="8.98759" width="250" style="fill: #5cc458"/>
    <rect x="0"  y="0" height="5.85643" width="250" style="fill: #e199cb"/>
    <rect x="0"  y="0" height="5.62449" width="250" style="fill: #89f51b"/>
    <rect x="0"  y="0" height="5.10263" width="250" style="fill: #135f70"/>
    <rect x="0"  y="0" height="3.82697" width="250" style="fill: #91a5ab"/>
    <rect x="0"  y="0" height="6.43628" width="250" style="fill: #b0874d"/>
    <rect x="0"  y="0" height="4.40682" width="250" style="fill: #f3e8cb"/>
    <rect x="0"  y="0" height="8.17581" width="250" style="fill: #4543a5"/>
    <rect x="0"  y="0" height="5.16062" width="250" style="fill: #eb93b0"/>
    <rect x="0"  y="0" height="5.10263" width="250" style="fill: #441e9c"/>
    <rect x="0"  y="0" height="2.78325" width="250" style="fill: #a4c2b0"/>
    <rect x="0"  y="0" height="4.75473" width="250" style="fill: #fb3d30"/>
    <rect x="0"  y="0" height="6.08837" width="250" style="fill: #875cbf"/>
    <rect x="0"  y="0" height="7.42201" width="250" style="fill: #29abd5"/>
    <rect x="0"  y="0" height="2.66729" width="250" style="fill: #b1acf3"/>
    <rect x="0"  y="0" height="3.53705" width="250" style="fill: #8984b3"/>
    <rect x="0"  y="0" height="3.88496" width="250" style="fill: #5ae882"/>
    <rect x="0"  y="0" height="3.24713" width="250" style="fill: #809dd4"/>
    <rect x="0"  y="0" height="4.17488" width="250" style="fill: #cfe7ab"/>
    <rect x="0"  y="0" height="8.17581" width="250" style="fill: #c5c61b"/>
    <rect x="0"  y="0" height="5.39255" width="250" style="fill: #aa52e0"/>
    <rect x="0"  y="0" height="4.4648" width="250" style="fill: #53b4c3"/>
    <rect x="0"  y="0" height="3.18915" width="250" style="fill: #643f20"/>
    <rect x="0"  y="0" height="3.53705" width="250" style="fill: #4ef259"/>
    <rect x="0"  y="0" height="2.66729" width="250" style="fill: #d2e980"/>
    <rect x="0"  y="0" height="5.16062" width="250" style="fill: #42a948"/>
    <rect x="0"  y="0" height="8.46573" width="250" style="fill: #aac5e8"/>
    <rect x="0"  y="0" height="2.37736" width="250" style="fill: #84cb3e"/>
    <rect x="0"  y="0" height="8.00186" width="250" style="fill: #c7db92"/>
    <rect x="0"  y="0" height="4.40682" width="250" style="fill: #5643fd"/>
    <rect x="0"  y="0" height="4.40682" width="250" style="fill: #34fdd4"/>
    <rect x="0"  y="0" height="6.84217" width="250" style="fill: #67e2cc"/>
    <rect x="0"  y="0" height="2.84124" width="250" style="fill: #a40603"/>
    <rect x="0"  y="0" height="4.98666" width="250" style="fill: #5cb274"/>
    <rect x="0"  y="0" height="4.81271" width="250" style="fill: #4cb90a"/>
    <rect x="0"  y="0" height="7.48" width="250" style="fill: #63e51c"/>
    <rect x="0"  y="0" height="3.01519" width="250" style="fill: #973790"/>
    <rect x="0"  y="0" height="3.53705" width="250" style="fill: #334394"/>
    <rect x="0"  y="0" height="4.63876" width="250" style="fill: #7e0208"/>
    <rect x="0"  y="0" height="5.9724" width="250" style="fill: #6541e4"/>
    <rect x="0"  y="0" height="4.40682" width="250" style="fill: #c48a99"/>
    <rect x="0"  y="0" height="5.62449" width="250" style="fill: #630aa9"/>
    <rect x="0"  y="0" height="4.98666" width="250" style="fill: #aece15"/>
    <rect x="0"  y="0" height="4.23287" width="250" style="fill: #3843a4"/>
    <rect x="0"  y="0" height="6.66821" width="250" style="fill: #b19027"/>
    <rect x="0"  y="0" height="4.69674" width="250" style="fill: #4ebc95"/>
    <rect x="0"  y="0" height="6.84217" width="250" style="fill: #5f8592"/>
    <rect x="0"  y="0" height="5.74046" width="250" style="fill: #e30a22"/>
    <rect x="0"  y="0" height="3.01519" width="250" style="fill: #05a485"/>
    <rect x="0"  y="0" height="2.31938" width="250" style="fill: #846248"/>
    <rect x="0"  y="0" height="5.45054" width="250" style="fill: #987550"/>
    <rect x="0"  y="0" height="6.03038" width="250" style="fill: #aaf209"/>
    <rect x="0"  y="0" height="5.68248" width="250" style="fill: #4ec59e"/>
    <rect x="0"  y="0" height="5.62449" width="250" style="fill: #7931dc"/>
    <rect x="0"  y="0" height="5.50852" width="250" style="fill: #650c74"/>
    <rect x="0"  y="0" height="7.13209" width="250" style="fill: #51cc61"/>
    <rect x="0"  y="0" height="3.24713" width="250" style="fill: #c0cb2c"/>
    <rect x="0"  y="0" height="7.30604" width="250" style="fill: #46a1b3"/>
    <rect x="0"  y="0" height="4.63876" width="250" style="fill: #f2c349"/>
    <rect x="0"  y="0" height="3.53705" width="250" style="fill: #faff76"/>
    <rect x="0"  y="0" height="6.90015" width="250" style="fill: #3c7f8d"/>
    <rect x="0"  y="0" height="5.50852" width="250" style="fill: #14ddff"/>
    <rect x="0"  y="0" height="3.94294" width="250" style="fill: #946351"/>
    <rect x="0"  y="0" height="5.79845" width="250" style="fill: #744378"/>
    <rect x="0"  y="0" height="10.4372" width="250" style="fill: #d62c59"/>
    <rect x="0"  y="0" height="4.92868" width="250" style="fill: #285a8d"/>
    <rect x="0"  y="0" height="4.75473" width="250" style="fill: #791561"/>
    <rect x="0"  y="0" height="5.2186" width="250" style="fill: #4f5a2a"/>
    <rect x="0"  y="0" height="3.18915" width="250" style="fill: #c9e0d6"/>
    <rect x="0"  y="0" height="6.78418" width="250" style="fill: #8aca62"/>
    <rect x="0"  y="0" height="4.52279" width="250" style="fill: #48a922"/>
    <rect x="0"  y="0" height="3.07318" width="250" style="fill: #7ab8f1"/>
    <rect x="0"  y="0" height="3.59504" width="250" style="fill: #930ee3"/>
    <rect x="0"  y="0" height="5.79845" width="250" style="fill: #8ac7a9"/>
    <rect x="0"  y="0" height="5.9724" width="250" style="fill: #d239c9"/>
    <rect x="0"  y="0" height="2.78325" width="250" style="fill: #b026a4"/>
    <rect x="0"  y="0" height="1.33364" width="250" style="fill: #81e49d"/>
    <rect x="0"  y="0" height="6.08837" width="250" style="fill: #53161f"/>
    <rect x="0"  y="0" height="3.3631" width="250" style="fill: #9a9513"/>
    <rect x="0"  y="0" height="4.17488" width="250" style="fill: #fe5271"/>
    <rect x="0"  y="0" height="4.00093" width="250" style="fill: #c32e9c"/>
    <rect x="0"  y="0" height="4.52279" width="250" style="fill: #21d156"/>
</svg>
</svg>
