<svg  xmlns="http://www.w3.org/2000/svg" xmlns:xlink="http://www.w3.org/1999/xlink" x="0" y="0" width="600" height="600">
<rect x="0%" y="0%" height="100%" width="100%" style="fill: #ffffff"/>
<svg x="0" y="0">
  <text fill="dark" font-size="35" transform="translate(250, 30)">cores</text>
</svg>
<svg x="0" y="0"> 
  <text fill="dark" font-size="35" transform="translate(30, 300) rotate(270)">time</text>
</svg>
<svg x = "50" y="550">
  <text fill="blue" font-size="30" transform="translate(0, 35)">t = 67s, lb = 0.139057</text>
</svg>
<svg x="50" y="50" width="500" height="500" >
  <rect x="0%" y="0%" height="100%" width="100%" style="fill: #eeeeee"/>
    <rect x="0"  y="0" height="0.156541" width="55.5556" style="fill: #76931f"/>
    <rect x="222.222"  y="0" height="2.57175" width="55.5556" style="fill: #ac9dab"/>
    <rect x="111.111"  y="0" height="0.104361" width="55.5556" style="fill: #2b36c2"/>
    <rect x="55.5556"  y="0" height="0.208722" width="55.5556" style="fill: #48b87d"/>
    <rect x="333.333"  y="0" height="0.0670891" width="55.5556" style="fill: #6ae33f"/>
    <rect x="277.778"  y="0" height="0.536713" width="55.5556" style="fill: #9a62d7"/>
    <rect x="166.667"  y="0" height="0.193813" width="55.5556" style="fill: #183a5d"/>
    <rect x="388.889"  y="0" height="0.424898" width="55.5556" style="fill: #5789e4"/>
    <rect x="333.333"  y="0" height="0.991428" width="55.5556" style="fill: #b2d6b4"/>
    <rect x="111.111"  y="0" height="0.0819978" width="55.5556" style="fill: #41e241"/>
    <rect x="0"  y="0" height="0.0819978" width="55.5556" style="fill: #1dc709"/>
    <rect x="111.111"  y="0" height="1.07343" width="55.5556" style="fill: #e111c7"/>
    <rect x="166.667"  y="0" height="0.670891" width="55.5556" style="fill: #e1e7ac"/>
    <rect x="55.5556"  y="0" height="0.409989" width="55.5556" style="fill: #b6f8ca"/>
    <rect x="0"  y="0" height="0.193813" width="55.5556" style="fill: #c0bb2f"/>
    <rect x="388.889"  y="0" height="0.335445" width="55.5556" style="fill: #c4c8bc"/>
    <rect x="0"  y="0" height="0.700708" width="55.5556" style="fill: #2ae3ba"/>
    <rect x="277.778"  y="0" height="0.335445" width="55.5556" style="fill: #aab916"/>
    <rect x="55.5556"  y="0" height="0.193813" width="55.5556" style="fill: #5cc458"/>
    <rect x="388.889"  y="0" height="0.208722" width="55.5556" style="fill: #e199cb"/>
    <rect x="55.5556"  y="0" height="0.462169" width="55.5556" style="fill: #89f51b"/>
    <rect x="166.667"  y="0" height="0.327991" width="55.5556" style="fill: #135f70"/>
    <rect x="277.778"  y="0" height="0.149087" width="55.5556" style="fill: #91a5ab"/>
    <rect x="388.889"  y="0" height="0.156541" width="55.5556" style="fill: #b0874d"/>
    <rect x="277.778"  y="0" height="15.5647" width="55.5556" style="fill: #f3e8cb"/>
    <rect x="333.333"  y="0" height="0.156541" width="55.5556" style="fill: #4543a5"/>
    <rect x="0"  y="0" height="0.0670891" width="55.5556" style="fill: #eb93b0"/>
    <rect x="388.889"  y="0" height="0.469624" width="55.5556" style="fill: #441e9c"/>
    <rect x="166.667"  y="0" height="0.0596347" width="55.5556" style="fill: #a4c2b0"/>
    <rect x="0"  y="0" height="0.0969064" width="55.5556" style="fill: #fb3d30"/>
    <rect x="333.333"  y="0" height="0.193813" width="55.5556" style="fill: #875cbf"/>
    <rect x="111.111"  y="0" height="0.149087" width="55.5556" style="fill: #29abd5"/>
    <rect x="166.667"  y="0" height="0.260902" width="55.5556" style="fill: #b1acf3"/>
    <rect x="55.5556"  y="0" height="498.695" width="55.5556" style="fill: #8984b3"/>
    <rect x="0"  y="0" height="0.216176" width="55.5556" style="fill: #5ae882"/>
    <rect x="111.111"  y="0" height="0.141633" width="55.5556" style="fill: #809dd4"/>
    <rect x="333.333"  y="0" height="1.29706" width="55.5556" style="fill: #cfe7ab"/>
    <rect x="0"  y="0" height="0.022363" width="55.5556" style="fill: #c5c61b"/>
    <rect x="166.667"  y="0" height="0.22363" width="55.5556" style="fill: #aa52e0"/>
    <rect x="0"  y="0" height="0.603802" width="55.5556" style="fill: #53b4c3"/>
    <rect x="111.111"  y="0" height="0.39508" width="55.5556" style="fill: #643f20"/>
    <rect x="388.889"  y="0" height="0.283265" width="55.5556" style="fill: #4ef259"/>
    <rect x="166.667"  y="0" height="0.760343" width="55.5556" style="fill: #d2e980"/>
    <rect x="388.889"  y="0" height="2.18412" width="55.5556" style="fill: #42a948"/>
    <rect x="111.111"  y="0" height="0.0372717" width="55.5556" style="fill: #aac5e8"/>
    <rect x="111.111"  y="0" height="0.380171" width="55.5556" style="fill: #84cb3e"/>
    <rect x="0"  y="0" height="0.201267" width="55.5556" style="fill: #c7db92"/>
    <rect x="0"  y="0" height="0.156541" width="55.5556" style="fill: #5643fd"/>
    <rect x="111.111"  y="0" height="0.0447261" width="55.5556" style="fill: #34fdd4"/>
    <rect x="111.111"  y="0" height="0.216176" width="55.5556" style="fill: #67e2cc"/>
    <rect x="166.667"  y="0" height="2.29594" width="55.5556" style="fill: #a40603"/>
    <rect x="0"  y="0" height="0.529258" width="55.5556" style="fill: #5cb274"/>
    <rect x="222.222"  y="0" height="0.887067" width="55.5556" style="fill: #4cb90a"/>
    <rect x="111.111"  y="0" height="0.260902" width="55.5556" style="fill: #63e51c"/>
    <rect x="333.333"  y="0" height="0.156541" width="55.5556" style="fill: #973790"/>
    <rect x="333.333"  y="0" height="0.260902" width="55.5556" style="fill: #334394"/>
    <rect x="111.111"  y="0" height="0.104361" width="55.5556" style="fill: #7e0208"/>
    <rect x="111.111"  y="0" height="0.0894521" width="55.5556" style="fill: #6541e4"/>
    <rect x="0"  y="0" height="0.111815" width="55.5556" style="fill: #c48a99"/>
    <rect x="111.111"  y="0" height="0.111815" width="55.5556" style="fill: #630aa9"/>
    <rect x="333.333"  y="0" height="0.163996" width="55.5556" style="fill: #aece15"/>
    <rect x="0"  y="0" height="0.216176" width="55.5556" style="fill: #3843a4"/>
    <rect x="111.111"  y="0" height="0.163996" width="55.5556" style="fill: #b19027"/>
    <rect x="333.333"  y="0" height="0.0149087" width="55.5556" style="fill: #4ebc95"/>
    <rect x="333.333"  y="0" height="0.462169" width="55.5556" style="fill: #5f8592"/>
    <rect x="111.111"  y="0" height="0.499441" width="55.5556" style="fill: #e30a22"/>
    <rect x="0"  y="0" height="0.849795" width="55.5556" style="fill: #05a485"/>
    <rect x="222.222"  y="0" height="1.35669" width="55.5556" style="fill: #846248"/>
    <rect x="333.333"  y="0" height="0.231085" width="55.5556" style="fill: #987550"/>
    <rect x="111.111"  y="0" height="0.178904" width="55.5556" style="fill: #aaf209"/>
    <rect x="333.333"  y="0" height="0.245993" width="55.5556" style="fill: #4ec59e"/>
    <rect x="111.111"  y="0" height="0.491987" width="55.5556" style="fill: #7931dc"/>
    <rect x="388.889"  y="0" height="0.633619" width="55.5556" style="fill: #650c74"/>
    <rect x="0"  y="0" height="0.357808" width="55.5556" style="fill: #51cc61"/>
    <rect x="333.333"  y="0" height="0.238539" width="55.5556" style="fill: #c0cb2c"/>
    <rect x="333.333"  y="0" height="0.17145" width="55.5556" style="fill: #46a1b3"/>
    <rect x="111.111"  y="0" height="0.39508" width="55.5556" style="fill: #f2c349"/>
    <rect x="0"  y="0" height="0.51435" width="55.5556" style="fill: #faff76"/>
    <rect x="333.333"  y="0" height="2.32575" width="55.5556" style="fill: #3c7f8d"/>
    <rect x="388.889"  y="0" height="0.290719" width="55.5556" style="fill: #14ddff"/>
    <rect x="222.222"  y="0" height="0.685799" width="55.5556" style="fill: #946351"/>
    <rect x="166.667"  y="0" height="0.141633" width="55.5556" style="fill: #744378"/>
    <rect x="166.667"  y="0" height="0.700708" width="55.5556" style="fill: #d62c59"/>
    <rect x="111.111"  y="0" height="0.238539" width="55.5556" style="fill: #285a8d"/>
    <rect x="388.889"  y="0" height="0.447261" width="55.5556" style="fill: #791561"/>
    <rect x="0"  y="0" height="0.268356" width="55.5556" style="fill: #4f5a2a"/>
    <rect x="111.111"  y="0" height="0.350354" width="55.5556" style="fill: #c9e0d6"/>
    <rect x="0"  y="0" height="0.588893" width="55.5556" style="fill: #8aca62"/>
    <rect x="388.889"  y="0" height="0.782706" width="55.5556" style="fill: #48a922"/>
    <rect x="222.222"  y="0" height="0.544167" width="55.5556" style="fill: #7ab8f1"/>
    <rect x="111.111"  y="0" height="0.0969064" width="55.5556" style="fill: #930ee3"/>
    <rect x="166.667"  y="0" height="1.18524" width="55.5556" style="fill: #8ac7a9"/>
    <rect x="111.111"  y="0" height="0.327991" width="55.5556" style="fill: #d239c9"/>
    <rect x="0"  y="0" height="0.156541" width="55.5556" style="fill: #b026a4"/>
    <rect x="111.111"  y="0" height="0.245993" width="55.5556" style="fill: #81e49d"/>
    <rect x="222.222"  y="0" height="0.350354" width="55.5556" style="fill: #53161f"/>
    <rect x="0"  y="0" height="0.216176" width="55.5556" style="fill: #9a9513"/>
    <rect x="388.889"  y="0" height="0.201267" width="55.5556" style="fill: #fe5271"/>
    <rect x="111.111"  y="0" height="0.365263" width="55.5556" style="fill: #c32e9c"/>
    <rect x="0"  y="0" height="0.208722" width="55.5556" style="fill: #21d156"/>
</svg>
</svg>
