<svg  xmlns="http://www.w3.org/2000/svg" xmlns:xlink="http://www.w3.org/1999/xlink" x="0" y="0" width="600" height="600">
<rect x="0%" y="0%" height="100%" width="100%" style="fill: #ffffff"/>
<svg x="0" y="0">
  <text fill="dark" font-size="35" transform="translate(250, 30)">cores</text>
</svg>
<svg x="0" y="0"> 
  <text fill="dark" font-size="35" transform="translate(30, 300) rotate(270)">time</text>
</svg>
<svg x = "50" y="550">
  <text fill="blue" font-size="30" transform="translate(0, 35)">t = 16s, lb = 0.591732</text>
</svg>
<svg x="50" y="50" width="500" height="500" >
  <rect x="0%" y="0%" height="100%" width="100%" style="fill: #eeeeee"/>
    <rect x="0"  y="0" height="41.2374" width="55.5556" style="fill: #76931f"/>
    <rect x="222.222"  y="0" height="35.7038" width="55.5556" style="fill: #ac9dab"/>
    <rect x="111.111"  y="0" height="18.1315" width="55.5556" style="fill: #2b36c2"/>
    <rect x="55.5556"  y="0" height="3.12003" width="55.5556" style="fill: #48b87d"/>
    <rect x="333.333"  y="0" height="4.70948" width="55.5556" style="fill: #6ae33f"/>
    <rect x="277.778"  y="0" height="9.24236" width="55.5556" style="fill: #9a62d7"/>
    <rect x="166.667"  y="0" height="7.56461" width="55.5556" style="fill: #183a5d"/>
    <rect x="388.889"  y="0" height="26.9029" width="55.5556" style="fill: #5789e4"/>
    <rect x="55.5556"  y="0" height="11.3322" width="55.5556" style="fill: #b2d6b4"/>
    <rect x="333.333"  y="0" height="10.1843" width="55.5556" style="fill: #41e241"/>
    <rect x="166.667"  y="0" height="12.2741" width="55.5556" style="fill: #1dc709"/>
    <rect x="277.778"  y="0" height="7.77065" width="55.5556" style="fill: #e111c7"/>
    <rect x="55.5556"  y="0" height="7.15253" width="55.5556" style="fill: #e1e7ac"/>
    <rect x="333.333"  y="0" height="15.3353" width="55.5556" style="fill: #b6f8ca"/>
    <rect x="277.778"  y="0" height="9.74274" width="55.5556" style="fill: #c0bb2f"/>
    <rect x="111.111"  y="0" height="7.59404" width="55.5556" style="fill: #c4c8bc"/>
    <rect x="166.667"  y="0" height="13.5692" width="55.5556" style="fill: #2ae3ba"/>
    <rect x="55.5556"  y="0" height="248.043" width="55.5556" style="fill: #aab916"/>
    <rect x="111.111"  y="0" height="5.03326" width="55.5556" style="fill: #5cc458"/>
    <rect x="277.778"  y="0" height="9.86048" width="55.5556" style="fill: #e199cb"/>
    <rect x="388.889"  y="0" height="36.3219" width="55.5556" style="fill: #89f51b"/>
    <rect x="333.333"  y="0" height="13.422" width="55.5556" style="fill: #135f70"/>
    <rect x="111.111"  y="0" height="7.77065" width="55.5556" style="fill: #91a5ab"/>
    <rect x="166.667"  y="0" height="9.68388" width="55.5556" style="fill: #b0874d"/>
    <rect x="222.222"  y="0" height="9.86048" width="55.5556" style="fill: #f3e8cb"/>
    <rect x="277.778"  y="0" height="12.5096" width="55.5556" style="fill: #4543a5"/>
    <rect x="111.111"  y="0" height="2.73739" width="55.5556" style="fill: #eb93b0"/>
    <rect x="0"  y="0" height="7.74121" width="55.5556" style="fill: #441e9c"/>
    <rect x="111.111"  y="0" height="16.0417" width="55.5556" style="fill: #a4c2b0"/>
    <rect x="166.667"  y="0" height="33.6434" width="55.5556" style="fill: #fb3d30"/>
    <rect x="333.333"  y="0" height="5.65138" width="55.5556" style="fill: #875cbf"/>
    <rect x="222.222"  y="0" height="20.9866" width="55.5556" style="fill: #29abd5"/>
    <rect x="0"  y="0" height="8.74198" width="55.5556" style="fill: #b1acf3"/>
    <rect x="277.778"  y="0" height="8.53594" width="55.5556" style="fill: #8984b3"/>
    <rect x="333.333"  y="0" height="16.7481" width="55.5556" style="fill: #5ae882"/>
    <rect x="111.111"  y="0" height="8.65368" width="55.5556" style="fill: #809dd4"/>
    <rect x="0"  y="0" height="7.80008" width="55.5556" style="fill: #cfe7ab"/>
    <rect x="277.778"  y="0" height="3.44381" width="55.5556" style="fill: #c5c61b"/>
    <rect x="277.778"  y="0" height="5.44534" width="55.5556" style="fill: #aa52e0"/>
    <rect x="388.889"  y="0" height="11.8326" width="55.5556" style="fill: #53b4c3"/>
    <rect x="0"  y="0" height="3.41438" width="55.5556" style="fill: #643f20"/>
    <rect x="111.111"  y="0" height="2.35474" width="55.5556" style="fill: #4ef259"/>
    <rect x="333.333"  y="0" height="127.745" width="55.5556" style="fill: #d2e980"/>
    <rect x="222.222"  y="0" height="77.2061" width="55.5556" style="fill: #42a948"/>
    <rect x="277.778"  y="0" height="11.5971" width="55.5556" style="fill: #aac5e8"/>
    <rect x="111.111"  y="0" height="17.5428" width="55.5556" style="fill: #84cb3e"/>
    <rect x="0"  y="0" height="4.62118" width="55.5556" style="fill: #c7db92"/>
    <rect x="0"  y="0" height="8.53594" width="55.5556" style="fill: #5643fd"/>
    <rect x="388.889"  y="0" height="10.9495" width="55.5556" style="fill: #34fdd4"/>
    <rect x="166.667"  y="0" height="20.398" width="55.5556" style="fill: #67e2cc"/>
    <rect x="277.778"  y="0" height="16.2477" width="55.5556" style="fill: #a40603"/>
    <rect x="0"  y="0" height="18.0726" width="55.5556" style="fill: #5cb274"/>
    <rect x="111.111"  y="0" height="413.964" width="55.5556" style="fill: #4cb90a"/>
    <rect x="388.889"  y="0" height="13.4809" width="55.5556" style="fill: #63e51c"/>
    <rect x="277.778"  y="0" height="13.9224" width="55.5556" style="fill: #973790"/>
    <rect x="166.667"  y="0" height="11.5971" width="55.5556" style="fill: #334394"/>
    <rect x="388.889"  y="0" height="3.85589" width="55.5556" style="fill: #7e0208"/>
    <rect x="0"  y="0" height="11.3028" width="55.5556" style="fill: #6541e4"/>
    <rect x="388.889"  y="0" height="11.5677" width="55.5556" style="fill: #c48a99"/>
    <rect x="277.778"  y="0" height="17.2779" width="55.5556" style="fill: #630aa9"/>
    <rect x="166.667"  y="0" height="9.06576" width="55.5556" style="fill: #aece15"/>
    <rect x="0"  y="0" height="3.29664" width="55.5556" style="fill: #3843a4"/>
    <rect x="0"  y="0" height="7.18196" width="55.5556" style="fill: #b19027"/>
    <rect x="388.889"  y="0" height="5.65138" width="55.5556" style="fill: #4ebc95"/>
    <rect x="166.667"  y="0" height="4.56231" width="55.5556" style="fill: #5f8592"/>
    <rect x="388.889"  y="0" height="19.927" width="55.5556" style="fill: #e30a22"/>
    <rect x="0"  y="0" height="59.2512" width="55.5556" style="fill: #05a485"/>
    <rect x="166.667"  y="0" height="5.35704" width="55.5556" style="fill: #846248"/>
    <rect x="277.778"  y="0" height="2.79626" width="55.5556" style="fill: #987550"/>
    <rect x="166.667"  y="0" height="85.8303" width="55.5556" style="fill: #aaf209"/>
    <rect x="277.778"  y="0" height="4.0325" width="55.5556" style="fill: #4ec59e"/>
    <rect x="277.778"  y="0" height="7.94725" width="55.5556" style="fill: #7931dc"/>
    <rect x="388.889"  y="0" height="8.91858" width="55.5556" style="fill: #650c74"/>
    <rect x="277.778"  y="0" height="10.7435" width="55.5556" style="fill: #51cc61"/>
    <rect x="222.222"  y="0" height="5.41591" width="55.5556" style="fill: #c0cb2c"/>
    <rect x="222.222"  y="0" height="34.1438" width="55.5556" style="fill: #46a1b3"/>
    <rect x="388.889"  y="0" height="12.0386" width="55.5556" style="fill: #f2c349"/>
    <rect x="277.778"  y="0" height="4.09136" width="55.5556" style="fill: #faff76"/>
    <rect x="277.778"  y="0" height="13.3926" width="55.5556" style="fill: #3c7f8d"/>
    <rect x="388.889"  y="0" height="10.8907" width="55.5556" style="fill: #14ddff"/>
    <rect x="277.778"  y="0" height="7.41744" width="55.5556" style="fill: #946351"/>
    <rect x="388.889"  y="0" height="9.12462" width="55.5556" style="fill: #744378"/>
    <rect x="277.778"  y="0" height="23.724" width="55.5556" style="fill: #d62c59"/>
    <rect x="0"  y="0" height="10.7729" width="55.5556" style="fill: #285a8d"/>
    <rect x="388.889"  y="0" height="113.734" width="55.5556" style="fill: #791561"/>
    <rect x="222.222"  y="0" height="4.65062" width="55.5556" style="fill: #4f5a2a"/>
    <rect x="222.222"  y="0" height="10.302" width="55.5556" style="fill: #c9e0d6"/>
    <rect x="0"  y="0" height="6.62271" width="55.5556" style="fill: #8aca62"/>
    <rect x="333.333"  y="0" height="79.7669" width="55.5556" style="fill: #48a922"/>
    <rect x="222.222"  y="0" height="27.4033" width="55.5556" style="fill: #7ab8f1"/>
    <rect x="0"  y="0" height="19.6327" width="55.5556" style="fill: #930ee3"/>
    <rect x="277.778"  y="0" height="8.80085" width="55.5556" style="fill: #8ac7a9"/>
    <rect x="277.778"  y="0" height="24.3716" width="55.5556" style="fill: #d239c9"/>
    <rect x="166.667"  y="0" height="22.635" width="55.5556" style="fill: #b026a4"/>
    <rect x="0"  y="0" height="4.35627" width="55.5556" style="fill: #81e49d"/>
    <rect x="0"  y="0" height="7.62348" width="55.5556" style="fill: #53161f"/>
    <rect x="222.222"  y="0" height="9.06576" width="55.5556" style="fill: #9a9513"/>
    <rect x="0"  y="0" height="12.2447" width="55.5556" style="fill: #fe5271"/>
    <rect x="277.778"  y="0" height="27.6093" width="55.5556" style="fill: #c32e9c"/>
    <rect x="222.222"  y="0" height="54.8066" width="55.5556" style="fill: #21d156"/>
</svg>
</svg>
