<svg  xmlns="http://www.w3.org/2000/svg" xmlns:xlink="http://www.w3.org/1999/xlink" x="0" y="0" width="600" height="600">
<rect x="0%" y="0%" height="100%" width="100%" style="fill: #ffffff"/>
<svg x="0" y="0">
  <text fill="dark" font-size="35" transform="translate(250, 30)">cores</text>
</svg>
<svg x="0" y="0"> 
  <text fill="dark" font-size="35" transform="translate(30, 300) rotate(270)">time</text>
</svg>
<svg x = "50" y="550">
  <text fill="blue" font-size="30" transform="translate(0, 35)">t = 7s, lb = 0.894808</text>
</svg>
<svg x="50" y="50" width="500" height="500" >
  <rect x="0%" y="0%" height="100%" width="100%" style="fill: #eeeeee"/>
    <rect x="0"  y="0" height="13.5305" width="55.5556" style="fill: #76931f"/>
    <rect x="222.222"  y="0" height="62.4921" width="55.5556" style="fill: #ac9dab"/>
    <rect x="111.111"  y="0" height="65.1982" width="55.5556" style="fill: #2b36c2"/>
    <rect x="55.5556"  y="0" height="38.4519" width="55.5556" style="fill: #48b87d"/>
    <rect x="333.333"  y="0" height="9.94336" width="55.5556" style="fill: #6ae33f"/>
    <rect x="277.778"  y="0" height="144.116" width="55.5556" style="fill: #9a62d7"/>
    <rect x="166.667"  y="0" height="63.9396" width="55.5556" style="fill: #183a5d"/>
    <rect x="388.889"  y="0" height="9.88043" width="55.5556" style="fill: #5789e4"/>
    <rect x="388.889"  y="0" height="9.2511" width="55.5556" style="fill: #b2d6b4"/>
    <rect x="333.333"  y="0" height="7.42605" width="55.5556" style="fill: #41e241"/>
    <rect x="0"  y="0" height="154.688" width="55.5556" style="fill: #1dc709"/>
    <rect x="333.333"  y="0" height="24.6067" width="55.5556" style="fill: #e111c7"/>
    <rect x="388.889"  y="0" height="68.5337" width="55.5556" style="fill: #e1e7ac"/>
    <rect x="55.5556"  y="0" height="9.0623" width="55.5556" style="fill: #b6f8ca"/>
    <rect x="333.333"  y="0" height="47.5771" width="55.5556" style="fill: #c0bb2f"/>
    <rect x="55.5556"  y="0" height="20.8307" width="55.5556" style="fill: #c4c8bc"/>
    <rect x="222.222"  y="0" height="5.91567" width="55.5556" style="fill: #2ae3ba"/>
    <rect x="166.667"  y="0" height="10.321" width="55.5556" style="fill: #aab916"/>
    <rect x="111.111"  y="0" height="45.5632" width="55.5556" style="fill: #5cc458"/>
    <rect x="222.222"  y="0" height="14.4116" width="55.5556" style="fill: #e199cb"/>
    <rect x="55.5556"  y="0" height="6.23033" width="55.5556" style="fill: #89f51b"/>
    <rect x="166.667"  y="0" height="6.10447" width="55.5556" style="fill: #135f70"/>
    <rect x="55.5556"  y="0" height="14.6004" width="55.5556" style="fill: #91a5ab"/>
    <rect x="166.667"  y="0" height="48.8987" width="55.5556" style="fill: #b0874d"/>
    <rect x="222.222"  y="0" height="39.7734" width="55.5556" style="fill: #f3e8cb"/>
    <rect x="388.889"  y="0" height="30.5223" width="55.5556" style="fill: #4543a5"/>
    <rect x="55.5556"  y="0" height="5.09755" width="55.5556" style="fill: #eb93b0"/>
    <rect x="333.333"  y="0" height="16.0478" width="55.5556" style="fill: #441e9c"/>
    <rect x="55.5556"  y="0" height="8.49591" width="55.5556" style="fill: #a4c2b0"/>
    <rect x="55.5556"  y="0" height="42.983" width="55.5556" style="fill: #fb3d30"/>
    <rect x="333.333"  y="0" height="22.9704" width="55.5556" style="fill: #875cbf"/>
    <rect x="111.111"  y="0" height="23.0334" width="55.5556" style="fill: #29abd5"/>
    <rect x="388.889"  y="0" height="21.9006" width="55.5556" style="fill: #b1acf3"/>
    <rect x="222.222"  y="0" height="28.7602" width="55.5556" style="fill: #8984b3"/>
    <rect x="333.333"  y="0" height="34.6759" width="55.5556" style="fill: #5ae882"/>
    <rect x="166.667"  y="0" height="25.1101" width="55.5556" style="fill: #809dd4"/>
    <rect x="111.111"  y="0" height="12.3977" width="55.5556" style="fill: #cfe7ab"/>
    <rect x="388.889"  y="0" height="6.98553" width="55.5556" style="fill: #c5c61b"/>
    <rect x="277.778"  y="0" height="18.3134" width="55.5556" style="fill: #aa52e0"/>
    <rect x="55.5556"  y="0" height="23.8515" width="55.5556" style="fill: #53b4c3"/>
    <rect x="111.111"  y="0" height="15.2926" width="55.5556" style="fill: #643f20"/>
    <rect x="388.889"  y="0" height="66.4569" width="55.5556" style="fill: #4ef259"/>
    <rect x="222.222"  y="0" height="34.55" width="55.5556" style="fill: #d2e980"/>
    <rect x="166.667"  y="0" height="33.2914" width="55.5556" style="fill: #42a948"/>
    <rect x="111.111"  y="0" height="25.9912" width="55.5556" style="fill: #aac5e8"/>
    <rect x="277.778"  y="0" height="36.5009" width="55.5556" style="fill: #84cb3e"/>
    <rect x="333.333"  y="0" height="33.2284" width="55.5556" style="fill: #c7db92"/>
    <rect x="0"  y="0" height="7.74072" width="55.5556" style="fill: #5643fd"/>
    <rect x="55.5556"  y="0" height="10.4468" width="55.5556" style="fill: #34fdd4"/>
    <rect x="0"  y="0" height="152.675" width="55.5556" style="fill: #67e2cc"/>
    <rect x="55.5556"  y="0" height="39.1441" width="55.5556" style="fill: #a40603"/>
    <rect x="222.222"  y="0" height="144.745" width="55.5556" style="fill: #5cb274"/>
    <rect x="111.111"  y="0" height="11.3279" width="55.5556" style="fill: #4cb90a"/>
    <rect x="166.667"  y="0" height="127.942" width="55.5556" style="fill: #63e51c"/>
    <rect x="333.333"  y="0" height="31.9698" width="55.5556" style="fill: #973790"/>
    <rect x="277.778"  y="0" height="22.9075" width="55.5556" style="fill: #334394"/>
    <rect x="111.111"  y="0" height="37.5708" width="55.5556" style="fill: #7e0208"/>
    <rect x="388.889"  y="0" height="37.0044" width="55.5556" style="fill: #6541e4"/>
    <rect x="55.5556"  y="0" height="40.2769" width="55.5556" style="fill: #c48a99"/>
    <rect x="277.778"  y="0" height="8.81057" width="55.5556" style="fill: #630aa9"/>
    <rect x="333.333"  y="0" height="24.7955" width="55.5556" style="fill: #aece15"/>
    <rect x="277.778"  y="0" height="32.5362" width="55.5556" style="fill: #3843a4"/>
    <rect x="111.111"  y="0" height="14.7892" width="55.5556" style="fill: #b19027"/>
    <rect x="388.889"  y="0" height="5.66394" width="55.5556" style="fill: #4ebc95"/>
    <rect x="111.111"  y="0" height="21.9006" width="55.5556" style="fill: #5f8592"/>
    <rect x="333.333"  y="0" height="6.73379" width="55.5556" style="fill: #e30a22"/>
    <rect x="388.889"  y="0" height="15.6702" width="55.5556" style="fill: #05a485"/>
    <rect x="55.5556"  y="0" height="128.383" width="55.5556" style="fill: #846248"/>
    <rect x="333.333"  y="0" height="64.3172" width="55.5556" style="fill: #987550"/>
    <rect x="277.778"  y="0" height="34.3612" width="55.5556" style="fill: #aaf209"/>
    <rect x="388.889"  y="0" height="16.5513" width="55.5556" style="fill: #4ec59e"/>
    <rect x="111.111"  y="0" height="6.29327" width="55.5556" style="fill: #7931dc"/>
    <rect x="111.111"  y="0" height="34.7388" width="55.5556" style="fill: #650c74"/>
    <rect x="388.889"  y="0" height="5.41221" width="55.5556" style="fill: #51cc61"/>
    <rect x="388.889"  y="0" height="50.5979" width="55.5556" style="fill: #c0cb2c"/>
    <rect x="277.778"  y="0" height="23.348" width="55.5556" style="fill: #46a1b3"/>
    <rect x="111.111"  y="0" height="9.75456" width="55.5556" style="fill: #f2c349"/>
    <rect x="166.667"  y="0" height="72.3096" width="55.5556" style="fill: #faff76"/>
    <rect x="277.778"  y="0" height="8.05538" width="55.5556" style="fill: #3c7f8d"/>
    <rect x="111.111"  y="0" height="163.688" width="55.5556" style="fill: #14ddff"/>
    <rect x="333.333"  y="0" height="92.4481" width="55.5556" style="fill: #946351"/>
    <rect x="0"  y="0" height="28.1938" width="55.5556" style="fill: #744378"/>
    <rect x="277.778"  y="0" height="20.0755" width="55.5556" style="fill: #d62c59"/>
    <rect x="222.222"  y="0" height="5.22341" width="55.5556" style="fill: #285a8d"/>
    <rect x="222.222"  y="0" height="43.4235" width="55.5556" style="fill: #791561"/>
    <rect x="388.889"  y="0" height="28.6344" width="55.5556" style="fill: #4f5a2a"/>
    <rect x="277.778"  y="0" height="56.073" width="55.5556" style="fill: #c9e0d6"/>
    <rect x="0"  y="0" height="12.0201" width="55.5556" style="fill: #8aca62"/>
    <rect x="0"  y="0" height="7.23726" width="55.5556" style="fill: #48a922"/>
    <rect x="388.889"  y="0" height="6.67086" width="55.5556" style="fill: #7ab8f1"/>
    <rect x="0"  y="0" height="85.8402" width="55.5556" style="fill: #930ee3"/>
    <rect x="222.222"  y="0" height="8.24418" width="55.5556" style="fill: #8ac7a9"/>
    <rect x="388.889"  y="0" height="10.4468" width="55.5556" style="fill: #d239c9"/>
    <rect x="222.222"  y="0" height="33.9207" width="55.5556" style="fill: #b026a4"/>
    <rect x="166.667"  y="0" height="7.67778" width="55.5556" style="fill: #81e49d"/>
    <rect x="55.5556"  y="0" height="25.2989" width="55.5556" style="fill: #53161f"/>
    <rect x="388.889"  y="0" height="23.9144" width="55.5556" style="fill: #9a9513"/>
    <rect x="166.667"  y="0" height="103.965" width="55.5556" style="fill: #fe5271"/>
    <rect x="277.778"  y="0" height="16.0478" width="55.5556" style="fill: #c32e9c"/>
    <rect x="55.5556"  y="0" height="43.6123" width="55.5556" style="fill: #21d156"/>
</svg>
</svg>
