<svg  xmlns="http://www.w3.org/2000/svg" xmlns:xlink="http://www.w3.org/1999/xlink" x="0" y="0" width="600" height="600">
<rect x="0%" y="0%" height="100%" width="100%" style="fill: #ffffff"/>
<svg x="0" y="0">
  <text fill="dark" font-size="35" transform="translate(250, 30)">cores</text>
</svg>
<svg x="0" y="0"> 
  <text fill="dark" font-size="35" transform="translate(30, 300) rotate(270)">time</text>
</svg>
<svg x = "50" y="550">
  <text fill="blue" font-size="30" transform="translate(0, 35)">t = 37s, lb = 0.335515</text>
</svg>
<svg x="50" y="50" width="500" height="500" >
  <rect x="0%" y="0%" height="100%" width="100%" style="fill: #eeeeee"/>
    <rect x="0"  y="0" height="6.59024" width="55.5556" style="fill: #76931f"/>
    <rect x="222.222"  y="0" height="46.277" width="55.5556" style="fill: #ac9dab"/>
    <rect x="111.111"  y="0" height="3.20928" width="55.5556" style="fill: #2b36c2"/>
    <rect x="55.5556"  y="0" height="4.93938" width="55.5556" style="fill: #48b87d"/>
    <rect x="333.333"  y="0" height="2.15272" width="55.5556" style="fill: #6ae33f"/>
    <rect x="277.778"  y="0" height="10.4731" width="55.5556" style="fill: #9a62d7"/>
    <rect x="166.667"  y="0" height="4.0149" width="55.5556" style="fill: #183a5d"/>
    <rect x="388.889"  y="0" height="5.95631" width="55.5556" style="fill: #5789e4"/>
    <rect x="333.333"  y="0" height="7.56755" width="55.5556" style="fill: #b2d6b4"/>
    <rect x="111.111"  y="0" height="2.03386" width="55.5556" style="fill: #41e241"/>
    <rect x="166.667"  y="0" height="1.95462" width="55.5556" style="fill: #1dc709"/>
    <rect x="55.5556"  y="0" height="22.9932" width="55.5556" style="fill: #e111c7"/>
    <rect x="111.111"  y="0" height="11.4372" width="55.5556" style="fill: #e1e7ac"/>
    <rect x="388.889"  y="0" height="5.52048" width="55.5556" style="fill: #b6f8ca"/>
    <rect x="166.667"  y="0" height="4.18659" width="55.5556" style="fill: #c0bb2f"/>
    <rect x="0"  y="0" height="8.46562" width="55.5556" style="fill: #c4c8bc"/>
    <rect x="333.333"  y="0" height="7.35624" width="55.5556" style="fill: #2ae3ba"/>
    <rect x="166.667"  y="0" height="6.15442" width="55.5556" style="fill: #aab916"/>
    <rect x="277.778"  y="0" height="6.74873" width="55.5556" style="fill: #5cc458"/>
    <rect x="388.889"  y="0" height="5.34879" width="55.5556" style="fill: #e199cb"/>
    <rect x="0"  y="0" height="6.68269" width="55.5556" style="fill: #89f51b"/>
    <rect x="166.667"  y="0" height="4.56959" width="55.5556" style="fill: #135f70"/>
    <rect x="111.111"  y="0" height="3.2489" width="55.5556" style="fill: #91a5ab"/>
    <rect x="388.889"  y="0" height="3.60548" width="55.5556" style="fill: #b0874d"/>
    <rect x="333.333"  y="0" height="65.0176" width="55.5556" style="fill: #f3e8cb"/>
    <rect x="277.778"  y="0" height="4.66204" width="55.5556" style="fill: #4543a5"/>
    <rect x="111.111"  y="0" height="2.45648" width="55.5556" style="fill: #eb93b0"/>
    <rect x="388.889"  y="0" height="13.0484" width="55.5556" style="fill: #441e9c"/>
    <rect x="166.667"  y="0" height="2.41686" width="55.5556" style="fill: #a4c2b0"/>
    <rect x="0"  y="0" height="3.2621" width="55.5556" style="fill: #fb3d30"/>
    <rect x="277.778"  y="0" height="4.88655" width="55.5556" style="fill: #875cbf"/>
    <rect x="111.111"  y="0" height="5.70538" width="55.5556" style="fill: #29abd5"/>
    <rect x="166.667"  y="0" height="8.58448" width="55.5556" style="fill: #b1acf3"/>
    <rect x="0"  y="0" height="474.947" width="55.5556" style="fill: #8984b3"/>
    <rect x="277.778"  y="0" height="5.89028" width="55.5556" style="fill: #5ae882"/>
    <rect x="55.5556"  y="0" height="3.65831" width="55.5556" style="fill: #809dd4"/>
    <rect x="111.111"  y="0" height="22.0423" width="55.5556" style="fill: #cfe7ab"/>
    <rect x="55.5556"  y="0" height="1.10938" width="55.5556" style="fill: #c5c61b"/>
    <rect x="166.667"  y="0" height="5.21673" width="55.5556" style="fill: #aa52e0"/>
    <rect x="277.778"  y="0" height="9.25804" width="55.5556" style="fill: #53b4c3"/>
    <rect x="55.5556"  y="0" height="8.16186" width="55.5556" style="fill: #643f20"/>
    <rect x="388.889"  y="0" height="9.32407" width="55.5556" style="fill: #4ef259"/>
    <rect x="166.667"  y="0" height="12.0579" width="55.5556" style="fill: #d2e980"/>
    <rect x="55.5556"  y="0" height="29.3061" width="55.5556" style="fill: #42a948"/>
    <rect x="277.778"  y="0" height="1.69048" width="55.5556" style="fill: #aac5e8"/>
    <rect x="388.889"  y="0" height="12.2032" width="55.5556" style="fill: #84cb3e"/>
    <rect x="277.778"  y="0" height="3.65831" width="55.5556" style="fill: #c7db92"/>
    <rect x="222.222"  y="0" height="2.91872" width="55.5556" style="fill: #5643fd"/>
    <rect x="277.778"  y="0" height="1.149" width="55.5556" style="fill: #34fdd4"/>
    <rect x="277.778"  y="0" height="2.89231" width="55.5556" style="fill: #67e2cc"/>
    <rect x="222.222"  y="0" height="39.3037" width="55.5556" style="fill: #a40603"/>
    <rect x="166.667"  y="0" height="9.36369" width="55.5556" style="fill: #5cb274"/>
    <rect x="111.111"  y="0" height="11.7409" width="55.5556" style="fill: #4cb90a"/>
    <rect x="277.778"  y="0" height="4.70166" width="55.5556" style="fill: #63e51c"/>
    <rect x="388.889"  y="0" height="3.22248" width="55.5556" style="fill: #973790"/>
    <rect x="277.778"  y="0" height="5.22993" width="55.5556" style="fill: #334394"/>
    <rect x="388.889"  y="0" height="4.30545" width="55.5556" style="fill: #7e0208"/>
    <rect x="166.667"  y="0" height="2.82628" width="55.5556" style="fill: #6541e4"/>
    <rect x="277.778"  y="0" height="3.05079" width="55.5556" style="fill: #c48a99"/>
    <rect x="166.667"  y="0" height="2.94514" width="55.5556" style="fill: #630aa9"/>
    <rect x="111.111"  y="0" height="5.37521" width="55.5556" style="fill: #aece15"/>
    <rect x="388.889"  y="0" height="6.3261" width="55.5556" style="fill: #3843a4"/>
    <rect x="166.667"  y="0" height="4.05452" width="55.5556" style="fill: #b19027"/>
    <rect x="277.778"  y="0" height="1.06976" width="55.5556" style="fill: #4ebc95"/>
    <rect x="277.778"  y="0" height="9.46935" width="55.5556" style="fill: #5f8592"/>
    <rect x="111.111"  y="0" height="13.2201" width="55.5556" style="fill: #e30a22"/>
    <rect x="166.667"  y="0" height="8.79579" width="55.5556" style="fill: #05a485"/>
    <rect x="388.889"  y="0" height="29.491" width="55.5556" style="fill: #846248"/>
    <rect x="55.5556"  y="0" height="4.60921" width="55.5556" style="fill: #987550"/>
    <rect x="55.5556"  y="0" height="5.362" width="55.5556" style="fill: #aaf209"/>
    <rect x="277.778"  y="0" height="7.0921" width="55.5556" style="fill: #4ec59e"/>
    <rect x="166.667"  y="0" height="12.7447" width="55.5556" style="fill: #7931dc"/>
    <rect x="55.5556"  y="0" height="5.45445" width="55.5556" style="fill: #650c74"/>
    <rect x="111.111"  y="0" height="5.70538" width="55.5556" style="fill: #51cc61"/>
    <rect x="277.778"  y="0" height="5.73179" width="55.5556" style="fill: #c0cb2c"/>
    <rect x="333.333"  y="0" height="4.67524" width="55.5556" style="fill: #46a1b3"/>
    <rect x="55.5556"  y="0" height="5.86386" width="55.5556" style="fill: #f2c349"/>
    <rect x="111.111"  y="0" height="9.68066" width="55.5556" style="fill: #faff76"/>
    <rect x="333.333"  y="0" height="35.7115" width="55.5556" style="fill: #3c7f8d"/>
    <rect x="277.778"  y="0" height="5.33559" width="55.5556" style="fill: #14ddff"/>
    <rect x="222.222"  y="0" height="7.39586" width="55.5556" style="fill: #946351"/>
    <rect x="166.667"  y="0" height="3.47341" width="55.5556" style="fill: #744378"/>
    <rect x="55.5556"  y="0" height="14.5408" width="55.5556" style="fill: #d62c59"/>
    <rect x="277.778"  y="0" height="6.03555" width="55.5556" style="fill: #285a8d"/>
    <rect x="166.667"  y="0" height="6.36573" width="55.5556" style="fill: #791561"/>
    <rect x="222.222"  y="0" height="5.12428" width="55.5556" style="fill: #4f5a2a"/>
    <rect x="111.111"  y="0" height="10.6976" width="55.5556" style="fill: #c9e0d6"/>
    <rect x="388.889"  y="0" height="10.4731" width="55.5556" style="fill: #8aca62"/>
    <rect x="277.778"  y="0" height="13.5899" width="55.5556" style="fill: #48a922"/>
    <rect x="166.667"  y="0" height="11.556" width="55.5556" style="fill: #7ab8f1"/>
    <rect x="222.222"  y="0" height="2.74704" width="55.5556" style="fill: #930ee3"/>
    <rect x="222.222"  y="0" height="29.4778" width="55.5556" style="fill: #8ac7a9"/>
    <rect x="55.5556"  y="0" height="3.59228" width="55.5556" style="fill: #d239c9"/>
    <rect x="111.111"  y="0" height="2.98476" width="55.5556" style="fill: #b026a4"/>
    <rect x="388.889"  y="0" height="5.99593" width="55.5556" style="fill: #81e49d"/>
    <rect x="111.111"  y="0" height="5.9431" width="55.5556" style="fill: #53161f"/>
    <rect x="55.5556"  y="0" height="5.21673" width="55.5556" style="fill: #9a9513"/>
    <rect x="166.667"  y="0" height="4.34507" width="55.5556" style="fill: #fe5271"/>
    <rect x="277.778"  y="0" height="7.40907" width="55.5556" style="fill: #c32e9c"/>
    <rect x="55.5556"  y="0" height="5.62614" width="55.5556" style="fill: #21d156"/>
</svg>
</svg>
