<svg  xmlns="http://www.w3.org/2000/svg" xmlns:xlink="http://www.w3.org/1999/xlink" x="0" y="0" width="600" height="600">
<rect x="0%" y="0%" height="100%" width="100%" style="fill: #ffffff"/>
<svg x="0" y="0">
  <text fill="dark" font-size="35" transform="translate(250, 30)">cores</text>
</svg>
<svg x="0" y="0"> 
  <text fill="dark" font-size="35" transform="translate(30, 300) rotate(270)">time</text>
</svg>
<svg x = "50" y="550">
  <text fill="blue" font-size="30" transform="translate(0, 35)">t = 26s, lb = 0.585768</text>
</svg>
<svg x="50" y="50" width="500" height="500" >
  <rect x="0%" y="0%" height="100%" width="100%" style="fill: #eeeeee"/>
    <rect x="0"  y="0" height="60.0408" width="55.5556" style="fill: #76931f"/>
    <rect x="222.222"  y="0" height="5.44646" width="55.5556" style="fill: #ac9dab"/>
    <rect x="111.111"  y="0" height="3.6495" width="55.5556" style="fill: #2b36c2"/>
    <rect x="55.5556"  y="0" height="1.96369" width="55.5556" style="fill: #48b87d"/>
    <rect x="333.333"  y="0" height="18.3216" width="55.5556" style="fill: #6ae33f"/>
    <rect x="277.778"  y="0" height="4.59429" width="55.5556" style="fill: #9a62d7"/>
    <rect x="166.667"  y="0" height="8.74398" width="55.5556" style="fill: #183a5d"/>
    <rect x="388.889"  y="0" height="7.11375" width="55.5556" style="fill: #5789e4"/>
    <rect x="55.5556"  y="0" height="21.1375" width="55.5556" style="fill: #b2d6b4"/>
    <rect x="111.111"  y="0" height="8.50315" width="55.5556" style="fill: #41e241"/>
    <rect x="277.778"  y="0" height="5.24268" width="55.5556" style="fill: #1dc709"/>
    <rect x="222.222"  y="0" height="2.20452" width="55.5556" style="fill: #e111c7"/>
    <rect x="388.889"  y="0" height="8.59578" width="55.5556" style="fill: #e1e7ac"/>
    <rect x="222.222"  y="0" height="9.04039" width="55.5556" style="fill: #b6f8ca"/>
    <rect x="166.667"  y="0" height="3.5013" width="55.5556" style="fill: #c0bb2f"/>
    <rect x="277.778"  y="0" height="3.33457" width="55.5556" style="fill: #c4c8bc"/>
    <rect x="111.111"  y="0" height="1.50056" width="55.5556" style="fill: #2ae3ba"/>
    <rect x="166.667"  y="0" height="4.00148" width="55.5556" style="fill: #aab916"/>
    <rect x="277.778"  y="0" height="11.9118" width="55.5556" style="fill: #5cc458"/>
    <rect x="111.111"  y="0" height="84.3275" width="55.5556" style="fill: #e199cb"/>
    <rect x="388.889"  y="0" height="5.27973" width="55.5556" style="fill: #89f51b"/>
    <rect x="166.667"  y="0" height="6.65061" width="55.5556" style="fill: #135f70"/>
    <rect x="222.222"  y="0" height="71.7673" width="55.5556" style="fill: #91a5ab"/>
    <rect x="333.333"  y="0" height="1.59318" width="55.5556" style="fill: #b0874d"/>
    <rect x="333.333"  y="0" height="2.03779" width="55.5556" style="fill: #f3e8cb"/>
    <rect x="388.889"  y="0" height="2.11189" width="55.5556" style="fill: #4543a5"/>
    <rect x="333.333"  y="0" height="7.65098" width="55.5556" style="fill: #eb93b0"/>
    <rect x="166.667"  y="0" height="8.96628" width="55.5556" style="fill: #441e9c"/>
    <rect x="55.5556"  y="0" height="10.8373" width="55.5556" style="fill: #a4c2b0"/>
    <rect x="388.889"  y="0" height="197.129" width="55.5556" style="fill: #fb3d30"/>
    <rect x="277.778"  y="0" height="7.09522" width="55.5556" style="fill: #875cbf"/>
    <rect x="333.333"  y="0" height="4.77955" width="55.5556" style="fill: #29abd5"/>
    <rect x="166.667"  y="0" height="5.31678" width="55.5556" style="fill: #b1acf3"/>
    <rect x="277.778"  y="0" height="40.8299" width="55.5556" style="fill: #8984b3"/>
    <rect x="55.5556"  y="0" height="1.63023" width="55.5556" style="fill: #5ae882"/>
    <rect x="333.333"  y="0" height="44.2201" width="55.5556" style="fill: #809dd4"/>
    <rect x="55.5556"  y="0" height="4.27936" width="55.5556" style="fill: #cfe7ab"/>
    <rect x="166.667"  y="0" height="2.6306" width="55.5556" style="fill: #c5c61b"/>
    <rect x="55.5556"  y="0" height="14.246" width="55.5556" style="fill: #aa52e0"/>
    <rect x="166.667"  y="0" height="2.20452" width="55.5556" style="fill: #53b4c3"/>
    <rect x="166.667"  y="0" height="7.50278" width="55.5556" style="fill: #643f20"/>
    <rect x="166.667"  y="0" height="16.5246" width="55.5556" style="fill: #4ef259"/>
    <rect x="55.5556"  y="0" height="324.768" width="55.5556" style="fill: #d2e980"/>
    <rect x="0"  y="0" height="7.28047" width="55.5556" style="fill: #42a948"/>
    <rect x="166.667"  y="0" height="7.83624" width="55.5556" style="fill: #aac5e8"/>
    <rect x="0"  y="0" height="7.78066" width="55.5556" style="fill: #84cb3e"/>
    <rect x="277.778"  y="0" height="3.7236" width="55.5556" style="fill: #c7db92"/>
    <rect x="166.667"  y="0" height="4.05706" width="55.5556" style="fill: #5643fd"/>
    <rect x="0"  y="0" height="4.07558" width="55.5556" style="fill: #34fdd4"/>
    <rect x="277.778"  y="0" height="9.67025" width="55.5556" style="fill: #67e2cc"/>
    <rect x="166.667"  y="0" height="5.24268" width="55.5556" style="fill: #a40603"/>
    <rect x="333.333"  y="0" height="1.59318" width="55.5556" style="fill: #5cb274"/>
    <rect x="0"  y="0" height="4.44609" width="55.5556" style="fill: #4cb90a"/>
    <rect x="333.333"  y="0" height="1.79696" width="55.5556" style="fill: #63e51c"/>
    <rect x="333.333"  y="0" height="35.1612" width="55.5556" style="fill: #973790"/>
    <rect x="166.667"  y="0" height="210.411" width="55.5556" style="fill: #334394"/>
    <rect x="0"  y="0" height="9.46647" width="55.5556" style="fill: #7e0208"/>
    <rect x="277.778"  y="0" height="20.1" width="55.5556" style="fill: #6541e4"/>
    <rect x="222.222"  y="0" height="20.0259" width="55.5556" style="fill: #c48a99"/>
    <rect x="0"  y="0" height="13.7829" width="55.5556" style="fill: #630aa9"/>
    <rect x="111.111"  y="0" height="6.87292" width="55.5556" style="fill: #aece15"/>
    <rect x="111.111"  y="0" height="3.63097" width="55.5556" style="fill: #3843a4"/>
    <rect x="277.778"  y="0" height="5.0389" width="55.5556" style="fill: #b19027"/>
    <rect x="0"  y="0" height="13.4494" width="55.5556" style="fill: #4ebc95"/>
    <rect x="222.222"  y="0" height="6.35421" width="55.5556" style="fill: #5f8592"/>
    <rect x="111.111"  y="0" height="7.46573" width="55.5556" style="fill: #e30a22"/>
    <rect x="277.778"  y="0" height="140.367" width="55.5556" style="fill: #05a485"/>
    <rect x="222.222"  y="0" height="4.00148" width="55.5556" style="fill: #846248"/>
    <rect x="111.111"  y="0" height="13.857" width="55.5556" style="fill: #987550"/>
    <rect x="333.333"  y="0" height="2.13042" width="55.5556" style="fill: #aaf209"/>
    <rect x="222.222"  y="0" height="381.086" width="55.5556" style="fill: #4ec59e"/>
    <rect x="333.333"  y="0" height="7.24342" width="55.5556" style="fill: #7931dc"/>
    <rect x="0"  y="0" height="12.2823" width="55.5556" style="fill: #650c74"/>
    <rect x="333.333"  y="0" height="4.92775" width="55.5556" style="fill: #51cc61"/>
    <rect x="111.111"  y="0" height="1.81549" width="55.5556" style="fill: #c0cb2c"/>
    <rect x="333.333"  y="0" height="53.9274" width="55.5556" style="fill: #46a1b3"/>
    <rect x="111.111"  y="0" height="6.37273" width="55.5556" style="fill: #f2c349"/>
    <rect x="0"  y="0" height="1.61171" width="55.5556" style="fill: #faff76"/>
    <rect x="0"  y="0" height="7.87329" width="55.5556" style="fill: #3c7f8d"/>
    <rect x="111.111"  y="0" height="5.05743" width="55.5556" style="fill: #14ddff"/>
    <rect x="0"  y="0" height="2.79733" width="55.5556" style="fill: #946351"/>
    <rect x="111.111"  y="0" height="45.7577" width="55.5556" style="fill: #744378"/>
    <rect x="0"  y="0" height="4.40904" width="55.5556" style="fill: #d62c59"/>
    <rect x="0"  y="0" height="1.79696" width="55.5556" style="fill: #285a8d"/>
    <rect x="0"  y="0" height="8.78103" width="55.5556" style="fill: #791561"/>
    <rect x="0"  y="0" height="6.66914" width="55.5556" style="fill: #4f5a2a"/>
    <rect x="0"  y="0" height="4.68692" width="55.5556" style="fill: #c9e0d6"/>
    <rect x="0"  y="0" height="10.3186" width="55.5556" style="fill: #8aca62"/>
    <rect x="0"  y="0" height="3.37162" width="55.5556" style="fill: #48a922"/>
    <rect x="0"  y="0" height="5.57614" width="55.5556" style="fill: #7ab8f1"/>
    <rect x="333.333"  y="0" height="1.46351" width="55.5556" style="fill: #930ee3"/>
    <rect x="333.333"  y="0" height="6.70619" width="55.5556" style="fill: #8ac7a9"/>
    <rect x="111.111"  y="0" height="15.4131" width="55.5556" style="fill: #d239c9"/>
    <rect x="0"  y="0" height="13.8755" width="55.5556" style="fill: #b026a4"/>
    <rect x="333.333"  y="0" height="5.9096" width="55.5556" style="fill: #81e49d"/>
    <rect x="333.333"  y="0" height="60.7818" width="55.5556" style="fill: #53161f"/>
    <rect x="111.111"  y="0" height="18.7477" width="55.5556" style="fill: #9a9513"/>
    <rect x="0"  y="0" height="2.2601" width="55.5556" style="fill: #fe5271"/>
    <rect x="0"  y="0" height="1.55613" width="55.5556" style="fill: #c32e9c"/>
    <rect x="0"  y="0" height="7.1508" width="55.5556" style="fill: #21d156"/>
</svg>
</svg>
