<svg  xmlns="http://www.w3.org/2000/svg" xmlns:xlink="http://www.w3.org/1999/xlink" x="0" y="0" width="600" height="600">
<rect x="0%" y="0%" height="100%" width="100%" style="fill: #ffffff"/>
<svg x="0" y="0">
  <text fill="dark" font-size="35" transform="translate(250, 30)">cores</text>
</svg>
<svg x="0" y="0"> 
  <text fill="dark" font-size="35" transform="translate(30, 300) rotate(270)">time</text>
</svg>
<svg x = "50" y="550">
  <text fill="blue" font-size="30" transform="translate(0, 35)">t = 49s, lb = 0.998743</text>
</svg>
<svg x="50" y="50" width="500" height="500" >
  <rect x="0%" y="0%" height="100%" width="100%" style="fill: #eeeeee"/>
    <rect x="0"  y="0" height="3.9228" width="250" style="fill: #76931f"/>
    <rect x="0"  y="0" height="6.33527" width="250" style="fill: #ac9dab"/>
    <rect x="0"  y="0" height="5.85886" width="250" style="fill: #2b36c2"/>
    <rect x="0"  y="0" height="4.74385" width="250" style="fill: #48b87d"/>
    <rect x="0"  y="0" height="4.65262" width="250" style="fill: #6ae33f"/>
    <rect x="0"  y="0" height="4.39921" width="250" style="fill: #9a62d7"/>
    <rect x="0"  y="0" height="4.51071" width="250" style="fill: #183a5d"/>
    <rect x="0"  y="0" height="2.27056" width="250" style="fill: #5789e4"/>
    <rect x="0"  y="0" height="4.07485" width="250" style="fill: #b2d6b4"/>
    <rect x="0"  y="0" height="5.53449" width="250" style="fill: #41e241"/>
    <rect x="0"  y="0" height="4.02417" width="250" style="fill: #1dc709"/>
    <rect x="0"  y="0" height="4.50058" width="250" style="fill: #e111c7"/>
    <rect x="0"  y="0" height="6.08186" width="250" style="fill: #e1e7ac"/>
    <rect x="0"  y="0" height="4.42962" width="250" style="fill: #b6f8ca"/>
    <rect x="0"  y="0" height="5.42299" width="250" style="fill: #c0bb2f"/>
    <rect x="0"  y="0" height="5.31149" width="250" style="fill: #c4c8bc"/>
    <rect x="0"  y="0" height="2.20974" width="250" style="fill: #2ae3ba"/>
    <rect x="0"  y="0" height="7.56178" width="250" style="fill: #aab916"/>
    <rect x="0"  y="0" height="8.0686" width="250" style="fill: #5cc458"/>
    <rect x="0"  y="0" height="5.81831" width="250" style="fill: #e199cb"/>
    <rect x="0"  y="0" height="5.43313" width="250" style="fill: #89f51b"/>
    <rect x="0"  y="0" height="6.13254" width="250" style="fill: #135f70"/>
    <rect x="0"  y="0" height="5.1189" width="250" style="fill: #91a5ab"/>
    <rect x="0"  y="0" height="7.58205" width="250" style="fill: #b0874d"/>
    <rect x="0"  y="0" height="4.12553" width="250" style="fill: #f3e8cb"/>
    <rect x="0"  y="0" height="6.84209" width="250" style="fill: #4543a5"/>
    <rect x="0"  y="0" height="3.86198" width="250" style="fill: #eb93b0"/>
    <rect x="0"  y="0" height="5.32163" width="250" style="fill: #441e9c"/>
    <rect x="0"  y="0" height="2.96998" width="250" style="fill: #a4c2b0"/>
    <rect x="0"  y="0" height="4.28771" width="250" style="fill: #fb3d30"/>
    <rect x="0"  y="0" height="5.87913" width="250" style="fill: #875cbf"/>
    <rect x="0"  y="0" height="6.50759" width="250" style="fill: #29abd5"/>
    <rect x="0"  y="0" height="2.74697" width="250" style="fill: #b1acf3"/>
    <rect x="0"  y="0" height="3.8113" width="250" style="fill: #8984b3"/>
    <rect x="0"  y="0" height="4.12553" width="250" style="fill: #5ae882"/>
    <rect x="0"  y="0" height="3.00039" width="250" style="fill: #809dd4"/>
    <rect x="0"  y="0" height="4.52085" width="250" style="fill: #cfe7ab"/>
    <rect x="0"  y="0" height="7.67328" width="250" style="fill: #c5c61b"/>
    <rect x="0"  y="0" height="5.84872" width="250" style="fill: #aa52e0"/>
    <rect x="0"  y="0" height="5.5649" width="250" style="fill: #53b4c3"/>
    <rect x="0"  y="0" height="2.33138" width="250" style="fill: #643f20"/>
    <rect x="0"  y="0" height="4.38908" width="250" style="fill: #4ef259"/>
    <rect x="0"  y="0" height="2.9497" width="250" style="fill: #d2e980"/>
    <rect x="0"  y="0" height="5.0074" width="250" style="fill: #42a948"/>
    <rect x="0"  y="0" height="6.6495" width="250" style="fill: #aac5e8"/>
    <rect x="0"  y="0" height="3.03079" width="250" style="fill: #84cb3e"/>
    <rect x="0"  y="0" height="6.38595" width="250" style="fill: #c7db92"/>
    <rect x="0"  y="0" height="3.78089" width="250" style="fill: #5643fd"/>
    <rect x="0"  y="0" height="4.94658" width="250" style="fill: #34fdd4"/>
    <rect x="0"  y="0" height="7.36919" width="250" style="fill: #67e2cc"/>
    <rect x="0"  y="0" height="2.85848" width="250" style="fill: #a40603"/>
    <rect x="0"  y="0" height="4.53099" width="250" style="fill: #5cb274"/>
    <rect x="0"  y="0" height="4.81481" width="250" style="fill: #4cb90a"/>
    <rect x="0"  y="0" height="4.65262" width="250" style="fill: #63e51c"/>
    <rect x="0"  y="0" height="2.90916" width="250" style="fill: #973790"/>
    <rect x="0"  y="0" height="4.61208" width="250" style="fill: #334394"/>
    <rect x="0"  y="0" height="4.17621" width="250" style="fill: #7e0208"/>
    <rect x="0"  y="0" height="6.21364" width="250" style="fill: #6541e4"/>
    <rect x="0"  y="0" height="4.06471" width="250" style="fill: #c48a99"/>
    <rect x="0"  y="0" height="7.07523" width="250" style="fill: #630aa9"/>
    <rect x="0"  y="0" height="4.49044" width="250" style="fill: #aece15"/>
    <rect x="0"  y="0" height="5.82845" width="250" style="fill: #3843a4"/>
    <rect x="0"  y="0" height="7.46042" width="250" style="fill: #b19027"/>
    <rect x="0"  y="0" height="7.12591" width="250" style="fill: #4ebc95"/>
    <rect x="0"  y="0" height="6.57855" width="250" style="fill: #5f8592"/>
    <rect x="0"  y="0" height="7.48069" width="250" style="fill: #e30a22"/>
    <rect x="0"  y="0" height="3.73021" width="250" style="fill: #05a485"/>
    <rect x="0"  y="0" height="3.05107" width="250" style="fill: #846248"/>
    <rect x="0"  y="0" height="5.42299" width="250" style="fill: #987550"/>
    <rect x="0"  y="0" height="5.08849" width="250" style="fill: #aaf209"/>
    <rect x="0"  y="0" height="5.26081" width="250" style="fill: #4ec59e"/>
    <rect x="0"  y="0" height="5.82845" width="250" style="fill: #7931dc"/>
    <rect x="0"  y="0" height="5.07835" width="250" style="fill: #650c74"/>
    <rect x="0"  y="0" height="6.23391" width="250" style="fill: #51cc61"/>
    <rect x="0"  y="0" height="4.32826" width="250" style="fill: #c0cb2c"/>
    <rect x="0"  y="0" height="6.93332" width="250" style="fill: #46a1b3"/>
    <rect x="0"  y="0" height="4.73372" width="250" style="fill: #f2c349"/>
    <rect x="0"  y="0" height="3.30448" width="250" style="fill: #faff76"/>
    <rect x="0"  y="0" height="7.8456" width="250" style="fill: #3c7f8d"/>
    <rect x="0"  y="0" height="5.70681" width="250" style="fill: #14ddff"/>
    <rect x="0"  y="0" height="4.40935" width="250" style="fill: #946351"/>
    <rect x="0"  y="0" height="6.54814" width="250" style="fill: #744378"/>
    <rect x="0"  y="0" height="9.82221" width="250" style="fill: #d62c59"/>
    <rect x="0"  y="0" height="5.95009" width="250" style="fill: #285a8d"/>
    <rect x="0"  y="0" height="4.32826" width="250" style="fill: #791561"/>
    <rect x="0"  y="0" height="6.15282" width="250" style="fill: #4f5a2a"/>
    <rect x="0"  y="0" height="2.49356" width="250" style="fill: #c9e0d6"/>
    <rect x="0"  y="0" height="4.81481" width="250" style="fill: #8aca62"/>
    <rect x="0"  y="0" height="3.41598" width="250" style="fill: #48a922"/>
    <rect x="0"  y="0" height="3.38557" width="250" style="fill: #7ab8f1"/>
    <rect x="0"  y="0" height="4.22689" width="250" style="fill: #930ee3"/>
    <rect x="0"  y="0" height="5.99063" width="250" style="fill: #8ac7a9"/>
    <rect x="0"  y="0" height="4.50058" width="250" style="fill: #d239c9"/>
    <rect x="0"  y="0" height="3.63898" width="250" style="fill: #b026a4"/>
    <rect x="0"  y="0" height="2.78752" width="250" style="fill: #81e49d"/>
    <rect x="0"  y="0" height="6.12241" width="250" style="fill: #53161f"/>
    <rect x="0"  y="0" height="3.23352" width="250" style="fill: #9a9513"/>
    <rect x="0"  y="0" height="4.62222" width="250" style="fill: #fe5271"/>
    <rect x="0"  y="0" height="3.28421" width="250" style="fill: #c32e9c"/>
    <rect x="0"  y="0" height="4.29785" width="250" style="fill: #21d156"/>
</svg>
</svg>
