<svg  xmlns="http://www.w3.org/2000/svg" xmlns:xlink="http://www.w3.org/1999/xlink" x="0" y="0" width="600" height="600">
<rect x="0%" y="0%" height="100%" width="100%" style="fill: #ffffff"/>
<svg x="0" y="0">
  <text fill="dark" font-size="35" transform="translate(250, 30)">cores</text>
</svg>
<svg x="0" y="0"> 
  <text fill="dark" font-size="35" transform="translate(30, 300) rotate(270)">time</text>
</svg>
<svg x = "50" y="550">
  <text fill="blue" font-size="30" transform="translate(0, 35)">t = 64s, lb = 0.999044</text>
</svg>
<svg x="50" y="50" width="500" height="500" >
  <rect x="0%" y="0%" height="100%" width="100%" style="fill: #eeeeee"/>
    <rect x="0"  y="0" height="3.06871" width="250" style="fill: #76931f"/>
    <rect x="0"  y="0" height="5.88299" width="250" style="fill: #ac9dab"/>
    <rect x="0"  y="0" height="3.52362" width="250" style="fill: #2b36c2"/>
    <rect x="0"  y="0" height="5.62855" width="250" style="fill: #48b87d"/>
    <rect x="0"  y="0" height="5.78275" width="250" style="fill: #6ae33f"/>
    <rect x="0"  y="0" height="5.13509" width="250" style="fill: #9a62d7"/>
    <rect x="0"  y="0" height="4.74957" width="250" style="fill: #183a5d"/>
    <rect x="0"  y="0" height="2.7603" width="250" style="fill: #5789e4"/>
    <rect x="0"  y="0" height="5.79046" width="250" style="fill: #b2d6b4"/>
    <rect x="0"  y="0" height="6.34561" width="250" style="fill: #41e241"/>
    <rect x="0"  y="0" height="4.05564" width="250" style="fill: #1dc709"/>
    <rect x="0"  y="0" height="4.41802" width="250" style="fill: #e111c7"/>
    <rect x="0"  y="0" height="7.87997" width="250" style="fill: #e1e7ac"/>
    <rect x="0"  y="0" height="5.75962" width="250" style="fill: #b6f8ca"/>
    <rect x="0"  y="0" height="4.44115" width="250" style="fill: #c0bb2f"/>
    <rect x="0"  y="0" height="4.6956" width="250" style="fill: #c4c8bc"/>
    <rect x="0"  y="0" height="3.10727" width="250" style="fill: #2ae3ba"/>
    <rect x="0"  y="0" height="8.54305" width="250" style="fill: #aab916"/>
    <rect x="0"  y="0" height="8.56619" width="250" style="fill: #5cc458"/>
    <rect x="0"  y="0" height="4.6956" width="250" style="fill: #e199cb"/>
    <rect x="0"  y="0" height="5.65939" width="250" style="fill: #89f51b"/>
    <rect x="0"  y="0" height="4.06335" width="250" style="fill: #135f70"/>
    <rect x="0"  y="0" height="3.84746" width="250" style="fill: #91a5ab"/>
    <rect x="0"  y="0" height="6.63089" width="250" style="fill: #b0874d"/>
    <rect x="0"  y="0" height="4.63391" width="250" style="fill: #f3e8cb"/>
    <rect x="0"  y="0" height="7.34024" width="250" style="fill: #4543a5"/>
    <rect x="0"  y="0" height="4.86522" width="250" style="fill: #eb93b0"/>
    <rect x="0"  y="0" height="7.02412" width="250" style="fill: #441e9c"/>
    <rect x="0"  y="0" height="3.03016" width="250" style="fill: #a4c2b0"/>
    <rect x="0"  y="0" height="4.61849" width="250" style="fill: #fb3d30"/>
    <rect x="0"  y="0" height="6.66944" width="250" style="fill: #875cbf"/>
    <rect x="0"  y="0" height="7.62552" width="250" style="fill: #29abd5"/>
    <rect x="0"  y="0" height="2.64465" width="250" style="fill: #b1acf3"/>
    <rect x="0"  y="0" height="3.56218" width="250" style="fill: #8984b3"/>
    <rect x="0"  y="0" height="3.39255" width="250" style="fill: #5ae882"/>
    <rect x="0"  y="0" height="3.21521" width="250" style="fill: #809dd4"/>
    <rect x="0"  y="0" height="4.00938" width="250" style="fill: #cfe7ab"/>
    <rect x="0"  y="0" height="8.25777" width="250" style="fill: #c5c61b"/>
    <rect x="0"  y="0" height="5.67481" width="250" style="fill: #aa52e0"/>
    <rect x="0"  y="0" height="5.32013" width="250" style="fill: #53b4c3"/>
    <rect x="0"  y="0" height="2.65236" width="250" style="fill: #643f20"/>
    <rect x="0"  y="0" height="4.51826" width="250" style="fill: #4ef259"/>
    <rect x="0"  y="0" height="2.71404" width="250" style="fill: #d2e980"/>
    <rect x="0"  y="0" height="6.66173" width="250" style="fill: #42a948"/>
    <rect x="0"  y="0" height="6.37645" width="250" style="fill: #aac5e8"/>
    <rect x="0"  y="0" height="2.36707" width="250" style="fill: #84cb3e"/>
    <rect x="0"  y="0" height="5.69794" width="250" style="fill: #c7db92"/>
    <rect x="0"  y="0" height="5.75962" width="250" style="fill: #5643fd"/>
    <rect x="0"  y="0" height="4.74186" width="250" style="fill: #34fdd4"/>
    <rect x="0"  y="0" height="5.85986" width="250" style="fill: #67e2cc"/>
    <rect x="0"  y="0" height="2.39792" width="250" style="fill: #a40603"/>
    <rect x="0"  y="0" height="4.41802" width="250" style="fill: #5cb274"/>
    <rect x="0"  y="0" height="4.2484" width="250" style="fill: #4cb90a"/>
    <rect x="0"  y="0" height="5.94467" width="250" style="fill: #63e51c"/>
    <rect x="0"  y="0" height="3.19208" width="250" style="fill: #973790"/>
    <rect x="0"  y="0" height="6.35332" width="250" style="fill: #334394"/>
    <rect x="0"  y="0" height="4.89606" width="250" style="fill: #7e0208"/>
    <rect x="0"  y="0" height="6.1143" width="250" style="fill: #6541e4"/>
    <rect x="0"  y="0" height="4.15587" width="250" style="fill: #c48a99"/>
    <rect x="0"  y="0" height="6.27622" width="250" style="fill: #630aa9"/>
    <rect x="0"  y="0" height="5.28929" width="250" style="fill: #aece15"/>
    <rect x="0"  y="0" height="4.44115" width="250" style="fill: #3843a4"/>
    <rect x="0"  y="0" height="7.9802" width="250" style="fill: #b19027"/>
    <rect x="0"  y="0" height="5.6671" width="250" style="fill: #4ebc95"/>
    <rect x="0"  y="0" height="6.55379" width="250" style="fill: #5f8592"/>
    <rect x="0"  y="0" height="6.87762" width="250" style="fill: #e30a22"/>
    <rect x="0"  y="0" height="4.01709" width="250" style="fill: #05a485"/>
    <rect x="0"  y="0" height="2.30539" width="250" style="fill: #846248"/>
    <rect x="0"  y="0" height="3.66241" width="250" style="fill: #987550"/>
    <rect x="0"  y="0" height="4.74957" width="250" style="fill: #aaf209"/>
    <rect x="0"  y="0" height="5.41266" width="250" style="fill: #4ec59e"/>
    <rect x="0"  y="0" height="6.29935" width="250" style="fill: #7931dc"/>
    <rect x="0"  y="0" height="4.22527" width="250" style="fill: #650c74"/>
    <rect x="0"  y="0" height="4.60307" width="250" style="fill: #51cc61"/>
    <rect x="0"  y="0" height="4.179" width="250" style="fill: #c0cb2c"/>
    <rect x="0"  y="0" height="5.70565" width="250" style="fill: #46a1b3"/>
    <rect x="0"  y="0" height="5.51289" width="250" style="fill: #f2c349"/>
    <rect x="0"  y="0" height="2.79885" width="250" style="fill: #faff76"/>
    <rect x="0"  y="0" height="8.60474" width="250" style="fill: #3c7f8d"/>
    <rect x="0"  y="0" height="4.74186" width="250" style="fill: #14ddff"/>
    <rect x="0"  y="0" height="5.15051" width="250" style="fill: #946351"/>
    <rect x="0"  y="0" height="6.90846" width="250" style="fill: #744378"/>
    <rect x="0"  y="0" height="11.0643" width="250" style="fill: #d62c59"/>
    <rect x="0"  y="0" height="5.08111" width="250" style="fill: #285a8d"/>
    <rect x="0"  y="0" height="3.73951" width="250" style="fill: #791561"/>
    <rect x="0"  y="0" height="5.21219" width="250" style="fill: #4f5a2a"/>
    <rect x="0"  y="0" height="3.30002" width="250" style="fill: #c9e0d6"/>
    <rect x="0"  y="0" height="6.1143" width="250" style="fill: #8aca62"/>
    <rect x="0"  y="0" height="3.68554" width="250" style="fill: #48a922"/>
    <rect x="0"  y="0" height="2.29768" width="250" style="fill: #7ab8f1"/>
    <rect x="0"  y="0" height="2.62923" width="250" style="fill: #930ee3"/>
    <rect x="0"  y="0" height="5.60542" width="250" style="fill: #8ac7a9"/>
    <rect x="0"  y="0" height="5.84444" width="250" style="fill: #d239c9"/>
    <rect x="0"  y="0" height="3.73951" width="250" style="fill: #b026a4"/>
    <rect x="0"  y="0" height="0.91753" width="250" style="fill: #81e49d"/>
    <rect x="0"  y="0" height="4.89606" width="250" style="fill: #53161f"/>
    <rect x="0"  y="0" height="4.88064" width="250" style="fill: #9a9513"/>
    <rect x="0"  y="0" height="4.51055" width="250" style="fill: #fe5271"/>
    <rect x="0"  y="0" height="3.77036" width="250" style="fill: #c32e9c"/>
    <rect x="0"  y="0" height="4.28695" width="250" style="fill: #21d156"/>
</svg>
</svg>
