<svg  xmlns="http://www.w3.org/2000/svg" xmlns:xlink="http://www.w3.org/1999/xlink" x="0" y="0" width="600" height="600">
<rect x="0%" y="0%" height="100%" width="100%" style="fill: #ffffff"/>
<svg x="0" y="0">
  <text fill="dark" font-size="35" transform="translate(250, 30)">cores</text>
</svg>
<svg x="0" y="0"> 
  <text fill="dark" font-size="35" transform="translate(30, 300) rotate(270)">time</text>
</svg>
<svg x = "50" y="550">
  <text fill="blue" font-size="30" transform="translate(0, 35)">t = 49s, lb = 0.998699</text>
</svg>
<svg x="50" y="50" width="500" height="500" >
  <rect x="0%" y="0%" height="100%" width="100%" style="fill: #eeeeee"/>
    <rect x="0"  y="0" height="3.2331" width="250" style="fill: #76931f"/>
    <rect x="0"  y="0" height="7.17689" width="250" style="fill: #ac9dab"/>
    <rect x="0"  y="0" height="4.85466" width="250" style="fill: #2b36c2"/>
    <rect x="0"  y="0" height="4.15399" width="250" style="fill: #48b87d"/>
    <rect x="0"  y="0" height="5.30509" width="250" style="fill: #6ae33f"/>
    <rect x="0"  y="0" height="4.5844" width="250" style="fill: #9a62d7"/>
    <rect x="0"  y="0" height="4.2741" width="250" style="fill: #183a5d"/>
    <rect x="0"  y="0" height="3.61347" width="250" style="fill: #5789e4"/>
    <rect x="0"  y="0" height="4.85466" width="250" style="fill: #b2d6b4"/>
    <rect x="0"  y="0" height="7.57727" width="250" style="fill: #41e241"/>
    <rect x="0"  y="0" height="3.24311" width="250" style="fill: #1dc709"/>
    <rect x="0"  y="0" height="4.2741" width="250" style="fill: #e111c7"/>
    <rect x="0"  y="0" height="6.70644" width="250" style="fill: #e1e7ac"/>
    <rect x="0"  y="0" height="4.60442" width="250" style="fill: #b6f8ca"/>
    <rect x="0"  y="0" height="5.39518" width="250" style="fill: #c0bb2f"/>
    <rect x="0"  y="0" height="5.80557" width="250" style="fill: #c4c8bc"/>
    <rect x="0"  y="0" height="1.94186" width="250" style="fill: #2ae3ba"/>
    <rect x="0"  y="0" height="6.57631" width="250" style="fill: #aab916"/>
    <rect x="0"  y="0" height="7.66736" width="250" style="fill: #5cc458"/>
    <rect x="0"  y="0" height="4.88469" width="250" style="fill: #e199cb"/>
    <rect x="0"  y="0" height="5.53531" width="250" style="fill: #89f51b"/>
    <rect x="0"  y="0" height="4.14398" width="250" style="fill: #135f70"/>
    <rect x="0"  y="0" height="3.67353" width="250" style="fill: #91a5ab"/>
    <rect x="0"  y="0" height="7.38709" width="250" style="fill: #b0874d"/>
    <rect x="0"  y="0" height="4.70452" width="250" style="fill: #f3e8cb"/>
    <rect x="0"  y="0" height="7.29701" width="250" style="fill: #4543a5"/>
    <rect x="0"  y="0" height="4.57439" width="250" style="fill: #eb93b0"/>
    <rect x="0"  y="0" height="5.82559" width="250" style="fill: #441e9c"/>
    <rect x="0"  y="0" height="3.15303" width="250" style="fill: #a4c2b0"/>
    <rect x="0"  y="0" height="5.16496" width="250" style="fill: #fb3d30"/>
    <rect x="0"  y="0" height="5.56534" width="250" style="fill: #875cbf"/>
    <rect x="0"  y="0" height="6.21597" width="250" style="fill: #29abd5"/>
    <rect x="0"  y="0" height="3.27314" width="250" style="fill: #b1acf3"/>
    <rect x="0"  y="0" height="3.36323" width="250" style="fill: #8984b3"/>
    <rect x="0"  y="0" height="3.87372" width="250" style="fill: #5ae882"/>
    <rect x="0"  y="0" height="2.7126" width="250" style="fill: #809dd4"/>
    <rect x="0"  y="0" height="3.65351" width="250" style="fill: #cfe7ab"/>
    <rect x="0"  y="0" height="9.27891" width="250" style="fill: #c5c61b"/>
    <rect x="0"  y="0" height="5.48527" width="250" style="fill: #aa52e0"/>
    <rect x="0"  y="0" height="4.80461" width="250" style="fill: #53b4c3"/>
    <rect x="0"  y="0" height="2.5024" width="250" style="fill: #643f20"/>
    <rect x="0"  y="0" height="4.43426" width="250" style="fill: #4ef259"/>
    <rect x="0"  y="0" height="2.66256" width="250" style="fill: #d2e980"/>
    <rect x="0"  y="0" height="4.97478" width="250" style="fill: #42a948"/>
    <rect x="0"  y="0" height="8.00769" width="250" style="fill: #aac5e8"/>
    <rect x="0"  y="0" height="2.67257" width="250" style="fill: #84cb3e"/>
    <rect x="0"  y="0" height="6.62636" width="250" style="fill: #c7db92"/>
    <rect x="0"  y="0" height="4.63445" width="250" style="fill: #5643fd"/>
    <rect x="0"  y="0" height="4.76457" width="250" style="fill: #34fdd4"/>
    <rect x="0"  y="0" height="6.42617" width="250" style="fill: #67e2cc"/>
    <rect x="0"  y="0" height="3.30317" width="250" style="fill: #a40603"/>
    <rect x="0"  y="0" height="4.55437" width="250" style="fill: #5cb274"/>
    <rect x="0"  y="0" height="5.0048" width="250" style="fill: #4cb90a"/>
    <rect x="0"  y="0" height="6.16592" width="250" style="fill: #63e51c"/>
    <rect x="0"  y="0" height="2.93282" width="250" style="fill: #973790"/>
    <rect x="0"  y="0" height="3.72357" width="250" style="fill: #334394"/>
    <rect x="0"  y="0" height="3.88373" width="250" style="fill: #7e0208"/>
    <rect x="0"  y="0" height="6.03579" width="250" style="fill: #6541e4"/>
    <rect x="0"  y="0" height="4.2741" width="250" style="fill: #c48a99"/>
    <rect x="0"  y="0" height="6.77651" width="250" style="fill: #630aa9"/>
    <rect x="0"  y="0" height="5.8356" width="250" style="fill: #aece15"/>
    <rect x="0"  y="0" height="4.71453" width="250" style="fill: #3843a4"/>
    <rect x="0"  y="0" height="6.58632" width="250" style="fill: #b19027"/>
    <rect x="0"  y="0" height="4.91472" width="250" style="fill: #4ebc95"/>
    <rect x="0"  y="0" height="4.72454" width="250" style="fill: #5f8592"/>
    <rect x="0"  y="0" height="5.80557" width="250" style="fill: #e30a22"/>
    <rect x="0"  y="0" height="3.44331" width="250" style="fill: #05a485"/>
    <rect x="0"  y="0" height="2.32223" width="250" style="fill: #846248"/>
    <rect x="0"  y="0" height="4.9948" width="250" style="fill: #987550"/>
    <rect x="0"  y="0" height="7.82751" width="250" style="fill: #aaf209"/>
    <rect x="0"  y="0" height="5.08488" width="250" style="fill: #4ec59e"/>
    <rect x="0"  y="0" height="6.11587" width="250" style="fill: #7931dc"/>
    <rect x="0"  y="0" height="6.28603" width="250" style="fill: #650c74"/>
    <rect x="0"  y="0" height="6.93666" width="250" style="fill: #51cc61"/>
    <rect x="0"  y="0" height="3.44331" width="250" style="fill: #c0cb2c"/>
    <rect x="0"  y="0" height="7.34705" width="250" style="fill: #46a1b3"/>
    <rect x="0"  y="0" height="4.12396" width="250" style="fill: #f2c349"/>
    <rect x="0"  y="0" height="3.68354" width="250" style="fill: #faff76"/>
    <rect x="0"  y="0" height="7.15687" width="250" style="fill: #3c7f8d"/>
    <rect x="0"  y="0" height="5.50529" width="250" style="fill: #14ddff"/>
    <rect x="0"  y="0" height="4.14398" width="250" style="fill: #946351"/>
    <rect x="0"  y="0" height="5.99576" width="250" style="fill: #744378"/>
    <rect x="0"  y="0" height="11.4009" width="250" style="fill: #d62c59"/>
    <rect x="0"  y="0" height="5.76553" width="250" style="fill: #285a8d"/>
    <rect x="0"  y="0" height="5.1049" width="250" style="fill: #791561"/>
    <rect x="0"  y="0" height="4.91472" width="250" style="fill: #4f5a2a"/>
    <rect x="0"  y="0" height="3.6435" width="250" style="fill: #c9e0d6"/>
    <rect x="0"  y="0" height="7.62732" width="250" style="fill: #8aca62"/>
    <rect x="0"  y="0" height="4.13397" width="250" style="fill: #48a922"/>
    <rect x="0"  y="0" height="4.25408" width="250" style="fill: #7ab8f1"/>
    <rect x="0"  y="0" height="3.4333" width="250" style="fill: #930ee3"/>
    <rect x="0"  y="0" height="5.96573" width="250" style="fill: #8ac7a9"/>
    <rect x="0"  y="0" height="4.75456" width="250" style="fill: #d239c9"/>
    <rect x="0"  y="0" height="2.97285" width="250" style="fill: #b026a4"/>
    <rect x="0"  y="0" height="1.07103" width="250" style="fill: #81e49d"/>
    <rect x="0"  y="0" height="6.02578" width="250" style="fill: #53161f"/>
    <rect x="0"  y="0" height="3.84369" width="250" style="fill: #9a9513"/>
    <rect x="0"  y="0" height="4.23406" width="250" style="fill: #fe5271"/>
    <rect x="0"  y="0" height="3.35322" width="250" style="fill: #c32e9c"/>
    <rect x="0"  y="0" height="5.08488" width="250" style="fill: #21d156"/>
</svg>
</svg>
