<svg  xmlns="http://www.w3.org/2000/svg" xmlns:xlink="http://www.w3.org/1999/xlink" x="0" y="0" width="600" height="600">
<rect x="0%" y="0%" height="100%" width="100%" style="fill: #ffffff"/>
<svg x="0" y="0">
  <text fill="dark" font-size="35" transform="translate(250, 30)">cores</text>
</svg>
<svg x="0" y="0"> 
  <text fill="dark" font-size="35" transform="translate(30, 300) rotate(270)">time</text>
</svg>
<svg x = "50" y="550">
  <text fill="blue" font-size="30" transform="translate(0, 35)">t = 6s, lb = 0.899862</text>
</svg>
<svg x="50" y="50" width="500" height="500" >
  <rect x="0%" y="0%" height="100%" width="100%" style="fill: #eeeeee"/>
    <rect x="0"  y="0" height="15.8962" width="55.5556" style="fill: #76931f"/>
    <rect x="222.222"  y="0" height="46.6134" width="55.5556" style="fill: #ac9dab"/>
    <rect x="111.111"  y="0" height="51.9889" width="55.5556" style="fill: #2b36c2"/>
    <rect x="55.5556"  y="0" height="75.8716" width="55.5556" style="fill: #48b87d"/>
    <rect x="333.333"  y="0" height="27.1848" width="55.5556" style="fill: #6ae33f"/>
    <rect x="277.778"  y="0" height="9.13838" width="55.5556" style="fill: #9a62d7"/>
    <rect x="166.667"  y="0" height="25.6489" width="55.5556" style="fill: #183a5d"/>
    <rect x="388.889"  y="0" height="56.8269" width="55.5556" style="fill: #5789e4"/>
    <rect x="277.778"  y="0" height="6.83459" width="55.5556" style="fill: #b2d6b4"/>
    <rect x="0"  y="0" height="43.7721" width="55.5556" style="fill: #41e241"/>
    <rect x="277.778"  y="0" height="39.2413" width="55.5556" style="fill: #1dc709"/>
    <rect x="166.667"  y="0" height="25.6489" width="55.5556" style="fill: #e111c7"/>
    <rect x="333.333"  y="0" height="69.9585" width="55.5556" style="fill: #e1e7ac"/>
    <rect x="222.222"  y="0" height="65.5045" width="55.5556" style="fill: #b6f8ca"/>
    <rect x="166.667"  y="0" height="58.6699" width="55.5556" style="fill: #c0bb2f"/>
    <rect x="111.111"  y="0" height="41.4683" width="55.5556" style="fill: #c4c8bc"/>
    <rect x="277.778"  y="0" height="23.6523" width="55.5556" style="fill: #2ae3ba"/>
    <rect x="388.889"  y="0" height="39.7788" width="55.5556" style="fill: #aab916"/>
    <rect x="0"  y="0" height="53.1408" width="55.5556" style="fill: #5cc458"/>
    <rect x="55.5556"  y="0" height="59.4379" width="55.5556" style="fill: #e199cb"/>
    <rect x="277.778"  y="0" height="21.7325" width="55.5556" style="fill: #89f51b"/>
    <rect x="111.111"  y="0" height="63.7383" width="55.5556" style="fill: #135f70"/>
    <rect x="388.889"  y="0" height="36.1696" width="55.5556" style="fill: #91a5ab"/>
    <rect x="333.333"  y="0" height="10.5207" width="55.5556" style="fill: #b0874d"/>
    <rect x="277.778"  y="0" height="8.98479" width="55.5556" style="fill: #f3e8cb"/>
    <rect x="333.333"  y="0" height="11.5958" width="55.5556" style="fill: #4543a5"/>
    <rect x="277.778"  y="0" height="12.2101" width="55.5556" style="fill: #eb93b0"/>
    <rect x="166.667"  y="0" height="36.2464" width="55.5556" style="fill: #441e9c"/>
    <rect x="222.222"  y="0" height="90.9998" width="55.5556" style="fill: #a4c2b0"/>
    <rect x="0"  y="0" height="45.0776" width="55.5556" style="fill: #fb3d30"/>
    <rect x="333.333"  y="0" height="6.52742" width="55.5556" style="fill: #875cbf"/>
    <rect x="277.778"  y="0" height="23.3451" width="55.5556" style="fill: #29abd5"/>
    <rect x="333.333"  y="0" height="172.401" width="55.5556" style="fill: #b1acf3"/>
    <rect x="388.889"  y="0" height="30.1797" width="55.5556" style="fill: #8984b3"/>
    <rect x="55.5556"  y="0" height="65.9653" width="55.5556" style="fill: #5ae882"/>
    <rect x="277.778"  y="0" height="76.8699" width="55.5556" style="fill: #809dd4"/>
    <rect x="166.667"  y="0" height="37.3982" width="55.5556" style="fill: #cfe7ab"/>
    <rect x="111.111"  y="0" height="72.0319" width="55.5556" style="fill: #c5c61b"/>
    <rect x="0"  y="0" height="29.4886" width="55.5556" style="fill: #aa52e0"/>
    <rect x="388.889"  y="0" height="8.908" width="55.5556" style="fill: #53b4c3"/>
    <rect x="388.889"  y="0" height="68.4227" width="55.5556" style="fill: #643f20"/>
    <rect x="166.667"  y="0" height="27.108" width="55.5556" style="fill: #4ef259"/>
    <rect x="0"  y="0" height="57.518" width="55.5556" style="fill: #d2e980"/>
    <rect x="55.5556"  y="0" height="28.7206" width="55.5556" style="fill: #42a948"/>
    <rect x="222.222"  y="0" height="9.90631" width="55.5556" style="fill: #aac5e8"/>
    <rect x="166.667"  y="0" height="10.9046" width="55.5556" style="fill: #84cb3e"/>
    <rect x="222.222"  y="0" height="100.829" width="55.5556" style="fill: #c7db92"/>
    <rect x="166.667"  y="0" height="17.9696" width="55.5556" style="fill: #5643fd"/>
    <rect x="277.778"  y="0" height="100.138" width="55.5556" style="fill: #34fdd4"/>
    <rect x="111.111"  y="0" height="29.9493" width="55.5556" style="fill: #67e2cc"/>
    <rect x="55.5556"  y="0" height="49.378" width="55.5556" style="fill: #a40603"/>
    <rect x="166.667"  y="0" height="20.3502" width="55.5556" style="fill: #5cb274"/>
    <rect x="388.889"  y="0" height="26.8776" width="55.5556" style="fill: #4cb90a"/>
    <rect x="0"  y="0" height="13.9763" width="55.5556" style="fill: #63e51c"/>
    <rect x="0"  y="0" height="16.3569" width="55.5556" style="fill: #973790"/>
    <rect x="111.111"  y="0" height="10.2903" width="55.5556" style="fill: #334394"/>
    <rect x="166.667"  y="0" height="27.108" width="55.5556" style="fill: #7e0208"/>
    <rect x="388.889"  y="0" height="51.1442" width="55.5556" style="fill: #6541e4"/>
    <rect x="111.111"  y="0" height="61.6649" width="55.5556" style="fill: #c48a99"/>
    <rect x="0"  y="0" height="64.3526" width="55.5556" style="fill: #630aa9"/>
    <rect x="55.5556"  y="0" height="18.8911" width="55.5556" style="fill: #aece15"/>
    <rect x="166.667"  y="0" height="17.8928" width="55.5556" style="fill: #3843a4"/>
    <rect x="333.333"  y="0" height="7.90969" width="55.5556" style="fill: #b19027"/>
    <rect x="55.5556"  y="0" height="29.7957" width="55.5556" style="fill: #4ebc95"/>
    <rect x="166.667"  y="0" height="68.3459" width="55.5556" style="fill: #5f8592"/>
    <rect x="333.333"  y="0" height="48.6868" width="55.5556" style="fill: #e30a22"/>
    <rect x="222.222"  y="0" height="8.83121" width="55.5556" style="fill: #05a485"/>
    <rect x="388.889"  y="0" height="12.978" width="55.5556" style="fill: #846248"/>
    <rect x="277.778"  y="0" height="66.426" width="55.5556" style="fill: #987550"/>
    <rect x="222.222"  y="0" height="31.3316" width="55.5556" style="fill: #aaf209"/>
    <rect x="55.5556"  y="0" height="9.52235" width="55.5556" style="fill: #4ec59e"/>
    <rect x="111.111"  y="0" height="24.2666" width="55.5556" style="fill: #7931dc"/>
    <rect x="388.889"  y="0" height="18.4303" width="55.5556" style="fill: #650c74"/>
    <rect x="55.5556"  y="0" height="12.3637" width="55.5556" style="fill: #51cc61"/>
    <rect x="0"  y="0" height="14.5907" width="55.5556" style="fill: #c0cb2c"/>
    <rect x="388.889"  y="0" height="20.6573" width="55.5556" style="fill: #46a1b3"/>
    <rect x="55.5556"  y="0" height="21.6557" width="55.5556" style="fill: #f2c349"/>
    <rect x="222.222"  y="0" height="30.6405" width="55.5556" style="fill: #faff76"/>
    <rect x="0"  y="0" height="16.2801" width="55.5556" style="fill: #3c7f8d"/>
    <rect x="333.333"  y="0" height="11.3654" width="55.5556" style="fill: #14ddff"/>
    <rect x="111.111"  y="0" height="30.9476" width="55.5556" style="fill: #946351"/>
    <rect x="333.333"  y="0" height="43.2345" width="55.5556" style="fill: #744378"/>
    <rect x="0"  y="0" height="22.9611" width="55.5556" style="fill: #d62c59"/>
    <rect x="388.889"  y="0" height="20.2734" width="55.5556" style="fill: #285a8d"/>
    <rect x="55.5556"  y="0" height="21.5021" width="55.5556" style="fill: #791561"/>
    <rect x="166.667"  y="0" height="31.3316" width="55.5556" style="fill: #4f5a2a"/>
    <rect x="222.222"  y="0" height="7.75611" width="55.5556" style="fill: #c9e0d6"/>
    <rect x="111.111"  y="0" height="33.405" width="55.5556" style="fill: #8aca62"/>
    <rect x="277.778"  y="0" height="28.1063" width="55.5556" style="fill: #48a922"/>
    <rect x="388.889"  y="0" height="38.0126" width="55.5556" style="fill: #7ab8f1"/>
    <rect x="222.222"  y="0" height="15.205" width="55.5556" style="fill: #930ee3"/>
    <rect x="55.5556"  y="0" height="59.8218" width="55.5556" style="fill: #8ac7a9"/>
    <rect x="0"  y="0" height="33.5586" width="55.5556" style="fill: #d239c9"/>
    <rect x="166.667"  y="0" height="17.5856" width="55.5556" style="fill: #b026a4"/>
    <rect x="222.222"  y="0" height="34.8641" width="55.5556" style="fill: #81e49d"/>
    <rect x="333.333"  y="0" height="34.7105" width="55.5556" style="fill: #53161f"/>
    <rect x="277.778"  y="0" height="29.4886" width="55.5556" style="fill: #9a9513"/>
    <rect x="111.111"  y="0" height="10.1367" width="55.5556" style="fill: #fe5271"/>
    <rect x="166.667"  y="0" height="76.8699" width="55.5556" style="fill: #c32e9c"/>
    <rect x="0"  y="0" height="29.1814" width="55.5556" style="fill: #21d156"/>
</svg>
</svg>
