<svg  xmlns="http://www.w3.org/2000/svg" xmlns:xlink="http://www.w3.org/1999/xlink" x="0" y="0" width="600" height="600">
<rect x="0%" y="0%" height="100%" width="100%" style="fill: #ffffff"/>
<svg x="0" y="0">
  <text fill="dark" font-size="35" transform="translate(250, 30)">cores</text>
</svg>
<svg x="0" y="0"> 
  <text fill="dark" font-size="35" transform="translate(30, 300) rotate(270)">time</text>
</svg>
<svg x = "50" y="550">
  <text fill="blue" font-size="30" transform="translate(0, 35)">t = 31s, lb = 0.998046</text>
</svg>
<svg x="50" y="50" width="500" height="500" >
  <rect x="0%" y="0%" height="100%" width="100%" style="fill: #eeeeee"/>
    <rect x="0"  y="0" height="2.65872" width="250" style="fill: #76931f"/>
    <rect x="0"  y="0" height="4.64476" width="250" style="fill: #ac9dab"/>
    <rect x="0"  y="0" height="3.37946" width="250" style="fill: #2b36c2"/>
    <rect x="0"  y="0" height="6.43859" width="250" style="fill: #48b87d"/>
    <rect x="0"  y="0" height="3.17125" width="250" style="fill: #6ae33f"/>
    <rect x="0"  y="0" height="3.908" width="250" style="fill: #9a62d7"/>
    <rect x="0"  y="0" height="4.62874" width="250" style="fill: #183a5d"/>
    <rect x="0"  y="0" height="2.94702" width="250" style="fill: #5789e4"/>
    <rect x="0"  y="0" height="5.81395" width="250" style="fill: #b2d6b4"/>
    <rect x="0"  y="0" height="4.56467" width="250" style="fill: #41e241"/>
    <rect x="0"  y="0" height="5.862" width="250" style="fill: #1dc709"/>
    <rect x="0"  y="0" height="6.56672" width="250" style="fill: #e111c7"/>
    <rect x="0"  y="0" height="5.10923" width="250" style="fill: #e1e7ac"/>
    <rect x="0"  y="0" height="4.85297" width="250" style="fill: #b6f8ca"/>
    <rect x="0"  y="0" height="5.02915" width="250" style="fill: #c0bb2f"/>
    <rect x="0"  y="0" height="6.42258" width="250" style="fill: #c4c8bc"/>
    <rect x="0"  y="0" height="2.77084" width="250" style="fill: #2ae3ba"/>
    <rect x="0"  y="0" height="4.96508" width="250" style="fill: #aab916"/>
    <rect x="0"  y="0" height="4.66077" width="250" style="fill: #5cc458"/>
    <rect x="0"  y="0" height="8.28048" width="250" style="fill: #e199cb"/>
    <rect x="0"  y="0" height="5.58972" width="250" style="fill: #89f51b"/>
    <rect x="0"  y="0" height="4.83695" width="250" style="fill: #135f70"/>
    <rect x="0"  y="0" height="3.84394" width="250" style="fill: #91a5ab"/>
    <rect x="0"  y="0" height="7.62381" width="250" style="fill: #b0874d"/>
    <rect x="0"  y="0" height="6.64681" width="250" style="fill: #f3e8cb"/>
    <rect x="0"  y="0" height="7.2234" width="250" style="fill: #4543a5"/>
    <rect x="0"  y="0" height="6.18233" width="250" style="fill: #eb93b0"/>
    <rect x="0"  y="0" height="4.48459" width="250" style="fill: #441e9c"/>
    <rect x="0"  y="0" height="3.09117" width="250" style="fill: #a4c2b0"/>
    <rect x="0"  y="0" height="4.77289" width="250" style="fill: #fb3d30"/>
    <rect x="0"  y="0" height="5.92607" width="250" style="fill: #875cbf"/>
    <rect x="0"  y="0" height="5.66981" width="250" style="fill: #29abd5"/>
    <rect x="0"  y="0" height="4.13223" width="250" style="fill: #b1acf3"/>
    <rect x="0"  y="0" height="5.50964" width="250" style="fill: #8984b3"/>
    <rect x="0"  y="0" height="4.86899" width="250" style="fill: #5ae882"/>
    <rect x="0"  y="0" height="3.98808" width="250" style="fill: #809dd4"/>
    <rect x="0"  y="0" height="3.41149" width="250" style="fill: #cfe7ab"/>
    <rect x="0"  y="0" height="5.74989" width="250" style="fill: #c5c61b"/>
    <rect x="0"  y="0" height="5.12525" width="250" style="fill: #aa52e0"/>
    <rect x="0"  y="0" height="3.89199" width="250" style="fill: #53b4c3"/>
    <rect x="0"  y="0" height="7.43161" width="250" style="fill: #643f20"/>
    <rect x="0"  y="0" height="4.32443" width="250" style="fill: #4ef259"/>
    <rect x="0"  y="0" height="4.58069" width="250" style="fill: #d2e980"/>
    <rect x="0"  y="0" height="4.51663" width="250" style="fill: #42a948"/>
    <rect x="0"  y="0" height="5.39753" width="250" style="fill: #aac5e8"/>
    <rect x="0"  y="0" height="2.22628" width="250" style="fill: #84cb3e"/>
    <rect x="0"  y="0" height="5.28541" width="250" style="fill: #c7db92"/>
    <rect x="0"  y="0" height="5.68582" width="250" style="fill: #5643fd"/>
    <rect x="0"  y="0" height="5.23736" width="250" style="fill: #34fdd4"/>
    <rect x="0"  y="0" height="5.36549" width="250" style="fill: #67e2cc"/>
    <rect x="0"  y="0" height="2.99507" width="250" style="fill: #a40603"/>
    <rect x="0"  y="0" height="5.87802" width="250" style="fill: #5cb274"/>
    <rect x="0"  y="0" height="3.50759" width="250" style="fill: #4cb90a"/>
    <rect x="0"  y="0" height="5.50964" width="250" style="fill: #63e51c"/>
    <rect x="0"  y="0" height="3.908" width="250" style="fill: #973790"/>
    <rect x="0"  y="0" height="4.11622" width="250" style="fill: #334394"/>
    <rect x="0"  y="0" height="4.32443" width="250" style="fill: #7e0208"/>
    <rect x="0"  y="0" height="4.1963" width="250" style="fill: #6541e4"/>
    <rect x="0"  y="0" height="3.37946" width="250" style="fill: #c48a99"/>
    <rect x="0"  y="0" height="4.94907" width="250" style="fill: #630aa9"/>
    <rect x="0"  y="0" height="4.06817" width="250" style="fill: #aece15"/>
    <rect x="0"  y="0" height="3.39548" width="250" style="fill: #3843a4"/>
    <rect x="0"  y="0" height="8.50471" width="250" style="fill: #b19027"/>
    <rect x="0"  y="0" height="5.1733" width="250" style="fill: #4ebc95"/>
    <rect x="0"  y="0" height="7.14331" width="250" style="fill: #5f8592"/>
    <rect x="0"  y="0" height="6.29445" width="250" style="fill: #e30a22"/>
    <rect x="0"  y="0" height="4.77289" width="250" style="fill: #05a485"/>
    <rect x="0"  y="0" height="4.42053" width="250" style="fill: #846248"/>
    <rect x="0"  y="0" height="5.34948" width="250" style="fill: #987550"/>
    <rect x="0"  y="0" height="6.23038" width="250" style="fill: #aaf209"/>
    <rect x="0"  y="0" height="4.16426" width="250" style="fill: #4ec59e"/>
    <rect x="0"  y="0" height="6.08623" width="250" style="fill: #7931dc"/>
    <rect x="0"  y="0" height="6.08623" width="250" style="fill: #650c74"/>
    <rect x="0"  y="0" height="3.58767" width="250" style="fill: #51cc61"/>
    <rect x="0"  y="0" height="4.42053" width="250" style="fill: #c0cb2c"/>
    <rect x="0"  y="0" height="7.15933" width="250" style="fill: #46a1b3"/>
    <rect x="0"  y="0" height="4.75687" width="250" style="fill: #f2c349"/>
    <rect x="0"  y="0" height="2.86694" width="250" style="fill: #faff76"/>
    <rect x="0"  y="0" height="5.9581" width="250" style="fill: #3c7f8d"/>
    <rect x="0"  y="0" height="5.73387" width="250" style="fill: #14ddff"/>
    <rect x="0"  y="0" height="3.33141" width="250" style="fill: #946351"/>
    <rect x="0"  y="0" height="4.56467" width="250" style="fill: #744378"/>
    <rect x="0"  y="0" height="10.2185" width="250" style="fill: #d62c59"/>
    <rect x="0"  y="0" height="4.21231" width="250" style="fill: #285a8d"/>
    <rect x="0"  y="0" height="5.30143" width="250" style="fill: #791561"/>
    <rect x="0"  y="0" height="7.46364" width="250" style="fill: #4f5a2a"/>
    <rect x="0"  y="0" height="3.82792" width="250" style="fill: #c9e0d6"/>
    <rect x="0"  y="0" height="6.18233" width="250" style="fill: #8aca62"/>
    <rect x="0"  y="0" height="2.08213" width="250" style="fill: #48a922"/>
    <rect x="0"  y="0" height="5.63777" width="250" style="fill: #7ab8f1"/>
    <rect x="0"  y="0" height="5.89404" width="250" style="fill: #930ee3"/>
    <rect x="0"  y="0" height="7.07925" width="250" style="fill: #8ac7a9"/>
    <rect x="0"  y="0" height="5.20533" width="250" style="fill: #d239c9"/>
    <rect x="0"  y="0" height="3.77987" width="250" style="fill: #b026a4"/>
    <rect x="0"  y="0" height="1.53757" width="250" style="fill: #81e49d"/>
    <rect x="0"  y="0" height="6.53469" width="250" style="fill: #53161f"/>
    <rect x="0"  y="0" height="3.53962" width="250" style="fill: #9a9513"/>
    <rect x="0"  y="0" height="4.75687" width="250" style="fill: #fe5271"/>
    <rect x="0"  y="0" height="4.61272" width="250" style="fill: #c32e9c"/>
    <rect x="0"  y="0" height="5.02915" width="250" style="fill: #21d156"/>
</svg>
</svg>
