<svg  xmlns="http://www.w3.org/2000/svg" xmlns:xlink="http://www.w3.org/1999/xlink" x="0" y="0" width="600" height="600">
<rect x="0%" y="0%" height="100%" width="100%" style="fill: #ffffff"/>
<svg x="0" y="0">
  <text fill="dark" font-size="35" transform="translate(250, 30)">cores</text>
</svg>
<svg x="0" y="0"> 
  <text fill="dark" font-size="35" transform="translate(30, 300) rotate(270)">time</text>
</svg>
<svg x = "50" y="550">
  <text fill="blue" font-size="30" transform="translate(0, 35)">t = 27s, lb = 0.997590</text>
</svg>
<svg x="50" y="50" width="500" height="500" >
  <rect x="0%" y="0%" height="100%" width="100%" style="fill: #eeeeee"/>
    <rect x="0"  y="0" height="3.17646" width="250" style="fill: #76931f"/>
    <rect x="0"  y="0" height="6.42594" width="250" style="fill: #ac9dab"/>
    <rect x="0"  y="0" height="5.16631" width="250" style="fill: #2b36c2"/>
    <rect x="0"  y="0" height="5.05677" width="250" style="fill: #48b87d"/>
    <rect x="0"  y="0" height="3.37727" width="250" style="fill: #6ae33f"/>
    <rect x="0"  y="0" height="4.85596" width="250" style="fill: #9a62d7"/>
    <rect x="0"  y="0" height="6.3164" width="250" style="fill: #183a5d"/>
    <rect x="0"  y="0" height="4.05272" width="250" style="fill: #5789e4"/>
    <rect x="0"  y="0" height="5.00201" width="250" style="fill: #b2d6b4"/>
    <rect x="0"  y="0" height="6.82756" width="250" style="fill: #41e241"/>
    <rect x="0"  y="0" height="5.11154" width="250" style="fill: #1dc709"/>
    <rect x="0"  y="0" height="6.04257" width="250" style="fill: #e111c7"/>
    <rect x="0"  y="0" height="6.40768" width="250" style="fill: #e1e7ac"/>
    <rect x="0"  y="0" height="5.65921" width="250" style="fill: #b6f8ca"/>
    <rect x="0"  y="0" height="5.31235" width="250" style="fill: #c0bb2f"/>
    <rect x="0"  y="0" height="6.51721" width="250" style="fill: #c4c8bc"/>
    <rect x="0"  y="0" height="3.21297" width="250" style="fill: #2ae3ba"/>
    <rect x="0"  y="0" height="5.16631" width="250" style="fill: #aab916"/>
    <rect x="0"  y="0" height="4.61864" width="250" style="fill: #5cc458"/>
    <rect x="0"  y="0" height="4.98375" width="250" style="fill: #e199cb"/>
    <rect x="0"  y="0" height="6.17036" width="250" style="fill: #89f51b"/>
    <rect x="0"  y="0" height="4.01621" width="250" style="fill: #135f70"/>
    <rect x="0"  y="0" height="4.32655" width="250" style="fill: #91a5ab"/>
    <rect x="0"  y="0" height="6.88233" width="250" style="fill: #b0874d"/>
    <rect x="0"  y="0" height="3.26774" width="250" style="fill: #f3e8cb"/>
    <rect x="0"  y="0" height="5.58618" width="250" style="fill: #4543a5"/>
    <rect x="0"  y="0" height="5.40363" width="250" style="fill: #eb93b0"/>
    <rect x="0"  y="0" height="6.04257" width="250" style="fill: #441e9c"/>
    <rect x="0"  y="0" height="3.37727" width="250" style="fill: #a4c2b0"/>
    <rect x="0"  y="0" height="5.07503" width="250" style="fill: #fb3d30"/>
    <rect x="0"  y="0" height="5.27584" width="250" style="fill: #875cbf"/>
    <rect x="0"  y="0" height="4.72818" width="250" style="fill: #29abd5"/>
    <rect x="0"  y="0" height="4.61864" width="250" style="fill: #b1acf3"/>
    <rect x="0"  y="0" height="6.88233" width="250" style="fill: #8984b3"/>
    <rect x="0"  y="0" height="4.39958" width="250" style="fill: #5ae882"/>
    <rect x="0"  y="0" height="3.54157" width="250" style="fill: #809dd4"/>
    <rect x="0"  y="0" height="3.35901" width="250" style="fill: #cfe7ab"/>
    <rect x="0"  y="0" height="7.15616" width="250" style="fill: #c5c61b"/>
    <rect x="0"  y="0" height="5.42188" width="250" style="fill: #aa52e0"/>
    <rect x="0"  y="0" height="4.50911" width="250" style="fill: #53b4c3"/>
    <rect x="0"  y="0" height="4.76469" width="250" style="fill: #643f20"/>
    <rect x="0"  y="0" height="4.74643" width="250" style="fill: #4ef259"/>
    <rect x="0"  y="0" height="4.94724" width="250" style="fill: #d2e980"/>
    <rect x="0"  y="0" height="4.03447" width="250" style="fill: #42a948"/>
    <rect x="0"  y="0" height="5.03852" width="250" style="fill: #aac5e8"/>
    <rect x="0"  y="0" height="2.42798" width="250" style="fill: #84cb3e"/>
    <rect x="0"  y="0" height="5.2941" width="250" style="fill: #c7db92"/>
    <rect x="0"  y="0" height="4.61864" width="250" style="fill: #5643fd"/>
    <rect x="0"  y="0" height="4.9655" width="250" style="fill: #34fdd4"/>
    <rect x="0"  y="0" height="6.62675" width="250" style="fill: #67e2cc"/>
    <rect x="0"  y="0" height="3.10344" width="250" style="fill: #a40603"/>
    <rect x="0"  y="0" height="5.44014" width="250" style="fill: #5cb274"/>
    <rect x="0"  y="0" height="5.16631" width="250" style="fill: #4cb90a"/>
    <rect x="0"  y="0" height="8.01417" width="250" style="fill: #63e51c"/>
    <rect x="0"  y="0" height="2.95739" width="250" style="fill: #973790"/>
    <rect x="0"  y="0" height="3.92493" width="250" style="fill: #334394"/>
    <rect x="0"  y="0" height="5.91478" width="250" style="fill: #7e0208"/>
    <rect x="0"  y="0" height="4.87422" width="250" style="fill: #6541e4"/>
    <rect x="0"  y="0" height="3.35901" width="250" style="fill: #c48a99"/>
    <rect x="0"  y="0" height="5.03852" width="250" style="fill: #630aa9"/>
    <rect x="0"  y="0" height="4.98375" width="250" style="fill: #aece15"/>
    <rect x="0"  y="0" height="4.49085" width="250" style="fill: #3843a4"/>
    <rect x="0"  y="0" height="6.42594" width="250" style="fill: #b19027"/>
    <rect x="0"  y="0" height="4.21702" width="250" style="fill: #4ebc95"/>
    <rect x="0"  y="0" height="6.68151" width="250" style="fill: #5f8592"/>
    <rect x="0"  y="0" height="6.09734" width="250" style="fill: #e30a22"/>
    <rect x="0"  y="0" height="3.46855" width="250" style="fill: #05a485"/>
    <rect x="0"  y="0" height="3.37727" width="250" style="fill: #846248"/>
    <rect x="0"  y="0" height="6.77279" width="250" style="fill: #987550"/>
    <rect x="0"  y="0" height="2.9939" width="250" style="fill: #aaf209"/>
    <rect x="0"  y="0" height="2.97565" width="250" style="fill: #4ec59e"/>
    <rect x="0"  y="0" height="6.75454" width="250" style="fill: #7931dc"/>
    <rect x="0"  y="0" height="6.37117" width="250" style="fill: #650c74"/>
    <rect x="0"  y="0" height="4.38132" width="250" style="fill: #51cc61"/>
    <rect x="0"  y="0" height="5.51316" width="250" style="fill: #c0cb2c"/>
    <rect x="0"  y="0" height="6.17036" width="250" style="fill: #46a1b3"/>
    <rect x="0"  y="0" height="4.19877" width="250" style="fill: #f2c349"/>
    <rect x="0"  y="0" height="3.83366" width="250" style="fill: #faff76"/>
    <rect x="0"  y="0" height="6.37117" width="250" style="fill: #3c7f8d"/>
    <rect x="0"  y="0" height="5.67746" width="250" style="fill: #14ddff"/>
    <rect x="0"  y="0" height="2.81135" width="250" style="fill: #946351"/>
    <rect x="0"  y="0" height="3.88842" width="250" style="fill: #744378"/>
    <rect x="0"  y="0" height="11.2271" width="250" style="fill: #d62c59"/>
    <rect x="0"  y="0" height="3.52331" width="250" style="fill: #285a8d"/>
    <rect x="0"  y="0" height="5.33061" width="250" style="fill: #791561"/>
    <rect x="0"  y="0" height="5.87827" width="250" style="fill: #4f5a2a"/>
    <rect x="0"  y="0" height="5.14805" width="250" style="fill: #c9e0d6"/>
    <rect x="0"  y="0" height="3.21297" width="250" style="fill: #8aca62"/>
    <rect x="0"  y="0" height="3.45029" width="250" style="fill: #48a922"/>
    <rect x="0"  y="0" height="5.31235" width="250" style="fill: #7ab8f1"/>
    <rect x="0"  y="0" height="5.65921" width="250" style="fill: #930ee3"/>
    <rect x="0"  y="0" height="6.17036" width="250" style="fill: #8ac7a9"/>
    <rect x="0"  y="0" height="6.46245" width="250" style="fill: #d239c9"/>
    <rect x="0"  y="0" height="3.85191" width="250" style="fill: #b026a4"/>
    <rect x="0"  y="0" height="2.55577" width="250" style="fill: #81e49d"/>
    <rect x="0"  y="0" height="5.36712" width="250" style="fill: #53161f"/>
    <rect x="0"  y="0" height="4.94724" width="250" style="fill: #9a9513"/>
    <rect x="0"  y="0" height="4.9655" width="250" style="fill: #fe5271"/>
    <rect x="0"  y="0" height="3.8154" width="250" style="fill: #c32e9c"/>
    <rect x="0"  y="0" height="4.87422" width="250" style="fill: #21d156"/>
</svg>
</svg>
