<svg  xmlns="http://www.w3.org/2000/svg" xmlns:xlink="http://www.w3.org/1999/xlink" x="0" y="0" width="600" height="600">
<rect x="0%" y="0%" height="100%" width="100%" style="fill: #ffffff"/>
<svg x="0" y="0">
  <text fill="dark" font-size="35" transform="translate(250, 30)">cores</text>
</svg>
<svg x="0" y="0"> 
  <text fill="dark" font-size="35" transform="translate(30, 300) rotate(270)">time</text>
</svg>
<svg x = "50" y="550">
  <text fill="blue" font-size="30" transform="translate(0, 35)">t = 51s, lb = 0.998749</text>
</svg>
<svg x="50" y="50" width="500" height="500" >
  <rect x="0%" y="0%" height="100%" width="100%" style="fill: #eeeeee"/>
    <rect x="0"  y="0" height="1.04856" width="250" style="fill: #76931f"/>
    <rect x="0"  y="0" height="1.29868" width="250" style="fill: #ac9dab"/>
    <rect x="0"  y="0" height="2.35686" width="250" style="fill: #2b36c2"/>
    <rect x="0"  y="0" height="2.48191" width="250" style="fill: #48b87d"/>
    <rect x="0"  y="0" height="0.452132" width="250" style="fill: #6ae33f"/>
    <rect x="0"  y="0" height="0.634908" width="250" style="fill: #9a62d7"/>
    <rect x="0"  y="0" height="0.346314" width="250" style="fill: #183a5d"/>
    <rect x="0"  y="0" height="0.134678" width="250" style="fill: #5789e4"/>
    <rect x="0"  y="0" height="1.52955" width="250" style="fill: #b2d6b4"/>
    <rect x="0"  y="0" height="6.39718" width="250" style="fill: #41e241"/>
    <rect x="0"  y="0" height="1.78929" width="250" style="fill: #1dc709"/>
    <rect x="0"  y="0" height="2.48191" width="250" style="fill: #e111c7"/>
    <rect x="0"  y="0" height="5.78151" width="250" style="fill: #e1e7ac"/>
    <rect x="0"  y="0" height="0.278975" width="250" style="fill: #b6f8ca"/>
    <rect x="0"  y="0" height="50.0904" width="250" style="fill: #c0bb2f"/>
    <rect x="0"  y="0" height="3.72287" width="250" style="fill: #c4c8bc"/>
    <rect x="0"  y="0" height="4.14614" width="250" style="fill: #2ae3ba"/>
    <rect x="0"  y="0" height="3.32846" width="250" style="fill: #aab916"/>
    <rect x="0"  y="0" height="16.1998" width="250" style="fill: #5cc458"/>
    <rect x="0"  y="0" height="0.750346" width="250" style="fill: #e199cb"/>
    <rect x="0"  y="0" height="14.9588" width="250" style="fill: #89f51b"/>
    <rect x="0"  y="0" height="0.173157" width="250" style="fill: #135f70"/>
    <rect x="0"  y="0" height="0.577189" width="250" style="fill: #91a5ab"/>
    <rect x="0"  y="0" height="1.04856" width="250" style="fill: #b0874d"/>
    <rect x="0"  y="0" height="2.67431" width="250" style="fill: #f3e8cb"/>
    <rect x="0"  y="0" height="4.28082" width="250" style="fill: #4543a5"/>
    <rect x="0"  y="0" height="2.58773" width="250" style="fill: #eb93b0"/>
    <rect x="0"  y="0" height="1.62575" width="250" style="fill: #441e9c"/>
    <rect x="0"  y="0" height="0.0288595" width="250" style="fill: #a4c2b0"/>
    <rect x="0"  y="0" height="5.47368" width="250" style="fill: #fb3d30"/>
    <rect x="0"  y="0" height="1.13514" width="250" style="fill: #875cbf"/>
    <rect x="0"  y="0" height="2.26066" width="250" style="fill: #29abd5"/>
    <rect x="0"  y="0" height="1.89511" width="250" style="fill: #b1acf3"/>
    <rect x="0"  y="0" height="0.519471" width="250" style="fill: #8984b3"/>
    <rect x="0"  y="0" height="2.56849" width="250" style="fill: #5ae882"/>
    <rect x="0"  y="0" height="0.346314" width="250" style="fill: #809dd4"/>
    <rect x="0"  y="0" height="2.66469" width="250" style="fill: #cfe7ab"/>
    <rect x="0"  y="0" height="1.9432" width="250" style="fill: #c5c61b"/>
    <rect x="0"  y="0" height="0.163537" width="250" style="fill: #aa52e0"/>
    <rect x="0"  y="0" height="3.60743" width="250" style="fill: #53b4c3"/>
    <rect x="0"  y="0" height="0.606049" width="250" style="fill: #643f20"/>
    <rect x="0"  y="0" height="0.288595" width="250" style="fill: #4ef259"/>
    <rect x="0"  y="0" height="1.45259" width="250" style="fill: #d2e980"/>
    <rect x="0"  y="0" height="0.0288595" width="250" style="fill: #42a948"/>
    <rect x="0"  y="0" height="1.18324" width="250" style="fill: #aac5e8"/>
    <rect x="0"  y="0" height="2.0394" width="250" style="fill: #84cb3e"/>
    <rect x="0"  y="0" height="1.76043" width="250" style="fill: #c7db92"/>
    <rect x="0"  y="0" height="1.03894" width="250" style="fill: #5643fd"/>
    <rect x="0"  y="0" height="83.6829" width="250" style="fill: #34fdd4"/>
    <rect x="0"  y="0" height="0.731107" width="250" style="fill: #67e2cc"/>
    <rect x="0"  y="0" height="2.07788" width="250" style="fill: #a40603"/>
    <rect x="0"  y="0" height="3.3477" width="250" style="fill: #5cb274"/>
    <rect x="0"  y="0" height="0.683008" width="250" style="fill: #4cb90a"/>
    <rect x="0"  y="0" height="7.27259" width="250" style="fill: #63e51c"/>
    <rect x="0"  y="0" height="2.35686" width="250" style="fill: #973790"/>
    <rect x="0"  y="0" height="7.6189" width="250" style="fill: #334394"/>
    <rect x="0"  y="0" height="1.2602" width="250" style="fill: #7e0208"/>
    <rect x="0"  y="0" height="0.432892" width="250" style="fill: #6541e4"/>
    <rect x="0"  y="0" height="2.4242" width="250" style="fill: #c48a99"/>
    <rect x="0"  y="0" height="0.404033" width="250" style="fill: #630aa9"/>
    <rect x="0"  y="0" height="0.788826" width="250" style="fill: #aece15"/>
    <rect x="0"  y="0" height="0.808065" width="250" style="fill: #3843a4"/>
    <rect x="0"  y="0" height="1.0678" width="250" style="fill: #b19027"/>
    <rect x="0"  y="0" height="2.11636" width="250" style="fill: #4ebc95"/>
    <rect x="0"  y="0" height="2.58773" width="250" style="fill: #5f8592"/>
    <rect x="0"  y="0" height="0.288595" width="250" style="fill: #e30a22"/>
    <rect x="0"  y="0" height="0.615669" width="250" style="fill: #05a485"/>
    <rect x="0"  y="0" height="37.729" width="250" style="fill: #846248"/>
    <rect x="0"  y="0" height="22.4238" width="250" style="fill: #987550"/>
    <rect x="0"  y="0" height="0.278975" width="250" style="fill: #aaf209"/>
    <rect x="0"  y="0" height="5.6276" width="250" style="fill: #4ec59e"/>
    <rect x="0"  y="0" height="1.0197" width="250" style="fill: #7931dc"/>
    <rect x="0"  y="0" height="5.15623" width="250" style="fill: #650c74"/>
    <rect x="0"  y="0" height="0.885024" width="250" style="fill: #51cc61"/>
    <rect x="0"  y="0" height="2.09712" width="250" style="fill: #c0cb2c"/>
    <rect x="0"  y="0" height="0.942743" width="250" style="fill: #46a1b3"/>
    <rect x="0"  y="0" height="0.442512" width="250" style="fill: #f2c349"/>
    <rect x="0"  y="0" height="43.3277" width="250" style="fill: #faff76"/>
    <rect x="0"  y="0" height="5.11775" width="250" style="fill: #3c7f8d"/>
    <rect x="0"  y="0" height="1.20248" width="250" style="fill: #14ddff"/>
    <rect x="0"  y="0" height="31.226" width="250" style="fill: #946351"/>
    <rect x="0"  y="0" height="1.49107" width="250" style="fill: #744378"/>
    <rect x="0"  y="0" height="2.1837" width="250" style="fill: #d62c59"/>
    <rect x="0"  y="0" height="7.23411" width="250" style="fill: #285a8d"/>
    <rect x="0"  y="0" height="1.37563" width="250" style="fill: #791561"/>
    <rect x="0"  y="0" height="1.97206" width="250" style="fill: #4f5a2a"/>
    <rect x="0"  y="0" height="2.10674" width="250" style="fill: #c9e0d6"/>
    <rect x="0"  y="0" height="1.19286" width="250" style="fill: #8aca62"/>
    <rect x="0"  y="0" height="4.42512" width="250" style="fill: #48a922"/>
    <rect x="0"  y="0" height="0.54833" width="250" style="fill: #7ab8f1"/>
    <rect x="0"  y="0" height="5.81037" width="250" style="fill: #930ee3"/>
    <rect x="0"  y="0" height="9.36971" width="250" style="fill: #8ac7a9"/>
    <rect x="0"  y="0" height="0.404033" width="250" style="fill: #d239c9"/>
    <rect x="0"  y="0" height="3.93451" width="250" style="fill: #b026a4"/>
    <rect x="0"  y="0" height="0.182777" width="250" style="fill: #81e49d"/>
    <rect x="0"  y="0" height="5.81999" width="250" style="fill: #53161f"/>
    <rect x="0"  y="0" height="2.70317" width="250" style="fill: #9a9513"/>
    <rect x="0"  y="0" height="1.98168" width="250" style="fill: #fe5271"/>
    <rect x="0"  y="0" height="0.634908" width="250" style="fill: #c32e9c"/>
    <rect x="0"  y="0" height="3.78059" width="250" style="fill: #21d156"/>
</svg>
</svg>
