<svg  xmlns="http://www.w3.org/2000/svg" xmlns:xlink="http://www.w3.org/1999/xlink" x="0" y="0" width="600" height="600">
<rect x="0%" y="0%" height="100%" width="100%" style="fill: #ffffff"/>
<svg x="0" y="0">
  <text fill="dark" font-size="35" transform="translate(250, 30)">cores</text>
</svg>
<svg x="0" y="0"> 
  <text fill="dark" font-size="35" transform="translate(30, 300) rotate(270)">time</text>
</svg>
<svg x = "50" y="550">
  <text fill="blue" font-size="30" transform="translate(0, 35)">t = 6s, lb = 0.913401</text>
</svg>
<svg x="50" y="50" width="500" height="500" >
  <rect x="0%" y="0%" height="100%" width="100%" style="fill: #eeeeee"/>
    <rect x="0"  y="0" height="32.853" width="55.5556" style="fill: #76931f"/>
    <rect x="222.222"  y="0" height="26.9452" width="55.5556" style="fill: #ac9dab"/>
    <rect x="111.111"  y="0" height="34.366" width="55.5556" style="fill: #2b36c2"/>
    <rect x="55.5556"  y="0" height="23.1268" width="55.5556" style="fill: #48b87d"/>
    <rect x="333.333"  y="0" height="45.6052" width="55.5556" style="fill: #6ae33f"/>
    <rect x="277.778"  y="0" height="6.48415" width="55.5556" style="fill: #9a62d7"/>
    <rect x="166.667"  y="0" height="38.1844" width="55.5556" style="fill: #183a5d"/>
    <rect x="388.889"  y="0" height="45.6772" width="55.5556" style="fill: #5789e4"/>
    <rect x="277.778"  y="0" height="23.8473" width="55.5556" style="fill: #b2d6b4"/>
    <rect x="55.5556"  y="0" height="6.34006" width="55.5556" style="fill: #41e241"/>
    <rect x="222.222"  y="0" height="14.4092" width="55.5556" style="fill: #1dc709"/>
    <rect x="55.5556"  y="0" height="11.3112" width="55.5556" style="fill: #e111c7"/>
    <rect x="277.778"  y="0" height="54.9712" width="55.5556" style="fill: #e1e7ac"/>
    <rect x="0"  y="0" height="24.7118" width="55.5556" style="fill: #b6f8ca"/>
    <rect x="111.111"  y="0" height="39.4092" width="55.5556" style="fill: #c0bb2f"/>
    <rect x="166.667"  y="0" height="75.3602" width="55.5556" style="fill: #c4c8bc"/>
    <rect x="55.5556"  y="0" height="37.6081" width="55.5556" style="fill: #2ae3ba"/>
    <rect x="222.222"  y="0" height="31.1239" width="55.5556" style="fill: #aab916"/>
    <rect x="333.333"  y="0" height="23.6311" width="55.5556" style="fill: #5cc458"/>
    <rect x="388.889"  y="0" height="9.2219" width="55.5556" style="fill: #e199cb"/>
    <rect x="388.889"  y="0" height="10.4467" width="55.5556" style="fill: #89f51b"/>
    <rect x="0"  y="0" height="13.8329" width="55.5556" style="fill: #135f70"/>
    <rect x="388.889"  y="0" height="29.1787" width="55.5556" style="fill: #91a5ab"/>
    <rect x="333.333"  y="0" height="20.317" width="55.5556" style="fill: #b0874d"/>
    <rect x="0"  y="0" height="25.7205" width="55.5556" style="fill: #f3e8cb"/>
    <rect x="222.222"  y="0" height="36.3833" width="55.5556" style="fill: #4543a5"/>
    <rect x="111.111"  y="0" height="13.1124" width="55.5556" style="fill: #eb93b0"/>
    <rect x="55.5556"  y="0" height="10.3746" width="55.5556" style="fill: #441e9c"/>
    <rect x="277.778"  y="0" height="27.5216" width="55.5556" style="fill: #a4c2b0"/>
    <rect x="111.111"  y="0" height="34.7262" width="55.5556" style="fill: #fb3d30"/>
    <rect x="55.5556"  y="0" height="7.20461" width="55.5556" style="fill: #875cbf"/>
    <rect x="333.333"  y="0" height="19.3084" width="55.5556" style="fill: #29abd5"/>
    <rect x="388.889"  y="0" height="23.2709" width="55.5556" style="fill: #b1acf3"/>
    <rect x="55.5556"  y="0" height="65.9942" width="55.5556" style="fill: #8984b3"/>
    <rect x="0"  y="0" height="29.2507" width="55.5556" style="fill: #5ae882"/>
    <rect x="222.222"  y="0" height="355.62" width="55.5556" style="fill: #809dd4"/>
    <rect x="333.333"  y="0" height="39.121" width="55.5556" style="fill: #cfe7ab"/>
    <rect x="277.778"  y="0" height="29.683" width="55.5556" style="fill: #c5c61b"/>
    <rect x="166.667"  y="0" height="13.4006" width="55.5556" style="fill: #aa52e0"/>
    <rect x="388.889"  y="0" height="35.0865" width="55.5556" style="fill: #53b4c3"/>
    <rect x="111.111"  y="0" height="299.352" width="55.5556" style="fill: #643f20"/>
    <rect x="0"  y="0" height="32.3487" width="55.5556" style="fill: #4ef259"/>
    <rect x="166.667"  y="0" height="68.3718" width="55.5556" style="fill: #d2e980"/>
    <rect x="277.778"  y="0" height="6.4121" width="55.5556" style="fill: #42a948"/>
    <rect x="333.333"  y="0" height="30.4035" width="55.5556" style="fill: #aac5e8"/>
    <rect x="277.778"  y="0" height="10.0144" width="55.5556" style="fill: #84cb3e"/>
    <rect x="388.889"  y="0" height="7.92507" width="55.5556" style="fill: #c7db92"/>
    <rect x="0"  y="0" height="14.049" width="55.5556" style="fill: #5643fd"/>
    <rect x="277.778"  y="0" height="51.7291" width="55.5556" style="fill: #34fdd4"/>
    <rect x="388.889"  y="0" height="22.5504" width="55.5556" style="fill: #67e2cc"/>
    <rect x="55.5556"  y="0" height="27.2334" width="55.5556" style="fill: #a40603"/>
    <rect x="0"  y="0" height="27.1614" width="55.5556" style="fill: #5cb274"/>
    <rect x="333.333"  y="0" height="14.6974" width="55.5556" style="fill: #4cb90a"/>
    <rect x="388.889"  y="0" height="59.0058" width="55.5556" style="fill: #63e51c"/>
    <rect x="55.5556"  y="0" height="24.2795" width="55.5556" style="fill: #973790"/>
    <rect x="333.333"  y="0" height="26.0807" width="55.5556" style="fill: #334394"/>
    <rect x="166.667"  y="0" height="28.2421" width="55.5556" style="fill: #7e0208"/>
    <rect x="0"  y="0" height="45.6772" width="55.5556" style="fill: #6541e4"/>
    <rect x="277.778"  y="0" height="26.513" width="55.5556" style="fill: #c48a99"/>
    <rect x="55.5556"  y="0" height="17.147" width="55.5556" style="fill: #630aa9"/>
    <rect x="333.333"  y="0" height="37.3199" width="55.5556" style="fill: #aece15"/>
    <rect x="166.667"  y="0" height="28.8905" width="55.5556" style="fill: #3843a4"/>
    <rect x="55.5556"  y="0" height="8.50144" width="55.5556" style="fill: #b19027"/>
    <rect x="277.778"  y="0" height="19.1643" width="55.5556" style="fill: #4ebc95"/>
    <rect x="55.5556"  y="0" height="5.83573" width="55.5556" style="fill: #5f8592"/>
    <rect x="388.889"  y="0" height="35.2305" width="55.5556" style="fill: #e30a22"/>
    <rect x="55.5556"  y="0" height="28.5303" width="55.5556" style="fill: #05a485"/>
    <rect x="0"  y="0" height="5.76369" width="55.5556" style="fill: #846248"/>
    <rect x="0"  y="0" height="29.2507" width="55.5556" style="fill: #987550"/>
    <rect x="166.667"  y="0" height="70.245" width="55.5556" style="fill: #aaf209"/>
    <rect x="277.778"  y="0" height="29.1787" width="55.5556" style="fill: #4ec59e"/>
    <rect x="333.333"  y="0" height="40.562" width="55.5556" style="fill: #7931dc"/>
    <rect x="55.5556"  y="0" height="27.2334" width="55.5556" style="fill: #650c74"/>
    <rect x="388.889"  y="0" height="19.2363" width="55.5556" style="fill: #51cc61"/>
    <rect x="0"  y="0" height="21.4697" width="55.5556" style="fill: #c0cb2c"/>
    <rect x="277.778"  y="0" height="13.8329" width="55.5556" style="fill: #46a1b3"/>
    <rect x="388.889"  y="0" height="22.5504" width="55.5556" style="fill: #f2c349"/>
    <rect x="333.333"  y="0" height="14.6254" width="55.5556" style="fill: #faff76"/>
    <rect x="277.778"  y="0" height="5.76369" width="55.5556" style="fill: #3c7f8d"/>
    <rect x="55.5556"  y="0" height="69.5245" width="55.5556" style="fill: #14ddff"/>
    <rect x="0"  y="0" height="25.1441" width="55.5556" style="fill: #946351"/>
    <rect x="277.778"  y="0" height="46.1816" width="55.5556" style="fill: #744378"/>
    <rect x="333.333"  y="0" height="58.2133" width="55.5556" style="fill: #d62c59"/>
    <rect x="388.889"  y="0" height="82.9971" width="55.5556" style="fill: #285a8d"/>
    <rect x="166.667"  y="0" height="14.1931" width="55.5556" style="fill: #791561"/>
    <rect x="0"  y="0" height="68.6599" width="55.5556" style="fill: #4f5a2a"/>
    <rect x="166.667"  y="0" height="11.2392" width="55.5556" style="fill: #c9e0d6"/>
    <rect x="166.667"  y="0" height="26.0086" width="55.5556" style="fill: #8aca62"/>
    <rect x="277.778"  y="0" height="39.4813" width="55.5556" style="fill: #48a922"/>
    <rect x="333.333"  y="0" height="44.5965" width="55.5556" style="fill: #7ab8f1"/>
    <rect x="55.5556"  y="0" height="27.8098" width="55.5556" style="fill: #930ee3"/>
    <rect x="166.667"  y="0" height="70.5331" width="55.5556" style="fill: #8ac7a9"/>
    <rect x="277.778"  y="0" height="38.7608" width="55.5556" style="fill: #d239c9"/>
    <rect x="0"  y="0" height="64.049" width="55.5556" style="fill: #b026a4"/>
    <rect x="55.5556"  y="0" height="23.7032" width="55.5556" style="fill: #81e49d"/>
    <rect x="388.889"  y="0" height="45.8934" width="55.5556" style="fill: #53161f"/>
    <rect x="333.333"  y="0" height="84.7262" width="55.5556" style="fill: #9a9513"/>
    <rect x="111.111"  y="0" height="15.0576" width="55.5556" style="fill: #fe5271"/>
    <rect x="55.5556"  y="0" height="11.8156" width="55.5556" style="fill: #c32e9c"/>
    <rect x="277.778"  y="0" height="37.8963" width="55.5556" style="fill: #21d156"/>
</svg>
</svg>
