<svg  xmlns="http://www.w3.org/2000/svg" xmlns:xlink="http://www.w3.org/1999/xlink" x="0" y="0" width="600" height="600">
<rect x="0%" y="0%" height="100%" width="100%" style="fill: #ffffff"/>
<svg x="0" y="0">
  <text fill="dark" font-size="35" transform="translate(250, 30)">cores</text>
</svg>
<svg x="0" y="0"> 
  <text fill="dark" font-size="35" transform="translate(30, 300) rotate(270)">time</text>
</svg>
<svg x = "50" y="550">
  <text fill="blue" font-size="30" transform="translate(0, 35)">t = 30s, lb = 0.475405</text>
</svg>
<svg x="50" y="50" width="500" height="500" >
  <rect x="0%" y="0%" height="100%" width="100%" style="fill: #eeeeee"/>
    <rect x="0"  y="0" height="18.594" width="55.5556" style="fill: #76931f"/>
    <rect x="222.222"  y="0" height="499.984" width="55.5556" style="fill: #ac9dab"/>
    <rect x="111.111"  y="0" height="22.8799" width="55.5556" style="fill: #2b36c2"/>
    <rect x="55.5556"  y="0" height="5.71997" width="55.5556" style="fill: #48b87d"/>
    <rect x="333.333"  y="0" height="14.0799" width="55.5556" style="fill: #6ae33f"/>
    <rect x="277.778"  y="0" height="7.67551" width="55.5556" style="fill: #9a62d7"/>
    <rect x="166.667"  y="0" height="11.7984" width="55.5556" style="fill: #183a5d"/>
    <rect x="388.889"  y="0" height="3.65035" width="55.5556" style="fill: #5789e4"/>
    <rect x="388.889"  y="0" height="2.02073" width="55.5556" style="fill: #b2d6b4"/>
    <rect x="388.889"  y="0" height="8.06662" width="55.5556" style="fill: #41e241"/>
    <rect x="55.5556"  y="0" height="5.36145" width="55.5556" style="fill: #1dc709"/>
    <rect x="277.778"  y="0" height="3.14517" width="55.5556" style="fill: #e111c7"/>
    <rect x="277.778"  y="0" height="4.13923" width="55.5556" style="fill: #e1e7ac"/>
    <rect x="55.5556"  y="0" height="2.16739" width="55.5556" style="fill: #b6f8ca"/>
    <rect x="166.667"  y="0" height="8.1644" width="55.5556" style="fill: #c0bb2f"/>
    <rect x="55.5556"  y="0" height="2.93332" width="55.5556" style="fill: #c4c8bc"/>
    <rect x="388.889"  y="0" height="10.8207" width="55.5556" style="fill: #2ae3ba"/>
    <rect x="333.333"  y="0" height="46.1508" width="55.5556" style="fill: #aab916"/>
    <rect x="277.778"  y="0" height="13.5095" width="55.5556" style="fill: #5cc458"/>
    <rect x="55.5556"  y="0" height="5.50812" width="55.5556" style="fill: #e199cb"/>
    <rect x="0"  y="0" height="6.95848" width="55.5556" style="fill: #89f51b"/>
    <rect x="166.667"  y="0" height="8.44143" width="55.5556" style="fill: #135f70"/>
    <rect x="55.5556"  y="0" height="1.98814" width="55.5556" style="fill: #91a5ab"/>
    <rect x="111.111"  y="0" height="15.2858" width="55.5556" style="fill: #b0874d"/>
    <rect x="55.5556"  y="0" height="75.4188" width="55.5556" style="fill: #f3e8cb"/>
    <rect x="388.889"  y="0" height="1.89036" width="55.5556" style="fill: #4543a5"/>
    <rect x="0"  y="0" height="6.15996" width="55.5556" style="fill: #eb93b0"/>
    <rect x="388.889"  y="0" height="12.271" width="55.5556" style="fill: #441e9c"/>
    <rect x="166.667"  y="0" height="14.357" width="55.5556" style="fill: #a4c2b0"/>
    <rect x="277.778"  y="0" height="1.51555" width="55.5556" style="fill: #fb3d30"/>
    <rect x="277.778"  y="0" height="9.53328" width="55.5556" style="fill: #875cbf"/>
    <rect x="0"  y="0" height="6.77922" width="55.5556" style="fill: #29abd5"/>
    <rect x="111.111"  y="0" height="6.40441" width="55.5556" style="fill: #b1acf3"/>
    <rect x="0"  y="0" height="7.65921" width="55.5556" style="fill: #8984b3"/>
    <rect x="388.889"  y="0" height="1.35258" width="55.5556" style="fill: #5ae882"/>
    <rect x="277.778"  y="0" height="1.84147" width="55.5556" style="fill: #809dd4"/>
    <rect x="388.889"  y="0" height="5.75256" width="55.5556" style="fill: #cfe7ab"/>
    <rect x="277.778"  y="0" height="3.71553" width="55.5556" style="fill: #c5c61b"/>
    <rect x="166.667"  y="0" height="6.02959" width="55.5556" style="fill: #aa52e0"/>
    <rect x="111.111"  y="0" height="7.88736" width="55.5556" style="fill: #53b4c3"/>
    <rect x="277.778"  y="0" height="1.41777" width="55.5556" style="fill: #643f20"/>
    <rect x="388.889"  y="0" height="27.2472" width="55.5556" style="fill: #4ef259"/>
    <rect x="0"  y="0" height="3.27554" width="55.5556" style="fill: #d2e980"/>
    <rect x="277.778"  y="0" height="4.2696" width="55.5556" style="fill: #42a948"/>
    <rect x="166.667"  y="0" height="25.1613" width="55.5556" style="fill: #aac5e8"/>
    <rect x="0"  y="0" height="6.68144" width="55.5556" style="fill: #84cb3e"/>
    <rect x="277.778"  y="0" height="3.12887" width="55.5556" style="fill: #c7db92"/>
    <rect x="111.111"  y="0" height="1.53184" width="55.5556" style="fill: #5643fd"/>
    <rect x="277.778"  y="0" height="56.8737" width="55.5556" style="fill: #34fdd4"/>
    <rect x="111.111"  y="0" height="8.47402" width="55.5556" style="fill: #67e2cc"/>
    <rect x="0"  y="0" height="2.08591" width="55.5556" style="fill: #a40603"/>
    <rect x="0"  y="0" height="2.80295" width="55.5556" style="fill: #5cb274"/>
    <rect x="333.333"  y="0" height="2.73776" width="55.5556" style="fill: #4cb90a"/>
    <rect x="0"  y="0" height="6.12737" width="55.5556" style="fill: #63e51c"/>
    <rect x="111.111"  y="0" height="16.5406" width="55.5556" style="fill: #973790"/>
    <rect x="333.333"  y="0" height="10.5273" width="55.5556" style="fill: #334394"/>
    <rect x="0"  y="0" height="3.76442" width="55.5556" style="fill: #7e0208"/>
    <rect x="0"  y="0" height="1.82517" width="55.5556" style="fill: #6541e4"/>
    <rect x="0"  y="0" height="6.09478" width="55.5556" style="fill: #c48a99"/>
    <rect x="388.889"  y="0" height="28.5998" width="55.5556" style="fill: #630aa9"/>
    <rect x="333.333"  y="0" height="21.5762" width="55.5556" style="fill: #aece15"/>
    <rect x="166.667"  y="0" height="307.933" width="55.5556" style="fill: #3843a4"/>
    <rect x="0"  y="0" height="3.74813" width="55.5556" style="fill: #b19027"/>
    <rect x="111.111"  y="0" height="6.90959" width="55.5556" style="fill: #4ebc95"/>
    <rect x="0"  y="0" height="5.03553" width="55.5556" style="fill: #5f8592"/>
    <rect x="111.111"  y="0" height="7.12144" width="55.5556" style="fill: #e30a22"/>
    <rect x="0"  y="0" height="34.4502" width="55.5556" style="fill: #05a485"/>
    <rect x="111.111"  y="0" height="4.74219" width="55.5556" style="fill: #846248"/>
    <rect x="333.333"  y="0" height="1.40147" width="55.5556" style="fill: #987550"/>
    <rect x="333.333"  y="0" height="3.24294" width="55.5556" style="fill: #aaf209"/>
    <rect x="111.111"  y="0" height="1.40147" width="55.5556" style="fill: #4ec59e"/>
    <rect x="55.5556"  y="0" height="4.83997" width="55.5556" style="fill: #7931dc"/>
    <rect x="111.111"  y="0" height="47.3731" width="55.5556" style="fill: #650c74"/>
    <rect x="333.333"  y="0" height="5.49182" width="55.5556" style="fill: #51cc61"/>
    <rect x="388.889"  y="0" height="22.668" width="55.5556" style="fill: #c0cb2c"/>
    <rect x="55.5556"  y="0" height="9.07698" width="55.5556" style="fill: #46a1b3"/>
    <rect x="333.333"  y="0" height="8.32736" width="55.5556" style="fill: #f2c349"/>
    <rect x="277.778"  y="0" height="1.95554" width="55.5556" style="fill: #faff76"/>
    <rect x="277.778"  y="0" height="2.03702" width="55.5556" style="fill: #3c7f8d"/>
    <rect x="55.5556"  y="0" height="1.56444" width="55.5556" style="fill: #14ddff"/>
    <rect x="333.333"  y="0" height="6.79552" width="55.5556" style="fill: #946351"/>
    <rect x="55.5556"  y="0" height="19.4903" width="55.5556" style="fill: #744378"/>
    <rect x="277.778"  y="0" height="1.75999" width="55.5556" style="fill: #d62c59"/>
    <rect x="277.778"  y="0" height="1.98814" width="55.5556" style="fill: #285a8d"/>
    <rect x="277.778"  y="0" height="5.41034" width="55.5556" style="fill: #791561"/>
    <rect x="333.333"  y="0" height="2.67258" width="55.5556" style="fill: #4f5a2a"/>
    <rect x="0"  y="0" height="12.6784" width="55.5556" style="fill: #c9e0d6"/>
    <rect x="333.333"  y="0" height="10.5762" width="55.5556" style="fill: #8aca62"/>
    <rect x="277.778"  y="0" height="42.4516" width="55.5556" style="fill: #48a922"/>
    <rect x="388.889"  y="0" height="1.48295" width="55.5556" style="fill: #7ab8f1"/>
    <rect x="388.889"  y="0" height="3.55257" width="55.5556" style="fill: #930ee3"/>
    <rect x="388.889"  y="0" height="6.58366" width="55.5556" style="fill: #8ac7a9"/>
    <rect x="333.333"  y="0" height="2.96591" width="55.5556" style="fill: #d239c9"/>
    <rect x="55.5556"  y="0" height="90.835" width="55.5556" style="fill: #b026a4"/>
    <rect x="0"  y="0" height="5.10071" width="55.5556" style="fill: #81e49d"/>
    <rect x="388.889"  y="0" height="25.9598" width="55.5556" style="fill: #53161f"/>
    <rect x="333.333"  y="0" height="10.234" width="55.5556" style="fill: #9a9513"/>
    <rect x="0"  y="0" height="2.73776" width="55.5556" style="fill: #fe5271"/>
    <rect x="0"  y="0" height="5.32886" width="55.5556" style="fill: #c32e9c"/>
    <rect x="111.111"  y="0" height="25.3406" width="55.5556" style="fill: #21d156"/>
</svg>
</svg>
