<svg  xmlns="http://www.w3.org/2000/svg" xmlns:xlink="http://www.w3.org/1999/xlink" x="0" y="0" width="600" height="600">
<rect x="0%" y="0%" height="100%" width="100%" style="fill: #ffffff"/>
<svg x="0" y="0">
  <text fill="dark" font-size="35" transform="translate(250, 30)">cores</text>
</svg>
<svg x="0" y="0"> 
  <text fill="dark" font-size="35" transform="translate(30, 300) rotate(270)">time</text>
</svg>
<svg x = "50" y="550">
  <text fill="blue" font-size="30" transform="translate(0, 35)">t = 11s, lb = 0.994832</text>
</svg>
<svg x="50" y="50" width="500" height="500" >
  <rect x="0%" y="0%" height="100%" width="100%" style="fill: #eeeeee"/>
    <rect x="0"  y="0" height="38.6266" width="250" style="fill: #1cbe1f"/>
    <rect x="0"  y="0" height="27.3277" width="250" style="fill: #e87546"/>
    <rect x="0"  y="0" height="26.3642" width="250" style="fill: #fcb28f"/>
    <rect x="0"  y="0" height="36.2179" width="250" style="fill: #35ee4b"/>
    <rect x="0"  y="0" height="23.6927" width="250" style="fill: #1674a0"/>
    <rect x="0"  y="0" height="16.3353" width="250" style="fill: #fbcaae"/>
    <rect x="0"  y="0" height="14.7149" width="250" style="fill: #a861da"/>
    <rect x="0"  y="0" height="12.5252" width="250" style="fill: #7c63ef"/>
    <rect x="0"  y="0" height="9.2844" width="250" style="fill: #224008"/>
    <rect x="0"  y="0" height="11.6931" width="250" style="fill: #b1e258"/>
    <rect x="0"  y="0" height="13.0945" width="250" style="fill: #354ffe"/>
    <rect x="0"  y="0" height="9.15302" width="250" style="fill: #d963a3"/>
    <rect x="0"  y="0" height="13.4887" width="250" style="fill: #e2f45d"/>
    <rect x="0"  y="0" height="7.62022" width="250" style="fill: #37f78f"/>
    <rect x="0"  y="0" height="9.06543" width="250" style="fill: #f30d66"/>
    <rect x="0"  y="0" height="16.7294" width="250" style="fill: #69ba8a"/>
    <rect x="0"  y="0" height="8.32092" width="250" style="fill: #864e9e"/>
    <rect x="0"  y="0" height="5.91224" width="250" style="fill: #1700c5"/>
    <rect x="0"  y="0" height="6.43777" width="250" style="fill: #dfdd75"/>
    <rect x="0"  y="0" height="5.56188" width="250" style="fill: #c68d4e"/>
    <rect x="0"  y="0" height="7.00709" width="250" style="fill: #3a7e40"/>
    <rect x="0"  y="0" height="5.3867" width="250" style="fill: #8c6caf"/>
    <rect x="0"  y="0" height="4.11667" width="250" style="fill: #bb7bb3"/>
    <rect x="0"  y="0" height="7.7078" width="250" style="fill: #182e59"/>
    <rect x="0"  y="0" height="5.91224" width="250" style="fill: #320bf4"/>
    <rect x="0"  y="0" height="5.51809" width="250" style="fill: #a2e102"/>
    <rect x="0"  y="0" height="4.72979" width="250" style="fill: #18e758"/>
    <rect x="0"  y="0" height="2.80284" width="250" style="fill: #703ebe"/>
    <rect x="0"  y="0" height="4.68599" width="250" style="fill: #1c63ac"/>
    <rect x="0"  y="0" height="5.12394" width="250" style="fill: #dded9d"/>
    <rect x="0"  y="0" height="4.77358" width="250" style="fill: #13ff4f"/>
    <rect x="0"  y="0" height="2.97802" width="250" style="fill: #167fdc"/>
    <rect x="0"  y="0" height="3.37216" width="250" style="fill: #74ca28"/>
    <rect x="0"  y="0" height="4.20426" width="250" style="fill: #834e7f"/>
    <rect x="0"  y="0" height="3.32837" width="250" style="fill: #a4c815"/>
    <rect x="0"  y="0" height="4.24805" width="250" style="fill: #52841d"/>
    <rect x="0"  y="0" height="5.99982" width="250" style="fill: #323b10"/>
    <rect x="0"  y="0" height="3.98529" width="250" style="fill: #785427"/>
    <rect x="0"  y="0" height="3.81011" width="250" style="fill: #cab082"/>
    <rect x="0"  y="0" height="1.88316" width="250" style="fill: #f36cb7"/>
    <rect x="0"  y="0" height="2.49628" width="250" style="fill: #119a5a"/>
    <rect x="0"  y="0" height="2.01454" width="250" style="fill: #79ca4d"/>
    <rect x="0"  y="0" height="2.89043" width="250" style="fill: #ab5ff7"/>
    <rect x="0"  y="0" height="6.56915" width="250" style="fill: #7b12c9"/>
    <rect x="0"  y="0" height="2.75904" width="250" style="fill: #4bca78"/>
    <rect x="0"  y="0" height="2.89043" width="250" style="fill: #199a3e"/>
    <rect x="0"  y="0" height="3.76631" width="250" style="fill: #4a704b"/>
    <rect x="0"  y="0" height="3.32837" width="250" style="fill: #de72e6"/>
    <rect x="0"  y="0" height="3.63493" width="250" style="fill: #952a7e"/>
    <rect x="0"  y="0" height="3.0656" width="250" style="fill: #3b9051"/>
    <rect x="0"  y="0" height="1.97075" width="250" style="fill: #86a10d"/>
    <rect x="0"  y="0" height="2.01454" width="250" style="fill: #f4774b"/>
    <rect x="0"  y="0" height="3.32837" width="250" style="fill: #219937"/>
    <rect x="0"  y="0" height="2.75904" width="250" style="fill: #0cc263"/>
    <rect x="0"  y="0" height="2.89043" width="250" style="fill: #09e993"/>
    <rect x="0"  y="0" height="1.75177" width="250" style="fill: #a19429"/>
    <rect x="0"  y="0" height="2.54007" width="250" style="fill: #12d891"/>
    <rect x="0"  y="0" height="2.10213" width="250" style="fill: #3b2d55"/>
    <rect x="0"  y="0" height="1.88316" width="250" style="fill: #451177"/>
    <rect x="0"  y="0" height="2.89043" width="250" style="fill: #47130a"/>
    <rect x="0"  y="0" height="2.27731" width="250" style="fill: #6bc0fe"/>
    <rect x="0"  y="0" height="2.01454" width="250" style="fill: #910799"/>
    <rect x="0"  y="0" height="2.23351" width="250" style="fill: #8d5baa"/>
    <rect x="0"  y="0" height="1.83936" width="250" style="fill: #0ef2f6"/>
    <rect x="0"  y="0" height="2.62766" width="250" style="fill: #94da7d"/>
    <rect x="0"  y="0" height="1.44521" width="250" style="fill: #5d81d8"/>
    <rect x="0"  y="0" height="2.49628" width="250" style="fill: #f790e2"/>
    <rect x="0"  y="0" height="1.09486" width="250" style="fill: #96fe19"/>
    <rect x="0"  y="0" height="1.5328" width="250" style="fill: #828747"/>
    <rect x="0"  y="0" height="1.18245" width="250" style="fill: #ddba82"/>
    <rect x="0"  y="0" height="1.27004" width="250" style="fill: #8d00ed"/>
    <rect x="0"  y="0" height="1.44521" width="250" style="fill: #8d41d2"/>
    <rect x="0"  y="0" height="1.88316" width="250" style="fill: #47935a"/>
    <rect x="0"  y="0" height="1.5328" width="250" style="fill: #dec550"/>
    <rect x="0"  y="0" height="0.656915" width="250" style="fill: #c3e8d6"/>
    <rect x="0"  y="0" height="0.919681" width="250" style="fill: #a53a61"/>
    <rect x="0"  y="0" height="0.569326" width="250" style="fill: #8eec0c"/>
    <rect x="0"  y="0" height="0.569326" width="250" style="fill: #f43878"/>
    <rect x="0"  y="0" height="0.656915" width="250" style="fill: #246f9c"/>
    <rect x="0"  y="0" height="0.744504" width="250" style="fill: #f6fdec"/>
    <rect x="0"  y="0" height="0.30656" width="250" style="fill: #382638"/>
    <rect x="0"  y="0" height="0.481738" width="250" style="fill: #7b6676"/>
    <rect x="0"  y="0" height="0.569326" width="250" style="fill: #26a5e2"/>
    <rect x="0"  y="0" height="0.437943" width="250" style="fill: #d16400"/>
    <rect x="0"  y="0" height="0.569326" width="250" style="fill: #0f6fd4"/>
    <rect x="0"  y="0" height="0.525532" width="250" style="fill: #b0cd7f"/>
    <rect x="0"  y="0" height="0.569326" width="250" style="fill: #5eac42"/>
    <rect x="0"  y="0" height="0.437943" width="250" style="fill: #268db7"/>
    <rect x="0"  y="0" height="0.481738" width="250" style="fill: #f985d8"/>
    <rect x="0"  y="0" height="0.262766" width="250" style="fill: #5d7bc4"/>
    <rect x="0"  y="0" height="0.350355" width="250" style="fill: #f75c5c"/>
    <rect x="0"  y="0" height="0.481738" width="250" style="fill: #baa66f"/>
    <rect x="0"  y="0" height="0.481738" width="250" style="fill: #895061"/>
    <rect x="0"  y="0" height="0.394149" width="250" style="fill: #75afa7"/>
    <rect x="0"  y="0" height="0.131383" width="250" style="fill: #704fb0"/>
    <rect x="0"  y="0" height="0.131383" width="250" style="fill: #3b787c"/>
    <rect x="0"  y="0" height="0.218972" width="250" style="fill: #427f8d"/>
    <rect x="0"  y="0" height="0.218972" width="250" style="fill: #e0631c"/>
    <rect x="0"  y="0" height="0.0875887" width="250" style="fill: #481e8c"/>
</svg>
</svg>
