<svg  xmlns="http://www.w3.org/2000/svg" xmlns:xlink="http://www.w3.org/1999/xlink" x="0" y="0" width="600" height="600">
<rect x="0%" y="0%" height="100%" width="100%" style="fill: #ffffff"/>
<svg x="0" y="0">
  <text fill="dark" font-size="35" transform="translate(250, 30)">cores</text>
</svg>
<svg x="0" y="0"> 
  <text fill="dark" font-size="35" transform="translate(30, 300) rotate(270)">time</text>
</svg>
<svg x = "50" y="550">
  <text fill="blue" font-size="30" transform="translate(0, 35)">t = 13s, lb = 0.755670</text>
</svg>
<svg x="50" y="50" width="500" height="500" >
  <rect x="0%" y="0%" height="100%" width="100%" style="fill: #eeeeee"/>
    <rect x="0"  y="0" height="3.45776" width="55.5556" style="fill: #76931f"/>
    <rect x="222.222"  y="0" height="162.069" width="55.5556" style="fill: #ac9dab"/>
    <rect x="111.111"  y="0" height="29.5211" width="55.5556" style="fill: #2b36c2"/>
    <rect x="55.5556"  y="0" height="44.133" width="55.5556" style="fill: #48b87d"/>
    <rect x="333.333"  y="0" height="52.4242" width="55.5556" style="fill: #6ae33f"/>
    <rect x="277.778"  y="0" height="99.3828" width="55.5556" style="fill: #9a62d7"/>
    <rect x="166.667"  y="0" height="4.16419" width="55.5556" style="fill: #183a5d"/>
    <rect x="388.889"  y="0" height="9.92713" width="55.5556" style="fill: #5789e4"/>
    <rect x="0"  y="0" height="8.77454" width="55.5556" style="fill: #b2d6b4"/>
    <rect x="166.667"  y="0" height="15.3926" width="55.5556" style="fill: #41e241"/>
    <rect x="388.889"  y="0" height="28.2942" width="55.5556" style="fill: #1dc709"/>
    <rect x="0"  y="0" height="14.1657" width="55.5556" style="fill: #e111c7"/>
    <rect x="166.667"  y="0" height="17.3632" width="55.5556" style="fill: #e1e7ac"/>
    <rect x="0"  y="0" height="10.2617" width="55.5556" style="fill: #b6f8ca"/>
    <rect x="111.111"  y="0" height="30.6737" width="55.5556" style="fill: #c0bb2f"/>
    <rect x="0"  y="0" height="3.16032" width="55.5556" style="fill: #c4c8bc"/>
    <rect x="166.667"  y="0" height="129.015" width="55.5556" style="fill: #2ae3ba"/>
    <rect x="388.889"  y="0" height="6.50654" width="55.5556" style="fill: #aab916"/>
    <rect x="0"  y="0" height="72.9848" width="55.5556" style="fill: #5cc458"/>
    <rect x="55.5556"  y="0" height="10.3361" width="55.5556" style="fill: #e199cb"/>
    <rect x="388.889"  y="0" height="12.5297" width="55.5556" style="fill: #89f51b"/>
    <rect x="333.333"  y="0" height="12.381" width="55.5556" style="fill: #135f70"/>
    <rect x="55.5556"  y="0" height="7.95657" width="55.5556" style="fill: #91a5ab"/>
    <rect x="388.889"  y="0" height="14.3516" width="55.5556" style="fill: #b0874d"/>
    <rect x="111.111"  y="0" height="11.0054" width="55.5556" style="fill: #f3e8cb"/>
    <rect x="55.5556"  y="0" height="11.2284" width="55.5556" style="fill: #4543a5"/>
    <rect x="333.333"  y="0" height="6.80399" width="55.5556" style="fill: #eb93b0"/>
    <rect x="111.111"  y="0" height="63.8385" width="55.5556" style="fill: #441e9c"/>
    <rect x="333.333"  y="0" height="8.17965" width="55.5556" style="fill: #a4c2b0"/>
    <rect x="388.889"  y="0" height="11.1169" width="55.5556" style="fill: #fb3d30"/>
    <rect x="55.5556"  y="0" height="15.6529" width="55.5556" style="fill: #875cbf"/>
    <rect x="333.333"  y="0" height="3.45776" width="55.5556" style="fill: #29abd5"/>
    <rect x="388.889"  y="0" height="33.3507" width="55.5556" style="fill: #b1acf3"/>
    <rect x="333.333"  y="0" height="18.3299" width="55.5556" style="fill: #8984b3"/>
    <rect x="55.5556"  y="0" height="9.51814" width="55.5556" style="fill: #5ae882"/>
    <rect x="55.5556"  y="0" height="42.5342" width="55.5556" style="fill: #809dd4"/>
    <rect x="277.778"  y="0" height="5.72576" width="55.5556" style="fill: #cfe7ab"/>
    <rect x="333.333"  y="0" height="46.7728" width="55.5556" style="fill: #c5c61b"/>
    <rect x="277.778"  y="0" height="226.539" width="55.5556" style="fill: #aa52e0"/>
    <rect x="0"  y="0" height="243.047" width="55.5556" style="fill: #53b4c3"/>
    <rect x="388.889"  y="0" height="8.58864" width="55.5556" style="fill: #643f20"/>
    <rect x="388.889"  y="0" height="3.49494" width="55.5556" style="fill: #4ef259"/>
    <rect x="388.889"  y="0" height="38.779" width="55.5556" style="fill: #d2e980"/>
    <rect x="111.111"  y="0" height="105.518" width="55.5556" style="fill: #42a948"/>
    <rect x="55.5556"  y="0" height="18.8132" width="55.5556" style="fill: #aac5e8"/>
    <rect x="333.333"  y="0" height="21.2299" width="55.5556" style="fill: #84cb3e"/>
    <rect x="55.5556"  y="0" height="98.5648" width="55.5556" style="fill: #c7db92"/>
    <rect x="222.222"  y="0" height="85.0684" width="55.5556" style="fill: #5643fd"/>
    <rect x="166.667"  y="0" height="7.13861" width="55.5556" style="fill: #34fdd4"/>
    <rect x="388.889"  y="0" height="7.39887" width="55.5556" style="fill: #67e2cc"/>
    <rect x="333.333"  y="0" height="37.5892" width="55.5556" style="fill: #a40603"/>
    <rect x="166.667"  y="0" height="6.95271" width="55.5556" style="fill: #5cb274"/>
    <rect x="388.889"  y="0" height="5.53986" width="55.5556" style="fill: #4cb90a"/>
    <rect x="388.889"  y="0" height="4.83343" width="55.5556" style="fill: #63e51c"/>
    <rect x="166.667"  y="0" height="12.5669" width="55.5556" style="fill: #973790"/>
    <rect x="388.889"  y="0" height="16.6939" width="55.5556" style="fill: #334394"/>
    <rect x="166.667"  y="0" height="98.9366" width="55.5556" style="fill: #7e0208"/>
    <rect x="388.889"  y="0" height="25.0223" width="55.5556" style="fill: #6541e4"/>
    <rect x="333.333"  y="0" height="25.0967" width="55.5556" style="fill: #c48a99"/>
    <rect x="388.889"  y="0" height="14.2029" width="55.5556" style="fill: #630aa9"/>
    <rect x="333.333"  y="0" height="8.14247" width="55.5556" style="fill: #aece15"/>
    <rect x="111.111"  y="0" height="18.0324" width="55.5556" style="fill: #3843a4"/>
    <rect x="333.333"  y="0" height="7.47323" width="55.5556" style="fill: #b19027"/>
    <rect x="388.889"  y="0" height="3.3834" width="55.5556" style="fill: #4ebc95"/>
    <rect x="388.889"  y="0" height="5.53986" width="55.5556" style="fill: #5f8592"/>
    <rect x="222.222"  y="0" height="8.55146" width="55.5556" style="fill: #e30a22"/>
    <rect x="333.333"  y="0" height="36.0648" width="55.5556" style="fill: #05a485"/>
    <rect x="388.889"  y="0" height="5.09369" width="55.5556" style="fill: #846248"/>
    <rect x="388.889"  y="0" height="91.5006" width="55.5556" style="fill: #987550"/>
    <rect x="222.222"  y="0" height="9.92713" width="55.5556" style="fill: #aaf209"/>
    <rect x="111.111"  y="0" height="4.57317" width="55.5556" style="fill: #4ec59e"/>
    <rect x="55.5556"  y="0" height="3.97829" width="55.5556" style="fill: #7931dc"/>
    <rect x="55.5556"  y="0" height="10.5592" width="55.5556" style="fill: #650c74"/>
    <rect x="111.111"  y="0" height="14.8349" width="55.5556" style="fill: #51cc61"/>
    <rect x="222.222"  y="0" height="8.2912" width="55.5556" style="fill: #c0cb2c"/>
    <rect x="55.5556"  y="0" height="6.395" width="55.5556" style="fill: #46a1b3"/>
    <rect x="222.222"  y="0" height="13.9426" width="55.5556" style="fill: #f2c349"/>
    <rect x="111.111"  y="0" height="24.4274" width="55.5556" style="fill: #faff76"/>
    <rect x="55.5556"  y="0" height="3.68084" width="55.5556" style="fill: #3c7f8d"/>
    <rect x="55.5556"  y="0" height="11.8977" width="55.5556" style="fill: #14ddff"/>
    <rect x="333.333"  y="0" height="5.09369" width="55.5556" style="fill: #946351"/>
    <rect x="222.222"  y="0" height="7.13861" width="55.5556" style="fill: #744378"/>
    <rect x="333.333"  y="0" height="3.49494" width="55.5556" style="fill: #d62c59"/>
    <rect x="166.667"  y="0" height="18.3299" width="55.5556" style="fill: #285a8d"/>
    <rect x="333.333"  y="0" height="12.8644" width="55.5556" style="fill: #791561"/>
    <rect x="222.222"  y="0" height="10.1502" width="55.5556" style="fill: #4f5a2a"/>
    <rect x="55.5556"  y="0" height="37.738" width="55.5556" style="fill: #c9e0d6"/>
    <rect x="111.111"  y="0" height="111.95" width="55.5556" style="fill: #8aca62"/>
    <rect x="222.222"  y="0" height="23.9441" width="55.5556" style="fill: #48a922"/>
    <rect x="333.333"  y="0" height="11.749" width="55.5556" style="fill: #7ab8f1"/>
    <rect x="166.667"  y="0" height="12.381" width="55.5556" style="fill: #930ee3"/>
    <rect x="333.333"  y="0" height="11.2656" width="55.5556" style="fill: #8ac7a9"/>
    <rect x="166.667"  y="0" height="177.461" width="55.5556" style="fill: #d239c9"/>
    <rect x="333.333"  y="0" height="11.8977" width="55.5556" style="fill: #b026a4"/>
    <rect x="222.222"  y="0" height="3.94111" width="55.5556" style="fill: #81e49d"/>
    <rect x="277.778"  y="0" height="12.9015" width="55.5556" style="fill: #53161f"/>
    <rect x="222.222"  y="0" height="9.88995" width="55.5556" style="fill: #9a9513"/>
    <rect x="55.5556"  y="0" height="13.0503" width="55.5556" style="fill: #fe5271"/>
    <rect x="333.333"  y="0" height="14.649" width="55.5556" style="fill: #c32e9c"/>
    <rect x="222.222"  y="0" height="18.144" width="55.5556" style="fill: #21d156"/>
</svg>
</svg>
