<svg  xmlns="http://www.w3.org/2000/svg" xmlns:xlink="http://www.w3.org/1999/xlink" x="0" y="0" width="600" height="600">
<rect x="0%" y="0%" height="100%" width="100%" style="fill: #ffffff"/>
<svg x="0" y="0">
  <text fill="dark" font-size="35" transform="translate(250, 30)">cores</text>
</svg>
<svg x="0" y="0"> 
  <text fill="dark" font-size="35" transform="translate(30, 300) rotate(270)">time</text>
</svg>
<svg x = "50" y="550">
  <text fill="blue" font-size="30" transform="translate(0, 35)">t = 69s, lb = 0.369117</text>
</svg>
<svg x="50" y="50" width="500" height="500" >
  <rect x="0%" y="0%" height="100%" width="100%" style="fill: #eeeeee"/>
    <rect x="0"  y="0" height="19.1598" width="55.5556" style="fill: #76931f"/>
    <rect x="222.222"  y="0" height="6.34605" width="55.5556" style="fill: #ac9dab"/>
    <rect x="111.111"  y="0" height="1.16618" width="55.5556" style="fill: #2b36c2"/>
    <rect x="55.5556"  y="0" height="5.45174" width="55.5556" style="fill: #48b87d"/>
    <rect x="333.333"  y="0" height="65.2777" width="55.5556" style="fill: #6ae33f"/>
    <rect x="277.778"  y="0" height="5.41596" width="55.5556" style="fill: #9a62d7"/>
    <rect x="166.667"  y="0" height="0.786996" width="55.5556" style="fill: #183a5d"/>
    <rect x="388.889"  y="0" height="0.715451" width="55.5556" style="fill: #5789e4"/>
    <rect x="388.889"  y="0" height="7.23321" width="55.5556" style="fill: #b2d6b4"/>
    <rect x="166.667"  y="0" height="0.894314" width="55.5556" style="fill: #41e241"/>
    <rect x="111.111"  y="0" height="2.50408" width="55.5556" style="fill: #1dc709"/>
    <rect x="166.667"  y="0" height="1.20911" width="55.5556" style="fill: #e111c7"/>
    <rect x="166.667"  y="0" height="2.44684" width="55.5556" style="fill: #e1e7ac"/>
    <rect x="111.111"  y="0" height="11.6261" width="55.5556" style="fill: #b6f8ca"/>
    <rect x="166.667"  y="0" height="0.572361" width="55.5556" style="fill: #c0bb2f"/>
    <rect x="277.778"  y="0" height="2.2179" width="55.5556" style="fill: #c4c8bc"/>
    <rect x="55.5556"  y="0" height="5.7093" width="55.5556" style="fill: #2ae3ba"/>
    <rect x="166.667"  y="0" height="2.64001" width="55.5556" style="fill: #aab916"/>
    <rect x="222.222"  y="0" height="1.12326" width="55.5556" style="fill: #5cc458"/>
    <rect x="222.222"  y="0" height="23.3881" width="55.5556" style="fill: #e199cb"/>
    <rect x="277.778"  y="0" height="1.08033" width="55.5556" style="fill: #89f51b"/>
    <rect x="388.889"  y="0" height="1.88164" width="55.5556" style="fill: #135f70"/>
    <rect x="166.667"  y="0" height="0.980168" width="55.5556" style="fill: #91a5ab"/>
    <rect x="277.778"  y="0" height="0.930086" width="55.5556" style="fill: #b0874d"/>
    <rect x="166.667"  y="0" height="223.278" width="55.5556" style="fill: #f3e8cb"/>
    <rect x="277.778"  y="0" height="0.565206" width="55.5556" style="fill: #4543a5"/>
    <rect x="388.889"  y="0" height="3.62734" width="55.5556" style="fill: #eb93b0"/>
    <rect x="277.778"  y="0" height="2.89758" width="55.5556" style="fill: #441e9c"/>
    <rect x="55.5556"  y="0" height="10.7532" width="55.5556" style="fill: #a4c2b0"/>
    <rect x="277.778"  y="0" height="1.5096" width="55.5556" style="fill: #fb3d30"/>
    <rect x="388.889"  y="0" height="4.13531" width="55.5556" style="fill: #875cbf"/>
    <rect x="277.778"  y="0" height="2.50408" width="55.5556" style="fill: #29abd5"/>
    <rect x="111.111"  y="0" height="1.10179" width="55.5556" style="fill: #b1acf3"/>
    <rect x="111.111"  y="0" height="4.3714" width="55.5556" style="fill: #8984b3"/>
    <rect x="277.778"  y="0" height="3.12652" width="55.5556" style="fill: #5ae882"/>
    <rect x="388.889"  y="0" height="0.65106" width="55.5556" style="fill: #809dd4"/>
    <rect x="388.889"  y="0" height="0.922932" width="55.5556" style="fill: #cfe7ab"/>
    <rect x="0"  y="0" height="2.17497" width="55.5556" style="fill: #c5c61b"/>
    <rect x="388.889"  y="0" height="0.572361" width="55.5556" style="fill: #aa52e0"/>
    <rect x="388.889"  y="0" height="99.8769" width="55.5556" style="fill: #53b4c3"/>
    <rect x="277.778"  y="0" height="0.837078" width="55.5556" style="fill: #643f20"/>
    <rect x="111.111"  y="0" height="0.944395" width="55.5556" style="fill: #4ef259"/>
    <rect x="277.778"  y="0" height="2.71871" width="55.5556" style="fill: #d2e980"/>
    <rect x="0"  y="0" height="0.693987" width="55.5556" style="fill: #42a948"/>
    <rect x="111.111"  y="0" height="12.9997" width="55.5556" style="fill: #aac5e8"/>
    <rect x="55.5556"  y="0" height="0.643906" width="55.5556" style="fill: #84cb3e"/>
    <rect x="0"  y="0" height="0.643906" width="55.5556" style="fill: #c7db92"/>
    <rect x="55.5556"  y="0" height="6.79678" width="55.5556" style="fill: #5643fd"/>
    <rect x="0"  y="0" height="3.14083" width="55.5556" style="fill: #34fdd4"/>
    <rect x="277.778"  y="0" height="1.01594" width="55.5556" style="fill: #67e2cc"/>
    <rect x="277.778"  y="0" height="2.64001" width="55.5556" style="fill: #a40603"/>
    <rect x="0"  y="0" height="0.844232" width="55.5556" style="fill: #5cb274"/>
    <rect x="0"  y="0" height="27.7881" width="55.5556" style="fill: #4cb90a"/>
    <rect x="277.778"  y="0" height="2.03903" width="55.5556" style="fill: #63e51c"/>
    <rect x="55.5556"  y="0" height="1.3522" width="55.5556" style="fill: #973790"/>
    <rect x="277.778"  y="0" height="2.66863" width="55.5556" style="fill: #334394"/>
    <rect x="55.5556"  y="0" height="17.6216" width="55.5556" style="fill: #7e0208"/>
    <rect x="222.222"  y="0" height="36.0086" width="55.5556" style="fill: #6541e4"/>
    <rect x="277.778"  y="0" height="0.758378" width="55.5556" style="fill: #c48a99"/>
    <rect x="277.778"  y="0" height="1.38082" width="55.5556" style="fill: #630aa9"/>
    <rect x="277.778"  y="0" height="465.601" width="55.5556" style="fill: #aece15"/>
    <rect x="111.111"  y="0" height="17.8505" width="55.5556" style="fill: #3843a4"/>
    <rect x="55.5556"  y="0" height="1.44521" width="55.5556" style="fill: #b19027"/>
    <rect x="55.5556"  y="0" height="3.0979" width="55.5556" style="fill: #4ebc95"/>
    <rect x="111.111"  y="0" height="0.937241" width="55.5556" style="fill: #5f8592"/>
    <rect x="55.5556"  y="0" height="0.858541" width="55.5556" style="fill: #e30a22"/>
    <rect x="111.111"  y="0" height="1.18765" width="55.5556" style="fill: #05a485"/>
    <rect x="55.5556"  y="0" height="2.66863" width="55.5556" style="fill: #846248"/>
    <rect x="0"  y="0" height="80.6456" width="55.5556" style="fill: #987550"/>
    <rect x="111.111"  y="0" height="1.86733" width="55.5556" style="fill: #aaf209"/>
    <rect x="55.5556"  y="0" height="2.64001" width="55.5556" style="fill: #4ec59e"/>
    <rect x="111.111"  y="0" height="16.2479" width="55.5556" style="fill: #7931dc"/>
    <rect x="55.5556"  y="0" height="14.8241" width="55.5556" style="fill: #650c74"/>
    <rect x="333.333"  y="0" height="10.1809" width="55.5556" style="fill: #51cc61"/>
    <rect x="222.222"  y="0" height="0.565206" width="55.5556" style="fill: #c0cb2c"/>
    <rect x="222.222"  y="0" height="7.46931" width="55.5556" style="fill: #46a1b3"/>
    <rect x="111.111"  y="0" height="0.715451" width="55.5556" style="fill: #f2c349"/>
    <rect x="111.111"  y="0" height="0.779841" width="55.5556" style="fill: #faff76"/>
    <rect x="55.5556"  y="0" height="8.37078" width="55.5556" style="fill: #3c7f8d"/>
    <rect x="111.111"  y="0" height="0.572361" width="55.5556" style="fill: #14ddff"/>
    <rect x="222.222"  y="0" height="3.65595" width="55.5556" style="fill: #946351"/>
    <rect x="111.111"  y="0" height="0.686833" width="55.5556" style="fill: #744378"/>
    <rect x="333.333"  y="0" height="85.2817" width="55.5556" style="fill: #d62c59"/>
    <rect x="111.111"  y="0" height="7.56947" width="55.5556" style="fill: #285a8d"/>
    <rect x="222.222"  y="0" height="1.10895" width="55.5556" style="fill: #791561"/>
    <rect x="222.222"  y="0" height="3.334" width="55.5556" style="fill: #4f5a2a"/>
    <rect x="55.5556"  y="0" height="2.10343" width="55.5556" style="fill: #c9e0d6"/>
    <rect x="222.222"  y="0" height="0.880005" width="55.5556" style="fill: #8aca62"/>
    <rect x="111.111"  y="0" height="2.72587" width="55.5556" style="fill: #48a922"/>
    <rect x="222.222"  y="0" height="0.579515" width="55.5556" style="fill: #7ab8f1"/>
    <rect x="55.5556"  y="0" height="1.05887" width="55.5556" style="fill: #930ee3"/>
    <rect x="222.222"  y="0" height="1.4309" width="55.5556" style="fill: #8ac7a9"/>
    <rect x="55.5556"  y="0" height="4.4358" width="55.5556" style="fill: #d239c9"/>
    <rect x="111.111"  y="0" height="7.02573" width="55.5556" style="fill: #b026a4"/>
    <rect x="222.222"  y="0" height="50.2461" width="55.5556" style="fill: #81e49d"/>
    <rect x="55.5556"  y="0" height="2.38245" width="55.5556" style="fill: #53161f"/>
    <rect x="55.5556"  y="0" height="0.865696" width="55.5556" style="fill: #9a9513"/>
    <rect x="111.111"  y="0" height="2.33237" width="55.5556" style="fill: #fe5271"/>
    <rect x="55.5556"  y="0" height="2.56847" width="55.5556" style="fill: #c32e9c"/>
    <rect x="111.111"  y="0" height="1.30928" width="55.5556" style="fill: #21d156"/>
</svg>
</svg>
