<svg  xmlns="http://www.w3.org/2000/svg" xmlns:xlink="http://www.w3.org/1999/xlink" x="0" y="0" width="600" height="600">
<rect x="0%" y="0%" height="100%" width="100%" style="fill: #ffffff"/>
<svg x="0" y="0">
  <text fill="dark" font-size="35" transform="translate(250, 30)">cores</text>
</svg>
<svg x="0" y="0"> 
  <text fill="dark" font-size="35" transform="translate(30, 300) rotate(270)">time</text>
</svg>
<svg x = "50" y="550">
  <text fill="blue" font-size="30" transform="translate(0, 35)">t = 24s, lb = 0.997378</text>
</svg>
<svg x="50" y="50" width="500" height="500" >
  <rect x="0%" y="0%" height="100%" width="100%" style="fill: #eeeeee"/>
    <rect x="0"  y="0" height="4.41097" width="250" style="fill: #76931f"/>
    <rect x="0"  y="0" height="7.34468" width="250" style="fill: #ac9dab"/>
    <rect x="0"  y="0" height="4.66065" width="250" style="fill: #2b36c2"/>
    <rect x="0"  y="0" height="4.8271" width="250" style="fill: #48b87d"/>
    <rect x="0"  y="0" height="5.26403" width="250" style="fill: #6ae33f"/>
    <rect x="0"  y="0" height="4.32774" width="250" style="fill: #9a62d7"/>
    <rect x="0"  y="0" height="4.8479" width="250" style="fill: #183a5d"/>
    <rect x="0"  y="0" height="4.59823" width="250" style="fill: #5789e4"/>
    <rect x="0"  y="0" height="4.76468" width="250" style="fill: #b2d6b4"/>
    <rect x="0"  y="0" height="4.74387" width="250" style="fill: #41e241"/>
    <rect x="0"  y="0" height="4.22371" width="250" style="fill: #1dc709"/>
    <rect x="0"  y="0" height="5.805" width="250" style="fill: #e111c7"/>
    <rect x="0"  y="0" height="4.72307" width="250" style="fill: #e1e7ac"/>
    <rect x="0"  y="0" height="5.45129" width="250" style="fill: #b6f8ca"/>
    <rect x="0"  y="0" height="5.4721" width="250" style="fill: #c0bb2f"/>
    <rect x="0"  y="0" height="5.20161" width="250" style="fill: #c4c8bc"/>
    <rect x="0"  y="0" height="4.14049" width="250" style="fill: #2ae3ba"/>
    <rect x="0"  y="0" height="4.24452" width="250" style="fill: #aab916"/>
    <rect x="0"  y="0" height="7.49032" width="250" style="fill: #5cc458"/>
    <rect x="0"  y="0" height="2.80887" width="250" style="fill: #e199cb"/>
    <rect x="0"  y="0" height="3.20419" width="250" style="fill: #89f51b"/>
    <rect x="0"  y="0" height="3.76597" width="250" style="fill: #135f70"/>
    <rect x="0"  y="0" height="7.36549" width="250" style="fill: #91a5ab"/>
    <rect x="0"  y="0" height="5.28484" width="250" style="fill: #b0874d"/>
    <rect x="0"  y="0" height="4.61903" width="250" style="fill: #f3e8cb"/>
    <rect x="0"  y="0" height="5.76339" width="250" style="fill: #4543a5"/>
    <rect x="0"  y="0" height="7.32387" width="250" style="fill: #eb93b0"/>
    <rect x="0"  y="0" height="3.49548" width="250" style="fill: #441e9c"/>
    <rect x="0"  y="0" height="3.87" width="250" style="fill: #a4c2b0"/>
    <rect x="0"  y="0" height="3.91161" width="250" style="fill: #fb3d30"/>
    <rect x="0"  y="0" height="3.78678" width="250" style="fill: #875cbf"/>
    <rect x="0"  y="0" height="4.09887" width="250" style="fill: #29abd5"/>
    <rect x="0"  y="0" height="4.515" width="250" style="fill: #b1acf3"/>
    <rect x="0"  y="0" height="4.11968" width="250" style="fill: #8984b3"/>
    <rect x="0"  y="0" height="3.87" width="250" style="fill: #5ae882"/>
    <rect x="0"  y="0" height="4.66065" width="250" style="fill: #809dd4"/>
    <rect x="0"  y="0" height="4.28613" width="250" style="fill: #cfe7ab"/>
    <rect x="0"  y="0" height="9.19645" width="250" style="fill: #c5c61b"/>
    <rect x="0"  y="0" height="4.49419" width="250" style="fill: #aa52e0"/>
    <rect x="0"  y="0" height="6.51242" width="250" style="fill: #53b4c3"/>
    <rect x="0"  y="0" height="7.13662" width="250" style="fill: #643f20"/>
    <rect x="0"  y="0" height="5.40968" width="250" style="fill: #4ef259"/>
    <rect x="0"  y="0" height="4.55661" width="250" style="fill: #d2e980"/>
    <rect x="0"  y="0" height="4.45258" width="250" style="fill: #42a948"/>
    <rect x="0"  y="0" height="6.51242" width="250" style="fill: #aac5e8"/>
    <rect x="0"  y="0" height="5.70097" width="250" style="fill: #84cb3e"/>
    <rect x="0"  y="0" height="4.07807" width="250" style="fill: #c7db92"/>
    <rect x="0"  y="0" height="2.53839" width="250" style="fill: #5643fd"/>
    <rect x="0"  y="0" height="5.24323" width="250" style="fill: #34fdd4"/>
    <rect x="0"  y="0" height="5.30565" width="250" style="fill: #67e2cc"/>
    <rect x="0"  y="0" height="8.13533" width="250" style="fill: #a40603"/>
    <rect x="0"  y="0" height="4.11968" width="250" style="fill: #5cb274"/>
    <rect x="0"  y="0" height="4.88952" width="250" style="fill: #4cb90a"/>
    <rect x="0"  y="0" height="2.9129" width="250" style="fill: #63e51c"/>
    <rect x="0"  y="0" height="7.51113" width="250" style="fill: #973790"/>
    <rect x="0"  y="0" height="7.24065" width="250" style="fill: #334394"/>
    <rect x="0"  y="0" height="4.53581" width="250" style="fill: #7e0208"/>
    <rect x="0"  y="0" height="4.05726" width="250" style="fill: #6541e4"/>
    <rect x="0"  y="0" height="4.45258" width="250" style="fill: #c48a99"/>
    <rect x="0"  y="0" height="3.47468" width="250" style="fill: #630aa9"/>
    <rect x="0"  y="0" height="4.47339" width="250" style="fill: #aece15"/>
    <rect x="0"  y="0" height="2.30952" width="250" style="fill: #3843a4"/>
    <rect x="0"  y="0" height="4.59823" width="250" style="fill: #b19027"/>
    <rect x="0"  y="0" height="2.55919" width="250" style="fill: #4ebc95"/>
    <rect x="0"  y="0" height="2.49677" width="250" style="fill: #5f8592"/>
    <rect x="0"  y="0" height="5.45129" width="250" style="fill: #e30a22"/>
    <rect x="0"  y="0" height="4.59823" width="250" style="fill: #05a485"/>
    <rect x="0"  y="0" height="4.03645" width="250" style="fill: #846248"/>
    <rect x="0"  y="0" height="7.84403" width="250" style="fill: #987550"/>
    <rect x="0"  y="0" height="4.39016" width="250" style="fill: #aaf209"/>
    <rect x="0"  y="0" height="6.15871" width="250" style="fill: #4ec59e"/>
    <rect x="0"  y="0" height="5.82581" width="250" style="fill: #7931dc"/>
    <rect x="0"  y="0" height="2.68403" width="250" style="fill: #650c74"/>
    <rect x="0"  y="0" height="6.03387" width="250" style="fill: #51cc61"/>
    <rect x="0"  y="0" height="5.99226" width="250" style="fill: #c0cb2c"/>
    <rect x="0"  y="0" height="5.55532" width="250" style="fill: #46a1b3"/>
    <rect x="0"  y="0" height="4.24452" width="250" style="fill: #f2c349"/>
    <rect x="0"  y="0" height="6.22113" width="250" style="fill: #faff76"/>
    <rect x="0"  y="0" height="5.4929" width="250" style="fill: #3c7f8d"/>
    <rect x="0"  y="0" height="5.26403" width="250" style="fill: #14ddff"/>
    <rect x="0"  y="0" height="2.64242" width="250" style="fill: #946351"/>
    <rect x="0"  y="0" height="4.2029" width="250" style="fill: #744378"/>
    <rect x="0"  y="0" height="6.61645" width="250" style="fill: #d62c59"/>
    <rect x="0"  y="0" height="7.82323" width="250" style="fill: #285a8d"/>
    <rect x="0"  y="0" height="4.01565" width="250" style="fill: #791561"/>
    <rect x="0"  y="0" height="4.86871" width="250" style="fill: #4f5a2a"/>
    <rect x="0"  y="0" height="4.66065" width="250" style="fill: #c9e0d6"/>
    <rect x="0"  y="0" height="5.45129" width="250" style="fill: #8aca62"/>
    <rect x="0"  y="0" height="8.75952" width="250" style="fill: #48a922"/>
    <rect x="0"  y="0" height="5.51371" width="250" style="fill: #7ab8f1"/>
    <rect x="0"  y="0" height="2.78807" width="250" style="fill: #930ee3"/>
    <rect x="0"  y="0" height="3.72436" width="250" style="fill: #8ac7a9"/>
    <rect x="0"  y="0" height="6.13791" width="250" style="fill: #d239c9"/>
    <rect x="0"  y="0" height="4.80629" width="250" style="fill: #b026a4"/>
    <rect x="0"  y="0" height="2.76726" width="250" style="fill: #81e49d"/>
    <rect x="0"  y="0" height="6.34597" width="250" style="fill: #53161f"/>
    <rect x="0"  y="0" height="3.99484" width="250" style="fill: #9a9513"/>
    <rect x="0"  y="0" height="5.22242" width="250" style="fill: #fe5271"/>
    <rect x="0"  y="0" height="6.94936" width="250" style="fill: #c32e9c"/>
    <rect x="0"  y="0" height="5.40968" width="250" style="fill: #21d156"/>
</svg>
</svg>
