<svg  xmlns="http://www.w3.org/2000/svg" xmlns:xlink="http://www.w3.org/1999/xlink" x="0" y="0" width="600" height="600">
<rect x="0%" y="0%" height="100%" width="100%" style="fill: #ffffff"/>
<svg x="0" y="0">
  <text fill="dark" font-size="35" transform="translate(250, 30)">cores</text>
</svg>
<svg x="0" y="0"> 
  <text fill="dark" font-size="35" transform="translate(30, 300) rotate(270)">time</text>
</svg>
<svg x = "50" y="550">
  <text fill="blue" font-size="30" transform="translate(0, 35)">t = 21s, lb = 0.997079</text>
</svg>
<svg x="50" y="50" width="500" height="500" >
  <rect x="0%" y="0%" height="100%" width="100%" style="fill: #eeeeee"/>
    <rect x="0"  y="0" height="177.525" width="250" style="fill: #ef1e59"/>
    <rect x="0"  y="0" height="44.3522" width="250" style="fill: #635eb6"/>
    <rect x="0"  y="0" height="22.8832" width="250" style="fill: #cbd2c7"/>
    <rect x="0"  y="0" height="53.8811" width="250" style="fill: #3b0006"/>
    <rect x="0"  y="0" height="11.4996" width="250" style="fill: #8c8ffe"/>
    <rect x="0"  y="0" height="7.34953" width="250" style="fill: #dedec2"/>
    <rect x="0"  y="0" height="7.11769" width="250" style="fill: #826d11"/>
    <rect x="0"  y="0" height="31.2065" width="250" style="fill: #4dc1f8"/>
    <rect x="0"  y="0" height="10.6418" width="250" style="fill: #824924"/>
    <rect x="0"  y="0" height="4.12687" width="250" style="fill: #fa0790"/>
    <rect x="0"  y="0" height="2.96763" width="250" style="fill: #56e25a"/>
    <rect x="0"  y="0" height="8.97246" width="250" style="fill: #5ddbae"/>
    <rect x="0"  y="0" height="12.1256" width="250" style="fill: #ceb90a"/>
    <rect x="0"  y="0" height="8.99564" width="250" style="fill: #18c51f"/>
    <rect x="0"  y="0" height="2.68942" width="250" style="fill: #919a83"/>
    <rect x="0"  y="0" height="2.78216" width="250" style="fill: #ae980e"/>
    <rect x="0"  y="0" height="3.68636" width="250" style="fill: #25bf06"/>
    <rect x="0"  y="0" height="5.91208" width="250" style="fill: #dd4864"/>
    <rect x="0"  y="0" height="1.46063" width="250" style="fill: #27dfde"/>
    <rect x="0"  y="0" height="3.73273" width="250" style="fill: #e6f708"/>
    <rect x="0"  y="0" height="3.08356" width="250" style="fill: #aa6426"/>
    <rect x="0"  y="0" height="2.89808" width="250" style="fill: #25ce4c"/>
    <rect x="0"  y="0" height="3.84865" width="250" style="fill: #4298af"/>
    <rect x="0"  y="0" height="3.63999" width="250" style="fill: #dd7ac4"/>
    <rect x="0"  y="0" height="1.62292" width="250" style="fill: #8aa81b"/>
    <rect x="0"  y="0" height="2.59668" width="250" style="fill: #0c5608"/>
    <rect x="0"  y="0" height="1.507" width="250" style="fill: #c2d801"/>
    <rect x="0"  y="0" height="0.788278" width="250" style="fill: #543ede"/>
    <rect x="0"  y="0" height="1.71566" width="250" style="fill: #eab547"/>
    <rect x="0"  y="0" height="1.25197" width="250" style="fill: #9c1342"/>
    <rect x="0"  y="0" height="0.95057" width="250" style="fill: #e4e4ae"/>
    <rect x="0"  y="0" height="1.25197" width="250" style="fill: #c719f1"/>
    <rect x="0"  y="0" height="1.87796" width="250" style="fill: #a46e33"/>
    <rect x="0"  y="0" height="2.17936" width="250" style="fill: #c1d761"/>
    <rect x="0"  y="0" height="1.11286" width="250" style="fill: #efdf22"/>
    <rect x="0"  y="0" height="0.99694" width="250" style="fill: #116051"/>
    <rect x="0"  y="0" height="1.48382" width="250" style="fill: #e18fa7"/>
    <rect x="0"  y="0" height="1.27516" width="250" style="fill: #14c72f"/>
    <rect x="0"  y="0" height="2.13299" width="250" style="fill: #ae0756"/>
    <rect x="0"  y="0" height="1.02012" width="250" style="fill: #835527"/>
    <rect x="0"  y="0" height="1.04331" width="250" style="fill: #748e4d"/>
    <rect x="0"  y="0" height="0.625985" width="250" style="fill: #f2e728"/>
    <rect x="0"  y="0" height="1.02012" width="250" style="fill: #e3daaf"/>
    <rect x="0"  y="0" height="0.556431" width="250" style="fill: #94e9b3"/>
    <rect x="0"  y="0" height="1.11286" width="250" style="fill: #f37489"/>
    <rect x="0"  y="0" height="0.904201" width="250" style="fill: #c0d4e1"/>
    <rect x="0"  y="0" height="0.741909" width="250" style="fill: #2d4046"/>
    <rect x="0"  y="0" height="1.53019" width="250" style="fill: #9296d3"/>
    <rect x="0"  y="0" height="1.06649" width="250" style="fill: #567302"/>
    <rect x="0"  y="0" height="0.765093" width="250" style="fill: #7f5e4d"/>
    <rect x="0"  y="0" height="0.510062" width="250" style="fill: #70d54b"/>
    <rect x="0"  y="0" height="5.05425" width="250" style="fill: #668a7c"/>
    <rect x="0"  y="0" height="0.579616" width="250" style="fill: #00f96c"/>
    <rect x="0"  y="0" height="0.672355" width="250" style="fill: #cb23f2"/>
    <rect x="0"  y="0" height="0.834647" width="250" style="fill: #562a46"/>
    <rect x="0"  y="0" height="0.834647" width="250" style="fill: #8b650a"/>
    <rect x="0"  y="0" height="0.695539" width="250" style="fill: #171918"/>
    <rect x="0"  y="0" height="1.36789" width="250" style="fill: #6285be"/>
    <rect x="0"  y="0" height="1.32152" width="250" style="fill: #1893b8"/>
    <rect x="0"  y="0" height="0.533247" width="250" style="fill: #61e8b2"/>
    <rect x="0"  y="0" height="1.59974" width="250" style="fill: #e3e49e"/>
    <rect x="0"  y="0" height="1.71566" width="250" style="fill: #ea5f37"/>
    <rect x="0"  y="0" height="0.579616" width="250" style="fill: #799fe4"/>
    <rect x="0"  y="0" height="0.394139" width="250" style="fill: #dfc738"/>
    <rect x="0"  y="0" height="0.533247" width="250" style="fill: #f99e14"/>
    <rect x="0"  y="0" height="1.06649" width="250" style="fill: #0f8e31"/>
    <rect x="0"  y="0" height="0.973755" width="250" style="fill: #d1b21e"/>
    <rect x="0"  y="0" height="0.440508" width="250" style="fill: #988286"/>
    <rect x="0"  y="0" height="0.486877" width="250" style="fill: #7563c9"/>
    <rect x="0"  y="0" height="1.02012" width="250" style="fill: #bc24a3"/>
    <rect x="0"  y="0" height="0.417324" width="250" style="fill: #9a2195"/>
    <rect x="0"  y="0" height="0.417324" width="250" style="fill: #266d87"/>
    <rect x="0"  y="0" height="0.324585" width="250" style="fill: #b20348"/>
    <rect x="0"  y="0" height="0.394139" width="250" style="fill: #abd0fa"/>
    <rect x="0"  y="0" height="0.718724" width="250" style="fill: #9a6bf0"/>
    <rect x="0"  y="0" height="0.34777" width="250" style="fill: #e8a093"/>
    <rect x="0"  y="0" height="0.324585" width="250" style="fill: #5b9b82"/>
    <rect x="0"  y="0" height="0.486877" width="250" style="fill: #334378"/>
    <rect x="0"  y="0" height="0.324585" width="250" style="fill: #b14813"/>
    <rect x="0"  y="0" height="0.324585" width="250" style="fill: #2ad85c"/>
    <rect x="0"  y="0" height="0.231846" width="250" style="fill: #83433d"/>
    <rect x="0"  y="0" height="0.255031" width="250" style="fill: #688030"/>
    <rect x="0"  y="0" height="0.3014" width="250" style="fill: #26469b"/>
    <rect x="0"  y="0" height="0.231846" width="250" style="fill: #e4c2dd"/>
    <rect x="0"  y="0" height="0.231846" width="250" style="fill: #5f738c"/>
    <rect x="0"  y="0" height="0.162292" width="250" style="fill: #f0f432"/>
    <rect x="0"  y="0" height="0.162292" width="250" style="fill: #1aaaad"/>
    <rect x="0"  y="0" height="0.0927386" width="250" style="fill: #ac4e2d"/>
    <rect x="0"  y="0" height="0.139108" width="250" style="fill: #90253f"/>
    <rect x="0"  y="0" height="0.139108" width="250" style="fill: #28e9b6"/>
    <rect x="0"  y="0" height="0.0927386" width="250" style="fill: #5b74fa"/>
    <rect x="0"  y="0" height="0.0695539" width="250" style="fill: #6040ae"/>
    <rect x="0"  y="0" height="0.139108" width="250" style="fill: #e5a23c"/>
    <rect x="0"  y="0" height="0.139108" width="250" style="fill: #fdd120"/>
    <rect x="0"  y="0" height="0.115923" width="250" style="fill: #058fe4"/>
    <rect x="0"  y="0" height="0.0463693" width="250" style="fill: #54fc8e"/>
    <rect x="0"  y="0" height="0.0927386" width="250" style="fill: #7febf9"/>
    <rect x="0"  y="0" height="0.0463693" width="250" style="fill: #ade4f1"/>
    <rect x="0"  y="0" height="0.0463693" width="250" style="fill: #1fee01"/>
</svg>
</svg>
