<svg  xmlns="http://www.w3.org/2000/svg" xmlns:xlink="http://www.w3.org/1999/xlink" x="0" y="0" width="600" height="600">
<rect x="0%" y="0%" height="100%" width="100%" style="fill: #ffffff"/>
<svg x="0" y="0">
  <text fill="dark" font-size="35" transform="translate(250, 30)">cores</text>
</svg>
<svg x="0" y="0"> 
  <text fill="dark" font-size="35" transform="translate(30, 300) rotate(270)">time</text>
</svg>
<svg x = "50" y="550">
  <text fill="blue" font-size="30" transform="translate(0, 35)">t = 2s, lb = 0.538711</text>
</svg>
<svg x="50" y="50" width="500" height="500" >
  <rect x="0%" y="0%" height="100%" width="100%" style="fill: #eeeeee"/>
    <rect x="0"  y="0" height="4.84429" width="55.5556" style="fill: #76931f"/>
    <rect x="222.222"  y="0" height="1.03806" width="55.5556" style="fill: #ac9dab"/>
    <rect x="111.111"  y="0" height="18.1661" width="55.5556" style="fill: #2b36c2"/>
    <rect x="55.5556"  y="0" height="1.38408" width="55.5556" style="fill: #48b87d"/>
    <rect x="333.333"  y="0" height="6.05536" width="55.5556" style="fill: #6ae33f"/>
    <rect x="277.778"  y="0" height="0.346021" width="55.5556" style="fill: #9a62d7"/>
    <rect x="166.667"  y="0" height="5.70934" width="55.5556" style="fill: #183a5d"/>
    <rect x="388.889"  y="0" height="115.052" width="55.5556" style="fill: #5789e4"/>
    <rect x="277.778"  y="0" height="1.7301" width="55.5556" style="fill: #b2d6b4"/>
    <rect x="222.222"  y="0" height="221.107" width="55.5556" style="fill: #41e241"/>
    <rect x="55.5556"  y="0" height="9.68858" width="55.5556" style="fill: #1dc709"/>
    <rect x="277.778"  y="0" height="4.84429" width="55.5556" style="fill: #e111c7"/>
    <rect x="0"  y="0" height="17.8201" width="55.5556" style="fill: #e1e7ac"/>
    <rect x="166.667"  y="0" height="7.09343" width="55.5556" style="fill: #b6f8ca"/>
    <rect x="333.333"  y="0" height="14.5329" width="55.5556" style="fill: #c0bb2f"/>
    <rect x="277.778"  y="0" height="0.692042" width="55.5556" style="fill: #c4c8bc"/>
    <rect x="277.778"  y="0" height="15.2249" width="55.5556" style="fill: #2ae3ba"/>
    <rect x="55.5556"  y="0" height="8.99654" width="55.5556" style="fill: #aab916"/>
    <rect x="166.667"  y="0" height="1.38408" width="55.5556" style="fill: #5cc458"/>
    <rect x="166.667"  y="0" height="3.97924" width="55.5556" style="fill: #e199cb"/>
    <rect x="111.111"  y="0" height="31.4879" width="55.5556" style="fill: #89f51b"/>
    <rect x="166.667"  y="0" height="1.90311" width="55.5556" style="fill: #135f70"/>
    <rect x="55.5556"  y="0" height="0.519031" width="55.5556" style="fill: #91a5ab"/>
    <rect x="166.667"  y="0" height="7.43945" width="55.5556" style="fill: #b0874d"/>
    <rect x="333.333"  y="0" height="7.95848" width="55.5556" style="fill: #f3e8cb"/>
    <rect x="55.5556"  y="0" height="7.61246" width="55.5556" style="fill: #4543a5"/>
    <rect x="0"  y="0" height="5.53633" width="55.5556" style="fill: #eb93b0"/>
    <rect x="277.778"  y="0" height="69.7232" width="55.5556" style="fill: #441e9c"/>
    <rect x="166.667"  y="0" height="3.46021" width="55.5556" style="fill: #a4c2b0"/>
    <rect x="55.5556"  y="0" height="17.8201" width="55.5556" style="fill: #fb3d30"/>
    <rect x="0"  y="0" height="6.40138" width="55.5556" style="fill: #875cbf"/>
    <rect x="333.333"  y="0" height="8.99654" width="55.5556" style="fill: #29abd5"/>
    <rect x="166.667"  y="0" height="3.46021" width="55.5556" style="fill: #b1acf3"/>
    <rect x="0"  y="0" height="1.21107" width="55.5556" style="fill: #8984b3"/>
    <rect x="166.667"  y="0" height="4.84429" width="55.5556" style="fill: #5ae882"/>
    <rect x="0"  y="0" height="0.692042" width="55.5556" style="fill: #809dd4"/>
    <rect x="0"  y="0" height="4.15225" width="55.5556" style="fill: #cfe7ab"/>
    <rect x="333.333"  y="0" height="3.80623" width="55.5556" style="fill: #c5c61b"/>
    <rect x="166.667"  y="0" height="3.97924" width="55.5556" style="fill: #aa52e0"/>
    <rect x="0"  y="0" height="9.86159" width="55.5556" style="fill: #53b4c3"/>
    <rect x="333.333"  y="0" height="0.865052" width="55.5556" style="fill: #643f20"/>
    <rect x="333.333"  y="0" height="10.2076" width="55.5556" style="fill: #4ef259"/>
    <rect x="166.667"  y="0" height="17.301" width="55.5556" style="fill: #d2e980"/>
    <rect x="55.5556"  y="0" height="5.53633" width="55.5556" style="fill: #42a948"/>
    <rect x="111.111"  y="0" height="2.94118" width="55.5556" style="fill: #aac5e8"/>
    <rect x="0"  y="0" height="5.0173" width="55.5556" style="fill: #84cb3e"/>
    <rect x="55.5556"  y="0" height="3.11419" width="55.5556" style="fill: #c7db92"/>
    <rect x="111.111"  y="0" height="27.1626" width="55.5556" style="fill: #5643fd"/>
    <rect x="333.333"  y="0" height="4.49827" width="55.5556" style="fill: #34fdd4"/>
    <rect x="55.5556"  y="0" height="0.17301" width="55.5556" style="fill: #67e2cc"/>
    <rect x="55.5556"  y="0" height="2.42215" width="55.5556" style="fill: #a40603"/>
    <rect x="0"  y="0" height="251.038" width="55.5556" style="fill: #5cb274"/>
    <rect x="333.333"  y="0" height="3.97924" width="55.5556" style="fill: #4cb90a"/>
    <rect x="55.5556"  y="0" height="0.346021" width="55.5556" style="fill: #63e51c"/>
    <rect x="55.5556"  y="0" height="4.84429" width="55.5556" style="fill: #973790"/>
    <rect x="166.667"  y="0" height="0.865052" width="55.5556" style="fill: #334394"/>
    <rect x="333.333"  y="0" height="27.6817" width="55.5556" style="fill: #7e0208"/>
    <rect x="166.667"  y="0" height="1.38408" width="55.5556" style="fill: #6541e4"/>
    <rect x="55.5556"  y="0" height="5.0173" width="55.5556" style="fill: #c48a99"/>
    <rect x="166.667"  y="0" height="12.1107" width="55.5556" style="fill: #630aa9"/>
    <rect x="55.5556"  y="0" height="378.201" width="55.5556" style="fill: #aece15"/>
    <rect x="166.667"  y="0" height="6.22837" width="55.5556" style="fill: #3843a4"/>
    <rect x="111.111"  y="0" height="0.865052" width="55.5556" style="fill: #b19027"/>
    <rect x="111.111"  y="0" height="1.21107" width="55.5556" style="fill: #4ebc95"/>
    <rect x="111.111"  y="0" height="23.8754" width="55.5556" style="fill: #5f8592"/>
    <rect x="166.667"  y="0" height="0.346021" width="55.5556" style="fill: #e30a22"/>
    <rect x="166.667"  y="0" height="9.68858" width="55.5556" style="fill: #05a485"/>
    <rect x="333.333"  y="0" height="8.47751" width="55.5556" style="fill: #846248"/>
    <rect x="166.667"  y="0" height="39.2734" width="55.5556" style="fill: #987550"/>
    <rect x="277.778"  y="0" height="14.5329" width="55.5556" style="fill: #aaf209"/>
    <rect x="333.333"  y="0" height="10.2076" width="55.5556" style="fill: #4ec59e"/>
    <rect x="111.111"  y="0" height="1.55709" width="55.5556" style="fill: #7931dc"/>
    <rect x="277.778"  y="0" height="4.32526" width="55.5556" style="fill: #650c74"/>
    <rect x="111.111"  y="0" height="38.9273" width="55.5556" style="fill: #51cc61"/>
    <rect x="333.333"  y="0" height="2.42215" width="55.5556" style="fill: #c0cb2c"/>
    <rect x="333.333"  y="0" height="60.2076" width="55.5556" style="fill: #46a1b3"/>
    <rect x="277.778"  y="0" height="5.36332" width="55.5556" style="fill: #f2c349"/>
    <rect x="388.889"  y="0" height="11.5917" width="55.5556" style="fill: #faff76"/>
    <rect x="277.778"  y="0" height="5.36332" width="55.5556" style="fill: #3c7f8d"/>
    <rect x="277.778"  y="0" height="5.53633" width="55.5556" style="fill: #14ddff"/>
    <rect x="388.889"  y="0" height="2.07612" width="55.5556" style="fill: #946351"/>
    <rect x="277.778"  y="0" height="1.21107" width="55.5556" style="fill: #744378"/>
    <rect x="388.889"  y="0" height="1.21107" width="55.5556" style="fill: #d62c59"/>
    <rect x="277.778"  y="0" height="7.61246" width="55.5556" style="fill: #285a8d"/>
    <rect x="388.889"  y="0" height="44.2907" width="55.5556" style="fill: #791561"/>
    <rect x="166.667"  y="0" height="20.5882" width="55.5556" style="fill: #4f5a2a"/>
    <rect x="277.778"  y="0" height="3.2872" width="55.5556" style="fill: #c9e0d6"/>
    <rect x="277.778"  y="0" height="8.13149" width="55.5556" style="fill: #8aca62"/>
    <rect x="111.111"  y="0" height="2.76817" width="55.5556" style="fill: #48a922"/>
    <rect x="277.778"  y="0" height="4.84429" width="55.5556" style="fill: #7ab8f1"/>
    <rect x="111.111"  y="0" height="14.8789" width="55.5556" style="fill: #930ee3"/>
    <rect x="166.667"  y="0" height="1.03806" width="55.5556" style="fill: #8ac7a9"/>
    <rect x="166.667"  y="0" height="9.34256" width="55.5556" style="fill: #d239c9"/>
    <rect x="277.778"  y="0" height="1.7301" width="55.5556" style="fill: #b026a4"/>
    <rect x="277.778"  y="0" height="2.76817" width="55.5556" style="fill: #81e49d"/>
    <rect x="277.778"  y="0" height="6.05536" width="55.5556" style="fill: #53161f"/>
    <rect x="166.667"  y="0" height="0.346021" width="55.5556" style="fill: #9a9513"/>
    <rect x="166.667"  y="0" height="9.68858" width="55.5556" style="fill: #fe5271"/>
    <rect x="111.111"  y="0" height="335.121" width="55.5556" style="fill: #c32e9c"/>
    <rect x="277.778"  y="0" height="2.59516" width="55.5556" style="fill: #21d156"/>
</svg>
</svg>
