<svg  xmlns="http://www.w3.org/2000/svg" xmlns:xlink="http://www.w3.org/1999/xlink" x="0" y="0" width="600" height="600">
<rect x="0%" y="0%" height="100%" width="100%" style="fill: #ffffff"/>
<svg x="0" y="0">
  <text fill="dark" font-size="35" transform="translate(250, 30)">cores</text>
</svg>
<svg x="0" y="0"> 
  <text fill="dark" font-size="35" transform="translate(30, 300) rotate(270)">time</text>
</svg>
<svg x = "50" y="550">
  <text fill="blue" font-size="30" transform="translate(0, 35)">t = 27s, lb = 0.997491</text>
</svg>
<svg x="50" y="50" width="500" height="500" >
  <rect x="0%" y="0%" height="100%" width="100%" style="fill: #eeeeee"/>
    <rect x="0"  y="0" height="4.23621" width="250" style="fill: #76931f"/>
    <rect x="0"  y="0" height="4.0544" width="250" style="fill: #ac9dab"/>
    <rect x="0"  y="0" height="7.30883" width="250" style="fill: #2b36c2"/>
    <rect x="0"  y="0" height="3.23625" width="250" style="fill: #48b87d"/>
    <rect x="0"  y="0" height="4.30893" width="250" style="fill: #6ae33f"/>
    <rect x="0"  y="0" height="4.27257" width="250" style="fill: #9a62d7"/>
    <rect x="0"  y="0" height="4.45438" width="250" style="fill: #183a5d"/>
    <rect x="0"  y="0" height="6.76339" width="250" style="fill: #5789e4"/>
    <rect x="0"  y="0" height="5.81797" width="250" style="fill: #b2d6b4"/>
    <rect x="0"  y="0" height="4.03622" width="250" style="fill: #41e241"/>
    <rect x="0"  y="0" height="3.94531" width="250" style="fill: #1dc709"/>
    <rect x="0"  y="0" height="3.7635" width="250" style="fill: #e111c7"/>
    <rect x="0"  y="0" height="5.27254" width="250" style="fill: #e1e7ac"/>
    <rect x="0"  y="0" height="5.3998" width="250" style="fill: #b6f8ca"/>
    <rect x="0"  y="0" height="7.74517" width="250" style="fill: #c0bb2f"/>
    <rect x="0"  y="0" height="3.70896" width="250" style="fill: #c4c8bc"/>
    <rect x="0"  y="0" height="4.76346" width="250" style="fill: #2ae3ba"/>
    <rect x="0"  y="0" height="4.29075" width="250" style="fill: #aab916"/>
    <rect x="0"  y="0" height="3.50896" width="250" style="fill: #5cc458"/>
    <rect x="0"  y="0" height="4.19985" width="250" style="fill: #e199cb"/>
    <rect x="0"  y="0" height="4.74528" width="250" style="fill: #89f51b"/>
    <rect x="0"  y="0" height="5.56343" width="250" style="fill: #135f70"/>
    <rect x="0"  y="0" height="7.07247" width="250" style="fill: #91a5ab"/>
    <rect x="0"  y="0" height="4.36348" width="250" style="fill: #b0874d"/>
    <rect x="0"  y="0" height="4.99982" width="250" style="fill: #f3e8cb"/>
    <rect x="0"  y="0" height="5.87251" width="250" style="fill: #4543a5"/>
    <rect x="0"  y="0" height="2.58172" width="250" style="fill: #eb93b0"/>
    <rect x="0"  y="0" height="10.1996" width="250" style="fill: #441e9c"/>
    <rect x="0"  y="0" height="4.19985" width="250" style="fill: #a4c2b0"/>
    <rect x="0"  y="0" height="4.87255" width="250" style="fill: #fb3d30"/>
    <rect x="0"  y="0" height="3.96349" width="250" style="fill: #875cbf"/>
    <rect x="0"  y="0" height="5.3998" width="250" style="fill: #29abd5"/>
    <rect x="0"  y="0" height="4.76346" width="250" style="fill: #b1acf3"/>
    <rect x="0"  y="0" height="3.07262" width="250" style="fill: #8984b3"/>
    <rect x="0"  y="0" height="3.52714" width="250" style="fill: #5ae882"/>
    <rect x="0"  y="0" height="4.01804" width="250" style="fill: #809dd4"/>
    <rect x="0"  y="0" height="5.74525" width="250" style="fill: #cfe7ab"/>
    <rect x="0"  y="0" height="4.01804" width="250" style="fill: #c5c61b"/>
    <rect x="0"  y="0" height="4.0544" width="250" style="fill: #aa52e0"/>
    <rect x="0"  y="0" height="8.09061" width="250" style="fill: #53b4c3"/>
    <rect x="0"  y="0" height="4.45438" width="250" style="fill: #643f20"/>
    <rect x="0"  y="0" height="3.36351" width="250" style="fill: #4ef259"/>
    <rect x="0"  y="0" height="3.4726" width="250" style="fill: #d2e980"/>
    <rect x="0"  y="0" height="3.01807" width="250" style="fill: #42a948"/>
    <rect x="0"  y="0" height="5.36344" width="250" style="fill: #aac5e8"/>
    <rect x="0"  y="0" height="5.41798" width="250" style="fill: #84cb3e"/>
    <rect x="0"  y="0" height="3.61805" width="250" style="fill: #c7db92"/>
    <rect x="0"  y="0" height="6.3634" width="250" style="fill: #5643fd"/>
    <rect x="0"  y="0" height="3.56351" width="250" style="fill: #34fdd4"/>
    <rect x="0"  y="0" height="5.65434" width="250" style="fill: #67e2cc"/>
    <rect x="0"  y="0" height="9.01785" width="250" style="fill: #a40603"/>
    <rect x="0"  y="0" height="3.1817" width="250" style="fill: #5cb274"/>
    <rect x="0"  y="0" height="5.38162" width="250" style="fill: #4cb90a"/>
    <rect x="0"  y="0" height="4.21803" width="250" style="fill: #63e51c"/>
    <rect x="0"  y="0" height="3.14534" width="250" style="fill: #973790"/>
    <rect x="0"  y="0" height="6.54522" width="250" style="fill: #334394"/>
    <rect x="0"  y="0" height="5.19981" width="250" style="fill: #7e0208"/>
    <rect x="0"  y="0" height="3.65441" width="250" style="fill: #6541e4"/>
    <rect x="0"  y="0" height="3.72714" width="250" style="fill: #c48a99"/>
    <rect x="0"  y="0" height="8.74514" width="250" style="fill: #630aa9"/>
    <rect x="0"  y="0" height="5.47253" width="250" style="fill: #aece15"/>
    <rect x="0"  y="0" height="4.49075" width="250" style="fill: #3843a4"/>
    <rect x="0"  y="0" height="3.3817" width="250" style="fill: #b19027"/>
    <rect x="0"  y="0" height="7.56336" width="250" style="fill: #4ebc95"/>
    <rect x="0"  y="0" height="5.18163" width="250" style="fill: #5f8592"/>
    <rect x="0"  y="0" height="4.79983" width="250" style="fill: #e30a22"/>
    <rect x="0"  y="0" height="11.8359" width="250" style="fill: #05a485"/>
    <rect x="0"  y="0" height="2.81808" width="250" style="fill: #846248"/>
    <rect x="0"  y="0" height="3.63623" width="250" style="fill: #987550"/>
    <rect x="0"  y="0" height="3.67259" width="250" style="fill: #aaf209"/>
    <rect x="0"  y="0" height="5.05436" width="250" style="fill: #4ec59e"/>
    <rect x="0"  y="0" height="7.27246" width="250" style="fill: #7931dc"/>
    <rect x="0"  y="0" height="2.70899" width="250" style="fill: #650c74"/>
    <rect x="0"  y="0" height="3.56351" width="250" style="fill: #51cc61"/>
    <rect x="0"  y="0" height="5.87251" width="250" style="fill: #c0cb2c"/>
    <rect x="0"  y="0" height="5.81797" width="250" style="fill: #46a1b3"/>
    <rect x="0"  y="0" height="3.45442" width="250" style="fill: #f2c349"/>
    <rect x="0"  y="0" height="5.78161" width="250" style="fill: #faff76"/>
    <rect x="0"  y="0" height="6.03614" width="250" style="fill: #3c7f8d"/>
    <rect x="0"  y="0" height="5.81797" width="250" style="fill: #14ddff"/>
    <rect x="0"  y="0" height="3.79986" width="250" style="fill: #946351"/>
    <rect x="0"  y="0" height="4.89073" width="250" style="fill: #744378"/>
    <rect x="0"  y="0" height="7.78154" width="250" style="fill: #d62c59"/>
    <rect x="0"  y="0" height="6.87248" width="250" style="fill: #285a8d"/>
    <rect x="0"  y="0" height="4.45438" width="250" style="fill: #791561"/>
    <rect x="0"  y="0" height="5.90888" width="250" style="fill: #4f5a2a"/>
    <rect x="0"  y="0" height="6.96338" width="250" style="fill: #c9e0d6"/>
    <rect x="0"  y="0" height="3.69077" width="250" style="fill: #8aca62"/>
    <rect x="0"  y="0" height="3.4726" width="250" style="fill: #48a922"/>
    <rect x="0"  y="0" height="5.56343" width="250" style="fill: #7ab8f1"/>
    <rect x="0"  y="0" height="7.96335" width="250" style="fill: #930ee3"/>
    <rect x="0"  y="0" height="4.74528" width="250" style="fill: #8ac7a9"/>
    <rect x="0"  y="0" height="4.1453" width="250" style="fill: #d239c9"/>
    <rect x="0"  y="0" height="5.19981" width="250" style="fill: #b026a4"/>
    <rect x="0"  y="0" height="3.58169" width="250" style="fill: #81e49d"/>
    <rect x="0"  y="0" height="3.32715" width="250" style="fill: #53161f"/>
    <rect x="0"  y="0" height="4.74528" width="250" style="fill: #9a9513"/>
    <rect x="0"  y="0" height="5.63616" width="250" style="fill: #fe5271"/>
    <rect x="0"  y="0" height="4.69074" width="250" style="fill: #c32e9c"/>
    <rect x="0"  y="0" height="3.7635" width="250" style="fill: #21d156"/>
</svg>
</svg>
