<svg  xmlns="http://www.w3.org/2000/svg" xmlns:xlink="http://www.w3.org/1999/xlink" x="0" y="0" width="600" height="600">
<rect x="0%" y="0%" height="100%" width="100%" style="fill: #ffffff"/>
<svg x="0" y="0">
  <text fill="dark" font-size="35" transform="translate(250, 30)">cores</text>
</svg>
<svg x="0" y="0"> 
  <text fill="dark" font-size="35" transform="translate(30, 300) rotate(270)">time</text>
</svg>
<svg x = "50" y="550">
  <text fill="blue" font-size="30" transform="translate(0, 35)">t = 53s, lb = 0.421096</text>
</svg>
<svg x="50" y="50" width="500" height="500" >
  <rect x="0%" y="0%" height="100%" width="100%" style="fill: #eeeeee"/>
    <rect x="0"  y="0" height="11.0515" width="55.5556" style="fill: #76931f"/>
    <rect x="222.222"  y="0" height="7.62496" width="55.5556" style="fill: #ac9dab"/>
    <rect x="111.111"  y="0" height="7.46493" width="55.5556" style="fill: #2b36c2"/>
    <rect x="55.5556"  y="0" height="14.2239" width="55.5556" style="fill: #48b87d"/>
    <rect x="333.333"  y="0" height="17.9422" width="55.5556" style="fill: #6ae33f"/>
    <rect x="277.778"  y="0" height="11.9175" width="55.5556" style="fill: #9a62d7"/>
    <rect x="166.667"  y="0" height="29.5397" width="55.5556" style="fill: #183a5d"/>
    <rect x="388.889"  y="0" height="6.68361" width="55.5556" style="fill: #5789e4"/>
    <rect x="388.889"  y="0" height="12.3976" width="55.5556" style="fill: #b2d6b4"/>
    <rect x="111.111"  y="0" height="34.3312" width="55.5556" style="fill: #41e241"/>
    <rect x="222.222"  y="0" height="8.46277" width="55.5556" style="fill: #1dc709"/>
    <rect x="0"  y="0" height="12.8401" width="55.5556" style="fill: #e111c7"/>
    <rect x="277.778"  y="0" height="9.10289" width="55.5556" style="fill: #e1e7ac"/>
    <rect x="55.5556"  y="0" height="4.73501" width="55.5556" style="fill: #b6f8ca"/>
    <rect x="222.222"  y="0" height="2.49459" width="55.5556" style="fill: #c0bb2f"/>
    <rect x="333.333"  y="0" height="22.0559" width="55.5556" style="fill: #c4c8bc"/>
    <rect x="222.222"  y="0" height="9.53591" width="55.5556" style="fill: #2ae3ba"/>
    <rect x="55.5556"  y="0" height="4.65029" width="55.5556" style="fill: #aab916"/>
    <rect x="388.889"  y="0" height="201.939" width="55.5556" style="fill: #5cc458"/>
    <rect x="277.778"  y="0" height="14.4121" width="55.5556" style="fill: #e199cb"/>
    <rect x="55.5556"  y="0" height="16.436" width="55.5556" style="fill: #89f51b"/>
    <rect x="0"  y="0" height="5.65754" width="55.5556" style="fill: #135f70"/>
    <rect x="222.222"  y="0" height="14.2333" width="55.5556" style="fill: #91a5ab"/>
    <rect x="166.667"  y="0" height="6.1188" width="55.5556" style="fill: #b0874d"/>
    <rect x="0"  y="0" height="10.2702" width="55.5556" style="fill: #f3e8cb"/>
    <rect x="277.778"  y="0" height="13.6779" width="55.5556" style="fill: #4543a5"/>
    <rect x="166.667"  y="0" height="11.7952" width="55.5556" style="fill: #eb93b0"/>
    <rect x="0"  y="0" height="18.1964" width="55.5556" style="fill: #441e9c"/>
    <rect x="333.333"  y="0" height="3.09705" width="55.5556" style="fill: #a4c2b0"/>
    <rect x="55.5556"  y="0" height="5.86463" width="55.5556" style="fill: #fb3d30"/>
    <rect x="111.111"  y="0" height="5.13979" width="55.5556" style="fill: #875cbf"/>
    <rect x="222.222"  y="0" height="5.50692" width="55.5556" style="fill: #29abd5"/>
    <rect x="333.333"  y="0" height="4.47143" width="55.5556" style="fill: #b1acf3"/>
    <rect x="55.5556"  y="0" height="8.66987" width="55.5556" style="fill: #8984b3"/>
    <rect x="111.111"  y="0" height="9.94069" width="55.5556" style="fill: #5ae882"/>
    <rect x="166.667"  y="0" height="9.65829" width="55.5556" style="fill: #809dd4"/>
    <rect x="333.333"  y="0" height="11.6163" width="55.5556" style="fill: #cfe7ab"/>
    <rect x="222.222"  y="0" height="1.15787" width="55.5556" style="fill: #c5c61b"/>
    <rect x="222.222"  y="0" height="2.79582" width="55.5556" style="fill: #aa52e0"/>
    <rect x="277.778"  y="0" height="5.04566" width="55.5556" style="fill: #53b4c3"/>
    <rect x="222.222"  y="0" height="5.01742" width="55.5556" style="fill: #643f20"/>
    <rect x="277.778"  y="0" height="1.88271" width="55.5556" style="fill: #4ef259"/>
    <rect x="55.5556"  y="0" height="26.0473" width="55.5556" style="fill: #d2e980"/>
    <rect x="277.778"  y="0" height="1.64737" width="55.5556" style="fill: #42a948"/>
    <rect x="111.111"  y="0" height="2.83347" width="55.5556" style="fill: #aac5e8"/>
    <rect x="222.222"  y="0" height="3.90662" width="55.5556" style="fill: #84cb3e"/>
    <rect x="166.667"  y="0" height="13.6873" width="55.5556" style="fill: #c7db92"/>
    <rect x="277.778"  y="0" height="11.3904" width="55.5556" style="fill: #5643fd"/>
    <rect x="0"  y="0" height="8.01092" width="55.5556" style="fill: #34fdd4"/>
    <rect x="333.333"  y="0" height="1.01666" width="55.5556" style="fill: #67e2cc"/>
    <rect x="111.111"  y="0" height="33.0698" width="55.5556" style="fill: #a40603"/>
    <rect x="333.333"  y="0" height="6.71185" width="55.5556" style="fill: #5cb274"/>
    <rect x="222.222"  y="0" height="10.0442" width="55.5556" style="fill: #4cb90a"/>
    <rect x="0"  y="0" height="8.16154" width="55.5556" style="fill: #63e51c"/>
    <rect x="333.333"  y="0" height="38.9344" width="55.5556" style="fill: #973790"/>
    <rect x="277.778"  y="0" height="430.867" width="55.5556" style="fill: #334394"/>
    <rect x="166.667"  y="0" height="4.81032" width="55.5556" style="fill: #7e0208"/>
    <rect x="222.222"  y="0" height="130.669" width="55.5556" style="fill: #6541e4"/>
    <rect x="0"  y="0" height="18.5541" width="55.5556" style="fill: #c48a99"/>
    <rect x="166.667"  y="0" height="25.2283" width="55.5556" style="fill: #630aa9"/>
    <rect x="55.5556"  y="0" height="7.60614" width="55.5556" style="fill: #aece15"/>
    <rect x="55.5556"  y="0" height="0.922527" width="55.5556" style="fill: #3843a4"/>
    <rect x="55.5556"  y="0" height="18.1116" width="55.5556" style="fill: #b19027"/>
    <rect x="0"  y="0" height="1.00725" width="55.5556" style="fill: #4ebc95"/>
    <rect x="111.111"  y="0" height="5.81757" width="55.5556" style="fill: #5f8592"/>
    <rect x="0"  y="0" height="5.32806" width="55.5556" style="fill: #e30a22"/>
    <rect x="111.111"  y="0" height="1.17669" width="55.5556" style="fill: #05a485"/>
    <rect x="0"  y="0" height="5.61988" width="55.5556" style="fill: #846248"/>
    <rect x="111.111"  y="0" height="5.63871" width="55.5556" style="fill: #987550"/>
    <rect x="166.667"  y="0" height="1.16728" width="55.5556" style="fill: #aaf209"/>
    <rect x="166.667"  y="0" height="1.56265" width="55.5556" style="fill: #4ec59e"/>
    <rect x="166.667"  y="0" height="7.42728" width="55.5556" style="fill: #7931dc"/>
    <rect x="0"  y="0" height="2.66403" width="55.5556" style="fill: #650c74"/>
    <rect x="111.111"  y="0" height="7.73793" width="55.5556" style="fill: #51cc61"/>
    <rect x="333.333"  y="0" height="3.5489" width="55.5556" style="fill: #c0cb2c"/>
    <rect x="55.5556"  y="0" height="7.12605" width="55.5556" style="fill: #46a1b3"/>
    <rect x="0"  y="0" height="2.75817" width="55.5556" style="fill: #f2c349"/>
    <rect x="333.333"  y="0" height="13.7532" width="55.5556" style="fill: #faff76"/>
    <rect x="0"  y="0" height="4.38671" width="55.5556" style="fill: #3c7f8d"/>
    <rect x="166.667"  y="0" height="5.54457" width="55.5556" style="fill: #14ddff"/>
    <rect x="111.111"  y="0" height="10.8444" width="55.5556" style="fill: #946351"/>
    <rect x="55.5556"  y="0" height="8.02033" width="55.5556" style="fill: #744378"/>
    <rect x="0"  y="0" height="3.59597" width="55.5556" style="fill: #d62c59"/>
    <rect x="166.667"  y="0" height="5.84581" width="55.5556" style="fill: #285a8d"/>
    <rect x="0"  y="0" height="17.5092" width="55.5556" style="fill: #791561"/>
    <rect x="166.667"  y="0" height="1.3932" width="55.5556" style="fill: #4f5a2a"/>
    <rect x="55.5556"  y="0" height="27.0169" width="55.5556" style="fill: #c9e0d6"/>
    <rect x="333.333"  y="0" height="13.3202" width="55.5556" style="fill: #8aca62"/>
    <rect x="166.667"  y="0" height="30.0292" width="55.5556" style="fill: #48a922"/>
    <rect x="111.111"  y="0" height="2.81465" width="55.5556" style="fill: #7ab8f1"/>
    <rect x="111.111"  y="0" height="0.988421" width="55.5556" style="fill: #930ee3"/>
    <rect x="111.111"  y="0" height="9.75242" width="55.5556" style="fill: #8ac7a9"/>
    <rect x="0"  y="0" height="9.63005" width="55.5556" style="fill: #d239c9"/>
    <rect x="333.333"  y="0" height="4.90445" width="55.5556" style="fill: #b026a4"/>
    <rect x="111.111"  y="0" height="2.84289" width="55.5556" style="fill: #81e49d"/>
    <rect x="111.111"  y="0" height="0.9037" width="55.5556" style="fill: #53161f"/>
    <rect x="111.111"  y="0" height="14.7134" width="55.5556" style="fill: #9a9513"/>
    <rect x="333.333"  y="0" height="4.34905" width="55.5556" style="fill: #fe5271"/>
    <rect x="0"  y="0" height="5.93053" width="55.5556" style="fill: #c32e9c"/>
    <rect x="333.333"  y="0" height="5.82698" width="55.5556" style="fill: #21d156"/>
</svg>
</svg>
