<svg  xmlns="http://www.w3.org/2000/svg" xmlns:xlink="http://www.w3.org/1999/xlink" x="0" y="0" width="600" height="600">
<rect x="0%" y="0%" height="100%" width="100%" style="fill: #ffffff"/>
<svg x="0" y="0">
  <text fill="dark" font-size="35" transform="translate(250, 30)">cores</text>
</svg>
<svg x="0" y="0"> 
  <text fill="dark" font-size="35" transform="translate(30, 300) rotate(270)">time</text>
</svg>
<svg x = "50" y="550">
  <text fill="blue" font-size="30" transform="translate(0, 35)">t = 28s, lb = 0.391856</text>
</svg>
<svg x="50" y="50" width="500" height="500" >
  <rect x="0%" y="0%" height="100%" width="100%" style="fill: #eeeeee"/>
    <rect x="0"  y="0" height="4.93613" width="55.5556" style="fill: #76931f"/>
    <rect x="222.222"  y="0" height="4.72382" width="55.5556" style="fill: #ac9dab"/>
    <rect x="111.111"  y="0" height="5.16613" width="55.5556" style="fill: #2b36c2"/>
    <rect x="55.5556"  y="0" height="7.64304" width="55.5556" style="fill: #48b87d"/>
    <rect x="333.333"  y="0" height="10.7923" width="55.5556" style="fill: #6ae33f"/>
    <rect x="277.778"  y="0" height="7.48381" width="55.5556" style="fill: #9a62d7"/>
    <rect x="166.667"  y="0" height="26.503" width="55.5556" style="fill: #183a5d"/>
    <rect x="388.889"  y="0" height="7.64304" width="55.5556" style="fill: #5789e4"/>
    <rect x="222.222"  y="0" height="6.54612" width="55.5556" style="fill: #b2d6b4"/>
    <rect x="0"  y="0" height="21.7791" width="55.5556" style="fill: #41e241"/>
    <rect x="111.111"  y="0" height="6.45766" width="55.5556" style="fill: #1dc709"/>
    <rect x="277.778"  y="0" height="8.47458" width="55.5556" style="fill: #e111c7"/>
    <rect x="55.5556"  y="0" height="6.79381" width="55.5556" style="fill: #e1e7ac"/>
    <rect x="388.889"  y="0" height="2.98999" width="55.5556" style="fill: #b6f8ca"/>
    <rect x="388.889"  y="0" height="1.5923" width="55.5556" style="fill: #c0bb2f"/>
    <rect x="333.333"  y="0" height="13.8707" width="55.5556" style="fill: #c4c8bc"/>
    <rect x="222.222"  y="0" height="5.73228" width="55.5556" style="fill: #2ae3ba"/>
    <rect x="111.111"  y="0" height="2.9546" width="55.5556" style="fill: #aab916"/>
    <rect x="388.889"  y="0" height="181.398" width="55.5556" style="fill: #5cc458"/>
    <rect x="55.5556"  y="0" height="11.6061" width="55.5556" style="fill: #e199cb"/>
    <rect x="111.111"  y="0" height="9.27073" width="55.5556" style="fill: #89f51b"/>
    <rect x="277.778"  y="0" height="3.37922" width="55.5556" style="fill: #135f70"/>
    <rect x="222.222"  y="0" height="8.47458" width="55.5556" style="fill: #91a5ab"/>
    <rect x="277.778"  y="0" height="4.93613" width="55.5556" style="fill: #b0874d"/>
    <rect x="111.111"  y="0" height="6.49305" width="55.5556" style="fill: #f3e8cb"/>
    <rect x="277.778"  y="0" height="9.25303" width="55.5556" style="fill: #4543a5"/>
    <rect x="333.333"  y="0" height="10.7215" width="55.5556" style="fill: #eb93b0"/>
    <rect x="222.222"  y="0" height="14.9676" width="55.5556" style="fill: #441e9c"/>
    <rect x="55.5556"  y="0" height="2.56537" width="55.5556" style="fill: #a4c2b0"/>
    <rect x="166.667"  y="0" height="3.50306" width="55.5556" style="fill: #fb3d30"/>
    <rect x="0"  y="0" height="4.42306" width="55.5556" style="fill: #875cbf"/>
    <rect x="55.5556"  y="0" height="3.67998" width="55.5556" style="fill: #29abd5"/>
    <rect x="166.667"  y="0" height="3.1846" width="55.5556" style="fill: #b1acf3"/>
    <rect x="111.111"  y="0" height="8.56304" width="55.5556" style="fill: #8984b3"/>
    <rect x="0"  y="0" height="9.1115" width="55.5556" style="fill: #5ae882"/>
    <rect x="55.5556"  y="0" height="9.67765" width="55.5556" style="fill: #809dd4"/>
    <rect x="166.667"  y="0" height="12.7207" width="55.5556" style="fill: #cfe7ab"/>
    <rect x="277.778"  y="0" height="1.46845" width="55.5556" style="fill: #c5c61b"/>
    <rect x="277.778"  y="0" height="2.88383" width="55.5556" style="fill: #aa52e0"/>
    <rect x="333.333"  y="0" height="7.39535" width="55.5556" style="fill: #53b4c3"/>
    <rect x="277.778"  y="0" height="5.76767" width="55.5556" style="fill: #643f20"/>
    <rect x="111.111"  y="0" height="2.54768" width="55.5556" style="fill: #4ef259"/>
    <rect x="0"  y="0" height="23.4776" width="55.5556" style="fill: #d2e980"/>
    <rect x="222.222"  y="0" height="2.01691" width="55.5556" style="fill: #42a948"/>
    <rect x="111.111"  y="0" height="3.39691" width="55.5556" style="fill: #aac5e8"/>
    <rect x="55.5556"  y="0" height="4.72382" width="55.5556" style="fill: #84cb3e"/>
    <rect x="222.222"  y="0" height="11.6769" width="55.5556" style="fill: #c7db92"/>
    <rect x="333.333"  y="0" height="12.5615" width="55.5556" style="fill: #5643fd"/>
    <rect x="277.778"  y="0" height="9.07611" width="55.5556" style="fill: #34fdd4"/>
    <rect x="111.111"  y="0" height="1.68076" width="55.5556" style="fill: #67e2cc"/>
    <rect x="166.667"  y="0" height="36.4283" width="55.5556" style="fill: #a40603"/>
    <rect x="111.111"  y="0" height="8.06766" width="55.5556" style="fill: #5cb274"/>
    <rect x="55.5556"  y="0" height="8.1915" width="55.5556" style="fill: #4cb90a"/>
    <rect x="277.778"  y="0" height="8.01458" width="55.5556" style="fill: #63e51c"/>
    <rect x="222.222"  y="0" height="33.8098" width="55.5556" style="fill: #973790"/>
    <rect x="111.111"  y="0" height="445.278" width="55.5556" style="fill: #334394"/>
    <rect x="55.5556"  y="0" height="6.10382" width="55.5556" style="fill: #7e0208"/>
    <rect x="333.333"  y="0" height="126.977" width="55.5556" style="fill: #6541e4"/>
    <rect x="277.778"  y="0" height="14.4192" width="55.5556" style="fill: #c48a99"/>
    <rect x="55.5556"  y="0" height="24.3622" width="55.5556" style="fill: #630aa9"/>
    <rect x="0"  y="0" height="7.14766" width="55.5556" style="fill: #aece15"/>
    <rect x="0"  y="0" height="1.53922" width="55.5556" style="fill: #3843a4"/>
    <rect x="0"  y="0" height="15.9938" width="55.5556" style="fill: #b19027"/>
    <rect x="277.778"  y="0" height="1.45076" width="55.5556" style="fill: #4ebc95"/>
    <rect x="277.778"  y="0" height="6.8292" width="55.5556" style="fill: #5f8592"/>
    <rect x="166.667"  y="0" height="6.52843" width="55.5556" style="fill: #e30a22"/>
    <rect x="277.778"  y="0" height="1.80461" width="55.5556" style="fill: #05a485"/>
    <rect x="55.5556"  y="0" height="8.89919" width="55.5556" style="fill: #846248"/>
    <rect x="277.778"  y="0" height="6.42228" width="55.5556" style="fill: #987550"/>
    <rect x="222.222"  y="0" height="1.41538" width="55.5556" style="fill: #aaf209"/>
    <rect x="0"  y="0" height="1.68076" width="55.5556" style="fill: #4ec59e"/>
    <rect x="166.667"  y="0" height="6.28074" width="55.5556" style="fill: #7931dc"/>
    <rect x="222.222"  y="0" height="2.60076" width="55.5556" style="fill: #650c74"/>
    <rect x="0"  y="0" height="7.71381" width="55.5556" style="fill: #51cc61"/>
    <rect x="277.778"  y="0" height="4.63536" width="55.5556" style="fill: #c0cb2c"/>
    <rect x="222.222"  y="0" height="8.24458" width="55.5556" style="fill: #46a1b3"/>
    <rect x="55.5556"  y="0" height="3.76844" width="55.5556" style="fill: #f2c349"/>
    <rect x="166.667"  y="0" height="12.1899" width="55.5556" style="fill: #faff76"/>
    <rect x="277.778"  y="0" height="4.59998" width="55.5556" style="fill: #3c7f8d"/>
    <rect x="0"  y="0" height="4.81229" width="55.5556" style="fill: #14ddff"/>
    <rect x="55.5556"  y="0" height="8.8815" width="55.5556" style="fill: #946351"/>
    <rect x="222.222"  y="0" height="9.3238" width="55.5556" style="fill: #744378"/>
    <rect x="277.778"  y="0" height="4.58229" width="55.5556" style="fill: #d62c59"/>
    <rect x="0"  y="0" height="6.8292" width="55.5556" style="fill: #285a8d"/>
    <rect x="277.778"  y="0" height="15.5869" width="55.5556" style="fill: #791561"/>
    <rect x="55.5556"  y="0" height="1.80461" width="55.5556" style="fill: #4f5a2a"/>
    <rect x="166.667"  y="0" height="21.8322" width="55.5556" style="fill: #c9e0d6"/>
    <rect x="55.5556"  y="0" height="10.81" width="55.5556" style="fill: #8aca62"/>
    <rect x="0"  y="0" height="33.5091" width="55.5556" style="fill: #48a922"/>
    <rect x="222.222"  y="0" height="3.66229" width="55.5556" style="fill: #7ab8f1"/>
    <rect x="222.222"  y="0" height="1.60999" width="55.5556" style="fill: #930ee3"/>
    <rect x="222.222"  y="0" height="10.7215" width="55.5556" style="fill: #8ac7a9"/>
    <rect x="55.5556"  y="0" height="7.83766" width="55.5556" style="fill: #d239c9"/>
    <rect x="277.778"  y="0" height="5.34305" width="55.5556" style="fill: #b026a4"/>
    <rect x="222.222"  y="0" height="3.83921" width="55.5556" style="fill: #81e49d"/>
    <rect x="277.778"  y="0" height="1.48615" width="55.5556" style="fill: #53161f"/>
    <rect x="55.5556"  y="0" height="17.7807" width="55.5556" style="fill: #9a9513"/>
    <rect x="277.778"  y="0" height="5.21921" width="55.5556" style="fill: #fe5271"/>
    <rect x="166.667"  y="0" height="6.52843" width="55.5556" style="fill: #c32e9c"/>
    <rect x="222.222"  y="0" height="5.34305" width="55.5556" style="fill: #21d156"/>
</svg>
</svg>
