<svg  xmlns="http://www.w3.org/2000/svg" xmlns:xlink="http://www.w3.org/1999/xlink" x="0" y="0" width="600" height="600">
<rect x="0%" y="0%" height="100%" width="100%" style="fill: #ffffff"/>
<svg x="0" y="0">
  <text fill="dark" font-size="35" transform="translate(250, 30)">cores</text>
</svg>
<svg x="0" y="0"> 
  <text fill="dark" font-size="35" transform="translate(30, 300) rotate(270)">time</text>
</svg>
<svg x = "50" y="550">
  <text fill="blue" font-size="30" transform="translate(0, 35)">t = 15s, lb = 0.996016</text>
</svg>
<svg x="50" y="50" width="500" height="500" >
  <rect x="0%" y="0%" height="100%" width="100%" style="fill: #eeeeee"/>
    <rect x="0"  y="0" height="51.6034" width="250" style="fill: #5cc3ad"/>
    <rect x="0"  y="0" height="28.6293" width="250" style="fill: #df6c1a"/>
    <rect x="0"  y="0" height="24.7735" width="250" style="fill: #df6ed3"/>
    <rect x="0"  y="0" height="35.7625" width="250" style="fill: #5f477b"/>
    <rect x="0"  y="0" height="21.5282" width="250" style="fill: #002298"/>
    <rect x="0"  y="0" height="37.0477" width="250" style="fill: #1e5e1f"/>
    <rect x="0"  y="0" height="15.134" width="250" style="fill: #bfe1bf"/>
    <rect x="0"  y="0" height="13.174" width="250" style="fill: #b8e26b"/>
    <rect x="0"  y="0" height="18.3471" width="250" style="fill: #5ba932"/>
    <rect x="0"  y="0" height="15.391" width="250" style="fill: #53275b"/>
    <rect x="0"  y="0" height="21.1747" width="250" style="fill: #f6a44b"/>
    <rect x="0"  y="0" height="8.32209" width="250" style="fill: #3fa105"/>
    <rect x="0"  y="0" height="13.0776" width="250" style="fill: #1cdfe3"/>
    <rect x="0"  y="0" height="12.9169" width="250" style="fill: #b3f5d2"/>
    <rect x="0"  y="0" height="11.2139" width="250" style="fill: #725a9a"/>
    <rect x="0"  y="0" height="6.65124" width="250" style="fill: #580fd5"/>
    <rect x="0"  y="0" height="4.30564" width="250" style="fill: #b04525"/>
    <rect x="0"  y="0" height="6.2978" width="250" style="fill: #b3182f"/>
    <rect x="0"  y="0" height="6.52272" width="250" style="fill: #cd2b3f"/>
    <rect x="0"  y="0" height="4.9804" width="250" style="fill: #da124a"/>
    <rect x="0"  y="0" height="5.88008" width="250" style="fill: #ca3c90"/>
    <rect x="0"  y="0" height="2.85971" width="250" style="fill: #1406a2"/>
    <rect x="0"  y="0" height="4.884" width="250" style="fill: #b55cd8"/>
    <rect x="0"  y="0" height="5.94435" width="250" style="fill: #b95d48"/>
    <rect x="0"  y="0" height="5.10893" width="250" style="fill: #d13e37"/>
    <rect x="0"  y="0" height="2.02429" width="250" style="fill: #9f1ccb"/>
    <rect x="0"  y="0" height="2.60266" width="250" style="fill: #cdfc39"/>
    <rect x="0"  y="0" height="1.44592" width="250" style="fill: #fee4ac"/>
    <rect x="0"  y="0" height="2.12069" width="250" style="fill: #c5523a"/>
    <rect x="0"  y="0" height="2.442" width="250" style="fill: #a0bdef"/>
    <rect x="0"  y="0" height="4.2735" width="250" style="fill: #57e63a"/>
    <rect x="0"  y="0" height="2.50627" width="250" style="fill: #1f81cb"/>
    <rect x="0"  y="0" height="15.9051" width="250" style="fill: #aba9f4"/>
    <rect x="0"  y="0" height="1.96003" width="250" style="fill: #5caaed"/>
    <rect x="0"  y="0" height="2.69906" width="250" style="fill: #48d06b"/>
    <rect x="0"  y="0" height="1.41379" width="250" style="fill: #fb3d16"/>
    <rect x="0"  y="0" height="3.37382" width="250" style="fill: #836042"/>
    <rect x="0"  y="0" height="3.53448" width="250" style="fill: #bed57c"/>
    <rect x="0"  y="0" height="3.02037" width="250" style="fill: #ac8476"/>
    <rect x="0"  y="0" height="1.79937" width="250" style="fill: #1bfeb5"/>
    <rect x="0"  y="0" height="1.18887" width="250" style="fill: #9a0c81"/>
    <rect x="0"  y="0" height="1.06034" width="250" style="fill: #304908"/>
    <rect x="0"  y="0" height="1.54232" width="250" style="fill: #bb781e"/>
    <rect x="0"  y="0" height="2.5384" width="250" style="fill: #4bbdf2"/>
    <rect x="0"  y="0" height="2.69906" width="250" style="fill: #30d2e9"/>
    <rect x="0"  y="0" height="1.3174" width="250" style="fill: #77374b"/>
    <rect x="0"  y="0" height="1.73511" width="250" style="fill: #97bd0b"/>
    <rect x="0"  y="0" height="4.46629" width="250" style="fill: #6b7d38"/>
    <rect x="0"  y="0" height="1.54232" width="250" style="fill: #b73642"/>
    <rect x="0"  y="0" height="2.66692" width="250" style="fill: #8826a0"/>
    <rect x="0"  y="0" height="1.89577" width="250" style="fill: #f2729b"/>
    <rect x="0"  y="0" height="6.9083" width="250" style="fill: #e22902"/>
    <rect x="0"  y="0" height="2.442" width="250" style="fill: #56dc30"/>
    <rect x="0"  y="0" height="1.60658" width="250" style="fill: #4e875c"/>
    <rect x="0"  y="0" height="2.66692" width="250" style="fill: #9d4b3f"/>
    <rect x="0"  y="0" height="1.79937" width="250" style="fill: #b2125a"/>
    <rect x="0"  y="0" height="1.12461" width="250" style="fill: #e3d0cd"/>
    <rect x="0"  y="0" height="1.89577" width="250" style="fill: #3130d6"/>
    <rect x="0"  y="0" height="2.24921" width="250" style="fill: #114989"/>
    <rect x="0"  y="0" height="1.25313" width="250" style="fill: #517aca"/>
    <rect x="0"  y="0" height="2.18495" width="250" style="fill: #97daa2"/>
    <rect x="0"  y="0" height="0.867553" width="250" style="fill: #485181"/>
    <rect x="0"  y="0" height="1.12461" width="250" style="fill: #eb31c0"/>
    <rect x="0"  y="0" height="0.931817" width="250" style="fill: #7d2c6a"/>
    <rect x="0"  y="0" height="1.09247" width="250" style="fill: #5bcc58"/>
    <rect x="0"  y="0" height="0.835422" width="250" style="fill: #7e048a"/>
    <rect x="0"  y="0" height="1.15674" width="250" style="fill: #6d2bea"/>
    <rect x="0"  y="0" height="0.578369" width="250" style="fill: #cd6fe2"/>
    <rect x="0"  y="0" height="1.51019" width="250" style="fill: #06f225"/>
    <rect x="0"  y="0" height="0.642632" width="250" style="fill: #c70846"/>
    <rect x="0"  y="0" height="0.610501" width="250" style="fill: #1b41fd"/>
    <rect x="0"  y="0" height="0.835422" width="250" style="fill: #b5ad08"/>
    <rect x="0"  y="0" height="0.771159" width="250" style="fill: #7c5dc4"/>
    <rect x="0"  y="0" height="0.642632" width="250" style="fill: #fcaeec"/>
    <rect x="0"  y="0" height="0.578369" width="250" style="fill: #3a3437"/>
    <rect x="0"  y="0" height="0.385579" width="250" style="fill: #a42e51"/>
    <rect x="0"  y="0" height="0.353448" width="250" style="fill: #b065d6"/>
    <rect x="0"  y="0" height="0.321316" width="250" style="fill: #e4332f"/>
    <rect x="0"  y="0" height="0.321316" width="250" style="fill: #71b109"/>
    <rect x="0"  y="0" height="0.385579" width="250" style="fill: #d33176"/>
    <rect x="0"  y="0" height="0.160658" width="250" style="fill: #81ab0f"/>
    <rect x="0"  y="0" height="0.289184" width="250" style="fill: #cbf31c"/>
    <rect x="0"  y="0" height="0.546237" width="250" style="fill: #9f1c23"/>
    <rect x="0"  y="0" height="0.257053" width="250" style="fill: #ba46b4"/>
    <rect x="0"  y="0" height="0.321316" width="250" style="fill: #f983af"/>
    <rect x="0"  y="0" height="0.289184" width="250" style="fill: #9214d1"/>
    <rect x="0"  y="0" height="0.321316" width="250" style="fill: #3ac3dd"/>
    <rect x="0"  y="0" height="0.257053" width="250" style="fill: #f6c03f"/>
    <rect x="0"  y="0" height="0.257053" width="250" style="fill: #3e9854"/>
    <rect x="0"  y="0" height="0.160658" width="250" style="fill: #c4d477"/>
    <rect x="0"  y="0" height="0.321316" width="250" style="fill: #41a557"/>
    <rect x="0"  y="0" height="0.289184" width="250" style="fill: #6812be"/>
    <rect x="0"  y="0" height="0.289184" width="250" style="fill: #0b5cb8"/>
    <rect x="0"  y="0" height="0.257053" width="250" style="fill: #bf647b"/>
    <rect x="0"  y="0" height="0.0963948" width="250" style="fill: #930687"/>
    <rect x="0"  y="0" height="0.128526" width="250" style="fill: #ec881d"/>
    <rect x="0"  y="0" height="0.160658" width="250" style="fill: #f76191"/>
    <rect x="0"  y="0" height="0.160658" width="250" style="fill: #f9c468"/>
    <rect x="0"  y="0" height="0.0642632" width="250" style="fill: #c1736e"/>
</svg>
</svg>
