<svg  xmlns="http://www.w3.org/2000/svg" xmlns:xlink="http://www.w3.org/1999/xlink" x="0" y="0" width="600" height="600">
<rect x="0%" y="0%" height="100%" width="100%" style="fill: #ffffff"/>
<svg x="0" y="0">
  <text fill="dark" font-size="35" transform="translate(250, 30)">cores</text>
</svg>
<svg x="0" y="0"> 
  <text fill="dark" font-size="35" transform="translate(30, 300) rotate(270)">time</text>
</svg>
<svg x = "50" y="550">
  <text fill="blue" font-size="30" transform="translate(0, 35)">t = 7s, lb = 0.992743</text>
</svg>
<svg x="50" y="50" width="500" height="500" >
  <rect x="0%" y="0%" height="100%" width="100%" style="fill: #eeeeee"/>
    <rect x="0"  y="0" height="2.92844" width="250" style="fill: #fbcaae"/>
    <rect x="0"  y="0" height="9.42195" width="250" style="fill: #a861da"/>
    <rect x="0"  y="0" height="5.60224" width="250" style="fill: #7c63ef"/>
    <rect x="0"  y="0" height="5.02928" width="250" style="fill: #224008"/>
    <rect x="0"  y="0" height="4.58365" width="250" style="fill: #b1e258"/>
    <rect x="0"  y="0" height="4.8383" width="250" style="fill: #354ffe"/>
    <rect x="0"  y="0" height="5.47492" width="250" style="fill: #d963a3"/>
    <rect x="0"  y="0" height="2.41915" width="250" style="fill: #e2f45d"/>
    <rect x="0"  y="0" height="4.26534" width="250" style="fill: #37f78f"/>
    <rect x="0"  y="0" height="8.91266" width="250" style="fill: #f30d66"/>
    <rect x="0"  y="0" height="4.07436" width="250" style="fill: #69ba8a"/>
    <rect x="0"  y="0" height="4.20168" width="250" style="fill: #864e9e"/>
    <rect x="0"  y="0" height="4.45633" width="250" style="fill: #1700c5"/>
    <rect x="0"  y="0" height="4.07436" width="250" style="fill: #dfdd75"/>
    <rect x="0"  y="0" height="3.94703" width="250" style="fill: #c68d4e"/>
    <rect x="0"  y="0" height="6.81182" width="250" style="fill: #3a7e40"/>
    <rect x="0"  y="0" height="2.29183" width="250" style="fill: #8c6caf"/>
    <rect x="0"  y="0" height="5.85689" width="250" style="fill: #bb7bb3"/>
    <rect x="0"  y="0" height="5.79323" width="250" style="fill: #182e59"/>
    <rect x="0"  y="0" height="4.45633" width="250" style="fill: #320bf4"/>
    <rect x="0"  y="0" height="5.22027" width="250" style="fill: #a2e102"/>
    <rect x="0"  y="0" height="6.1752" width="250" style="fill: #18e758"/>
    <rect x="0"  y="0" height="4.13802" width="250" style="fill: #703ebe"/>
    <rect x="0"  y="0" height="5.72956" width="250" style="fill: #1c63ac"/>
    <rect x="0"  y="0" height="4.64731" width="250" style="fill: #dded9d"/>
    <rect x="0"  y="0" height="4.96562" width="250" style="fill: #13ff4f"/>
    <rect x="0"  y="0" height="5.28393" width="250" style="fill: #167fdc"/>
    <rect x="0"  y="0" height="4.96562" width="250" style="fill: #74ca28"/>
    <rect x="0"  y="0" height="3.43774" width="250" style="fill: #834e7f"/>
    <rect x="0"  y="0" height="3.75605" width="250" style="fill: #a4c815"/>
    <rect x="0"  y="0" height="5.15661" width="250" style="fill: #52841d"/>
    <rect x="0"  y="0" height="4.39267" width="250" style="fill: #323b10"/>
    <rect x="0"  y="0" height="5.41126" width="250" style="fill: #785427"/>
    <rect x="0"  y="0" height="5.02928" width="250" style="fill: #cab082"/>
    <rect x="0"  y="0" height="5.02928" width="250" style="fill: #f36cb7"/>
    <rect x="0"  y="0" height="3.69239" width="250" style="fill: #119a5a"/>
    <rect x="0"  y="0" height="3.94703" width="250" style="fill: #79ca4d"/>
    <rect x="0"  y="0" height="10.6952" width="250" style="fill: #ab5ff7"/>
    <rect x="0"  y="0" height="4.96562" width="250" style="fill: #7b12c9"/>
    <rect x="0"  y="0" height="2.92844" width="250" style="fill: #4bca78"/>
    <rect x="0"  y="0" height="2.86478" width="250" style="fill: #199a3e"/>
    <rect x="0"  y="0" height="4.39267" width="250" style="fill: #4a704b"/>
    <rect x="0"  y="0" height="3.24675" width="250" style="fill: #de72e6"/>
    <rect x="0"  y="0" height="5.15661" width="250" style="fill: #952a7e"/>
    <rect x="0"  y="0" height="7.25745" width="250" style="fill: #3b9051"/>
    <rect x="0"  y="0" height="2.6738" width="250" style="fill: #86a10d"/>
    <rect x="0"  y="0" height="5.15661" width="250" style="fill: #f4774b"/>
    <rect x="0"  y="0" height="6.62083" width="250" style="fill: #219937"/>
    <rect x="0"  y="0" height="5.15661" width="250" style="fill: #0cc263"/>
    <rect x="0"  y="0" height="7.25745" width="250" style="fill: #09e993"/>
    <rect x="0"  y="0" height="4.13802" width="250" style="fill: #a19429"/>
    <rect x="0"  y="0" height="3.88337" width="250" style="fill: #12d891"/>
    <rect x="0"  y="0" height="5.41126" width="250" style="fill: #3b2d55"/>
    <rect x="0"  y="0" height="5.02928" width="250" style="fill: #451177"/>
    <rect x="0"  y="0" height="4.26534" width="250" style="fill: #47130a"/>
    <rect x="0"  y="0" height="4.96562" width="250" style="fill: #6bc0fe"/>
    <rect x="0"  y="0" height="3.69239" width="250" style="fill: #910799"/>
    <rect x="0"  y="0" height="4.77464" width="250" style="fill: #8d5baa"/>
    <rect x="0"  y="0" height="4.71098" width="250" style="fill: #0ef2f6"/>
    <rect x="0"  y="0" height="4.71098" width="250" style="fill: #94da7d"/>
    <rect x="0"  y="0" height="3.69239" width="250" style="fill: #5d81d8"/>
    <rect x="0"  y="0" height="12.0321" width="250" style="fill: #f790e2"/>
    <rect x="0"  y="0" height="6.68449" width="250" style="fill: #96fe19"/>
    <rect x="0"  y="0" height="4.64731" width="250" style="fill: #828747"/>
    <rect x="0"  y="0" height="6.36618" width="250" style="fill: #ddba82"/>
    <rect x="0"  y="0" height="3.24675" width="250" style="fill: #8d00ed"/>
    <rect x="0"  y="0" height="3.62872" width="250" style="fill: #8d41d2"/>
    <rect x="0"  y="0" height="2.73746" width="250" style="fill: #47935a"/>
    <rect x="0"  y="0" height="8.53069" width="250" style="fill: #dec550"/>
    <rect x="0"  y="0" height="3.5014" width="250" style="fill: #c3e8d6"/>
    <rect x="0"  y="0" height="4.26534" width="250" style="fill: #a53a61"/>
    <rect x="0"  y="0" height="5.79323" width="250" style="fill: #8eec0c"/>
    <rect x="0"  y="0" height="3.88337" width="250" style="fill: #f43878"/>
    <rect x="0"  y="0" height="4.64731" width="250" style="fill: #246f9c"/>
    <rect x="0"  y="0" height="4.329" width="250" style="fill: #f6fdec"/>
    <rect x="0"  y="0" height="6.04787" width="250" style="fill: #382638"/>
    <rect x="0"  y="0" height="3.88337" width="250" style="fill: #7b6676"/>
    <rect x="0"  y="0" height="4.13802" width="250" style="fill: #26a5e2"/>
    <rect x="0"  y="0" height="6.74815" width="250" style="fill: #d16400"/>
    <rect x="0"  y="0" height="7.32111" width="250" style="fill: #0f6fd4"/>
    <rect x="0"  y="0" height="3.05577" width="250" style="fill: #b0cd7f"/>
    <rect x="0"  y="0" height="4.71098" width="250" style="fill: #5eac42"/>
    <rect x="0"  y="0" height="7.06646" width="250" style="fill: #268db7"/>
    <rect x="0"  y="0" height="3.81971" width="250" style="fill: #f985d8"/>
    <rect x="0"  y="0" height="3.75605" width="250" style="fill: #5d7bc4"/>
    <rect x="0"  y="0" height="4.329" width="250" style="fill: #f75c5c"/>
    <rect x="0"  y="0" height="3.11943" width="250" style="fill: #baa66f"/>
    <rect x="0"  y="0" height="5.22027" width="250" style="fill: #895061"/>
    <rect x="0"  y="0" height="4.39267" width="250" style="fill: #75afa7"/>
    <rect x="0"  y="0" height="11.6501" width="250" style="fill: #704fb0"/>
    <rect x="0"  y="0" height="3.69239" width="250" style="fill: #3b787c"/>
    <rect x="0"  y="0" height="7.06646" width="250" style="fill: #427f8d"/>
    <rect x="0"  y="0" height="4.39267" width="250" style="fill: #e0631c"/>
    <rect x="0"  y="0" height="3.43774" width="250" style="fill: #481e8c"/>
    <rect x="0"  y="0" height="5.28393" width="250" style="fill: #5fc9e7"/>
    <rect x="0"  y="0" height="4.96562" width="250" style="fill: #9221a9"/>
    <rect x="0"  y="0" height="3.11943" width="250" style="fill: #dfc4e4"/>
    <rect x="0"  y="0" height="3.31042" width="250" style="fill: #2c58f6"/>
    <rect x="0"  y="0" height="4.26534" width="250" style="fill: #54e626"/>
    <rect x="0"  y="0" height="5.22027" width="250" style="fill: #286e14"/>
</svg>
</svg>
