<svg  xmlns="http://www.w3.org/2000/svg" xmlns:xlink="http://www.w3.org/1999/xlink" x="0" y="0" width="600" height="600">
<rect x="0%" y="0%" height="100%" width="100%" style="fill: #ffffff"/>
<svg x="0" y="0">
  <text fill="dark" font-size="35" transform="translate(250, 30)">cores</text>
</svg>
<svg x="0" y="0"> 
  <text fill="dark" font-size="35" transform="translate(30, 300) rotate(270)">time</text>
</svg>
<svg x = "50" y="550">
  <text fill="blue" font-size="30" transform="translate(0, 35)">t = 7s, lb = 0.991898</text>
</svg>
<svg x="50" y="50" width="500" height="500" >
  <rect x="0%" y="0%" height="100%" width="100%" style="fill: #eeeeee"/>
    <rect x="0"  y="0" height="2.18621" width="250" style="fill: #fbcaae"/>
    <rect x="0"  y="0" height="5.01543" width="250" style="fill: #a861da"/>
    <rect x="0"  y="0" height="4.75823" width="250" style="fill: #7c63ef"/>
    <rect x="0"  y="0" height="6.17284" width="250" style="fill: #224008"/>
    <rect x="0"  y="0" height="5.01543" width="250" style="fill: #b1e258"/>
    <rect x="0"  y="0" height="5.14403" width="250" style="fill: #354ffe"/>
    <rect x="0"  y="0" height="5.20833" width="250" style="fill: #d963a3"/>
    <rect x="0"  y="0" height="5.72274" width="250" style="fill: #e2f45d"/>
    <rect x="0"  y="0" height="8.10185" width="250" style="fill: #37f78f"/>
    <rect x="0"  y="0" height="5.07973" width="250" style="fill: #f30d66"/>
    <rect x="0"  y="0" height="5.27263" width="250" style="fill: #69ba8a"/>
    <rect x="0"  y="0" height="4.50103" width="250" style="fill: #864e9e"/>
    <rect x="0"  y="0" height="5.52984" width="250" style="fill: #1700c5"/>
    <rect x="0"  y="0" height="4.30813" width="250" style="fill: #dfdd75"/>
    <rect x="0"  y="0" height="3.53652" width="250" style="fill: #c68d4e"/>
    <rect x="0"  y="0" height="5.85134" width="250" style="fill: #3a7e40"/>
    <rect x="0"  y="0" height="3.08642" width="250" style="fill: #8c6caf"/>
    <rect x="0"  y="0" height="6.68724" width="250" style="fill: #bb7bb3"/>
    <rect x="0"  y="0" height="7.20165" width="250" style="fill: #182e59"/>
    <rect x="0"  y="0" height="5.01543" width="250" style="fill: #320bf4"/>
    <rect x="0"  y="0" height="5.33693" width="250" style="fill: #a2e102"/>
    <rect x="0"  y="0" height="5.85134" width="250" style="fill: #18e758"/>
    <rect x="0"  y="0" height="3.34362" width="250" style="fill: #703ebe"/>
    <rect x="0"  y="0" height="9.64506" width="250" style="fill: #1c63ac"/>
    <rect x="0"  y="0" height="5.07973" width="250" style="fill: #dded9d"/>
    <rect x="0"  y="0" height="7.20165" width="250" style="fill: #13ff4f"/>
    <rect x="0"  y="0" height="3.79372" width="250" style="fill: #167fdc"/>
    <rect x="0"  y="0" height="4.24383" width="250" style="fill: #74ca28"/>
    <rect x="0"  y="0" height="3.40792" width="250" style="fill: #834e7f"/>
    <rect x="0"  y="0" height="5.65844" width="250" style="fill: #a4c815"/>
    <rect x="0"  y="0" height="5.72274" width="250" style="fill: #52841d"/>
    <rect x="0"  y="0" height="5.65844" width="250" style="fill: #323b10"/>
    <rect x="0"  y="0" height="4.82253" width="250" style="fill: #785427"/>
    <rect x="0"  y="0" height="4.95113" width="250" style="fill: #cab082"/>
    <rect x="0"  y="0" height="4.11523" width="250" style="fill: #f36cb7"/>
    <rect x="0"  y="0" height="2.95782" width="250" style="fill: #119a5a"/>
    <rect x="0"  y="0" height="4.88683" width="250" style="fill: #79ca4d"/>
    <rect x="0"  y="0" height="10.4167" width="250" style="fill: #ab5ff7"/>
    <rect x="0"  y="0" height="5.14403" width="250" style="fill: #7b12c9"/>
    <rect x="0"  y="0" height="2.70062" width="250" style="fill: #4bca78"/>
    <rect x="0"  y="0" height="3.40792" width="250" style="fill: #199a3e"/>
    <rect x="0"  y="0" height="4.05093" width="250" style="fill: #4a704b"/>
    <rect x="0"  y="0" height="5.78704" width="250" style="fill: #de72e6"/>
    <rect x="0"  y="0" height="6.75154" width="250" style="fill: #952a7e"/>
    <rect x="0"  y="0" height="5.33693" width="250" style="fill: #3b9051"/>
    <rect x="0"  y="0" height="6.04424" width="250" style="fill: #86a10d"/>
    <rect x="0"  y="0" height="4.50103" width="250" style="fill: #f4774b"/>
    <rect x="0"  y="0" height="5.01543" width="250" style="fill: #219937"/>
    <rect x="0"  y="0" height="5.72274" width="250" style="fill: #0cc263"/>
    <rect x="0"  y="0" height="6.49434" width="250" style="fill: #09e993"/>
    <rect x="0"  y="0" height="3.85802" width="250" style="fill: #a19429"/>
    <rect x="0"  y="0" height="3.53652" width="250" style="fill: #12d891"/>
    <rect x="0"  y="0" height="5.20833" width="250" style="fill: #3b2d55"/>
    <rect x="0"  y="0" height="5.01543" width="250" style="fill: #451177"/>
    <rect x="0"  y="0" height="2.95782" width="250" style="fill: #47130a"/>
    <rect x="0"  y="0" height="3.60082" width="250" style="fill: #6bc0fe"/>
    <rect x="0"  y="0" height="4.17953" width="250" style="fill: #910799"/>
    <rect x="0"  y="0" height="4.69393" width="250" style="fill: #8d5baa"/>
    <rect x="0"  y="0" height="3.47222" width="250" style="fill: #0ef2f6"/>
    <rect x="0"  y="0" height="4.30813" width="250" style="fill: #94da7d"/>
    <rect x="0"  y="0" height="3.47222" width="250" style="fill: #5d81d8"/>
    <rect x="0"  y="0" height="5.91564" width="250" style="fill: #f790e2"/>
    <rect x="0"  y="0" height="7.78035" width="250" style="fill: #96fe19"/>
    <rect x="0"  y="0" height="4.05093" width="250" style="fill: #828747"/>
    <rect x="0"  y="0" height="8.42335" width="250" style="fill: #ddba82"/>
    <rect x="0"  y="0" height="4.30813" width="250" style="fill: #8d00ed"/>
    <rect x="0"  y="0" height="2.76492" width="250" style="fill: #8d41d2"/>
    <rect x="0"  y="0" height="4.95113" width="250" style="fill: #47935a"/>
    <rect x="0"  y="0" height="5.65844" width="250" style="fill: #dec550"/>
    <rect x="0"  y="0" height="4.05093" width="250" style="fill: #c3e8d6"/>
    <rect x="0"  y="0" height="4.50103" width="250" style="fill: #a53a61"/>
    <rect x="0"  y="0" height="5.78704" width="250" style="fill: #8eec0c"/>
    <rect x="0"  y="0" height="4.75823" width="250" style="fill: #f43878"/>
    <rect x="0"  y="0" height="4.62963" width="250" style="fill: #246f9c"/>
    <rect x="0"  y="0" height="5.59414" width="250" style="fill: #f6fdec"/>
    <rect x="0"  y="0" height="5.97994" width="250" style="fill: #382638"/>
    <rect x="0"  y="0" height="4.24383" width="250" style="fill: #7b6676"/>
    <rect x="0"  y="0" height="5.14403" width="250" style="fill: #26a5e2"/>
    <rect x="0"  y="0" height="5.65844" width="250" style="fill: #d16400"/>
    <rect x="0"  y="0" height="6.94444" width="250" style="fill: #0f6fd4"/>
    <rect x="0"  y="0" height="3.79372" width="250" style="fill: #b0cd7f"/>
    <rect x="0"  y="0" height="5.40123" width="250" style="fill: #5eac42"/>
    <rect x="0"  y="0" height="6.62294" width="250" style="fill: #268db7"/>
    <rect x="0"  y="0" height="4.30813" width="250" style="fill: #f985d8"/>
    <rect x="0"  y="0" height="4.05093" width="250" style="fill: #5d7bc4"/>
    <rect x="0"  y="0" height="5.72274" width="250" style="fill: #f75c5c"/>
    <rect x="0"  y="0" height="3.15072" width="250" style="fill: #baa66f"/>
    <rect x="0"  y="0" height="5.65844" width="250" style="fill: #895061"/>
    <rect x="0"  y="0" height="3.15072" width="250" style="fill: #75afa7"/>
    <rect x="0"  y="0" height="4.82253" width="250" style="fill: #704fb0"/>
    <rect x="0"  y="0" height="3.79372" width="250" style="fill: #3b787c"/>
    <rect x="0"  y="0" height="8.10185" width="250" style="fill: #427f8d"/>
    <rect x="0"  y="0" height="3.98663" width="250" style="fill: #e0631c"/>
    <rect x="0"  y="0" height="3.66512" width="250" style="fill: #481e8c"/>
    <rect x="0"  y="0" height="1.99331" width="250" style="fill: #5fc9e7"/>
    <rect x="0"  y="0" height="4.43673" width="250" style="fill: #9221a9"/>
    <rect x="0"  y="0" height="4.56533" width="250" style="fill: #dfc4e4"/>
    <rect x="0"  y="0" height="3.27932" width="250" style="fill: #2c58f6"/>
    <rect x="0"  y="0" height="4.69393" width="250" style="fill: #54e626"/>
    <rect x="0"  y="0" height="3.85802" width="250" style="fill: #286e14"/>
</svg>
</svg>
