<svg  xmlns="http://www.w3.org/2000/svg" xmlns:xlink="http://www.w3.org/1999/xlink" x="0" y="0" width="600" height="600">
<rect x="0%" y="0%" height="100%" width="100%" style="fill: #ffffff"/>
<svg x="0" y="0">
  <text fill="dark" font-size="35" transform="translate(250, 30)">cores</text>
</svg>
<svg x="0" y="0"> 
  <text fill="dark" font-size="35" transform="translate(30, 300) rotate(270)">time</text>
</svg>
<svg x = "50" y="550">
  <text fill="blue" font-size="30" transform="translate(0, 35)">t = 12s, lb = 0.995258</text>
</svg>
<svg x="50" y="50" width="500" height="500" >
  <rect x="0%" y="0%" height="100%" width="100%" style="fill: #eeeeee"/>
    <rect x="0"  y="0" height="35.1128" width="250" style="fill: #e16604"/>
    <rect x="0"  y="0" height="24.5667" width="250" style="fill: #a58921"/>
    <rect x="0"  y="0" height="23.3813" width="250" style="fill: #79064f"/>
    <rect x="0"  y="0" height="17.0046" width="250" style="fill: #fedd3c"/>
    <rect x="0"  y="0" height="21.2148" width="250" style="fill: #e4bd2c"/>
    <rect x="0"  y="0" height="14.3067" width="250" style="fill: #e0d46d"/>
    <rect x="0"  y="0" height="39.8136" width="250" style="fill: #8121a4"/>
    <rect x="0"  y="0" height="10.4644" width="250" style="fill: #22d282"/>
    <rect x="0"  y="0" height="8.62492" width="250" style="fill: #170e43"/>
    <rect x="0"  y="0" height="10.7096" width="250" style="fill: #b276f9"/>
    <rect x="0"  y="0" height="11.6906" width="250" style="fill: #2d9f10"/>
    <rect x="0"  y="0" height="8.42054" width="250" style="fill: #ca1fbb"/>
    <rect x="0"  y="0" height="34.377" width="250" style="fill: #3dd1f5"/>
    <rect x="0"  y="0" height="7.07162" width="250" style="fill: #30c3f0"/>
    <rect x="0"  y="0" height="7.9709" width="250" style="fill: #7a3e02"/>
    <rect x="0"  y="0" height="14.2659" width="250" style="fill: #830121"/>
    <rect x="0"  y="0" height="7.56213" width="250" style="fill: #1fb2e6"/>
    <rect x="0"  y="0" height="5.31393" width="250" style="fill: #e13b22"/>
    <rect x="0"  y="0" height="5.92708" width="250" style="fill: #153d92"/>
    <rect x="0"  y="0" height="5.0278" width="250" style="fill: #e0c1ec"/>
    <rect x="0"  y="0" height="6.21321" width="250" style="fill: #36f382"/>
    <rect x="0"  y="0" height="4.90517" width="250" style="fill: #5910cf"/>
    <rect x="0"  y="0" height="3.59712" width="250" style="fill: #7a0a53"/>
    <rect x="0"  y="0" height="6.94899" width="250" style="fill: #d68041"/>
    <rect x="0"  y="0" height="5.35481" width="250" style="fill: #221e30"/>
    <rect x="0"  y="0" height="4.78254" width="250" style="fill: #a66aae"/>
    <rect x="0"  y="0" height="4.3329" width="250" style="fill: #cf8df4"/>
    <rect x="0"  y="0" height="2.49346" width="250" style="fill: #c6ec13"/>
    <rect x="0"  y="0" height="4.21027" width="250" style="fill: #fea8ee"/>
    <rect x="0"  y="0" height="4.37377" width="250" style="fill: #900be3"/>
    <rect x="0"  y="0" height="4.29202" width="250" style="fill: #b89123"/>
    <rect x="0"  y="0" height="2.61609" width="250" style="fill: #0e28b2"/>
    <rect x="0"  y="0" height="3.06573" width="250" style="fill: #c78a49"/>
    <rect x="0"  y="0" height="3.84238" width="250" style="fill: #d377b5"/>
    <rect x="0"  y="0" height="2.9431" width="250" style="fill: #555503"/>
    <rect x="0"  y="0" height="13.0804" width="250" style="fill: #8bc2ce"/>
    <rect x="0"  y="0" height="4.78254" width="250" style="fill: #5cd848"/>
    <rect x="0"  y="0" height="3.55625" width="250" style="fill: #a002a4"/>
    <rect x="0"  y="0" height="3.47449" width="250" style="fill: #c873f3"/>
    <rect x="0"  y="0" height="1.67593" width="250" style="fill: #958ea8"/>
    <rect x="0"  y="0" height="2.2482" width="250" style="fill: #233e5f"/>
    <rect x="0"  y="0" height="1.88031" width="250" style="fill: #cac920"/>
    <rect x="0"  y="0" height="2.61609" width="250" style="fill: #2c12fb"/>
    <rect x="0"  y="0" height="2.86135" width="250" style="fill: #6b3de3"/>
    <rect x="0"  y="0" height="2.45258" width="250" style="fill: #078862"/>
    <rect x="0"  y="0" height="14.225" width="250" style="fill: #08536a"/>
    <rect x="0"  y="0" height="3.31099" width="250" style="fill: #325fc7"/>
    <rect x="0"  y="0" height="3.02485" width="250" style="fill: #fe4003"/>
    <rect x="0"  y="0" height="3.18836" width="250" style="fill: #c6ef3c"/>
    <rect x="0"  y="0" height="2.86135" width="250" style="fill: #244aca"/>
    <rect x="0"  y="0" height="1.75768" width="250" style="fill: #dd2208"/>
    <rect x="0"  y="0" height="1.79856" width="250" style="fill: #d3a226"/>
    <rect x="0"  y="0" height="2.90222" width="250" style="fill: #924d24"/>
    <rect x="0"  y="0" height="2.49346" width="250" style="fill: #0eaeee"/>
    <rect x="0"  y="0" height="2.61609" width="250" style="fill: #b02fbe"/>
    <rect x="0"  y="0" height="1.5533" width="250" style="fill: #98bbac"/>
    <rect x="0"  y="0" height="2.28908" width="250" style="fill: #37fd92"/>
    <rect x="0"  y="0" height="1.92119" width="250" style="fill: #434806"/>
    <rect x="0"  y="0" height="1.71681" width="250" style="fill: #d157f3"/>
    <rect x="0"  y="0" height="2.57521" width="250" style="fill: #5a379e"/>
    <rect x="0"  y="0" height="2.04382" width="250" style="fill: #6261d1"/>
    <rect x="0"  y="0" height="1.83944" width="250" style="fill: #d08de2"/>
    <rect x="0"  y="0" height="2.00294" width="250" style="fill: #f253a5"/>
    <rect x="0"  y="0" height="1.63506" width="250" style="fill: #976ef6"/>
    <rect x="0"  y="0" height="2.20733" width="250" style="fill: #1405ca"/>
    <rect x="0"  y="0" height="2.73872" width="250" style="fill: #32ca3a"/>
    <rect x="0"  y="0" height="2.16645" width="250" style="fill: #b1a3e8"/>
    <rect x="0"  y="0" height="0.981033" width="250" style="fill: #5daa05"/>
    <rect x="0"  y="0" height="1.34892" width="250" style="fill: #09c68b"/>
    <rect x="0"  y="0" height="1.06279" width="250" style="fill: #c90dec"/>
    <rect x="0"  y="0" height="1.06279" width="250" style="fill: #72e3c1"/>
    <rect x="0"  y="0" height="1.34892" width="250" style="fill: #d728a0"/>
    <rect x="0"  y="0" height="1.71681" width="250" style="fill: #00dbad"/>
    <rect x="0"  y="0" height="1.34892" width="250" style="fill: #0a7c1f"/>
    <rect x="0"  y="0" height="0.613146" width="250" style="fill: #8d88a7"/>
    <rect x="0"  y="0" height="0.817528" width="250" style="fill: #419255"/>
    <rect x="0"  y="0" height="0.572269" width="250" style="fill: #32c6a6"/>
    <rect x="0"  y="0" height="0.531393" width="250" style="fill: #6b6461"/>
    <rect x="0"  y="0" height="0.572269" width="250" style="fill: #16b82c"/>
    <rect x="0"  y="0" height="0.694899" width="250" style="fill: #7aa024"/>
    <rect x="0"  y="0" height="0.286135" width="250" style="fill: #76608b"/>
    <rect x="0"  y="0" height="0.44964" width="250" style="fill: #5cd128"/>
    <rect x="0"  y="0" height="0.531393" width="250" style="fill: #783ec9"/>
    <rect x="0"  y="0" height="0.408764" width="250" style="fill: #fefa61"/>
    <rect x="0"  y="0" height="0.531393" width="250" style="fill: #7ec1ee"/>
    <rect x="0"  y="0" height="0.490517" width="250" style="fill: #555b5d"/>
    <rect x="0"  y="0" height="0.531393" width="250" style="fill: #6a94bb"/>
    <rect x="0"  y="0" height="0.408764" width="250" style="fill: #c24f00"/>
    <rect x="0"  y="0" height="0.44964" width="250" style="fill: #8fe7a5"/>
    <rect x="0"  y="0" height="0.245258" width="250" style="fill: #813421"/>
    <rect x="0"  y="0" height="0.327011" width="250" style="fill: #37683b"/>
    <rect x="0"  y="0" height="0.44964" width="250" style="fill: #595fd0"/>
    <rect x="0"  y="0" height="0.44964" width="250" style="fill: #a92e83"/>
    <rect x="0"  y="0" height="0.367888" width="250" style="fill: #f02d7c"/>
    <rect x="0"  y="0" height="0.122629" width="250" style="fill: #20d54f"/>
    <rect x="0"  y="0" height="0.122629" width="250" style="fill: #677cfa"/>
    <rect x="0"  y="0" height="0.204382" width="250" style="fill: #753c41"/>
    <rect x="0"  y="0" height="0.204382" width="250" style="fill: #ceafd3"/>
    <rect x="0"  y="0" height="0.0817528" width="250" style="fill: #2c349b"/>
</svg>
</svg>
