<svg  xmlns="http://www.w3.org/2000/svg" xmlns:xlink="http://www.w3.org/1999/xlink" x="0" y="0" width="600" height="600">
<rect x="0%" y="0%" height="100%" width="100%" style="fill: #ffffff"/>
<svg x="0" y="0">
  <text fill="dark" font-size="35" transform="translate(250, 30)">cores</text>
</svg>
<svg x="0" y="0"> 
  <text fill="dark" font-size="35" transform="translate(30, 300) rotate(270)">time</text>
</svg>
<svg x = "50" y="550">
  <text fill="blue" font-size="30" transform="translate(0, 35)">t = 19s, lb = 0.996676</text>
</svg>
<svg x="50" y="50" width="500" height="500" >
  <rect x="0%" y="0%" height="100%" width="100%" style="fill: #eeeeee"/>
    <rect x="0"  y="0" height="71.525" width="250" style="fill: #5cc3ad"/>
    <rect x="0"  y="0" height="106.015" width="250" style="fill: #df6c1a"/>
    <rect x="0"  y="0" height="57.3187" width="250" style="fill: #df6ed3"/>
    <rect x="0"  y="0" height="20.5173" width="250" style="fill: #5f477b"/>
    <rect x="0"  y="0" height="8.23291" width="250" style="fill: #002298"/>
    <rect x="0"  y="0" height="18.1799" width="250" style="fill: #1e5e1f"/>
    <rect x="0"  y="0" height="15.7386" width="250" style="fill: #bfe1bf"/>
    <rect x="0"  y="0" height="6.62269" width="250" style="fill: #b8e26b"/>
    <rect x="0"  y="0" height="3.68793" width="250" style="fill: #5ba932"/>
    <rect x="0"  y="0" height="3.24642" width="250" style="fill: #53275b"/>
    <rect x="0"  y="0" height="3.86973" width="250" style="fill: #f6a44b"/>
    <rect x="0"  y="0" height="3.7139" width="250" style="fill: #3fa105"/>
    <rect x="0"  y="0" height="16.0503" width="250" style="fill: #1cdfe3"/>
    <rect x="0"  y="0" height="7.11614" width="250" style="fill: #b3f5d2"/>
    <rect x="0"  y="0" height="2.36339" width="250" style="fill: #725a9a"/>
    <rect x="0"  y="0" height="9.03802" width="250" style="fill: #580fd5"/>
    <rect x="0"  y="0" height="2.75296" width="250" style="fill: #b04525"/>
    <rect x="0"  y="0" height="2.18159" width="250" style="fill: #b3182f"/>
    <rect x="0"  y="0" height="4.28527" width="250" style="fill: #cd2b3f"/>
    <rect x="0"  y="0" height="4.51901" width="250" style="fill: #da124a"/>
    <rect x="0"  y="0" height="4.18138" width="250" style="fill: #ca3c90"/>
    <rect x="0"  y="0" height="6.25909" width="250" style="fill: #1406a2"/>
    <rect x="0"  y="0" height="2.46728" width="250" style="fill: #b55cd8"/>
    <rect x="0"  y="0" height="3.8957" width="250" style="fill: #b95d48"/>
    <rect x="0"  y="0" height="15.5049" width="250" style="fill: #d13e37"/>
    <rect x="0"  y="0" height="2.51922" width="250" style="fill: #9f1ccb"/>
    <rect x="0"  y="0" height="1.53231" width="250" style="fill: #cdfc39"/>
    <rect x="0"  y="0" height="3.11656" width="250" style="fill: #fee4ac"/>
    <rect x="0"  y="0" height="3.79181" width="250" style="fill: #c5523a"/>
    <rect x="0"  y="0" height="5.58384" width="250" style="fill: #a0bdef"/>
    <rect x="0"  y="0" height="4.57095" width="250" style="fill: #57e63a"/>
    <rect x="0"  y="0" height="4.2593" width="250" style="fill: #1f81cb"/>
    <rect x="0"  y="0" height="1.71411" width="250" style="fill: #aba9f4"/>
    <rect x="0"  y="0" height="3.06462" width="250" style="fill: #5caaed"/>
    <rect x="0"  y="0" height="1.84396" width="250" style="fill: #48d06b"/>
    <rect x="0"  y="0" height="5.37606" width="250" style="fill: #fb3d16"/>
    <rect x="0"  y="0" height="1.37648" width="250" style="fill: #836042"/>
    <rect x="0"  y="0" height="0.934968" width="250" style="fill: #bed57c"/>
    <rect x="0"  y="0" height="3.01267" width="250" style="fill: #ac8476"/>
    <rect x="0"  y="0" height="1.84396" width="250" style="fill: #1bfeb5"/>
    <rect x="0"  y="0" height="1.16871" width="250" style="fill: #9a0c81"/>
    <rect x="0"  y="0" height="2.12965" width="250" style="fill: #304908"/>
    <rect x="0"  y="0" height="1.42842" width="250" style="fill: #bb781e"/>
    <rect x="0"  y="0" height="1.55828" width="250" style="fill: #4bbdf2"/>
    <rect x="0"  y="0" height="1.14274" width="250" style="fill: #30d2e9"/>
    <rect x="0"  y="0" height="1.42842" width="250" style="fill: #77374b"/>
    <rect x="0"  y="0" height="3.22044" width="250" style="fill: #97bd0b"/>
    <rect x="0"  y="0" height="1.03885" width="250" style="fill: #6b7d38"/>
    <rect x="0"  y="0" height="1.50634" width="250" style="fill: #b73642"/>
    <rect x="0"  y="0" height="1.0908" width="250" style="fill: #8826a0"/>
    <rect x="0"  y="0" height="2.72699" width="250" style="fill: #f2729b"/>
    <rect x="0"  y="0" height="0.831082" width="250" style="fill: #e22902"/>
    <rect x="0"  y="0" height="1.74008" width="250" style="fill: #56dc30"/>
    <rect x="0"  y="0" height="1.0908" width="250" style="fill: #4e875c"/>
    <rect x="0"  y="0" height="0.934968" width="250" style="fill: #9d4b3f"/>
    <rect x="0"  y="0" height="3.3503" width="250" style="fill: #b2125a"/>
    <rect x="0"  y="0" height="1.29857" width="250" style="fill: #e3d0cd"/>
    <rect x="0"  y="0" height="1.06482" width="250" style="fill: #3130d6"/>
    <rect x="0"  y="0" height="3.29836" width="250" style="fill: #114989"/>
    <rect x="0"  y="0" height="0.77914" width="250" style="fill: #517aca"/>
    <rect x="0"  y="0" height="1.03885" width="250" style="fill: #97daa2"/>
    <rect x="0"  y="0" height="0.960939" width="250" style="fill: #485181"/>
    <rect x="0"  y="0" height="0.883025" width="250" style="fill: #eb31c0"/>
    <rect x="0"  y="0" height="0.753169" width="250" style="fill: #7d2c6a"/>
    <rect x="0"  y="0" height="0.649283" width="250" style="fill: #5bcc58"/>
    <rect x="0"  y="0" height="1.06482" width="250" style="fill: #7e048a"/>
    <rect x="0"  y="0" height="0.753169" width="250" style="fill: #6d2bea"/>
    <rect x="0"  y="0" height="0.623312" width="250" style="fill: #cd6fe2"/>
    <rect x="0"  y="0" height="1.40245" width="250" style="fill: #06f225"/>
    <rect x="0"  y="0" height="0.77914" width="250" style="fill: #c70846"/>
    <rect x="0"  y="0" height="0.649283" width="250" style="fill: #1b41fd"/>
    <rect x="0"  y="0" height="1.45439" width="250" style="fill: #b5ad08"/>
    <rect x="0"  y="0" height="1.37648" width="250" style="fill: #7c5dc4"/>
    <rect x="0"  y="0" height="1.03885" width="250" style="fill: #fcaeec"/>
    <rect x="0"  y="0" height="1.06482" width="250" style="fill: #3a3437"/>
    <rect x="0"  y="0" height="0.441513" width="250" style="fill: #a42e51"/>
    <rect x="0"  y="0" height="0.597341" width="250" style="fill: #b065d6"/>
    <rect x="0"  y="0" height="0.571369" width="250" style="fill: #e4332f"/>
    <rect x="0"  y="0" height="0.597341" width="250" style="fill: #71b109"/>
    <rect x="0"  y="0" height="0.883025" width="250" style="fill: #d33176"/>
    <rect x="0"  y="0" height="0.649283" width="250" style="fill: #81ab0f"/>
    <rect x="0"  y="0" height="0.415541" width="250" style="fill: #cbf31c"/>
    <rect x="0"  y="0" height="0.337627" width="250" style="fill: #9f1c23"/>
    <rect x="0"  y="0" height="0.519427" width="250" style="fill: #ba46b4"/>
    <rect x="0"  y="0" height="0.207771" width="250" style="fill: #f983af"/>
    <rect x="0"  y="0" height="0.311656" width="250" style="fill: #9214d1"/>
    <rect x="0"  y="0" height="0.233742" width="250" style="fill: #3ac3dd"/>
    <rect x="0"  y="0" height="0.285685" width="250" style="fill: #f6c03f"/>
    <rect x="0"  y="0" height="0.181799" width="250" style="fill: #3e9854"/>
    <rect x="0"  y="0" height="0.155828" width="250" style="fill: #c4d477"/>
    <rect x="0"  y="0" height="0.129857" width="250" style="fill: #41a557"/>
    <rect x="0"  y="0" height="0.103885" width="250" style="fill: #6812be"/>
    <rect x="0"  y="0" height="0.103885" width="250" style="fill: #0b5cb8"/>
    <rect x="0"  y="0" height="0.103885" width="250" style="fill: #bf647b"/>
    <rect x="0"  y="0" height="0.103885" width="250" style="fill: #930687"/>
    <rect x="0"  y="0" height="0.103885" width="250" style="fill: #ec881d"/>
    <rect x="0"  y="0" height="0.0519427" width="250" style="fill: #f76191"/>
    <rect x="0"  y="0" height="0.0519427" width="250" style="fill: #f9c468"/>
    <rect x="0"  y="0" height="0.0519427" width="250" style="fill: #c1736e"/>
</svg>
</svg>
