<svg  xmlns="http://www.w3.org/2000/svg" xmlns:xlink="http://www.w3.org/1999/xlink" x="0" y="0" width="600" height="600">
<rect x="0%" y="0%" height="100%" width="100%" style="fill: #ffffff"/>
<svg x="0" y="0">
  <text fill="dark" font-size="35" transform="translate(250, 30)">cores</text>
</svg>
<svg x="0" y="0"> 
  <text fill="dark" font-size="35" transform="translate(30, 300) rotate(270)">time</text>
</svg>
<svg x = "50" y="550">
  <text fill="blue" font-size="30" transform="translate(0, 35)">t = 11s, lb = 0.726937</text>
</svg>
<svg x="50" y="50" width="500" height="500" >
  <rect x="0%" y="0%" height="100%" width="100%" style="fill: #eeeeee"/>
    <rect x="0"  y="0" height="6.23137" width="55.5556" style="fill: #76931f"/>
    <rect x="222.222"  y="0" height="13.9529" width="55.5556" style="fill: #ac9dab"/>
    <rect x="111.111"  y="0" height="6.9087" width="55.5556" style="fill: #2b36c2"/>
    <rect x="55.5556"  y="0" height="3.83816" width="55.5556" style="fill: #48b87d"/>
    <rect x="333.333"  y="0" height="182.064" width="55.5556" style="fill: #6ae33f"/>
    <rect x="277.778"  y="0" height="6.23137" width="55.5556" style="fill: #9a62d7"/>
    <rect x="166.667"  y="0" height="33.7759" width="55.5556" style="fill: #183a5d"/>
    <rect x="388.889"  y="0" height="49.851" width="55.5556" style="fill: #5789e4"/>
    <rect x="55.5556"  y="0" height="5.82498" width="55.5556" style="fill: #b2d6b4"/>
    <rect x="0"  y="0" height="44.613" width="55.5556" style="fill: #41e241"/>
    <rect x="277.778"  y="0" height="19.7778" width="55.5556" style="fill: #1dc709"/>
    <rect x="111.111"  y="0" height="28.3573" width="55.5556" style="fill: #e111c7"/>
    <rect x="55.5556"  y="0" height="10.0695" width="55.5556" style="fill: #e1e7ac"/>
    <rect x="222.222"  y="0" height="6.27653" width="55.5556" style="fill: #b6f8ca"/>
    <rect x="55.5556"  y="0" height="3.97363" width="55.5556" style="fill: #c0bb2f"/>
    <rect x="222.222"  y="0" height="30.5699" width="55.5556" style="fill: #c4c8bc"/>
    <rect x="55.5556"  y="0" height="4.33487" width="55.5556" style="fill: #2ae3ba"/>
    <rect x="277.778"  y="0" height="9.75345" width="55.5556" style="fill: #aab916"/>
    <rect x="55.5556"  y="0" height="5.41859" width="55.5556" style="fill: #5cc458"/>
    <rect x="55.5556"  y="0" height="78.2986" width="55.5556" style="fill: #e199cb"/>
    <rect x="166.667"  y="0" height="34.4983" width="55.5556" style="fill: #89f51b"/>
    <rect x="111.111"  y="0" height="7.85695" width="55.5556" style="fill: #135f70"/>
    <rect x="277.778"  y="0" height="4.92188" width="55.5556" style="fill: #91a5ab"/>
    <rect x="277.778"  y="0" height="13.2755" width="55.5556" style="fill: #b0874d"/>
    <rect x="111.111"  y="0" height="15.8494" width="55.5556" style="fill: #f3e8cb"/>
    <rect x="388.889"  y="0" height="5.77982" width="55.5556" style="fill: #4543a5"/>
    <rect x="0"  y="0" height="4.38002" width="55.5556" style="fill: #eb93b0"/>
    <rect x="222.222"  y="0" height="3.61239" width="55.5556" style="fill: #441e9c"/>
    <rect x="277.778"  y="0" height="5.32828" width="55.5556" style="fill: #a4c2b0"/>
    <rect x="222.222"  y="0" height="17.7459" width="55.5556" style="fill: #fb3d30"/>
    <rect x="0"  y="0" height="15.2172" width="55.5556" style="fill: #875cbf"/>
    <rect x="388.889"  y="0" height="12.9143" width="55.5556" style="fill: #29abd5"/>
    <rect x="111.111"  y="0" height="5.41859" width="55.5556" style="fill: #b1acf3"/>
    <rect x="277.778"  y="0" height="5.37343" width="55.5556" style="fill: #8984b3"/>
    <rect x="111.111"  y="0" height="155.242" width="55.5556" style="fill: #5ae882"/>
    <rect x="277.778"  y="0" height="4.38002" width="55.5556" style="fill: #809dd4"/>
    <rect x="166.667"  y="0" height="18.4683" width="55.5556" style="fill: #cfe7ab"/>
    <rect x="388.889"  y="0" height="50.3477" width="55.5556" style="fill: #c5c61b"/>
    <rect x="277.778"  y="0" height="21.2679" width="55.5556" style="fill: #aa52e0"/>
    <rect x="0"  y="0" height="9.07613" width="55.5556" style="fill: #53b4c3"/>
    <rect x="222.222"  y="0" height="22.6226" width="55.5556" style="fill: #643f20"/>
    <rect x="0"  y="0" height="29.6668" width="55.5556" style="fill: #4ef259"/>
    <rect x="166.667"  y="0" height="19.8681" width="55.5556" style="fill: #d2e980"/>
    <rect x="277.778"  y="0" height="15.9397" width="55.5556" style="fill: #42a948"/>
    <rect x="222.222"  y="0" height="4.01878" width="55.5556" style="fill: #aac5e8"/>
    <rect x="222.222"  y="0" height="5.41859" width="55.5556" style="fill: #84cb3e"/>
    <rect x="222.222"  y="0" height="7.72148" width="55.5556" style="fill: #c7db92"/>
    <rect x="277.778"  y="0" height="3.92847" width="55.5556" style="fill: #5643fd"/>
    <rect x="166.667"  y="0" height="17.0234" width="55.5556" style="fill: #34fdd4"/>
    <rect x="0"  y="0" height="33.8662" width="55.5556" style="fill: #67e2cc"/>
    <rect x="277.778"  y="0" height="22.3968" width="55.5556" style="fill: #a40603"/>
    <rect x="55.5556"  y="0" height="9.57283" width="55.5556" style="fill: #5cb274"/>
    <rect x="222.222"  y="0" height="4.06394" width="55.5556" style="fill: #4cb90a"/>
    <rect x="222.222"  y="0" height="383.591" width="55.5556" style="fill: #63e51c"/>
    <rect x="388.889"  y="0" height="8.12788" width="55.5556" style="fill: #973790"/>
    <rect x="55.5556"  y="0" height="57.7079" width="55.5556" style="fill: #334394"/>
    <rect x="166.667"  y="0" height="13.3207" width="55.5556" style="fill: #7e0208"/>
    <rect x="388.889"  y="0" height="13.1401" width="55.5556" style="fill: #6541e4"/>
    <rect x="277.778"  y="0" height="40.3233" width="55.5556" style="fill: #c48a99"/>
    <rect x="166.667"  y="0" height="13.4562" width="55.5556" style="fill: #630aa9"/>
    <rect x="388.889"  y="0" height="11.5145" width="55.5556" style="fill: #aece15"/>
    <rect x="0"  y="0" height="10.3856" width="55.5556" style="fill: #3843a4"/>
    <rect x="166.667"  y="0" height="34.6338" width="55.5556" style="fill: #b19027"/>
    <rect x="388.889"  y="0" height="19.5069" width="55.5556" style="fill: #4ebc95"/>
    <rect x="0"  y="0" height="70.0804" width="55.5556" style="fill: #5f8592"/>
    <rect x="388.889"  y="0" height="15.8494" width="55.5556" style="fill: #e30a22"/>
    <rect x="277.778"  y="0" height="5.14766" width="55.5556" style="fill: #05a485"/>
    <rect x="277.778"  y="0" height="95.4123" width="55.5556" style="fill: #846248"/>
    <rect x="55.5556"  y="0" height="115.235" width="55.5556" style="fill: #987550"/>
    <rect x="333.333"  y="0" height="30.6602" width="55.5556" style="fill: #aaf209"/>
    <rect x="166.667"  y="0" height="8.98582" width="55.5556" style="fill: #4ec59e"/>
    <rect x="388.889"  y="0" height="24.4739" width="55.5556" style="fill: #7931dc"/>
    <rect x="166.667"  y="0" height="14.9463" width="55.5556" style="fill: #650c74"/>
    <rect x="166.667"  y="0" height="123.589" width="55.5556" style="fill: #51cc61"/>
    <rect x="388.889"  y="0" height="57.8886" width="55.5556" style="fill: #c0cb2c"/>
    <rect x="333.333"  y="0" height="27.3639" width="55.5556" style="fill: #46a1b3"/>
    <rect x="111.111"  y="0" height="17.4749" width="55.5556" style="fill: #f2c349"/>
    <rect x="0"  y="0" height="14.3593" width="55.5556" style="fill: #faff76"/>
    <rect x="111.111"  y="0" height="14.9011" width="55.5556" style="fill: #3c7f8d"/>
    <rect x="0"  y="0" height="16.8879" width="55.5556" style="fill: #14ddff"/>
    <rect x="333.333"  y="0" height="11.0629" width="55.5556" style="fill: #946351"/>
    <rect x="333.333"  y="0" height="4.1994" width="55.5556" style="fill: #744378"/>
    <rect x="111.111"  y="0" height="24.1579" width="55.5556" style="fill: #d62c59"/>
    <rect x="0"  y="0" height="9.88892" width="55.5556" style="fill: #285a8d"/>
    <rect x="333.333"  y="0" height="8.8052" width="55.5556" style="fill: #791561"/>
    <rect x="333.333"  y="0" height="87.1941" width="55.5556" style="fill: #4f5a2a"/>
    <rect x="0"  y="0" height="4.47033" width="55.5556" style="fill: #c9e0d6"/>
    <rect x="0"  y="0" height="100.424" width="55.5556" style="fill: #8aca62"/>
    <rect x="388.889"  y="0" height="21.6743" width="55.5556" style="fill: #48a922"/>
    <rect x="277.778"  y="0" height="13.2304" width="55.5556" style="fill: #7ab8f1"/>
    <rect x="111.111"  y="0" height="88.2778" width="55.5556" style="fill: #930ee3"/>
    <rect x="277.778"  y="0" height="18.649" width="55.5556" style="fill: #8ac7a9"/>
    <rect x="388.889"  y="0" height="18.7393" width="55.5556" style="fill: #d239c9"/>
    <rect x="55.5556"  y="0" height="12.1015" width="55.5556" style="fill: #b026a4"/>
    <rect x="277.778"  y="0" height="12.5531" width="55.5556" style="fill: #81e49d"/>
    <rect x="55.5556"  y="0" height="23.3451" width="55.5556" style="fill: #53161f"/>
    <rect x="388.889"  y="0" height="5.32828" width="55.5556" style="fill: #9a9513"/>
    <rect x="388.889"  y="0" height="17.9265" width="55.5556" style="fill: #fe5271"/>
    <rect x="277.778"  y="0" height="4.28971" width="55.5556" style="fill: #c32e9c"/>
    <rect x="277.778"  y="0" height="5.28312" width="55.5556" style="fill: #21d156"/>
</svg>
</svg>
