<svg  xmlns="http://www.w3.org/2000/svg" xmlns:xlink="http://www.w3.org/1999/xlink" x="0" y="0" width="600" height="600">
<rect x="0%" y="0%" height="100%" width="100%" style="fill: #ffffff"/>
<svg x="0" y="0">
  <text fill="dark" font-size="35" transform="translate(250, 30)">cores</text>
</svg>
<svg x="0" y="0"> 
  <text fill="dark" font-size="35" transform="translate(30, 300) rotate(270)">time</text>
</svg>
<svg x = "50" y="550">
  <text fill="blue" font-size="30" transform="translate(0, 35)">t = 11s, lb = 0.994802</text>
</svg>
<svg x="50" y="50" width="500" height="500" >
  <rect x="0%" y="0%" height="100%" width="100%" style="fill: #eeeeee"/>
    <rect x="0"  y="0" height="78.2635" width="250" style="fill: #1cbe1f"/>
    <rect x="0"  y="0" height="27.0961" width="250" style="fill: #e87546"/>
    <rect x="0"  y="0" height="22.1541" width="250" style="fill: #fcb28f"/>
    <rect x="0"  y="0" height="28.8003" width="250" style="fill: #35ee4b"/>
    <rect x="0"  y="0" height="24.199" width="250" style="fill: #1674a0"/>
    <rect x="0"  y="0" height="46.1827" width="250" style="fill: #fbcaae"/>
    <rect x="0"  y="0" height="18.2345" width="250" style="fill: #a861da"/>
    <rect x="0"  y="0" height="8.90423" width="250" style="fill: #7c63ef"/>
    <rect x="0"  y="0" height="15.2948" width="250" style="fill: #224008"/>
    <rect x="0"  y="0" height="24.4973" width="250" style="fill: #b1e258"/>
    <rect x="0"  y="0" height="5.96455" width="250" style="fill: #354ffe"/>
    <rect x="0"  y="0" height="6.00716" width="250" style="fill: #d963a3"/>
    <rect x="0"  y="0" height="13.1646" width="250" style="fill: #e2f45d"/>
    <rect x="0"  y="0" height="6.60361" width="250" style="fill: #37f78f"/>
    <rect x="0"  y="0" height="5.53851" width="250" style="fill: #f30d66"/>
    <rect x="0"  y="0" height="5.19768" width="250" style="fill: #69ba8a"/>
    <rect x="0"  y="0" height="4.47342" width="250" style="fill: #864e9e"/>
    <rect x="0"  y="0" height="4.2604" width="250" style="fill: #1700c5"/>
    <rect x="0"  y="0" height="12.9516" width="250" style="fill: #dfdd75"/>
    <rect x="0"  y="0" height="7.41309" width="250" style="fill: #c68d4e"/>
    <rect x="0"  y="0" height="7.41309" width="250" style="fill: #3a7e40"/>
    <rect x="0"  y="0" height="6.39059" width="250" style="fill: #8c6caf"/>
    <rect x="0"  y="0" height="3.87696" width="250" style="fill: #bb7bb3"/>
    <rect x="0"  y="0" height="2.38582" width="250" style="fill: #182e59"/>
    <rect x="0"  y="0" height="3.53613" width="250" style="fill: #320bf4"/>
    <rect x="0"  y="0" height="2.89707" width="250" style="fill: #a2e102"/>
    <rect x="0"  y="0" height="2.42843" width="250" style="fill: #18e758"/>
    <rect x="0"  y="0" height="1.57635" width="250" style="fill: #703ebe"/>
    <rect x="0"  y="0" height="3.36571" width="250" style="fill: #1c63ac"/>
    <rect x="0"  y="0" height="2.55624" width="250" style="fill: #dded9d"/>
    <rect x="0"  y="0" height="1.87457" width="250" style="fill: #13ff4f"/>
    <rect x="0"  y="0" height="2.38582" width="250" style="fill: #167fdc"/>
    <rect x="0"  y="0" height="3.74915" width="250" style="fill: #74ca28"/>
    <rect x="0"  y="0" height="2.42843" width="250" style="fill: #834e7f"/>
    <rect x="0"  y="0" height="2.30061" width="250" style="fill: #a4c815"/>
    <rect x="0"  y="0" height="2.08759" width="250" style="fill: #52841d"/>
    <rect x="0"  y="0" height="8.73381" width="250" style="fill: #323b10"/>
    <rect x="0"  y="0" height="2.76926" width="250" style="fill: #785427"/>
    <rect x="0"  y="0" height="2.47103" width="250" style="fill: #cab082"/>
    <rect x="0"  y="0" height="2.00239" width="250" style="fill: #f36cb7"/>
    <rect x="0"  y="0" height="4.2604" width="250" style="fill: #119a5a"/>
    <rect x="0"  y="0" height="1.23551" width="250" style="fill: #79ca4d"/>
    <rect x="0"  y="0" height="2.00239" width="250" style="fill: #ab5ff7"/>
    <rect x="0"  y="0" height="1.15031" width="250" style="fill: #7b12c9"/>
    <rect x="0"  y="0" height="2.30061" width="250" style="fill: #4bca78"/>
    <rect x="0"  y="0" height="1.91718" width="250" style="fill: #199a3e"/>
    <rect x="0"  y="0" height="1.57635" width="250" style="fill: #4a704b"/>
    <rect x="0"  y="0" height="1.74676" width="250" style="fill: #de72e6"/>
    <rect x="0"  y="0" height="2.76926" width="250" style="fill: #952a7e"/>
    <rect x="0"  y="0" height="1.61895" width="250" style="fill: #3b9051"/>
    <rect x="0"  y="0" height="1.0651" width="250" style="fill: #86a10d"/>
    <rect x="0"  y="0" height="2.08759" width="250" style="fill: #f4774b"/>
    <rect x="0"  y="0" height="1.15031" width="250" style="fill: #219937"/>
    <rect x="0"  y="0" height="1.36333" width="250" style="fill: #0cc263"/>
    <rect x="0"  y="0" height="1.70416" width="250" style="fill: #09e993"/>
    <rect x="0"  y="0" height="1.61895" width="250" style="fill: #a19429"/>
    <rect x="0"  y="0" height="2.68405" width="250" style="fill: #12d891"/>
    <rect x="0"  y="0" height="5.66633" width="250" style="fill: #3b2d55"/>
    <rect x="0"  y="0" height="1.57635" width="250" style="fill: #451177"/>
    <rect x="0"  y="0" height="1.0651" width="250" style="fill: #47130a"/>
    <rect x="0"  y="0" height="1.40593" width="250" style="fill: #6bc0fe"/>
    <rect x="0"  y="0" height="1.66155" width="250" style="fill: #910799"/>
    <rect x="0"  y="0" height="1.15031" width="250" style="fill: #8d5baa"/>
    <rect x="0"  y="0" height="0.937287" width="250" style="fill: #0ef2f6"/>
    <rect x="0"  y="0" height="1.02249" width="250" style="fill: #94da7d"/>
    <rect x="0"  y="0" height="0.852079" width="250" style="fill: #5d81d8"/>
    <rect x="0"  y="0" height="0.766871" width="250" style="fill: #f790e2"/>
    <rect x="0"  y="0" height="0.894683" width="250" style="fill: #96fe19"/>
    <rect x="0"  y="0" height="0.979891" width="250" style="fill: #828747"/>
    <rect x="0"  y="0" height="2.51363" width="250" style="fill: #ddba82"/>
    <rect x="0"  y="0" height="0.852079" width="250" style="fill: #8d00ed"/>
    <rect x="0"  y="0" height="0.553851" width="250" style="fill: #8d41d2"/>
    <rect x="0"  y="0" height="0.639059" width="250" style="fill: #47935a"/>
    <rect x="0"  y="0" height="0.809475" width="250" style="fill: #dec550"/>
    <rect x="0"  y="0" height="0.766871" width="250" style="fill: #c3e8d6"/>
    <rect x="0"  y="0" height="0.681663" width="250" style="fill: #a53a61"/>
    <rect x="0"  y="0" height="0.596455" width="250" style="fill: #8eec0c"/>
    <rect x="0"  y="0" height="0.639059" width="250" style="fill: #f43878"/>
    <rect x="0"  y="0" height="0.639059" width="250" style="fill: #246f9c"/>
    <rect x="0"  y="0" height="0.681663" width="250" style="fill: #f6fdec"/>
    <rect x="0"  y="0" height="0.468643" width="250" style="fill: #382638"/>
    <rect x="0"  y="0" height="0.553851" width="250" style="fill: #7b6676"/>
    <rect x="0"  y="0" height="0.553851" width="250" style="fill: #26a5e2"/>
    <rect x="0"  y="0" height="0.468643" width="250" style="fill: #d16400"/>
    <rect x="0"  y="0" height="0.42604" width="250" style="fill: #0f6fd4"/>
    <rect x="0"  y="0" height="0.340832" width="250" style="fill: #b0cd7f"/>
    <rect x="0"  y="0" height="0.340832" width="250" style="fill: #5eac42"/>
    <rect x="0"  y="0" height="0.170416" width="250" style="fill: #268db7"/>
    <rect x="0"  y="0" height="0.340832" width="250" style="fill: #f985d8"/>
    <rect x="0"  y="0" height="0.255624" width="250" style="fill: #5d7bc4"/>
    <rect x="0"  y="0" height="0.170416" width="250" style="fill: #f75c5c"/>
    <rect x="0"  y="0" height="0.127812" width="250" style="fill: #baa66f"/>
    <rect x="0"  y="0" height="0.255624" width="250" style="fill: #895061"/>
    <rect x="0"  y="0" height="0.255624" width="250" style="fill: #75afa7"/>
    <rect x="0"  y="0" height="0.21302" width="250" style="fill: #704fb0"/>
    <rect x="0"  y="0" height="0.0852079" width="250" style="fill: #3b787c"/>
    <rect x="0"  y="0" height="0.170416" width="250" style="fill: #427f8d"/>
    <rect x="0"  y="0" height="0.0852079" width="250" style="fill: #e0631c"/>
    <rect x="0"  y="0" height="0.0852079" width="250" style="fill: #481e8c"/>
</svg>
</svg>
