<svg  xmlns="http://www.w3.org/2000/svg" xmlns:xlink="http://www.w3.org/1999/xlink" x="0" y="0" width="600" height="600">
<rect x="0%" y="0%" height="100%" width="100%" style="fill: #ffffff"/>
<svg x="0" y="0">
  <text fill="dark" font-size="35" transform="translate(250, 30)">cores</text>
</svg>
<svg x="0" y="0"> 
  <text fill="dark" font-size="35" transform="translate(30, 300) rotate(270)">time</text>
</svg>
<svg x = "50" y="550">
  <text fill="blue" font-size="30" transform="translate(0, 35)">t = 39s, lb = 0.339174</text>
</svg>
<svg x="50" y="50" width="500" height="500" >
  <rect x="0%" y="0%" height="100%" width="100%" style="fill: #eeeeee"/>
    <rect x="0"  y="0" height="6.17079" width="55.5556" style="fill: #76931f"/>
    <rect x="222.222"  y="0" height="1.50445" width="55.5556" style="fill: #ac9dab"/>
    <rect x="111.111"  y="0" height="1.4152" width="55.5556" style="fill: #2b36c2"/>
    <rect x="55.5556"  y="0" height="10.4292" width="55.5556" style="fill: #48b87d"/>
    <rect x="333.333"  y="0" height="5.26557" width="55.5556" style="fill: #6ae33f"/>
    <rect x="277.778"  y="0" height="26.2896" width="55.5556" style="fill: #9a62d7"/>
    <rect x="166.667"  y="0" height="1.47895" width="55.5556" style="fill: #183a5d"/>
    <rect x="388.889"  y="0" height="2.75391" width="55.5556" style="fill: #5789e4"/>
    <rect x="111.111"  y="0" height="1.79769" width="55.5556" style="fill: #b2d6b4"/>
    <rect x="166.667"  y="0" height="5.80106" width="55.5556" style="fill: #41e241"/>
    <rect x="222.222"  y="0" height="4.14361" width="55.5556" style="fill: #1dc709"/>
    <rect x="388.889"  y="0" height="3.63363" width="55.5556" style="fill: #e111c7"/>
    <rect x="111.111"  y="0" height="1.28771" width="55.5556" style="fill: #e1e7ac"/>
    <rect x="111.111"  y="0" height="3.32764" width="55.5556" style="fill: #b6f8ca"/>
    <rect x="333.333"  y="0" height="1.40245" width="55.5556" style="fill: #c0bb2f"/>
    <rect x="222.222"  y="0" height="10.3399" width="55.5556" style="fill: #c4c8bc"/>
    <rect x="0"  y="0" height="52.1713" width="55.5556" style="fill: #2ae3ba"/>
    <rect x="388.889"  y="0" height="1.07096" width="55.5556" style="fill: #aab916"/>
    <rect x="333.333"  y="0" height="3.74837" width="55.5556" style="fill: #5cc458"/>
    <rect x="166.667"  y="0" height="6.46403" width="55.5556" style="fill: #e199cb"/>
    <rect x="388.889"  y="0" height="14.407" width="55.5556" style="fill: #89f51b"/>
    <rect x="111.111"  y="0" height="1.04546" width="55.5556" style="fill: #135f70"/>
    <rect x="111.111"  y="0" height="1.12196" width="55.5556" style="fill: #91a5ab"/>
    <rect x="111.111"  y="0" height="6.28554" width="55.5556" style="fill: #b0874d"/>
    <rect x="333.333"  y="0" height="1.5937" width="55.5556" style="fill: #f3e8cb"/>
    <rect x="55.5556"  y="0" height="23.6505" width="55.5556" style="fill: #4543a5"/>
    <rect x="333.333"  y="0" height="8.07048" width="55.5556" style="fill: #eb93b0"/>
    <rect x="166.667"  y="0" height="5.20183" width="55.5556" style="fill: #441e9c"/>
    <rect x="222.222"  y="0" height="3.85037" width="55.5556" style="fill: #a4c2b0"/>
    <rect x="111.111"  y="0" height="4.87034" width="55.5556" style="fill: #fb3d30"/>
    <rect x="166.667"  y="0" height="7.5605" width="55.5556" style="fill: #875cbf"/>
    <rect x="222.222"  y="0" height="5.82655" width="55.5556" style="fill: #29abd5"/>
    <rect x="333.333"  y="0" height="2.61366" width="55.5556" style="fill: #b1acf3"/>
    <rect x="111.111"  y="0" height="11.2451" width="55.5556" style="fill: #8984b3"/>
    <rect x="388.889"  y="0" height="4.65359" width="55.5556" style="fill: #5ae882"/>
    <rect x="333.333"  y="0" height="6.60428" width="55.5556" style="fill: #809dd4"/>
    <rect x="222.222"  y="0" height="61.0067" width="55.5556" style="fill: #cfe7ab"/>
    <rect x="277.778"  y="0" height="5.58431" width="55.5556" style="fill: #c5c61b"/>
    <rect x="166.667"  y="0" height="6.73177" width="55.5556" style="fill: #aa52e0"/>
    <rect x="388.889"  y="0" height="48.3974" width="55.5556" style="fill: #53b4c3"/>
    <rect x="333.333"  y="0" height="470.638" width="55.5556" style="fill: #643f20"/>
    <rect x="277.778"  y="0" height="2.69016" width="55.5556" style="fill: #4ef259"/>
    <rect x="111.111"  y="0" height="1.10921" width="55.5556" style="fill: #d2e980"/>
    <rect x="166.667"  y="0" height="5.63531" width="55.5556" style="fill: #42a948"/>
    <rect x="111.111"  y="0" height="1.37695" width="55.5556" style="fill: #aac5e8"/>
    <rect x="55.5556"  y="0" height="3.49338" width="55.5556" style="fill: #84cb3e"/>
    <rect x="277.778"  y="0" height="4.25836" width="55.5556" style="fill: #c7db92"/>
    <rect x="111.111"  y="0" height="3.30214" width="55.5556" style="fill: #5643fd"/>
    <rect x="55.5556"  y="0" height="10.0594" width="55.5556" style="fill: #34fdd4"/>
    <rect x="111.111"  y="0" height="1.04546" width="55.5556" style="fill: #67e2cc"/>
    <rect x="277.778"  y="0" height="5.75006" width="55.5556" style="fill: #a40603"/>
    <rect x="166.667"  y="0" height="1.72119" width="55.5556" style="fill: #5cb274"/>
    <rect x="111.111"  y="0" height="3.54438" width="55.5556" style="fill: #4cb90a"/>
    <rect x="166.667"  y="0" height="5.18908" width="55.5556" style="fill: #63e51c"/>
    <rect x="111.111"  y="0" height="13.1066" width="55.5556" style="fill: #973790"/>
    <rect x="277.778"  y="0" height="4.25836" width="55.5556" style="fill: #334394"/>
    <rect x="166.667"  y="0" height="1.21121" width="55.5556" style="fill: #7e0208"/>
    <rect x="166.667"  y="0" height="2.25667" width="55.5556" style="fill: #6541e4"/>
    <rect x="55.5556"  y="0" height="1.04546" width="55.5556" style="fill: #c48a99"/>
    <rect x="55.5556"  y="0" height="4.64084" width="55.5556" style="fill: #630aa9"/>
    <rect x="277.778"  y="0" height="1.09646" width="55.5556" style="fill: #aece15"/>
    <rect x="166.667"  y="0" height="16.4979" width="55.5556" style="fill: #3843a4"/>
    <rect x="277.778"  y="0" height="2.57541" width="55.5556" style="fill: #b19027"/>
    <rect x="277.778"  y="0" height="4.93408" width="55.5556" style="fill: #4ebc95"/>
    <rect x="55.5556"  y="0" height="10.8499" width="55.5556" style="fill: #5f8592"/>
    <rect x="111.111"  y="0" height="7.82824" width="55.5556" style="fill: #e30a22"/>
    <rect x="277.778"  y="0" height="9.88092" width="55.5556" style="fill: #05a485"/>
    <rect x="0"  y="0" height="3.78662" width="55.5556" style="fill: #846248"/>
    <rect x="0"  y="0" height="10.1869" width="55.5556" style="fill: #987550"/>
    <rect x="111.111"  y="0" height="10.8116" width="55.5556" style="fill: #aaf209"/>
    <rect x="55.5556"  y="0" height="3.09815" width="55.5556" style="fill: #4ec59e"/>
    <rect x="166.667"  y="0" height="7.16526" width="55.5556" style="fill: #7931dc"/>
    <rect x="55.5556"  y="0" height="1.14746" width="55.5556" style="fill: #650c74"/>
    <rect x="277.778"  y="0" height="1.75944" width="55.5556" style="fill: #51cc61"/>
    <rect x="55.5556"  y="0" height="25.2569" width="55.5556" style="fill: #c0cb2c"/>
    <rect x="277.778"  y="0" height="15.6947" width="55.5556" style="fill: #46a1b3"/>
    <rect x="0"  y="0" height="4.74284" width="55.5556" style="fill: #f2c349"/>
    <rect x="166.667"  y="0" height="3.64638" width="55.5556" style="fill: #faff76"/>
    <rect x="111.111"  y="0" height="7.75174" width="55.5556" style="fill: #3c7f8d"/>
    <rect x="388.889"  y="0" height="19.1499" width="55.5556" style="fill: #14ddff"/>
    <rect x="166.667"  y="0" height="3.37864" width="55.5556" style="fill: #946351"/>
    <rect x="0"  y="0" height="1.28771" width="55.5556" style="fill: #744378"/>
    <rect x="0"  y="0" height="13.3233" width="55.5556" style="fill: #d62c59"/>
    <rect x="166.667"  y="0" height="4.97233" width="55.5556" style="fill: #285a8d"/>
    <rect x="111.111"  y="0" height="5.55881" width="55.5556" style="fill: #791561"/>
    <rect x="277.778"  y="0" height="4.24561" width="55.5556" style="fill: #4f5a2a"/>
    <rect x="166.667"  y="0" height="4.66634" width="55.5556" style="fill: #c9e0d6"/>
    <rect x="222.222"  y="0" height="7.16526" width="55.5556" style="fill: #8aca62"/>
    <rect x="111.111"  y="0" height="27.4243" width="55.5556" style="fill: #48a922"/>
    <rect x="277.778"  y="0" height="8.33822" width="55.5556" style="fill: #7ab8f1"/>
    <rect x="166.667"  y="0" height="1.10921" width="55.5556" style="fill: #930ee3"/>
    <rect x="166.667"  y="0" height="6.89752" width="55.5556" style="fill: #8ac7a9"/>
    <rect x="0"  y="0" height="88.6478" width="55.5556" style="fill: #d239c9"/>
    <rect x="55.5556"  y="0" height="2.66466" width="55.5556" style="fill: #b026a4"/>
    <rect x="222.222"  y="0" height="56.5444" width="55.5556" style="fill: #81e49d"/>
    <rect x="388.889"  y="0" height="1.03272" width="55.5556" style="fill: #53161f"/>
    <rect x="388.889"  y="0" height="3.69738" width="55.5556" style="fill: #9a9513"/>
    <rect x="55.5556"  y="0" height="2.38417" width="55.5556" style="fill: #fe5271"/>
    <rect x="277.778"  y="0" height="11.7041" width="55.5556" style="fill: #c32e9c"/>
    <rect x="166.667"  y="0" height="6.64253" width="55.5556" style="fill: #21d156"/>
</svg>
</svg>
