<svg  xmlns="http://www.w3.org/2000/svg" xmlns:xlink="http://www.w3.org/1999/xlink" x="0" y="0" width="600" height="600">
<rect x="0%" y="0%" height="100%" width="100%" style="fill: #ffffff"/>
<svg x="0" y="0">
  <text fill="dark" font-size="35" transform="translate(250, 30)">cores</text>
</svg>
<svg x="0" y="0"> 
  <text fill="dark" font-size="35" transform="translate(30, 300) rotate(270)">time</text>
</svg>
<svg x = "50" y="550">
  <text fill="blue" font-size="30" transform="translate(0, 35)">t = 73s, lb = 0.445342</text>
</svg>
<svg x="50" y="50" width="500" height="500" >
  <rect x="0%" y="0%" height="100%" width="100%" style="fill: #eeeeee"/>
    <rect x="0"  y="0" height="5.38487" width="55.5556" style="fill: #76931f"/>
    <rect x="222.222"  y="0" height="2.6651" width="55.5556" style="fill: #ac9dab"/>
    <rect x="111.111"  y="0" height="0.744861" width="55.5556" style="fill: #2b36c2"/>
    <rect x="55.5556"  y="0" height="1.44872" width="55.5556" style="fill: #48b87d"/>
    <rect x="333.333"  y="0" height="0.642357" width="55.5556" style="fill: #6ae33f"/>
    <rect x="277.778"  y="0" height="1.93391" width="55.5556" style="fill: #9a62d7"/>
    <rect x="166.667"  y="0" height="0.881533" width="55.5556" style="fill: #183a5d"/>
    <rect x="388.889"  y="0" height="2.5831" width="55.5556" style="fill: #5789e4"/>
    <rect x="333.333"  y="0" height="0.601356" width="55.5556" style="fill: #b2d6b4"/>
    <rect x="111.111"  y="0" height="63.5387" width="55.5556" style="fill: #41e241"/>
    <rect x="166.667"  y="0" height="2.23458" width="55.5556" style="fill: #1dc709"/>
    <rect x="333.333"  y="0" height="0.53302" width="55.5556" style="fill: #e111c7"/>
    <rect x="55.5556"  y="0" height="1.07287" width="55.5556" style="fill: #e1e7ac"/>
    <rect x="333.333"  y="0" height="1.76307" width="55.5556" style="fill: #b6f8ca"/>
    <rect x="277.778"  y="0" height="4.59217" width="55.5556" style="fill: #c0bb2f"/>
    <rect x="55.5556"  y="0" height="14.1455" width="55.5556" style="fill: #c4c8bc"/>
    <rect x="388.889"  y="0" height="4.16166" width="55.5556" style="fill: #2ae3ba"/>
    <rect x="222.222"  y="0" height="50.9376" width="55.5556" style="fill: #aab916"/>
    <rect x="166.667"  y="0" height="1.87924" width="55.5556" style="fill: #5cc458"/>
    <rect x="333.333"  y="0" height="1.64006" width="55.5556" style="fill: #e199cb"/>
    <rect x="166.667"  y="0" height="494.984" width="55.5556" style="fill: #89f51b"/>
    <rect x="333.333"  y="0" height="1.92707" width="55.5556" style="fill: #135f70"/>
    <rect x="0"  y="0" height="11.0704" width="55.5556" style="fill: #91a5ab"/>
    <rect x="277.778"  y="0" height="4.89968" width="55.5556" style="fill: #b0874d"/>
    <rect x="388.889"  y="0" height="78.8459" width="55.5556" style="fill: #f3e8cb"/>
    <rect x="333.333"  y="0" height="28.7557" width="55.5556" style="fill: #4543a5"/>
    <rect x="277.778"  y="0" height="4.01815" width="55.5556" style="fill: #eb93b0"/>
    <rect x="277.778"  y="0" height="6.06823" width="55.5556" style="fill: #441e9c"/>
    <rect x="0"  y="0" height="1.53756" width="55.5556" style="fill: #a4c2b0"/>
    <rect x="55.5556"  y="0" height="2.43276" width="55.5556" style="fill: #fb3d30"/>
    <rect x="0"  y="0" height="17.289" width="55.5556" style="fill: #875cbf"/>
    <rect x="55.5556"  y="0" height="0.690192" width="55.5556" style="fill: #29abd5"/>
    <rect x="55.5556"  y="0" height="0.656024" width="55.5556" style="fill: #b1acf3"/>
    <rect x="55.5556"  y="0" height="1.18904" width="55.5556" style="fill: #8984b3"/>
    <rect x="277.778"  y="0" height="389.439" width="55.5556" style="fill: #5ae882"/>
    <rect x="55.5556"  y="0" height="2.43276" width="55.5556" style="fill: #809dd4"/>
    <rect x="55.5556"  y="0" height="11.8563" width="55.5556" style="fill: #cfe7ab"/>
    <rect x="0"  y="0" height="22.7832" width="55.5556" style="fill: #c5c61b"/>
    <rect x="333.333"  y="0" height="2.05008" width="55.5556" style="fill: #aa52e0"/>
    <rect x="55.5556"  y="0" height="0.574021" width="55.5556" style="fill: #53b4c3"/>
    <rect x="55.5556"  y="0" height="3.51246" width="55.5556" style="fill: #643f20"/>
    <rect x="333.333"  y="0" height="2.15941" width="55.5556" style="fill: #4ef259"/>
    <rect x="55.5556"  y="0" height="1.24371" width="55.5556" style="fill: #d2e980"/>
    <rect x="333.333"  y="0" height="1.33255" width="55.5556" style="fill: #42a948"/>
    <rect x="55.5556"  y="0" height="9.7037" width="55.5556" style="fill: #aac5e8"/>
    <rect x="333.333"  y="0" height="1.12754" width="55.5556" style="fill: #84cb3e"/>
    <rect x="333.333"  y="0" height="2.8086" width="55.5556" style="fill: #c7db92"/>
    <rect x="333.333"  y="0" height="0.806363" width="55.5556" style="fill: #5643fd"/>
    <rect x="333.333"  y="0" height="9.98387" width="55.5556" style="fill: #34fdd4"/>
    <rect x="55.5556"  y="0" height="9.58752" width="55.5556" style="fill: #67e2cc"/>
    <rect x="222.222"  y="0" height="1.14121" width="55.5556" style="fill: #a40603"/>
    <rect x="222.222"  y="0" height="0.833698" width="55.5556" style="fill: #5cb274"/>
    <rect x="222.222"  y="0" height="16.0248" width="55.5556" style="fill: #4cb90a"/>
    <rect x="333.333"  y="0" height="2.15258" width="55.5556" style="fill: #63e51c"/>
    <rect x="0"  y="0" height="0.97037" width="55.5556" style="fill: #973790"/>
    <rect x="333.333"  y="0" height="0.690192" width="55.5556" style="fill: #334394"/>
    <rect x="333.333"  y="0" height="0.949869" width="55.5556" style="fill: #7e0208"/>
    <rect x="0"  y="0" height="0.560354" width="55.5556" style="fill: #6541e4"/>
    <rect x="0"  y="0" height="0.963536" width="55.5556" style="fill: #c48a99"/>
    <rect x="333.333"  y="0" height="0.642357" width="55.5556" style="fill: #630aa9"/>
    <rect x="0"  y="0" height="0.8952" width="55.5556" style="fill: #aece15"/>
    <rect x="55.5556"  y="0" height="40.4343" width="55.5556" style="fill: #3843a4"/>
    <rect x="333.333"  y="0" height="0.874699" width="55.5556" style="fill: #b19027"/>
    <rect x="0"  y="0" height="33.5393" width="55.5556" style="fill: #4ebc95"/>
    <rect x="333.333"  y="0" height="55.6322" width="55.5556" style="fill: #5f8592"/>
    <rect x="111.111"  y="0" height="1.66056" width="55.5556" style="fill: #e30a22"/>
    <rect x="111.111"  y="0" height="0.792696" width="55.5556" style="fill: #05a485"/>
    <rect x="111.111"  y="0" height="1.85874" width="55.5556" style="fill: #846248"/>
    <rect x="111.111"  y="0" height="0.669692" width="55.5556" style="fill: #987550"/>
    <rect x="111.111"  y="0" height="1.10704" width="55.5556" style="fill: #aaf209"/>
    <rect x="111.111"  y="0" height="9.36202" width="55.5556" style="fill: #4ec59e"/>
    <rect x="222.222"  y="0" height="5.17986" width="55.5556" style="fill: #7931dc"/>
    <rect x="222.222"  y="0" height="1.12071" width="55.5556" style="fill: #650c74"/>
    <rect x="222.222"  y="0" height="2.52159" width="55.5556" style="fill: #51cc61"/>
    <rect x="111.111"  y="0" height="10.1547" width="55.5556" style="fill: #c0cb2c"/>
    <rect x="222.222"  y="0" height="0.99087" width="55.5556" style="fill: #46a1b3"/>
    <rect x="222.222"  y="0" height="0.635524" width="55.5556" style="fill: #f2c349"/>
    <rect x="222.222"  y="0" height="9.75836" width="55.5556" style="fill: #faff76"/>
    <rect x="388.889"  y="0" height="0.608189" width="55.5556" style="fill: #3c7f8d"/>
    <rect x="388.889"  y="0" height="10.3324" width="55.5556" style="fill: #14ddff"/>
    <rect x="111.111"  y="0" height="28.9129" width="55.5556" style="fill: #946351"/>
    <rect x="222.222"  y="0" height="2.84277" width="55.5556" style="fill: #744378"/>
    <rect x="222.222"  y="0" height="0.690192" width="55.5556" style="fill: #d62c59"/>
    <rect x="0"  y="0" height="2.89744" width="55.5556" style="fill: #285a8d"/>
    <rect x="222.222"  y="0" height="115.071" width="55.5556" style="fill: #791561"/>
    <rect x="388.889"  y="0" height="3.90881" width="55.5556" style="fill: #4f5a2a"/>
    <rect x="0"  y="0" height="8.50098" width="55.5556" style="fill: #c9e0d6"/>
    <rect x="388.889"  y="0" height="15.6489" width="55.5556" style="fill: #8aca62"/>
    <rect x="55.5556"  y="0" height="50.3704" width="55.5556" style="fill: #48a922"/>
    <rect x="0"  y="0" height="2.69927" width="55.5556" style="fill: #7ab8f1"/>
    <rect x="0"  y="0" height="1.55122" width="55.5556" style="fill: #930ee3"/>
    <rect x="0"  y="0" height="4.29149" width="55.5556" style="fill: #8ac7a9"/>
    <rect x="0"  y="0" height="3.12295" width="55.5556" style="fill: #d239c9"/>
    <rect x="388.889"  y="0" height="18.3687" width="55.5556" style="fill: #b026a4"/>
    <rect x="333.333"  y="0" height="2.07058" width="55.5556" style="fill: #81e49d"/>
    <rect x="0"  y="0" height="4.3325" width="55.5556" style="fill: #53161f"/>
    <rect x="111.111"  y="0" height="0.580855" width="55.5556" style="fill: #9a9513"/>
    <rect x="333.333"  y="0" height="2.89744" width="55.5556" style="fill: #fe5271"/>
    <rect x="111.111"  y="0" height="3.4578" width="55.5556" style="fill: #c32e9c"/>
    <rect x="333.333"  y="0" height="6.94293" width="55.5556" style="fill: #21d156"/>
</svg>
</svg>
