<svg  xmlns="http://www.w3.org/2000/svg" xmlns:xlink="http://www.w3.org/1999/xlink" x="0" y="0" width="600" height="600">
<rect x="0%" y="0%" height="100%" width="100%" style="fill: #ffffff"/>
<svg x="0" y="0">
  <text fill="dark" font-size="35" transform="translate(250, 30)">cores</text>
</svg>
<svg x="0" y="0"> 
  <text fill="dark" font-size="35" transform="translate(30, 300) rotate(270)">time</text>
</svg>
<svg x = "50" y="550">
  <text fill="blue" font-size="30" transform="translate(0, 35)">t = 53s, lb = 0.998689</text>
</svg>
<svg x="50" y="50" width="500" height="500" >
  <rect x="0%" y="0%" height="100%" width="100%" style="fill: #eeeeee"/>
    <rect x="0"  y="0" height="9.18866" width="250" style="fill: #76931f"/>
    <rect x="0"  y="0" height="0.496431" width="250" style="fill: #ac9dab"/>
    <rect x="0"  y="0" height="2.33229" width="250" style="fill: #2b36c2"/>
    <rect x="0"  y="0" height="0.674397" width="250" style="fill: #48b87d"/>
    <rect x="0"  y="0" height="2.86619" width="250" style="fill: #6ae33f"/>
    <rect x="0"  y="0" height="4.84255" width="250" style="fill: #9a62d7"/>
    <rect x="0"  y="0" height="4.68331" width="250" style="fill: #183a5d"/>
    <rect x="0"  y="0" height="1.124" width="250" style="fill: #5789e4"/>
    <rect x="0"  y="0" height="0.646297" width="250" style="fill: #b2d6b4"/>
    <rect x="0"  y="0" height="2.05129" width="250" style="fill: #41e241"/>
    <rect x="0"  y="0" height="22.508" width="250" style="fill: #1dc709"/>
    <rect x="0"  y="0" height="0.505798" width="250" style="fill: #e111c7"/>
    <rect x="0"  y="0" height="0.430865" width="250" style="fill: #e1e7ac"/>
    <rect x="0"  y="0" height="2.95985" width="250" style="fill: #b6f8ca"/>
    <rect x="0"  y="0" height="2.39786" width="250" style="fill: #c0bb2f"/>
    <rect x="0"  y="0" height="3.14719" width="250" style="fill: #c4c8bc"/>
    <rect x="0"  y="0" height="0.271632" width="250" style="fill: #2ae3ba"/>
    <rect x="0"  y="0" height="2.01383" width="250" style="fill: #aab916"/>
    <rect x="0"  y="0" height="1.33943" width="250" style="fill: #5cc458"/>
    <rect x="0"  y="0" height="0.187333" width="250" style="fill: #e199cb"/>
    <rect x="0"  y="0" height="3.10035" width="250" style="fill: #89f51b"/>
    <rect x="0"  y="0" height="2.47279" width="250" style="fill: #135f70"/>
    <rect x="0"  y="0" height="6.82827" width="250" style="fill: #91a5ab"/>
    <rect x="0"  y="0" height="1.96699" width="250" style="fill: #b0874d"/>
    <rect x="0"  y="0" height="1.13336" width="250" style="fill: #f3e8cb"/>
    <rect x="0"  y="0" height="7.1842" width="250" style="fill: #4543a5"/>
    <rect x="0"  y="0" height="19.5575" width="250" style="fill: #eb93b0"/>
    <rect x="0"  y="0" height="2.52899" width="250" style="fill: #441e9c"/>
    <rect x="0"  y="0" height="0.561998" width="250" style="fill: #a4c2b0"/>
    <rect x="0"  y="0" height="1.71409" width="250" style="fill: #fb3d30"/>
    <rect x="0"  y="0" height="3.51249" width="250" style="fill: #875cbf"/>
    <rect x="0"  y="0" height="0.646297" width="250" style="fill: #29abd5"/>
    <rect x="0"  y="0" height="2.21052" width="250" style="fill: #b1acf3"/>
    <rect x="0"  y="0" height="3.74665" width="250" style="fill: #8984b3"/>
    <rect x="0"  y="0" height="1.43309" width="250" style="fill: #5ae882"/>
    <rect x="0"  y="0" height="3.81222" width="250" style="fill: #809dd4"/>
    <rect x="0"  y="0" height="0.552631" width="250" style="fill: #cfe7ab"/>
    <rect x="0"  y="0" height="12.8042" width="250" style="fill: #c5c61b"/>
    <rect x="0"  y="0" height="2.97859" width="250" style="fill: #aa52e0"/>
    <rect x="0"  y="0" height="2.29482" width="250" style="fill: #53b4c3"/>
    <rect x="0"  y="0" height="6.35057" width="250" style="fill: #643f20"/>
    <rect x="0"  y="0" height="2.57582" width="250" style="fill: #4ef259"/>
    <rect x="0"  y="0" height="4.23372" width="250" style="fill: #d2e980"/>
    <rect x="0"  y="0" height="11.9425" width="250" style="fill: #42a948"/>
    <rect x="0"  y="0" height="1.44246" width="250" style="fill: #aac5e8"/>
    <rect x="0"  y="0" height="3.33452" width="250" style="fill: #84cb3e"/>
    <rect x="0"  y="0" height="3.24085" width="250" style="fill: #c7db92"/>
    <rect x="0"  y="0" height="2.11686" width="250" style="fill: #5643fd"/>
    <rect x="0"  y="0" height="0.590098" width="250" style="fill: #34fdd4"/>
    <rect x="0"  y="0" height="9.93799" width="250" style="fill: #67e2cc"/>
    <rect x="0"  y="0" height="0.646297" width="250" style="fill: #a40603"/>
    <rect x="0"  y="0" height="1.03033" width="250" style="fill: #5cb274"/>
    <rect x="0"  y="0" height="2.73506" width="250" style="fill: #4cb90a"/>
    <rect x="0"  y="0" height="1.21766" width="250" style="fill: #63e51c"/>
    <rect x="0"  y="0" height="0.580731" width="250" style="fill: #973790"/>
    <rect x="0"  y="0" height="29.5517" width="250" style="fill: #334394"/>
    <rect x="0"  y="0" height="4.27118" width="250" style="fill: #7e0208"/>
    <rect x="0"  y="0" height="0.711864" width="250" style="fill: #6541e4"/>
    <rect x="0"  y="0" height="0.187333" width="250" style="fill: #c48a99"/>
    <rect x="0"  y="0" height="0.318465" width="250" style="fill: #630aa9"/>
    <rect x="0"  y="0" height="2.44469" width="250" style="fill: #aece15"/>
    <rect x="0"  y="0" height="2.31356" width="250" style="fill: #3843a4"/>
    <rect x="0"  y="0" height="0.365299" width="250" style="fill: #b19027"/>
    <rect x="0"  y="0" height="2.41659" width="250" style="fill: #4ebc95"/>
    <rect x="0"  y="0" height="1.64853" width="250" style="fill: #5f8592"/>
    <rect x="0"  y="0" height="2.90365" width="250" style="fill: #e30a22"/>
    <rect x="0"  y="0" height="43.5361" width="250" style="fill: #05a485"/>
    <rect x="0"  y="0" height="0.271632" width="250" style="fill: #846248"/>
    <rect x="0"  y="0" height="1.57359" width="250" style="fill: #987550"/>
    <rect x="0"  y="0" height="1.39563" width="250" style="fill: #aaf209"/>
    <rect x="0"  y="0" height="3.35325" width="250" style="fill: #4ec59e"/>
    <rect x="0"  y="0" height="3.99955" width="250" style="fill: #7931dc"/>
    <rect x="0"  y="0" height="2.03256" width="250" style="fill: #650c74"/>
    <rect x="0"  y="0" height="5.18911" width="250" style="fill: #51cc61"/>
    <rect x="0"  y="0" height="10.2752" width="250" style="fill: #c0cb2c"/>
    <rect x="0"  y="0" height="0.440232" width="250" style="fill: #46a1b3"/>
    <rect x="0"  y="0" height="0.487065" width="250" style="fill: #f2c349"/>
    <rect x="0"  y="0" height="7.39027" width="250" style="fill: #faff76"/>
    <rect x="0"  y="0" height="8.01783" width="250" style="fill: #3c7f8d"/>
    <rect x="0"  y="0" height="19.3608" width="250" style="fill: #14ddff"/>
    <rect x="0"  y="0" height="0.337199" width="250" style="fill: #946351"/>
    <rect x="0"  y="0" height="0.674397" width="250" style="fill: #744378"/>
    <rect x="0"  y="0" height="14.3216" width="250" style="fill: #d62c59"/>
    <rect x="0"  y="0" height="26.0299" width="250" style="fill: #285a8d"/>
    <rect x="0"  y="0" height="2.59456" width="250" style="fill: #791561"/>
    <rect x="0"  y="0" height="8.0834" width="250" style="fill: #4f5a2a"/>
    <rect x="0"  y="0" height="2.05129" width="250" style="fill: #c9e0d6"/>
    <rect x="0"  y="0" height="17.7591" width="250" style="fill: #8aca62"/>
    <rect x="0"  y="0" height="2.16369" width="250" style="fill: #48a922"/>
    <rect x="0"  y="0" height="0.487065" width="250" style="fill: #7ab8f1"/>
    <rect x="0"  y="0" height="0.477698" width="250" style="fill: #930ee3"/>
    <rect x="0"  y="0" height="0.702497" width="250" style="fill: #8ac7a9"/>
    <rect x="0"  y="0" height="3.97145" width="250" style="fill: #d239c9"/>
    <rect x="0"  y="0" height="4.50535" width="250" style="fill: #b026a4"/>
    <rect x="0"  y="0" height="3.43755" width="250" style="fill: #81e49d"/>
    <rect x="0"  y="0" height="4.88938" width="250" style="fill: #53161f"/>
    <rect x="0"  y="0" height="0.74933" width="250" style="fill: #9a9513"/>
    <rect x="0"  y="0" height="41.2038" width="250" style="fill: #fe5271"/>
    <rect x="0"  y="0" height="7.73684" width="250" style="fill: #c32e9c"/>
    <rect x="0"  y="0" height="5.02988" width="250" style="fill: #21d156"/>
</svg>
</svg>
