<svg  xmlns="http://www.w3.org/2000/svg" xmlns:xlink="http://www.w3.org/1999/xlink" x="0" y="0" width="600" height="600">
<rect x="0%" y="0%" height="100%" width="100%" style="fill: #ffffff"/>
<svg x="0" y="0">
  <text fill="dark" font-size="35" transform="translate(250, 30)">cores</text>
</svg>
<svg x="0" y="0"> 
  <text fill="dark" font-size="35" transform="translate(30, 300) rotate(270)">time</text>
</svg>
<svg x = "50" y="550">
  <text fill="blue" font-size="30" transform="translate(0, 35)">t = 21s, lb = 0.997235</text>
</svg>
<svg x="50" y="50" width="500" height="500" >
  <rect x="0%" y="0%" height="100%" width="100%" style="fill: #eeeeee"/>
    <rect x="0"  y="0" height="267.268" width="250" style="fill: #e16604"/>
    <rect x="0"  y="0" height="20.4545" width="250" style="fill: #a58921"/>
    <rect x="0"  y="0" height="11.9963" width="250" style="fill: #79064f"/>
    <rect x="0"  y="0" height="13.8004" width="250" style="fill: #fedd3c"/>
    <rect x="0"  y="0" height="27.4367" width="250" style="fill: #e4bd2c"/>
    <rect x="0"  y="0" height="13.0506" width="250" style="fill: #e0d46d"/>
    <rect x="0"  y="0" height="8.20056" width="250" style="fill: #8121a4"/>
    <rect x="0"  y="0" height="7.80225" width="250" style="fill: #22d282"/>
    <rect x="0"  y="0" height="9.30178" width="250" style="fill: #170e43"/>
    <rect x="0"  y="0" height="10.1921" width="250" style="fill: #b276f9"/>
    <rect x="0"  y="0" height="5.52952" width="250" style="fill: #2d9f10"/>
    <rect x="0"  y="0" height="9.02062" width="250" style="fill: #ca1fbb"/>
    <rect x="0"  y="0" height="3.79569" width="250" style="fill: #3dd1f5"/>
    <rect x="0"  y="0" height="3.77226" width="250" style="fill: #30c3f0"/>
    <rect x="0"  y="0" height="3.13964" width="250" style="fill: #7a3e02"/>
    <rect x="0"  y="0" height="2.83505" width="250" style="fill: #830121"/>
    <rect x="0"  y="0" height="2.15558" width="250" style="fill: #1fb2e6"/>
    <rect x="0"  y="0" height="2.78819" width="250" style="fill: #e13b22"/>
    <rect x="0"  y="0" height="3.11621" width="250" style="fill: #153d92"/>
    <rect x="0"  y="0" height="3.91284" width="250" style="fill: #e0c1ec"/>
    <rect x="0"  y="0" height="2.81162" width="250" style="fill: #36f382"/>
    <rect x="0"  y="0" height="1.75726" width="250" style="fill: #5910cf"/>
    <rect x="0"  y="0" height="2.13215" width="250" style="fill: #7a0a53"/>
    <rect x="0"  y="0" height="1.85098" width="250" style="fill: #d68041"/>
    <rect x="0"  y="0" height="1.42924" width="250" style="fill: #221e30"/>
    <rect x="0"  y="0" height="3.56139" width="250" style="fill: #a66aae"/>
    <rect x="0"  y="0" height="2.53046" width="250" style="fill: #cf8df4"/>
    <rect x="0"  y="0" height="2.06186" width="250" style="fill: #c6ec13"/>
    <rect x="0"  y="0" height="1.2418" width="250" style="fill: #fea8ee"/>
    <rect x="0"  y="0" height="1.28866" width="250" style="fill: #900be3"/>
    <rect x="0"  y="0" height="1.66354" width="250" style="fill: #b89123"/>
    <rect x="0"  y="0" height="1.33552" width="250" style="fill: #0e28b2"/>
    <rect x="0"  y="0" height="1.2418" width="250" style="fill: #c78a49"/>
    <rect x="0"  y="0" height="1.56982" width="250" style="fill: #d377b5"/>
    <rect x="0"  y="0" height="1.26523" width="250" style="fill: #555503"/>
    <rect x="0"  y="0" height="0.937207" width="250" style="fill: #8bc2ce"/>
    <rect x="0"  y="0" height="1.49953" width="250" style="fill: #5cd848"/>
    <rect x="0"  y="0" height="1.0075" width="250" style="fill: #a002a4"/>
    <rect x="0"  y="0" height="1.12465" width="250" style="fill: #c873f3"/>
    <rect x="0"  y="0" height="1.31209" width="250" style="fill: #958ea8"/>
    <rect x="0"  y="0" height="1.07779" width="250" style="fill: #233e5f"/>
    <rect x="0"  y="0" height="1.31209" width="250" style="fill: #cac920"/>
    <rect x="0"  y="0" height="1.0075" width="250" style="fill: #2c12fb"/>
    <rect x="0"  y="0" height="1.05436" width="250" style="fill: #6b3de3"/>
    <rect x="0"  y="0" height="0.820056" width="250" style="fill: #078862"/>
    <rect x="0"  y="0" height="4.33458" width="250" style="fill: #08536a"/>
    <rect x="0"  y="0" height="1.03093" width="250" style="fill: #325fc7"/>
    <rect x="0"  y="0" height="1.03093" width="250" style="fill: #fe4003"/>
    <rect x="0"  y="0" height="0.984067" width="250" style="fill: #c6ef3c"/>
    <rect x="0"  y="0" height="1.0075" width="250" style="fill: #244aca"/>
    <rect x="0"  y="0" height="0.937207" width="250" style="fill: #dd2208"/>
    <rect x="0"  y="0" height="1.14808" width="250" style="fill: #d3a226"/>
    <rect x="0"  y="0" height="1.03093" width="250" style="fill: #924d24"/>
    <rect x="0"  y="0" height="1.05436" width="250" style="fill: #0eaeee"/>
    <rect x="0"  y="0" height="0.773196" width="250" style="fill: #b02fbe"/>
    <rect x="0"  y="0" height="0.632615" width="250" style="fill: #98bbac"/>
    <rect x="0"  y="0" height="0.492034" width="250" style="fill: #37fd92"/>
    <rect x="0"  y="0" height="1.21837" width="250" style="fill: #434806"/>
    <rect x="0"  y="0" height="0.585754" width="250" style="fill: #d157f3"/>
    <rect x="0"  y="0" height="1.03093" width="250" style="fill: #5a379e"/>
    <rect x="0"  y="0" height="0.773196" width="250" style="fill: #6261d1"/>
    <rect x="0"  y="0" height="0.538894" width="250" style="fill: #d08de2"/>
    <rect x="0"  y="0" height="0.445173" width="250" style="fill: #f253a5"/>
    <rect x="0"  y="0" height="0.585754" width="250" style="fill: #976ef6"/>
    <rect x="0"  y="0" height="0.421743" width="250" style="fill: #1405ca"/>
    <rect x="0"  y="0" height="0.351453" width="250" style="fill: #32ca3a"/>
    <rect x="0"  y="0" height="0.421743" width="250" style="fill: #b1a3e8"/>
    <rect x="0"  y="0" height="0.538894" width="250" style="fill: #5daa05"/>
    <rect x="0"  y="0" height="0.468604" width="250" style="fill: #09c68b"/>
    <rect x="0"  y="0" height="0.538894" width="250" style="fill: #c90dec"/>
    <rect x="0"  y="0" height="0.656045" width="250" style="fill: #72e3c1"/>
    <rect x="0"  y="0" height="0.492034" width="250" style="fill: #d728a0"/>
    <rect x="0"  y="0" height="0.632615" width="250" style="fill: #00dbad"/>
    <rect x="0"  y="0" height="0.281162" width="250" style="fill: #0a7c1f"/>
    <rect x="0"  y="0" height="0.351453" width="250" style="fill: #8d88a7"/>
    <rect x="0"  y="0" height="0.374883" width="250" style="fill: #419255"/>
    <rect x="0"  y="0" height="0.562324" width="250" style="fill: #32c6a6"/>
    <rect x="0"  y="0" height="0.515464" width="250" style="fill: #6b6461"/>
    <rect x="0"  y="0" height="0.421743" width="250" style="fill: #16b82c"/>
    <rect x="0"  y="0" height="0.351453" width="250" style="fill: #7aa024"/>
    <rect x="0"  y="0" height="0.281162" width="250" style="fill: #76608b"/>
    <rect x="0"  y="0" height="0.304592" width="250" style="fill: #5cd128"/>
    <rect x="0"  y="0" height="0.351453" width="250" style="fill: #783ec9"/>
    <rect x="0"  y="0" height="0.210872" width="250" style="fill: #fefa61"/>
    <rect x="0"  y="0" height="0.210872" width="250" style="fill: #7ec1ee"/>
    <rect x="0"  y="0" height="0.281162" width="250" style="fill: #555b5d"/>
    <rect x="0"  y="0" height="0.234302" width="250" style="fill: #6a94bb"/>
    <rect x="0"  y="0" height="0.117151" width="250" style="fill: #c24f00"/>
    <rect x="0"  y="0" height="0.187441" width="250" style="fill: #8fe7a5"/>
    <rect x="0"  y="0" height="0.140581" width="250" style="fill: #813421"/>
    <rect x="0"  y="0" height="0.164011" width="250" style="fill: #37683b"/>
    <rect x="0"  y="0" height="0.117151" width="250" style="fill: #595fd0"/>
    <rect x="0"  y="0" height="0.0702905" width="250" style="fill: #a92e83"/>
    <rect x="0"  y="0" height="0.117151" width="250" style="fill: #f02d7c"/>
    <rect x="0"  y="0" height="0.0468604" width="250" style="fill: #20d54f"/>
    <rect x="0"  y="0" height="0.0468604" width="250" style="fill: #677cfa"/>
    <rect x="0"  y="0" height="0.117151" width="250" style="fill: #753c41"/>
    <rect x="0"  y="0" height="0.0468604" width="250" style="fill: #ceafd3"/>
    <rect x="0"  y="0" height="0.0937207" width="250" style="fill: #2c349b"/>
</svg>
</svg>
