<svg  xmlns="http://www.w3.org/2000/svg" xmlns:xlink="http://www.w3.org/1999/xlink" x="0" y="0" width="600" height="600">
<rect x="0%" y="0%" height="100%" width="100%" style="fill: #ffffff"/>
<svg x="0" y="0">
  <text fill="dark" font-size="35" transform="translate(250, 30)">cores</text>
</svg>
<svg x="0" y="0"> 
  <text fill="dark" font-size="35" transform="translate(30, 300) rotate(270)">time</text>
</svg>
<svg x = "50" y="550">
  <text fill="blue" font-size="30" transform="translate(0, 35)">t = 57s, lb = 0.249140</text>
</svg>
<svg x="50" y="50" width="500" height="500" >
  <rect x="0%" y="0%" height="100%" width="100%" style="fill: #eeeeee"/>
    <rect x="0"  y="0" height="4.13972" width="55.5556" style="fill: #76931f"/>
    <rect x="222.222"  y="0" height="9.99569" width="55.5556" style="fill: #ac9dab"/>
    <rect x="111.111"  y="0" height="0.991807" width="55.5556" style="fill: #2b36c2"/>
    <rect x="55.5556"  y="0" height="3.38077" width="55.5556" style="fill: #48b87d"/>
    <rect x="333.333"  y="0" height="1.64726" width="55.5556" style="fill: #6ae33f"/>
    <rect x="277.778"  y="0" height="4.22596" width="55.5556" style="fill: #9a62d7"/>
    <rect x="166.667"  y="0" height="3.23415" width="55.5556" style="fill: #183a5d"/>
    <rect x="388.889"  y="0" height="4.80379" width="55.5556" style="fill: #5789e4"/>
    <rect x="111.111"  y="0" height="0.681328" width="55.5556" style="fill: #b2d6b4"/>
    <rect x="333.333"  y="0" height="10.1509" width="55.5556" style="fill: #41e241"/>
    <rect x="111.111"  y="0" height="5.7956" width="55.5556" style="fill: #1dc709"/>
    <rect x="166.667"  y="0" height="496.749" width="55.5556" style="fill: #e111c7"/>
    <rect x="55.5556"  y="0" height="4.51056" width="55.5556" style="fill: #e1e7ac"/>
    <rect x="0"  y="0" height="15.6447" width="55.5556" style="fill: #b6f8ca"/>
    <rect x="277.778"  y="0" height="0.758948" width="55.5556" style="fill: #c0bb2f"/>
    <rect x="388.889"  y="0" height="6.49418" width="55.5556" style="fill: #c4c8bc"/>
    <rect x="277.778"  y="0" height="1.74213" width="55.5556" style="fill: #2ae3ba"/>
    <rect x="277.778"  y="0" height="4.12247" width="55.5556" style="fill: #aab916"/>
    <rect x="111.111"  y="0" height="2.53558" width="55.5556" style="fill: #5cc458"/>
    <rect x="55.5556"  y="0" height="2.25097" width="55.5556" style="fill: #e199cb"/>
    <rect x="222.222"  y="0" height="6.52868" width="55.5556" style="fill: #89f51b"/>
    <rect x="111.111"  y="0" height="0.758948" width="55.5556" style="fill: #135f70"/>
    <rect x="55.5556"  y="0" height="2.03536" width="55.5556" style="fill: #91a5ab"/>
    <rect x="111.111"  y="0" height="3.19966" width="55.5556" style="fill: #b0874d"/>
    <rect x="277.778"  y="0" height="0.784821" width="55.5556" style="fill: #f3e8cb"/>
    <rect x="388.889"  y="0" height="2.4752" width="55.5556" style="fill: #4543a5"/>
    <rect x="277.778"  y="0" height="2.82018" width="55.5556" style="fill: #eb93b0"/>
    <rect x="333.333"  y="0" height="3.10479" width="55.5556" style="fill: #441e9c"/>
    <rect x="55.5556"  y="0" height="3.69987" width="55.5556" style="fill: #a4c2b0"/>
    <rect x="388.889"  y="0" height="3.674" width="55.5556" style="fill: #fb3d30"/>
    <rect x="111.111"  y="0" height="4.03622" width="55.5556" style="fill: #875cbf"/>
    <rect x="277.778"  y="0" height="70.1337" width="55.5556" style="fill: #29abd5"/>
    <rect x="333.333"  y="0" height="6.66667" width="55.5556" style="fill: #b1acf3"/>
    <rect x="55.5556"  y="0" height="10.1596" width="55.5556" style="fill: #8984b3"/>
    <rect x="222.222"  y="0" height="2.78568" width="55.5556" style="fill: #5ae882"/>
    <rect x="388.889"  y="0" height="3.7085" width="55.5556" style="fill: #809dd4"/>
    <rect x="111.111"  y="0" height="2.76843" width="55.5556" style="fill: #cfe7ab"/>
    <rect x="222.222"  y="0" height="3.85511" width="55.5556" style="fill: #c5c61b"/>
    <rect x="0"  y="0" height="1.0953" width="55.5556" style="fill: #aa52e0"/>
    <rect x="111.111"  y="0" height="34.0578" width="55.5556" style="fill: #53b4c3"/>
    <rect x="0"  y="0" height="1.81975" width="55.5556" style="fill: #643f20"/>
    <rect x="388.889"  y="0" height="2.5442" width="55.5556" style="fill: #4ef259"/>
    <rect x="333.333"  y="0" height="2.26822" width="55.5556" style="fill: #d2e980"/>
    <rect x="0"  y="0" height="1.59552" width="55.5556" style="fill: #42a948"/>
    <rect x="222.222"  y="0" height="2.57007" width="55.5556" style="fill: #aac5e8"/>
    <rect x="388.889"  y="0" height="3.36352" width="55.5556" style="fill: #84cb3e"/>
    <rect x="333.333"  y="0" height="5.35576" width="55.5556" style="fill: #c7db92"/>
    <rect x="0"  y="0" height="3.40664" width="55.5556" style="fill: #5643fd"/>
    <rect x="222.222"  y="0" height="3.86373" width="55.5556" style="fill: #34fdd4"/>
    <rect x="55.5556"  y="0" height="20.9746" width="55.5556" style="fill: #67e2cc"/>
    <rect x="388.889"  y="0" height="6.80466" width="55.5556" style="fill: #a40603"/>
    <rect x="0"  y="0" height="2.38034" width="55.5556" style="fill: #5cb274"/>
    <rect x="333.333"  y="0" height="1.78525" width="55.5556" style="fill: #4cb90a"/>
    <rect x="222.222"  y="0" height="3.2859" width="55.5556" style="fill: #63e51c"/>
    <rect x="0"  y="0" height="3.46701" width="55.5556" style="fill: #973790"/>
    <rect x="333.333"  y="0" height="3.65675" width="55.5556" style="fill: #334394"/>
    <rect x="222.222"  y="0" height="1.60414" width="55.5556" style="fill: #7e0208"/>
    <rect x="0"  y="0" height="0.672704" width="55.5556" style="fill: #6541e4"/>
    <rect x="388.889"  y="0" height="2.81156" width="55.5556" style="fill: #c48a99"/>
    <rect x="0"  y="0" height="1.22467" width="55.5556" style="fill: #630aa9"/>
    <rect x="222.222"  y="0" height="1.45752" width="55.5556" style="fill: #aece15"/>
    <rect x="333.333"  y="0" height="2.03536" width="55.5556" style="fill: #3843a4"/>
    <rect x="0"  y="0" height="1.00043" width="55.5556" style="fill: #b19027"/>
    <rect x="222.222"  y="0" height="1.0953" width="55.5556" style="fill: #4ebc95"/>
    <rect x="0"  y="0" height="8.29668" width="55.5556" style="fill: #5f8592"/>
    <rect x="333.333"  y="0" height="3.48426" width="55.5556" style="fill: #e30a22"/>
    <rect x="388.889"  y="0" height="1.4489" width="55.5556" style="fill: #05a485"/>
    <rect x="222.222"  y="0" height="3.46701" width="55.5556" style="fill: #846248"/>
    <rect x="388.889"  y="0" height="12.4019" width="55.5556" style="fill: #987550"/>
    <rect x="333.333"  y="0" height="0.689953" width="55.5556" style="fill: #aaf209"/>
    <rect x="222.222"  y="0" height="3.51876" width="55.5556" style="fill: #4ec59e"/>
    <rect x="333.333"  y="0" height="1.58689" width="55.5556" style="fill: #7931dc"/>
    <rect x="333.333"  y="0" height="3.32902" width="55.5556" style="fill: #650c74"/>
    <rect x="222.222"  y="0" height="1.69038" width="55.5556" style="fill: #51cc61"/>
    <rect x="0"  y="0" height="4.25183" width="55.5556" style="fill: #c0cb2c"/>
    <rect x="222.222"  y="0" height="4.16559" width="55.5556" style="fill: #46a1b3"/>
    <rect x="333.333"  y="0" height="1.77663" width="55.5556" style="fill: #f2c349"/>
    <rect x="55.5556"  y="0" height="2.53558" width="55.5556" style="fill: #faff76"/>
    <rect x="333.333"  y="0" height="3.05304" width="55.5556" style="fill: #3c7f8d"/>
    <rect x="0"  y="0" height="17.2919" width="55.5556" style="fill: #14ddff"/>
    <rect x="55.5556"  y="0" height="0.827943" width="55.5556" style="fill: #946351"/>
    <rect x="222.222"  y="0" height="0.991807" width="55.5556" style="fill: #744378"/>
    <rect x="55.5556"  y="0" height="3.11341" width="55.5556" style="fill: #d62c59"/>
    <rect x="388.889"  y="0" height="3.01854" width="55.5556" style="fill: #285a8d"/>
    <rect x="333.333"  y="0" height="0.931436" width="55.5556" style="fill: #791561"/>
    <rect x="222.222"  y="0" height="2.06123" width="55.5556" style="fill: #4f5a2a"/>
    <rect x="333.333"  y="0" height="6.04571" width="55.5556" style="fill: #c9e0d6"/>
    <rect x="222.222"  y="0" height="3.46701" width="55.5556" style="fill: #8aca62"/>
    <rect x="55.5556"  y="0" height="2.37171" width="55.5556" style="fill: #48a922"/>
    <rect x="388.889"  y="0" height="2.36309" width="55.5556" style="fill: #7ab8f1"/>
    <rect x="111.111"  y="0" height="3.61363" width="55.5556" style="fill: #930ee3"/>
    <rect x="55.5556"  y="0" height="14.9892" width="55.5556" style="fill: #8ac7a9"/>
    <rect x="388.889"  y="0" height="4.4157" width="55.5556" style="fill: #d239c9"/>
    <rect x="222.222"  y="0" height="2.92367" width="55.5556" style="fill: #b026a4"/>
    <rect x="333.333"  y="0" height="1.03493" width="55.5556" style="fill: #81e49d"/>
    <rect x="111.111"  y="0" height="5.78698" width="55.5556" style="fill: #53161f"/>
    <rect x="333.333"  y="0" height="9.71108" width="55.5556" style="fill: #9a9513"/>
    <rect x="222.222"  y="0" height="0.758948" width="55.5556" style="fill: #fe5271"/>
    <rect x="222.222"  y="0" height="18.6805" width="55.5556" style="fill: #c32e9c"/>
    <rect x="388.889"  y="0" height="3.2169" width="55.5556" style="fill: #21d156"/>
</svg>
</svg>
