<svg  xmlns="http://www.w3.org/2000/svg" xmlns:xlink="http://www.w3.org/1999/xlink" x="0" y="0" width="600" height="600">
<rect x="0%" y="0%" height="100%" width="100%" style="fill: #ffffff"/>
<svg x="0" y="0">
  <text fill="dark" font-size="35" transform="translate(250, 30)">cores</text>
</svg>
<svg x="0" y="0"> 
  <text fill="dark" font-size="35" transform="translate(30, 300) rotate(270)">time</text>
</svg>
<svg x = "50" y="550">
  <text fill="blue" font-size="30" transform="translate(0, 35)">t = 24s, lb = 0.559134</text>
</svg>
<svg x="50" y="50" width="500" height="500" >
  <rect x="0%" y="0%" height="100%" width="100%" style="fill: #eeeeee"/>
    <rect x="0"  y="0" height="8.20432" width="55.5556" style="fill: #76931f"/>
    <rect x="222.222"  y="0" height="2.60039" width="55.5556" style="fill: #ac9dab"/>
    <rect x="111.111"  y="0" height="22.0529" width="55.5556" style="fill: #2b36c2"/>
    <rect x="55.5556"  y="0" height="3.02371" width="55.5556" style="fill: #48b87d"/>
    <rect x="333.333"  y="0" height="8.16401" width="55.5556" style="fill: #6ae33f"/>
    <rect x="277.778"  y="0" height="1.75375" width="55.5556" style="fill: #9a62d7"/>
    <rect x="166.667"  y="0" height="11.3691" width="55.5556" style="fill: #183a5d"/>
    <rect x="388.889"  y="0" height="147.779" width="55.5556" style="fill: #5789e4"/>
    <rect x="277.778"  y="0" height="3.20513" width="55.5556" style="fill: #b2d6b4"/>
    <rect x="222.222"  y="0" height="74.4436" width="55.5556" style="fill: #41e241"/>
    <rect x="55.5556"  y="0" height="16.832" width="55.5556" style="fill: #1dc709"/>
    <rect x="277.778"  y="0" height="8.48653" width="55.5556" style="fill: #e111c7"/>
    <rect x="333.333"  y="0" height="21.9723" width="55.5556" style="fill: #e1e7ac"/>
    <rect x="0"  y="0" height="10.2604" width="55.5556" style="fill: #b6f8ca"/>
    <rect x="166.667"  y="0" height="12.2561" width="55.5556" style="fill: #c0bb2f"/>
    <rect x="277.778"  y="0" height="3.24544" width="55.5556" style="fill: #c4c8bc"/>
    <rect x="277.778"  y="0" height="20.6217" width="55.5556" style="fill: #2ae3ba"/>
    <rect x="0"  y="0" height="12.9213" width="55.5556" style="fill: #aab916"/>
    <rect x="55.5556"  y="0" height="2.76165" width="55.5556" style="fill: #5cc458"/>
    <rect x="111.111"  y="0" height="7.03516" width="55.5556" style="fill: #e199cb"/>
    <rect x="55.5556"  y="0" height="59.7081" width="55.5556" style="fill: #89f51b"/>
    <rect x="166.667"  y="0" height="3.40671" width="55.5556" style="fill: #135f70"/>
    <rect x="166.667"  y="0" height="1.93517" width="55.5556" style="fill: #91a5ab"/>
    <rect x="166.667"  y="0" height="12.7802" width="55.5556" style="fill: #b0874d"/>
    <rect x="111.111"  y="0" height="8.6478" width="55.5556" style="fill: #f3e8cb"/>
    <rect x="333.333"  y="0" height="8.48653" width="55.5556" style="fill: #4543a5"/>
    <rect x="0"  y="0" height="5.20077" width="55.5556" style="fill: #eb93b0"/>
    <rect x="0"  y="0" height="64.0622" width="55.5556" style="fill: #441e9c"/>
    <rect x="277.778"  y="0" height="2.98339" width="55.5556" style="fill: #a4c2b0"/>
    <rect x="111.111"  y="0" height="18.6059" width="55.5556" style="fill: #fb3d30"/>
    <rect x="333.333"  y="0" height="3.46718" width="55.5556" style="fill: #875cbf"/>
    <rect x="277.778"  y="0" height="9.09128" width="55.5556" style="fill: #29abd5"/>
    <rect x="166.667"  y="0" height="6.16836" width="55.5556" style="fill: #b1acf3"/>
    <rect x="333.333"  y="0" height="2.35849" width="55.5556" style="fill: #8984b3"/>
    <rect x="333.333"  y="0" height="6.61184" width="55.5556" style="fill: #5ae882"/>
    <rect x="166.667"  y="0" height="2.94307" width="55.5556" style="fill: #809dd4"/>
    <rect x="277.778"  y="0" height="7.05531" width="55.5556" style="fill: #cfe7ab"/>
    <rect x="166.667"  y="0" height="7.17626" width="55.5556" style="fill: #c5c61b"/>
    <rect x="333.333"  y="0" height="5.16046" width="55.5556" style="fill: #aa52e0"/>
    <rect x="333.333"  y="0" height="13.3043" width="55.5556" style="fill: #53b4c3"/>
    <rect x="111.111"  y="0" height="2.31817" width="55.5556" style="fill: #643f20"/>
    <rect x="277.778"  y="0" height="12.881" width="55.5556" style="fill: #4ef259"/>
    <rect x="166.667"  y="0" height="39.2477" width="55.5556" style="fill: #d2e980"/>
    <rect x="111.111"  y="0" height="11.3087" width="55.5556" style="fill: #42a948"/>
    <rect x="277.778"  y="0" height="5.28141" width="55.5556" style="fill: #aac5e8"/>
    <rect x="333.333"  y="0" height="8.70827" width="55.5556" style="fill: #84cb3e"/>
    <rect x="111.111"  y="0" height="4.87825" width="55.5556" style="fill: #c7db92"/>
    <rect x="277.778"  y="0" height="39.4694" width="55.5556" style="fill: #5643fd"/>
    <rect x="111.111"  y="0" height="7.37784" width="55.5556" style="fill: #34fdd4"/>
    <rect x="222.222"  y="0" height="1.59249" width="55.5556" style="fill: #67e2cc"/>
    <rect x="333.333"  y="0" height="6.41026" width="55.5556" style="fill: #a40603"/>
    <rect x="222.222"  y="0" height="211.377" width="55.5556" style="fill: #5cb274"/>
    <rect x="111.111"  y="0" height="6.0071" width="55.5556" style="fill: #4cb90a"/>
    <rect x="55.5556"  y="0" height="1.6328" width="55.5556" style="fill: #63e51c"/>
    <rect x="55.5556"  y="0" height="7.31737" width="55.5556" style="fill: #973790"/>
    <rect x="333.333"  y="0" height="3.08418" width="55.5556" style="fill: #334394"/>
    <rect x="333.333"  y="0" height="20.8233" width="55.5556" style="fill: #7e0208"/>
    <rect x="111.111"  y="0" height="3.14465" width="55.5556" style="fill: #6541e4"/>
    <rect x="55.5556"  y="0" height="8.2648" width="55.5556" style="fill: #c48a99"/>
    <rect x="111.111"  y="0" height="19.0493" width="55.5556" style="fill: #630aa9"/>
    <rect x="166.667"  y="0" height="387.276" width="55.5556" style="fill: #aece15"/>
    <rect x="55.5556"  y="0" height="7.47863" width="55.5556" style="fill: #3843a4"/>
    <rect x="0"  y="0" height="2.8826" width="55.5556" style="fill: #b19027"/>
    <rect x="0"  y="0" height="2.96323" width="55.5556" style="fill: #4ebc95"/>
    <rect x="0"  y="0" height="6.1482" width="55.5556" style="fill: #5f8592"/>
    <rect x="55.5556"  y="0" height="1.67312" width="55.5556" style="fill: #e30a22"/>
    <rect x="333.333"  y="0" height="16.9932" width="55.5556" style="fill: #05a485"/>
    <rect x="55.5556"  y="0" height="10.3612" width="55.5556" style="fill: #846248"/>
    <rect x="111.111"  y="0" height="57.3496" width="55.5556" style="fill: #987550"/>
    <rect x="0"  y="0" height="20.8434" width="55.5556" style="fill: #aaf209"/>
    <rect x="277.778"  y="0" height="9.25254" width="55.5556" style="fill: #4ec59e"/>
    <rect x="55.5556"  y="0" height="3.44702" width="55.5556" style="fill: #7931dc"/>
    <rect x="55.5556"  y="0" height="5.20077" width="55.5556" style="fill: #650c74"/>
    <rect x="277.778"  y="0" height="52.6125" width="55.5556" style="fill: #51cc61"/>
    <rect x="333.333"  y="0" height="4.01145" width="55.5556" style="fill: #c0cb2c"/>
    <rect x="55.5556"  y="0" height="51.2821" width="55.5556" style="fill: #46a1b3"/>
    <rect x="333.333"  y="0" height="7.33753" width="55.5556" style="fill: #f2c349"/>
    <rect x="0"  y="0" height="15.9047" width="55.5556" style="fill: #faff76"/>
    <rect x="333.333"  y="0" height="7.25689" width="55.5556" style="fill: #3c7f8d"/>
    <rect x="333.333"  y="0" height="8.93001" width="55.5556" style="fill: #14ddff"/>
    <rect x="388.889"  y="0" height="3.80987" width="55.5556" style="fill: #946351"/>
    <rect x="0"  y="0" height="2.76165" width="55.5556" style="fill: #744378"/>
    <rect x="388.889"  y="0" height="3.42687" width="55.5556" style="fill: #d62c59"/>
    <rect x="0"  y="0" height="12.2762" width="55.5556" style="fill: #285a8d"/>
    <rect x="333.333"  y="0" height="22.8592" width="55.5556" style="fill: #791561"/>
    <rect x="388.889"  y="0" height="29.2292" width="55.5556" style="fill: #4f5a2a"/>
    <rect x="0"  y="0" height="5.42251" width="55.5556" style="fill: #c9e0d6"/>
    <rect x="111.111"  y="0" height="8.72843" width="55.5556" style="fill: #8aca62"/>
    <rect x="0"  y="0" height="5.16046" width="55.5556" style="fill: #48a922"/>
    <rect x="0"  y="0" height="6.69247" width="55.5556" style="fill: #7ab8f1"/>
    <rect x="277.778"  y="0" height="23.5647" width="55.5556" style="fill: #930ee3"/>
    <rect x="333.333"  y="0" height="3.46718" width="55.5556" style="fill: #8ac7a9"/>
    <rect x="111.111"  y="0" height="6.02725" width="55.5556" style="fill: #d239c9"/>
    <rect x="55.5556"  y="0" height="3.80987" width="55.5556" style="fill: #b026a4"/>
    <rect x="333.333"  y="0" height="5.90631" width="55.5556" style="fill: #81e49d"/>
    <rect x="0"  y="0" height="11.0264" width="55.5556" style="fill: #53161f"/>
    <rect x="111.111"  y="0" height="1.69328" width="55.5556" style="fill: #9a9513"/>
    <rect x="55.5556"  y="0" height="13.4454" width="55.5556" style="fill: #fe5271"/>
    <rect x="388.889"  y="0" height="315.675" width="55.5556" style="fill: #c32e9c"/>
    <rect x="111.111"  y="0" height="4.03161" width="55.5556" style="fill: #21d156"/>
</svg>
</svg>
