<svg  xmlns="http://www.w3.org/2000/svg" xmlns:xlink="http://www.w3.org/1999/xlink" x="0" y="0" width="600" height="600">
<rect x="0%" y="0%" height="100%" width="100%" style="fill: #ffffff"/>
<svg x="0" y="0">
  <text fill="dark" font-size="35" transform="translate(250, 30)">cores</text>
</svg>
<svg x="0" y="0"> 
  <text fill="dark" font-size="35" transform="translate(30, 300) rotate(270)">time</text>
</svg>
<svg x = "50" y="550">
  <text fill="blue" font-size="30" transform="translate(0, 35)">t = 26s, lb = 0.521381</text>
</svg>
<svg x="50" y="50" width="500" height="500" >
  <rect x="0%" y="0%" height="100%" width="100%" style="fill: #eeeeee"/>
    <rect x="0"  y="0" height="11.6867" width="55.5556" style="fill: #76931f"/>
    <rect x="222.222"  y="0" height="10.2003" width="55.5556" style="fill: #ac9dab"/>
    <rect x="111.111"  y="0" height="13.4146" width="55.5556" style="fill: #2b36c2"/>
    <rect x="55.5556"  y="0" height="18.0224" width="55.5556" style="fill: #48b87d"/>
    <rect x="333.333"  y="0" height="2.17383" width="55.5556" style="fill: #6ae33f"/>
    <rect x="277.778"  y="0" height="10.9621" width="55.5556" style="fill: #9a62d7"/>
    <rect x="166.667"  y="0" height="2.9356" width="55.5556" style="fill: #183a5d"/>
    <rect x="388.889"  y="0" height="13.9348" width="55.5556" style="fill: #5789e4"/>
    <rect x="333.333"  y="0" height="24.5996" width="55.5556" style="fill: #b2d6b4"/>
    <rect x="166.667"  y="0" height="20.4377" width="55.5556" style="fill: #41e241"/>
    <rect x="222.222"  y="0" height="78.8525" width="55.5556" style="fill: #1dc709"/>
    <rect x="277.778"  y="0" height="2.48969" width="55.5556" style="fill: #e111c7"/>
    <rect x="0"  y="0" height="2.26673" width="55.5556" style="fill: #e1e7ac"/>
    <rect x="111.111"  y="0" height="2.02519" width="55.5556" style="fill: #b6f8ca"/>
    <rect x="277.778"  y="0" height="3.82743" width="55.5556" style="fill: #c0bb2f"/>
    <rect x="388.889"  y="0" height="1.82082" width="55.5556" style="fill: #c4c8bc"/>
    <rect x="0"  y="0" height="2.87986" width="55.5556" style="fill: #2ae3ba"/>
    <rect x="111.111"  y="0" height="3.64163" width="55.5556" style="fill: #aab916"/>
    <rect x="388.889"  y="0" height="17.6879" width="55.5556" style="fill: #5cc458"/>
    <rect x="0"  y="0" height="2.24815" width="55.5556" style="fill: #e199cb"/>
    <rect x="277.778"  y="0" height="6.94883" width="55.5556" style="fill: #89f51b"/>
    <rect x="55.5556"  y="0" height="6.03842" width="55.5556" style="fill: #135f70"/>
    <rect x="111.111"  y="0" height="2.08093" width="55.5556" style="fill: #91a5ab"/>
    <rect x="0"  y="0" height="9.0855" width="55.5556" style="fill: #b0874d"/>
    <rect x="111.111"  y="0" height="8.50953" width="55.5556" style="fill: #f3e8cb"/>
    <rect x="166.667"  y="0" height="30.3593" width="55.5556" style="fill: #4543a5"/>
    <rect x="55.5556"  y="0" height="12.3927" width="55.5556" style="fill: #eb93b0"/>
    <rect x="277.778"  y="0" height="16.4988" width="55.5556" style="fill: #441e9c"/>
    <rect x="333.333"  y="0" height="10.8877" width="55.5556" style="fill: #a4c2b0"/>
    <rect x="0"  y="0" height="200.569" width="55.5556" style="fill: #fb3d30"/>
    <rect x="111.111"  y="0" height="6.78161" width="55.5556" style="fill: #875cbf"/>
    <rect x="388.889"  y="0" height="15.9414" width="55.5556" style="fill: #29abd5"/>
    <rect x="55.5556"  y="0" height="4.73784" width="55.5556" style="fill: #b1acf3"/>
    <rect x="111.111"  y="0" height="18.7841" width="55.5556" style="fill: #8984b3"/>
    <rect x="333.333"  y="0" height="7.74776" width="55.5556" style="fill: #5ae882"/>
    <rect x="277.778"  y="0" height="6.6144" width="55.5556" style="fill: #809dd4"/>
    <rect x="55.5556"  y="0" height="3.15856" width="55.5556" style="fill: #cfe7ab"/>
    <rect x="55.5556"  y="0" height="3.47442" width="55.5556" style="fill: #c5c61b"/>
    <rect x="333.333"  y="0" height="2.69407" width="55.5556" style="fill: #aa52e0"/>
    <rect x="277.778"  y="0" height="14.8081" width="55.5556" style="fill: #53b4c3"/>
    <rect x="55.5556"  y="0" height="46.1521" width="55.5556" style="fill: #643f20"/>
    <rect x="333.333"  y="0" height="5.83405" width="55.5556" style="fill: #4ef259"/>
    <rect x="388.889"  y="0" height="4.01323" width="55.5556" style="fill: #d2e980"/>
    <rect x="388.889"  y="0" height="4.8679" width="55.5556" style="fill: #42a948"/>
    <rect x="166.667"  y="0" height="10.2746" width="55.5556" style="fill: #aac5e8"/>
    <rect x="333.333"  y="0" height="11.1107" width="55.5556" style="fill: #84cb3e"/>
    <rect x="111.111"  y="0" height="3.45584" width="55.5556" style="fill: #c7db92"/>
    <rect x="388.889"  y="0" height="17.4464" width="55.5556" style="fill: #5643fd"/>
    <rect x="111.111"  y="0" height="5.57393" width="55.5556" style="fill: #34fdd4"/>
    <rect x="277.778"  y="0" height="10.8877" width="55.5556" style="fill: #67e2cc"/>
    <rect x="166.667"  y="0" height="4.29193" width="55.5556" style="fill: #a40603"/>
    <rect x="111.111"  y="0" height="4.70068" width="55.5556" style="fill: #5cb274"/>
    <rect x="333.333"  y="0" height="7.04173" width="55.5556" style="fill: #4cb90a"/>
    <rect x="166.667"  y="0" height="4.06897" width="55.5556" style="fill: #63e51c"/>
    <rect x="111.111"  y="0" height="4.08755" width="55.5556" style="fill: #973790"/>
    <rect x="333.333"  y="0" height="2.17383" width="55.5556" style="fill: #334394"/>
    <rect x="166.667"  y="0" height="13.3403" width="55.5556" style="fill: #7e0208"/>
    <rect x="277.778"  y="0" height="5.01654" width="55.5556" style="fill: #6541e4"/>
    <rect x="111.111"  y="0" height="11.9654" width="55.5556" style="fill: #c48a99"/>
    <rect x="333.333"  y="0" height="4.73784" width="55.5556" style="fill: #630aa9"/>
    <rect x="388.889"  y="0" height="2.47111" width="55.5556" style="fill: #aece15"/>
    <rect x="277.778"  y="0" height="2.56401" width="55.5556" style="fill: #3843a4"/>
    <rect x="388.889"  y="0" height="21.7383" width="55.5556" style="fill: #b19027"/>
    <rect x="333.333"  y="0" height="13.749" width="55.5556" style="fill: #4ebc95"/>
    <rect x="277.778"  y="0" height="13.8605" width="55.5556" style="fill: #5f8592"/>
    <rect x="111.111"  y="0" height="22.1657" width="55.5556" style="fill: #e30a22"/>
    <rect x="166.667"  y="0" height="43.2351" width="55.5556" style="fill: #05a485"/>
    <rect x="222.222"  y="0" height="5.53677" width="55.5556" style="fill: #846248"/>
    <rect x="333.333"  y="0" height="291.702" width="55.5556" style="fill: #987550"/>
    <rect x="55.5556"  y="0" height="7.69202" width="55.5556" style="fill: #aaf209"/>
    <rect x="277.778"  y="0" height="6.89309" width="55.5556" style="fill: #4ec59e"/>
    <rect x="222.222"  y="0" height="405.355" width="55.5556" style="fill: #7931dc"/>
    <rect x="388.889"  y="0" height="12.7271" width="55.5556" style="fill: #650c74"/>
    <rect x="277.778"  y="0" height="154.992" width="55.5556" style="fill: #51cc61"/>
    <rect x="55.5556"  y="0" height="9.7358" width="55.5556" style="fill: #c0cb2c"/>
    <rect x="111.111"  y="0" height="6.81877" width="55.5556" style="fill: #46a1b3"/>
    <rect x="55.5556"  y="0" height="12.9501" width="55.5556" style="fill: #f2c349"/>
    <rect x="388.889"  y="0" height="3.04708" width="55.5556" style="fill: #faff76"/>
    <rect x="111.111"  y="0" height="11.408" width="55.5556" style="fill: #3c7f8d"/>
    <rect x="388.889"  y="0" height="1.87656" width="55.5556" style="fill: #14ddff"/>
    <rect x="388.889"  y="0" height="2.08093" width="55.5556" style="fill: #946351"/>
    <rect x="388.889"  y="0" height="27.7024" width="55.5556" style="fill: #744378"/>
    <rect x="55.5556"  y="0" height="5.49961" width="55.5556" style="fill: #d62c59"/>
    <rect x="111.111"  y="0" height="2.24815" width="55.5556" style="fill: #285a8d"/>
    <rect x="111.111"  y="0" height="9.49426" width="55.5556" style="fill: #791561"/>
    <rect x="166.667"  y="0" height="20.5864" width="55.5556" style="fill: #4f5a2a"/>
    <rect x="55.5556"  y="0" height="5.9641" width="55.5556" style="fill: #c9e0d6"/>
    <rect x="55.5556"  y="0" height="14.4551" width="55.5556" style="fill: #8aca62"/>
    <rect x="111.111"  y="0" height="2.80554" width="55.5556" style="fill: #48a922"/>
    <rect x="111.111"  y="0" height="2.71265" width="55.5556" style="fill: #7ab8f1"/>
    <rect x="111.111"  y="0" height="21.5711" width="55.5556" style="fill: #930ee3"/>
    <rect x="388.889"  y="0" height="5.98268" width="55.5556" style="fill: #8ac7a9"/>
    <rect x="166.667"  y="0" height="24.5439" width="55.5556" style="fill: #d239c9"/>
    <rect x="55.5556"  y="0" height="6.13132" width="55.5556" style="fill: #b026a4"/>
    <rect x="388.889"  y="0" height="2.63833" width="55.5556" style="fill: #81e49d"/>
    <rect x="388.889"  y="0" height="34.2053" width="55.5556" style="fill: #53161f"/>
    <rect x="55.5556"  y="0" height="7.09747" width="55.5556" style="fill: #9a9513"/>
    <rect x="55.5556"  y="0" height="2.00661" width="55.5556" style="fill: #fe5271"/>
    <rect x="111.111"  y="0" height="20.4563" width="55.5556" style="fill: #c32e9c"/>
    <rect x="55.5556"  y="0" height="1.5607" width="55.5556" style="fill: #21d156"/>
</svg>
</svg>
