<svg  xmlns="http://www.w3.org/2000/svg" xmlns:xlink="http://www.w3.org/1999/xlink" x="0" y="0" width="600" height="600">
<rect x="0%" y="0%" height="100%" width="100%" style="fill: #ffffff"/>
<svg x="0" y="0">
  <text fill="dark" font-size="35" transform="translate(250, 30)">cores</text>
</svg>
<svg x="0" y="0"> 
  <text fill="dark" font-size="35" transform="translate(30, 300) rotate(270)">time</text>
</svg>
<svg x = "50" y="550">
  <text fill="blue" font-size="30" transform="translate(0, 35)">t = 4s, lb = 0.987652</text>
</svg>
<svg x="50" y="50" width="500" height="500" >
  <rect x="0%" y="0%" height="100%" width="100%" style="fill: #eeeeee"/>
    <rect x="0"  y="0" height="7.10023" width="250" style="fill: #df6ed3"/>
    <rect x="0"  y="0" height="13.1714" width="250" style="fill: #5f477b"/>
    <rect x="0"  y="0" height="4.42478" width="250" style="fill: #002298"/>
    <rect x="0"  y="0" height="4.42478" width="250" style="fill: #1e5e1f"/>
    <rect x="0"  y="0" height="8.43795" width="250" style="fill: #bfe1bf"/>
    <rect x="0"  y="0" height="2.26384" width="250" style="fill: #b8e26b"/>
    <rect x="0"  y="0" height="17.802" width="250" style="fill: #5ba932"/>
    <rect x="0"  y="0" height="4.21898" width="250" style="fill: #53275b"/>
    <rect x="0"  y="0" height="9.15826" width="250" style="fill: #f6a44b"/>
    <rect x="0"  y="0" height="9.77567" width="250" style="fill: #3fa105"/>
    <rect x="0"  y="0" height="6.58572" width="250" style="fill: #1cdfe3"/>
    <rect x="0"  y="0" height="2.46964" width="250" style="fill: #b3f5d2"/>
    <rect x="0"  y="0" height="3.08705" width="250" style="fill: #725a9a"/>
    <rect x="0"  y="0" height="2.05804" width="250" style="fill: #580fd5"/>
    <rect x="0"  y="0" height="3.08705" width="250" style="fill: #b04525"/>
    <rect x="0"  y="0" height="4.52768" width="250" style="fill: #b3182f"/>
    <rect x="0"  y="0" height="4.93929" width="250" style="fill: #cd2b3f"/>
    <rect x="0"  y="0" height="5.4538" width="250" style="fill: #da124a"/>
    <rect x="0"  y="0" height="7.40893" width="250" style="fill: #ca3c90"/>
    <rect x="0"  y="0" height="4.73348" width="250" style="fill: #1406a2"/>
    <rect x="0"  y="0" height="4.01317" width="250" style="fill: #b55cd8"/>
    <rect x="0"  y="0" height="3.49866" width="250" style="fill: #b95d48"/>
    <rect x="0"  y="0" height="5.3509" width="250" style="fill: #d13e37"/>
    <rect x="0"  y="0" height="3.29286" width="250" style="fill: #9f1ccb"/>
    <rect x="0"  y="0" height="2.26384" width="250" style="fill: #cdfc39"/>
    <rect x="0"  y="0" height="6.99732" width="250" style="fill: #fee4ac"/>
    <rect x="0"  y="0" height="3.18996" width="250" style="fill: #c5523a"/>
    <rect x="0"  y="0" height="4.63058" width="250" style="fill: #a0bdef"/>
    <rect x="0"  y="0" height="4.11607" width="250" style="fill: #57e63a"/>
    <rect x="0"  y="0" height="8.12924" width="250" style="fill: #1f81cb"/>
    <rect x="0"  y="0" height="5.7625" width="250" style="fill: #aba9f4"/>
    <rect x="0"  y="0" height="3.60156" width="250" style="fill: #5caaed"/>
    <rect x="0"  y="0" height="6.89442" width="250" style="fill: #48d06b"/>
    <rect x="0"  y="0" height="4.52768" width="250" style="fill: #fb3d16"/>
    <rect x="0"  y="0" height="2.98415" width="250" style="fill: #836042"/>
    <rect x="0"  y="0" height="2.16094" width="250" style="fill: #bed57c"/>
    <rect x="0"  y="0" height="6.79152" width="250" style="fill: #ac8476"/>
    <rect x="0"  y="0" height="3.60156" width="250" style="fill: #1bfeb5"/>
    <rect x="0"  y="0" height="6.89442" width="250" style="fill: #9a0c81"/>
    <rect x="0"  y="0" height="8.02634" width="250" style="fill: #304908"/>
    <rect x="0"  y="0" height="3.70447" width="250" style="fill: #bb781e"/>
    <rect x="0"  y="0" height="4.11607" width="250" style="fill: #4bbdf2"/>
    <rect x="0"  y="0" height="2.57255" width="250" style="fill: #30d2e9"/>
    <rect x="0"  y="0" height="5.3509" width="250" style="fill: #77374b"/>
    <rect x="0"  y="0" height="2.77835" width="250" style="fill: #97bd0b"/>
    <rect x="0"  y="0" height="2.46964" width="250" style="fill: #6b7d38"/>
    <rect x="0"  y="0" height="2.57255" width="250" style="fill: #b73642"/>
    <rect x="0"  y="0" height="2.88125" width="250" style="fill: #8826a0"/>
    <rect x="0"  y="0" height="2.88125" width="250" style="fill: #f2729b"/>
    <rect x="0"  y="0" height="4.63058" width="250" style="fill: #e22902"/>
    <rect x="0"  y="0" height="2.46964" width="250" style="fill: #56dc30"/>
    <rect x="0"  y="0" height="4.63058" width="250" style="fill: #4e875c"/>
    <rect x="0"  y="0" height="2.88125" width="250" style="fill: #9d4b3f"/>
    <rect x="0"  y="0" height="3.80737" width="250" style="fill: #b2125a"/>
    <rect x="0"  y="0" height="6.17411" width="250" style="fill: #e3d0cd"/>
    <rect x="0"  y="0" height="4.11607" width="250" style="fill: #3130d6"/>
    <rect x="0"  y="0" height="2.67545" width="250" style="fill: #114989"/>
    <rect x="0"  y="0" height="6.99732" width="250" style="fill: #517aca"/>
    <rect x="0"  y="0" height="6.99732" width="250" style="fill: #97daa2"/>
    <rect x="0"  y="0" height="3.49866" width="250" style="fill: #485181"/>
    <rect x="0"  y="0" height="6.07121" width="250" style="fill: #eb31c0"/>
    <rect x="0"  y="0" height="5.14509" width="250" style="fill: #7d2c6a"/>
    <rect x="0"  y="0" height="2.36674" width="250" style="fill: #5bcc58"/>
    <rect x="0"  y="0" height="4.21898" width="250" style="fill: #7e048a"/>
    <rect x="0"  y="0" height="3.70447" width="250" style="fill: #6d2bea"/>
    <rect x="0"  y="0" height="3.39576" width="250" style="fill: #cd6fe2"/>
    <rect x="0"  y="0" height="7.20313" width="250" style="fill: #06f225"/>
    <rect x="0"  y="0" height="2.88125" width="250" style="fill: #c70846"/>
    <rect x="0"  y="0" height="5.3509" width="250" style="fill: #1b41fd"/>
    <rect x="0"  y="0" height="8.84956" width="250" style="fill: #b5ad08"/>
    <rect x="0"  y="0" height="6.37991" width="250" style="fill: #7c5dc4"/>
    <rect x="0"  y="0" height="4.32188" width="250" style="fill: #fcaeec"/>
    <rect x="0"  y="0" height="2.46964" width="250" style="fill: #3a3437"/>
    <rect x="0"  y="0" height="2.98415" width="250" style="fill: #a42e51"/>
    <rect x="0"  y="0" height="2.67545" width="250" style="fill: #b065d6"/>
    <rect x="0"  y="0" height="4.52768" width="250" style="fill: #e4332f"/>
    <rect x="0"  y="0" height="2.46964" width="250" style="fill: #71b109"/>
    <rect x="0"  y="0" height="6.27701" width="250" style="fill: #d33176"/>
    <rect x="0"  y="0" height="7.40893" width="250" style="fill: #81ab0f"/>
    <rect x="0"  y="0" height="1.74933" width="250" style="fill: #cbf31c"/>
    <rect x="0"  y="0" height="9.87858" width="250" style="fill: #9f1c23"/>
    <rect x="0"  y="0" height="6.89442" width="250" style="fill: #ba46b4"/>
    <rect x="0"  y="0" height="4.11607" width="250" style="fill: #f983af"/>
    <rect x="0"  y="0" height="4.21898" width="250" style="fill: #9214d1"/>
    <rect x="0"  y="0" height="5.8654" width="250" style="fill: #3ac3dd"/>
    <rect x="0"  y="0" height="4.11607" width="250" style="fill: #f6c03f"/>
    <rect x="0"  y="0" height="8.23215" width="250" style="fill: #3e9854"/>
    <rect x="0"  y="0" height="7.82054" width="250" style="fill: #c4d477"/>
    <rect x="0"  y="0" height="5.3509" width="250" style="fill: #41a557"/>
    <rect x="0"  y="0" height="1.95513" width="250" style="fill: #6812be"/>
    <rect x="0"  y="0" height="4.32188" width="250" style="fill: #0b5cb8"/>
    <rect x="0"  y="0" height="3.80737" width="250" style="fill: #bf647b"/>
    <rect x="0"  y="0" height="3.29286" width="250" style="fill: #930687"/>
    <rect x="0"  y="0" height="6.48282" width="250" style="fill: #ec881d"/>
    <rect x="0"  y="0" height="3.29286" width="250" style="fill: #f76191"/>
    <rect x="0"  y="0" height="4.73348" width="250" style="fill: #f9c468"/>
    <rect x="0"  y="0" height="8.02634" width="250" style="fill: #c1736e"/>
    <rect x="0"  y="0" height="2.57255" width="250" style="fill: #ef1e59"/>
    <rect x="0"  y="0" height="5.04219" width="250" style="fill: #635eb6"/>
    <rect x="0"  y="0" height="3.29286" width="250" style="fill: #cbd2c7"/>
</svg>
</svg>
