<svg  xmlns="http://www.w3.org/2000/svg" xmlns:xlink="http://www.w3.org/1999/xlink" x="0" y="0" width="600" height="600">
<rect x="0%" y="0%" height="100%" width="100%" style="fill: #ffffff"/>
<svg x="0" y="0">
  <text fill="dark" font-size="35" transform="translate(250, 30)">cores</text>
</svg>
<svg x="0" y="0"> 
  <text fill="dark" font-size="35" transform="translate(30, 300) rotate(270)">time</text>
</svg>
<svg x = "50" y="550">
  <text fill="blue" font-size="30" transform="translate(0, 35)">t = 95s, lb = 0.323230</text>
</svg>
<svg x="50" y="50" width="500" height="500" >
  <rect x="0%" y="0%" height="100%" width="100%" style="fill: #eeeeee"/>
    <rect x="0"  y="0" height="13.5196" width="55.5556" style="fill: #76931f"/>
    <rect x="222.222"  y="0" height="1.98849" width="55.5556" style="fill: #ac9dab"/>
    <rect x="111.111"  y="0" height="6.83346" width="55.5556" style="fill: #2b36c2"/>
    <rect x="55.5556"  y="0" height="3.34571" width="55.5556" style="fill: #48b87d"/>
    <rect x="333.333"  y="0" height="2.88804" width="55.5556" style="fill: #6ae33f"/>
    <rect x="277.778"  y="0" height="0.541837" width="55.5556" style="fill: #9a62d7"/>
    <rect x="166.667"  y="0" height="2.0937" width="55.5556" style="fill: #183a5d"/>
    <rect x="388.889"  y="0" height="8.6957" width="55.5556" style="fill: #5789e4"/>
    <rect x="277.778"  y="0" height="1.20993" width="55.5556" style="fill: #b2d6b4"/>
    <rect x="277.778"  y="0" height="0.47345" width="55.5556" style="fill: #41e241"/>
    <rect x="222.222"  y="0" height="3.00378" width="55.5556" style="fill: #1dc709"/>
    <rect x="166.667"  y="0" height="1.7202" width="55.5556" style="fill: #e111c7"/>
    <rect x="277.778"  y="0" height="3.50353" width="55.5556" style="fill: #e1e7ac"/>
    <rect x="333.333"  y="0" height="2.16209" width="55.5556" style="fill: #b6f8ca"/>
    <rect x="55.5556"  y="0" height="60.6489" width="55.5556" style="fill: #c0bb2f"/>
    <rect x="166.667"  y="0" height="6.36527" width="55.5556" style="fill: #c4c8bc"/>
    <rect x="222.222"  y="0" height="6.0549" width="55.5556" style="fill: #2ae3ba"/>
    <rect x="333.333"  y="0" height="202.952" width="55.5556" style="fill: #aab916"/>
    <rect x="277.778"  y="0" height="0.9469" width="55.5556" style="fill: #5cc458"/>
    <rect x="277.778"  y="0" height="1.04685" width="55.5556" style="fill: #e199cb"/>
    <rect x="111.111"  y="0" height="4.05589" width="55.5556" style="fill: #89f51b"/>
    <rect x="277.778"  y="0" height="1.78859" width="55.5556" style="fill: #135f70"/>
    <rect x="388.889"  y="0" height="0.957421" width="55.5556" style="fill: #91a5ab"/>
    <rect x="277.778"  y="0" height="3.13003" width="55.5556" style="fill: #b0874d"/>
    <rect x="388.889"  y="0" height="0.494492" width="55.5556" style="fill: #f3e8cb"/>
    <rect x="388.889"  y="0" height="0.752259" width="55.5556" style="fill: #4543a5"/>
    <rect x="166.667"  y="0" height="0.867992" width="55.5556" style="fill: #eb93b0"/>
    <rect x="111.111"  y="0" height="0.610224" width="55.5556" style="fill: #441e9c"/>
    <rect x="388.889"  y="0" height="2.06214" width="55.5556" style="fill: #a4c2b0"/>
    <rect x="222.222"  y="0" height="0.494492" width="55.5556" style="fill: #fb3d30"/>
    <rect x="166.667"  y="0" height="0.552358" width="55.5556" style="fill: #875cbf"/>
    <rect x="111.111"  y="0" height="0.457668" width="55.5556" style="fill: #29abd5"/>
    <rect x="222.222"  y="0" height="2.43038" width="55.5556" style="fill: #b1acf3"/>
    <rect x="166.667"  y="0" height="22.0312" width="55.5556" style="fill: #8984b3"/>
    <rect x="111.111"  y="0" height="1.18889" width="55.5556" style="fill: #5ae882"/>
    <rect x="277.778"  y="0" height="1.46769" width="55.5556" style="fill: #809dd4"/>
    <rect x="388.889"  y="0" height="3.63504" width="55.5556" style="fill: #cfe7ab"/>
    <rect x="111.111"  y="0" height="0.862731" width="55.5556" style="fill: #c5c61b"/>
    <rect x="0"  y="0" height="4.92914" width="55.5556" style="fill: #aa52e0"/>
    <rect x="222.222"  y="0" height="2.55137" width="55.5556" style="fill: #53b4c3"/>
    <rect x="111.111"  y="0" height="0.820647" width="55.5556" style="fill: #643f20"/>
    <rect x="277.778"  y="0" height="0.741738" width="55.5556" style="fill: #4ef259"/>
    <rect x="111.111"  y="0" height="1.25201" width="55.5556" style="fill: #d2e980"/>
    <rect x="277.778"  y="0" height="2.2936" width="55.5556" style="fill: #42a948"/>
    <rect x="111.111"  y="0" height="6.91763" width="55.5556" style="fill: #aac5e8"/>
    <rect x="222.222"  y="0" height="40.0486" width="55.5556" style="fill: #84cb3e"/>
    <rect x="388.889"  y="0" height="1.26253" width="55.5556" style="fill: #c7db92"/>
    <rect x="277.778"  y="0" height="13.062" width="55.5556" style="fill: #5643fd"/>
    <rect x="388.889"  y="0" height="1.6676" width="55.5556" style="fill: #34fdd4"/>
    <rect x="0"  y="0" height="4.19792" width="55.5556" style="fill: #67e2cc"/>
    <rect x="388.889"  y="0" height="1.93588" width="55.5556" style="fill: #a40603"/>
    <rect x="388.889"  y="0" height="0.9469" width="55.5556" style="fill: #5cb274"/>
    <rect x="388.889"  y="0" height="66.1883" width="55.5556" style="fill: #4cb90a"/>
    <rect x="0"  y="0" height="0.499753" width="55.5556" style="fill: #63e51c"/>
    <rect x="111.111"  y="0" height="0.66283" width="55.5556" style="fill: #973790"/>
    <rect x="0"  y="0" height="6.23376" width="55.5556" style="fill: #334394"/>
    <rect x="111.111"  y="0" height="1.64129" width="55.5556" style="fill: #7e0208"/>
    <rect x="111.111"  y="0" height="0.415584" width="55.5556" style="fill: #6541e4"/>
    <rect x="111.111"  y="0" height="0.536577" width="55.5556" style="fill: #c48a99"/>
    <rect x="111.111"  y="0" height="6.55991" width="55.5556" style="fill: #630aa9"/>
    <rect x="0"  y="0" height="4.99227" width="55.5556" style="fill: #aece15"/>
    <rect x="277.778"  y="0" height="1.93588" width="55.5556" style="fill: #3843a4"/>
    <rect x="277.778"  y="0" height="46.3508" width="55.5556" style="fill: #b19027"/>
    <rect x="111.111"  y="0" height="467.122" width="55.5556" style="fill: #4ebc95"/>
    <rect x="166.667"  y="0" height="2.3199" width="55.5556" style="fill: #5f8592"/>
    <rect x="0"  y="0" height="0.699654" width="55.5556" style="fill: #e30a22"/>
    <rect x="0"  y="0" height="76.8094" width="55.5556" style="fill: #05a485"/>
    <rect x="166.667"  y="0" height="3.48775" width="55.5556" style="fill: #846248"/>
    <rect x="166.667"  y="0" height="3.2668" width="55.5556" style="fill: #987550"/>
    <rect x="166.667"  y="0" height="2.70393" width="55.5556" style="fill: #aaf209"/>
    <rect x="166.667"  y="0" height="2.00953" width="55.5556" style="fill: #4ec59e"/>
    <rect x="166.667"  y="0" height="0.599703" width="55.5556" style="fill: #7931dc"/>
    <rect x="166.667"  y="0" height="7.64885" width="55.5556" style="fill: #650c74"/>
    <rect x="166.667"  y="0" height="1.91484" width="55.5556" style="fill: #51cc61"/>
    <rect x="222.222"  y="0" height="1.95693" width="55.5556" style="fill: #c0cb2c"/>
    <rect x="166.667"  y="0" height="0.736478" width="55.5556" style="fill: #46a1b3"/>
    <rect x="166.667"  y="0" height="2.19891" width="55.5556" style="fill: #f2c349"/>
    <rect x="222.222"  y="0" height="6.16537" width="55.5556" style="fill: #faff76"/>
    <rect x="166.667"  y="0" height="25.5821" width="55.5556" style="fill: #3c7f8d"/>
    <rect x="55.5556"  y="0" height="1.35196" width="55.5556" style="fill: #14ddff"/>
    <rect x="222.222"  y="0" height="21.2895" width="55.5556" style="fill: #946351"/>
    <rect x="55.5556"  y="0" height="3.60874" width="55.5556" style="fill: #744378"/>
    <rect x="55.5556"  y="0" height="3.62452" width="55.5556" style="fill: #d62c59"/>
    <rect x="55.5556"  y="0" height="2.71971" width="55.5556" style="fill: #285a8d"/>
    <rect x="55.5556"  y="0" height="1.57817" width="55.5556" style="fill: #791561"/>
    <rect x="55.5556"  y="0" height="5.12904" width="55.5556" style="fill: #4f5a2a"/>
    <rect x="277.778"  y="0" height="0.431366" width="55.5556" style="fill: #c9e0d6"/>
    <rect x="277.778"  y="0" height="1.85172" width="55.5556" style="fill: #8aca62"/>
    <rect x="277.778"  y="0" height="10.2213" width="55.5556" style="fill: #48a922"/>
    <rect x="55.5556"  y="0" height="12.5832" width="55.5556" style="fill: #7ab8f1"/>
    <rect x="222.222"  y="0" height="0.483971" width="55.5556" style="fill: #930ee3"/>
    <rect x="166.667"  y="0" height="0.75752" width="55.5556" style="fill: #8ac7a9"/>
    <rect x="222.222"  y="0" height="5.02383" width="55.5556" style="fill: #d239c9"/>
    <rect x="166.667"  y="0" height="2.27256" width="55.5556" style="fill: #b026a4"/>
    <rect x="388.889"  y="0" height="0.478711" width="55.5556" style="fill: #81e49d"/>
    <rect x="388.889"  y="0" height="6.97024" width="55.5556" style="fill: #53161f"/>
    <rect x="166.667"  y="0" height="1.94114" width="55.5556" style="fill: #9a9513"/>
    <rect x="277.778"  y="0" height="7.91714" width="55.5556" style="fill: #fe5271"/>
    <rect x="166.667"  y="0" height="0.436626" width="55.5556" style="fill: #c32e9c"/>
    <rect x="222.222"  y="0" height="0.547098" width="55.5556" style="fill: #21d156"/>
</svg>
</svg>
