<svg  xmlns="http://www.w3.org/2000/svg" xmlns:xlink="http://www.w3.org/1999/xlink" x="0" y="0" width="600" height="600">
<rect x="0%" y="0%" height="100%" width="100%" style="fill: #ffffff"/>
<svg x="0" y="0">
  <text fill="dark" font-size="35" transform="translate(250, 30)">cores</text>
</svg>
<svg x="0" y="0"> 
  <text fill="dark" font-size="35" transform="translate(30, 300) rotate(270)">time</text>
</svg>
<svg x = "50" y="550">
  <text fill="blue" font-size="30" transform="translate(0, 35)">t = 0s, lb = 0.924571</text>
</svg>
<svg x="50" y="50" width="500" height="500" >
  <rect x="0%" y="0%" height="100%" width="100%" style="fill: #eeeeee"/>
    <rect x="0"  y="0" height="59.4286" width="38.4615" style="fill: #76931f"/>
    <rect x="230.769"  y="0" height="46.2857" width="38.4615" style="fill: #ac9dab"/>
    <rect x="115.385"  y="0" height="58.8571" width="38.4615" style="fill: #2b36c2"/>
    <rect x="38.4615"  y="0" height="57.7143" width="38.4615" style="fill: #48b87d"/>
    <rect x="346.154"  y="0" height="59.4286" width="38.4615" style="fill: #6ae33f"/>
    <rect x="269.231"  y="0" height="58.2857" width="38.4615" style="fill: #9a62d7"/>
    <rect x="153.846"  y="0" height="58.8571" width="38.4615" style="fill: #183a5d"/>
    <rect x="76.9231"  y="0" height="53.1429" width="38.4615" style="fill: #5789e4"/>
    <rect x="384.615"  y="0" height="58.8571" width="38.4615" style="fill: #b2d6b4"/>
    <rect x="307.692"  y="0" height="58.8571" width="38.4615" style="fill: #41e241"/>
    <rect x="192.308"  y="0" height="58.2857" width="38.4615" style="fill: #1dc709"/>
    <rect x="423.077"  y="0" height="58.2857" width="38.4615" style="fill: #e111c7"/>
    <rect x="230.769"  y="0" height="44.5714" width="38.4615" style="fill: #e1e7ac"/>
    <rect x="76.9231"  y="0" height="56.5714" width="38.4615" style="fill: #b6f8ca"/>
    <rect x="38.4615"  y="0" height="56" width="38.4615" style="fill: #c0bb2f"/>
    <rect x="269.231"  y="0" height="57.7143" width="38.4615" style="fill: #c4c8bc"/>
    <rect x="115.385"  y="0" height="58.2857" width="38.4615" style="fill: #2ae3ba"/>
    <rect x="0"  y="0" height="58.8571" width="38.4615" style="fill: #aab916"/>
    <rect x="153.846"  y="0" height="50.2857" width="38.4615" style="fill: #5cc458"/>
    <rect x="423.077"  y="0" height="58.2857" width="38.4615" style="fill: #e199cb"/>
    <rect x="346.154"  y="0" height="40.5714" width="38.4615" style="fill: #89f51b"/>
    <rect x="192.308"  y="0" height="57.7143" width="38.4615" style="fill: #135f70"/>
    <rect x="384.615"  y="0" height="57.1429" width="38.4615" style="fill: #91a5ab"/>
    <rect x="307.692"  y="0" height="58.8571" width="38.4615" style="fill: #b0874d"/>
    <rect x="230.769"  y="0" height="52.5714" width="38.4615" style="fill: #f3e8cb"/>
    <rect x="346.154"  y="0" height="58.8571" width="38.4615" style="fill: #4543a5"/>
    <rect x="153.846"  y="0" height="62.8571" width="38.4615" style="fill: #eb93b0"/>
    <rect x="76.9231"  y="0" height="57.7143" width="38.4615" style="fill: #441e9c"/>
    <rect x="38.4615"  y="0" height="58.2857" width="38.4615" style="fill: #a4c2b0"/>
    <rect x="269.231"  y="0" height="55.4286" width="38.4615" style="fill: #fb3d30"/>
    <rect x="384.615"  y="0" height="58.8571" width="38.4615" style="fill: #875cbf"/>
    <rect x="115.385"  y="0" height="58.8571" width="38.4615" style="fill: #29abd5"/>
    <rect x="192.308"  y="0" height="45.7143" width="38.4615" style="fill: #b1acf3"/>
    <rect x="0"  y="0" height="58.8571" width="38.4615" style="fill: #8984b3"/>
    <rect x="423.077"  y="0" height="44" width="38.4615" style="fill: #5ae882"/>
    <rect x="307.692"  y="0" height="58.8571" width="38.4615" style="fill: #809dd4"/>
    <rect x="230.769"  y="0" height="49.1429" width="38.4615" style="fill: #cfe7ab"/>
    <rect x="346.154"  y="0" height="57.1429" width="38.4615" style="fill: #c5c61b"/>
    <rect x="423.077"  y="0" height="59.4286" width="38.4615" style="fill: #aa52e0"/>
    <rect x="192.308"  y="0" height="58.8571" width="38.4615" style="fill: #53b4c3"/>
    <rect x="76.9231"  y="0" height="56.5714" width="38.4615" style="fill: #643f20"/>
    <rect x="269.231"  y="0" height="58.8571" width="38.4615" style="fill: #4ef259"/>
    <rect x="38.4615"  y="0" height="41.1429" width="38.4615" style="fill: #d2e980"/>
    <rect x="153.846"  y="0" height="57.7143" width="38.4615" style="fill: #42a948"/>
    <rect x="384.615"  y="0" height="58.8571" width="38.4615" style="fill: #aac5e8"/>
    <rect x="115.385"  y="0" height="58.2857" width="38.4615" style="fill: #84cb3e"/>
    <rect x="0"  y="0" height="58.8571" width="38.4615" style="fill: #c7db92"/>
    <rect x="307.692"  y="0" height="49.7143" width="38.4615" style="fill: #5643fd"/>
    <rect x="230.769"  y="0" height="47.4286" width="38.4615" style="fill: #34fdd4"/>
    <rect x="38.4615"  y="0" height="52" width="38.4615" style="fill: #67e2cc"/>
    <rect x="346.154"  y="0" height="57.7143" width="38.4615" style="fill: #a40603"/>
    <rect x="423.077"  y="0" height="45.1429" width="38.4615" style="fill: #5cb274"/>
    <rect x="192.308"  y="0" height="58.8571" width="38.4615" style="fill: #4cb90a"/>
    <rect x="76.9231"  y="0" height="57.7143" width="38.4615" style="fill: #63e51c"/>
    <rect x="307.692"  y="0" height="57.7143" width="38.4615" style="fill: #973790"/>
    <rect x="153.846"  y="0" height="52" width="38.4615" style="fill: #334394"/>
    <rect x="269.231"  y="0" height="58.8571" width="38.4615" style="fill: #7e0208"/>
    <rect x="115.385"  y="0" height="58.8571" width="38.4615" style="fill: #6541e4"/>
    <rect x="384.615"  y="0" height="49.7143" width="38.4615" style="fill: #c48a99"/>
    <rect x="0"  y="0" height="52" width="38.4615" style="fill: #630aa9"/>
    <rect x="230.769"  y="0" height="65.1429" width="38.4615" style="fill: #aece15"/>
    <rect x="38.4615"  y="0" height="54.2857" width="38.4615" style="fill: #3843a4"/>
    <rect x="423.077"  y="0" height="50.8571" width="38.4615" style="fill: #b19027"/>
    <rect x="346.154"  y="0" height="54.2857" width="38.4615" style="fill: #4ebc95"/>
    <rect x="192.308"  y="0" height="58.8571" width="38.4615" style="fill: #5f8592"/>
    <rect x="153.846"  y="0" height="58.8571" width="38.4615" style="fill: #e30a22"/>
    <rect x="76.9231"  y="0" height="59.4286" width="38.4615" style="fill: #05a485"/>
    <rect x="384.615"  y="0" height="57.1429" width="38.4615" style="fill: #846248"/>
    <rect x="307.692"  y="0" height="48" width="38.4615" style="fill: #987550"/>
    <rect x="0"  y="0" height="58.8571" width="38.4615" style="fill: #aaf209"/>
    <rect x="269.231"  y="0" height="57.1429" width="38.4615" style="fill: #4ec59e"/>
    <rect x="115.385"  y="0" height="52.5714" width="38.4615" style="fill: #7931dc"/>
    <rect x="230.769"  y="0" height="53.1429" width="38.4615" style="fill: #650c74"/>
    <rect x="423.077"  y="0" height="56.5714" width="38.4615" style="fill: #51cc61"/>
    <rect x="38.4615"  y="0" height="52.5714" width="38.4615" style="fill: #c0cb2c"/>
    <rect x="346.154"  y="0" height="53.1429" width="38.4615" style="fill: #46a1b3"/>
    <rect x="307.692"  y="0" height="56" width="38.4615" style="fill: #f2c349"/>
    <rect x="192.308"  y="0" height="56.5714" width="38.4615" style="fill: #faff76"/>
    <rect x="153.846"  y="0" height="62.8571" width="38.4615" style="fill: #3c7f8d"/>
    <rect x="76.9231"  y="0" height="53.7143" width="38.4615" style="fill: #14ddff"/>
    <rect x="384.615"  y="0" height="60" width="38.4615" style="fill: #946351"/>
    <rect x="115.385"  y="0" height="58.8571" width="38.4615" style="fill: #744378"/>
    <rect x="0"  y="0" height="52.5714" width="38.4615" style="fill: #d62c59"/>
    <rect x="269.231"  y="0" height="58.8571" width="38.4615" style="fill: #285a8d"/>
    <rect x="230.769"  y="0" height="57.7143" width="38.4615" style="fill: #791561"/>
    <rect x="38.4615"  y="0" height="52.5714" width="38.4615" style="fill: #4f5a2a"/>
    <rect x="423.077"  y="0" height="57.1429" width="38.4615" style="fill: #c9e0d6"/>
    <rect x="346.154"  y="0" height="60" width="38.4615" style="fill: #8aca62"/>
    <rect x="307.692"  y="0" height="59.4286" width="38.4615" style="fill: #48a922"/>
    <rect x="76.9231"  y="0" height="58.2857" width="38.4615" style="fill: #7ab8f1"/>
    <rect x="192.308"  y="0" height="58.8571" width="38.4615" style="fill: #930ee3"/>
    <rect x="0"  y="0" height="58.8571" width="38.4615" style="fill: #8ac7a9"/>
    <rect x="384.615"  y="0" height="41.7143" width="38.4615" style="fill: #d239c9"/>
    <rect x="153.846"  y="0" height="50.2857" width="38.4615" style="fill: #b026a4"/>
    <rect x="115.385"  y="0" height="56" width="38.4615" style="fill: #81e49d"/>
    <rect x="269.231"  y="0" height="54.8571" width="38.4615" style="fill: #53161f"/>
    <rect x="230.769"  y="0" height="53.1429" width="38.4615" style="fill: #9a9513"/>
    <rect x="38.4615"  y="0" height="53.1429" width="38.4615" style="fill: #fe5271"/>
    <rect x="423.077"  y="0" height="44.5714" width="38.4615" style="fill: #c32e9c"/>
    <rect x="346.154"  y="0" height="56" width="38.4615" style="fill: #21d156"/>
</svg>
</svg>
