<svg  xmlns="http://www.w3.org/2000/svg" xmlns:xlink="http://www.w3.org/1999/xlink" x="0" y="0" width="600" height="600">
<rect x="0%" y="0%" height="100%" width="100%" style="fill: #ffffff"/>
<svg x="0" y="0">
  <text fill="dark" font-size="35" transform="translate(250, 30)">cores</text>
</svg>
<svg x="0" y="0"> 
  <text fill="dark" font-size="35" transform="translate(30, 300) rotate(270)">time</text>
</svg>
<svg x = "50" y="550">
  <text fill="blue" font-size="30" transform="translate(0, 35)">t = 21s, lb = 0.997144</text>
</svg>
<svg x="50" y="50" width="500" height="500" >
  <rect x="0%" y="0%" height="100%" width="100%" style="fill: #eeeeee"/>
    <rect x="0"  y="0" height="9.57996" width="250" style="fill: #76931f"/>
    <rect x="0"  y="0" height="0.460575" width="250" style="fill: #ac9dab"/>
    <rect x="0"  y="0" height="1.95744" width="250" style="fill: #2b36c2"/>
    <rect x="0"  y="0" height="0.437546" width="250" style="fill: #48b87d"/>
    <rect x="0"  y="0" height="1.33567" width="250" style="fill: #6ae33f"/>
    <rect x="0"  y="0" height="2.99374" width="250" style="fill: #9a62d7"/>
    <rect x="0"  y="0" height="3.40825" width="250" style="fill: #183a5d"/>
    <rect x="0"  y="0" height="1.22052" width="250" style="fill: #5789e4"/>
    <rect x="0"  y="0" height="0.506632" width="250" style="fill: #b2d6b4"/>
    <rect x="0"  y="0" height="1.47384" width="250" style="fill: #41e241"/>
    <rect x="0"  y="0" height="27.1509" width="250" style="fill: #1dc709"/>
    <rect x="0"  y="0" height="0.414517" width="250" style="fill: #e111c7"/>
    <rect x="0"  y="0" height="0.299374" width="250" style="fill: #e1e7ac"/>
    <rect x="0"  y="0" height="2.30287" width="250" style="fill: #b6f8ca"/>
    <rect x="0"  y="0" height="1.79624" width="250" style="fill: #c0bb2f"/>
    <rect x="0"  y="0" height="1.65807" width="250" style="fill: #c4c8bc"/>
    <rect x="0"  y="0" height="0.322402" width="250" style="fill: #2ae3ba"/>
    <rect x="0"  y="0" height="1.22052" width="250" style="fill: #aab916"/>
    <rect x="0"  y="0" height="1.81927" width="250" style="fill: #5cc458"/>
    <rect x="0"  y="0" height="0.253316" width="250" style="fill: #e199cb"/>
    <rect x="0"  y="0" height="4.07609" width="250" style="fill: #89f51b"/>
    <rect x="0"  y="0" height="1.49687" width="250" style="fill: #135f70"/>
    <rect x="0"  y="0" height="3.79974" width="250" style="fill: #91a5ab"/>
    <rect x="0"  y="0" height="1.79624" width="250" style="fill: #b0874d"/>
    <rect x="0"  y="0" height="1.10538" width="250" style="fill: #f3e8cb"/>
    <rect x="0"  y="0" height="4.30637" width="250" style="fill: #4543a5"/>
    <rect x="0"  y="0" height="8.06006" width="250" style="fill: #eb93b0"/>
    <rect x="0"  y="0" height="2.80951" width="250" style="fill: #441e9c"/>
    <rect x="0"  y="0" height="0.506632" width="250" style="fill: #a4c2b0"/>
    <rect x="0"  y="0" height="1.10538" width="250" style="fill: #fb3d30"/>
    <rect x="0"  y="0" height="1.56595" width="250" style="fill: #875cbf"/>
    <rect x="0"  y="0" height="0.506632" width="250" style="fill: #29abd5"/>
    <rect x="0"  y="0" height="1.5199" width="250" style="fill: #b1acf3"/>
    <rect x="0"  y="0" height="3.24705" width="250" style="fill: #8984b3"/>
    <rect x="0"  y="0" height="1.24355" width="250" style="fill: #5ae882"/>
    <rect x="0"  y="0" height="2.80951" width="250" style="fill: #809dd4"/>
    <rect x="0"  y="0" height="0.460575" width="250" style="fill: #cfe7ab"/>
    <rect x="0"  y="0" height="9.64904" width="250" style="fill: #c5c61b"/>
    <rect x="0"  y="0" height="1.98047" width="250" style="fill: #aa52e0"/>
    <rect x="0"  y="0" height="1.22052" width="250" style="fill: #53b4c3"/>
    <rect x="0"  y="0" height="4.78998" width="250" style="fill: #643f20"/>
    <rect x="0"  y="0" height="2.46408" width="250" style="fill: #4ef259"/>
    <rect x="0"  y="0" height="3.5234" width="250" style="fill: #d2e980"/>
    <rect x="0"  y="0" height="9.14241" width="250" style="fill: #42a948"/>
    <rect x="0"  y="0" height="0.898121" width="250" style="fill: #aac5e8"/>
    <rect x="0"  y="0" height="2.53316" width="250" style="fill: #84cb3e"/>
    <rect x="0"  y="0" height="2.62528" width="250" style="fill: #c7db92"/>
    <rect x="0"  y="0" height="1.95744" width="250" style="fill: #5643fd"/>
    <rect x="0"  y="0" height="0.506632" width="250" style="fill: #34fdd4"/>
    <rect x="0"  y="0" height="11.2611" width="250" style="fill: #67e2cc"/>
    <rect x="0"  y="0" height="0.55269" width="250" style="fill: #a40603"/>
    <rect x="0"  y="0" height="0.806006" width="250" style="fill: #5cb274"/>
    <rect x="0"  y="0" height="1.63504" width="250" style="fill: #4cb90a"/>
    <rect x="0"  y="0" height="1.10538" width="250" style="fill: #63e51c"/>
    <rect x="0"  y="0" height="0.460575" width="250" style="fill: #973790"/>
    <rect x="0"  y="0" height="34.3819" width="250" style="fill: #334394"/>
    <rect x="0"  y="0" height="4.95118" width="250" style="fill: #7e0208"/>
    <rect x="0"  y="0" height="0.575718" width="250" style="fill: #6541e4"/>
    <rect x="0"  y="0" height="0.230287" width="250" style="fill: #c48a99"/>
    <rect x="0"  y="0" height="0.391489" width="250" style="fill: #630aa9"/>
    <rect x="0"  y="0" height="1.95744" width="250" style="fill: #aece15"/>
    <rect x="0"  y="0" height="2.64831" width="250" style="fill: #3843a4"/>
    <rect x="0"  y="0" height="0.460575" width="250" style="fill: #b19027"/>
    <rect x="0"  y="0" height="3.01676" width="250" style="fill: #4ebc95"/>
    <rect x="0"  y="0" height="1.8423" width="250" style="fill: #5f8592"/>
    <rect x="0"  y="0" height="2.0035" width="250" style="fill: #e30a22"/>
    <rect x="0"  y="0" height="70.6522" width="250" style="fill: #05a485"/>
    <rect x="0"  y="0" height="0.322402" width="250" style="fill: #846248"/>
    <rect x="0"  y="0" height="0.990236" width="250" style="fill: #987550"/>
    <rect x="0"  y="0" height="1.3587" width="250" style="fill: #aaf209"/>
    <rect x="0"  y="0" height="1.79624" width="250" style="fill: #4ec59e"/>
    <rect x="0"  y="0" height="1.93441" width="250" style="fill: #7931dc"/>
    <rect x="0"  y="0" height="3.5234" width="250" style="fill: #650c74"/>
    <rect x="0"  y="0" height="4.37546" width="250" style="fill: #51cc61"/>
    <rect x="0"  y="0" height="8.22126" width="250" style="fill: #c0cb2c"/>
    <rect x="0"  y="0" height="0.299374" width="250" style="fill: #46a1b3"/>
    <rect x="0"  y="0" height="0.414517" width="250" style="fill: #f2c349"/>
    <rect x="0"  y="0" height="13.0112" width="250" style="fill: #faff76"/>
    <rect x="0"  y="0" height="6.77045" width="250" style="fill: #3c7f8d"/>
    <rect x="0"  y="0" height="19.4132" width="250" style="fill: #14ddff"/>
    <rect x="0"  y="0" height="0.506632" width="250" style="fill: #946351"/>
    <rect x="0"  y="0" height="0.391489" width="250" style="fill: #744378"/>
    <rect x="0"  y="0" height="10.6853" width="250" style="fill: #d62c59"/>
    <rect x="0"  y="0" height="28.6478" width="250" style="fill: #285a8d"/>
    <rect x="0"  y="0" height="2.34893" width="250" style="fill: #791561"/>
    <rect x="0"  y="0" height="8.65881" width="250" style="fill: #4f5a2a"/>
    <rect x="0"  y="0" height="1.5199" width="250" style="fill: #c9e0d6"/>
    <rect x="0"  y="0" height="30.0295" width="250" style="fill: #8aca62"/>
    <rect x="0"  y="0" height="1.22052" width="250" style="fill: #48a922"/>
    <rect x="0"  y="0" height="0.345431" width="250" style="fill: #7ab8f1"/>
    <rect x="0"  y="0" height="0.414517" width="250" style="fill: #930ee3"/>
    <rect x="0"  y="0" height="0.414517" width="250" style="fill: #8ac7a9"/>
    <rect x="0"  y="0" height="3.77671" width="250" style="fill: #d239c9"/>
    <rect x="0"  y="0" height="1.98047" width="250" style="fill: #b026a4"/>
    <rect x="0"  y="0" height="1.72716" width="250" style="fill: #81e49d"/>
    <rect x="0"  y="0" height="3.54643" width="250" style="fill: #53161f"/>
    <rect x="0"  y="0" height="0.506632" width="250" style="fill: #9a9513"/>
    <rect x="0"  y="0" height="48.4064" width="250" style="fill: #fe5271"/>
    <rect x="0"  y="0" height="6.0105" width="250" style="fill: #c32e9c"/>
    <rect x="0"  y="0" height="3.75368" width="250" style="fill: #21d156"/>
</svg>
</svg>
