<svg  xmlns="http://www.w3.org/2000/svg" xmlns:xlink="http://www.w3.org/1999/xlink" x="0" y="0" width="600" height="600">
<rect x="0%" y="0%" height="100%" width="100%" style="fill: #ffffff"/>
<svg x="0" y="0">
  <text fill="dark" font-size="35" transform="translate(250, 30)">cores</text>
</svg>
<svg x="0" y="0"> 
  <text fill="dark" font-size="35" transform="translate(30, 300) rotate(270)">time</text>
</svg>
<svg x = "50" y="550">
  <text fill="blue" font-size="30" transform="translate(0, 35)">t = 4s, lb = 0.987034</text>
</svg>
<svg x="50" y="50" width="500" height="500" >
  <rect x="0%" y="0%" height="100%" width="100%" style="fill: #eeeeee"/>
    <rect x="0"  y="0" height="2.67545" width="250" style="fill: #fbcaae"/>
    <rect x="0"  y="0" height="5.7625" width="250" style="fill: #a861da"/>
    <rect x="0"  y="0" height="4.01317" width="250" style="fill: #7c63ef"/>
    <rect x="0"  y="0" height="4.32188" width="250" style="fill: #224008"/>
    <rect x="0"  y="0" height="3.80737" width="250" style="fill: #b1e258"/>
    <rect x="0"  y="0" height="6.48282" width="250" style="fill: #354ffe"/>
    <rect x="0"  y="0" height="4.63058" width="250" style="fill: #d963a3"/>
    <rect x="0"  y="0" height="2.98415" width="250" style="fill: #e2f45d"/>
    <rect x="0"  y="0" height="6.68862" width="250" style="fill: #37f78f"/>
    <rect x="0"  y="0" height="5.5567" width="250" style="fill: #f30d66"/>
    <rect x="0"  y="0" height="5.04219" width="250" style="fill: #69ba8a"/>
    <rect x="0"  y="0" height="4.63058" width="250" style="fill: #864e9e"/>
    <rect x="0"  y="0" height="5.7625" width="250" style="fill: #1700c5"/>
    <rect x="0"  y="0" height="5.24799" width="250" style="fill: #dfdd75"/>
    <rect x="0"  y="0" height="5.04219" width="250" style="fill: #c68d4e"/>
    <rect x="0"  y="0" height="5.04219" width="250" style="fill: #3a7e40"/>
    <rect x="0"  y="0" height="3.08705" width="250" style="fill: #8c6caf"/>
    <rect x="0"  y="0" height="6.99732" width="250" style="fill: #bb7bb3"/>
    <rect x="0"  y="0" height="6.48282" width="250" style="fill: #182e59"/>
    <rect x="0"  y="0" height="6.58572" width="250" style="fill: #320bf4"/>
    <rect x="0"  y="0" height="4.73348" width="250" style="fill: #a2e102"/>
    <rect x="0"  y="0" height="6.37991" width="250" style="fill: #18e758"/>
    <rect x="0"  y="0" height="3.70447" width="250" style="fill: #703ebe"/>
    <rect x="0"  y="0" height="6.48282" width="250" style="fill: #1c63ac"/>
    <rect x="0"  y="0" height="3.70447" width="250" style="fill: #dded9d"/>
    <rect x="0"  y="0" height="7.61474" width="250" style="fill: #13ff4f"/>
    <rect x="0"  y="0" height="4.73348" width="250" style="fill: #167fdc"/>
    <rect x="0"  y="0" height="5.7625" width="250" style="fill: #74ca28"/>
    <rect x="0"  y="0" height="3.39576" width="250" style="fill: #834e7f"/>
    <rect x="0"  y="0" height="4.63058" width="250" style="fill: #a4c815"/>
    <rect x="0"  y="0" height="3.91027" width="250" style="fill: #52841d"/>
    <rect x="0"  y="0" height="5.7625" width="250" style="fill: #323b10"/>
    <rect x="0"  y="0" height="4.52768" width="250" style="fill: #785427"/>
    <rect x="0"  y="0" height="4.83639" width="250" style="fill: #cab082"/>
    <rect x="0"  y="0" height="4.93929" width="250" style="fill: #f36cb7"/>
    <rect x="0"  y="0" height="4.83639" width="250" style="fill: #119a5a"/>
    <rect x="0"  y="0" height="3.29286" width="250" style="fill: #79ca4d"/>
    <rect x="0"  y="0" height="5.5567" width="250" style="fill: #ab5ff7"/>
    <rect x="0"  y="0" height="5.04219" width="250" style="fill: #7b12c9"/>
    <rect x="0"  y="0" height="3.70447" width="250" style="fill: #4bca78"/>
    <rect x="0"  y="0" height="4.83639" width="250" style="fill: #199a3e"/>
    <rect x="0"  y="0" height="3.39576" width="250" style="fill: #4a704b"/>
    <rect x="0"  y="0" height="4.42478" width="250" style="fill: #de72e6"/>
    <rect x="0"  y="0" height="5.4538" width="250" style="fill: #952a7e"/>
    <rect x="0"  y="0" height="5.14509" width="250" style="fill: #3b9051"/>
    <rect x="0"  y="0" height="2.98415" width="250" style="fill: #86a10d"/>
    <rect x="0"  y="0" height="4.32188" width="250" style="fill: #f4774b"/>
    <rect x="0"  y="0" height="6.99732" width="250" style="fill: #219937"/>
    <rect x="0"  y="0" height="3.91027" width="250" style="fill: #0cc263"/>
    <rect x="0"  y="0" height="6.07121" width="250" style="fill: #09e993"/>
    <rect x="0"  y="0" height="3.70447" width="250" style="fill: #a19429"/>
    <rect x="0"  y="0" height="4.63058" width="250" style="fill: #12d891"/>
    <rect x="0"  y="0" height="5.5567" width="250" style="fill: #3b2d55"/>
    <rect x="0"  y="0" height="4.93929" width="250" style="fill: #451177"/>
    <rect x="0"  y="0" height="3.91027" width="250" style="fill: #47130a"/>
    <rect x="0"  y="0" height="4.83639" width="250" style="fill: #6bc0fe"/>
    <rect x="0"  y="0" height="6.27701" width="250" style="fill: #910799"/>
    <rect x="0"  y="0" height="4.42478" width="250" style="fill: #8d5baa"/>
    <rect x="0"  y="0" height="3.39576" width="250" style="fill: #0ef2f6"/>
    <rect x="0"  y="0" height="4.93929" width="250" style="fill: #94da7d"/>
    <rect x="0"  y="0" height="4.63058" width="250" style="fill: #5d81d8"/>
    <rect x="0"  y="0" height="5.4538" width="250" style="fill: #f790e2"/>
    <rect x="0"  y="0" height="5.96831" width="250" style="fill: #96fe19"/>
    <rect x="0"  y="0" height="4.11607" width="250" style="fill: #828747"/>
    <rect x="0"  y="0" height="5.4538" width="250" style="fill: #ddba82"/>
    <rect x="0"  y="0" height="5.96831" width="250" style="fill: #8d00ed"/>
    <rect x="0"  y="0" height="3.91027" width="250" style="fill: #8d41d2"/>
    <rect x="0"  y="0" height="3.60156" width="250" style="fill: #47935a"/>
    <rect x="0"  y="0" height="5.4538" width="250" style="fill: #dec550"/>
    <rect x="0"  y="0" height="4.52768" width="250" style="fill: #c3e8d6"/>
    <rect x="0"  y="0" height="4.11607" width="250" style="fill: #a53a61"/>
    <rect x="0"  y="0" height="5.7625" width="250" style="fill: #8eec0c"/>
    <rect x="0"  y="0" height="6.37991" width="250" style="fill: #f43878"/>
    <rect x="0"  y="0" height="4.42478" width="250" style="fill: #246f9c"/>
    <rect x="0"  y="0" height="3.80737" width="250" style="fill: #f6fdec"/>
    <rect x="0"  y="0" height="6.07121" width="250" style="fill: #382638"/>
    <rect x="0"  y="0" height="5.8654" width="250" style="fill: #7b6676"/>
    <rect x="0"  y="0" height="4.01317" width="250" style="fill: #26a5e2"/>
    <rect x="0"  y="0" height="6.79152" width="250" style="fill: #d16400"/>
    <rect x="0"  y="0" height="5.3509" width="250" style="fill: #0f6fd4"/>
    <rect x="0"  y="0" height="3.91027" width="250" style="fill: #b0cd7f"/>
    <rect x="0"  y="0" height="4.73348" width="250" style="fill: #5eac42"/>
    <rect x="0"  y="0" height="7.40893" width="250" style="fill: #268db7"/>
    <rect x="0"  y="0" height="4.11607" width="250" style="fill: #f985d8"/>
    <rect x="0"  y="0" height="5.14509" width="250" style="fill: #5d7bc4"/>
    <rect x="0"  y="0" height="6.07121" width="250" style="fill: #f75c5c"/>
    <rect x="0"  y="0" height="4.32188" width="250" style="fill: #baa66f"/>
    <rect x="0"  y="0" height="4.73348" width="250" style="fill: #895061"/>
    <rect x="0"  y="0" height="6.07121" width="250" style="fill: #75afa7"/>
    <rect x="0"  y="0" height="5.3509" width="250" style="fill: #704fb0"/>
    <rect x="0"  y="0" height="5.14509" width="250" style="fill: #3b787c"/>
    <rect x="0"  y="0" height="5.04219" width="250" style="fill: #427f8d"/>
    <rect x="0"  y="0" height="5.04219" width="250" style="fill: #e0631c"/>
    <rect x="0"  y="0" height="3.18996" width="250" style="fill: #481e8c"/>
    <rect x="0"  y="0" height="2.88125" width="250" style="fill: #5fc9e7"/>
    <rect x="0"  y="0" height="5.3509" width="250" style="fill: #9221a9"/>
    <rect x="0"  y="0" height="3.91027" width="250" style="fill: #dfc4e4"/>
    <rect x="0"  y="0" height="4.01317" width="250" style="fill: #2c58f6"/>
    <rect x="0"  y="0" height="6.58572" width="250" style="fill: #54e626"/>
    <rect x="0"  y="0" height="6.27701" width="250" style="fill: #286e14"/>
</svg>
</svg>
