<svg  xmlns="http://www.w3.org/2000/svg" xmlns:xlink="http://www.w3.org/1999/xlink" x="0" y="0" width="600" height="600">
<rect x="0%" y="0%" height="100%" width="100%" style="fill: #ffffff"/>
<svg x="0" y="0">
  <text fill="dark" font-size="35" transform="translate(250, 30)">cores</text>
</svg>
<svg x="0" y="0"> 
  <text fill="dark" font-size="35" transform="translate(30, 300) rotate(270)">time</text>
</svg>
<svg x = "50" y="550">
  <text fill="blue" font-size="30" transform="translate(0, 35)">t = 10s, lb = 0.994045</text>
</svg>
<svg x="50" y="50" width="500" height="500" >
  <rect x="0%" y="0%" height="100%" width="100%" style="fill: #eeeeee"/>
    <rect x="0"  y="0" height="44.2278" width="250" style="fill: #1cbe1f"/>
    <rect x="0"  y="0" height="36.8805" width="250" style="fill: #e87546"/>
    <rect x="0"  y="0" height="23.1464" width="250" style="fill: #fcb28f"/>
    <rect x="0"  y="0" height="34.4314" width="250" style="fill: #35ee4b"/>
    <rect x="0"  y="0" height="8.98002" width="250" style="fill: #1674a0"/>
    <rect x="0"  y="0" height="13.7822" width="250" style="fill: #fbcaae"/>
    <rect x="0"  y="0" height="10.6128" width="250" style="fill: #a861da"/>
    <rect x="0"  y="0" height="8.45179" width="250" style="fill: #7c63ef"/>
    <rect x="0"  y="0" height="9.46024" width="250" style="fill: #224008"/>
    <rect x="0"  y="0" height="7.73146" width="250" style="fill: #b1e258"/>
    <rect x="0"  y="0" height="9.94045" width="250" style="fill: #354ffe"/>
    <rect x="0"  y="0" height="13.2539" width="250" style="fill: #d963a3"/>
    <rect x="0"  y="0" height="9.6043" width="250" style="fill: #e2f45d"/>
    <rect x="0"  y="0" height="8.73992" width="250" style="fill: #37f78f"/>
    <rect x="0"  y="0" height="6.81905" width="250" style="fill: #f30d66"/>
    <rect x="0"  y="0" height="7.97157" width="250" style="fill: #69ba8a"/>
    <rect x="0"  y="0" height="6.67499" width="250" style="fill: #864e9e"/>
    <rect x="0"  y="0" height="5.1383" width="250" style="fill: #1700c5"/>
    <rect x="0"  y="0" height="5.28237" width="250" style="fill: #dfdd75"/>
    <rect x="0"  y="0" height="7.10718" width="250" style="fill: #c68d4e"/>
    <rect x="0"  y="0" height="5.33039" width="250" style="fill: #3a7e40"/>
    <rect x="0"  y="0" height="4.99424" width="250" style="fill: #8c6caf"/>
    <rect x="0"  y="0" height="6.9151" width="250" style="fill: #bb7bb3"/>
    <rect x="0"  y="0" height="5.09028" width="250" style="fill: #182e59"/>
    <rect x="0"  y="0" height="8.45179" width="250" style="fill: #320bf4"/>
    <rect x="0"  y="0" height="7.20323" width="250" style="fill: #a2e102"/>
    <rect x="0"  y="0" height="4.36996" width="250" style="fill: #18e758"/>
    <rect x="0"  y="0" height="3.98579" width="250" style="fill: #703ebe"/>
    <rect x="0"  y="0" height="6.14675" width="250" style="fill: #1c63ac"/>
    <rect x="0"  y="0" height="4.32194" width="250" style="fill: #dded9d"/>
    <rect x="0"  y="0" height="3.93776" width="250" style="fill: #13ff4f"/>
    <rect x="0"  y="0" height="6.62697" width="250" style="fill: #167fdc"/>
    <rect x="0"  y="0" height="4.12985" width="250" style="fill: #74ca28"/>
    <rect x="0"  y="0" height="9.41222" width="250" style="fill: #834e7f"/>
    <rect x="0"  y="0" height="4.17787" width="250" style="fill: #a4c815"/>
    <rect x="0"  y="0" height="4.99424" width="250" style="fill: #52841d"/>
    <rect x="0"  y="0" height="3.40953" width="250" style="fill: #323b10"/>
    <rect x="0"  y="0" height="2.6892" width="250" style="fill: #785427"/>
    <rect x="0"  y="0" height="2.88129" width="250" style="fill: #cab082"/>
    <rect x="0"  y="0" height="4.99424" width="250" style="fill: #f36cb7"/>
    <rect x="0"  y="0" height="3.1214" width="250" style="fill: #119a5a"/>
    <rect x="0"  y="0" height="6.53093" width="250" style="fill: #79ca4d"/>
    <rect x="0"  y="0" height="4.17787" width="250" style="fill: #ab5ff7"/>
    <rect x="0"  y="0" height="3.93776" width="250" style="fill: #7b12c9"/>
    <rect x="0"  y="0" height="3.50557" width="250" style="fill: #4bca78"/>
    <rect x="0"  y="0" height="6.00269" width="250" style="fill: #199a3e"/>
    <rect x="0"  y="0" height="3.07338" width="250" style="fill: #4a704b"/>
    <rect x="0"  y="0" height="2.88129" width="250" style="fill: #de72e6"/>
    <rect x="0"  y="0" height="3.60161" width="250" style="fill: #952a7e"/>
    <rect x="0"  y="0" height="2.64118" width="250" style="fill: #3b9051"/>
    <rect x="0"  y="0" height="3.64964" width="250" style="fill: #86a10d"/>
    <rect x="0"  y="0" height="1.92086" width="250" style="fill: #f4774b"/>
    <rect x="0"  y="0" height="2.59316" width="250" style="fill: #219937"/>
    <rect x="0"  y="0" height="2.92931" width="250" style="fill: #0cc263"/>
    <rect x="0"  y="0" height="2.54514" width="250" style="fill: #09e993"/>
    <rect x="0"  y="0" height="2.40108" width="250" style="fill: #a19429"/>
    <rect x="0"  y="0" height="2.35305" width="250" style="fill: #12d891"/>
    <rect x="0"  y="0" height="2.54514" width="250" style="fill: #3b2d55"/>
    <rect x="0"  y="0" height="4.22589" width="250" style="fill: #451177"/>
    <rect x="0"  y="0" height="2.0169" width="250" style="fill: #47130a"/>
    <rect x="0"  y="0" height="3.45755" width="250" style="fill: #6bc0fe"/>
    <rect x="0"  y="0" height="2.35305" width="250" style="fill: #910799"/>
    <rect x="0"  y="0" height="2.6892" width="250" style="fill: #8d5baa"/>
    <rect x="0"  y="0" height="1.87284" width="250" style="fill: #0ef2f6"/>
    <rect x="0"  y="0" height="1.68075" width="250" style="fill: #94da7d"/>
    <rect x="0"  y="0" height="3.36151" width="250" style="fill: #5d81d8"/>
    <rect x="0"  y="0" height="4.12985" width="250" style="fill: #f790e2"/>
    <rect x="0"  y="0" height="1.7768" width="250" style="fill: #96fe19"/>
    <rect x="0"  y="0" height="1.68075" width="250" style="fill: #828747"/>
    <rect x="0"  y="0" height="1.96888" width="250" style="fill: #ddba82"/>
    <rect x="0"  y="0" height="1.68075" width="250" style="fill: #8d00ed"/>
    <rect x="0"  y="0" height="1.29658" width="250" style="fill: #8d41d2"/>
    <rect x="0"  y="0" height="2.16097" width="250" style="fill: #47935a"/>
    <rect x="0"  y="0" height="1.68075" width="250" style="fill: #dec550"/>
    <rect x="0"  y="0" height="1.3446" width="250" style="fill: #c3e8d6"/>
    <rect x="0"  y="0" height="0.62428" width="250" style="fill: #a53a61"/>
    <rect x="0"  y="0" height="1.44065" width="250" style="fill: #8eec0c"/>
    <rect x="0"  y="0" height="1.48867" width="250" style="fill: #f43878"/>
    <rect x="0"  y="0" height="1.63273" width="250" style="fill: #246f9c"/>
    <rect x="0"  y="0" height="1.20054" width="250" style="fill: #f6fdec"/>
    <rect x="0"  y="0" height="1.00845" width="250" style="fill: #382638"/>
    <rect x="0"  y="0" height="1.24856" width="250" style="fill: #7b6676"/>
    <rect x="0"  y="0" height="0.864387" width="250" style="fill: #26a5e2"/>
    <rect x="0"  y="0" height="0.912409" width="250" style="fill: #d16400"/>
    <rect x="0"  y="0" height="0.480215" width="250" style="fill: #0f6fd4"/>
    <rect x="0"  y="0" height="0.480215" width="250" style="fill: #b0cd7f"/>
    <rect x="0"  y="0" height="0.528237" width="250" style="fill: #5eac42"/>
    <rect x="0"  y="0" height="0.720323" width="250" style="fill: #268db7"/>
    <rect x="0"  y="0" height="0.432194" width="250" style="fill: #f985d8"/>
    <rect x="0"  y="0" height="0.384172" width="250" style="fill: #5d7bc4"/>
    <rect x="0"  y="0" height="0.240108" width="250" style="fill: #f75c5c"/>
    <rect x="0"  y="0" height="0.192086" width="250" style="fill: #baa66f"/>
    <rect x="0"  y="0" height="0.192086" width="250" style="fill: #895061"/>
    <rect x="0"  y="0" height="0.192086" width="250" style="fill: #75afa7"/>
    <rect x="0"  y="0" height="0.192086" width="250" style="fill: #704fb0"/>
    <rect x="0"  y="0" height="0.192086" width="250" style="fill: #3b787c"/>
    <rect x="0"  y="0" height="0.096043" width="250" style="fill: #427f8d"/>
    <rect x="0"  y="0" height="0.096043" width="250" style="fill: #e0631c"/>
    <rect x="0"  y="0" height="0.096043" width="250" style="fill: #481e8c"/>
</svg>
</svg>
