<svg  xmlns="http://www.w3.org/2000/svg" xmlns:xlink="http://www.w3.org/1999/xlink" x="0" y="0" width="600" height="600">
<rect x="0%" y="0%" height="100%" width="100%" style="fill: #ffffff"/>
<svg x="0" y="0">
  <text fill="dark" font-size="35" transform="translate(250, 30)">cores</text>
</svg>
<svg x="0" y="0"> 
  <text fill="dark" font-size="35" transform="translate(30, 300) rotate(270)">time</text>
</svg>
<svg x = "50" y="550">
  <text fill="blue" font-size="30" transform="translate(0, 35)">t = 7s, lb = 0.898575</text>
</svg>
<svg x="50" y="50" width="500" height="500" >
  <rect x="0%" y="0%" height="100%" width="100%" style="fill: #eeeeee"/>
    <rect x="0"  y="0" height="10.1342" width="55.5556" style="fill: #76931f"/>
    <rect x="222.222"  y="0" height="19.5446" width="55.5556" style="fill: #ac9dab"/>
    <rect x="111.111"  y="0" height="42.7744" width="55.5556" style="fill: #2b36c2"/>
    <rect x="55.5556"  y="0" height="5.59358" width="55.5556" style="fill: #48b87d"/>
    <rect x="333.333"  y="0" height="153.067" width="55.5556" style="fill: #6ae33f"/>
    <rect x="277.778"  y="0" height="205.186" width="55.5556" style="fill: #9a62d7"/>
    <rect x="166.667"  y="0" height="22.1111" width="55.5556" style="fill: #183a5d"/>
    <rect x="388.889"  y="0" height="30.995" width="55.5556" style="fill: #5789e4"/>
    <rect x="55.5556"  y="0" height="27.8363" width="55.5556" style="fill: #b2d6b4"/>
    <rect x="0"  y="0" height="15.4646" width="55.5556" style="fill: #41e241"/>
    <rect x="222.222"  y="0" height="15.9252" width="55.5556" style="fill: #1dc709"/>
    <rect x="166.667"  y="0" height="213.806" width="55.5556" style="fill: #e111c7"/>
    <rect x="0"  y="0" height="9.80521" width="55.5556" style="fill: #e1e7ac"/>
    <rect x="388.889"  y="0" height="64.8197" width="55.5556" style="fill: #b6f8ca"/>
    <rect x="55.5556"  y="0" height="6.38326" width="55.5556" style="fill: #c0bb2f"/>
    <rect x="0"  y="0" height="22.3743" width="55.5556" style="fill: #c4c8bc"/>
    <rect x="222.222"  y="0" height="26.9808" width="55.5556" style="fill: #2ae3ba"/>
    <rect x="55.5556"  y="0" height="20.7949" width="55.5556" style="fill: #aab916"/>
    <rect x="111.111"  y="0" height="30.0079" width="55.5556" style="fill: #5cc458"/>
    <rect x="0"  y="0" height="42.1822" width="55.5556" style="fill: #e199cb"/>
    <rect x="55.5556"  y="0" height="14.8065" width="55.5556" style="fill: #89f51b"/>
    <rect x="222.222"  y="0" height="82.1269" width="55.5556" style="fill: #135f70"/>
    <rect x="111.111"  y="0" height="6.64649" width="55.5556" style="fill: #91a5ab"/>
    <rect x="55.5556"  y="0" height="15.5962" width="55.5556" style="fill: #b0874d"/>
    <rect x="111.111"  y="0" height="6.84391" width="55.5556" style="fill: #f3e8cb"/>
    <rect x="111.111"  y="0" height="40.4054" width="55.5556" style="fill: #4543a5"/>
    <rect x="55.5556"  y="0" height="18.2285" width="55.5556" style="fill: #eb93b0"/>
    <rect x="388.889"  y="0" height="21.9795" width="55.5556" style="fill: #441e9c"/>
    <rect x="0"  y="0" height="11.7136" width="55.5556" style="fill: #a4c2b0"/>
    <rect x="55.5556"  y="0" height="35.7989" width="55.5556" style="fill: #fb3d30"/>
    <rect x="0"  y="0" height="53.9616" width="55.5556" style="fill: #875cbf"/>
    <rect x="388.889"  y="0" height="57.9758" width="55.5556" style="fill: #29abd5"/>
    <rect x="111.111"  y="0" height="7.04133" width="55.5556" style="fill: #b1acf3"/>
    <rect x="111.111"  y="0" height="9.54198" width="55.5556" style="fill: #8984b3"/>
    <rect x="111.111"  y="0" height="48.1048" width="55.5556" style="fill: #5ae882"/>
    <rect x="222.222"  y="0" height="15.2014" width="55.5556" style="fill: #809dd4"/>
    <rect x="55.5556"  y="0" height="10.7265" width="55.5556" style="fill: #cfe7ab"/>
    <rect x="333.333"  y="0" height="84.2985" width="55.5556" style="fill: #c5c61b"/>
    <rect x="55.5556"  y="0" height="91.0766" width="55.5556" style="fill: #aa52e0"/>
    <rect x="222.222"  y="0" height="20.2027" width="55.5556" style="fill: #53b4c3"/>
    <rect x="0"  y="0" height="68.5049" width="55.5556" style="fill: #643f20"/>
    <rect x="388.889"  y="0" height="67.9126" width="55.5556" style="fill: #4ef259"/>
    <rect x="222.222"  y="0" height="21.124" width="55.5556" style="fill: #d2e980"/>
    <rect x="111.111"  y="0" height="16.1885" width="55.5556" style="fill: #42a948"/>
    <rect x="222.222"  y="0" height="19.2156" width="55.5556" style="fill: #aac5e8"/>
    <rect x="277.778"  y="0" height="12.1743" width="55.5556" style="fill: #84cb3e"/>
    <rect x="111.111"  y="0" height="14.2143" width="55.5556" style="fill: #c7db92"/>
    <rect x="277.778"  y="0" height="5.39616" width="55.5556" style="fill: #5643fd"/>
    <rect x="222.222"  y="0" height="25.3356" width="55.5556" style="fill: #34fdd4"/>
    <rect x="111.111"  y="0" height="7.63359" width="55.5556" style="fill: #67e2cc"/>
    <rect x="277.778"  y="0" height="9.87102" width="55.5556" style="fill: #a40603"/>
    <rect x="111.111"  y="0" height="45.6041" width="55.5556" style="fill: #5cb274"/>
    <rect x="277.778"  y="0" height="21.1898" width="55.5556" style="fill: #4cb90a"/>
    <rect x="0"  y="0" height="32.3111" width="55.5556" style="fill: #63e51c"/>
    <rect x="166.667"  y="0" height="26.7176" width="55.5556" style="fill: #973790"/>
    <rect x="333.333"  y="0" height="5.13293" width="55.5556" style="fill: #334394"/>
    <rect x="333.333"  y="0" height="62.4506" width="55.5556" style="fill: #7e0208"/>
    <rect x="388.889"  y="0" height="27.5072" width="55.5556" style="fill: #6541e4"/>
    <rect x="222.222"  y="0" height="28.0337" width="55.5556" style="fill: #c48a99"/>
    <rect x="55.5556"  y="0" height="42.3138" width="55.5556" style="fill: #630aa9"/>
    <rect x="277.778"  y="0" height="9.6736" width="55.5556" style="fill: #aece15"/>
    <rect x="166.667"  y="0" height="73.4404" width="55.5556" style="fill: #3843a4"/>
    <rect x="277.778"  y="0" height="54.2248" width="55.5556" style="fill: #b19027"/>
    <rect x="0"  y="0" height="13.8852" width="55.5556" style="fill: #4ebc95"/>
    <rect x="388.889"  y="0" height="14.4117" width="55.5556" style="fill: #5f8592"/>
    <rect x="222.222"  y="0" height="9.41037" width="55.5556" style="fill: #e30a22"/>
    <rect x="111.111"  y="0" height="6.25165" width="55.5556" style="fill: #05a485"/>
    <rect x="0"  y="0" height="55.0803" width="55.5556" style="fill: #846248"/>
    <rect x="111.111"  y="0" height="33.4957" width="55.5556" style="fill: #987550"/>
    <rect x="222.222"  y="0" height="22.0453" width="55.5556" style="fill: #aaf209"/>
    <rect x="388.889"  y="0" height="12.2401" width="55.5556" style="fill: #4ec59e"/>
    <rect x="55.5556"  y="0" height="18.2285" width="55.5556" style="fill: #7931dc"/>
    <rect x="388.889"  y="0" height="33.5615" width="55.5556" style="fill: #650c74"/>
    <rect x="333.333"  y="0" height="40.9318" width="55.5556" style="fill: #51cc61"/>
    <rect x="222.222"  y="0" height="29.5472" width="55.5556" style="fill: #c0cb2c"/>
    <rect x="55.5556"  y="0" height="78.5733" width="55.5556" style="fill: #46a1b3"/>
    <rect x="111.111"  y="0" height="91.0766" width="55.5556" style="fill: #f2c349"/>
    <rect x="277.778"  y="0" height="23.2298" width="55.5556" style="fill: #faff76"/>
    <rect x="388.889"  y="0" height="22.5717" width="55.5556" style="fill: #3c7f8d"/>
    <rect x="222.222"  y="0" height="16.0569" width="55.5556" style="fill: #14ddff"/>
    <rect x="0"  y="0" height="100.421" width="55.5556" style="fill: #946351"/>
    <rect x="166.667"  y="0" height="127.073" width="55.5556" style="fill: #744378"/>
    <rect x="277.778"  y="0" height="28.1653" width="55.5556" style="fill: #d62c59"/>
    <rect x="333.333"  y="0" height="10.5949" width="55.5556" style="fill: #285a8d"/>
    <rect x="222.222"  y="0" height="9.34456" width="55.5556" style="fill: #791561"/>
    <rect x="388.889"  y="0" height="9.80521" width="55.5556" style="fill: #4f5a2a"/>
    <rect x="333.333"  y="0" height="45.0777" width="55.5556" style="fill: #c9e0d6"/>
    <rect x="222.222"  y="0" height="34.2195" width="55.5556" style="fill: #8aca62"/>
    <rect x="388.889"  y="0" height="25.204" width="55.5556" style="fill: #48a922"/>
    <rect x="277.778"  y="0" height="32.2453" width="55.5556" style="fill: #7ab8f1"/>
    <rect x="55.5556"  y="0" height="98.2495" width="55.5556" style="fill: #930ee3"/>
    <rect x="388.889"  y="0" height="17.8336" width="55.5556" style="fill: #8ac7a9"/>
    <rect x="222.222"  y="0" height="12.8981" width="55.5556" style="fill: #d239c9"/>
    <rect x="333.333"  y="0" height="98.1179" width="55.5556" style="fill: #b026a4"/>
    <rect x="277.778"  y="0" height="12.5033" width="55.5556" style="fill: #81e49d"/>
    <rect x="111.111"  y="0" height="37.5099" width="55.5556" style="fill: #53161f"/>
    <rect x="388.889"  y="0" height="5.46196" width="55.5556" style="fill: #9a9513"/>
    <rect x="222.222"  y="0" height="5.98842" width="55.5556" style="fill: #fe5271"/>
    <rect x="388.889"  y="0" height="6.12003" width="55.5556" style="fill: #c32e9c"/>
    <rect x="222.222"  y="0" height="22.6375" width="55.5556" style="fill: #21d156"/>
</svg>
</svg>
