<svg  xmlns="http://www.w3.org/2000/svg" xmlns:xlink="http://www.w3.org/1999/xlink" x="0" y="0" width="600" height="600">
<rect x="0%" y="0%" height="100%" width="100%" style="fill: #ffffff"/>
<svg x="0" y="0">
  <text fill="dark" font-size="35" transform="translate(250, 30)">cores</text>
</svg>
<svg x="0" y="0"> 
  <text fill="dark" font-size="35" transform="translate(30, 300) rotate(270)">time</text>
</svg>
<svg x = "50" y="550">
  <text fill="blue" font-size="30" transform="translate(0, 35)">t = 9s, lb = 0.827003</text>
</svg>
<svg x="50" y="50" width="500" height="500" >
  <rect x="0%" y="0%" height="100%" width="100%" style="fill: #eeeeee"/>
    <rect x="0"  y="0" height="9.57526" width="55.5556" style="fill: #76931f"/>
    <rect x="222.222"  y="0" height="5.83075" width="55.5556" style="fill: #ac9dab"/>
    <rect x="111.111"  y="0" height="25.5697" width="55.5556" style="fill: #2b36c2"/>
    <rect x="55.5556"  y="0" height="13.7477" width="55.5556" style="fill: #48b87d"/>
    <rect x="333.333"  y="0" height="6.36568" width="55.5556" style="fill: #6ae33f"/>
    <rect x="277.778"  y="0" height="46.9669" width="55.5556" style="fill: #9a62d7"/>
    <rect x="166.667"  y="0" height="22.5741" width="55.5556" style="fill: #183a5d"/>
    <rect x="388.889"  y="0" height="14.4966" width="55.5556" style="fill: #5789e4"/>
    <rect x="222.222"  y="0" height="23.8579" width="55.5556" style="fill: #b2d6b4"/>
    <rect x="333.333"  y="0" height="83.5027" width="55.5556" style="fill: #41e241"/>
    <rect x="0"  y="0" height="12.0359" width="55.5556" style="fill: #1dc709"/>
    <rect x="55.5556"  y="0" height="10.5381" width="55.5556" style="fill: #e111c7"/>
    <rect x="388.889"  y="0" height="7.59602" width="55.5556" style="fill: #e1e7ac"/>
    <rect x="0"  y="0" height="16.5294" width="55.5556" style="fill: #b6f8ca"/>
    <rect x="388.889"  y="0" height="91.4732" width="55.5556" style="fill: #c0bb2f"/>
    <rect x="166.667"  y="0" height="4.33294" width="55.5556" style="fill: #c4c8bc"/>
    <rect x="55.5556"  y="0" height="13.9617" width="55.5556" style="fill: #2ae3ba"/>
    <rect x="111.111"  y="0" height="21.9857" width="55.5556" style="fill: #aab916"/>
    <rect x="166.667"  y="0" height="20.2204" width="55.5556" style="fill: #5cc458"/>
    <rect x="222.222"  y="0" height="12.5709" width="55.5556" style="fill: #e199cb"/>
    <rect x="0"  y="0" height="5.99123" width="55.5556" style="fill: #89f51b"/>
    <rect x="55.5556"  y="0" height="29.2072" width="55.5556" style="fill: #135f70"/>
    <rect x="222.222"  y="0" height="54.0815" width="55.5556" style="fill: #91a5ab"/>
    <rect x="0"  y="0" height="12.7849" width="55.5556" style="fill: #b0874d"/>
    <rect x="277.778"  y="0" height="20.2204" width="55.5556" style="fill: #f3e8cb"/>
    <rect x="166.667"  y="0" height="300.578" width="55.5556" style="fill: #4543a5"/>
    <rect x="111.111"  y="0" height="116.936" width="55.5556" style="fill: #eb93b0"/>
    <rect x="0"  y="0" height="4.70739" width="55.5556" style="fill: #441e9c"/>
    <rect x="0"  y="0" height="56.0073" width="55.5556" style="fill: #a4c2b0"/>
    <rect x="277.778"  y="0" height="39.4779" width="55.5556" style="fill: #fb3d30"/>
    <rect x="55.5556"  y="0" height="12.3569" width="55.5556" style="fill: #875cbf"/>
    <rect x="55.5556"  y="0" height="5.61678" width="55.5556" style="fill: #29abd5"/>
    <rect x="55.5556"  y="0" height="85.4285" width="55.5556" style="fill: #b1acf3"/>
    <rect x="333.333"  y="0" height="79.8652" width="55.5556" style="fill: #8984b3"/>
    <rect x="222.222"  y="0" height="39.6919" width="55.5556" style="fill: #5ae882"/>
    <rect x="277.778"  y="0" height="22.1461" width="55.5556" style="fill: #809dd4"/>
    <rect x="388.889"  y="0" height="82.3259" width="55.5556" style="fill: #cfe7ab"/>
    <rect x="0"  y="0" height="30.0631" width="55.5556" style="fill: #c5c61b"/>
    <rect x="277.778"  y="0" height="27.0675" width="55.5556" style="fill: #aa52e0"/>
    <rect x="222.222"  y="0" height="9.3078" width="55.5556" style="fill: #53b4c3"/>
    <rect x="222.222"  y="0" height="28.5118" width="55.5556" style="fill: #643f20"/>
    <rect x="0"  y="0" height="4.54691" width="55.5556" style="fill: #4ef259"/>
    <rect x="0"  y="0" height="5.08184" width="55.5556" style="fill: #d2e980"/>
    <rect x="277.778"  y="0" height="79.7582" width="55.5556" style="fill: #42a948"/>
    <rect x="0"  y="0" height="12.4104" width="55.5556" style="fill: #aac5e8"/>
    <rect x="111.111"  y="0" height="6.57965" width="55.5556" style="fill: #84cb3e"/>
    <rect x="333.333"  y="0" height="4.97486" width="55.5556" style="fill: #c7db92"/>
    <rect x="0"  y="0" height="25.7837" width="55.5556" style="fill: #5643fd"/>
    <rect x="55.5556"  y="0" height="45.2017" width="55.5556" style="fill: #34fdd4"/>
    <rect x="111.111"  y="0" height="5.72376" width="55.5556" style="fill: #67e2cc"/>
    <rect x="222.222"  y="0" height="30.7585" width="55.5556" style="fill: #a40603"/>
    <rect x="333.333"  y="0" height="21.8252" width="55.5556" style="fill: #5cb274"/>
    <rect x="111.111"  y="0" height="255.751" width="55.5556" style="fill: #4cb90a"/>
    <rect x="0"  y="0" height="15.299" width="55.5556" style="fill: #63e51c"/>
    <rect x="388.889"  y="0" height="69.3271" width="55.5556" style="fill: #973790"/>
    <rect x="333.333"  y="0" height="24.7138" width="55.5556" style="fill: #334394"/>
    <rect x="222.222"  y="0" height="6.68664" width="55.5556" style="fill: #7e0208"/>
    <rect x="0"  y="0" height="22.0927" width="55.5556" style="fill: #6541e4"/>
    <rect x="222.222"  y="0" height="13.8012" width="55.5556" style="fill: #c48a99"/>
    <rect x="55.5556"  y="0" height="20.5414" width="55.5556" style="fill: #630aa9"/>
    <rect x="333.333"  y="0" height="12.1964" width="55.5556" style="fill: #aece15"/>
    <rect x="222.222"  y="0" height="16.5294" width="55.5556" style="fill: #3843a4"/>
    <rect x="0"  y="0" height="16.4759" width="55.5556" style="fill: #b19027"/>
    <rect x="333.333"  y="0" height="5.83075" width="55.5556" style="fill: #4ebc95"/>
    <rect x="277.778"  y="0" height="29.1002" width="55.5556" style="fill: #5f8592"/>
    <rect x="55.5556"  y="0" height="26.0511" width="55.5556" style="fill: #e30a22"/>
    <rect x="333.333"  y="0" height="4.60041" width="55.5556" style="fill: #05a485"/>
    <rect x="222.222"  y="0" height="17.2783" width="55.5556" style="fill: #846248"/>
    <rect x="333.333"  y="0" height="21.9857" width="55.5556" style="fill: #987550"/>
    <rect x="0"  y="0" height="32.2028" width="55.5556" style="fill: #aaf209"/>
    <rect x="222.222"  y="0" height="14.0687" width="55.5556" style="fill: #4ec59e"/>
    <rect x="55.5556"  y="0" height="19.7924" width="55.5556" style="fill: #7931dc"/>
    <rect x="277.778"  y="0" height="4.33294" width="55.5556" style="fill: #650c74"/>
    <rect x="388.889"  y="0" height="19.632" width="55.5556" style="fill: #51cc61"/>
    <rect x="333.333"  y="0" height="20.8623" width="55.5556" style="fill: #c0cb2c"/>
    <rect x="277.778"  y="0" height="5.72376" width="55.5556" style="fill: #46a1b3"/>
    <rect x="222.222"  y="0" height="18.6691" width="55.5556" style="fill: #f2c349"/>
    <rect x="277.778"  y="0" height="10.7521" width="55.5556" style="fill: #faff76"/>
    <rect x="0"  y="0" height="31.6679" width="55.5556" style="fill: #3c7f8d"/>
    <rect x="55.5556"  y="0" height="5.72376" width="55.5556" style="fill: #14ddff"/>
    <rect x="388.889"  y="0" height="4.92137" width="55.5556" style="fill: #946351"/>
    <rect x="277.778"  y="0" height="4.81438" width="55.5556" style="fill: #744378"/>
    <rect x="333.333"  y="0" height="117.257" width="55.5556" style="fill: #d62c59"/>
    <rect x="55.5556"  y="0" height="56.8097" width="55.5556" style="fill: #285a8d"/>
    <rect x="388.889"  y="0" height="23.002" width="55.5556" style="fill: #791561"/>
    <rect x="277.778"  y="0" height="19.2575" width="55.5556" style="fill: #4f5a2a"/>
    <rect x="222.222"  y="0" height="11.7685" width="55.5556" style="fill: #c9e0d6"/>
    <rect x="222.222"  y="0" height="20.1134" width="55.5556" style="fill: #8aca62"/>
    <rect x="277.778"  y="0" height="37.2312" width="55.5556" style="fill: #48a922"/>
    <rect x="388.889"  y="0" height="186.851" width="55.5556" style="fill: #7ab8f1"/>
    <rect x="0"  y="0" height="35.9474" width="55.5556" style="fill: #930ee3"/>
    <rect x="222.222"  y="0" height="25.7837" width="55.5556" style="fill: #8ac7a9"/>
    <rect x="55.5556"  y="0" height="47.7693" width="55.5556" style="fill: #d239c9"/>
    <rect x="277.778"  y="0" height="46.646" width="55.5556" style="fill: #b026a4"/>
    <rect x="166.667"  y="0" height="4.81438" width="55.5556" style="fill: #81e49d"/>
    <rect x="0"  y="0" height="73.6065" width="55.5556" style="fill: #53161f"/>
    <rect x="222.222"  y="0" height="14.9246" width="55.5556" style="fill: #9a9513"/>
    <rect x="166.667"  y="0" height="22.0392" width="55.5556" style="fill: #fe5271"/>
    <rect x="222.222"  y="0" height="6.68664" width="55.5556" style="fill: #c32e9c"/>
    <rect x="222.222"  y="0" height="17.3318" width="55.5556" style="fill: #21d156"/>
</svg>
</svg>
