<svg  xmlns="http://www.w3.org/2000/svg" xmlns:xlink="http://www.w3.org/1999/xlink" x="0" y="0" width="600" height="600">
<rect x="0%" y="0%" height="100%" width="100%" style="fill: #ffffff"/>
<svg x="0" y="0">
  <text fill="dark" font-size="35" transform="translate(250, 30)">cores</text>
</svg>
<svg x="0" y="0"> 
  <text fill="dark" font-size="35" transform="translate(30, 300) rotate(270)">time</text>
</svg>
<svg x = "50" y="550">
  <text fill="blue" font-size="30" transform="translate(0, 35)">t = 80s, lb = 0.307321</text>
</svg>
<svg x="50" y="50" width="500" height="500" >
  <rect x="0%" y="0%" height="100%" width="100%" style="fill: #eeeeee"/>
    <rect x="0"  y="0" height="142.477" width="55.5556" style="fill: #76931f"/>
    <rect x="222.222"  y="0" height="4.73037" width="55.5556" style="fill: #ac9dab"/>
    <rect x="111.111"  y="0" height="22.1954" width="55.5556" style="fill: #2b36c2"/>
    <rect x="55.5556"  y="0" height="11.1786" width="55.5556" style="fill: #48b87d"/>
    <rect x="333.333"  y="0" height="3.28014" width="55.5556" style="fill: #6ae33f"/>
    <rect x="277.778"  y="0" height="0.560175" width="55.5556" style="fill: #9a62d7"/>
    <rect x="166.667"  y="0" height="1.32575" width="55.5556" style="fill: #183a5d"/>
    <rect x="388.889"  y="0" height="2.34029" width="55.5556" style="fill: #5789e4"/>
    <rect x="277.778"  y="0" height="0.541503" width="55.5556" style="fill: #b2d6b4"/>
    <rect x="277.778"  y="0" height="5.75736" width="55.5556" style="fill: #41e241"/>
    <rect x="166.667"  y="0" height="2.09132" width="55.5556" style="fill: #1dc709"/>
    <rect x="388.889"  y="0" height="2.38386" width="55.5556" style="fill: #e111c7"/>
    <rect x="333.333"  y="0" height="0.97097" width="55.5556" style="fill: #e1e7ac"/>
    <rect x="166.667"  y="0" height="3.05607" width="55.5556" style="fill: #b6f8ca"/>
    <rect x="333.333"  y="0" height="0.553951" width="55.5556" style="fill: #c0bb2f"/>
    <rect x="222.222"  y="0" height="0.728228" width="55.5556" style="fill: #c4c8bc"/>
    <rect x="388.889"  y="0" height="18.4298" width="55.5556" style="fill: #2ae3ba"/>
    <rect x="333.333"  y="0" height="0.566399" width="55.5556" style="fill: #aab916"/>
    <rect x="333.333"  y="0" height="5.6142" width="55.5556" style="fill: #5cc458"/>
    <rect x="222.222"  y="0" height="0.529054" width="55.5556" style="fill: #e199cb"/>
    <rect x="222.222"  y="0" height="1.89837" width="55.5556" style="fill: #89f51b"/>
    <rect x="166.667"  y="0" height="2.55191" width="55.5556" style="fill: #135f70"/>
    <rect x="277.778"  y="0" height="2.69507" width="55.5556" style="fill: #91a5ab"/>
    <rect x="222.222"  y="0" height="2.91914" width="55.5556" style="fill: #b0874d"/>
    <rect x="166.667"  y="0" height="2.56436" width="55.5556" style="fill: #f3e8cb"/>
    <rect x="277.778"  y="0" height="0.585072" width="55.5556" style="fill: #4543a5"/>
    <rect x="277.778"  y="0" height="5.30299" width="55.5556" style="fill: #eb93b0"/>
    <rect x="222.222"  y="0" height="4.21376" width="55.5556" style="fill: #441e9c"/>
    <rect x="333.333"  y="0" height="18.0563" width="55.5556" style="fill: #a4c2b0"/>
    <rect x="55.5556"  y="0" height="8.70139" width="55.5556" style="fill: #fb3d30"/>
    <rect x="166.667"  y="0" height="1.70542" width="55.5556" style="fill: #875cbf"/>
    <rect x="166.667"  y="0" height="1.7241" width="55.5556" style="fill: #29abd5"/>
    <rect x="222.222"  y="0" height="0.572624" width="55.5556" style="fill: #b1acf3"/>
    <rect x="166.667"  y="0" height="2.18468" width="55.5556" style="fill: #8984b3"/>
    <rect x="277.778"  y="0" height="0.902505" width="55.5556" style="fill: #5ae882"/>
    <rect x="222.222"  y="0" height="7.12667" width="55.5556" style="fill: #809dd4"/>
    <rect x="277.778"  y="0" height="52.1274" width="55.5556" style="fill: #cfe7ab"/>
    <rect x="166.667"  y="0" height="8.6018" width="55.5556" style="fill: #c5c61b"/>
    <rect x="55.5556"  y="0" height="1.96061" width="55.5556" style="fill: #aa52e0"/>
    <rect x="55.5556"  y="0" height="10.7491" width="55.5556" style="fill: #53b4c3"/>
    <rect x="111.111"  y="0" height="1.76766" width="55.5556" style="fill: #643f20"/>
    <rect x="222.222"  y="0" height="3.07474" width="55.5556" style="fill: #4ef259"/>
    <rect x="388.889"  y="0" height="4.72414" width="55.5556" style="fill: #d2e980"/>
    <rect x="111.111"  y="0" height="196.466" width="55.5556" style="fill: #42a948"/>
    <rect x="222.222"  y="0" height="13.2886" width="55.5556" style="fill: #aac5e8"/>
    <rect x="166.667"  y="0" height="51.3867" width="55.5556" style="fill: #84cb3e"/>
    <rect x="388.889"  y="0" height="1.80501" width="55.5556" style="fill: #c7db92"/>
    <rect x="333.333"  y="0" height="8.19101" width="55.5556" style="fill: #5643fd"/>
    <rect x="388.889"  y="0" height="4.92954" width="55.5556" style="fill: #34fdd4"/>
    <rect x="55.5556"  y="0" height="2.24693" width="55.5556" style="fill: #67e2cc"/>
    <rect x="388.889"  y="0" height="0.504158" width="55.5556" style="fill: #a40603"/>
    <rect x="55.5556"  y="0" height="0.622417" width="55.5556" style="fill: #5cb274"/>
    <rect x="388.889"  y="0" height="2.75731" width="55.5556" style="fill: #4cb90a"/>
    <rect x="55.5556"  y="0" height="2.27182" width="55.5556" style="fill: #63e51c"/>
    <rect x="333.333"  y="0" height="0.79047" width="55.5556" style="fill: #973790"/>
    <rect x="55.5556"  y="0" height="1.6992" width="55.5556" style="fill: #334394"/>
    <rect x="388.889"  y="0" height="0.535279" width="55.5556" style="fill: #7e0208"/>
    <rect x="333.333"  y="0" height="0.616193" width="55.5556" style="fill: #6541e4"/>
    <rect x="388.889"  y="0" height="25.2452" width="55.5556" style="fill: #c48a99"/>
    <rect x="333.333"  y="0" height="10.1641" width="55.5556" style="fill: #630aa9"/>
    <rect x="222.222"  y="0" height="0.491709" width="55.5556" style="fill: #aece15"/>
    <rect x="55.5556"  y="0" height="4.19509" width="55.5556" style="fill: #3843a4"/>
    <rect x="222.222"  y="0" height="0.510382" width="55.5556" style="fill: #b19027"/>
    <rect x="222.222"  y="0" height="1.6494" width="55.5556" style="fill: #4ebc95"/>
    <rect x="222.222"  y="0" height="0.591296" width="55.5556" style="fill: #5f8592"/>
    <rect x="222.222"  y="0" height="0.809142" width="55.5556" style="fill: #e30a22"/>
    <rect x="222.222"  y="0" height="2.01663" width="55.5556" style="fill: #05a485"/>
    <rect x="55.5556"  y="0" height="3.97724" width="55.5556" style="fill: #846248"/>
    <rect x="222.222"  y="0" height="2.05398" width="55.5556" style="fill: #987550"/>
    <rect x="222.222"  y="0" height="3.06852" width="55.5556" style="fill: #aaf209"/>
    <rect x="55.5556"  y="0" height="1.63073" width="55.5556" style="fill: #4ec59e"/>
    <rect x="333.333"  y="0" height="0.933625" width="55.5556" style="fill: #7931dc"/>
    <rect x="55.5556"  y="0" height="0.840263" width="55.5556" style="fill: #650c74"/>
    <rect x="333.333"  y="0" height="9.17443" width="55.5556" style="fill: #51cc61"/>
    <rect x="55.5556"  y="0" height="11.9504" width="55.5556" style="fill: #c0cb2c"/>
    <rect x="222.222"  y="0" height="3.23657" width="55.5556" style="fill: #46a1b3"/>
    <rect x="222.222"  y="0" height="0.703331" width="55.5556" style="fill: #f2c349"/>
    <rect x="222.222"  y="0" height="3.87766" width="55.5556" style="fill: #faff76"/>
    <rect x="222.222"  y="0" height="2.05398" width="55.5556" style="fill: #3c7f8d"/>
    <rect x="333.333"  y="0" height="0.858935" width="55.5556" style="fill: #14ddff"/>
    <rect x="333.333"  y="0" height="0.59752" width="55.5556" style="fill: #946351"/>
    <rect x="222.222"  y="0" height="0.535279" width="55.5556" style="fill: #744378"/>
    <rect x="333.333"  y="0" height="2.51456" width="55.5556" style="fill: #d62c59"/>
    <rect x="222.222"  y="0" height="0.529054" width="55.5556" style="fill: #285a8d"/>
    <rect x="222.222"  y="0" height="6.24907" width="55.5556" style="fill: #791561"/>
    <rect x="55.5556"  y="0" height="0.827815" width="55.5556" style="fill: #4f5a2a"/>
    <rect x="55.5556"  y="0" height="0.678434" width="55.5556" style="fill: #c9e0d6"/>
    <rect x="333.333"  y="0" height="1.96684" width="55.5556" style="fill: #8aca62"/>
    <rect x="55.5556"  y="0" height="0.89628" width="55.5556" style="fill: #48a922"/>
    <rect x="388.889"  y="0" height="1.33197" width="55.5556" style="fill: #7ab8f1"/>
    <rect x="55.5556"  y="0" height="4.63078" width="55.5556" style="fill: #930ee3"/>
    <rect x="333.333"  y="0" height="2.53324" width="55.5556" style="fill: #8ac7a9"/>
    <rect x="388.889"  y="0" height="0.504158" width="55.5556" style="fill: #d239c9"/>
    <rect x="388.889"  y="0" height="4.73037" width="55.5556" style="fill: #b026a4"/>
    <rect x="333.333"  y="0" height="2.86934" width="55.5556" style="fill: #81e49d"/>
    <rect x="222.222"  y="0" height="2.41498" width="55.5556" style="fill: #53161f"/>
    <rect x="277.778"  y="0" height="3.14321" width="55.5556" style="fill: #9a9513"/>
    <rect x="55.5556"  y="0" height="430.874" width="55.5556" style="fill: #fe5271"/>
    <rect x="222.222"  y="0" height="2.50212" width="55.5556" style="fill: #c32e9c"/>
    <rect x="388.889"  y="0" height="4.79261" width="55.5556" style="fill: #21d156"/>
</svg>
</svg>
