<svg  xmlns="http://www.w3.org/2000/svg" xmlns:xlink="http://www.w3.org/1999/xlink" x="0" y="0" width="600" height="600">
<rect x="0%" y="0%" height="100%" width="100%" style="fill: #ffffff"/>
<svg x="0" y="0">
  <text fill="dark" font-size="35" transform="translate(250, 30)">cores</text>
</svg>
<svg x="0" y="0"> 
  <text fill="dark" font-size="35" transform="translate(30, 300) rotate(270)">time</text>
</svg>
<svg x = "50" y="550">
  <text fill="blue" font-size="30" transform="translate(0, 35)">t = 45s, lb = 0.201030</text>
</svg>
<svg x="50" y="50" width="500" height="500" >
  <rect x="0%" y="0%" height="100%" width="100%" style="fill: #eeeeee"/>
    <rect x="0"  y="0" height="19.3804" width="55.5556" style="fill: #76931f"/>
    <rect x="222.222"  y="0" height="0.262341" width="55.5556" style="fill: #ac9dab"/>
    <rect x="111.111"  y="0" height="0.0983779" width="55.5556" style="fill: #2b36c2"/>
    <rect x="55.5556"  y="0" height="0.0437235" width="55.5556" style="fill: #48b87d"/>
    <rect x="333.333"  y="0" height="1.81452" width="55.5556" style="fill: #6ae33f"/>
    <rect x="277.778"  y="0" height="0.163963" width="55.5556" style="fill: #9a62d7"/>
    <rect x="166.667"  y="0" height="0.480958" width="55.5556" style="fill: #183a5d"/>
    <rect x="388.889"  y="0" height="0.393511" width="55.5556" style="fill: #5789e4"/>
    <rect x="55.5556"  y="0" height="1.08216" width="55.5556" style="fill: #b2d6b4"/>
    <rect x="111.111"  y="0" height="0.349788" width="55.5556" style="fill: #41e241"/>
    <rect x="277.778"  y="0" height="0.196756" width="55.5556" style="fill: #1dc709"/>
    <rect x="222.222"  y="0" height="0.0546544" width="55.5556" style="fill: #e111c7"/>
    <rect x="222.222"  y="0" height="0.557475" width="55.5556" style="fill: #e1e7ac"/>
    <rect x="277.778"  y="0" height="0.284203" width="55.5556" style="fill: #b6f8ca"/>
    <rect x="388.889"  y="0" height="0.174894" width="55.5556" style="fill: #c0bb2f"/>
    <rect x="111.111"  y="0" height="0.13117" width="55.5556" style="fill: #c4c8bc"/>
    <rect x="166.667"  y="0" height="0.0218617" width="55.5556" style="fill: #2ae3ba"/>
    <rect x="166.667"  y="0" height="0.196756" width="55.5556" style="fill: #aab916"/>
    <rect x="388.889"  y="0" height="0.677714" width="55.5556" style="fill: #5cc458"/>
    <rect x="111.111"  y="0" height="3.56346" width="55.5556" style="fill: #e199cb"/>
    <rect x="277.778"  y="0" height="499.311" width="55.5556" style="fill: #89f51b"/>
    <rect x="166.667"  y="0" height="0.437235" width="55.5556" style="fill: #135f70"/>
    <rect x="222.222"  y="0" height="3.35578" width="55.5556" style="fill: #91a5ab"/>
    <rect x="55.5556"  y="0" height="0.0218617" width="55.5556" style="fill: #b0874d"/>
    <rect x="166.667"  y="0" height="0.0327926" width="55.5556" style="fill: #f3e8cb"/>
    <rect x="55.5556"  y="0" height="0.0546544" width="55.5556" style="fill: #4543a5"/>
    <rect x="166.667"  y="0" height="0.240479" width="55.5556" style="fill: #eb93b0"/>
    <rect x="55.5556"  y="0" height="0.568405" width="55.5556" style="fill: #441e9c"/>
    <rect x="388.889"  y="0" height="0.327926" width="55.5556" style="fill: #a4c2b0"/>
    <rect x="166.667"  y="0" height="15.1283" width="55.5556" style="fill: #fb3d30"/>
    <rect x="388.889"  y="0" height="0.218617" width="55.5556" style="fill: #875cbf"/>
    <rect x="55.5556"  y="0" height="0.218617" width="55.5556" style="fill: #29abd5"/>
    <rect x="333.333"  y="0" height="0.163963" width="55.5556" style="fill: #b1acf3"/>
    <rect x="388.889"  y="0" height="2.03314" width="55.5556" style="fill: #8984b3"/>
    <rect x="333.333"  y="0" height="0.0109309" width="55.5556" style="fill: #5ae882"/>
    <rect x="333.333"  y="0" height="2.01128" width="55.5556" style="fill: #809dd4"/>
    <rect x="55.5556"  y="0" height="0.25141" width="55.5556" style="fill: #cfe7ab"/>
    <rect x="55.5556"  y="0" height="0.0327926" width="55.5556" style="fill: #c5c61b"/>
    <rect x="55.5556"  y="0" height="0.535613" width="55.5556" style="fill: #aa52e0"/>
    <rect x="55.5556"  y="0" height="0.0327926" width="55.5556" style="fill: #53b4c3"/>
    <rect x="55.5556"  y="0" height="0.852608" width="55.5556" style="fill: #643f20"/>
    <rect x="55.5556"  y="0" height="0.797954" width="55.5556" style="fill: #4ef259"/>
    <rect x="388.889"  y="0" height="24.9115" width="55.5556" style="fill: #d2e980"/>
    <rect x="333.333"  y="0" height="0.349788" width="55.5556" style="fill: #42a948"/>
    <rect x="111.111"  y="0" height="0.306064" width="55.5556" style="fill: #aac5e8"/>
    <rect x="222.222"  y="0" height="0.262341" width="55.5556" style="fill: #84cb3e"/>
    <rect x="333.333"  y="0" height="0.153032" width="55.5556" style="fill: #c7db92"/>
    <rect x="111.111"  y="0" height="0.153032" width="55.5556" style="fill: #5643fd"/>
    <rect x="222.222"  y="0" height="0.163963" width="55.5556" style="fill: #34fdd4"/>
    <rect x="333.333"  y="0" height="0.448166" width="55.5556" style="fill: #67e2cc"/>
    <rect x="55.5556"  y="0" height="0.284203" width="55.5556" style="fill: #a40603"/>
    <rect x="111.111"  y="0" height="0.0218617" width="55.5556" style="fill: #5cb274"/>
    <rect x="111.111"  y="0" height="0.163963" width="55.5556" style="fill: #4cb90a"/>
    <rect x="222.222"  y="0" height="0.0327926" width="55.5556" style="fill: #63e51c"/>
    <rect x="222.222"  y="0" height="1.71615" width="55.5556" style="fill: #973790"/>
    <rect x="111.111"  y="0" height="20.6812" width="55.5556" style="fill: #334394"/>
    <rect x="55.5556"  y="0" height="0.491889" width="55.5556" style="fill: #7e0208"/>
    <rect x="333.333"  y="0" height="0.918193" width="55.5556" style="fill: #6541e4"/>
    <rect x="55.5556"  y="0" height="0.885401" width="55.5556" style="fill: #c48a99"/>
    <rect x="333.333"  y="0" height="0.513751" width="55.5556" style="fill: #630aa9"/>
    <rect x="55.5556"  y="0" height="0.240479" width="55.5556" style="fill: #aece15"/>
    <rect x="222.222"  y="0" height="0.087447" width="55.5556" style="fill: #3843a4"/>
    <rect x="333.333"  y="0" height="0.185825" width="55.5556" style="fill: #b19027"/>
    <rect x="55.5556"  y="0" height="0.491889" width="55.5556" style="fill: #4ebc95"/>
    <rect x="222.222"  y="0" height="0.185825" width="55.5556" style="fill: #5f8592"/>
    <rect x="333.333"  y="0" height="0.25141" width="55.5556" style="fill: #e30a22"/>
    <rect x="222.222"  y="0" height="13.1608" width="55.5556" style="fill: #05a485"/>
    <rect x="333.333"  y="0" height="0.142101" width="55.5556" style="fill: #846248"/>
    <rect x="55.5556"  y="0" height="0.655852" width="55.5556" style="fill: #987550"/>
    <rect x="333.333"  y="0" height="0.0437235" width="55.5556" style="fill: #aaf209"/>
    <rect x="333.333"  y="0" height="164.061" width="55.5556" style="fill: #4ec59e"/>
    <rect x="55.5556"  y="0" height="0.25141" width="55.5556" style="fill: #7931dc"/>
    <rect x="55.5556"  y="0" height="0.284203" width="55.5556" style="fill: #650c74"/>
    <rect x="55.5556"  y="0" height="0.240479" width="55.5556" style="fill: #51cc61"/>
    <rect x="55.5556"  y="0" height="0.0327926" width="55.5556" style="fill: #c0cb2c"/>
    <rect x="55.5556"  y="0" height="2.28455" width="55.5556" style="fill: #46a1b3"/>
    <rect x="55.5556"  y="0" height="0.273272" width="55.5556" style="fill: #f2c349"/>
    <rect x="55.5556"  y="0" height="0.0327926" width="55.5556" style="fill: #faff76"/>
    <rect x="55.5556"  y="0" height="0.415373" width="55.5556" style="fill: #3c7f8d"/>
    <rect x="55.5556"  y="0" height="0.163963" width="55.5556" style="fill: #14ddff"/>
    <rect x="55.5556"  y="0" height="0.087447" width="55.5556" style="fill: #946351"/>
    <rect x="55.5556"  y="0" height="2.43758" width="55.5556" style="fill: #744378"/>
    <rect x="55.5556"  y="0" height="0.174894" width="55.5556" style="fill: #d62c59"/>
    <rect x="55.5556"  y="0" height="0.0327926" width="55.5556" style="fill: #285a8d"/>
    <rect x="55.5556"  y="0" height="0.284203" width="55.5556" style="fill: #791561"/>
    <rect x="55.5556"  y="0" height="0.196756" width="55.5556" style="fill: #4f5a2a"/>
    <rect x="55.5556"  y="0" height="0.196756" width="55.5556" style="fill: #c9e0d6"/>
    <rect x="55.5556"  y="0" height="0.480958" width="55.5556" style="fill: #8aca62"/>
    <rect x="55.5556"  y="0" height="0.142101" width="55.5556" style="fill: #48a922"/>
    <rect x="55.5556"  y="0" height="0.207687" width="55.5556" style="fill: #7ab8f1"/>
    <rect x="55.5556"  y="0" height="0.0218617" width="55.5556" style="fill: #930ee3"/>
    <rect x="55.5556"  y="0" height="0.50282" width="55.5556" style="fill: #8ac7a9"/>
    <rect x="166.667"  y="0" height="0.830746" width="55.5556" style="fill: #d239c9"/>
    <rect x="55.5556"  y="0" height="0.535613" width="55.5556" style="fill: #b026a4"/>
    <rect x="55.5556"  y="0" height="0.273272" width="55.5556" style="fill: #81e49d"/>
    <rect x="55.5556"  y="0" height="3.61812" width="55.5556" style="fill: #53161f"/>
    <rect x="166.667"  y="0" height="1.06029" width="55.5556" style="fill: #9a9513"/>
    <rect x="166.667"  y="0" height="0.0546544" width="55.5556" style="fill: #fe5271"/>
    <rect x="166.667"  y="0" height="0.0218617" width="55.5556" style="fill: #c32e9c"/>
    <rect x="166.667"  y="0" height="0.448166" width="55.5556" style="fill: #21d156"/>
</svg>
</svg>
