<svg  xmlns="http://www.w3.org/2000/svg" xmlns:xlink="http://www.w3.org/1999/xlink" x="0" y="0" width="600" height="600">
<rect x="0%" y="0%" height="100%" width="100%" style="fill: #ffffff"/>
<svg x="0" y="0">
  <text fill="dark" font-size="35" transform="translate(250, 30)">cores</text>
</svg>
<svg x="0" y="0"> 
  <text fill="dark" font-size="35" transform="translate(30, 300) rotate(270)">time</text>
</svg>
<svg x = "50" y="550">
  <text fill="blue" font-size="30" transform="translate(0, 35)">t = 53s, lb = 0.998833</text>
</svg>
<svg x="50" y="50" width="500" height="500" >
  <rect x="0%" y="0%" height="100%" width="100%" style="fill: #eeeeee"/>
    <rect x="0"  y="0" height="46.1673" width="250" style="fill: #76931f"/>
    <rect x="0"  y="0" height="8.21693" width="250" style="fill: #ac9dab"/>
    <rect x="0"  y="0" height="0.385904" width="250" style="fill: #2b36c2"/>
    <rect x="0"  y="0" height="3.02135" width="250" style="fill: #48b87d"/>
    <rect x="0"  y="0" height="0.865931" width="250" style="fill: #6ae33f"/>
    <rect x="0"  y="0" height="7.06863" width="250" style="fill: #9a62d7"/>
    <rect x="0"  y="0" height="9.01698" width="250" style="fill: #183a5d"/>
    <rect x="0"  y="0" height="18.1375" width="250" style="fill: #5789e4"/>
    <rect x="0"  y="0" height="8.90403" width="250" style="fill: #b2d6b4"/>
    <rect x="0"  y="0" height="1.39302" width="250" style="fill: #41e241"/>
    <rect x="0"  y="0" height="1.71304" width="250" style="fill: #1dc709"/>
    <rect x="0"  y="0" height="1.18595" width="250" style="fill: #e111c7"/>
    <rect x="0"  y="0" height="5.75091" width="250" style="fill: #e1e7ac"/>
    <rect x="0"  y="0" height="0.404729" width="250" style="fill: #b6f8ca"/>
    <rect x="0"  y="0" height="1.6095" width="250" style="fill: #c0bb2f"/>
    <rect x="0"  y="0" height="1.30831" width="250" style="fill: #c4c8bc"/>
    <rect x="0"  y="0" height="12.1324" width="250" style="fill: #2ae3ba"/>
    <rect x="0"  y="0" height="2.03306" width="250" style="fill: #aab916"/>
    <rect x="0"  y="0" height="1.77892" width="250" style="fill: #5cc458"/>
    <rect x="0"  y="0" height="4.87557" width="250" style="fill: #e199cb"/>
    <rect x="0"  y="0" height="5.11088" width="250" style="fill: #89f51b"/>
    <rect x="0"  y="0" height="0.160009" width="250" style="fill: #135f70"/>
    <rect x="0"  y="0" height="3.55785" width="250" style="fill: #91a5ab"/>
    <rect x="0"  y="0" height="50.0546" width="250" style="fill: #b0874d"/>
    <rect x="0"  y="0" height="1.80716" width="250" style="fill: #f3e8cb"/>
    <rect x="0"  y="0" height="1.2989" width="250" style="fill: #4543a5"/>
    <rect x="0"  y="0" height="3.9814" width="250" style="fill: #eb93b0"/>
    <rect x="0"  y="0" height="5.6662" width="250" style="fill: #441e9c"/>
    <rect x="0"  y="0" height="0.0282369" width="250" style="fill: #a4c2b0"/>
    <rect x="0"  y="0" height="4.39554" width="250" style="fill: #fb3d30"/>
    <rect x="0"  y="0" height="0.160009" width="250" style="fill: #875cbf"/>
    <rect x="0"  y="0" height="1.26125" width="250" style="fill: #29abd5"/>
    <rect x="0"  y="0" height="2.99311" width="250" style="fill: #b1acf3"/>
    <rect x="0"  y="0" height="2.49426" width="250" style="fill: #8984b3"/>
    <rect x="0"  y="0" height="5.91092" width="250" style="fill: #5ae882"/>
    <rect x="0"  y="0" height="2.57897" width="250" style="fill: #809dd4"/>
    <rect x="0"  y="0" height="6.45684" width="250" style="fill: #cfe7ab"/>
    <rect x="0"  y="0" height="4.00964" width="250" style="fill: #c5c61b"/>
    <rect x="0"  y="0" height="0.649448" width="250" style="fill: #aa52e0"/>
    <rect x="0"  y="0" height="3.20018" width="250" style="fill: #53b4c3"/>
    <rect x="0"  y="0" height="0.498852" width="250" style="fill: #643f20"/>
    <rect x="0"  y="0" height="11.3324" width="250" style="fill: #4ef259"/>
    <rect x="0"  y="0" height="8.01928" width="250" style="fill: #d2e980"/>
    <rect x="0"  y="0" height="2.04247" width="250" style="fill: #42a948"/>
    <rect x="0"  y="0" height="1.96717" width="250" style="fill: #aac5e8"/>
    <rect x="0"  y="0" height="3.92493" width="250" style="fill: #84cb3e"/>
    <rect x="0"  y="0" height="3.8308" width="250" style="fill: #c7db92"/>
    <rect x="0"  y="0" height="6.41919" width="250" style="fill: #5643fd"/>
    <rect x="0"  y="0" height="2.32484" width="250" style="fill: #34fdd4"/>
    <rect x="0"  y="0" height="3.50137" width="250" style="fill: #67e2cc"/>
    <rect x="0"  y="0" height="2.17424" width="250" style="fill: #a40603"/>
    <rect x="0"  y="0" height="14.2596" width="250" style="fill: #5cb274"/>
    <rect x="0"  y="0" height="0.178834" width="250" style="fill: #4cb90a"/>
    <rect x="0"  y="0" height="0.564738" width="250" style="fill: #63e51c"/>
    <rect x="0"  y="0" height="0.630624" width="250" style="fill: #973790"/>
    <rect x="0"  y="0" height="7.52984" width="250" style="fill: #334394"/>
    <rect x="0"  y="0" height="4.96028" width="250" style="fill: #7e0208"/>
    <rect x="0"  y="0" height="3.82139" width="250" style="fill: #6541e4"/>
    <rect x="0"  y="0" height="1.39302" width="250" style="fill: #c48a99"/>
    <rect x="0"  y="0" height="0.781221" width="250" style="fill: #630aa9"/>
    <rect x="0"  y="0" height="6.5792" width="250" style="fill: #aece15"/>
    <rect x="0"  y="0" height="2.70133" width="250" style="fill: #3843a4"/>
    <rect x="0"  y="0" height="10.683" width="250" style="fill: #b19027"/>
    <rect x="0"  y="0" height="2.92722" width="250" style="fill: #4ebc95"/>
    <rect x="0"  y="0" height="1.92952" width="250" style="fill: #5f8592"/>
    <rect x="0"  y="0" height="3.76492" width="250" style="fill: #e30a22"/>
    <rect x="0"  y="0" height="5.33677" width="250" style="fill: #05a485"/>
    <rect x="0"  y="0" height="0.668273" width="250" style="fill: #846248"/>
    <rect x="0"  y="0" height="5.1297" width="250" style="fill: #987550"/>
    <rect x="0"  y="0" height="9.2617" width="250" style="fill: #aaf209"/>
    <rect x="0"  y="0" height="0.395316" width="250" style="fill: #4ec59e"/>
    <rect x="0"  y="0" height="5.09205" width="250" style="fill: #7931dc"/>
    <rect x="0"  y="0" height="3.20018" width="250" style="fill: #650c74"/>
    <rect x="0"  y="0" height="34.0537" width="250" style="fill: #51cc61"/>
    <rect x="0"  y="0" height="4.9791" width="250" style="fill: #c0cb2c"/>
    <rect x="0"  y="0" height="1.35537" width="250" style="fill: #46a1b3"/>
    <rect x="0"  y="0" height="5.11088" width="250" style="fill: #f2c349"/>
    <rect x="0"  y="0" height="2.08012" width="250" style="fill: #faff76"/>
    <rect x="0"  y="0" height="1.81657" width="250" style="fill: #3c7f8d"/>
    <rect x="0"  y="0" height="3.19077" width="250" style="fill: #14ddff"/>
    <rect x="0"  y="0" height="0.36708" width="250" style="fill: #946351"/>
    <rect x="0"  y="0" height="3.20018" width="250" style="fill: #744378"/>
    <rect x="0"  y="0" height="5.49678" width="250" style="fill: #d62c59"/>
    <rect x="0"  y="0" height="2.61662" width="250" style="fill: #285a8d"/>
    <rect x="0"  y="0" height="13.6667" width="250" style="fill: #791561"/>
    <rect x="0"  y="0" height="2.28719" width="250" style="fill: #4f5a2a"/>
    <rect x="0"  y="0" height="0.809457" width="250" style="fill: #c9e0d6"/>
    <rect x="0"  y="0" height="2.05188" width="250" style="fill: #8aca62"/>
    <rect x="0"  y="0" height="9.47818" width="250" style="fill: #48a922"/>
    <rect x="0"  y="0" height="2.24954" width="250" style="fill: #7ab8f1"/>
    <rect x="0"  y="0" height="3.52961" width="250" style="fill: #930ee3"/>
    <rect x="0"  y="0" height="7.20041" width="250" style="fill: #8ac7a9"/>
    <rect x="0"  y="0" height="2.59779" width="250" style="fill: #d239c9"/>
    <rect x="0"  y="0" height="2.31542" width="250" style="fill: #b026a4"/>
    <rect x="0"  y="0" height="0.404729" width="250" style="fill: #81e49d"/>
    <rect x="0"  y="0" height="0.480027" width="250" style="fill: #53161f"/>
    <rect x="0"  y="0" height="0.884756" width="250" style="fill: #9a9513"/>
    <rect x="0"  y="0" height="0.169421" width="250" style="fill: #fe5271"/>
    <rect x="0"  y="0" height="7.07805" width="250" style="fill: #c32e9c"/>
    <rect x="0"  y="0" height="0.376492" width="250" style="fill: #21d156"/>
</svg>
</svg>
