<svg  xmlns="http://www.w3.org/2000/svg" xmlns:xlink="http://www.w3.org/1999/xlink" x="0" y="0" width="600" height="600">
<rect x="0%" y="0%" height="100%" width="100%" style="fill: #ffffff"/>
<svg x="0" y="0">
  <text fill="dark" font-size="35" transform="translate(250, 30)">cores</text>
</svg>
<svg x="0" y="0"> 
  <text fill="dark" font-size="35" transform="translate(30, 300) rotate(270)">time</text>
</svg>
<svg x = "50" y="550">
  <text fill="blue" font-size="30" transform="translate(0, 35)">t = 18s, lb = 0.440571</text>
</svg>
<svg x="50" y="50" width="500" height="500" >
  <rect x="0%" y="0%" height="100%" width="100%" style="fill: #eeeeee"/>
    <rect x="0"  y="0" height="16.2613" width="55.5556" style="fill: #76931f"/>
    <rect x="222.222"  y="0" height="4.6923" width="55.5556" style="fill: #ac9dab"/>
    <rect x="111.111"  y="0" height="11.9195" width="55.5556" style="fill: #2b36c2"/>
    <rect x="55.5556"  y="0" height="6.20247" width="55.5556" style="fill: #48b87d"/>
    <rect x="333.333"  y="0" height="20.7648" width="55.5556" style="fill: #6ae33f"/>
    <rect x="277.778"  y="0" height="5.25862" width="55.5556" style="fill: #9a62d7"/>
    <rect x="166.667"  y="0" height="2.21132" width="55.5556" style="fill: #183a5d"/>
    <rect x="388.889"  y="0" height="18.5265" width="55.5556" style="fill: #5789e4"/>
    <rect x="166.667"  y="0" height="3.39787" width="55.5556" style="fill: #b2d6b4"/>
    <rect x="222.222"  y="0" height="16.9624" width="55.5556" style="fill: #41e241"/>
    <rect x="277.778"  y="0" height="5.82493" width="55.5556" style="fill: #1dc709"/>
    <rect x="166.667"  y="0" height="9.51944" width="55.5556" style="fill: #e111c7"/>
    <rect x="55.5556"  y="0" height="3.88329" width="55.5556" style="fill: #e1e7ac"/>
    <rect x="55.5556"  y="0" height="17.9602" width="55.5556" style="fill: #b6f8ca"/>
    <rect x="277.778"  y="0" height="2.58886" width="55.5556" style="fill: #c0bb2f"/>
    <rect x="111.111"  y="0" height="10.8948" width="55.5556" style="fill: #c4c8bc"/>
    <rect x="277.778"  y="0" height="18.095" width="55.5556" style="fill: #2ae3ba"/>
    <rect x="166.667"  y="0" height="7.06542" width="55.5556" style="fill: #aab916"/>
    <rect x="0"  y="0" height="2.9664" width="55.5556" style="fill: #5cc458"/>
    <rect x="388.889"  y="0" height="9.62731" width="55.5556" style="fill: #e199cb"/>
    <rect x="0"  y="0" height="17.5287" width="55.5556" style="fill: #89f51b"/>
    <rect x="333.333"  y="0" height="14.3196" width="55.5556" style="fill: #135f70"/>
    <rect x="222.222"  y="0" height="2.37312" width="55.5556" style="fill: #91a5ab"/>
    <rect x="166.667"  y="0" height="9.27674" width="55.5556" style="fill: #b0874d"/>
    <rect x="111.111"  y="0" height="23.2458" width="55.5556" style="fill: #f3e8cb"/>
    <rect x="222.222"  y="0" height="20.2524" width="55.5556" style="fill: #4543a5"/>
    <rect x="55.5556"  y="0" height="10.1667" width="55.5556" style="fill: #eb93b0"/>
    <rect x="388.889"  y="0" height="7.95534" width="55.5556" style="fill: #441e9c"/>
    <rect x="166.667"  y="0" height="18.2838" width="55.5556" style="fill: #a4c2b0"/>
    <rect x="277.778"  y="0" height="2.29222" width="55.5556" style="fill: #fb3d30"/>
    <rect x="277.778"  y="0" height="7.98231" width="55.5556" style="fill: #875cbf"/>
    <rect x="333.333"  y="0" height="2.69673" width="55.5556" style="fill: #29abd5"/>
    <rect x="388.889"  y="0" height="10.4903" width="55.5556" style="fill: #b1acf3"/>
    <rect x="0"  y="0" height="14.9668" width="55.5556" style="fill: #8984b3"/>
    <rect x="333.333"  y="0" height="8.35985" width="55.5556" style="fill: #5ae882"/>
    <rect x="55.5556"  y="0" height="8.84526" width="55.5556" style="fill: #809dd4"/>
    <rect x="277.778"  y="0" height="21.0075" width="55.5556" style="fill: #cfe7ab"/>
    <rect x="222.222"  y="0" height="7.76657" width="55.5556" style="fill: #c5c61b"/>
    <rect x="111.111"  y="0" height="12.8094" width="55.5556" style="fill: #aa52e0"/>
    <rect x="333.333"  y="0" height="6.76878" width="55.5556" style="fill: #53b4c3"/>
    <rect x="388.889"  y="0" height="12.2701" width="55.5556" style="fill: #643f20"/>
    <rect x="55.5556"  y="0" height="2.75066" width="55.5556" style="fill: #4ef259"/>
    <rect x="166.667"  y="0" height="40.397" width="55.5556" style="fill: #d2e980"/>
    <rect x="55.5556"  y="0" height="50.1052" width="55.5556" style="fill: #42a948"/>
    <rect x="0"  y="0" height="3.10124" width="55.5556" style="fill: #aac5e8"/>
    <rect x="222.222"  y="0" height="11.6229" width="55.5556" style="fill: #84cb3e"/>
    <rect x="333.333"  y="0" height="9.60035" width="55.5556" style="fill: #c7db92"/>
    <rect x="0"  y="0" height="70.2497" width="55.5556" style="fill: #5643fd"/>
    <rect x="111.111"  y="0" height="3.91025" width="55.5556" style="fill: #34fdd4"/>
    <rect x="388.889"  y="0" height="6.95755" width="55.5556" style="fill: #67e2cc"/>
    <rect x="333.333"  y="0" height="2.61582" width="55.5556" style="fill: #a40603"/>
    <rect x="111.111"  y="0" height="2.9664" width="55.5556" style="fill: #5cb274"/>
    <rect x="277.778"  y="0" height="3.69451" width="55.5556" style="fill: #4cb90a"/>
    <rect x="222.222"  y="0" height="7.7396" width="55.5556" style="fill: #63e51c"/>
    <rect x="333.333"  y="0" height="6.52608" width="55.5556" style="fill: #973790"/>
    <rect x="111.111"  y="0" height="4.42263" width="55.5556" style="fill: #334394"/>
    <rect x="388.889"  y="0" height="7.4969" width="55.5556" style="fill: #7e0208"/>
    <rect x="277.778"  y="0" height="72.1914" width="55.5556" style="fill: #6541e4"/>
    <rect x="111.111"  y="0" height="10.5712" width="55.5556" style="fill: #c48a99"/>
    <rect x="222.222"  y="0" height="17.9063" width="55.5556" style="fill: #630aa9"/>
    <rect x="333.333"  y="0" height="3.18214" width="55.5556" style="fill: #aece15"/>
    <rect x="388.889"  y="0" height="20.1715" width="55.5556" style="fill: #3843a4"/>
    <rect x="333.333"  y="0" height="6.12157" width="55.5556" style="fill: #b19027"/>
    <rect x="111.111"  y="0" height="21.3311" width="55.5556" style="fill: #4ebc95"/>
    <rect x="333.333"  y="0" height="4.28779" width="55.5556" style="fill: #5f8592"/>
    <rect x="333.333"  y="0" height="3.93722" width="55.5556" style="fill: #e30a22"/>
    <rect x="333.333"  y="0" height="12.8094" width="55.5556" style="fill: #05a485"/>
    <rect x="222.222"  y="0" height="6.0946" width="55.5556" style="fill: #846248"/>
    <rect x="166.667"  y="0" height="30.1224" width="55.5556" style="fill: #987550"/>
    <rect x="388.889"  y="0" height="14.1848" width="55.5556" style="fill: #aaf209"/>
    <rect x="222.222"  y="0" height="8.71043" width="55.5556" style="fill: #4ec59e"/>
    <rect x="55.5556"  y="0" height="16.8276" width="55.5556" style="fill: #7931dc"/>
    <rect x="333.333"  y="0" height="13.6724" width="55.5556" style="fill: #650c74"/>
    <rect x="111.111"  y="0" height="58.519" width="55.5556" style="fill: #51cc61"/>
    <rect x="222.222"  y="0" height="3.1282" width="55.5556" style="fill: #c0cb2c"/>
    <rect x="222.222"  y="0" height="4.5305" width="55.5556" style="fill: #46a1b3"/>
    <rect x="388.889"  y="0" height="19.3086" width="55.5556" style="fill: #f2c349"/>
    <rect x="222.222"  y="0" height="9.16887" width="55.5556" style="fill: #faff76"/>
    <rect x="333.333"  y="0" height="10.9487" width="55.5556" style="fill: #3c7f8d"/>
    <rect x="55.5556"  y="0" height="17.286" width="55.5556" style="fill: #14ddff"/>
    <rect x="166.667"  y="0" height="3.82935" width="55.5556" style="fill: #946351"/>
    <rect x="222.222"  y="0" height="15.0208" width="55.5556" style="fill: #744378"/>
    <rect x="166.667"  y="0" height="375.735" width="55.5556" style="fill: #d62c59"/>
    <rect x="0"  y="0" height="33.6551" width="55.5556" style="fill: #285a8d"/>
    <rect x="333.333"  y="0" height="24.7829" width="55.5556" style="fill: #791561"/>
    <rect x="388.889"  y="0" height="20.576" width="55.5556" style="fill: #4f5a2a"/>
    <rect x="55.5556"  y="0" height="11.8117" width="55.5556" style="fill: #c9e0d6"/>
    <rect x="222.222"  y="0" height="7.52387" width="55.5556" style="fill: #8aca62"/>
    <rect x="277.778"  y="0" height="3.55968" width="55.5556" style="fill: #48a922"/>
    <rect x="277.778"  y="0" height="61.9977" width="55.5556" style="fill: #7ab8f1"/>
    <rect x="222.222"  y="0" height="8.41379" width="55.5556" style="fill: #930ee3"/>
    <rect x="55.5556"  y="0" height="4.17993" width="55.5556" style="fill: #8ac7a9"/>
    <rect x="388.889"  y="0" height="34.8956" width="55.5556" style="fill: #d239c9"/>
    <rect x="55.5556"  y="0" height="9.35764" width="55.5556" style="fill: #b026a4"/>
    <rect x="333.333"  y="0" height="3.39787" width="55.5556" style="fill: #81e49d"/>
    <rect x="222.222"  y="0" height="45.278" width="55.5556" style="fill: #53161f"/>
    <rect x="333.333"  y="0" height="18.2029" width="55.5556" style="fill: #9a9513"/>
    <rect x="0"  y="0" height="2.91246" width="55.5556" style="fill: #fe5271"/>
    <rect x="55.5556"  y="0" height="10.0858" width="55.5556" style="fill: #c32e9c"/>
    <rect x="111.111"  y="0" height="13.6185" width="55.5556" style="fill: #21d156"/>
</svg>
</svg>
