<svg  xmlns="http://www.w3.org/2000/svg" xmlns:xlink="http://www.w3.org/1999/xlink" x="0" y="0" width="600" height="600">
<rect x="0%" y="0%" height="100%" width="100%" style="fill: #ffffff"/>
<svg x="0" y="0">
  <text fill="dark" font-size="35" transform="translate(250, 30)">cores</text>
</svg>
<svg x="0" y="0"> 
  <text fill="dark" font-size="35" transform="translate(30, 300) rotate(270)">time</text>
</svg>
<svg x = "50" y="550">
  <text fill="blue" font-size="30" transform="translate(0, 35)">t = 10s, lb = 0.994207</text>
</svg>
<svg x="50" y="50" width="500" height="500" >
  <rect x="0%" y="0%" height="100%" width="100%" style="fill: #eeeeee"/>
    <rect x="0"  y="0" height="37.5549" width="250" style="fill: #76931f"/>
    <rect x="0"  y="0" height="34.6085" width="250" style="fill: #ac9dab"/>
    <rect x="0"  y="0" height="22.0236" width="250" style="fill: #2b36c2"/>
    <rect x="0"  y="0" height="30.2137" width="250" style="fill: #48b87d"/>
    <rect x="0"  y="0" height="5.89293" width="250" style="fill: #6ae33f"/>
    <rect x="0"  y="0" height="13.0843" width="250" style="fill: #9a62d7"/>
    <rect x="0"  y="0" height="9.58849" width="250" style="fill: #183a5d"/>
    <rect x="0"  y="0" height="9.43867" width="250" style="fill: #5789e4"/>
    <rect x="0"  y="0" height="13.1842" width="250" style="fill: #b2d6b4"/>
    <rect x="0"  y="0" height="8.68957" width="250" style="fill: #41e241"/>
    <rect x="0"  y="0" height="14.2329" width="250" style="fill: #1dc709"/>
    <rect x="0"  y="0" height="13.1342" width="250" style="fill: #e111c7"/>
    <rect x="0"  y="0" height="8.68957" width="250" style="fill: #e1e7ac"/>
    <rect x="0"  y="0" height="10.3376" width="250" style="fill: #b6f8ca"/>
    <rect x="0"  y="0" height="4.94407" width="250" style="fill: #c0bb2f"/>
    <rect x="0"  y="0" height="8.33999" width="250" style="fill: #c4c8bc"/>
    <rect x="0"  y="0" height="8.88933" width="250" style="fill: #2ae3ba"/>
    <rect x="0"  y="0" height="6.59209" width="250" style="fill: #aab916"/>
    <rect x="0"  y="0" height="5.39353" width="250" style="fill: #5cc458"/>
    <rect x="0"  y="0" height="7.24131" width="250" style="fill: #e199cb"/>
    <rect x="0"  y="0" height="6.74191" width="250" style="fill: #89f51b"/>
    <rect x="0"  y="0" height="3.44586" width="250" style="fill: #135f70"/>
    <rect x="0"  y="0" height="6.14263" width="250" style="fill: #91a5ab"/>
    <rect x="0"  y="0" height="5.99281" width="250" style="fill: #b0874d"/>
    <rect x="0"  y="0" height="8.58969" width="250" style="fill: #f3e8cb"/>
    <rect x="0"  y="0" height="8.43987" width="250" style="fill: #4543a5"/>
    <rect x="0"  y="0" height="4.94407" width="250" style="fill: #eb93b0"/>
    <rect x="0"  y="0" height="6.84179" width="250" style="fill: #441e9c"/>
    <rect x="0"  y="0" height="6.04275" width="250" style="fill: #a4c2b0"/>
    <rect x="0"  y="0" height="4.89413" width="250" style="fill: #fb3d30"/>
    <rect x="0"  y="0" height="5.84299" width="250" style="fill: #875cbf"/>
    <rect x="0"  y="0" height="7.59089" width="250" style="fill: #29abd5"/>
    <rect x="0"  y="0" height="4.54455" width="250" style="fill: #b1acf3"/>
    <rect x="0"  y="0" height="4.34479" width="250" style="fill: #8984b3"/>
    <rect x="0"  y="0" height="5.84299" width="250" style="fill: #5ae882"/>
    <rect x="0"  y="0" height="5.24371" width="250" style="fill: #809dd4"/>
    <rect x="0"  y="0" height="4.04515" width="250" style="fill: #cfe7ab"/>
    <rect x="0"  y="0" height="2.497" width="250" style="fill: #c5c61b"/>
    <rect x="0"  y="0" height="3.59569" width="250" style="fill: #aa52e0"/>
    <rect x="0"  y="0" height="6.39233" width="250" style="fill: #53b4c3"/>
    <rect x="0"  y="0" height="3.99521" width="250" style="fill: #643f20"/>
    <rect x="0"  y="0" height="6.74191" width="250" style="fill: #4ef259"/>
    <rect x="0"  y="0" height="4.64443" width="250" style="fill: #d2e980"/>
    <rect x="0"  y="0" height="4.59449" width="250" style="fill: #42a948"/>
    <rect x="0"  y="0" height="3.29604" width="250" style="fill: #aac5e8"/>
    <rect x="0"  y="0" height="3.89533" width="250" style="fill: #84cb3e"/>
    <rect x="0"  y="0" height="2.79664" width="250" style="fill: #c7db92"/>
    <rect x="0"  y="0" height="2.94646" width="250" style="fill: #5643fd"/>
    <rect x="0"  y="0" height="5.69317" width="250" style="fill: #34fdd4"/>
    <rect x="0"  y="0" height="2.69676" width="250" style="fill: #67e2cc"/>
    <rect x="0"  y="0" height="4.14503" width="250" style="fill: #a40603"/>
    <rect x="0"  y="0" height="2.64682" width="250" style="fill: #5cb274"/>
    <rect x="0"  y="0" height="2.79664" width="250" style="fill: #4cb90a"/>
    <rect x="0"  y="0" height="3.19616" width="250" style="fill: #63e51c"/>
    <rect x="0"  y="0" height="2.34718" width="250" style="fill: #973790"/>
    <rect x="0"  y="0" height="3.2461" width="250" style="fill: #334394"/>
    <rect x="0"  y="0" height="2.34718" width="250" style="fill: #7e0208"/>
    <rect x="0"  y="0" height="3.2461" width="250" style="fill: #6541e4"/>
    <rect x="0"  y="0" height="3.49581" width="250" style="fill: #c48a99"/>
    <rect x="0"  y="0" height="1.79784" width="250" style="fill: #630aa9"/>
    <rect x="0"  y="0" height="2.44706" width="250" style="fill: #aece15"/>
    <rect x="0"  y="0" height="3.99521" width="250" style="fill: #3843a4"/>
    <rect x="0"  y="0" height="1.94766" width="250" style="fill: #b19027"/>
    <rect x="0"  y="0" height="1.79784" width="250" style="fill: #4ebc95"/>
    <rect x="0"  y="0" height="1.69796" width="250" style="fill: #5f8592"/>
    <rect x="0"  y="0" height="3.39592" width="250" style="fill: #e30a22"/>
    <rect x="0"  y="0" height="1.9976" width="250" style="fill: #05a485"/>
    <rect x="0"  y="0" height="1.19856" width="250" style="fill: #846248"/>
    <rect x="0"  y="0" height="1.69796" width="250" style="fill: #987550"/>
    <rect x="0"  y="0" height="2.14742" width="250" style="fill: #aaf209"/>
    <rect x="0"  y="0" height="1.39832" width="250" style="fill: #4ec59e"/>
    <rect x="0"  y="0" height="1.14862" width="250" style="fill: #7931dc"/>
    <rect x="0"  y="0" height="1.69796" width="250" style="fill: #650c74"/>
    <rect x="0"  y="0" height="1.39832" width="250" style="fill: #51cc61"/>
    <rect x="0"  y="0" height="1.14862" width="250" style="fill: #c0cb2c"/>
    <rect x="0"  y="0" height="0.349581" width="250" style="fill: #46a1b3"/>
    <rect x="0"  y="0" height="1.69796" width="250" style="fill: #f2c349"/>
    <rect x="0"  y="0" height="1.39832" width="250" style="fill: #faff76"/>
    <rect x="0"  y="0" height="1.94766" width="250" style="fill: #3c7f8d"/>
    <rect x="0"  y="0" height="1.09868" width="250" style="fill: #14ddff"/>
    <rect x="0"  y="0" height="0.998801" width="250" style="fill: #946351"/>
    <rect x="0"  y="0" height="0.549341" width="250" style="fill: #744378"/>
    <rect x="0"  y="0" height="0.599281" width="250" style="fill: #d62c59"/>
    <rect x="0"  y="0" height="0.499401" width="250" style="fill: #285a8d"/>
    <rect x="0"  y="0" height="0.399521" width="250" style="fill: #791561"/>
    <rect x="0"  y="0" height="0.399521" width="250" style="fill: #4f5a2a"/>
    <rect x="0"  y="0" height="0.499401" width="250" style="fill: #c9e0d6"/>
    <rect x="0"  y="0" height="0.599281" width="250" style="fill: #8aca62"/>
    <rect x="0"  y="0" height="0.349581" width="250" style="fill: #48a922"/>
    <rect x="0"  y="0" height="0.349581" width="250" style="fill: #7ab8f1"/>
    <rect x="0"  y="0" height="0.2497" width="250" style="fill: #930ee3"/>
    <rect x="0"  y="0" height="0.2497" width="250" style="fill: #8ac7a9"/>
    <rect x="0"  y="0" height="0.19976" width="250" style="fill: #d239c9"/>
    <rect x="0"  y="0" height="0.19976" width="250" style="fill: #b026a4"/>
    <rect x="0"  y="0" height="0.19976" width="250" style="fill: #81e49d"/>
    <rect x="0"  y="0" height="0.19976" width="250" style="fill: #53161f"/>
    <rect x="0"  y="0" height="0.0998801" width="250" style="fill: #9a9513"/>
    <rect x="0"  y="0" height="0.0998801" width="250" style="fill: #fe5271"/>
    <rect x="0"  y="0" height="0.0998801" width="250" style="fill: #c32e9c"/>
</svg>
</svg>
