<svg  xmlns="http://www.w3.org/2000/svg" xmlns:xlink="http://www.w3.org/1999/xlink" x="0" y="0" width="600" height="600">
<rect x="0%" y="0%" height="100%" width="100%" style="fill: #ffffff"/>
<svg x="0" y="0">
  <text fill="dark" font-size="35" transform="translate(250, 30)">cores</text>
</svg>
<svg x="0" y="0"> 
  <text fill="dark" font-size="35" transform="translate(30, 300) rotate(270)">time</text>
</svg>
<svg x = "50" y="550">
  <text fill="blue" font-size="30" transform="translate(0, 35)">t = 7s, lb = 0.926056</text>
</svg>
<svg x="50" y="50" width="500" height="500" >
  <rect x="0%" y="0%" height="100%" width="100%" style="fill: #eeeeee"/>
    <rect x="0"  y="0" height="26.9886" width="55.5556" style="fill: #76931f"/>
    <rect x="222.222"  y="0" height="9.74948" width="55.5556" style="fill: #ac9dab"/>
    <rect x="111.111"  y="0" height="15.5604" width="55.5556" style="fill: #2b36c2"/>
    <rect x="55.5556"  y="0" height="66.5677" width="55.5556" style="fill: #48b87d"/>
    <rect x="333.333"  y="0" height="22.5981" width="55.5556" style="fill: #6ae33f"/>
    <rect x="277.778"  y="0" height="43.6467" width="55.5556" style="fill: #9a62d7"/>
    <rect x="166.667"  y="0" height="23.3729" width="55.5556" style="fill: #183a5d"/>
    <rect x="388.889"  y="0" height="10.6534" width="55.5556" style="fill: #5789e4"/>
    <rect x="222.222"  y="0" height="186.532" width="55.5556" style="fill: #b2d6b4"/>
    <rect x="388.889"  y="0" height="27.7634" width="55.5556" style="fill: #41e241"/>
    <rect x="111.111"  y="0" height="61.7898" width="55.5556" style="fill: #1dc709"/>
    <rect x="333.333"  y="0" height="28.1508" width="55.5556" style="fill: #e111c7"/>
    <rect x="166.667"  y="0" height="39.8373" width="55.5556" style="fill: #e1e7ac"/>
    <rect x="0"  y="0" height="17.8202" width="55.5556" style="fill: #b6f8ca"/>
    <rect x="388.889"  y="0" height="5.29442" width="55.5556" style="fill: #c0bb2f"/>
    <rect x="277.778"  y="0" height="31.5083" width="55.5556" style="fill: #c4c8bc"/>
    <rect x="388.889"  y="0" height="98.3342" width="55.5556" style="fill: #2ae3ba"/>
    <rect x="0"  y="0" height="36.157" width="55.5556" style="fill: #aab916"/>
    <rect x="333.333"  y="0" height="28.0217" width="55.5556" style="fill: #5cc458"/>
    <rect x="166.667"  y="0" height="20.4675" width="55.5556" style="fill: #e199cb"/>
    <rect x="55.5556"  y="0" height="24.5997" width="55.5556" style="fill: #89f51b"/>
    <rect x="277.778"  y="0" height="8.45816" width="55.5556" style="fill: #135f70"/>
    <rect x="111.111"  y="0" height="15.9478" width="55.5556" style="fill: #91a5ab"/>
    <rect x="333.333"  y="0" height="7.03771" width="55.5556" style="fill: #b0874d"/>
    <rect x="0"  y="0" height="17.4329" width="55.5556" style="fill: #f3e8cb"/>
    <rect x="277.778"  y="0" height="17.7557" width="55.5556" style="fill: #4543a5"/>
    <rect x="166.667"  y="0" height="6.06921" width="55.5556" style="fill: #eb93b0"/>
    <rect x="333.333"  y="0" height="28.6674" width="55.5556" style="fill: #441e9c"/>
    <rect x="166.667"  y="0" height="20.7903" width="55.5556" style="fill: #a4c2b0"/>
    <rect x="55.5556"  y="0" height="83.032" width="55.5556" style="fill: #fb3d30"/>
    <rect x="111.111"  y="0" height="10.0077" width="55.5556" style="fill: #875cbf"/>
    <rect x="0"  y="0" height="22.3399" width="55.5556" style="fill: #29abd5"/>
    <rect x="277.778"  y="0" height="5.22986" width="55.5556" style="fill: #b1acf3"/>
    <rect x="111.111"  y="0" height="22.5981" width="55.5556" style="fill: #8984b3"/>
    <rect x="277.778"  y="0" height="8.78099" width="55.5556" style="fill: #5ae882"/>
    <rect x="166.667"  y="0" height="14.5919" width="55.5556" style="fill: #809dd4"/>
    <rect x="333.333"  y="0" height="14.8502" width="55.5556" style="fill: #cfe7ab"/>
    <rect x="277.778"  y="0" height="38.6751" width="55.5556" style="fill: #c5c61b"/>
    <rect x="0"  y="0" height="25.5036" width="55.5556" style="fill: #aa52e0"/>
    <rect x="166.667"  y="0" height="42.2262" width="55.5556" style="fill: #53b4c3"/>
    <rect x="111.111"  y="0" height="5.68182" width="55.5556" style="fill: #643f20"/>
    <rect x="333.333"  y="0" height="22.5336" width="55.5556" style="fill: #4ef259"/>
    <rect x="111.111"  y="0" height="32.4122" width="55.5556" style="fill: #d2e980"/>
    <rect x="388.889"  y="0" height="61.2087" width="55.5556" style="fill: #42a948"/>
    <rect x="0"  y="0" height="15.0439" width="55.5556" style="fill: #aac5e8"/>
    <rect x="333.333"  y="0" height="38.6751" width="55.5556" style="fill: #84cb3e"/>
    <rect x="277.778"  y="0" height="32.6705" width="55.5556" style="fill: #c7db92"/>
    <rect x="0"  y="0" height="78.9644" width="55.5556" style="fill: #5643fd"/>
    <rect x="111.111"  y="0" height="18.595" width="55.5556" style="fill: #34fdd4"/>
    <rect x="166.667"  y="0" height="23.8895" width="55.5556" style="fill: #67e2cc"/>
    <rect x="55.5556"  y="0" height="35.6405" width="55.5556" style="fill: #a40603"/>
    <rect x="111.111"  y="0" height="11.751" width="55.5556" style="fill: #5cb274"/>
    <rect x="277.778"  y="0" height="37.1901" width="55.5556" style="fill: #4cb90a"/>
    <rect x="333.333"  y="0" height="18.7242" width="55.5556" style="fill: #63e51c"/>
    <rect x="166.667"  y="0" height="26.2138" width="55.5556" style="fill: #973790"/>
    <rect x="111.111"  y="0" height="27.3115" width="55.5556" style="fill: #334394"/>
    <rect x="222.222"  y="0" height="28.4737" width="55.5556" style="fill: #7e0208"/>
    <rect x="388.889"  y="0" height="17.8202" width="55.5556" style="fill: #6541e4"/>
    <rect x="333.333"  y="0" height="99.4964" width="55.5556" style="fill: #c48a99"/>
    <rect x="55.5556"  y="0" height="29.9587" width="55.5556" style="fill: #630aa9"/>
    <rect x="166.667"  y="0" height="23.8895" width="55.5556" style="fill: #aece15"/>
    <rect x="388.889"  y="0" height="23.3084" width="55.5556" style="fill: #3843a4"/>
    <rect x="111.111"  y="0" height="271.371" width="55.5556" style="fill: #b19027"/>
    <rect x="277.778"  y="0" height="14.0108" width="55.5556" style="fill: #4ebc95"/>
    <rect x="222.222"  y="0" height="6.84401" width="55.5556" style="fill: #5f8592"/>
    <rect x="222.222"  y="0" height="22.2753" width="55.5556" style="fill: #e30a22"/>
    <rect x="277.778"  y="0" height="167.872" width="55.5556" style="fill: #05a485"/>
    <rect x="55.5556"  y="0" height="57.4638" width="55.5556" style="fill: #846248"/>
    <rect x="0"  y="0" height="18.4013" width="55.5556" style="fill: #987550"/>
    <rect x="166.667"  y="0" height="5.35899" width="55.5556" style="fill: #aaf209"/>
    <rect x="388.889"  y="0" height="6.26291" width="55.5556" style="fill: #4ec59e"/>
    <rect x="166.667"  y="0" height="22.6627" width="55.5556" style="fill: #7931dc"/>
    <rect x="388.889"  y="0" height="13.6235" width="55.5556" style="fill: #650c74"/>
    <rect x="222.222"  y="0" height="19.047" width="55.5556" style="fill: #51cc61"/>
    <rect x="0"  y="0" height="12.3321" width="55.5556" style="fill: #c0cb2c"/>
    <rect x="388.889"  y="0" height="24.7934" width="55.5556" style="fill: #46a1b3"/>
    <rect x="166.667"  y="0" height="61.4669" width="55.5556" style="fill: #f2c349"/>
    <rect x="0"  y="0" height="46.6813" width="55.5556" style="fill: #faff76"/>
    <rect x="222.222"  y="0" height="10.5888" width="55.5556" style="fill: #3c7f8d"/>
    <rect x="222.222"  y="0" height="41.516" width="55.5556" style="fill: #14ddff"/>
    <rect x="388.889"  y="0" height="8.52273" width="55.5556" style="fill: #946351"/>
    <rect x="55.5556"  y="0" height="47.9726" width="55.5556" style="fill: #744378"/>
    <rect x="388.889"  y="0" height="7.6188" width="55.5556" style="fill: #d62c59"/>
    <rect x="388.889"  y="0" height="190.147" width="55.5556" style="fill: #285a8d"/>
    <rect x="333.333"  y="0" height="22.9855" width="55.5556" style="fill: #791561"/>
    <rect x="0"  y="0" height="9.36209" width="55.5556" style="fill: #4f5a2a"/>
    <rect x="222.222"  y="0" height="22.4044" width="55.5556" style="fill: #c9e0d6"/>
    <rect x="0"  y="0" height="15.8187" width="55.5556" style="fill: #8aca62"/>
    <rect x="166.667"  y="0" height="42.1617" width="55.5556" style="fill: #48a922"/>
    <rect x="333.333"  y="0" height="45.7774" width="55.5556" style="fill: #7ab8f1"/>
    <rect x="0"  y="0" height="156.508" width="55.5556" style="fill: #930ee3"/>
    <rect x="55.5556"  y="0" height="20.1446" width="55.5556" style="fill: #8ac7a9"/>
    <rect x="222.222"  y="0" height="10.7825" width="55.5556" style="fill: #d239c9"/>
    <rect x="222.222"  y="0" height="48.0372" width="55.5556" style="fill: #b026a4"/>
    <rect x="55.5556"  y="0" height="119.512" width="55.5556" style="fill: #81e49d"/>
    <rect x="166.667"  y="0" height="13.5589" width="55.5556" style="fill: #53161f"/>
    <rect x="333.333"  y="0" height="33.9618" width="55.5556" style="fill: #9a9513"/>
    <rect x="166.667"  y="0" height="51.5883" width="55.5556" style="fill: #fe5271"/>
    <rect x="277.778"  y="0" height="24.1477" width="55.5556" style="fill: #c32e9c"/>
    <rect x="222.222"  y="0" height="45.7774" width="55.5556" style="fill: #21d156"/>
</svg>
</svg>
