<svg  xmlns="http://www.w3.org/2000/svg" xmlns:xlink="http://www.w3.org/1999/xlink" x="0" y="0" width="600" height="600">
<rect x="0%" y="0%" height="100%" width="100%" style="fill: #ffffff"/>
<svg x="0" y="0">
  <text fill="dark" font-size="35" transform="translate(250, 30)">cores</text>
</svg>
<svg x="0" y="0"> 
  <text fill="dark" font-size="35" transform="translate(30, 300) rotate(270)">time</text>
</svg>
<svg x = "50" y="550">
  <text fill="blue" font-size="30" transform="translate(0, 35)">t = 10s, lb = 0.994258</text>
</svg>
<svg x="50" y="50" width="500" height="500" >
  <rect x="0%" y="0%" height="100%" width="100%" style="fill: #eeeeee"/>
    <rect x="0"  y="0" height="42.9228" width="250" style="fill: #e16604"/>
    <rect x="0"  y="0" height="35.2187" width="250" style="fill: #a58921"/>
    <rect x="0"  y="0" height="22.3945" width="250" style="fill: #79064f"/>
    <rect x="0"  y="0" height="32.9697" width="250" style="fill: #fedd3c"/>
    <rect x="0"  y="0" height="26.5576" width="250" style="fill: #e4bd2c"/>
    <rect x="0"  y="0" height="12.5371" width="250" style="fill: #e0d46d"/>
    <rect x="0"  y="0" height="10.3838" width="250" style="fill: #8121a4"/>
    <rect x="0"  y="0" height="18.1357" width="250" style="fill: #22d282"/>
    <rect x="0"  y="0" height="9.23533" width="250" style="fill: #170e43"/>
    <rect x="0"  y="0" height="7.70409" width="250" style="fill: #b276f9"/>
    <rect x="0"  y="0" height="9.8574" width="250" style="fill: #2d9f10"/>
    <rect x="0"  y="0" height="12.3935" width="250" style="fill: #ca1fbb"/>
    <rect x="0"  y="0" height="9.33104" width="250" style="fill: #3dd1f5"/>
    <rect x="0"  y="0" height="8.2783" width="250" style="fill: #30c3f0"/>
    <rect x="0"  y="0" height="6.4121" width="250" style="fill: #7a3e02"/>
    <rect x="0"  y="0" height="7.60838" width="250" style="fill: #830121"/>
    <rect x="0"  y="0" height="6.55565" width="250" style="fill: #1fb2e6"/>
    <rect x="0"  y="0" height="5.07226" width="250" style="fill: #e13b22"/>
    <rect x="0"  y="0" height="5.12011" width="250" style="fill: #153d92"/>
    <rect x="0"  y="0" height="6.45995" width="250" style="fill: #e0c1ec"/>
    <rect x="0"  y="0" height="5.12011" width="250" style="fill: #36f382"/>
    <rect x="0"  y="0" height="4.88085" width="250" style="fill: #5910cf"/>
    <rect x="0"  y="0" height="6.5078" width="250" style="fill: #7a0a53"/>
    <rect x="0"  y="0" height="4.9287" width="250" style="fill: #d68041"/>
    <rect x="0"  y="0" height="7.70409" width="250" style="fill: #221e30"/>
    <rect x="0"  y="0" height="6.98631" width="250" style="fill: #a66aae"/>
    <rect x="0"  y="0" height="4.25878" width="250" style="fill: #cf8df4"/>
    <rect x="0"  y="0" height="3.82812" width="250" style="fill: #c6ec13"/>
    <rect x="0"  y="0" height="5.64647" width="250" style="fill: #fea8ee"/>
    <rect x="0"  y="0" height="4.06737" width="250" style="fill: #900be3"/>
    <rect x="0"  y="0" height="3.78027" width="250" style="fill: #b89123"/>
    <rect x="0"  y="0" height="6.4121" width="250" style="fill: #0e28b2"/>
    <rect x="0"  y="0" height="3.97167" width="250" style="fill: #c78a49"/>
    <rect x="0"  y="0" height="4.64159" width="250" style="fill: #d377b5"/>
    <rect x="0"  y="0" height="3.97167" width="250" style="fill: #555503"/>
    <rect x="0"  y="0" height="4.88085" width="250" style="fill: #8bc2ce"/>
    <rect x="0"  y="0" height="3.3496" width="250" style="fill: #5cd848"/>
    <rect x="0"  y="0" height="2.44042" width="250" style="fill: #a002a4"/>
    <rect x="0"  y="0" height="2.77539" width="250" style="fill: #c873f3"/>
    <rect x="0"  y="0" height="4.68944" width="250" style="fill: #958ea8"/>
    <rect x="0"  y="0" height="3.01464" width="250" style="fill: #233e5f"/>
    <rect x="0"  y="0" height="5.98143" width="250" style="fill: #cac920"/>
    <rect x="0"  y="0" height="4.01952" width="250" style="fill: #2c12fb"/>
    <rect x="0"  y="0" height="3.78027" width="250" style="fill: #6b3de3"/>
    <rect x="0"  y="0" height="3.30175" width="250" style="fill: #078862"/>
    <rect x="0"  y="0" height="5.45507" width="250" style="fill: #08536a"/>
    <rect x="0"  y="0" height="3.01464" width="250" style="fill: #325fc7"/>
    <rect x="0"  y="0" height="2.67968" width="250" style="fill: #fe4003"/>
    <rect x="0"  y="0" height="3.44531" width="250" style="fill: #c6ef3c"/>
    <rect x="0"  y="0" height="2.58398" width="250" style="fill: #244aca"/>
    <rect x="0"  y="0" height="3.54101" width="250" style="fill: #dd2208"/>
    <rect x="0"  y="0" height="1.91406" width="250" style="fill: #d3a226"/>
    <rect x="0"  y="0" height="2.53613" width="250" style="fill: #924d24"/>
    <rect x="0"  y="0" height="2.72753" width="250" style="fill: #0eaeee"/>
    <rect x="0"  y="0" height="2.44042" width="250" style="fill: #b02fbe"/>
    <rect x="0"  y="0" height="2.24902" width="250" style="fill: #98bbac"/>
    <rect x="0"  y="0" height="2.29687" width="250" style="fill: #37fd92"/>
    <rect x="0"  y="0" height="2.44042" width="250" style="fill: #434806"/>
    <rect x="0"  y="0" height="4.01952" width="250" style="fill: #d157f3"/>
    <rect x="0"  y="0" height="1.96191" width="250" style="fill: #5a379e"/>
    <rect x="0"  y="0" height="3.2539" width="250" style="fill: #6261d1"/>
    <rect x="0"  y="0" height="2.24902" width="250" style="fill: #d08de2"/>
    <rect x="0"  y="0" height="2.48828" width="250" style="fill: #f253a5"/>
    <rect x="0"  y="0" height="1.81836" width="250" style="fill: #976ef6"/>
    <rect x="0"  y="0" height="1.62695" width="250" style="fill: #1405ca"/>
    <rect x="0"  y="0" height="3.20605" width="250" style="fill: #32ca3a"/>
    <rect x="0"  y="0" height="1.96191" width="250" style="fill: #b1a3e8"/>
    <rect x="0"  y="0" height="1.6748" width="250" style="fill: #5daa05"/>
    <rect x="0"  y="0" height="1.6748" width="250" style="fill: #09c68b"/>
    <rect x="0"  y="0" height="1.86621" width="250" style="fill: #c90dec"/>
    <rect x="0"  y="0" height="1.6748" width="250" style="fill: #72e3c1"/>
    <rect x="0"  y="0" height="1.24414" width="250" style="fill: #d728a0"/>
    <rect x="0"  y="0" height="2.00976" width="250" style="fill: #00dbad"/>
    <rect x="0"  y="0" height="1.5791" width="250" style="fill: #0a7c1f"/>
    <rect x="0"  y="0" height="1.24414" width="250" style="fill: #8d88a7"/>
    <rect x="0"  y="0" height="0.526366" width="250" style="fill: #419255"/>
    <rect x="0"  y="0" height="1.38769" width="250" style="fill: #32c6a6"/>
    <rect x="0"  y="0" height="1.38769" width="250" style="fill: #6b6461"/>
    <rect x="0"  y="0" height="1.5791" width="250" style="fill: #16b82c"/>
    <rect x="0"  y="0" height="1.14844" width="250" style="fill: #7aa024"/>
    <rect x="0"  y="0" height="0.957029" width="250" style="fill: #76608b"/>
    <rect x="0"  y="0" height="1.19629" width="250" style="fill: #5cd128"/>
    <rect x="0"  y="0" height="0.813475" width="250" style="fill: #783ec9"/>
    <rect x="0"  y="0" height="0.813475" width="250" style="fill: #fefa61"/>
    <rect x="0"  y="0" height="0.478515" width="250" style="fill: #7ec1ee"/>
    <rect x="0"  y="0" height="0.478515" width="250" style="fill: #555b5d"/>
    <rect x="0"  y="0" height="0.526366" width="250" style="fill: #6a94bb"/>
    <rect x="0"  y="0" height="0.669921" width="250" style="fill: #c24f00"/>
    <rect x="0"  y="0" height="0.382812" width="250" style="fill: #8fe7a5"/>
    <rect x="0"  y="0" height="0.33496" width="250" style="fill: #813421"/>
    <rect x="0"  y="0" height="0.239257" width="250" style="fill: #37683b"/>
    <rect x="0"  y="0" height="0.191406" width="250" style="fill: #595fd0"/>
    <rect x="0"  y="0" height="0.191406" width="250" style="fill: #a92e83"/>
    <rect x="0"  y="0" height="0.191406" width="250" style="fill: #f02d7c"/>
    <rect x="0"  y="0" height="0.191406" width="250" style="fill: #20d54f"/>
    <rect x="0"  y="0" height="0.191406" width="250" style="fill: #677cfa"/>
    <rect x="0"  y="0" height="0.0957029" width="250" style="fill: #753c41"/>
    <rect x="0"  y="0" height="0.0957029" width="250" style="fill: #ceafd3"/>
    <rect x="0"  y="0" height="0.0957029" width="250" style="fill: #2c349b"/>
</svg>
</svg>
