<svg  xmlns="http://www.w3.org/2000/svg" xmlns:xlink="http://www.w3.org/1999/xlink" x="0" y="0" width="600" height="600">
<rect x="0%" y="0%" height="100%" width="100%" style="fill: #ffffff"/>
<svg x="0" y="0">
  <text fill="dark" font-size="35" transform="translate(250, 30)">cores</text>
</svg>
<svg x="0" y="0"> 
  <text fill="dark" font-size="35" transform="translate(30, 300) rotate(270)">time</text>
</svg>
<svg x = "50" y="550">
  <text fill="blue" font-size="30" transform="translate(0, 35)">t = 13s, lb = 0.615226</text>
</svg>
<svg x="50" y="50" width="500" height="500" >
  <rect x="0%" y="0%" height="100%" width="100%" style="fill: #eeeeee"/>
    <rect x="0"  y="0" height="9.56776" width="55.5556" style="fill: #76931f"/>
    <rect x="222.222"  y="0" height="17.8598" width="55.5556" style="fill: #ac9dab"/>
    <rect x="111.111"  y="0" height="23.4504" width="55.5556" style="fill: #2b36c2"/>
    <rect x="55.5556"  y="0" height="15.7587" width="55.5556" style="fill: #48b87d"/>
    <rect x="333.333"  y="0" height="24.3884" width="55.5556" style="fill: #6ae33f"/>
    <rect x="277.778"  y="0" height="9.68032" width="55.5556" style="fill: #9a62d7"/>
    <rect x="166.667"  y="0" height="21.6494" width="55.5556" style="fill: #183a5d"/>
    <rect x="388.889"  y="0" height="10.4683" width="55.5556" style="fill: #5789e4"/>
    <rect x="0"  y="0" height="3.2643" width="55.5556" style="fill: #b2d6b4"/>
    <rect x="277.778"  y="0" height="44.9497" width="55.5556" style="fill: #41e241"/>
    <rect x="388.889"  y="0" height="26.3395" width="55.5556" style="fill: #1dc709"/>
    <rect x="0"  y="0" height="9.90545" width="55.5556" style="fill: #e111c7"/>
    <rect x="55.5556"  y="0" height="26.7897" width="55.5556" style="fill: #e1e7ac"/>
    <rect x="222.222"  y="0" height="3.71454" width="55.5556" style="fill: #b6f8ca"/>
    <rect x="222.222"  y="0" height="13.7326" width="55.5556" style="fill: #c0bb2f"/>
    <rect x="166.667"  y="0" height="478.276" width="55.5556" style="fill: #c4c8bc"/>
    <rect x="0"  y="0" height="10.3557" width="55.5556" style="fill: #2ae3ba"/>
    <rect x="111.111"  y="0" height="10.3182" width="55.5556" style="fill: #aab916"/>
    <rect x="333.333"  y="0" height="11.7064" width="55.5556" style="fill: #5cc458"/>
    <rect x="0"  y="0" height="17.7848" width="55.5556" style="fill: #e199cb"/>
    <rect x="111.111"  y="0" height="3.33934" width="55.5556" style="fill: #89f51b"/>
    <rect x="222.222"  y="0" height="18.0099" width="55.5556" style="fill: #135f70"/>
    <rect x="333.333"  y="0" height="4.76512" width="55.5556" style="fill: #91a5ab"/>
    <rect x="388.889"  y="0" height="37.333" width="55.5556" style="fill: #b0874d"/>
    <rect x="111.111"  y="0" height="45.7001" width="55.5556" style="fill: #f3e8cb"/>
    <rect x="333.333"  y="0" height="14.558" width="55.5556" style="fill: #4543a5"/>
    <rect x="55.5556"  y="0" height="14.2203" width="55.5556" style="fill: #eb93b0"/>
    <rect x="0"  y="0" height="81.1571" width="55.5556" style="fill: #441e9c"/>
    <rect x="222.222"  y="0" height="9.49272" width="55.5556" style="fill: #a4c2b0"/>
    <rect x="277.778"  y="0" height="13.3573" width="55.5556" style="fill: #fb3d30"/>
    <rect x="333.333"  y="0" height="3.03917" width="55.5556" style="fill: #875cbf"/>
    <rect x="55.5556"  y="0" height="5.06529" width="55.5556" style="fill: #29abd5"/>
    <rect x="333.333"  y="0" height="8.47966" width="55.5556" style="fill: #b1acf3"/>
    <rect x="55.5556"  y="0" height="10.9185" width="55.5556" style="fill: #8984b3"/>
    <rect x="222.222"  y="0" height="4.54" width="55.5556" style="fill: #5ae882"/>
    <rect x="333.333"  y="0" height="14.9707" width="55.5556" style="fill: #809dd4"/>
    <rect x="222.222"  y="0" height="21.8745" width="55.5556" style="fill: #cfe7ab"/>
    <rect x="277.778"  y="0" height="7.12892" width="55.5556" style="fill: #c5c61b"/>
    <rect x="55.5556"  y="0" height="4.95272" width="55.5556" style="fill: #aa52e0"/>
    <rect x="388.889"  y="0" height="4.27735" width="55.5556" style="fill: #53b4c3"/>
    <rect x="277.778"  y="0" height="15.6461" width="55.5556" style="fill: #643f20"/>
    <rect x="55.5556"  y="0" height="12.1567" width="55.5556" style="fill: #4ef259"/>
    <rect x="388.889"  y="0" height="37.4831" width="55.5556" style="fill: #d2e980"/>
    <rect x="333.333"  y="0" height="5.44049" width="55.5556" style="fill: #42a948"/>
    <rect x="111.111"  y="0" height="23.9006" width="55.5556" style="fill: #aac5e8"/>
    <rect x="333.333"  y="0" height="77.1799" width="55.5556" style="fill: #84cb3e"/>
    <rect x="222.222"  y="0" height="199.272" width="55.5556" style="fill: #c7db92"/>
    <rect x="55.5556"  y="0" height="13.8451" width="55.5556" style="fill: #5643fd"/>
    <rect x="277.778"  y="0" height="3.18925" width="55.5556" style="fill: #34fdd4"/>
    <rect x="277.778"  y="0" height="21.9121" width="55.5556" style="fill: #67e2cc"/>
    <rect x="55.5556"  y="0" height="17.7848" width="55.5556" style="fill: #a40603"/>
    <rect x="111.111"  y="0" height="9.94297" width="55.5556" style="fill: #5cb274"/>
    <rect x="388.889"  y="0" height="41.7605" width="55.5556" style="fill: #4cb90a"/>
    <rect x="277.778"  y="0" height="3.4519" width="55.5556" style="fill: #63e51c"/>
    <rect x="111.111"  y="0" height="3.86463" width="55.5556" style="fill: #973790"/>
    <rect x="277.778"  y="0" height="13.9202" width="55.5556" style="fill: #334394"/>
    <rect x="111.111"  y="0" height="10.8059" width="55.5556" style="fill: #7e0208"/>
    <rect x="55.5556"  y="0" height="8.21702" width="55.5556" style="fill: #6541e4"/>
    <rect x="55.5556"  y="0" height="17.297" width="55.5556" style="fill: #c48a99"/>
    <rect x="111.111"  y="0" height="10.4307" width="55.5556" style="fill: #630aa9"/>
    <rect x="0"  y="0" height="98.3791" width="55.5556" style="fill: #aece15"/>
    <rect x="277.778"  y="0" height="20.1861" width="55.5556" style="fill: #3843a4"/>
    <rect x="111.111"  y="0" height="3.07669" width="55.5556" style="fill: #b19027"/>
    <rect x="111.111"  y="0" height="7.54165" width="55.5556" style="fill: #4ebc95"/>
    <rect x="55.5556"  y="0" height="13.7326" width="55.5556" style="fill: #5f8592"/>
    <rect x="111.111"  y="0" height="10.6183" width="55.5556" style="fill: #e30a22"/>
    <rect x="277.778"  y="0" height="33.3183" width="55.5556" style="fill: #05a485"/>
    <rect x="388.889"  y="0" height="3.6395" width="55.5556" style="fill: #846248"/>
    <rect x="55.5556"  y="0" height="13.9952" width="55.5556" style="fill: #987550"/>
    <rect x="388.889"  y="0" height="12.6445" width="55.5556" style="fill: #aaf209"/>
    <rect x="111.111"  y="0" height="57.219" width="55.5556" style="fill: #4ec59e"/>
    <rect x="333.333"  y="0" height="10.3557" width="55.5556" style="fill: #7931dc"/>
    <rect x="388.889"  y="0" height="16.7342" width="55.5556" style="fill: #650c74"/>
    <rect x="55.5556"  y="0" height="24.8387" width="55.5556" style="fill: #51cc61"/>
    <rect x="333.333"  y="0" height="77.2925" width="55.5556" style="fill: #c0cb2c"/>
    <rect x="277.778"  y="0" height="15.8337" width="55.5556" style="fill: #46a1b3"/>
    <rect x="388.889"  y="0" height="13.6575" width="55.5556" style="fill: #f2c349"/>
    <rect x="55.5556"  y="0" height="12.8321" width="55.5556" style="fill: #faff76"/>
    <rect x="277.778"  y="0" height="19.2856" width="55.5556" style="fill: #3c7f8d"/>
    <rect x="388.889"  y="0" height="7.80429" width="55.5556" style="fill: #14ddff"/>
    <rect x="388.889"  y="0" height="6.82876" width="55.5556" style="fill: #946351"/>
    <rect x="55.5556"  y="0" height="17.8223" width="55.5556" style="fill: #744378"/>
    <rect x="388.889"  y="0" height="30.5418" width="55.5556" style="fill: #d62c59"/>
    <rect x="111.111"  y="0" height="14.8957" width="55.5556" style="fill: #285a8d"/>
    <rect x="277.778"  y="0" height="10.6183" width="55.5556" style="fill: #791561"/>
    <rect x="0"  y="0" height="21.4993" width="55.5556" style="fill: #4f5a2a"/>
    <rect x="55.5556"  y="0" height="17.5597" width="55.5556" style="fill: #c9e0d6"/>
    <rect x="277.778"  y="0" height="27.8778" width="55.5556" style="fill: #8aca62"/>
    <rect x="111.111"  y="0" height="3.00165" width="55.5556" style="fill: #48a922"/>
    <rect x="111.111"  y="0" height="30.5793" width="55.5556" style="fill: #7ab8f1"/>
    <rect x="55.5556"  y="0" height="8.47966" width="55.5556" style="fill: #930ee3"/>
    <rect x="388.889"  y="0" height="10.5058" width="55.5556" style="fill: #8ac7a9"/>
    <rect x="0"  y="0" height="26.377" width="55.5556" style="fill: #d239c9"/>
    <rect x="333.333"  y="0" height="8.44214" width="55.5556" style="fill: #b026a4"/>
    <rect x="55.5556"  y="0" height="24.5385" width="55.5556" style="fill: #81e49d"/>
    <rect x="388.889"  y="0" height="13.6575" width="55.5556" style="fill: #53161f"/>
    <rect x="277.778"  y="0" height="18.6853" width="55.5556" style="fill: #9a9513"/>
    <rect x="333.333"  y="0" height="8.66727" width="55.5556" style="fill: #fe5271"/>
    <rect x="111.111"  y="0" height="11.6314" width="55.5556" style="fill: #c32e9c"/>
    <rect x="333.333"  y="0" height="11.0686" width="55.5556" style="fill: #21d156"/>
</svg>
</svg>
