<svg  xmlns="http://www.w3.org/2000/svg" xmlns:xlink="http://www.w3.org/1999/xlink" x="0" y="0" width="600" height="600">
<rect x="0%" y="0%" height="100%" width="100%" style="fill: #ffffff"/>
<svg x="0" y="0">
  <text fill="dark" font-size="35" transform="translate(250, 30)">cores</text>
</svg>
<svg x="0" y="0"> 
  <text fill="dark" font-size="35" transform="translate(30, 300) rotate(270)">time</text>
</svg>
<svg x = "50" y="550">
  <text fill="blue" font-size="30" transform="translate(0, 35)">t = 10s, lb = 0.783876</text>
</svg>
<svg x="50" y="50" width="500" height="500" >
  <rect x="0%" y="0%" height="100%" width="100%" style="fill: #eeeeee"/>
    <rect x="0"  y="0" height="17.4367" width="55.5556" style="fill: #76931f"/>
    <rect x="222.222"  y="0" height="8.07802" width="55.5556" style="fill: #ac9dab"/>
    <rect x="111.111"  y="0" height="26.0565" width="55.5556" style="fill: #2b36c2"/>
    <rect x="55.5556"  y="0" height="19.8995" width="55.5556" style="fill: #48b87d"/>
    <rect x="333.333"  y="0" height="5.76298" width="55.5556" style="fill: #6ae33f"/>
    <rect x="277.778"  y="0" height="11.4767" width="55.5556" style="fill: #9a62d7"/>
    <rect x="166.667"  y="0" height="17.0427" width="55.5556" style="fill: #183a5d"/>
    <rect x="388.889"  y="0" height="21.5742" width="55.5556" style="fill: #5789e4"/>
    <rect x="333.333"  y="0" height="29.9478" width="55.5556" style="fill: #b2d6b4"/>
    <rect x="222.222"  y="0" height="29.5537" width="55.5556" style="fill: #41e241"/>
    <rect x="277.778"  y="0" height="23.4952" width="55.5556" style="fill: #1dc709"/>
    <rect x="166.667"  y="0" height="4.03901" width="55.5556" style="fill: #e111c7"/>
    <rect x="0"  y="0" height="17.9785" width="55.5556" style="fill: #e1e7ac"/>
    <rect x="55.5556"  y="0" height="98.1677" width="55.5556" style="fill: #b6f8ca"/>
    <rect x="166.667"  y="0" height="54.5759" width="55.5556" style="fill: #c0bb2f"/>
    <rect x="388.889"  y="0" height="5.27042" width="55.5556" style="fill: #c4c8bc"/>
    <rect x="111.111"  y="0" height="66.89" width="55.5556" style="fill: #2ae3ba"/>
    <rect x="388.889"  y="0" height="18.7666" width="55.5556" style="fill: #aab916"/>
    <rect x="277.778"  y="0" height="11.0334" width="55.5556" style="fill: #5cc458"/>
    <rect x="0"  y="0" height="464.536" width="55.5556" style="fill: #e199cb"/>
    <rect x="333.333"  y="0" height="8.37356" width="55.5556" style="fill: #89f51b"/>
    <rect x="222.222"  y="0" height="4.28529" width="55.5556" style="fill: #135f70"/>
    <rect x="222.222"  y="0" height="86.691" width="55.5556" style="fill: #91a5ab"/>
    <rect x="333.333"  y="0" height="30.0463" width="55.5556" style="fill: #b0874d"/>
    <rect x="388.889"  y="0" height="13.4962" width="55.5556" style="fill: #f3e8cb"/>
    <rect x="277.778"  y="0" height="18.6189" width="55.5556" style="fill: #4543a5"/>
    <rect x="388.889"  y="0" height="67.1362" width="55.5556" style="fill: #eb93b0"/>
    <rect x="277.778"  y="0" height="28.9627" width="55.5556" style="fill: #441e9c"/>
    <rect x="333.333"  y="0" height="8.3243" width="55.5556" style="fill: #a4c2b0"/>
    <rect x="166.667"  y="0" height="131.859" width="55.5556" style="fill: #fb3d30"/>
    <rect x="333.333"  y="0" height="39.6513" width="55.5556" style="fill: #875cbf"/>
    <rect x="111.111"  y="0" height="3.98975" width="55.5556" style="fill: #29abd5"/>
    <rect x="277.778"  y="0" height="34.7749" width="55.5556" style="fill: #b1acf3"/>
    <rect x="111.111"  y="0" height="26.2043" width="55.5556" style="fill: #8984b3"/>
    <rect x="55.5556"  y="0" height="20.2443" width="55.5556" style="fill: #5ae882"/>
    <rect x="333.333"  y="0" height="11.6245" width="55.5556" style="fill: #809dd4"/>
    <rect x="111.111"  y="0" height="34.4301" width="55.5556" style="fill: #cfe7ab"/>
    <rect x="388.889"  y="0" height="4.97488" width="55.5556" style="fill: #c5c61b"/>
    <rect x="277.778"  y="0" height="37.484" width="55.5556" style="fill: #aa52e0"/>
    <rect x="222.222"  y="0" height="152.251" width="55.5556" style="fill: #53b4c3"/>
    <rect x="388.889"  y="0" height="19.801" width="55.5556" style="fill: #643f20"/>
    <rect x="333.333"  y="0" height="6.20629" width="55.5556" style="fill: #4ef259"/>
    <rect x="55.5556"  y="0" height="12.5111" width="55.5556" style="fill: #d2e980"/>
    <rect x="333.333"  y="0" height="6.3048" width="55.5556" style="fill: #42a948"/>
    <rect x="333.333"  y="0" height="9.30943" width="55.5556" style="fill: #aac5e8"/>
    <rect x="55.5556"  y="0" height="24.9237" width="55.5556" style="fill: #84cb3e"/>
    <rect x="388.889"  y="0" height="5.46744" width="55.5556" style="fill: #c7db92"/>
    <rect x="333.333"  y="0" height="7.38843" width="55.5556" style="fill: #5643fd"/>
    <rect x="388.889"  y="0" height="17.3382" width="55.5556" style="fill: #34fdd4"/>
    <rect x="111.111"  y="0" height="68.5647" width="55.5556" style="fill: #67e2cc"/>
    <rect x="333.333"  y="0" height="20.0965" width="55.5556" style="fill: #a40603"/>
    <rect x="277.778"  y="0" height="10.4916" width="55.5556" style="fill: #5cb274"/>
    <rect x="388.889"  y="0" height="35.0704" width="55.5556" style="fill: #4cb90a"/>
    <rect x="55.5556"  y="0" height="180.229" width="55.5556" style="fill: #63e51c"/>
    <rect x="277.778"  y="0" height="10.5901" width="55.5556" style="fill: #973790"/>
    <rect x="333.333"  y="0" height="23.0519" width="55.5556" style="fill: #334394"/>
    <rect x="277.778"  y="0" height="19.9488" width="55.5556" style="fill: #7e0208"/>
    <rect x="333.333"  y="0" height="16.6486" width="55.5556" style="fill: #6541e4"/>
    <rect x="277.778"  y="0" height="6.55108" width="55.5556" style="fill: #c48a99"/>
    <rect x="166.667"  y="0" height="22.7564" width="55.5556" style="fill: #630aa9"/>
    <rect x="388.889"  y="0" height="15.9098" width="55.5556" style="fill: #aece15"/>
    <rect x="277.778"  y="0" height="4.13752" width="55.5556" style="fill: #3843a4"/>
    <rect x="277.778"  y="0" height="30.5389" width="55.5556" style="fill: #b19027"/>
    <rect x="333.333"  y="0" height="58.1224" width="55.5556" style="fill: #4ebc95"/>
    <rect x="388.889"  y="0" height="66.9392" width="55.5556" style="fill: #5f8592"/>
    <rect x="111.111"  y="0" height="4.58083" width="55.5556" style="fill: #e30a22"/>
    <rect x="166.667"  y="0" height="7.63472" width="55.5556" style="fill: #05a485"/>
    <rect x="111.111"  y="0" height="33.445" width="55.5556" style="fill: #846248"/>
    <rect x="166.667"  y="0" height="29.6523" width="55.5556" style="fill: #987550"/>
    <rect x="277.778"  y="0" height="11.0334" width="55.5556" style="fill: #aaf209"/>
    <rect x="277.778"  y="0" height="5.81224" width="55.5556" style="fill: #4ec59e"/>
    <rect x="111.111"  y="0" height="12.4126" width="55.5556" style="fill: #7931dc"/>
    <rect x="277.778"  y="0" height="4.28529" width="55.5556" style="fill: #650c74"/>
    <rect x="166.667"  y="0" height="32.2136" width="55.5556" style="fill: #51cc61"/>
    <rect x="277.778"  y="0" height="24.9237" width="55.5556" style="fill: #c0cb2c"/>
    <rect x="111.111"  y="0" height="16.2546" width="55.5556" style="fill: #46a1b3"/>
    <rect x="222.222"  y="0" height="4.92562" width="55.5556" style="fill: #f2c349"/>
    <rect x="333.333"  y="0" height="4.3838" width="55.5556" style="fill: #faff76"/>
    <rect x="333.333"  y="0" height="30.8837" width="55.5556" style="fill: #3c7f8d"/>
    <rect x="222.222"  y="0" height="5.71372" width="55.5556" style="fill: #14ddff"/>
    <rect x="222.222"  y="0" height="18.9636" width="55.5556" style="fill: #946351"/>
    <rect x="388.889"  y="0" height="23.5445" width="55.5556" style="fill: #744378"/>
    <rect x="111.111"  y="0" height="3.9405" width="55.5556" style="fill: #d62c59"/>
    <rect x="277.778"  y="0" height="11.3289" width="55.5556" style="fill: #285a8d"/>
    <rect x="111.111"  y="0" height="7.28992" width="55.5556" style="fill: #791561"/>
    <rect x="166.667"  y="0" height="15.6142" width="55.5556" style="fill: #4f5a2a"/>
    <rect x="111.111"  y="0" height="118.757" width="55.5556" style="fill: #c9e0d6"/>
    <rect x="277.778"  y="0" height="14.4321" width="55.5556" style="fill: #8aca62"/>
    <rect x="222.222"  y="0" height="31.2285" width="55.5556" style="fill: #48a922"/>
    <rect x="166.667"  y="0" height="6.79736" width="55.5556" style="fill: #7ab8f1"/>
    <rect x="388.889"  y="0" height="32.1643" width="55.5556" style="fill: #930ee3"/>
    <rect x="333.333"  y="0" height="22.9534" width="55.5556" style="fill: #8ac7a9"/>
    <rect x="277.778"  y="0" height="20.0473" width="55.5556" style="fill: #d239c9"/>
    <rect x="166.667"  y="0" height="6.45257" width="55.5556" style="fill: #b026a4"/>
    <rect x="166.667"  y="0" height="68.2691" width="55.5556" style="fill: #81e49d"/>
    <rect x="333.333"  y="0" height="27.5835" width="55.5556" style="fill: #53161f"/>
    <rect x="277.778"  y="0" height="5.66447" width="55.5556" style="fill: #9a9513"/>
    <rect x="222.222"  y="0" height="16.9934" width="55.5556" style="fill: #fe5271"/>
    <rect x="277.778"  y="0" height="21.919" width="55.5556" style="fill: #c32e9c"/>
    <rect x="388.889"  y="0" height="19.5055" width="55.5556" style="fill: #21d156"/>
</svg>
</svg>
