<svg  xmlns="http://www.w3.org/2000/svg" xmlns:xlink="http://www.w3.org/1999/xlink" x="0" y="0" width="600" height="600">
<rect x="0%" y="0%" height="100%" width="100%" style="fill: #ffffff"/>
<svg x="0" y="0">
  <text fill="dark" font-size="35" transform="translate(250, 30)">cores</text>
</svg>
<svg x="0" y="0"> 
  <text fill="dark" font-size="35" transform="translate(30, 300) rotate(270)">time</text>
</svg>
<svg x = "50" y="550">
  <text fill="blue" font-size="30" transform="translate(0, 35)">t = 5s, lb = 0.988971</text>
</svg>
<svg x="50" y="50" width="500" height="500" >
  <rect x="0%" y="0%" height="100%" width="100%" style="fill: #eeeeee"/>
    <rect x="0"  y="0" height="27.5735" width="250" style="fill: #21d156"/>
    <rect x="0"  y="0" height="59.4669" width="250" style="fill: #eb9f1b"/>
    <rect x="0"  y="0" height="50.6434" width="250" style="fill: #ea57f6"/>
    <rect x="0"  y="0" height="17.1875" width="250" style="fill: #ae4f1b"/>
    <rect x="0"  y="0" height="7.90441" width="250" style="fill: #1de3b7"/>
    <rect x="0"  y="0" height="16.3603" width="250" style="fill: #fd9cee"/>
    <rect x="0"  y="0" height="15.2574" width="250" style="fill: #2d9cca"/>
    <rect x="0"  y="0" height="10.4779" width="250" style="fill: #7b4c24"/>
    <rect x="0"  y="0" height="7.53676" width="250" style="fill: #2d26c3"/>
    <rect x="0"  y="0" height="12.7757" width="250" style="fill: #1d000b"/>
    <rect x="0"  y="0" height="4.31985" width="250" style="fill: #7f90b7"/>
    <rect x="0"  y="0" height="3.76838" width="250" style="fill: #fe48a1"/>
    <rect x="0"  y="0" height="14.0625" width="250" style="fill: #31c7de"/>
    <rect x="0"  y="0" height="9.92647" width="250" style="fill: #bfbe58"/>
    <rect x="0"  y="0" height="11.3051" width="250" style="fill: #165266"/>
    <rect x="0"  y="0" height="5.33088" width="250" style="fill: #de56e1"/>
    <rect x="0"  y="0" height="7.90441" width="250" style="fill: #edf269"/>
    <rect x="0"  y="0" height="5.05515" width="250" style="fill: #39af07"/>
    <rect x="0"  y="0" height="4.22794" width="250" style="fill: #ec69ab"/>
    <rect x="0"  y="0" height="4.77941" width="250" style="fill: #1b17d8"/>
    <rect x="0"  y="0" height="8.36397" width="250" style="fill: #db6214"/>
    <rect x="0"  y="0" height="5.88235" width="250" style="fill: #3f2228"/>
    <rect x="0"  y="0" height="4.59559" width="250" style="fill: #b51551"/>
    <rect x="0"  y="0" height="4.22794" width="250" style="fill: #c3d2c7"/>
    <rect x="0"  y="0" height="4.87132" width="250" style="fill: #de3f50"/>
    <rect x="0"  y="0" height="9.55882" width="250" style="fill: #72bd4d"/>
    <rect x="0"  y="0" height="10.7537" width="250" style="fill: #18c3ae"/>
    <rect x="0"  y="0" height="3.30882" width="250" style="fill: #b64cb9"/>
    <rect x="0"  y="0" height="4.13603" width="250" style="fill: #e8cba8"/>
    <rect x="0"  y="0" height="5.23897" width="250" style="fill: #38667b"/>
    <rect x="0"  y="0" height="3.58456" width="250" style="fill: #6ed2b2"/>
    <rect x="0"  y="0" height="4.31985" width="250" style="fill: #fcab04"/>
    <rect x="0"  y="0" height="4.59559" width="250" style="fill: #abae86"/>
    <rect x="0"  y="0" height="4.04412" width="250" style="fill: #76e318"/>
    <rect x="0"  y="0" height="4.87132" width="250" style="fill: #b402a7"/>
    <rect x="0"  y="0" height="3.76838" width="250" style="fill: #d15b30"/>
    <rect x="0"  y="0" height="2.94118" width="250" style="fill: #d2d7dd"/>
    <rect x="0"  y="0" height="2.02206" width="250" style="fill: #b78650"/>
    <rect x="0"  y="0" height="3.76838" width="250" style="fill: #cc6af8"/>
    <rect x="0"  y="0" height="3.76838" width="250" style="fill: #2bc3d7"/>
    <rect x="0"  y="0" height="2.48162" width="250" style="fill: #aa805b"/>
    <rect x="0"  y="0" height="3.86029" width="250" style="fill: #02dd9a"/>
    <rect x="0"  y="0" height="2.94118" width="250" style="fill: #a523b7"/>
    <rect x="0"  y="0" height="3.30882" width="250" style="fill: #374a13"/>
    <rect x="0"  y="0" height="2.29779" width="250" style="fill: #23ee6b"/>
    <rect x="0"  y="0" height="4.77941" width="250" style="fill: #516d1b"/>
    <rect x="0"  y="0" height="2.29779" width="250" style="fill: #81e5f7"/>
    <rect x="0"  y="0" height="2.20588" width="250" style="fill: #09c2c7"/>
    <rect x="0"  y="0" height="1.83824" width="250" style="fill: #90edaf"/>
    <rect x="0"  y="0" height="2.38971" width="250" style="fill: #1c3fa9"/>
    <rect x="0"  y="0" height="1.74632" width="250" style="fill: #b0a1db"/>
    <rect x="0"  y="0" height="4.31985" width="250" style="fill: #c6dabc"/>
    <rect x="0"  y="0" height="2.20588" width="250" style="fill: #2b5ed2"/>
    <rect x="0"  y="0" height="2.48162" width="250" style="fill: #67244c"/>
    <rect x="0"  y="0" height="2.84926" width="250" style="fill: #458752"/>
    <rect x="0"  y="0" height="2.11397" width="250" style="fill: #002b10"/>
    <rect x="0"  y="0" height="2.38971" width="250" style="fill: #6d6381"/>
    <rect x="0"  y="0" height="3.21691" width="250" style="fill: #fad58a"/>
    <rect x="0"  y="0" height="2.75735" width="250" style="fill: #7e1936"/>
    <rect x="0"  y="0" height="1.65441" width="250" style="fill: #57bde0"/>
    <rect x="0"  y="0" height="1.28676" width="250" style="fill: #fe0291"/>
    <rect x="0"  y="0" height="2.48162" width="250" style="fill: #20f837"/>
    <rect x="0"  y="0" height="1.74632" width="250" style="fill: #931689"/>
    <rect x="0"  y="0" height="1.01103" width="250" style="fill: #1f828b"/>
    <rect x="0"  y="0" height="1.01103" width="250" style="fill: #8d24a0"/>
    <rect x="0"  y="0" height="4.04412" width="250" style="fill: #49e5b8"/>
    <rect x="0"  y="0" height="1.93015" width="250" style="fill: #6d855b"/>
    <rect x="0"  y="0" height="1.28676" width="250" style="fill: #cfed56"/>
    <rect x="0"  y="0" height="2.75735" width="250" style="fill: #765f9d"/>
    <rect x="0"  y="0" height="1.10294" width="250" style="fill: #a1ac54"/>
    <rect x="0"  y="0" height="2.11397" width="250" style="fill: #caeaf9"/>
    <rect x="0"  y="0" height="0.827206" width="250" style="fill: #257abc"/>
    <rect x="0"  y="0" height="1.83824" width="250" style="fill: #67b451"/>
    <rect x="0"  y="0" height="1.5625" width="250" style="fill: #bc70b0"/>
    <rect x="0"  y="0" height="1.37868" width="250" style="fill: #e52817"/>
    <rect x="0"  y="0" height="0.643382" width="250" style="fill: #dd1b70"/>
    <rect x="0"  y="0" height="1.37868" width="250" style="fill: #4a6b41"/>
    <rect x="0"  y="0" height="1.47059" width="250" style="fill: #8a83fd"/>
    <rect x="0"  y="0" height="2.57353" width="250" style="fill: #4a9ca4"/>
    <rect x="0"  y="0" height="1.28676" width="250" style="fill: #c89e1a"/>
    <rect x="0"  y="0" height="2.20588" width="250" style="fill: #6e779f"/>
    <rect x="0"  y="0" height="1.74632" width="250" style="fill: #8d9e9d"/>
    <rect x="0"  y="0" height="1.01103" width="250" style="fill: #f18747"/>
    <rect x="0"  y="0" height="0.643382" width="250" style="fill: #591e5b"/>
    <rect x="0"  y="0" height="0.643382" width="250" style="fill: #314c05"/>
    <rect x="0"  y="0" height="0.551471" width="250" style="fill: #763edc"/>
    <rect x="0"  y="0" height="0.735294" width="250" style="fill: #d59632"/>
    <rect x="0"  y="0" height="0.551471" width="250" style="fill: #423ca8"/>
    <rect x="0"  y="0" height="0.643382" width="250" style="fill: #3f14d6"/>
    <rect x="0"  y="0" height="0.459559" width="250" style="fill: #f073d7"/>
    <rect x="0"  y="0" height="0.459559" width="250" style="fill: #84db2b"/>
    <rect x="0"  y="0" height="0.367647" width="250" style="fill: #700164"/>
    <rect x="0"  y="0" height="0.367647" width="250" style="fill: #3a6760"/>
    <rect x="0"  y="0" height="0.367647" width="250" style="fill: #f9f0dd"/>
    <rect x="0"  y="0" height="0.367647" width="250" style="fill: #6ddd0a"/>
    <rect x="0"  y="0" height="0.367647" width="250" style="fill: #59e241"/>
    <rect x="0"  y="0" height="0.275735" width="250" style="fill: #dc1ed7"/>
    <rect x="0"  y="0" height="0.183824" width="250" style="fill: #202878"/>
    <rect x="0"  y="0" height="0.183824" width="250" style="fill: #96286f"/>
</svg>
</svg>
