<svg  xmlns="http://www.w3.org/2000/svg" xmlns:xlink="http://www.w3.org/1999/xlink" x="0" y="0" width="600" height="600">
<rect x="0%" y="0%" height="100%" width="100%" style="fill: #ffffff"/>
<svg x="0" y="0">
  <text fill="dark" font-size="35" transform="translate(250, 30)">cores</text>
</svg>
<svg x="0" y="0"> 
  <text fill="dark" font-size="35" transform="translate(30, 300) rotate(270)">time</text>
</svg>
<svg x = "50" y="550">
  <text fill="blue" font-size="30" transform="translate(0, 35)">t = 4s, lb = 0.458709</text>
</svg>
<svg x="50" y="50" width="500" height="500" >
  <rect x="0%" y="0%" height="100%" width="100%" style="fill: #eeeeee"/>
    <rect x="0"  y="0" height="11.6401" width="55.5556" style="fill: #76931f"/>
    <rect x="222.222"  y="0" height="499.895" width="55.5556" style="fill: #ac9dab"/>
    <rect x="111.111"  y="0" height="26.9505" width="55.5556" style="fill: #2b36c2"/>
    <rect x="55.5556"  y="0" height="1.78272" width="55.5556" style="fill: #48b87d"/>
    <rect x="333.333"  y="0" height="6.71141" width="55.5556" style="fill: #6ae33f"/>
    <rect x="277.778"  y="0" height="3.88003" width="55.5556" style="fill: #9a62d7"/>
    <rect x="166.667"  y="0" height="6.60654" width="55.5556" style="fill: #183a5d"/>
    <rect x="388.889"  y="0" height="0.943792" width="55.5556" style="fill: #5789e4"/>
    <rect x="388.889"  y="0" height="0.524329" width="55.5556" style="fill: #b2d6b4"/>
    <rect x="388.889"  y="0" height="11.4304" width="55.5556" style="fill: #41e241"/>
    <rect x="55.5556"  y="0" height="3.04111" width="55.5556" style="fill: #1dc709"/>
    <rect x="277.778"  y="0" height="1.04866" width="55.5556" style="fill: #e111c7"/>
    <rect x="55.5556"  y="0" height="2.41191" width="55.5556" style="fill: #e1e7ac"/>
    <rect x="277.778"  y="0" height="0.943792" width="55.5556" style="fill: #b6f8ca"/>
    <rect x="277.778"  y="0" height="4.2995" width="55.5556" style="fill: #c0bb2f"/>
    <rect x="166.667"  y="0" height="0.838926" width="55.5556" style="fill: #c4c8bc"/>
    <rect x="333.333"  y="0" height="4.50923" width="55.5556" style="fill: #2ae3ba"/>
    <rect x="55.5556"  y="0" height="174.182" width="55.5556" style="fill: #aab916"/>
    <rect x="166.667"  y="0" height="5.24329" width="55.5556" style="fill: #5cc458"/>
    <rect x="277.778"  y="0" height="2.20218" width="55.5556" style="fill: #e199cb"/>
    <rect x="333.333"  y="0" height="4.71896" width="55.5556" style="fill: #89f51b"/>
    <rect x="0"  y="0" height="5.13842" width="55.5556" style="fill: #135f70"/>
    <rect x="277.778"  y="0" height="0.524329" width="55.5556" style="fill: #91a5ab"/>
    <rect x="166.667"  y="0" height="9.33305" width="55.5556" style="fill: #b0874d"/>
    <rect x="388.889"  y="0" height="39.5344" width="55.5556" style="fill: #f3e8cb"/>
    <rect x="277.778"  y="0" height="0.524329" width="55.5556" style="fill: #4543a5"/>
    <rect x="277.778"  y="0" height="3.25084" width="55.5556" style="fill: #eb93b0"/>
    <rect x="333.333"  y="0" height="6.81628" width="55.5556" style="fill: #441e9c"/>
    <rect x="0"  y="0" height="11.9547" width="55.5556" style="fill: #a4c2b0"/>
    <rect x="277.778"  y="0" height="0.419463" width="55.5556" style="fill: #fb3d30"/>
    <rect x="277.778"  y="0" height="4.08977" width="55.5556" style="fill: #875cbf"/>
    <rect x="277.778"  y="0" height="2.51678" width="55.5556" style="fill: #29abd5"/>
    <rect x="166.667"  y="0" height="3.46057" width="55.5556" style="fill: #b1acf3"/>
    <rect x="333.333"  y="0" height="4.2995" width="55.5556" style="fill: #8984b3"/>
    <rect x="277.778"  y="0" height="0.209732" width="55.5556" style="fill: #5ae882"/>
    <rect x="277.778"  y="0" height="0.524329" width="55.5556" style="fill: #809dd4"/>
    <rect x="277.778"  y="0" height="5.03356" width="55.5556" style="fill: #cfe7ab"/>
    <rect x="166.667"  y="0" height="2.09732" width="55.5556" style="fill: #c5c61b"/>
    <rect x="111.111"  y="0" height="2.93624" width="55.5556" style="fill: #aa52e0"/>
    <rect x="333.333"  y="0" height="5.34815" width="55.5556" style="fill: #53b4c3"/>
    <rect x="166.667"  y="0" height="0.209732" width="55.5556" style="fill: #643f20"/>
    <rect x="166.667"  y="0" height="15.1007" width="55.5556" style="fill: #4ef259"/>
    <rect x="0"  y="0" height="1.25839" width="55.5556" style="fill: #d2e980"/>
    <rect x="111.111"  y="0" height="2.20218" width="55.5556" style="fill: #42a948"/>
    <rect x="0"  y="0" height="15.2055" width="55.5556" style="fill: #aac5e8"/>
    <rect x="277.778"  y="0" height="3.04111" width="55.5556" style="fill: #84cb3e"/>
    <rect x="111.111"  y="0" height="1.57299" width="55.5556" style="fill: #c7db92"/>
    <rect x="333.333"  y="0" height="0.314597" width="55.5556" style="fill: #5643fd"/>
    <rect x="333.333"  y="0" height="40.2685" width="55.5556" style="fill: #34fdd4"/>
    <rect x="277.778"  y="0" height="2.83138" width="55.5556" style="fill: #67e2cc"/>
    <rect x="111.111"  y="0" height="1.15352" width="55.5556" style="fill: #a40603"/>
    <rect x="111.111"  y="0" height="1.36326" width="55.5556" style="fill: #5cb274"/>
    <rect x="277.778"  y="0" height="0.838926" width="55.5556" style="fill: #4cb90a"/>
    <rect x="111.111"  y="0" height="4.40436" width="55.5556" style="fill: #63e51c"/>
    <rect x="277.778"  y="0" height="10.2768" width="55.5556" style="fill: #973790"/>
    <rect x="111.111"  y="0" height="9.96225" width="55.5556" style="fill: #334394"/>
    <rect x="166.667"  y="0" height="1.36326" width="55.5556" style="fill: #7e0208"/>
    <rect x="166.667"  y="0" height="0.524329" width="55.5556" style="fill: #6541e4"/>
    <rect x="0"  y="0" height="2.30705" width="55.5556" style="fill: #c48a99"/>
    <rect x="166.667"  y="0" height="13.8423" width="55.5556" style="fill: #630aa9"/>
    <rect x="277.778"  y="0" height="11.6401" width="55.5556" style="fill: #aece15"/>
    <rect x="0"  y="0" height="232.068" width="55.5556" style="fill: #3843a4"/>
    <rect x="111.111"  y="0" height="1.25839" width="55.5556" style="fill: #b19027"/>
    <rect x="111.111"  y="0" height="2.72651" width="55.5556" style="fill: #4ebc95"/>
    <rect x="388.889"  y="0" height="2.41191" width="55.5556" style="fill: #5f8592"/>
    <rect x="388.889"  y="0" height="5.76762" width="55.5556" style="fill: #e30a22"/>
    <rect x="111.111"  y="0" height="18.3515" width="55.5556" style="fill: #05a485"/>
    <rect x="277.778"  y="0" height="2.09732" width="55.5556" style="fill: #846248"/>
    <rect x="166.667"  y="0" height="0.209732" width="55.5556" style="fill: #987550"/>
    <rect x="166.667"  y="0" height="1.36326" width="55.5556" style="fill: #aaf209"/>
    <rect x="388.889"  y="0" height="0.314597" width="55.5556" style="fill: #4ec59e"/>
    <rect x="166.667"  y="0" height="2.72651" width="55.5556" style="fill: #7931dc"/>
    <rect x="277.778"  y="0" height="331.586" width="55.5556" style="fill: #650c74"/>
    <rect x="388.889"  y="0" height="3.25084" width="55.5556" style="fill: #51cc61"/>
    <rect x="166.667"  y="0" height="25.4824" width="55.5556" style="fill: #c0cb2c"/>
    <rect x="388.889"  y="0" height="7.55034" width="55.5556" style="fill: #46a1b3"/>
    <rect x="388.889"  y="0" height="3.88003" width="55.5556" style="fill: #f2c349"/>
    <rect x="333.333"  y="0" height="0.629195" width="55.5556" style="fill: #faff76"/>
    <rect x="111.111"  y="0" height="0.629195" width="55.5556" style="fill: #3c7f8d"/>
    <rect x="333.333"  y="0" height="0.314597" width="55.5556" style="fill: #14ddff"/>
    <rect x="111.111"  y="0" height="5.24329" width="55.5556" style="fill: #946351"/>
    <rect x="333.333"  y="0" height="10.906" width="55.5556" style="fill: #744378"/>
    <rect x="388.889"  y="0" height="0.314597" width="55.5556" style="fill: #d62c59"/>
    <rect x="388.889"  y="0" height="0.419463" width="55.5556" style="fill: #285a8d"/>
    <rect x="388.889"  y="0" height="2.30705" width="55.5556" style="fill: #791561"/>
    <rect x="388.889"  y="0" height="0.73406" width="55.5556" style="fill: #4f5a2a"/>
    <rect x="111.111"  y="0" height="6.50168" width="55.5556" style="fill: #c9e0d6"/>
    <rect x="388.889"  y="0" height="4.50923" width="55.5556" style="fill: #8aca62"/>
    <rect x="388.889"  y="0" height="22.9656" width="55.5556" style="fill: #48a922"/>
    <rect x="333.333"  y="0" height="0.314597" width="55.5556" style="fill: #7ab8f1"/>
    <rect x="333.333"  y="0" height="1.57299" width="55.5556" style="fill: #930ee3"/>
    <rect x="111.111"  y="0" height="2.83138" width="55.5556" style="fill: #8ac7a9"/>
    <rect x="333.333"  y="0" height="1.15352" width="55.5556" style="fill: #d239c9"/>
    <rect x="333.333"  y="0" height="46.4555" width="55.5556" style="fill: #b026a4"/>
    <rect x="111.111"  y="0" height="2.62164" width="55.5556" style="fill: #81e49d"/>
    <rect x="166.667"  y="0" height="11.2206" width="55.5556" style="fill: #53161f"/>
    <rect x="111.111"  y="0" height="4.2995" width="55.5556" style="fill: #9a9513"/>
    <rect x="111.111"  y="0" height="1.15352" width="55.5556" style="fill: #fe5271"/>
    <rect x="111.111"  y="0" height="4.40436" width="55.5556" style="fill: #c32e9c"/>
    <rect x="166.667"  y="0" height="40.7928" width="55.5556" style="fill: #21d156"/>
</svg>
</svg>
