<svg  xmlns="http://www.w3.org/2000/svg" xmlns:xlink="http://www.w3.org/1999/xlink" x="0" y="0" width="600" height="600">
<rect x="0%" y="0%" height="100%" width="100%" style="fill: #ffffff"/>
<svg x="0" y="0">
  <text fill="dark" font-size="35" transform="translate(250, 30)">cores</text>
</svg>
<svg x="0" y="0"> 
  <text fill="dark" font-size="35" transform="translate(30, 300) rotate(270)">time</text>
</svg>
<svg x = "50" y="550">
  <text fill="blue" font-size="30" transform="translate(0, 35)">t = 74s, lb = 0.269420</text>
</svg>
<svg x="50" y="50" width="500" height="500" >
  <rect x="0%" y="0%" height="100%" width="100%" style="fill: #eeeeee"/>
    <rect x="0"  y="0" height="2.24678" width="55.5556" style="fill: #76931f"/>
    <rect x="222.222"  y="0" height="8.60485" width="55.5556" style="fill: #ac9dab"/>
    <rect x="111.111"  y="0" height="499.993" width="55.5556" style="fill: #2b36c2"/>
    <rect x="55.5556"  y="0" height="13.0448" width="55.5556" style="fill: #48b87d"/>
    <rect x="333.333"  y="0" height="1.53586" width="55.5556" style="fill: #6ae33f"/>
    <rect x="277.778"  y="0" height="1.9651" width="55.5556" style="fill: #9a62d7"/>
    <rect x="166.667"  y="0" height="2.42116" width="55.5556" style="fill: #183a5d"/>
    <rect x="388.889"  y="0" height="1.20052" width="55.5556" style="fill: #5789e4"/>
    <rect x="388.889"  y="0" height="8.91336" width="55.5556" style="fill: #b2d6b4"/>
    <rect x="333.333"  y="0" height="0.764577" width="55.5556" style="fill: #41e241"/>
    <rect x="277.778"  y="0" height="4.48686" width="55.5556" style="fill: #1dc709"/>
    <rect x="0"  y="0" height="0.831645" width="55.5556" style="fill: #e111c7"/>
    <rect x="333.333"  y="0" height="1.66329" width="55.5556" style="fill: #e1e7ac"/>
    <rect x="166.667"  y="0" height="2.77662" width="55.5556" style="fill: #b6f8ca"/>
    <rect x="0"  y="0" height="4.84232" width="55.5556" style="fill: #c0bb2f"/>
    <rect x="333.333"  y="0" height="16.6396" width="55.5556" style="fill: #c4c8bc"/>
    <rect x="166.667"  y="0" height="1.2743" width="55.5556" style="fill: #2ae3ba"/>
    <rect x="277.778"  y="0" height="0.75787" width="55.5556" style="fill: #aab916"/>
    <rect x="166.667"  y="0" height="2.82357" width="55.5556" style="fill: #5cc458"/>
    <rect x="277.778"  y="0" height="2.48823" width="55.5556" style="fill: #e199cb"/>
    <rect x="0"  y="0" height="2.81686" width="55.5556" style="fill: #89f51b"/>
    <rect x="222.222"  y="0" height="9.55051" width="55.5556" style="fill: #135f70"/>
    <rect x="166.667"  y="0" height="8.02806" width="55.5556" style="fill: #91a5ab"/>
    <rect x="277.778"  y="0" height="0.549959" width="55.5556" style="fill: #b0874d"/>
    <rect x="388.889"  y="0" height="4.55393" width="55.5556" style="fill: #f3e8cb"/>
    <rect x="277.778"  y="0" height="19.718" width="55.5556" style="fill: #4543a5"/>
    <rect x="0"  y="0" height="0.73775" width="55.5556" style="fill: #eb93b0"/>
    <rect x="0"  y="0" height="3.60156" width="55.5556" style="fill: #441e9c"/>
    <rect x="55.5556"  y="0" height="2.2669" width="55.5556" style="fill: #a4c2b0"/>
    <rect x="388.889"  y="0" height="4.9161" width="55.5556" style="fill: #fb3d30"/>
    <rect x="0"  y="0" height="2.8504" width="55.5556" style="fill: #875cbf"/>
    <rect x="55.5556"  y="0" height="70.1533" width="55.5556" style="fill: #29abd5"/>
    <rect x="166.667"  y="0" height="0.543252" width="55.5556" style="fill: #b1acf3"/>
    <rect x="166.667"  y="0" height="0.61032" width="55.5556" style="fill: #8984b3"/>
    <rect x="0"  y="0" height="0.818232" width="55.5556" style="fill: #5ae882"/>
    <rect x="222.222"  y="0" height="2.50835" width="55.5556" style="fill: #809dd4"/>
    <rect x="166.667"  y="0" height="0.57008" width="55.5556" style="fill: #cfe7ab"/>
    <rect x="0"  y="0" height="0.824939" width="55.5556" style="fill: #c5c61b"/>
    <rect x="166.667"  y="0" height="4.27895" width="55.5556" style="fill: #aa52e0"/>
    <rect x="388.889"  y="0" height="5.39228" width="55.5556" style="fill: #53b4c3"/>
    <rect x="0"  y="0" height="2.73638" width="55.5556" style="fill: #643f20"/>
    <rect x="333.333"  y="0" height="2.04558" width="55.5556" style="fill: #4ef259"/>
    <rect x="222.222"  y="0" height="0.543252" width="55.5556" style="fill: #d2e980"/>
    <rect x="222.222"  y="0" height="7.38421" width="55.5556" style="fill: #42a948"/>
    <rect x="0"  y="0" height="3.88995" width="55.5556" style="fill: #aac5e8"/>
    <rect x="333.333"  y="0" height="1.95839" width="55.5556" style="fill: #84cb3e"/>
    <rect x="166.667"  y="0" height="1.34807" width="55.5556" style="fill: #c7db92"/>
    <rect x="333.333"  y="0" height="18.4303" width="55.5556" style="fill: #5643fd"/>
    <rect x="166.667"  y="0" height="1.281" width="55.5556" style="fill: #34fdd4"/>
    <rect x="388.889"  y="0" height="46.7733" width="55.5556" style="fill: #67e2cc"/>
    <rect x="166.667"  y="0" height="50.0731" width="55.5556" style="fill: #a40603"/>
    <rect x="0"  y="0" height="1.80413" width="55.5556" style="fill: #5cb274"/>
    <rect x="0"  y="0" height="2.62237" width="55.5556" style="fill: #4cb90a"/>
    <rect x="222.222"  y="0" height="0.71763" width="55.5556" style="fill: #63e51c"/>
    <rect x="222.222"  y="0" height="0.791405" width="55.5556" style="fill: #973790"/>
    <rect x="277.778"  y="0" height="1.50233" width="55.5556" style="fill: #334394"/>
    <rect x="222.222"  y="0" height="0.684095" width="55.5556" style="fill: #7e0208"/>
    <rect x="0"  y="0" height="0.684095" width="55.5556" style="fill: #6541e4"/>
    <rect x="222.222"  y="0" height="3.35341" width="55.5556" style="fill: #c48a99"/>
    <rect x="0"  y="0" height="4.3326" width="55.5556" style="fill: #630aa9"/>
    <rect x="277.778"  y="0" height="1.50233" width="55.5556" style="fill: #aece15"/>
    <rect x="277.778"  y="0" height="6.01602" width="55.5556" style="fill: #3843a4"/>
    <rect x="222.222"  y="0" height="4.39967" width="55.5556" style="fill: #b19027"/>
    <rect x="0"  y="0" height="11.073" width="55.5556" style="fill: #4ebc95"/>
    <rect x="222.222"  y="0" height="0.925541" width="55.5556" style="fill: #5f8592"/>
    <rect x="277.778"  y="0" height="3.11196" width="55.5556" style="fill: #e30a22"/>
    <rect x="222.222"  y="0" height="12.8503" width="55.5556" style="fill: #05a485"/>
    <rect x="277.778"  y="0" height="2.10594" width="55.5556" style="fill: #846248"/>
    <rect x="333.333"  y="0" height="3.88325" width="55.5556" style="fill: #987550"/>
    <rect x="277.778"  y="0" height="2.18642" width="55.5556" style="fill: #aaf209"/>
    <rect x="277.778"  y="0" height="0.798111" width="55.5556" style="fill: #4ec59e"/>
    <rect x="0"  y="0" height="5.10389" width="55.5556" style="fill: #7931dc"/>
    <rect x="333.333"  y="0" height="0.798111" width="55.5556" style="fill: #650c74"/>
    <rect x="277.778"  y="0" height="6.8879" width="55.5556" style="fill: #51cc61"/>
    <rect x="333.333"  y="0" height="5.48618" width="55.5556" style="fill: #c0cb2c"/>
    <rect x="0"  y="0" height="1.14016" width="55.5556" style="fill: #46a1b3"/>
    <rect x="222.222"  y="0" height="1.84437" width="55.5556" style="fill: #f2c349"/>
    <rect x="0"  y="0" height="1.22735" width="55.5556" style="fill: #faff76"/>
    <rect x="333.333"  y="0" height="0.630441" width="55.5556" style="fill: #3c7f8d"/>
    <rect x="333.333"  y="0" height="0.583493" width="55.5556" style="fill: #14ddff"/>
    <rect x="277.778"  y="0" height="1.6767" width="55.5556" style="fill: #946351"/>
    <rect x="222.222"  y="0" height="1.95839" width="55.5556" style="fill: #744378"/>
    <rect x="0"  y="0" height="0.596907" width="55.5556" style="fill: #d62c59"/>
    <rect x="333.333"  y="0" height="1.75048" width="55.5556" style="fill: #285a8d"/>
    <rect x="0"  y="0" height="1.01273" width="55.5556" style="fill: #791561"/>
    <rect x="277.778"  y="0" height="1.07309" width="55.5556" style="fill: #4f5a2a"/>
    <rect x="0"  y="0" height="0.751164" width="55.5556" style="fill: #c9e0d6"/>
    <rect x="222.222"  y="0" height="29.2686" width="55.5556" style="fill: #8aca62"/>
    <rect x="333.333"  y="0" height="6.94826" width="55.5556" style="fill: #48a922"/>
    <rect x="0"  y="0" height="3.27293" width="55.5556" style="fill: #7ab8f1"/>
    <rect x="277.778"  y="0" height="0.617027" width="55.5556" style="fill: #930ee3"/>
    <rect x="277.778"  y="0" height="19.9863" width="55.5556" style="fill: #8ac7a9"/>
    <rect x="0"  y="0" height="2.09923" width="55.5556" style="fill: #d239c9"/>
    <rect x="0"  y="0" height="37.1021" width="55.5556" style="fill: #b026a4"/>
    <rect x="333.333"  y="0" height="1.53586" width="55.5556" style="fill: #81e49d"/>
    <rect x="333.333"  y="0" height="5.20449" width="55.5556" style="fill: #53161f"/>
    <rect x="333.333"  y="0" height="2.36751" width="55.5556" style="fill: #9a9513"/>
    <rect x="388.889"  y="0" height="1.20723" width="55.5556" style="fill: #fe5271"/>
    <rect x="333.333"  y="0" height="0.824939" width="55.5556" style="fill: #c32e9c"/>
    <rect x="388.889"  y="0" height="8.34999" width="55.5556" style="fill: #21d156"/>
</svg>
</svg>
