<svg  xmlns="http://www.w3.org/2000/svg" xmlns:xlink="http://www.w3.org/1999/xlink" x="0" y="0" width="600" height="600">
<rect x="0%" y="0%" height="100%" width="100%" style="fill: #ffffff"/>
<svg x="0" y="0">
  <text fill="dark" font-size="35" transform="translate(250, 30)">cores</text>
</svg>
<svg x="0" y="0"> 
  <text fill="dark" font-size="35" transform="translate(30, 300) rotate(270)">time</text>
</svg>
<svg x = "50" y="550">
  <text fill="blue" font-size="30" transform="translate(0, 35)">t = 41s, lb = 0.137693</text>
</svg>
<svg x="50" y="50" width="500" height="500" >
  <rect x="0%" y="0%" height="100%" width="100%" style="fill: #eeeeee"/>
    <rect x="0"  y="0" height="0.156182" width="55.5556" style="fill: #76931f"/>
    <rect x="222.222"  y="0" height="0.144168" width="55.5556" style="fill: #ac9dab"/>
    <rect x="111.111"  y="0" height="1.30953" width="55.5556" style="fill: #2b36c2"/>
    <rect x="55.5556"  y="0" height="1.05723" width="55.5556" style="fill: #48b87d"/>
    <rect x="333.333"  y="0" height="0.156182" width="55.5556" style="fill: #6ae33f"/>
    <rect x="277.778"  y="0" height="0.216253" width="55.5556" style="fill: #9a62d7"/>
    <rect x="166.667"  y="0" height="0.288337" width="55.5556" style="fill: #183a5d"/>
    <rect x="388.889"  y="0" height="0.360421" width="55.5556" style="fill: #5789e4"/>
    <rect x="222.222"  y="0" height="0.012014" width="55.5556" style="fill: #b2d6b4"/>
    <rect x="333.333"  y="0" height="0.144168" width="55.5556" style="fill: #41e241"/>
    <rect x="0"  y="0" height="0.468547" width="55.5556" style="fill: #1dc709"/>
    <rect x="222.222"  y="0" height="0.372435" width="55.5556" style="fill: #e111c7"/>
    <rect x="277.778"  y="0" height="0.18021" width="55.5556" style="fill: #e1e7ac"/>
    <rect x="166.667"  y="0" height="0.276323" width="55.5556" style="fill: #b6f8ca"/>
    <rect x="333.333"  y="0" height="0.588688" width="55.5556" style="fill: #c0bb2f"/>
    <rect x="388.889"  y="0" height="0.192225" width="55.5556" style="fill: #c4c8bc"/>
    <rect x="277.778"  y="0" height="0.360421" width="55.5556" style="fill: #2ae3ba"/>
    <rect x="222.222"  y="0" height="0.192225" width="55.5556" style="fill: #aab916"/>
    <rect x="388.889"  y="0" height="3.96463" width="55.5556" style="fill: #5cc458"/>
    <rect x="166.667"  y="0" height="0.168196" width="55.5556" style="fill: #e199cb"/>
    <rect x="0"  y="0" height="0.192225" width="55.5556" style="fill: #89f51b"/>
    <rect x="222.222"  y="0" height="0.18021" width="55.5556" style="fill: #135f70"/>
    <rect x="166.667"  y="0" height="0.504589" width="55.5556" style="fill: #91a5ab"/>
    <rect x="277.778"  y="0" height="0.288337" width="55.5556" style="fill: #b0874d"/>
    <rect x="0"  y="0" height="0.252295" width="55.5556" style="fill: #f3e8cb"/>
    <rect x="333.333"  y="0" height="0.0240281" width="55.5556" style="fill: #4543a5"/>
    <rect x="333.333"  y="0" height="2.66712" width="55.5556" style="fill: #eb93b0"/>
    <rect x="222.222"  y="0" height="0.168196" width="55.5556" style="fill: #441e9c"/>
    <rect x="55.5556"  y="0" height="0.228267" width="55.5556" style="fill: #a4c2b0"/>
    <rect x="277.778"  y="0" height="0.012014" width="55.5556" style="fill: #fb3d30"/>
    <rect x="277.778"  y="0" height="0.192225" width="55.5556" style="fill: #875cbf"/>
    <rect x="0"  y="0" height="0.324379" width="55.5556" style="fill: #29abd5"/>
    <rect x="222.222"  y="0" height="0.108126" width="55.5556" style="fill: #b1acf3"/>
    <rect x="222.222"  y="0" height="0.276323" width="55.5556" style="fill: #8984b3"/>
    <rect x="166.667"  y="0" height="498.714" width="55.5556" style="fill: #5ae882"/>
    <rect x="277.778"  y="0" height="1.40564" width="55.5556" style="fill: #809dd4"/>
    <rect x="55.5556"  y="0" height="0.0720842" width="55.5556" style="fill: #cfe7ab"/>
    <rect x="111.111"  y="0" height="0.720842" width="55.5556" style="fill: #c5c61b"/>
    <rect x="55.5556"  y="0" height="0.0961123" width="55.5556" style="fill: #aa52e0"/>
    <rect x="0"  y="0" height="0.216253" width="55.5556" style="fill: #53b4c3"/>
    <rect x="55.5556"  y="0" height="0.216253" width="55.5556" style="fill: #643f20"/>
    <rect x="222.222"  y="0" height="2.4869" width="55.5556" style="fill: #4ef259"/>
    <rect x="0"  y="0" height="0.840982" width="55.5556" style="fill: #d2e980"/>
    <rect x="55.5556"  y="0" height="0.192225" width="55.5556" style="fill: #42a948"/>
    <rect x="55.5556"  y="0" height="1.02119" width="55.5556" style="fill: #aac5e8"/>
    <rect x="111.111"  y="0" height="0.732856" width="55.5556" style="fill: #84cb3e"/>
    <rect x="0"  y="0" height="0.0360421" width="55.5556" style="fill: #c7db92"/>
    <rect x="0"  y="0" height="0.012014" width="55.5556" style="fill: #5643fd"/>
    <rect x="0"  y="0" height="0.252295" width="55.5556" style="fill: #34fdd4"/>
    <rect x="277.778"  y="0" height="0.216253" width="55.5556" style="fill: #67e2cc"/>
    <rect x="111.111"  y="0" height="0.300351" width="55.5556" style="fill: #a40603"/>
    <rect x="0"  y="0" height="0.973137" width="55.5556" style="fill: #5cb274"/>
    <rect x="277.778"  y="0" height="0.456533" width="55.5556" style="fill: #4cb90a"/>
    <rect x="55.5556"  y="0" height="0.0240281" width="55.5556" style="fill: #63e51c"/>
    <rect x="55.5556"  y="0" height="0.252295" width="55.5556" style="fill: #973790"/>
    <rect x="111.111"  y="0" height="0.360421" width="55.5556" style="fill: #334394"/>
    <rect x="55.5556"  y="0" height="0.216253" width="55.5556" style="fill: #7e0208"/>
    <rect x="277.778"  y="0" height="0.324379" width="55.5556" style="fill: #6541e4"/>
    <rect x="55.5556"  y="0" height="0.216253" width="55.5556" style="fill: #c48a99"/>
    <rect x="111.111"  y="0" height="0.252295" width="55.5556" style="fill: #630aa9"/>
    <rect x="333.333"  y="0" height="0.276323" width="55.5556" style="fill: #aece15"/>
    <rect x="55.5556"  y="0" height="0.18021" width="55.5556" style="fill: #3843a4"/>
    <rect x="277.778"  y="0" height="0.732856" width="55.5556" style="fill: #b19027"/>
    <rect x="111.111"  y="0" height="0.540631" width="55.5556" style="fill: #4ebc95"/>
    <rect x="0"  y="0" height="0.276323" width="55.5556" style="fill: #5f8592"/>
    <rect x="55.5556"  y="0" height="0.012014" width="55.5556" style="fill: #e30a22"/>
    <rect x="55.5556"  y="0" height="0.216253" width="55.5556" style="fill: #05a485"/>
    <rect x="333.333"  y="0" height="0.324379" width="55.5556" style="fill: #846248"/>
    <rect x="222.222"  y="0" height="0.0840982" width="55.5556" style="fill: #987550"/>
    <rect x="0"  y="0" height="1.40564" width="55.5556" style="fill: #aaf209"/>
    <rect x="222.222"  y="0" height="0.0840982" width="55.5556" style="fill: #4ec59e"/>
    <rect x="55.5556"  y="0" height="0.444519" width="55.5556" style="fill: #7931dc"/>
    <rect x="222.222"  y="0" height="0.0360421" width="55.5556" style="fill: #650c74"/>
    <rect x="333.333"  y="0" height="0.204239" width="55.5556" style="fill: #51cc61"/>
    <rect x="222.222"  y="0" height="0.276323" width="55.5556" style="fill: #c0cb2c"/>
    <rect x="111.111"  y="0" height="0.408477" width="55.5556" style="fill: #46a1b3"/>
    <rect x="333.333"  y="0" height="3.56817" width="55.5556" style="fill: #f2c349"/>
    <rect x="277.778"  y="0" height="0.012014" width="55.5556" style="fill: #faff76"/>
    <rect x="277.778"  y="0" height="0.12014" width="55.5556" style="fill: #3c7f8d"/>
    <rect x="222.222"  y="0" height="0.168196" width="55.5556" style="fill: #14ddff"/>
    <rect x="388.889"  y="0" height="1.69398" width="55.5556" style="fill: #946351"/>
    <rect x="55.5556"  y="0" height="0.0961123" width="55.5556" style="fill: #744378"/>
    <rect x="277.778"  y="0" height="0.108126" width="55.5556" style="fill: #d62c59"/>
    <rect x="55.5556"  y="0" height="0.264309" width="55.5556" style="fill: #285a8d"/>
    <rect x="111.111"  y="0" height="0.12014" width="55.5556" style="fill: #791561"/>
    <rect x="222.222"  y="0" height="0.360421" width="55.5556" style="fill: #4f5a2a"/>
    <rect x="277.778"  y="0" height="6.21125" width="55.5556" style="fill: #c9e0d6"/>
    <rect x="111.111"  y="0" height="0.0720842" width="55.5556" style="fill: #8aca62"/>
    <rect x="111.111"  y="0" height="2.37878" width="55.5556" style="fill: #48a922"/>
    <rect x="55.5556"  y="0" height="0.204239" width="55.5556" style="fill: #7ab8f1"/>
    <rect x="222.222"  y="0" height="0.192225" width="55.5556" style="fill: #930ee3"/>
    <rect x="55.5556"  y="0" height="0.949109" width="55.5556" style="fill: #8ac7a9"/>
    <rect x="222.222"  y="0" height="0.288337" width="55.5556" style="fill: #d239c9"/>
    <rect x="0"  y="0" height="0.62473" width="55.5556" style="fill: #b026a4"/>
    <rect x="222.222"  y="0" height="0.264309" width="55.5556" style="fill: #81e49d"/>
    <rect x="222.222"  y="0" height="0.0840982" width="55.5556" style="fill: #53161f"/>
    <rect x="222.222"  y="0" height="0.660772" width="55.5556" style="fill: #9a9513"/>
    <rect x="55.5556"  y="0" height="0.144168" width="55.5556" style="fill: #fe5271"/>
    <rect x="0"  y="0" height="0.0360421" width="55.5556" style="fill: #c32e9c"/>
    <rect x="0"  y="0" height="0.012014" width="55.5556" style="fill: #21d156"/>
</svg>
</svg>
