<svg  xmlns="http://www.w3.org/2000/svg" xmlns:xlink="http://www.w3.org/1999/xlink" x="0" y="0" width="600" height="600">
<rect x="0%" y="0%" height="100%" width="100%" style="fill: #ffffff"/>
<svg x="0" y="0">
  <text fill="dark" font-size="35" transform="translate(250, 30)">cores</text>
</svg>
<svg x="0" y="0"> 
  <text fill="dark" font-size="35" transform="translate(30, 300) rotate(270)">time</text>
</svg>
<svg x = "50" y="550">
  <text fill="blue" font-size="30" transform="translate(0, 35)">t = 11s, lb = 0.994270</text>
</svg>
<svg x="50" y="50" width="500" height="500" >
  <rect x="0%" y="0%" height="100%" width="100%" style="fill: #eeeeee"/>
    <rect x="0"  y="0" height="141.047" width="250" style="fill: #df6ed3"/>
    <rect x="0"  y="0" height="60.385" width="250" style="fill: #5f477b"/>
    <rect x="0"  y="0" height="11.4145" width="250" style="fill: #002298"/>
    <rect x="0"  y="0" height="30.9758" width="250" style="fill: #1e5e1f"/>
    <rect x="0"  y="0" height="20.0537" width="250" style="fill: #bfe1bf"/>
    <rect x="0"  y="0" height="14.3241" width="250" style="fill: #b8e26b"/>
    <rect x="0"  y="0" height="21.3071" width="250" style="fill: #5ba932"/>
    <rect x="0"  y="0" height="4.78962" width="250" style="fill: #53275b"/>
    <rect x="0"  y="0" height="5.72963" width="250" style="fill: #f6a44b"/>
    <rect x="0"  y="0" height="7.96777" width="250" style="fill: #3fa105"/>
    <rect x="0"  y="0" height="4.2077" width="250" style="fill: #1cdfe3"/>
    <rect x="0"  y="0" height="3.89436" width="250" style="fill: #b3f5d2"/>
    <rect x="0"  y="0" height="2.19338" width="250" style="fill: #725a9a"/>
    <rect x="0"  y="0" height="5.32677" width="250" style="fill: #580fd5"/>
    <rect x="0"  y="0" height="13.6526" width="250" style="fill: #b04525"/>
    <rect x="0"  y="0" height="5.01343" width="250" style="fill: #b3182f"/>
    <rect x="0"  y="0" height="2.90958" width="250" style="fill: #cd2b3f"/>
    <rect x="0"  y="0" height="3.4915" width="250" style="fill: #da124a"/>
    <rect x="0"  y="0" height="2.41719" width="250" style="fill: #ca3c90"/>
    <rect x="0"  y="0" height="3.53626" width="250" style="fill: #1406a2"/>
    <rect x="0"  y="0" height="2.59624" width="250" style="fill: #b55cd8"/>
    <rect x="0"  y="0" height="3.04387" width="250" style="fill: #b95d48"/>
    <rect x="0"  y="0" height="2.05909" width="250" style="fill: #d13e37"/>
    <rect x="0"  y="0" height="2.19338" width="250" style="fill: #9f1ccb"/>
    <rect x="0"  y="0" height="3.22292" width="250" style="fill: #cdfc39"/>
    <rect x="0"  y="0" height="3.98389" width="250" style="fill: #fee4ac"/>
    <rect x="0"  y="0" height="4.2077" width="250" style="fill: #c5523a"/>
    <rect x="0"  y="0" height="5.81916" width="250" style="fill: #a0bdef"/>
    <rect x="0"  y="0" height="2.05909" width="250" style="fill: #57e63a"/>
    <rect x="0"  y="0" height="3.35721" width="250" style="fill: #1f81cb"/>
    <rect x="0"  y="0" height="1.70098" width="250" style="fill: #aba9f4"/>
    <rect x="0"  y="0" height="3.93912" width="250" style="fill: #5caaed"/>
    <rect x="0"  y="0" height="3.89436" width="250" style="fill: #48d06b"/>
    <rect x="0"  y="0" height="2.14861" width="250" style="fill: #fb3d16"/>
    <rect x="0"  y="0" height="5.81916" width="250" style="fill: #836042"/>
    <rect x="0"  y="0" height="4.78962" width="250" style="fill: #bed57c"/>
    <rect x="0"  y="0" height="1.34288" width="250" style="fill: #ac8476"/>
    <rect x="0"  y="0" height="1.65622" width="250" style="fill: #1bfeb5"/>
    <rect x="0"  y="0" height="1.43241" width="250" style="fill: #9a0c81"/>
    <rect x="0"  y="0" height="2.86482" width="250" style="fill: #304908"/>
    <rect x="0"  y="0" height="2.68577" width="250" style="fill: #bb781e"/>
    <rect x="0"  y="0" height="3.8496" width="250" style="fill: #4bbdf2"/>
    <rect x="0"  y="0" height="1.47717" width="250" style="fill: #30d2e9"/>
    <rect x="0"  y="0" height="1.43241" width="250" style="fill: #77374b"/>
    <rect x="0"  y="0" height="2.73053" width="250" style="fill: #97bd0b"/>
    <rect x="0"  y="0" height="1.65622" width="250" style="fill: #6b7d38"/>
    <rect x="0"  y="0" height="1.16383" width="250" style="fill: #b73642"/>
    <rect x="0"  y="0" height="3.35721" width="250" style="fill: #8826a0"/>
    <rect x="0"  y="0" height="2.10385" width="250" style="fill: #f2729b"/>
    <rect x="0"  y="0" height="2.82005" width="250" style="fill: #e22902"/>
    <rect x="0"  y="0" height="1.29812" width="250" style="fill: #56dc30"/>
    <rect x="0"  y="0" height="3.71531" width="250" style="fill: #4e875c"/>
    <rect x="0"  y="0" height="1.20859" width="250" style="fill: #9d4b3f"/>
    <rect x="0"  y="0" height="1.16383" width="250" style="fill: #b2125a"/>
    <rect x="0"  y="0" height="2.46195" width="250" style="fill: #e3d0cd"/>
    <rect x="0"  y="0" height="1.29812" width="250" style="fill: #3130d6"/>
    <rect x="0"  y="0" height="3.35721" width="250" style="fill: #114989"/>
    <rect x="0"  y="0" height="1.47717" width="250" style="fill: #517aca"/>
    <rect x="0"  y="0" height="1.83527" width="250" style="fill: #97daa2"/>
    <rect x="0"  y="0" height="1.20859" width="250" style="fill: #485181"/>
    <rect x="0"  y="0" height="0.80573" width="250" style="fill: #eb31c0"/>
    <rect x="0"  y="0" height="0.895255" width="250" style="fill: #7d2c6a"/>
    <rect x="0"  y="0" height="1.16383" width="250" style="fill: #5bcc58"/>
    <rect x="0"  y="0" height="2.46195" width="250" style="fill: #7e048a"/>
    <rect x="0"  y="0" height="1.29812" width="250" style="fill: #6d2bea"/>
    <rect x="0"  y="0" height="2.14861" width="250" style="fill: #cd6fe2"/>
    <rect x="0"  y="0" height="0.760967" width="250" style="fill: #06f225"/>
    <rect x="0"  y="0" height="0.895255" width="250" style="fill: #c70846"/>
    <rect x="0"  y="0" height="1.70098" width="250" style="fill: #1b41fd"/>
    <rect x="0"  y="0" height="0.940018" width="250" style="fill: #b5ad08"/>
    <rect x="0"  y="0" height="0.716204" width="250" style="fill: #7c5dc4"/>
    <rect x="0"  y="0" height="0.760967" width="250" style="fill: #fcaeec"/>
    <rect x="0"  y="0" height="0.760967" width="250" style="fill: #3a3437"/>
    <rect x="0"  y="0" height="1.83527" width="250" style="fill: #a42e51"/>
    <rect x="0"  y="0" height="1.20859" width="250" style="fill: #b065d6"/>
    <rect x="0"  y="0" height="0.760967" width="250" style="fill: #e4332f"/>
    <rect x="0"  y="0" height="0.447628" width="250" style="fill: #71b109"/>
    <rect x="0"  y="0" height="0.626679" width="250" style="fill: #d33176"/>
    <rect x="0"  y="0" height="0.626679" width="250" style="fill: #81ab0f"/>
    <rect x="0"  y="0" height="0.537153" width="250" style="fill: #cbf31c"/>
    <rect x="0"  y="0" height="0.581916" width="250" style="fill: #9f1c23"/>
    <rect x="0"  y="0" height="0.537153" width="250" style="fill: #ba46b4"/>
    <rect x="0"  y="0" height="0.850492" width="250" style="fill: #f983af"/>
    <rect x="0"  y="0" height="0.268577" width="250" style="fill: #9214d1"/>
    <rect x="0"  y="0" height="0.49239" width="250" style="fill: #3ac3dd"/>
    <rect x="0"  y="0" height="0.49239" width="250" style="fill: #f6c03f"/>
    <rect x="0"  y="0" height="0.447628" width="250" style="fill: #3e9854"/>
    <rect x="0"  y="0" height="0.358102" width="250" style="fill: #c4d477"/>
    <rect x="0"  y="0" height="0.358102" width="250" style="fill: #41a557"/>
    <rect x="0"  y="0" height="0.313339" width="250" style="fill: #6812be"/>
    <rect x="0"  y="0" height="0.223814" width="250" style="fill: #0b5cb8"/>
    <rect x="0"  y="0" height="0.313339" width="250" style="fill: #bf647b"/>
    <rect x="0"  y="0" height="0.268577" width="250" style="fill: #930687"/>
    <rect x="0"  y="0" height="0.223814" width="250" style="fill: #ec881d"/>
    <rect x="0"  y="0" height="0.223814" width="250" style="fill: #f76191"/>
    <rect x="0"  y="0" height="0.223814" width="250" style="fill: #f9c468"/>
    <rect x="0"  y="0" height="0.179051" width="250" style="fill: #c1736e"/>
    <rect x="0"  y="0" height="0.179051" width="250" style="fill: #ef1e59"/>
    <rect x="0"  y="0" height="0.0895255" width="250" style="fill: #635eb6"/>
    <rect x="0"  y="0" height="0.0895255" width="250" style="fill: #cbd2c7"/>
</svg>
</svg>
