<svg  xmlns="http://www.w3.org/2000/svg" xmlns:xlink="http://www.w3.org/1999/xlink" x="0" y="0" width="600" height="600">
<rect x="0%" y="0%" height="100%" width="100%" style="fill: #ffffff"/>
<svg x="0" y="0">
  <text fill="dark" font-size="35" transform="translate(250, 30)">cores</text>
</svg>
<svg x="0" y="0"> 
  <text fill="dark" font-size="35" transform="translate(30, 300) rotate(270)">time</text>
</svg>
<svg x = "50" y="550">
  <text fill="blue" font-size="30" transform="translate(0, 35)">t = 59s, lb = 0.998900</text>
</svg>
<svg x="50" y="50" width="500" height="500" >
  <rect x="0%" y="0%" height="100%" width="100%" style="fill: #eeeeee"/>
    <rect x="0"  y="0" height="1.16747" width="250" style="fill: #76931f"/>
    <rect x="0"  y="0" height="1.85273" width="250" style="fill: #ac9dab"/>
    <rect x="0"  y="0" height="2.66488" width="250" style="fill: #2b36c2"/>
    <rect x="0"  y="0" height="2.46185" width="250" style="fill: #48b87d"/>
    <rect x="0"  y="0" height="0.778315" width="250" style="fill: #6ae33f"/>
    <rect x="0"  y="0" height="1.91195" width="250" style="fill: #9a62d7"/>
    <rect x="0"  y="0" height="5.91351" width="250" style="fill: #183a5d"/>
    <rect x="0"  y="0" height="0.372238" width="250" style="fill: #5789e4"/>
    <rect x="0"  y="0" height="0.600656" width="250" style="fill: #b2d6b4"/>
    <rect x="0"  y="0" height="0.346858" width="250" style="fill: #41e241"/>
    <rect x="0"  y="0" height="26.6827" width="250" style="fill: #1dc709"/>
    <rect x="0"  y="0" height="1.70891" width="250" style="fill: #e111c7"/>
    <rect x="0"  y="0" height="3.5278" width="250" style="fill: #e1e7ac"/>
    <rect x="0"  y="0" height="0.862915" width="250" style="fill: #b6f8ca"/>
    <rect x="0"  y="0" height="1.26899" width="250" style="fill: #c0bb2f"/>
    <rect x="0"  y="0" height="1.98809" width="250" style="fill: #c4c8bc"/>
    <rect x="0"  y="0" height="7.82545" width="250" style="fill: #2ae3ba"/>
    <rect x="0"  y="0" height="5.87967" width="250" style="fill: #aab916"/>
    <rect x="0"  y="0" height="2.21651" width="250" style="fill: #5cc458"/>
    <rect x="0"  y="0" height="1.93733" width="250" style="fill: #e199cb"/>
    <rect x="0"  y="0" height="1.13363" width="250" style="fill: #89f51b"/>
    <rect x="0"  y="0" height="1.86119" width="250" style="fill: #135f70"/>
    <rect x="0"  y="0" height="0.930595" width="250" style="fill: #91a5ab"/>
    <rect x="0"  y="0" height="1.77659" width="250" style="fill: #b0874d"/>
    <rect x="0"  y="0" height="1.96271" width="250" style="fill: #f3e8cb"/>
    <rect x="0"  y="0" height="2.41955" width="250" style="fill: #4543a5"/>
    <rect x="0"  y="0" height="0.160739" width="250" style="fill: #eb93b0"/>
    <rect x="0"  y="0" height="3.00328" width="250" style="fill: #441e9c"/>
    <rect x="0"  y="0" height="1.02365" width="250" style="fill: #a4c2b0"/>
    <rect x="0"  y="0" height="2.06423" width="250" style="fill: #fb3d30"/>
    <rect x="0"  y="0" height="0.160739" width="250" style="fill: #875cbf"/>
    <rect x="0"  y="0" height="1.33667" width="250" style="fill: #29abd5"/>
    <rect x="0"  y="0" height="2.32649" width="250" style="fill: #b1acf3"/>
    <rect x="0"  y="0" height="14.9572" width="250" style="fill: #8984b3"/>
    <rect x="0"  y="0" height="1.95425" width="250" style="fill: #5ae882"/>
    <rect x="0"  y="0" height="5.17749" width="250" style="fill: #809dd4"/>
    <rect x="0"  y="0" height="2.91868" width="250" style="fill: #cfe7ab"/>
    <rect x="0"  y="0" height="4.52607" width="250" style="fill: #c5c61b"/>
    <rect x="0"  y="0" height="2.71564" width="250" style="fill: #aa52e0"/>
    <rect x="0"  y="0" height="0.676796" width="250" style="fill: #53b4c3"/>
    <rect x="0"  y="0" height="0.719096" width="250" style="fill: #643f20"/>
    <rect x="0"  y="0" height="1.37051" width="250" style="fill: #4ef259"/>
    <rect x="0"  y="0" height="1.05749" width="250" style="fill: #d2e980"/>
    <rect x="0"  y="0" height="0.490677" width="250" style="fill: #42a948"/>
    <rect x="0"  y="0" height="5.60895" width="250" style="fill: #aac5e8"/>
    <rect x="0"  y="0" height="1.59893" width="250" style="fill: #84cb3e"/>
    <rect x="0"  y="0" height="1.92887" width="250" style="fill: #c7db92"/>
    <rect x="0"  y="0" height="0.338398" width="250" style="fill: #5643fd"/>
    <rect x="0"  y="0" height="19.7878" width="250" style="fill: #34fdd4"/>
    <rect x="0"  y="0" height="3.56164" width="250" style="fill: #67e2cc"/>
    <rect x="0"  y="0" height="0.439917" width="250" style="fill: #a40603"/>
    <rect x="0"  y="0" height="0.406078" width="250" style="fill: #5cb274"/>
    <rect x="0"  y="0" height="0.236879" width="250" style="fill: #4cb90a"/>
    <rect x="0"  y="0" height="3.87466" width="250" style="fill: #63e51c"/>
    <rect x="0"  y="0" height="0.727556" width="250" style="fill: #973790"/>
    <rect x="0"  y="0" height="1.42973" width="250" style="fill: #334394"/>
    <rect x="0"  y="0" height="0.752936" width="250" style="fill: #7e0208"/>
    <rect x="0"  y="0" height="1.93733" width="250" style="fill: #6541e4"/>
    <rect x="0"  y="0" height="0.414538" width="250" style="fill: #c48a99"/>
    <rect x="0"  y="0" height="2.43647" width="250" style="fill: #630aa9"/>
    <rect x="0"  y="0" height="1.29437" width="250" style="fill: #aece15"/>
    <rect x="0"  y="0" height="1.68353" width="250" style="fill: #3843a4"/>
    <rect x="0"  y="0" height="0.617576" width="250" style="fill: #b19027"/>
    <rect x="0"  y="0" height="0.228419" width="250" style="fill: #4ebc95"/>
    <rect x="0"  y="0" height="8.62915" width="250" style="fill: #5f8592"/>
    <rect x="0"  y="0" height="1.25207" width="250" style="fill: #e30a22"/>
    <rect x="0"  y="0" height="1.09979" width="250" style="fill: #05a485"/>
    <rect x="0"  y="0" height="3.34168" width="250" style="fill: #846248"/>
    <rect x="0"  y="0" height="1.60739" width="250" style="fill: #987550"/>
    <rect x="0"  y="0" height="218.284" width="250" style="fill: #aaf209"/>
    <rect x="0"  y="0" height="2.07269" width="250" style="fill: #4ec59e"/>
    <rect x="0"  y="0" height="5.01675" width="250" style="fill: #7931dc"/>
    <rect x="0"  y="0" height="3.97618" width="250" style="fill: #650c74"/>
    <rect x="0"  y="0" height="8.45995" width="250" style="fill: #51cc61"/>
    <rect x="0"  y="0" height="1.64969" width="250" style="fill: #c0cb2c"/>
    <rect x="0"  y="0" height="0.829075" width="250" style="fill: #46a1b3"/>
    <rect x="0"  y="0" height="0.634496" width="250" style="fill: #f2c349"/>
    <rect x="0"  y="0" height="11.6324" width="250" style="fill: #faff76"/>
    <rect x="0"  y="0" height="2.57182" width="250" style="fill: #3c7f8d"/>
    <rect x="0"  y="0" height="3.60394" width="250" style="fill: #14ddff"/>
    <rect x="0"  y="0" height="1.79351" width="250" style="fill: #946351"/>
    <rect x="0"  y="0" height="1.83581" width="250" style="fill: #744378"/>
    <rect x="0"  y="0" height="3.29092" width="250" style="fill: #d62c59"/>
    <rect x="0"  y="0" height="2.41955" width="250" style="fill: #285a8d"/>
    <rect x="0"  y="0" height="0.575277" width="250" style="fill: #791561"/>
    <rect x="0"  y="0" height="1.73429" width="250" style="fill: #4f5a2a"/>
    <rect x="0"  y="0" height="2.60566" width="250" style="fill: #c9e0d6"/>
    <rect x="0"  y="0" height="0.854455" width="250" style="fill: #8aca62"/>
    <rect x="0"  y="0" height="2.14883" width="250" style="fill: #48a922"/>
    <rect x="0"  y="0" height="4.05232" width="250" style="fill: #7ab8f1"/>
    <rect x="0"  y="0" height="0.871375" width="250" style="fill: #930ee3"/>
    <rect x="0"  y="0" height="0.321478" width="250" style="fill: #8ac7a9"/>
    <rect x="0"  y="0" height="0.211499" width="250" style="fill: #d239c9"/>
    <rect x="0"  y="0" height="4.85601" width="250" style="fill: #b026a4"/>
    <rect x="0"  y="0" height="0.329938" width="250" style="fill: #81e49d"/>
    <rect x="0"  y="0" height="11.5309" width="250" style="fill: #53161f"/>
    <rect x="0"  y="0" height="4.49223" width="250" style="fill: #9a9513"/>
    <rect x="0"  y="0" height="1.24361" width="250" style="fill: #fe5271"/>
    <rect x="0"  y="0" height="1.26053" width="250" style="fill: #c32e9c"/>
    <rect x="0"  y="0" height="0.363778" width="250" style="fill: #21d156"/>
</svg>
</svg>
