<svg  xmlns="http://www.w3.org/2000/svg" xmlns:xlink="http://www.w3.org/1999/xlink" x="0" y="0" width="600" height="600">
<rect x="0%" y="0%" height="100%" width="100%" style="fill: #ffffff"/>
<svg x="0" y="0">
  <text fill="dark" font-size="35" transform="translate(250, 30)">cores</text>
</svg>
<svg x="0" y="0"> 
  <text fill="dark" font-size="35" transform="translate(30, 300) rotate(270)">time</text>
</svg>
<svg x = "50" y="550">
  <text fill="blue" font-size="30" transform="translate(0, 35)">t = 83s, lb = 0.241075</text>
</svg>
<svg x="50" y="50" width="500" height="500" >
  <rect x="0%" y="0%" height="100%" width="100%" style="fill: #eeeeee"/>
    <rect x="0"  y="0" height="3.48422" width="55.5556" style="fill: #76931f"/>
    <rect x="222.222"  y="0" height="8.12984" width="55.5556" style="fill: #ac9dab"/>
    <rect x="111.111"  y="0" height="4.43121" width="55.5556" style="fill: #2b36c2"/>
    <rect x="55.5556"  y="0" height="11.4175" width="55.5556" style="fill: #48b87d"/>
    <rect x="333.333"  y="0" height="0.77427" width="55.5556" style="fill: #6ae33f"/>
    <rect x="277.778"  y="0" height="3.1626" width="55.5556" style="fill: #9a62d7"/>
    <rect x="166.667"  y="0" height="2.23943" width="55.5556" style="fill: #183a5d"/>
    <rect x="388.889"  y="0" height="0.470518" width="55.5556" style="fill: #5789e4"/>
    <rect x="388.889"  y="0" height="0.506254" width="55.5556" style="fill: #b2d6b4"/>
    <rect x="333.333"  y="0" height="0.863609" width="55.5556" style="fill: #41e241"/>
    <rect x="388.889"  y="0" height="2.8112" width="55.5556" style="fill: #1dc709"/>
    <rect x="333.333"  y="0" height="2.32281" width="55.5556" style="fill: #e111c7"/>
    <rect x="166.667"  y="0" height="5.73556" width="55.5556" style="fill: #e1e7ac"/>
    <rect x="277.778"  y="0" height="3.12686" width="55.5556" style="fill: #b6f8ca"/>
    <rect x="0"  y="0" height="0.48243" width="55.5556" style="fill: #c0bb2f"/>
    <rect x="388.889"  y="0" height="0.655152" width="55.5556" style="fill: #c4c8bc"/>
    <rect x="0"  y="0" height="1.79869" width="55.5556" style="fill: #2ae3ba"/>
    <rect x="333.333"  y="0" height="1.95354" width="55.5556" style="fill: #aab916"/>
    <rect x="111.111"  y="0" height="3.2698" width="55.5556" style="fill: #5cc458"/>
    <rect x="388.889"  y="0" height="2.22156" width="55.5556" style="fill: #e199cb"/>
    <rect x="0"  y="0" height="7.37939" width="55.5556" style="fill: #89f51b"/>
    <rect x="333.333"  y="0" height="0.476474" width="55.5556" style="fill: #135f70"/>
    <rect x="277.778"  y="0" height="2.90649" width="55.5556" style="fill: #91a5ab"/>
    <rect x="333.333"  y="0" height="22.9184" width="55.5556" style="fill: #b0874d"/>
    <rect x="388.889"  y="0" height="5.14592" width="55.5556" style="fill: #f3e8cb"/>
    <rect x="111.111"  y="0" height="2.14413" width="55.5556" style="fill: #4543a5"/>
    <rect x="166.667"  y="0" height="36.3371" width="55.5556" style="fill: #eb93b0"/>
    <rect x="222.222"  y="0" height="23.514" width="55.5556" style="fill: #441e9c"/>
    <rect x="277.778"  y="0" height="2.88267" width="55.5556" style="fill: #a4c2b0"/>
    <rect x="111.111"  y="0" height="2.6087" width="55.5556" style="fill: #fb3d30"/>
    <rect x="55.5556"  y="0" height="5.90232" width="55.5556" style="fill: #875cbf"/>
    <rect x="388.889"  y="0" height="0.506254" width="55.5556" style="fill: #29abd5"/>
    <rect x="277.778"  y="0" height="0.64324" width="55.5556" style="fill: #b1acf3"/>
    <rect x="388.889"  y="0" height="5.80107" width="55.5556" style="fill: #8984b3"/>
    <rect x="111.111"  y="0" height="3.15068" width="55.5556" style="fill: #5ae882"/>
    <rect x="277.778"  y="0" height="2.97201" width="55.5556" style="fill: #809dd4"/>
    <rect x="0"  y="0" height="0.565813" width="55.5556" style="fill: #cfe7ab"/>
    <rect x="0"  y="0" height="0.899345" width="55.5556" style="fill: #c5c61b"/>
    <rect x="0"  y="0" height="7.55807" width="55.5556" style="fill: #aa52e0"/>
    <rect x="111.111"  y="0" height="0.77427" width="55.5556" style="fill: #53b4c3"/>
    <rect x="277.778"  y="0" height="1.22096" width="55.5556" style="fill: #643f20"/>
    <rect x="111.111"  y="0" height="0.917213" width="55.5556" style="fill: #4ef259"/>
    <rect x="277.778"  y="0" height="4.5265" width="55.5556" style="fill: #d2e980"/>
    <rect x="111.111"  y="0" height="3.24598" width="55.5556" style="fill: #42a948"/>
    <rect x="55.5556"  y="0" height="1.48303" width="55.5556" style="fill: #aac5e8"/>
    <rect x="388.889"  y="0" height="1.14354" width="55.5556" style="fill: #84cb3e"/>
    <rect x="55.5556"  y="0" height="30.3335" width="55.5556" style="fill: #c7db92"/>
    <rect x="388.889"  y="0" height="2.31686" width="55.5556" style="fill: #5643fd"/>
    <rect x="111.111"  y="0" height="4.38356" width="55.5556" style="fill: #34fdd4"/>
    <rect x="277.778"  y="0" height="16.3252" width="55.5556" style="fill: #67e2cc"/>
    <rect x="388.889"  y="0" height="1.41155" width="55.5556" style="fill: #a40603"/>
    <rect x="0"  y="0" height="1.9595" width="55.5556" style="fill: #5cb274"/>
    <rect x="388.889"  y="0" height="1.82251" width="55.5556" style="fill: #4cb90a"/>
    <rect x="0"  y="0" height="475.843" width="55.5556" style="fill: #63e51c"/>
    <rect x="388.889"  y="0" height="3.46039" width="55.5556" style="fill: #973790"/>
    <rect x="111.111"  y="0" height="36.8851" width="55.5556" style="fill: #334394"/>
    <rect x="388.889"  y="0" height="3.67481" width="55.5556" style="fill: #7e0208"/>
    <rect x="333.333"  y="0" height="9.28529" width="55.5556" style="fill: #6541e4"/>
    <rect x="222.222"  y="0" height="0.488386" width="55.5556" style="fill: #c48a99"/>
    <rect x="388.889"  y="0" height="5.73556" width="55.5556" style="fill: #630aa9"/>
    <rect x="222.222"  y="0" height="3.8654" width="55.5556" style="fill: #aece15"/>
    <rect x="222.222"  y="0" height="0.541989" width="55.5556" style="fill: #3843a4"/>
    <rect x="222.222"  y="0" height="0.970816" width="55.5556" style="fill: #b19027"/>
    <rect x="222.222"  y="0" height="0.845742" width="55.5556" style="fill: #4ebc95"/>
    <rect x="388.889"  y="0" height="3.25194" width="55.5556" style="fill: #5f8592"/>
    <rect x="277.778"  y="0" height="1.85229" width="55.5556" style="fill: #e30a22"/>
    <rect x="222.222"  y="0" height="2.6087" width="55.5556" style="fill: #05a485"/>
    <rect x="333.333"  y="0" height="1.52472" width="55.5556" style="fill: #846248"/>
    <rect x="277.778"  y="0" height="1.97737" width="55.5556" style="fill: #987550"/>
    <rect x="333.333"  y="0" height="0.541989" width="55.5556" style="fill: #aaf209"/>
    <rect x="333.333"  y="0" height="2.13818" width="55.5556" style="fill: #4ec59e"/>
    <rect x="388.889"  y="0" height="15.8011" width="55.5556" style="fill: #7931dc"/>
    <rect x="222.222"  y="0" height="0.470518" width="55.5556" style="fill: #650c74"/>
    <rect x="222.222"  y="0" height="2.44789" width="55.5556" style="fill: #51cc61"/>
    <rect x="277.778"  y="0" height="0.702799" width="55.5556" style="fill: #c0cb2c"/>
    <rect x="277.778"  y="0" height="2.05479" width="55.5556" style="fill: #46a1b3"/>
    <rect x="333.333"  y="0" height="17.5819" width="55.5556" style="fill: #f2c349"/>
    <rect x="222.222"  y="0" height="0.470518" width="55.5556" style="fill: #faff76"/>
    <rect x="166.667"  y="0" height="2.42406" width="55.5556" style="fill: #3c7f8d"/>
    <rect x="222.222"  y="0" height="0.470518" width="55.5556" style="fill: #14ddff"/>
    <rect x="277.778"  y="0" height="2.88267" width="55.5556" style="fill: #946351"/>
    <rect x="222.222"  y="0" height="3.73437" width="55.5556" style="fill: #744378"/>
    <rect x="166.667"  y="0" height="8.82073" width="55.5556" style="fill: #d62c59"/>
    <rect x="277.778"  y="0" height="5.86659" width="55.5556" style="fill: #285a8d"/>
    <rect x="222.222"  y="0" height="1.94759" width="55.5556" style="fill: #791561"/>
    <rect x="55.5556"  y="0" height="1.17332" width="55.5556" style="fill: #4f5a2a"/>
    <rect x="55.5556"  y="0" height="2.3645" width="55.5556" style="fill: #c9e0d6"/>
    <rect x="222.222"  y="0" height="1.99524" width="55.5556" style="fill: #8aca62"/>
    <rect x="222.222"  y="0" height="28.4276" width="55.5556" style="fill: #48a922"/>
    <rect x="55.5556"  y="0" height="22.2752" width="55.5556" style="fill: #7ab8f1"/>
    <rect x="277.778"  y="0" height="0.518166" width="55.5556" style="fill: #930ee3"/>
    <rect x="277.778"  y="0" height="4.00834" width="55.5556" style="fill: #8ac7a9"/>
    <rect x="166.667"  y="0" height="0.684932" width="55.5556" style="fill: #d239c9"/>
    <rect x="166.667"  y="0" height="1.19119" width="55.5556" style="fill: #b026a4"/>
    <rect x="388.889"  y="0" height="1.31626" width="55.5556" style="fill: #81e49d"/>
    <rect x="166.667"  y="0" height="0.506254" width="55.5556" style="fill: #53161f"/>
    <rect x="277.778"  y="0" height="1.4592" width="55.5556" style="fill: #9a9513"/>
    <rect x="166.667"  y="0" height="0.51221" width="55.5556" style="fill: #fe5271"/>
    <rect x="388.889"  y="0" height="8.78499" width="55.5556" style="fill: #c32e9c"/>
    <rect x="166.667"  y="0" height="1.88207" width="55.5556" style="fill: #21d156"/>
</svg>
</svg>
