<svg  xmlns="http://www.w3.org/2000/svg" xmlns:xlink="http://www.w3.org/1999/xlink" x="0" y="0" width="600" height="600">
<rect x="0%" y="0%" height="100%" width="100%" style="fill: #ffffff"/>
<svg x="0" y="0">
  <text fill="dark" font-size="35" transform="translate(250, 30)">cores</text>
</svg>
<svg x="0" y="0"> 
  <text fill="dark" font-size="35" transform="translate(30, 300) rotate(270)">time</text>
</svg>
<svg x = "50" y="550">
  <text fill="blue" font-size="30" transform="translate(0, 35)">t = 14s, lb = 0.808896</text>
</svg>
<svg x="50" y="50" width="500" height="500" >
  <rect x="0%" y="0%" height="100%" width="100%" style="fill: #eeeeee"/>
    <rect x="0"  y="0" height="35.968" width="55.5556" style="fill: #76931f"/>
    <rect x="222.222"  y="0" height="24.5822" width="55.5556" style="fill: #ac9dab"/>
    <rect x="111.111"  y="0" height="8.32173" width="55.5556" style="fill: #2b36c2"/>
    <rect x="55.5556"  y="0" height="11.2465" width="55.5556" style="fill: #48b87d"/>
    <rect x="333.333"  y="0" height="5.50139" width="55.5556" style="fill: #6ae33f"/>
    <rect x="277.778"  y="0" height="4.31755" width="55.5556" style="fill: #9a62d7"/>
    <rect x="166.667"  y="0" height="7.38162" width="55.5556" style="fill: #183a5d"/>
    <rect x="388.889"  y="0" height="6.02368" width="55.5556" style="fill: #5789e4"/>
    <rect x="277.778"  y="0" height="2.7507" width="55.5556" style="fill: #b2d6b4"/>
    <rect x="333.333"  y="0" height="104.735" width="55.5556" style="fill: #41e241"/>
    <rect x="388.889"  y="0" height="47.3189" width="55.5556" style="fill: #1dc709"/>
    <rect x="277.778"  y="0" height="8.73955" width="55.5556" style="fill: #e111c7"/>
    <rect x="166.667"  y="0" height="4.35237" width="55.5556" style="fill: #e1e7ac"/>
    <rect x="111.111"  y="0" height="8.49582" width="55.5556" style="fill: #b6f8ca"/>
    <rect x="55.5556"  y="0" height="2.7507" width="55.5556" style="fill: #c0bb2f"/>
    <rect x="166.667"  y="0" height="5.64067" width="55.5556" style="fill: #c4c8bc"/>
    <rect x="55.5556"  y="0" height="7.1727" width="55.5556" style="fill: #2ae3ba"/>
    <rect x="277.778"  y="0" height="10.6894" width="55.5556" style="fill: #aab916"/>
    <rect x="111.111"  y="0" height="2.78552" width="55.5556" style="fill: #5cc458"/>
    <rect x="166.667"  y="0" height="13.266" width="55.5556" style="fill: #e199cb"/>
    <rect x="111.111"  y="0" height="21.9011" width="55.5556" style="fill: #89f51b"/>
    <rect x="55.5556"  y="0" height="3.20334" width="55.5556" style="fill: #135f70"/>
    <rect x="55.5556"  y="0" height="11.8733" width="55.5556" style="fill: #91a5ab"/>
    <rect x="222.222"  y="0" height="32.4861" width="55.5556" style="fill: #b0874d"/>
    <rect x="277.778"  y="0" height="14.9721" width="55.5556" style="fill: #f3e8cb"/>
    <rect x="166.667"  y="0" height="6.75487" width="55.5556" style="fill: #4543a5"/>
    <rect x="0"  y="0" height="2.82033" width="55.5556" style="fill: #eb93b0"/>
    <rect x="55.5556"  y="0" height="17.5139" width="55.5556" style="fill: #441e9c"/>
    <rect x="166.667"  y="0" height="20.7869" width="55.5556" style="fill: #a4c2b0"/>
    <rect x="0"  y="0" height="2.7507" width="55.5556" style="fill: #fb3d30"/>
    <rect x="111.111"  y="0" height="118.767" width="55.5556" style="fill: #875cbf"/>
    <rect x="0"  y="0" height="2.71588" width="55.5556" style="fill: #29abd5"/>
    <rect x="277.778"  y="0" height="3.3078" width="55.5556" style="fill: #b1acf3"/>
    <rect x="0"  y="0" height="353.447" width="55.5556" style="fill: #8984b3"/>
    <rect x="277.778"  y="0" height="11.8733" width="55.5556" style="fill: #5ae882"/>
    <rect x="388.889"  y="0" height="18.9067" width="55.5556" style="fill: #809dd4"/>
    <rect x="55.5556"  y="0" height="10.8287" width="55.5556" style="fill: #cfe7ab"/>
    <rect x="277.778"  y="0" height="28.3774" width="55.5556" style="fill: #c5c61b"/>
    <rect x="222.222"  y="0" height="32.1727" width="55.5556" style="fill: #aa52e0"/>
    <rect x="166.667"  y="0" height="21.2047" width="55.5556" style="fill: #53b4c3"/>
    <rect x="55.5556"  y="0" height="19.812" width="55.5556" style="fill: #643f20"/>
    <rect x="388.889"  y="0" height="21.8663" width="55.5556" style="fill: #4ef259"/>
    <rect x="166.667"  y="0" height="69.2549" width="55.5556" style="fill: #d2e980"/>
    <rect x="55.5556"  y="0" height="15.8078" width="55.5556" style="fill: #42a948"/>
    <rect x="277.778"  y="0" height="13.1964" width="55.5556" style="fill: #aac5e8"/>
    <rect x="222.222"  y="0" height="12.6741" width="55.5556" style="fill: #84cb3e"/>
    <rect x="388.889"  y="0" height="10.1671" width="55.5556" style="fill: #c7db92"/>
    <rect x="277.778"  y="0" height="6.47632" width="55.5556" style="fill: #5643fd"/>
    <rect x="55.5556"  y="0" height="40.4248" width="55.5556" style="fill: #34fdd4"/>
    <rect x="222.222"  y="0" height="20.2298" width="55.5556" style="fill: #67e2cc"/>
    <rect x="388.889"  y="0" height="7.62535" width="55.5556" style="fill: #a40603"/>
    <rect x="277.778"  y="0" height="50.8357" width="55.5556" style="fill: #5cb274"/>
    <rect x="333.333"  y="0" height="13.8231" width="55.5556" style="fill: #4cb90a"/>
    <rect x="388.889"  y="0" height="52.6811" width="55.5556" style="fill: #63e51c"/>
    <rect x="222.222"  y="0" height="18.1058" width="55.5556" style="fill: #973790"/>
    <rect x="333.333"  y="0" height="46.2744" width="55.5556" style="fill: #334394"/>
    <rect x="222.222"  y="0" height="7.48607" width="55.5556" style="fill: #7e0208"/>
    <rect x="55.5556"  y="0" height="17.7577" width="55.5556" style="fill: #6541e4"/>
    <rect x="222.222"  y="0" height="8.6351" width="55.5556" style="fill: #c48a99"/>
    <rect x="166.667"  y="0" height="6.75487" width="55.5556" style="fill: #630aa9"/>
    <rect x="166.667"  y="0" height="10.6198" width="55.5556" style="fill: #aece15"/>
    <rect x="277.778"  y="0" height="3.65599" width="55.5556" style="fill: #3843a4"/>
    <rect x="222.222"  y="0" height="159.923" width="55.5556" style="fill: #b19027"/>
    <rect x="55.5556"  y="0" height="2.82033" width="55.5556" style="fill: #4ebc95"/>
    <rect x="277.778"  y="0" height="3.89972" width="55.5556" style="fill: #5f8592"/>
    <rect x="111.111"  y="0" height="38.0571" width="55.5556" style="fill: #e30a22"/>
    <rect x="55.5556"  y="0" height="10.3064" width="55.5556" style="fill: #05a485"/>
    <rect x="277.778"  y="0" height="12.7437" width="55.5556" style="fill: #846248"/>
    <rect x="388.889"  y="0" height="2.7507" width="55.5556" style="fill: #987550"/>
    <rect x="166.667"  y="0" height="77.9596" width="55.5556" style="fill: #aaf209"/>
    <rect x="388.889"  y="0" height="18.8719" width="55.5556" style="fill: #4ec59e"/>
    <rect x="333.333"  y="0" height="103.447" width="55.5556" style="fill: #7931dc"/>
    <rect x="55.5556"  y="0" height="233.217" width="55.5556" style="fill: #650c74"/>
    <rect x="277.778"  y="0" height="24.5125" width="55.5556" style="fill: #51cc61"/>
    <rect x="388.889"  y="0" height="235.446" width="55.5556" style="fill: #c0cb2c"/>
    <rect x="111.111"  y="0" height="2.82033" width="55.5556" style="fill: #46a1b3"/>
    <rect x="277.778"  y="0" height="9.64485" width="55.5556" style="fill: #f2c349"/>
    <rect x="111.111"  y="0" height="187.987" width="55.5556" style="fill: #faff76"/>
    <rect x="277.778"  y="0" height="66.4694" width="55.5556" style="fill: #3c7f8d"/>
    <rect x="166.667"  y="0" height="4.63092" width="55.5556" style="fill: #14ddff"/>
    <rect x="166.667"  y="0" height="30.7799" width="55.5556" style="fill: #946351"/>
    <rect x="333.333"  y="0" height="9.3663" width="55.5556" style="fill: #744378"/>
    <rect x="277.778"  y="0" height="2.7507" width="55.5556" style="fill: #d62c59"/>
    <rect x="277.778"  y="0" height="21.2396" width="55.5556" style="fill: #285a8d"/>
    <rect x="166.667"  y="0" height="9.29666" width="55.5556" style="fill: #791561"/>
    <rect x="333.333"  y="0" height="4.07382" width="55.5556" style="fill: #4f5a2a"/>
    <rect x="333.333"  y="0" height="14.032" width="55.5556" style="fill: #c9e0d6"/>
    <rect x="166.667"  y="0" height="7.79944" width="55.5556" style="fill: #8aca62"/>
    <rect x="166.667"  y="0" height="2.95961" width="55.5556" style="fill: #48a922"/>
    <rect x="166.667"  y="0" height="22.11" width="55.5556" style="fill: #7ab8f1"/>
    <rect x="277.778"  y="0" height="16.9568" width="55.5556" style="fill: #930ee3"/>
    <rect x="333.333"  y="0" height="67.0961" width="55.5556" style="fill: #8ac7a9"/>
    <rect x="222.222"  y="0" height="47.5279" width="55.5556" style="fill: #d239c9"/>
    <rect x="277.778"  y="0" height="10.585" width="55.5556" style="fill: #b026a4"/>
    <rect x="166.667"  y="0" height="5.08357" width="55.5556" style="fill: #81e49d"/>
    <rect x="166.667"  y="0" height="9.22702" width="55.5556" style="fill: #53161f"/>
    <rect x="277.778"  y="0" height="18.071" width="55.5556" style="fill: #9a9513"/>
    <rect x="166.667"  y="0" height="49.8955" width="55.5556" style="fill: #fe5271"/>
    <rect x="277.778"  y="0" height="153.308" width="55.5556" style="fill: #c32e9c"/>
    <rect x="222.222"  y="0" height="5.04875" width="55.5556" style="fill: #21d156"/>
</svg>
</svg>
