<svg  xmlns="http://www.w3.org/2000/svg" xmlns:xlink="http://www.w3.org/1999/xlink" x="0" y="0" width="600" height="600">
<rect x="0%" y="0%" height="100%" width="100%" style="fill: #ffffff"/>
<svg x="0" y="0">
  <text fill="dark" font-size="35" transform="translate(250, 30)">cores</text>
</svg>
<svg x="0" y="0"> 
  <text fill="dark" font-size="35" transform="translate(30, 300) rotate(270)">time</text>
</svg>
<svg x = "50" y="550">
  <text fill="blue" font-size="30" transform="translate(0, 35)">t = 17s, lb = 0.996592</text>
</svg>
<svg x="50" y="50" width="500" height="500" >
  <rect x="0%" y="0%" height="100%" width="100%" style="fill: #eeeeee"/>
    <rect x="0"  y="0" height="234.007" width="250" style="fill: #3b0006"/>
    <rect x="0"  y="0" height="29.5827" width="250" style="fill: #8c8ffe"/>
    <rect x="0"  y="0" height="18.9955" width="250" style="fill: #dedec2"/>
    <rect x="0"  y="0" height="7.17917" width="250" style="fill: #826d11"/>
    <rect x="0"  y="0" height="17.934" width="250" style="fill: #4dc1f8"/>
    <rect x="0"  y="0" height="4.49746" width="250" style="fill: #824924"/>
    <rect x="0"  y="0" height="39.2759" width="250" style="fill: #fa0790"/>
    <rect x="0"  y="0" height="3.79909" width="250" style="fill: #56e25a"/>
    <rect x="0"  y="0" height="5.19582" width="250" style="fill: #5ddbae"/>
    <rect x="0"  y="0" height="10.5592" width="250" style="fill: #ceb90a"/>
    <rect x="0"  y="0" height="3.12867" width="250" style="fill: #18c51f"/>
    <rect x="0"  y="0" height="13.7997" width="250" style="fill: #919a83"/>
    <rect x="0"  y="0" height="2.03922" width="250" style="fill: #ae980e"/>
    <rect x="0"  y="0" height="2.20683" width="250" style="fill: #25bf06"/>
    <rect x="0"  y="0" height="2.06715" width="250" style="fill: #dd4864"/>
    <rect x="0"  y="0" height="2.03922" width="250" style="fill: #27dfde"/>
    <rect x="0"  y="0" height="2.17889" width="250" style="fill: #e6f708"/>
    <rect x="0"  y="0" height="2.56998" width="250" style="fill: #aa6426"/>
    <rect x="0"  y="0" height="1.92748" width="250" style="fill: #25ce4c"/>
    <rect x="0"  y="0" height="2.93312" width="250" style="fill: #4298af"/>
    <rect x="0"  y="0" height="2.62585" width="250" style="fill: #dd7ac4"/>
    <rect x="0"  y="0" height="2.48617" width="250" style="fill: #8aa81b"/>
    <rect x="0"  y="0" height="1.98335" width="250" style="fill: #0c5608"/>
    <rect x="0"  y="0" height="3.21247" width="250" style="fill: #c2d801"/>
    <rect x="0"  y="0" height="6.62048" width="250" style="fill: #543ede"/>
    <rect x="0"  y="0" height="1.59227" width="250" style="fill: #eab547"/>
    <rect x="0"  y="0" height="1.98335" width="250" style="fill: #9c1342"/>
    <rect x="0"  y="0" height="1.78781" width="250" style="fill: #e4e4ae"/>
    <rect x="0"  y="0" height="1.25705" width="250" style="fill: #c719f1"/>
    <rect x="0"  y="0" height="1.64814" width="250" style="fill: #a46e33"/>
    <rect x="0"  y="0" height="1.11738" width="250" style="fill: #c1d761"/>
    <rect x="0"  y="0" height="1.06151" width="250" style="fill: #efdf22"/>
    <rect x="0"  y="0" height="2.09509" width="250" style="fill: #116051"/>
    <rect x="0"  y="0" height="1.36879" width="250" style="fill: #e18fa7"/>
    <rect x="0"  y="0" height="1.25705" width="250" style="fill: #14c72f"/>
    <rect x="0"  y="0" height="9.97262" width="250" style="fill: #ae0756"/>
    <rect x="0"  y="0" height="1.36879" width="250" style="fill: #835527"/>
    <rect x="0"  y="0" height="1.25705" width="250" style="fill: #748e4d"/>
    <rect x="0"  y="0" height="4.02257" width="250" style="fill: #f2e728"/>
    <rect x="0"  y="0" height="1.14532" width="250" style="fill: #e3daaf"/>
    <rect x="0"  y="0" height="1.39673" width="250" style="fill: #94e9b3"/>
    <rect x="0"  y="0" height="1.00564" width="250" style="fill: #f37489"/>
    <rect x="0"  y="0" height="1.22912" width="250" style="fill: #c0d4e1"/>
    <rect x="0"  y="0" height="1.36879" width="250" style="fill: #2d4046"/>
    <rect x="0"  y="0" height="1.17325" width="250" style="fill: #9296d3"/>
    <rect x="0"  y="0" height="1.20118" width="250" style="fill: #567302"/>
    <rect x="0"  y="0" height="1.14532" width="250" style="fill: #7f5e4d"/>
    <rect x="0"  y="0" height="1.31292" width="250" style="fill: #70d54b"/>
    <rect x="0"  y="0" height="1.75987" width="250" style="fill: #668a7c"/>
    <rect x="0"  y="0" height="1.70401" width="250" style="fill: #00f96c"/>
    <rect x="0"  y="0" height="1.00564" width="250" style="fill: #cb23f2"/>
    <rect x="0"  y="0" height="0.893905" width="250" style="fill: #562a46"/>
    <rect x="0"  y="0" height="0.977708" width="250" style="fill: #8b650a"/>
    <rect x="0"  y="0" height="0.977708" width="250" style="fill: #171918"/>
    <rect x="0"  y="0" height="0.86597" width="250" style="fill: #6285be"/>
    <rect x="0"  y="0" height="0.838036" width="250" style="fill: #1893b8"/>
    <rect x="0"  y="0" height="0.921839" width="250" style="fill: #61e8b2"/>
    <rect x="0"  y="0" height="1.22912" width="250" style="fill: #e3e49e"/>
    <rect x="0"  y="0" height="0.754232" width="250" style="fill: #ea5f37"/>
    <rect x="0"  y="0" height="0.754232" width="250" style="fill: #799fe4"/>
    <rect x="0"  y="0" height="0.754232" width="250" style="fill: #dfc738"/>
    <rect x="0"  y="0" height="0.921839" width="250" style="fill: #f99e14"/>
    <rect x="0"  y="0" height="0.754232" width="250" style="fill: #0f8e31"/>
    <rect x="0"  y="0" height="1.89955" width="250" style="fill: #d1b21e"/>
    <rect x="0"  y="0" height="0.977708" width="250" style="fill: #988286"/>
    <rect x="0"  y="0" height="0.838036" width="250" style="fill: #7563c9"/>
    <rect x="0"  y="0" height="1.39673" width="250" style="fill: #bc24a3"/>
    <rect x="0"  y="0" height="0.782167" width="250" style="fill: #9a2195"/>
    <rect x="0"  y="0" height="0.782167" width="250" style="fill: #266d87"/>
    <rect x="0"  y="0" height="0.838036" width="250" style="fill: #b20348"/>
    <rect x="0"  y="0" height="0.754232" width="250" style="fill: #abd0fa"/>
    <rect x="0"  y="0" height="0.614559" width="250" style="fill: #9a6bf0"/>
    <rect x="0"  y="0" height="0.614559" width="250" style="fill: #e8a093"/>
    <rect x="0"  y="0" height="0.530756" width="250" style="fill: #5b9b82"/>
    <rect x="0"  y="0" height="0.419018" width="250" style="fill: #334378"/>
    <rect x="0"  y="0" height="0.55869" width="250" style="fill: #b14813"/>
    <rect x="0"  y="0" height="0.391083" width="250" style="fill: #2ad85c"/>
    <rect x="0"  y="0" height="0.446952" width="250" style="fill: #83433d"/>
    <rect x="0"  y="0" height="0.530756" width="250" style="fill: #688030"/>
    <rect x="0"  y="0" height="0.391083" width="250" style="fill: #26469b"/>
    <rect x="0"  y="0" height="0.474887" width="250" style="fill: #e4c2dd"/>
    <rect x="0"  y="0" height="0.335214" width="250" style="fill: #5f738c"/>
    <rect x="0"  y="0" height="0.419018" width="250" style="fill: #f0f432"/>
    <rect x="0"  y="0" height="0.195542" width="250" style="fill: #1aaaad"/>
    <rect x="0"  y="0" height="0.363149" width="250" style="fill: #ac4e2d"/>
    <rect x="0"  y="0" height="0.419018" width="250" style="fill: #90253f"/>
    <rect x="0"  y="0" height="0.530756" width="250" style="fill: #28e9b6"/>
    <rect x="0"  y="0" height="0.279345" width="250" style="fill: #5b74fa"/>
    <rect x="0"  y="0" height="0.167607" width="250" style="fill: #6040ae"/>
    <rect x="0"  y="0" height="0.251411" width="250" style="fill: #e5a23c"/>
    <rect x="0"  y="0" height="0.223476" width="250" style="fill: #fdd120"/>
    <rect x="0"  y="0" height="0.223476" width="250" style="fill: #058fe4"/>
    <rect x="0"  y="0" height="0.167607" width="250" style="fill: #54fc8e"/>
    <rect x="0"  y="0" height="0.139673" width="250" style="fill: #7febf9"/>
    <rect x="0"  y="0" height="0.139673" width="250" style="fill: #ade4f1"/>
    <rect x="0"  y="0" height="0.139673" width="250" style="fill: #1fee01"/>
    <rect x="0"  y="0" height="0.111738" width="250" style="fill: #e16604"/>
    <rect x="0"  y="0" height="0.111738" width="250" style="fill: #a58921"/>
    <rect x="0"  y="0" height="0.055869" width="250" style="fill: #79064f"/>
    <rect x="0"  y="0" height="0.055869" width="250" style="fill: #fedd3c"/>
</svg>
</svg>
