<svg  xmlns="http://www.w3.org/2000/svg" xmlns:xlink="http://www.w3.org/1999/xlink" x="0" y="0" width="600" height="600">
<rect x="0%" y="0%" height="100%" width="100%" style="fill: #ffffff"/>
<svg x="0" y="0">
  <text fill="dark" font-size="35" transform="translate(250, 30)">cores</text>
</svg>
<svg x="0" y="0"> 
  <text fill="dark" font-size="35" transform="translate(30, 300) rotate(270)">time</text>
</svg>
<svg x = "50" y="550">
  <text fill="blue" font-size="30" transform="translate(0, 35)">t = 9s, lb = 0.898750</text>
</svg>
<svg x="50" y="50" width="500" height="500" >
  <rect x="0%" y="0%" height="100%" width="100%" style="fill: #eeeeee"/>
    <rect x="0"  y="0" height="12.8842" width="55.5556" style="fill: #76931f"/>
    <rect x="222.222"  y="0" height="18.576" width="55.5556" style="fill: #ac9dab"/>
    <rect x="111.111"  y="0" height="56.1937" width="55.5556" style="fill: #2b36c2"/>
    <rect x="55.5556"  y="0" height="8.43423" width="55.5556" style="fill: #48b87d"/>
    <rect x="333.333"  y="0" height="31.3567" width="55.5556" style="fill: #6ae33f"/>
    <rect x="277.778"  y="0" height="22.5603" width="55.5556" style="fill: #9a62d7"/>
    <rect x="166.667"  y="0" height="10.8662" width="55.5556" style="fill: #183a5d"/>
    <rect x="388.889"  y="0" height="17.6964" width="55.5556" style="fill: #5789e4"/>
    <rect x="55.5556"  y="0" height="29.9596" width="55.5556" style="fill: #b2d6b4"/>
    <rect x="166.667"  y="0" height="19.3522" width="55.5556" style="fill: #41e241"/>
    <rect x="0"  y="0" height="25.1475" width="55.5556" style="fill: #1dc709"/>
    <rect x="388.889"  y="0" height="94.6393" width="55.5556" style="fill: #e111c7"/>
    <rect x="222.222"  y="0" height="13.1429" width="55.5556" style="fill: #e1e7ac"/>
    <rect x="277.778"  y="0" height="4.86391" width="55.5556" style="fill: #b6f8ca"/>
    <rect x="277.778"  y="0" height="71.3547" width="55.5556" style="fill: #c0bb2f"/>
    <rect x="166.667"  y="0" height="10.2453" width="55.5556" style="fill: #c4c8bc"/>
    <rect x="333.333"  y="0" height="81.2895" width="55.5556" style="fill: #2ae3ba"/>
    <rect x="222.222"  y="0" height="5.58833" width="55.5556" style="fill: #aab916"/>
    <rect x="222.222"  y="0" height="15.2127" width="55.5556" style="fill: #5cc458"/>
    <rect x="0"  y="0" height="12.108" width="55.5556" style="fill: #e199cb"/>
    <rect x="55.5556"  y="0" height="5.22612" width="55.5556" style="fill: #89f51b"/>
    <rect x="166.667"  y="0" height="162.32" width="55.5556" style="fill: #135f70"/>
    <rect x="55.5556"  y="0" height="5.95053" width="55.5556" style="fill: #91a5ab"/>
    <rect x="55.5556"  y="0" height="4.29473" width="55.5556" style="fill: #b0874d"/>
    <rect x="0"  y="0" height="133.085" width="55.5556" style="fill: #f3e8cb"/>
    <rect x="222.222"  y="0" height="54.4862" width="55.5556" style="fill: #4543a5"/>
    <rect x="55.5556"  y="0" height="25.0957" width="55.5556" style="fill: #eb93b0"/>
    <rect x="111.111"  y="0" height="5.48484" width="55.5556" style="fill: #441e9c"/>
    <rect x="111.111"  y="0" height="75.4424" width="55.5556" style="fill: #a4c2b0"/>
    <rect x="55.5556"  y="0" height="32.8055" width="55.5556" style="fill: #fb3d30"/>
    <rect x="277.778"  y="0" height="15.6266" width="55.5556" style="fill: #875cbf"/>
    <rect x="222.222"  y="0" height="29.8044" width="55.5556" style="fill: #29abd5"/>
    <rect x="55.5556"  y="0" height="94.1219" width="55.5556" style="fill: #b1acf3"/>
    <rect x="388.889"  y="0" height="24.1643" width="55.5556" style="fill: #8984b3"/>
    <rect x="333.333"  y="0" height="5.89879" width="55.5556" style="fill: #5ae882"/>
    <rect x="277.778"  y="0" height="6.15751" width="55.5556" style="fill: #809dd4"/>
    <rect x="333.333"  y="0" height="20.7492" width="55.5556" style="fill: #cfe7ab"/>
    <rect x="277.778"  y="0" height="15.4196" width="55.5556" style="fill: #c5c61b"/>
    <rect x="277.778"  y="0" height="22.3533" width="55.5556" style="fill: #aa52e0"/>
    <rect x="388.889"  y="0" height="7.29587" width="55.5556" style="fill: #53b4c3"/>
    <rect x="222.222"  y="0" height="71.5616" width="55.5556" style="fill: #643f20"/>
    <rect x="111.111"  y="0" height="145.193" width="55.5556" style="fill: #4ef259"/>
    <rect x="333.333"  y="0" height="16.2993" width="55.5556" style="fill: #d2e980"/>
    <rect x="388.889"  y="0" height="12.5737" width="55.5556" style="fill: #42a948"/>
    <rect x="333.333"  y="0" height="30.0114" width="55.5556" style="fill: #aac5e8"/>
    <rect x="388.889"  y="0" height="16.4545" width="55.5556" style="fill: #84cb3e"/>
    <rect x="277.778"  y="0" height="16.972" width="55.5556" style="fill: #c7db92"/>
    <rect x="388.889"  y="0" height="297.682" width="55.5556" style="fill: #5643fd"/>
    <rect x="277.778"  y="0" height="25.4579" width="55.5556" style="fill: #34fdd4"/>
    <rect x="0"  y="0" height="31.2015" width="55.5556" style="fill: #67e2cc"/>
    <rect x="333.333"  y="0" height="19.5591" width="55.5556" style="fill: #a40603"/>
    <rect x="277.778"  y="0" height="11.0214" width="55.5556" style="fill: #5cb274"/>
    <rect x="166.667"  y="0" height="143.641" width="55.5556" style="fill: #4cb90a"/>
    <rect x="333.333"  y="0" height="6.57146" width="55.5556" style="fill: #63e51c"/>
    <rect x="55.5556"  y="0" height="6.20925" width="55.5556" style="fill: #973790"/>
    <rect x="222.222"  y="0" height="12.108" width="55.5556" style="fill: #334394"/>
    <rect x="333.333"  y="0" height="28.9248" width="55.5556" style="fill: #7e0208"/>
    <rect x="277.778"  y="0" height="6.20925" width="55.5556" style="fill: #6541e4"/>
    <rect x="55.5556"  y="0" height="106.282" width="55.5556" style="fill: #c48a99"/>
    <rect x="0"  y="0" height="9.05516" width="55.5556" style="fill: #630aa9"/>
    <rect x="277.778"  y="0" height="111.611" width="55.5556" style="fill: #aece15"/>
    <rect x="222.222"  y="0" height="18.6278" width="55.5556" style="fill: #3843a4"/>
    <rect x="0"  y="0" height="38.2386" width="55.5556" style="fill: #b19027"/>
    <rect x="222.222"  y="0" height="5.7953" width="55.5556" style="fill: #4ebc95"/>
    <rect x="333.333"  y="0" height="6.6232" width="55.5556" style="fill: #5f8592"/>
    <rect x="222.222"  y="0" height="93.9667" width="55.5556" style="fill: #e30a22"/>
    <rect x="333.333"  y="0" height="18.7312" width="55.5556" style="fill: #05a485"/>
    <rect x="0"  y="0" height="9.41737" width="55.5556" style="fill: #846248"/>
    <rect x="333.333"  y="0" height="28.7695" width="55.5556" style="fill: #987550"/>
    <rect x="0"  y="0" height="19.6626" width="55.5556" style="fill: #aaf209"/>
    <rect x="111.111"  y="0" height="4.39822" width="55.5556" style="fill: #4ec59e"/>
    <rect x="111.111"  y="0" height="163.562" width="55.5556" style="fill: #7931dc"/>
    <rect x="0"  y="0" height="23.3882" width="55.5556" style="fill: #650c74"/>
    <rect x="333.333"  y="0" height="6.67495" width="55.5556" style="fill: #51cc61"/>
    <rect x="333.333"  y="0" height="30.3218" width="55.5556" style="fill: #c0cb2c"/>
    <rect x="0"  y="0" height="12.522" width="55.5556" style="fill: #46a1b3"/>
    <rect x="55.5556"  y="0" height="40.5671" width="55.5556" style="fill: #f2c349"/>
    <rect x="0"  y="0" height="18.6278" width="55.5556" style="fill: #faff76"/>
    <rect x="277.778"  y="0" height="33.0125" width="55.5556" style="fill: #3c7f8d"/>
    <rect x="333.333"  y="0" height="9.77957" width="55.5556" style="fill: #14ddff"/>
    <rect x="222.222"  y="0" height="15.9888" width="55.5556" style="fill: #946351"/>
    <rect x="333.333"  y="0" height="4.50171" width="55.5556" style="fill: #744378"/>
    <rect x="0"  y="0" height="33.7369" width="55.5556" style="fill: #d62c59"/>
    <rect x="166.667"  y="0" height="10.09" width="55.5556" style="fill: #285a8d"/>
    <rect x="333.333"  y="0" height="7.39936" width="55.5556" style="fill: #791561"/>
    <rect x="333.333"  y="0" height="13.4016" width="55.5556" style="fill: #4f5a2a"/>
    <rect x="222.222"  y="0" height="41.9642" width="55.5556" style="fill: #c9e0d6"/>
    <rect x="166.667"  y="0" height="4.70868" width="55.5556" style="fill: #8aca62"/>
    <rect x="55.5556"  y="0" height="112.439" width="55.5556" style="fill: #48a922"/>
    <rect x="166.667"  y="0" height="9.21039" width="55.5556" style="fill: #7ab8f1"/>
    <rect x="277.778"  y="0" height="59.3501" width="55.5556" style="fill: #930ee3"/>
    <rect x="333.333"  y="0" height="19.6626" width="55.5556" style="fill: #8ac7a9"/>
    <rect x="166.667"  y="0" height="17.1272" width="55.5556" style="fill: #d239c9"/>
    <rect x="0"  y="0" height="32.4433" width="55.5556" style="fill: #b026a4"/>
    <rect x="333.333"  y="0" height="112.698" width="55.5556" style="fill: #81e49d"/>
    <rect x="166.667"  y="0" height="4.91566" width="55.5556" style="fill: #53161f"/>
    <rect x="166.667"  y="0" height="27.2172" width="55.5556" style="fill: #9a9513"/>
    <rect x="222.222"  y="0" height="17.2307" width="55.5556" style="fill: #fe5271"/>
    <rect x="0"  y="0" height="5.64007" width="55.5556" style="fill: #c32e9c"/>
    <rect x="222.222"  y="0" height="30.7358" width="55.5556" style="fill: #21d156"/>
</svg>
</svg>
