<svg  xmlns="http://www.w3.org/2000/svg" xmlns:xlink="http://www.w3.org/1999/xlink" x="0" y="0" width="600" height="600">
<rect x="0%" y="0%" height="100%" width="100%" style="fill: #ffffff"/>
<svg x="0" y="0">
  <text fill="dark" font-size="35" transform="translate(250, 30)">cores</text>
</svg>
<svg x="0" y="0"> 
  <text fill="dark" font-size="35" transform="translate(30, 300) rotate(270)">time</text>
</svg>
<svg x = "50" y="550">
  <text fill="blue" font-size="30" transform="translate(0, 35)">t = 23s, lb = 0.997572</text>
</svg>
<svg x="50" y="50" width="500" height="500" >
  <rect x="0%" y="0%" height="100%" width="100%" style="fill: #eeeeee"/>
    <rect x="0"  y="0" height="259.896" width="250" style="fill: #1cbe1f"/>
    <rect x="0"  y="0" height="19.5101" width="250" style="fill: #e87546"/>
    <rect x="0"  y="0" height="59.6792" width="250" style="fill: #fcb28f"/>
    <rect x="0"  y="0" height="13.6354" width="250" style="fill: #35ee4b"/>
    <rect x="0"  y="0" height="13.1801" width="250" style="fill: #1674a0"/>
    <rect x="0"  y="0" height="12.3347" width="250" style="fill: #fbcaae"/>
    <rect x="0"  y="0" height="7.739" width="250" style="fill: #a861da"/>
    <rect x="0"  y="0" height="7.60893" width="250" style="fill: #7c63ef"/>
    <rect x="0"  y="0" height="8.82289" width="250" style="fill: #224008"/>
    <rect x="0"  y="0" height="5.05094" width="250" style="fill: #b1e258"/>
    <rect x="0"  y="0" height="5.18101" width="250" style="fill: #354ffe"/>
    <rect x="0"  y="0" height="2.92651" width="250" style="fill: #d963a3"/>
    <rect x="0"  y="0" height="3.57685" width="250" style="fill: #e2f45d"/>
    <rect x="0"  y="0" height="3.6202" width="250" style="fill: #37f78f"/>
    <rect x="0"  y="0" height="2.42792" width="250" style="fill: #f30d66"/>
    <rect x="0"  y="0" height="2.68806" width="250" style="fill: #69ba8a"/>
    <rect x="0"  y="0" height="2.01604" width="250" style="fill: #864e9e"/>
    <rect x="0"  y="0" height="2.57967" width="250" style="fill: #1700c5"/>
    <rect x="0"  y="0" height="1.51745" width="250" style="fill: #dfdd75"/>
    <rect x="0"  y="0" height="3.79363" width="250" style="fill: #c68d4e"/>
    <rect x="0"  y="0" height="2.66638" width="250" style="fill: #3a7e40"/>
    <rect x="0"  y="0" height="1.69087" width="250" style="fill: #8c6caf"/>
    <rect x="0"  y="0" height="2.01604" width="250" style="fill: #bb7bb3"/>
    <rect x="0"  y="0" height="1.77759" width="250" style="fill: #182e59"/>
    <rect x="0"  y="0" height="1.36571" width="250" style="fill: #320bf4"/>
    <rect x="0"  y="0" height="1.82094" width="250" style="fill: #a2e102"/>
    <rect x="0"  y="0" height="2.40624" width="250" style="fill: #18e758"/>
    <rect x="0"  y="0" height="1.97269" width="250" style="fill: #703ebe"/>
    <rect x="0"  y="0" height="1.19228" width="250" style="fill: #1c63ac"/>
    <rect x="0"  y="0" height="1.23564" width="250" style="fill: #dded9d"/>
    <rect x="0"  y="0" height="1.60416" width="250" style="fill: #13ff4f"/>
    <rect x="0"  y="0" height="1.30067" width="250" style="fill: #167fdc"/>
    <rect x="0"  y="0" height="1.1706" width="250" style="fill: #74ca28"/>
    <rect x="0"  y="0" height="1.58248" width="250" style="fill: #834e7f"/>
    <rect x="0"  y="0" height="1.27899" width="250" style="fill: #a4c815"/>
    <rect x="0"  y="0" height="0.91047" width="250" style="fill: #52841d"/>
    <rect x="0"  y="0" height="1.40906" width="250" style="fill: #323b10"/>
    <rect x="0"  y="0" height="1.10557" width="250" style="fill: #785427"/>
    <rect x="0"  y="0" height="1.10557" width="250" style="fill: #cab082"/>
    <rect x="0"  y="0" height="1.23564" width="250" style="fill: #f36cb7"/>
    <rect x="0"  y="0" height="1.04054" width="250" style="fill: #119a5a"/>
    <rect x="0"  y="0" height="1.23564" width="250" style="fill: #79ca4d"/>
    <rect x="0"  y="0" height="0.932148" width="250" style="fill: #ab5ff7"/>
    <rect x="0"  y="0" height="0.953826" width="250" style="fill: #7b12c9"/>
    <rect x="0"  y="0" height="0.758725" width="250" style="fill: #4bca78"/>
    <rect x="0"  y="0" height="0.953826" width="250" style="fill: #199a3e"/>
    <rect x="0"  y="0" height="1.04054" width="250" style="fill: #4a704b"/>
    <rect x="0"  y="0" height="0.975504" width="250" style="fill: #de72e6"/>
    <rect x="0"  y="0" height="0.932148" width="250" style="fill: #952a7e"/>
    <rect x="0"  y="0" height="0.953826" width="250" style="fill: #3b9051"/>
    <rect x="0"  y="0" height="0.888793" width="250" style="fill: #86a10d"/>
    <rect x="0"  y="0" height="1.10557" width="250" style="fill: #f4774b"/>
    <rect x="0"  y="0" height="0.997182" width="250" style="fill: #219937"/>
    <rect x="0"  y="0" height="0.997182" width="250" style="fill: #0cc263"/>
    <rect x="0"  y="0" height="0.737047" width="250" style="fill: #09e993"/>
    <rect x="0"  y="0" height="0.628658" width="250" style="fill: #a19429"/>
    <rect x="0"  y="0" height="0.498591" width="250" style="fill: #12d891"/>
    <rect x="0"  y="0" height="0.628658" width="250" style="fill: #3b2d55"/>
    <rect x="0"  y="0" height="0.563625" width="250" style="fill: #451177"/>
    <rect x="0"  y="0" height="0.997182" width="250" style="fill: #47130a"/>
    <rect x="0"  y="0" height="0.71537" width="250" style="fill: #6bc0fe"/>
    <rect x="0"  y="0" height="0.520269" width="250" style="fill: #910799"/>
    <rect x="0"  y="0" height="0.433557" width="250" style="fill: #8d5baa"/>
    <rect x="0"  y="0" height="0.585302" width="250" style="fill: #0ef2f6"/>
    <rect x="0"  y="0" height="0.411879" width="250" style="fill: #94da7d"/>
    <rect x="0"  y="0" height="0.325168" width="250" style="fill: #5d81d8"/>
    <rect x="0"  y="0" height="0.411879" width="250" style="fill: #f790e2"/>
    <rect x="0"  y="0" height="0.498591" width="250" style="fill: #96fe19"/>
    <rect x="0"  y="0" height="0.433557" width="250" style="fill: #828747"/>
    <rect x="0"  y="0" height="0.520269" width="250" style="fill: #ddba82"/>
    <rect x="0"  y="0" height="0.628658" width="250" style="fill: #8d00ed"/>
    <rect x="0"  y="0" height="0.455235" width="250" style="fill: #8d41d2"/>
    <rect x="0"  y="0" height="0.650336" width="250" style="fill: #47935a"/>
    <rect x="0"  y="0" height="0.281812" width="250" style="fill: #dec550"/>
    <rect x="0"  y="0" height="0.368524" width="250" style="fill: #c3e8d6"/>
    <rect x="0"  y="0" height="0.346846" width="250" style="fill: #a53a61"/>
    <rect x="0"  y="0" height="0.60698" width="250" style="fill: #8eec0c"/>
    <rect x="0"  y="0" height="0.498591" width="250" style="fill: #f43878"/>
    <rect x="0"  y="0" height="0.390202" width="250" style="fill: #246f9c"/>
    <rect x="0"  y="0" height="0.325168" width="250" style="fill: #f6fdec"/>
    <rect x="0"  y="0" height="0.260134" width="250" style="fill: #382638"/>
    <rect x="0"  y="0" height="0.281812" width="250" style="fill: #7b6676"/>
    <rect x="0"  y="0" height="0.325168" width="250" style="fill: #26a5e2"/>
    <rect x="0"  y="0" height="0.195101" width="250" style="fill: #d16400"/>
    <rect x="0"  y="0" height="0.195101" width="250" style="fill: #0f6fd4"/>
    <rect x="0"  y="0" height="0.281812" width="250" style="fill: #b0cd7f"/>
    <rect x="0"  y="0" height="0.216779" width="250" style="fill: #5eac42"/>
    <rect x="0"  y="0" height="0.108389" width="250" style="fill: #268db7"/>
    <rect x="0"  y="0" height="0.173423" width="250" style="fill: #f985d8"/>
    <rect x="0"  y="0" height="0.130067" width="250" style="fill: #5d7bc4"/>
    <rect x="0"  y="0" height="0.151745" width="250" style="fill: #f75c5c"/>
    <rect x="0"  y="0" height="0.108389" width="250" style="fill: #baa66f"/>
    <rect x="0"  y="0" height="0.0650336" width="250" style="fill: #895061"/>
    <rect x="0"  y="0" height="0.108389" width="250" style="fill: #75afa7"/>
    <rect x="0"  y="0" height="0.0433557" width="250" style="fill: #704fb0"/>
    <rect x="0"  y="0" height="0.0433557" width="250" style="fill: #3b787c"/>
    <rect x="0"  y="0" height="0.108389" width="250" style="fill: #427f8d"/>
    <rect x="0"  y="0" height="0.0433557" width="250" style="fill: #e0631c"/>
    <rect x="0"  y="0" height="0.0867115" width="250" style="fill: #481e8c"/>
</svg>
</svg>
