<svg  xmlns="http://www.w3.org/2000/svg" xmlns:xlink="http://www.w3.org/1999/xlink" x="0" y="0" width="600" height="600">
<rect x="0%" y="0%" height="100%" width="100%" style="fill: #ffffff"/>
<svg x="0" y="0">
  <text fill="dark" font-size="35" transform="translate(250, 30)">cores</text>
</svg>
<svg x="0" y="0"> 
  <text fill="dark" font-size="35" transform="translate(30, 300) rotate(270)">time</text>
</svg>
<svg x = "50" y="550">
  <text fill="blue" font-size="30" transform="translate(0, 35)">t = 5s, lb = 0.987349</text>
</svg>
<svg x="50" y="50" width="500" height="500" >
  <rect x="0%" y="0%" height="100%" width="100%" style="fill: #eeeeee"/>
    <rect x="0"  y="0" height="4.34869" width="250" style="fill: #df6ed3"/>
    <rect x="0"  y="0" height="3.55802" width="250" style="fill: #5f477b"/>
    <rect x="0"  y="0" height="3.36035" width="250" style="fill: #002298"/>
    <rect x="0"  y="0" height="9.68571" width="250" style="fill: #1e5e1f"/>
    <rect x="0"  y="0" height="8.7962" width="250" style="fill: #bfe1bf"/>
    <rect x="0"  y="0" height="10.674" width="250" style="fill: #b8e26b"/>
    <rect x="0"  y="0" height="3.95335" width="250" style="fill: #5ba932"/>
    <rect x="0"  y="0" height="4.24985" width="250" style="fill: #53275b"/>
    <rect x="0"  y="0" height="9.29037" width="250" style="fill: #f6a44b"/>
    <rect x="0"  y="0" height="3.55802" width="250" style="fill: #3fa105"/>
    <rect x="0"  y="0" height="3.75568" width="250" style="fill: #1cdfe3"/>
    <rect x="0"  y="0" height="3.85452" width="250" style="fill: #b3f5d2"/>
    <rect x="0"  y="0" height="3.85452" width="250" style="fill: #725a9a"/>
    <rect x="0"  y="0" height="3.16268" width="250" style="fill: #580fd5"/>
    <rect x="0"  y="0" height="3.36035" width="250" style="fill: #b04525"/>
    <rect x="0"  y="0" height="3.55802" width="250" style="fill: #b3182f"/>
    <rect x="0"  y="0" height="8.99387" width="250" style="fill: #cd2b3f"/>
    <rect x="0"  y="0" height="4.24985" width="250" style="fill: #da124a"/>
    <rect x="0"  y="0" height="4.34869" width="250" style="fill: #ca3c90"/>
    <rect x="0"  y="0" height="4.44752" width="250" style="fill: #1406a2"/>
    <rect x="0"  y="0" height="3.55802" width="250" style="fill: #b55cd8"/>
    <rect x="0"  y="0" height="3.65685" width="250" style="fill: #b95d48"/>
    <rect x="0"  y="0" height="7.11603" width="250" style="fill: #d13e37"/>
    <rect x="0"  y="0" height="4.15102" width="250" style="fill: #9f1ccb"/>
    <rect x="0"  y="0" height="3.55802" width="250" style="fill: #cdfc39"/>
    <rect x="0"  y="0" height="8.59854" width="250" style="fill: #fee4ac"/>
    <rect x="0"  y="0" height="3.36035" width="250" style="fill: #c5523a"/>
    <rect x="0"  y="0" height="8.4997" width="250" style="fill: #a0bdef"/>
    <rect x="0"  y="0" height="9.88338" width="250" style="fill: #57e63a"/>
    <rect x="0"  y="0" height="9.09271" width="250" style="fill: #1f81cb"/>
    <rect x="0"  y="0" height="2.96501" width="250" style="fill: #aba9f4"/>
    <rect x="0"  y="0" height="7.70903" width="250" style="fill: #5caaed"/>
    <rect x="0"  y="0" height="3.55802" width="250" style="fill: #48d06b"/>
    <rect x="0"  y="0" height="6.52303" width="250" style="fill: #fb3d16"/>
    <rect x="0"  y="0" height="3.36035" width="250" style="fill: #836042"/>
    <rect x="0"  y="0" height="2.96501" width="250" style="fill: #bed57c"/>
    <rect x="0"  y="0" height="2.86618" width="250" style="fill: #ac8476"/>
    <rect x="0"  y="0" height="4.05218" width="250" style="fill: #1bfeb5"/>
    <rect x="0"  y="0" height="6.81953" width="250" style="fill: #9a0c81"/>
    <rect x="0"  y="0" height="2.66851" width="250" style="fill: #304908"/>
    <rect x="0"  y="0" height="3.75568" width="250" style="fill: #bb781e"/>
    <rect x="0"  y="0" height="5.63352" width="250" style="fill: #4bbdf2"/>
    <rect x="0"  y="0" height="3.16268" width="250" style="fill: #30d2e9"/>
    <rect x="0"  y="0" height="3.65685" width="250" style="fill: #77374b"/>
    <rect x="0"  y="0" height="4.05218" width="250" style="fill: #97bd0b"/>
    <rect x="0"  y="0" height="2.27318" width="250" style="fill: #6b7d38"/>
    <rect x="0"  y="0" height="3.16268" width="250" style="fill: #b73642"/>
    <rect x="0"  y="0" height="10.7729" width="250" style="fill: #8826a0"/>
    <rect x="0"  y="0" height="3.55802" width="250" style="fill: #f2729b"/>
    <rect x="0"  y="0" height="3.95335" width="250" style="fill: #e22902"/>
    <rect x="0"  y="0" height="5.33702" width="250" style="fill: #56dc30"/>
    <rect x="0"  y="0" height="9.88338" width="250" style="fill: #4e875c"/>
    <rect x="0"  y="0" height="9.19154" width="250" style="fill: #9d4b3f"/>
    <rect x="0"  y="0" height="4.05218" width="250" style="fill: #b2125a"/>
    <rect x="0"  y="0" height="4.64519" width="250" style="fill: #e3d0cd"/>
    <rect x="0"  y="0" height="9.98221" width="250" style="fill: #3130d6"/>
    <rect x="0"  y="0" height="3.55802" width="250" style="fill: #114989"/>
    <rect x="0"  y="0" height="3.06385" width="250" style="fill: #517aca"/>
    <rect x="0"  y="0" height="2.86618" width="250" style="fill: #97daa2"/>
    <rect x="0"  y="0" height="2.96501" width="250" style="fill: #485181"/>
    <rect x="0"  y="0" height="2.47084" width="250" style="fill: #eb31c0"/>
    <rect x="0"  y="0" height="11.8601" width="250" style="fill: #7d2c6a"/>
    <rect x="0"  y="0" height="4.64519" width="250" style="fill: #5bcc58"/>
    <rect x="0"  y="0" height="3.45918" width="250" style="fill: #7e048a"/>
    <rect x="0"  y="0" height="3.95335" width="250" style="fill: #6d2bea"/>
    <rect x="0"  y="0" height="3.85452" width="250" style="fill: #cd6fe2"/>
    <rect x="0"  y="0" height="5.63352" width="250" style="fill: #06f225"/>
    <rect x="0"  y="0" height="3.65685" width="250" style="fill: #c70846"/>
    <rect x="0"  y="0" height="3.16268" width="250" style="fill: #1b41fd"/>
    <rect x="0"  y="0" height="6.52303" width="250" style="fill: #b5ad08"/>
    <rect x="0"  y="0" height="3.16268" width="250" style="fill: #7c5dc4"/>
    <rect x="0"  y="0" height="7.21486" width="250" style="fill: #fcaeec"/>
    <rect x="0"  y="0" height="6.22653" width="250" style="fill: #3a3437"/>
    <rect x="0"  y="0" height="3.36035" width="250" style="fill: #a42e51"/>
    <rect x="0"  y="0" height="3.16268" width="250" style="fill: #b065d6"/>
    <rect x="0"  y="0" height="7.70903" width="250" style="fill: #e4332f"/>
    <rect x="0"  y="0" height="3.45918" width="250" style="fill: #71b109"/>
    <rect x="0"  y="0" height="2.96501" width="250" style="fill: #d33176"/>
    <rect x="0"  y="0" height="8.30204" width="250" style="fill: #81ab0f"/>
    <rect x="0"  y="0" height="3.65685" width="250" style="fill: #cbf31c"/>
    <rect x="0"  y="0" height="2.96501" width="250" style="fill: #9f1c23"/>
    <rect x="0"  y="0" height="3.06385" width="250" style="fill: #ba46b4"/>
    <rect x="0"  y="0" height="4.94169" width="250" style="fill: #f983af"/>
    <rect x="0"  y="0" height="2.86618" width="250" style="fill: #9214d1"/>
    <rect x="0"  y="0" height="6.7207" width="250" style="fill: #3ac3dd"/>
    <rect x="0"  y="0" height="7.80787" width="250" style="fill: #f6c03f"/>
    <rect x="0"  y="0" height="4.84285" width="250" style="fill: #3e9854"/>
    <rect x="0"  y="0" height="3.85452" width="250" style="fill: #c4d477"/>
    <rect x="0"  y="0" height="2.66851" width="250" style="fill: #41a557"/>
    <rect x="0"  y="0" height="3.55802" width="250" style="fill: #6812be"/>
    <rect x="0"  y="0" height="3.45918" width="250" style="fill: #0b5cb8"/>
    <rect x="0"  y="0" height="3.55802" width="250" style="fill: #bf647b"/>
    <rect x="0"  y="0" height="3.45918" width="250" style="fill: #930687"/>
    <rect x="0"  y="0" height="4.94169" width="250" style="fill: #ec881d"/>
    <rect x="0"  y="0" height="1.48251" width="250" style="fill: #f76191"/>
    <rect x="0"  y="0" height="10.2787" width="250" style="fill: #f9c468"/>
    <rect x="0"  y="0" height="2.96501" width="250" style="fill: #c1736e"/>
    <rect x="0"  y="0" height="3.45918" width="250" style="fill: #ef1e59"/>
    <rect x="0"  y="0" height="5.33702" width="250" style="fill: #635eb6"/>
    <rect x="0"  y="0" height="3.45918" width="250" style="fill: #cbd2c7"/>
</svg>
</svg>
