<svg  xmlns="http://www.w3.org/2000/svg" xmlns:xlink="http://www.w3.org/1999/xlink" x="0" y="0" width="600" height="600">
<rect x="0%" y="0%" height="100%" width="100%" style="fill: #ffffff"/>
<svg x="0" y="0">
  <text fill="dark" font-size="35" transform="translate(250, 30)">cores</text>
</svg>
<svg x="0" y="0"> 
  <text fill="dark" font-size="35" transform="translate(30, 300) rotate(270)">time</text>
</svg>
<svg x = "50" y="550">
  <text fill="blue" font-size="30" transform="translate(0, 35)">t = 14s, lb = 0.475981</text>
</svg>
<svg x="50" y="50" width="500" height="500" >
  <rect x="0%" y="0%" height="100%" width="100%" style="fill: #eeeeee"/>
    <rect x="0"  y="0" height="21.024" width="55.5556" style="fill: #76931f"/>
    <rect x="222.222"  y="0" height="28.9516" width="55.5556" style="fill: #ac9dab"/>
    <rect x="111.111"  y="0" height="3.4225" width="55.5556" style="fill: #2b36c2"/>
    <rect x="55.5556"  y="0" height="3.70189" width="55.5556" style="fill: #48b87d"/>
    <rect x="333.333"  y="0" height="17.9507" width="55.5556" style="fill: #6ae33f"/>
    <rect x="277.778"  y="0" height="8.13718" width="55.5556" style="fill: #9a62d7"/>
    <rect x="166.667"  y="0" height="4.99406" width="55.5556" style="fill: #183a5d"/>
    <rect x="388.889"  y="0" height="9.56904" width="55.5556" style="fill: #5789e4"/>
    <rect x="111.111"  y="0" height="8.48641" width="55.5556" style="fill: #b2d6b4"/>
    <rect x="55.5556"  y="0" height="41.3844" width="55.5556" style="fill: #41e241"/>
    <rect x="166.667"  y="0" height="17.8808" width="55.5556" style="fill: #1dc709"/>
    <rect x="277.778"  y="0" height="25.8434" width="55.5556" style="fill: #e111c7"/>
    <rect x="388.889"  y="0" height="14.144" width="55.5556" style="fill: #e1e7ac"/>
    <rect x="111.111"  y="0" height="17.1125" width="55.5556" style="fill: #b6f8ca"/>
    <rect x="333.333"  y="0" height="11.7343" width="55.5556" style="fill: #c0bb2f"/>
    <rect x="0"  y="0" height="23.2241" width="55.5556" style="fill: #c4c8bc"/>
    <rect x="166.667"  y="0" height="10.1627" width="55.5556" style="fill: #2ae3ba"/>
    <rect x="388.889"  y="0" height="13.8996" width="55.5556" style="fill: #aab916"/>
    <rect x="222.222"  y="0" height="11.8041" width="55.5556" style="fill: #5cc458"/>
    <rect x="111.111"  y="0" height="23.0146" width="55.5556" style="fill: #e199cb"/>
    <rect x="333.333"  y="0" height="14.6679" width="55.5556" style="fill: #89f51b"/>
    <rect x="166.667"  y="0" height="5.72746" width="55.5556" style="fill: #135f70"/>
    <rect x="277.778"  y="0" height="21.7224" width="55.5556" style="fill: #91a5ab"/>
    <rect x="388.889"  y="0" height="3.38758" width="55.5556" style="fill: #b0874d"/>
    <rect x="166.667"  y="0" height="3.91143" width="55.5556" style="fill: #f3e8cb"/>
    <rect x="222.222"  y="0" height="14.633" width="55.5556" style="fill: #4543a5"/>
    <rect x="388.889"  y="0" height="14.9473" width="55.5556" style="fill: #eb93b0"/>
    <rect x="166.667"  y="0" height="19.173" width="55.5556" style="fill: #441e9c"/>
    <rect x="0"  y="0" height="10.058" width="55.5556" style="fill: #a4c2b0"/>
    <rect x="333.333"  y="0" height="7.7181" width="55.5556" style="fill: #fb3d30"/>
    <rect x="55.5556"  y="0" height="9.42935" width="55.5556" style="fill: #875cbf"/>
    <rect x="111.111"  y="0" height="15.9251" width="55.5556" style="fill: #29abd5"/>
    <rect x="333.333"  y="0" height="12.5725" width="55.5556" style="fill: #b1acf3"/>
    <rect x="0"  y="0" height="27.0308" width="55.5556" style="fill: #8984b3"/>
    <rect x="55.5556"  y="0" height="3.94636" width="55.5556" style="fill: #5ae882"/>
    <rect x="222.222"  y="0" height="11.8041" width="55.5556" style="fill: #809dd4"/>
    <rect x="277.778"  y="0" height="10.3374" width="55.5556" style="fill: #cfe7ab"/>
    <rect x="388.889"  y="0" height="11.42" width="55.5556" style="fill: #c5c61b"/>
    <rect x="55.5556"  y="0" height="3.98128" width="55.5556" style="fill: #aa52e0"/>
    <rect x="166.667"  y="0" height="3.73682" width="55.5556" style="fill: #53b4c3"/>
    <rect x="55.5556"  y="0" height="12.1534" width="55.5556" style="fill: #643f20"/>
    <rect x="333.333"  y="0" height="3.03835" width="55.5556" style="fill: #4ef259"/>
    <rect x="166.667"  y="0" height="38.9048" width="55.5556" style="fill: #d2e980"/>
    <rect x="277.778"  y="0" height="24.3068" width="55.5556" style="fill: #42a948"/>
    <rect x="222.222"  y="0" height="13.236" width="55.5556" style="fill: #aac5e8"/>
    <rect x="388.889"  y="0" height="34.1901" width="55.5556" style="fill: #84cb3e"/>
    <rect x="333.333"  y="0" height="16.2394" width="55.5556" style="fill: #c7db92"/>
    <rect x="111.111"  y="0" height="5.69253" width="55.5556" style="fill: #5643fd"/>
    <rect x="111.111"  y="0" height="7.40379" width="55.5556" style="fill: #34fdd4"/>
    <rect x="55.5556"  y="0" height="4.6099" width="55.5556" style="fill: #67e2cc"/>
    <rect x="55.5556"  y="0" height="18.1952" width="55.5556" style="fill: #a40603"/>
    <rect x="222.222"  y="0" height="3.59712" width="55.5556" style="fill: #5cb274"/>
    <rect x="111.111"  y="0" height="6.81009" width="55.5556" style="fill: #4cb90a"/>
    <rect x="0"  y="0" height="15.3663" width="55.5556" style="fill: #63e51c"/>
    <rect x="333.333"  y="0" height="18.7539" width="55.5556" style="fill: #973790"/>
    <rect x="222.222"  y="0" height="8.87057" width="55.5556" style="fill: #334394"/>
    <rect x="111.111"  y="0" height="6.42593" width="55.5556" style="fill: #7e0208"/>
    <rect x="277.778"  y="0" height="36.4602" width="55.5556" style="fill: #6541e4"/>
    <rect x="222.222"  y="0" height="6.14654" width="55.5556" style="fill: #c48a99"/>
    <rect x="111.111"  y="0" height="13.9694" width="55.5556" style="fill: #630aa9"/>
    <rect x="0"  y="0" height="13.236" width="55.5556" style="fill: #aece15"/>
    <rect x="55.5556"  y="0" height="7.7181" width="55.5556" style="fill: #3843a4"/>
    <rect x="222.222"  y="0" height="3.66697" width="55.5556" style="fill: #b19027"/>
    <rect x="388.889"  y="0" height="4.40036" width="55.5556" style="fill: #4ebc95"/>
    <rect x="222.222"  y="0" height="9.08011" width="55.5556" style="fill: #5f8592"/>
    <rect x="333.333"  y="0" height="76.5873" width="55.5556" style="fill: #e30a22"/>
    <rect x="166.667"  y="0" height="10.6866" width="55.5556" style="fill: #05a485"/>
    <rect x="55.5556"  y="0" height="11.2803" width="55.5556" style="fill: #846248"/>
    <rect x="388.889"  y="0" height="41.6638" width="55.5556" style="fill: #987550"/>
    <rect x="111.111"  y="0" height="12.0486" width="55.5556" style="fill: #aaf209"/>
    <rect x="0"  y="0" height="25.1449" width="55.5556" style="fill: #4ec59e"/>
    <rect x="222.222"  y="0" height="9.98813" width="55.5556" style="fill: #7931dc"/>
    <rect x="166.667"  y="0" height="4.1559" width="55.5556" style="fill: #650c74"/>
    <rect x="55.5556"  y="0" height="9.4992" width="55.5556" style="fill: #51cc61"/>
    <rect x="166.667"  y="0" height="9.84843" width="55.5556" style="fill: #c0cb2c"/>
    <rect x="111.111"  y="0" height="6.32116" width="55.5556" style="fill: #46a1b3"/>
    <rect x="222.222"  y="0" height="4.08605" width="55.5556" style="fill: #f2c349"/>
    <rect x="222.222"  y="0" height="3.14312" width="55.5556" style="fill: #faff76"/>
    <rect x="55.5556"  y="0" height="373.751" width="55.5556" style="fill: #3c7f8d"/>
    <rect x="111.111"  y="0" height="12.2931" width="55.5556" style="fill: #14ddff"/>
    <rect x="277.778"  y="0" height="25.3545" width="55.5556" style="fill: #946351"/>
    <rect x="222.222"  y="0" height="12.782" width="55.5556" style="fill: #744378"/>
    <rect x="166.667"  y="0" height="9.56904" width="55.5556" style="fill: #d62c59"/>
    <rect x="0"  y="0" height="23.1892" width="55.5556" style="fill: #285a8d"/>
    <rect x="166.667"  y="0" height="6.60054" width="55.5556" style="fill: #791561"/>
    <rect x="111.111"  y="0" height="120.626" width="55.5556" style="fill: #4f5a2a"/>
    <rect x="222.222"  y="0" height="2.9685" width="55.5556" style="fill: #c9e0d6"/>
    <rect x="222.222"  y="0" height="10.3024" width="55.5556" style="fill: #8aca62"/>
    <rect x="166.667"  y="0" height="26.5419" width="55.5556" style="fill: #48a922"/>
    <rect x="388.889"  y="0" height="3.35266" width="55.5556" style="fill: #7ab8f1"/>
    <rect x="388.889"  y="0" height="12.0486" width="55.5556" style="fill: #930ee3"/>
    <rect x="277.778"  y="0" height="3.4225" width="55.5556" style="fill: #8ac7a9"/>
    <rect x="222.222"  y="0" height="10.8612" width="55.5556" style="fill: #d239c9"/>
    <rect x="277.778"  y="0" height="14.9822" width="55.5556" style="fill: #b026a4"/>
    <rect x="0"  y="0" height="47.4261" width="55.5556" style="fill: #81e49d"/>
    <rect x="388.889"  y="0" height="53.9568" width="55.5556" style="fill: #53161f"/>
    <rect x="222.222"  y="0" height="9.9532" width="55.5556" style="fill: #9a9513"/>
    <rect x="277.778"  y="0" height="8.27687" width="55.5556" style="fill: #fe5271"/>
    <rect x="166.667"  y="0" height="13.3408" width="55.5556" style="fill: #c32e9c"/>
    <rect x="222.222"  y="0" height="2.8288" width="55.5556" style="fill: #21d156"/>
</svg>
</svg>
