<svg  xmlns="http://www.w3.org/2000/svg" xmlns:xlink="http://www.w3.org/1999/xlink" x="0" y="0" width="600" height="600">
<rect x="0%" y="0%" height="100%" width="100%" style="fill: #ffffff"/>
<svg x="0" y="0">
  <text fill="dark" font-size="35" transform="translate(250, 30)">cores</text>
</svg>
<svg x="0" y="0"> 
  <text fill="dark" font-size="35" transform="translate(30, 300) rotate(270)">time</text>
</svg>
<svg x = "50" y="550">
  <text fill="blue" font-size="30" transform="translate(0, 35)">t = 7s, lb = 0.991721</text>
</svg>
<svg x="50" y="50" width="500" height="500" >
  <rect x="0%" y="0%" height="100%" width="100%" style="fill: #eeeeee"/>
    <rect x="0"  y="0" height="1.86284" width="250" style="fill: #3b0006"/>
    <rect x="0"  y="0" height="6.34745" width="250" style="fill: #8c8ffe"/>
    <rect x="0"  y="0" height="3.4497" width="250" style="fill: #dedec2"/>
    <rect x="0"  y="0" height="4.6226" width="250" style="fill: #826d11"/>
    <rect x="0"  y="0" height="4.27763" width="250" style="fill: #4dc1f8"/>
    <rect x="0"  y="0" height="4.76059" width="250" style="fill: #824924"/>
    <rect x="0"  y="0" height="4.82958" width="250" style="fill: #fa0790"/>
    <rect x="0"  y="0" height="10.7631" width="250" style="fill: #56e25a"/>
    <rect x="0"  y="0" height="5.03657" width="250" style="fill: #5ddbae"/>
    <rect x="0"  y="0" height="7.86532" width="250" style="fill: #ceb90a"/>
    <rect x="0"  y="0" height="3.65669" width="250" style="fill: #18c51f"/>
    <rect x="0"  y="0" height="2.96674" width="250" style="fill: #919a83"/>
    <rect x="0"  y="0" height="5.17455" width="250" style="fill: #ae980e"/>
    <rect x="0"  y="0" height="4.13964" width="250" style="fill: #25bf06"/>
    <rect x="0"  y="0" height="3.58769" width="250" style="fill: #dd4864"/>
    <rect x="0"  y="0" height="4.41562" width="250" style="fill: #27dfde"/>
    <rect x="0"  y="0" height="2.20781" width="250" style="fill: #e6f708"/>
    <rect x="0"  y="0" height="6.27846" width="250" style="fill: #aa6426"/>
    <rect x="0"  y="0" height="5.8645" width="250" style="fill: #25ce4c"/>
    <rect x="0"  y="0" height="4.76059" width="250" style="fill: #4298af"/>
    <rect x="0"  y="0" height="4.96757" width="250" style="fill: #dd7ac4"/>
    <rect x="0"  y="0" height="4.89858" width="250" style="fill: #8aa81b"/>
    <rect x="0"  y="0" height="2.75976" width="250" style="fill: #0c5608"/>
    <rect x="0"  y="0" height="7.38237" width="250" style="fill: #c2d801"/>
    <rect x="0"  y="0" height="7.45136" width="250" style="fill: #543ede"/>
    <rect x="0"  y="0" height="6.27846" width="250" style="fill: #eab547"/>
    <rect x="0"  y="0" height="3.65669" width="250" style="fill: #9c1342"/>
    <rect x="0"  y="0" height="4.82958" width="250" style="fill: #e4e4ae"/>
    <rect x="0"  y="0" height="1.86284" width="250" style="fill: #c719f1"/>
    <rect x="0"  y="0" height="10.6941" width="250" style="fill: #a46e33"/>
    <rect x="0"  y="0" height="4.27763" width="250" style="fill: #c1d761"/>
    <rect x="0"  y="0" height="5.24355" width="250" style="fill: #efdf22"/>
    <rect x="0"  y="0" height="3.31172" width="250" style="fill: #116051"/>
    <rect x="0"  y="0" height="3.79467" width="250" style="fill: #e18fa7"/>
    <rect x="0"  y="0" height="4.89858" width="250" style="fill: #14c72f"/>
    <rect x="0"  y="0" height="2.89775" width="250" style="fill: #ae0756"/>
    <rect x="0"  y="0" height="4.00166" width="250" style="fill: #835527"/>
    <rect x="0"  y="0" height="7.79633" width="250" style="fill: #748e4d"/>
    <rect x="0"  y="0" height="5.8645" width="250" style="fill: #f2e728"/>
    <rect x="0"  y="0" height="6.89941" width="250" style="fill: #e3daaf"/>
    <rect x="0"  y="0" height="6.89941" width="250" style="fill: #94e9b3"/>
    <rect x="0"  y="0" height="3.93266" width="250" style="fill: #f37489"/>
    <rect x="0"  y="0" height="3.79467" width="250" style="fill: #c0d4e1"/>
    <rect x="0"  y="0" height="4.89858" width="250" style="fill: #2d4046"/>
    <rect x="0"  y="0" height="5.72651" width="250" style="fill: #9296d3"/>
    <rect x="0"  y="0" height="4.6226" width="250" style="fill: #567302"/>
    <rect x="0"  y="0" height="4.27763" width="250" style="fill: #7f5e4d"/>
    <rect x="0"  y="0" height="4.96757" width="250" style="fill: #70d54b"/>
    <rect x="0"  y="0" height="5.24355" width="250" style="fill: #668a7c"/>
    <rect x="0"  y="0" height="6.00248" width="250" style="fill: #00f96c"/>
    <rect x="0"  y="0" height="2.62177" width="250" style="fill: #cb23f2"/>
    <rect x="0"  y="0" height="3.93266" width="250" style="fill: #562a46"/>
    <rect x="0"  y="0" height="5.58852" width="250" style="fill: #8b650a"/>
    <rect x="0"  y="0" height="3.4497" width="250" style="fill: #171918"/>
    <rect x="0"  y="0" height="3.79467" width="250" style="fill: #6285be"/>
    <rect x="0"  y="0" height="3.31172" width="250" style="fill: #1893b8"/>
    <rect x="0"  y="0" height="2.75976" width="250" style="fill: #61e8b2"/>
    <rect x="0"  y="0" height="4.89858" width="250" style="fill: #e3e49e"/>
    <rect x="0"  y="0" height="3.58769" width="250" style="fill: #ea5f37"/>
    <rect x="0"  y="0" height="16.9035" width="250" style="fill: #799fe4"/>
    <rect x="0"  y="0" height="4.27763" width="250" style="fill: #dfc738"/>
    <rect x="0"  y="0" height="5.10556" width="250" style="fill: #f99e14"/>
    <rect x="0"  y="0" height="6.55444" width="250" style="fill: #0f8e31"/>
    <rect x="0"  y="0" height="4.41562" width="250" style="fill: #d1b21e"/>
    <rect x="0"  y="0" height="5.31254" width="250" style="fill: #988286"/>
    <rect x="0"  y="0" height="4.20864" width="250" style="fill: #7563c9"/>
    <rect x="0"  y="0" height="3.72568" width="250" style="fill: #bc24a3"/>
    <rect x="0"  y="0" height="2.13882" width="250" style="fill: #9a2195"/>
    <rect x="0"  y="0" height="5.65751" width="250" style="fill: #266d87"/>
    <rect x="0"  y="0" height="4.27763" width="250" style="fill: #b20348"/>
    <rect x="0"  y="0" height="3.79467" width="250" style="fill: #abd0fa"/>
    <rect x="0"  y="0" height="4.76059" width="250" style="fill: #9a6bf0"/>
    <rect x="0"  y="0" height="4.07065" width="250" style="fill: #e8a093"/>
    <rect x="0"  y="0" height="9.3142" width="250" style="fill: #5b9b82"/>
    <rect x="0"  y="0" height="4.07065" width="250" style="fill: #334378"/>
    <rect x="0"  y="0" height="5.8645" width="250" style="fill: #b14813"/>
    <rect x="0"  y="0" height="3.93266" width="250" style="fill: #2ad85c"/>
    <rect x="0"  y="0" height="3.38071" width="250" style="fill: #83433d"/>
    <rect x="0"  y="0" height="6.27846" width="250" style="fill: #688030"/>
    <rect x="0"  y="0" height="5.24355" width="250" style="fill: #26469b"/>
    <rect x="0"  y="0" height="3.93266" width="250" style="fill: #e4c2dd"/>
    <rect x="0"  y="0" height="4.41562" width="250" style="fill: #5f738c"/>
    <rect x="0"  y="0" height="6.07148" width="250" style="fill: #f0f432"/>
    <rect x="0"  y="0" height="4.6226" width="250" style="fill: #1aaaad"/>
    <rect x="0"  y="0" height="3.5187" width="250" style="fill: #ac4e2d"/>
    <rect x="0"  y="0" height="4.82958" width="250" style="fill: #90253f"/>
    <rect x="0"  y="0" height="2.75976" width="250" style="fill: #28e9b6"/>
    <rect x="0"  y="0" height="5.03657" width="250" style="fill: #5b74fa"/>
    <rect x="0"  y="0" height="2.75976" width="250" style="fill: #6040ae"/>
    <rect x="0"  y="0" height="10.7631" width="250" style="fill: #e5a23c"/>
    <rect x="0"  y="0" height="12.3499" width="250" style="fill: #fdd120"/>
    <rect x="0"  y="0" height="5.51953" width="250" style="fill: #058fe4"/>
    <rect x="0"  y="0" height="3.65669" width="250" style="fill: #54fc8e"/>
    <rect x="0"  y="0" height="2.20781" width="250" style="fill: #7febf9"/>
    <rect x="0"  y="0" height="1.44888" width="250" style="fill: #ade4f1"/>
    <rect x="0"  y="0" height="5.38154" width="250" style="fill: #1fee01"/>
    <rect x="0"  y="0" height="7.72734" width="250" style="fill: #e16604"/>
    <rect x="0"  y="0" height="3.38071" width="250" style="fill: #a58921"/>
    <rect x="0"  y="0" height="3.03574" width="250" style="fill: #79064f"/>
    <rect x="0"  y="0" height="4.20864" width="250" style="fill: #fedd3c"/>
</svg>
</svg>
