<svg  xmlns="http://www.w3.org/2000/svg" xmlns:xlink="http://www.w3.org/1999/xlink" x="0" y="0" width="600" height="600">
<rect x="0%" y="0%" height="100%" width="100%" style="fill: #ffffff"/>
<svg x="0" y="0">
  <text fill="dark" font-size="35" transform="translate(250, 30)">cores</text>
</svg>
<svg x="0" y="0"> 
  <text fill="dark" font-size="35" transform="translate(30, 300) rotate(270)">time</text>
</svg>
<svg x = "50" y="550">
  <text fill="blue" font-size="30" transform="translate(0, 35)">t = 7s, lb = 0.992098</text>
</svg>
<svg x="50" y="50" width="500" height="500" >
  <rect x="0%" y="0%" height="100%" width="100%" style="fill: #eeeeee"/>
    <rect x="0"  y="0" height="3.21457" width="250" style="fill: #3b0006"/>
    <rect x="0"  y="0" height="4.48701" width="250" style="fill: #8c8ffe"/>
    <rect x="0"  y="0" height="3.88428" width="250" style="fill: #dedec2"/>
    <rect x="0"  y="0" height="10.2465" width="250" style="fill: #826d11"/>
    <rect x="0"  y="0" height="3.75033" width="250" style="fill: #4dc1f8"/>
    <rect x="0"  y="0" height="4.62095" width="250" style="fill: #824924"/>
    <rect x="0"  y="0" height="4.82186" width="250" style="fill: #fa0790"/>
    <rect x="0"  y="0" height="2.27699" width="250" style="fill: #56e25a"/>
    <rect x="0"  y="0" height="4.82186" width="250" style="fill: #5ddbae"/>
    <rect x="0"  y="0" height="10.7822" width="250" style="fill: #ceb90a"/>
    <rect x="0"  y="0" height="4.55398" width="250" style="fill: #18c51f"/>
    <rect x="0"  y="0" height="3.54942" width="250" style="fill: #919a83"/>
    <rect x="0"  y="0" height="5.6255" width="250" style="fill: #ae980e"/>
    <rect x="0"  y="0" height="4.42004" width="250" style="fill: #25bf06"/>
    <rect x="0"  y="0" height="3.68336" width="250" style="fill: #dd4864"/>
    <rect x="0"  y="0" height="4.15216" width="250" style="fill: #27dfde"/>
    <rect x="0"  y="0" height="2.81275" width="250" style="fill: #e6f708"/>
    <rect x="0"  y="0" height="7.63461" width="250" style="fill: #aa6426"/>
    <rect x="0"  y="0" height="6.02732" width="250" style="fill: #25ce4c"/>
    <rect x="0"  y="0" height="16.8765" width="250" style="fill: #4298af"/>
    <rect x="0"  y="0" height="4.42004" width="250" style="fill: #dd7ac4"/>
    <rect x="0"  y="0" height="5.42459" width="250" style="fill: #8aa81b"/>
    <rect x="0"  y="0" height="2.74578" width="250" style="fill: #0c5608"/>
    <rect x="0"  y="0" height="8.50522" width="250" style="fill: #c2d801"/>
    <rect x="0"  y="0" height="4.62095" width="250" style="fill: #543ede"/>
    <rect x="0"  y="0" height="5.89338" width="250" style="fill: #eab547"/>
    <rect x="0"  y="0" height="3.88428" width="250" style="fill: #9c1342"/>
    <rect x="0"  y="0" height="4.01822" width="250" style="fill: #e4e4ae"/>
    <rect x="0"  y="0" height="2.54487" width="250" style="fill: #c719f1"/>
    <rect x="0"  y="0" height="5.69247" width="250" style="fill: #a46e33"/>
    <rect x="0"  y="0" height="6.63006" width="250" style="fill: #c1d761"/>
    <rect x="0"  y="0" height="4.01822" width="250" style="fill: #efdf22"/>
    <rect x="0"  y="0" height="9.97857" width="250" style="fill: #116051"/>
    <rect x="0"  y="0" height="3.54942" width="250" style="fill: #e18fa7"/>
    <rect x="0"  y="0" height="4.15216" width="250" style="fill: #14c72f"/>
    <rect x="0"  y="0" height="4.42004" width="250" style="fill: #ae0756"/>
    <rect x="0"  y="0" height="3.75033" width="250" style="fill: #835527"/>
    <rect x="0"  y="0" height="8.03643" width="250" style="fill: #748e4d"/>
    <rect x="0"  y="0" height="4.75489" width="250" style="fill: #f2e728"/>
    <rect x="0"  y="0" height="2.54487" width="250" style="fill: #e3daaf"/>
    <rect x="0"  y="0" height="3.21457" width="250" style="fill: #94e9b3"/>
    <rect x="0"  y="0" height="3.95125" width="250" style="fill: #f37489"/>
    <rect x="0"  y="0" height="3.41548" width="250" style="fill: #c0d4e1"/>
    <rect x="0"  y="0" height="5.69247" width="250" style="fill: #2d4046"/>
    <rect x="0"  y="0" height="6.16126" width="250" style="fill: #9296d3"/>
    <rect x="0"  y="0" height="5.49156" width="250" style="fill: #567302"/>
    <rect x="0"  y="0" height="4.42004" width="250" style="fill: #7f5e4d"/>
    <rect x="0"  y="0" height="5.55853" width="250" style="fill: #70d54b"/>
    <rect x="0"  y="0" height="3.28154" width="250" style="fill: #668a7c"/>
    <rect x="0"  y="0" height="5.29065" width="250" style="fill: #00f96c"/>
    <rect x="0"  y="0" height="4.01822" width="250" style="fill: #cb23f2"/>
    <rect x="0"  y="0" height="3.88428" width="250" style="fill: #562a46"/>
    <rect x="0"  y="0" height="4.62095" width="250" style="fill: #8b650a"/>
    <rect x="0"  y="0" height="4.15216" width="250" style="fill: #171918"/>
    <rect x="0"  y="0" height="3.28154" width="250" style="fill: #6285be"/>
    <rect x="0"  y="0" height="4.21913" width="250" style="fill: #1893b8"/>
    <rect x="0"  y="0" height="4.75489" width="250" style="fill: #61e8b2"/>
    <rect x="0"  y="0" height="5.69247" width="250" style="fill: #e3e49e"/>
    <rect x="0"  y="0" height="4.15216" width="250" style="fill: #ea5f37"/>
    <rect x="0"  y="0" height="5.02277" width="250" style="fill: #799fe4"/>
    <rect x="0"  y="0" height="4.15216" width="250" style="fill: #dfc738"/>
    <rect x="0"  y="0" height="5.42459" width="250" style="fill: #f99e14"/>
    <rect x="0"  y="0" height="6.42915" width="250" style="fill: #0f8e31"/>
    <rect x="0"  y="0" height="4.21913" width="250" style="fill: #d1b21e"/>
    <rect x="0"  y="0" height="5.89338" width="250" style="fill: #988286"/>
    <rect x="0"  y="0" height="4.42004" width="250" style="fill: #7563c9"/>
    <rect x="0"  y="0" height="3.21457" width="250" style="fill: #bc24a3"/>
    <rect x="0"  y="0" height="2.54487" width="250" style="fill: #9a2195"/>
    <rect x="0"  y="0" height="4.82186" width="250" style="fill: #266d87"/>
    <rect x="0"  y="0" height="3.81731" width="250" style="fill: #b20348"/>
    <rect x="0"  y="0" height="3.68336" width="250" style="fill: #abd0fa"/>
    <rect x="0"  y="0" height="5.15671" width="250" style="fill: #9a6bf0"/>
    <rect x="0"  y="0" height="3.48245" width="250" style="fill: #e8a093"/>
    <rect x="0"  y="0" height="4.9558" width="250" style="fill: #5b9b82"/>
    <rect x="0"  y="0" height="4.21913" width="250" style="fill: #334378"/>
    <rect x="0"  y="0" height="3.81731" width="250" style="fill: #b14813"/>
    <rect x="0"  y="0" height="4.08519" width="250" style="fill: #2ad85c"/>
    <rect x="0"  y="0" height="4.35307" width="250" style="fill: #83433d"/>
    <rect x="0"  y="0" height="6.83097" width="250" style="fill: #688030"/>
    <rect x="0"  y="0" height="4.42004" width="250" style="fill: #26469b"/>
    <rect x="0"  y="0" height="3.75033" width="250" style="fill: #e4c2dd"/>
    <rect x="0"  y="0" height="4.75489" width="250" style="fill: #5f738c"/>
    <rect x="0"  y="0" height="6.96491" width="250" style="fill: #f0f432"/>
    <rect x="0"  y="0" height="4.88883" width="250" style="fill: #1aaaad"/>
    <rect x="0"  y="0" height="3.41548" width="250" style="fill: #ac4e2d"/>
    <rect x="0"  y="0" height="5.22368" width="250" style="fill: #90253f"/>
    <rect x="0"  y="0" height="3.75033" width="250" style="fill: #28e9b6"/>
    <rect x="0"  y="0" height="4.88883" width="250" style="fill: #5b74fa"/>
    <rect x="0"  y="0" height="3.01366" width="250" style="fill: #6040ae"/>
    <rect x="0"  y="0" height="18.082" width="250" style="fill: #e5a23c"/>
    <rect x="0"  y="0" height="2.94669" width="250" style="fill: #fdd120"/>
    <rect x="0"  y="0" height="6.42915" width="250" style="fill: #058fe4"/>
    <rect x="0"  y="0" height="5.15671" width="250" style="fill: #54fc8e"/>
    <rect x="0"  y="0" height="2.67881" width="250" style="fill: #7febf9"/>
    <rect x="0"  y="0" height="2.87972" width="250" style="fill: #ade4f1"/>
    <rect x="0"  y="0" height="5.6255" width="250" style="fill: #1fee01"/>
    <rect x="0"  y="0" height="4.01822" width="250" style="fill: #e16604"/>
    <rect x="0"  y="0" height="2.54487" width="250" style="fill: #a58921"/>
    <rect x="0"  y="0" height="3.54942" width="250" style="fill: #79064f"/>
    <rect x="0"  y="0" height="9.44281" width="250" style="fill: #fedd3c"/>
</svg>
</svg>
