<svg  xmlns="http://www.w3.org/2000/svg" xmlns:xlink="http://www.w3.org/1999/xlink" x="0" y="0" width="600" height="600">
<rect x="0%" y="0%" height="100%" width="100%" style="fill: #ffffff"/>
<svg x="0" y="0">
  <text fill="dark" font-size="35" transform="translate(250, 30)">cores</text>
</svg>
<svg x="0" y="0"> 
  <text fill="dark" font-size="35" transform="translate(30, 300) rotate(270)">time</text>
</svg>
<svg x = "50" y="550">
  <text fill="blue" font-size="30" transform="translate(0, 35)">t = 7s, lb = 0.991285</text>
</svg>
<svg x="50" y="50" width="500" height="500" >
  <rect x="0%" y="0%" height="100%" width="100%" style="fill: #eeeeee"/>
    <rect x="0"  y="0" height="1.63399" width="250" style="fill: #df6ed3"/>
    <rect x="0"  y="0" height="8.64651" width="250" style="fill: #5f477b"/>
    <rect x="0"  y="0" height="2.79139" width="250" style="fill: #002298"/>
    <rect x="0"  y="0" height="3.40414" width="250" style="fill: #1e5e1f"/>
    <rect x="0"  y="0" height="9.19118" width="250" style="fill: #bfe1bf"/>
    <rect x="0"  y="0" height="6.46786" width="250" style="fill: #b8e26b"/>
    <rect x="0"  y="0" height="9.19118" width="250" style="fill: #5ba932"/>
    <rect x="0"  y="0" height="5.85512" width="250" style="fill: #53275b"/>
    <rect x="0"  y="0" height="7.76144" width="250" style="fill: #f6a44b"/>
    <rect x="0"  y="0" height="4.62963" width="250" style="fill: #3fa105"/>
    <rect x="0"  y="0" height="2.85948" width="250" style="fill: #1cdfe3"/>
    <rect x="0"  y="0" height="4.90196" width="250" style="fill: #b3f5d2"/>
    <rect x="0"  y="0" height="3.9488" width="250" style="fill: #725a9a"/>
    <rect x="0"  y="0" height="8.7146" width="250" style="fill: #580fd5"/>
    <rect x="0"  y="0" height="3.13181" width="250" style="fill: #b04525"/>
    <rect x="0"  y="0" height="6.26362" width="250" style="fill: #b3182f"/>
    <rect x="0"  y="0" height="6.87636" width="250" style="fill: #cd2b3f"/>
    <rect x="0"  y="0" height="4.62963" width="250" style="fill: #da124a"/>
    <rect x="0"  y="0" height="4.69771" width="250" style="fill: #ca3c90"/>
    <rect x="0"  y="0" height="3.40414" width="250" style="fill: #1406a2"/>
    <rect x="0"  y="0" height="3.54031" width="250" style="fill: #b55cd8"/>
    <rect x="0"  y="0" height="3.74455" width="250" style="fill: #b95d48"/>
    <rect x="0"  y="0" height="2.31481" width="250" style="fill: #d13e37"/>
    <rect x="0"  y="0" height="4.62963" width="250" style="fill: #9f1ccb"/>
    <rect x="0"  y="0" height="2.58715" width="250" style="fill: #cdfc39"/>
    <rect x="0"  y="0" height="4.7658" width="250" style="fill: #fee4ac"/>
    <rect x="0"  y="0" height="2.79139" width="250" style="fill: #c5523a"/>
    <rect x="0"  y="0" height="3.74455" width="250" style="fill: #a0bdef"/>
    <rect x="0"  y="0" height="3.54031" width="250" style="fill: #57e63a"/>
    <rect x="0"  y="0" height="6.19553" width="250" style="fill: #1f81cb"/>
    <rect x="0"  y="0" height="3.33606" width="250" style="fill: #aba9f4"/>
    <rect x="0"  y="0" height="7.08061" width="250" style="fill: #5caaed"/>
    <rect x="0"  y="0" height="2.3829" width="250" style="fill: #48d06b"/>
    <rect x="0"  y="0" height="2.92756" width="250" style="fill: #fb3d16"/>
    <rect x="0"  y="0" height="8.37418" width="250" style="fill: #836042"/>
    <rect x="0"  y="0" height="2.51906" width="250" style="fill: #bed57c"/>
    <rect x="0"  y="0" height="2.72331" width="250" style="fill: #ac8476"/>
    <rect x="0"  y="0" height="14.842" width="250" style="fill: #1bfeb5"/>
    <rect x="0"  y="0" height="11.2337" width="250" style="fill: #9a0c81"/>
    <rect x="0"  y="0" height="3.13181" width="250" style="fill: #304908"/>
    <rect x="0"  y="0" height="1.9744" width="250" style="fill: #bb781e"/>
    <rect x="0"  y="0" height="7.55719" width="250" style="fill: #4bbdf2"/>
    <rect x="0"  y="0" height="4.90196" width="250" style="fill: #30d2e9"/>
    <rect x="0"  y="0" height="3.81264" width="250" style="fill: #77374b"/>
    <rect x="0"  y="0" height="4.49346" width="250" style="fill: #97bd0b"/>
    <rect x="0"  y="0" height="3.81264" width="250" style="fill: #6b7d38"/>
    <rect x="0"  y="0" height="3.54031" width="250" style="fill: #b73642"/>
    <rect x="0"  y="0" height="3.06373" width="250" style="fill: #8826a0"/>
    <rect x="0"  y="0" height="3.60839" width="250" style="fill: #f2729b"/>
    <rect x="0"  y="0" height="7.76144" width="250" style="fill: #e22902"/>
    <rect x="0"  y="0" height="5.58279" width="250" style="fill: #56dc30"/>
    <rect x="0"  y="0" height="3.26797" width="250" style="fill: #4e875c"/>
    <rect x="0"  y="0" height="3.81264" width="250" style="fill: #9d4b3f"/>
    <rect x="0"  y="0" height="2.72331" width="250" style="fill: #b2125a"/>
    <rect x="0"  y="0" height="8.03377" width="250" style="fill: #e3d0cd"/>
    <rect x="0"  y="0" height="2.79139" width="250" style="fill: #3130d6"/>
    <rect x="0"  y="0" height="2.24673" width="250" style="fill: #114989"/>
    <rect x="0"  y="0" height="3.88072" width="250" style="fill: #517aca"/>
    <rect x="0"  y="0" height="10.8252" width="250" style="fill: #97daa2"/>
    <rect x="0"  y="0" height="8.51035" width="250" style="fill: #485181"/>
    <rect x="0"  y="0" height="5.51471" width="250" style="fill: #eb31c0"/>
    <rect x="0"  y="0" height="3.67647" width="250" style="fill: #7d2c6a"/>
    <rect x="0"  y="0" height="4.56155" width="250" style="fill: #5bcc58"/>
    <rect x="0"  y="0" height="3.47222" width="250" style="fill: #7e048a"/>
    <rect x="0"  y="0" height="3.67647" width="250" style="fill: #6d2bea"/>
    <rect x="0"  y="0" height="3.60839" width="250" style="fill: #cd6fe2"/>
    <rect x="0"  y="0" height="2.92756" width="250" style="fill: #06f225"/>
    <rect x="0"  y="0" height="4.49346" width="250" style="fill: #c70846"/>
    <rect x="0"  y="0" height="3.67647" width="250" style="fill: #1b41fd"/>
    <rect x="0"  y="0" height="6.12745" width="250" style="fill: #b5ad08"/>
    <rect x="0"  y="0" height="2.85948" width="250" style="fill: #7c5dc4"/>
    <rect x="0"  y="0" height="7.14869" width="250" style="fill: #fcaeec"/>
    <rect x="0"  y="0" height="3.06373" width="250" style="fill: #3a3437"/>
    <rect x="0"  y="0" height="4.08497" width="250" style="fill: #a42e51"/>
    <rect x="0"  y="0" height="13.7527" width="250" style="fill: #b065d6"/>
    <rect x="0"  y="0" height="4.97004" width="250" style="fill: #e4332f"/>
    <rect x="0"  y="0" height="10.2124" width="250" style="fill: #71b109"/>
    <rect x="0"  y="0" height="11.1656" width="250" style="fill: #d33176"/>
    <rect x="0"  y="0" height="4.7658" width="250" style="fill: #81ab0f"/>
    <rect x="0"  y="0" height="3.74455" width="250" style="fill: #cbf31c"/>
    <rect x="0"  y="0" height="13.0719" width="250" style="fill: #9f1c23"/>
    <rect x="0"  y="0" height="3.40414" width="250" style="fill: #ba46b4"/>
    <rect x="0"  y="0" height="5.37854" width="250" style="fill: #f983af"/>
    <rect x="0"  y="0" height="6.7402" width="250" style="fill: #9214d1"/>
    <rect x="0"  y="0" height="2.65523" width="250" style="fill: #3ac3dd"/>
    <rect x="0"  y="0" height="3.54031" width="250" style="fill: #f6c03f"/>
    <rect x="0"  y="0" height="1.90632" width="250" style="fill: #3e9854"/>
    <rect x="0"  y="0" height="3.47222" width="250" style="fill: #c4d477"/>
    <rect x="0"  y="0" height="2.45098" width="250" style="fill: #41a557"/>
    <rect x="0"  y="0" height="2.11057" width="250" style="fill: #6812be"/>
    <rect x="0"  y="0" height="2.85948" width="250" style="fill: #0b5cb8"/>
    <rect x="0"  y="0" height="16.408" width="250" style="fill: #bf647b"/>
    <rect x="0"  y="0" height="3.06373" width="250" style="fill: #930687"/>
    <rect x="0"  y="0" height="1.77015" width="250" style="fill: #ec881d"/>
    <rect x="0"  y="0" height="1.22549" width="250" style="fill: #f76191"/>
    <rect x="0"  y="0" height="4.01688" width="250" style="fill: #f9c468"/>
    <rect x="0"  y="0" height="2.3829" width="250" style="fill: #c1736e"/>
    <rect x="0"  y="0" height="2.65523" width="250" style="fill: #ef1e59"/>
    <rect x="0"  y="0" height="2.45098" width="250" style="fill: #635eb6"/>
    <rect x="0"  y="0" height="4.97004" width="250" style="fill: #cbd2c7"/>
</svg>
</svg>
