<svg  xmlns="http://www.w3.org/2000/svg" xmlns:xlink="http://www.w3.org/1999/xlink" x="0" y="0" width="600" height="600">
<rect x="0%" y="0%" height="100%" width="100%" style="fill: #ffffff"/>
<svg x="0" y="0">
  <text fill="dark" font-size="35" transform="translate(250, 30)">cores</text>
</svg>
<svg x="0" y="0"> 
  <text fill="dark" font-size="35" transform="translate(30, 300) rotate(270)">time</text>
</svg>
<svg x = "50" y="550">
  <text fill="blue" font-size="30" transform="translate(0, 35)">t = 32s, lb = 0.998082</text>
</svg>
<svg x="50" y="50" width="500" height="500" >
  <rect x="0%" y="0%" height="100%" width="100%" style="fill: #eeeeee"/>
    <rect x="0"  y="0" height="365.062" width="250" style="fill: #e4bd2c"/>
    <rect x="0"  y="0" height="9.33285" width="250" style="fill: #e0d46d"/>
    <rect x="0"  y="0" height="30.739" width="250" style="fill: #8121a4"/>
    <rect x="0"  y="0" height="4.20206" width="250" style="fill: #22d282"/>
    <rect x="0"  y="0" height="5.52663" width="250" style="fill: #170e43"/>
    <rect x="0"  y="0" height="2.43598" width="250" style="fill: #b276f9"/>
    <rect x="0"  y="0" height="9.74392" width="250" style="fill: #2d9f10"/>
    <rect x="0"  y="0" height="2.00968" width="250" style="fill: #ca1fbb"/>
    <rect x="0"  y="0" height="3.25812" width="250" style="fill: #3dd1f5"/>
    <rect x="0"  y="0" height="2.43598" width="250" style="fill: #30c3f0"/>
    <rect x="0"  y="0" height="2.10103" width="250" style="fill: #7a3e02"/>
    <rect x="0"  y="0" height="1.90311" width="250" style="fill: #830121"/>
    <rect x="0"  y="0" height="2.16193" width="250" style="fill: #1fb2e6"/>
    <rect x="0"  y="0" height="1.30934" width="250" style="fill: #e13b22"/>
    <rect x="0"  y="0" height="1.18754" width="250" style="fill: #153d92"/>
    <rect x="0"  y="0" height="1.18754" width="250" style="fill: #e0c1ec"/>
    <rect x="0"  y="0" height="1.43114" width="250" style="fill: #36f382"/>
    <rect x="0"  y="0" height="1.68996" width="250" style="fill: #5910cf"/>
    <rect x="0"  y="0" height="4.62836" width="250" style="fill: #7a0a53"/>
    <rect x="0"  y="0" height="1.73564" width="250" style="fill: #d68041"/>
    <rect x="0"  y="0" height="1.30934" width="250" style="fill: #221e30"/>
    <rect x="0"  y="0" height="1.67474" width="250" style="fill: #a66aae"/>
    <rect x="0"  y="0" height="0.913492" width="250" style="fill: #cf8df4"/>
    <rect x="0"  y="0" height="1.27889" width="250" style="fill: #c6ec13"/>
    <rect x="0"  y="0" height="1.49204" width="250" style="fill: #fea8ee"/>
    <rect x="0"  y="0" height="1.79653" width="250" style="fill: #900be3"/>
    <rect x="0"  y="0" height="1.26366" width="250" style="fill: #b89123"/>
    <rect x="0"  y="0" height="0.822143" width="250" style="fill: #0e28b2"/>
    <rect x="0"  y="0" height="0.822143" width="250" style="fill: #c78a49"/>
    <rect x="0"  y="0" height="0.791693" width="250" style="fill: #d377b5"/>
    <rect x="0"  y="0" height="0.776468" width="250" style="fill: #555503"/>
    <rect x="0"  y="0" height="0.53287" width="250" style="fill: #8bc2ce"/>
    <rect x="0"  y="0" height="0.883043" width="250" style="fill: #5cd848"/>
    <rect x="0"  y="0" height="1.15709" width="250" style="fill: #a002a4"/>
    <rect x="0"  y="0" height="1.33979" width="250" style="fill: #c873f3"/>
    <rect x="0"  y="0" height="1.62906" width="250" style="fill: #958ea8"/>
    <rect x="0"  y="0" height="0.639445" width="250" style="fill: #233e5f"/>
    <rect x="0"  y="0" height="0.822143" width="250" style="fill: #cac920"/>
    <rect x="0"  y="0" height="0.62422" width="250" style="fill: #2c12fb"/>
    <rect x="0"  y="0" height="0.776468" width="250" style="fill: #6b3de3"/>
    <rect x="0"  y="0" height="1.46159" width="250" style="fill: #078862"/>
    <rect x="0"  y="0" height="0.685119" width="250" style="fill: #08536a"/>
    <rect x="0"  y="0" height="0.776468" width="250" style="fill: #325fc7"/>
    <rect x="0"  y="0" height="0.654669" width="250" style="fill: #fe4003"/>
    <rect x="0"  y="0" height="0.62422" width="250" style="fill: #c6ef3c"/>
    <rect x="0"  y="0" height="0.654669" width="250" style="fill: #244aca"/>
    <rect x="0"  y="0" height="0.548095" width="250" style="fill: #dd2208"/>
    <rect x="0"  y="0" height="0.791693" width="250" style="fill: #d3a226"/>
    <rect x="0"  y="0" height="0.974392" width="250" style="fill: #924d24"/>
    <rect x="0"  y="0" height="0.487196" width="250" style="fill: #0eaeee"/>
    <rect x="0"  y="0" height="0.608995" width="250" style="fill: #b02fbe"/>
    <rect x="0"  y="0" height="0.639445" width="250" style="fill: #98bbac"/>
    <rect x="0"  y="0" height="0.56332" width="250" style="fill: #37fd92"/>
    <rect x="0"  y="0" height="0.456746" width="250" style="fill: #434806"/>
    <rect x="0"  y="0" height="0.56332" width="250" style="fill: #d157f3"/>
    <rect x="0"  y="0" height="1.02007" width="250" style="fill: #5a379e"/>
    <rect x="0"  y="0" height="0.548095" width="250" style="fill: #6261d1"/>
    <rect x="0"  y="0" height="0.319722" width="250" style="fill: #d08de2"/>
    <rect x="0"  y="0" height="0.441521" width="250" style="fill: #f253a5"/>
    <rect x="0"  y="0" height="0.471971" width="250" style="fill: #976ef6"/>
    <rect x="0"  y="0" height="0.380622" width="250" style="fill: #1405ca"/>
    <rect x="0"  y="0" height="0.395847" width="250" style="fill: #32ca3a"/>
    <rect x="0"  y="0" height="0.502421" width="250" style="fill: #b1a3e8"/>
    <rect x="0"  y="0" height="0.761244" width="250" style="fill: #5daa05"/>
    <rect x="0"  y="0" height="0.578545" width="250" style="fill: #09c68b"/>
    <rect x="0"  y="0" height="0.53287" width="250" style="fill: #c90dec"/>
    <rect x="0"  y="0" height="0.350172" width="250" style="fill: #72e3c1"/>
    <rect x="0"  y="0" height="0.380622" width="250" style="fill: #d728a0"/>
    <rect x="0"  y="0" height="0.441521" width="250" style="fill: #00dbad"/>
    <rect x="0"  y="0" height="0.411072" width="250" style="fill: #0a7c1f"/>
    <rect x="0"  y="0" height="0.258823" width="250" style="fill: #8d88a7"/>
    <rect x="0"  y="0" height="0.334947" width="250" style="fill: #419255"/>
    <rect x="0"  y="0" height="0.350172" width="250" style="fill: #32c6a6"/>
    <rect x="0"  y="0" height="0.304497" width="250" style="fill: #6b6461"/>
    <rect x="0"  y="0" height="0.274048" width="250" style="fill: #16b82c"/>
    <rect x="0"  y="0" height="0.319722" width="250" style="fill: #7aa024"/>
    <rect x="0"  y="0" height="0.182698" width="250" style="fill: #76608b"/>
    <rect x="0"  y="0" height="0.289273" width="250" style="fill: #5cd128"/>
    <rect x="0"  y="0" height="0.441521" width="250" style="fill: #783ec9"/>
    <rect x="0"  y="0" height="0.258823" width="250" style="fill: #fefa61"/>
    <rect x="0"  y="0" height="0.243598" width="250" style="fill: #7ec1ee"/>
    <rect x="0"  y="0" height="0.228373" width="250" style="fill: #555b5d"/>
    <rect x="0"  y="0" height="0.243598" width="250" style="fill: #6a94bb"/>
    <rect x="0"  y="0" height="0.106574" width="250" style="fill: #c24f00"/>
    <rect x="0"  y="0" height="0.197923" width="250" style="fill: #8fe7a5"/>
    <rect x="0"  y="0" height="0.243598" width="250" style="fill: #813421"/>
    <rect x="0"  y="0" height="0.197923" width="250" style="fill: #37683b"/>
    <rect x="0"  y="0" height="0.167474" width="250" style="fill: #595fd0"/>
    <rect x="0"  y="0" height="0.106574" width="250" style="fill: #a92e83"/>
    <rect x="0"  y="0" height="0.121799" width="250" style="fill: #f02d7c"/>
    <rect x="0"  y="0" height="0.0913492" width="250" style="fill: #20d54f"/>
    <rect x="0"  y="0" height="0.121799" width="250" style="fill: #677cfa"/>
    <rect x="0"  y="0" height="0.0913492" width="250" style="fill: #753c41"/>
    <rect x="0"  y="0" height="0.0761244" width="250" style="fill: #ceafd3"/>
    <rect x="0"  y="0" height="0.0761244" width="250" style="fill: #2c349b"/>
    <rect x="0"  y="0" height="0.0761244" width="250" style="fill: #1cbe1f"/>
    <rect x="0"  y="0" height="0.0608995" width="250" style="fill: #e87546"/>
    <rect x="0"  y="0" height="0.0608995" width="250" style="fill: #fcb28f"/>
    <rect x="0"  y="0" height="0.0304497" width="250" style="fill: #35ee4b"/>
    <rect x="0"  y="0" height="0.0304497" width="250" style="fill: #1674a0"/>
</svg>
</svg>
