<svg  xmlns="http://www.w3.org/2000/svg" xmlns:xlink="http://www.w3.org/1999/xlink" x="0" y="0" width="600" height="600">
<rect x="0%" y="0%" height="100%" width="100%" style="fill: #ffffff"/>
<svg x="0" y="0">
  <text fill="dark" font-size="35" transform="translate(250, 30)">cores</text>
</svg>
<svg x="0" y="0"> 
  <text fill="dark" font-size="35" transform="translate(30, 300) rotate(270)">time</text>
</svg>
<svg x = "50" y="550">
  <text fill="blue" font-size="30" transform="translate(0, 35)">t = 39s, lb = 0.507786</text>
</svg>
<svg x="50" y="50" width="500" height="500" >
  <rect x="0%" y="0%" height="100%" width="100%" style="fill: #eeeeee"/>
    <rect x="0"  y="0" height="2.19044" width="55.5556" style="fill: #76931f"/>
    <rect x="222.222"  y="0" height="4.255" width="55.5556" style="fill: #ac9dab"/>
    <rect x="111.111"  y="0" height="5.61458" width="55.5556" style="fill: #2b36c2"/>
    <rect x="55.5556"  y="0" height="6.28179" width="55.5556" style="fill: #48b87d"/>
    <rect x="333.333"  y="0" height="2.73176" width="55.5556" style="fill: #6ae33f"/>
    <rect x="277.778"  y="0" height="4.24241" width="55.5556" style="fill: #9a62d7"/>
    <rect x="166.667"  y="0" height="53.7036" width="55.5556" style="fill: #183a5d"/>
    <rect x="388.889"  y="0" height="14.0742" width="55.5556" style="fill: #5789e4"/>
    <rect x="0"  y="0" height="1.95126" width="55.5556" style="fill: #b2d6b4"/>
    <rect x="333.333"  y="0" height="43.469" width="55.5556" style="fill: #41e241"/>
    <rect x="0"  y="0" height="155.685" width="55.5556" style="fill: #1dc709"/>
    <rect x="277.778"  y="0" height="1.14558" width="55.5556" style="fill: #e111c7"/>
    <rect x="222.222"  y="0" height="2.02679" width="55.5556" style="fill: #e1e7ac"/>
    <rect x="277.778"  y="0" height="3.19754" width="55.5556" style="fill: #b6f8ca"/>
    <rect x="111.111"  y="0" height="2.41704" width="55.5556" style="fill: #c0bb2f"/>
    <rect x="222.222"  y="0" height="2.19044" width="55.5556" style="fill: #c4c8bc"/>
    <rect x="55.5556"  y="0" height="7.37701" width="55.5556" style="fill: #2ae3ba"/>
    <rect x="111.111"  y="0" height="0.994511" width="55.5556" style="fill: #aab916"/>
    <rect x="222.222"  y="0" height="24.1075" width="55.5556" style="fill: #5cc458"/>
    <rect x="277.778"  y="0" height="1.40994" width="55.5556" style="fill: #e199cb"/>
    <rect x="111.111"  y="0" height="2.4674" width="55.5556" style="fill: #89f51b"/>
    <rect x="277.778"  y="0" height="4.56972" width="55.5556" style="fill: #135f70"/>
    <rect x="111.111"  y="0" height="2.50516" width="55.5556" style="fill: #91a5ab"/>
    <rect x="55.5556"  y="0" height="3.33602" width="55.5556" style="fill: #b0874d"/>
    <rect x="111.111"  y="0" height="3.19754" width="55.5556" style="fill: #f3e8cb"/>
    <rect x="388.889"  y="0" height="54.8995" width="55.5556" style="fill: #4543a5"/>
    <rect x="277.778"  y="0" height="1.03228" width="55.5556" style="fill: #eb93b0"/>
    <rect x="277.778"  y="0" height="1.24629" width="55.5556" style="fill: #441e9c"/>
    <rect x="277.778"  y="0" height="24.6865" width="55.5556" style="fill: #a4c2b0"/>
    <rect x="55.5556"  y="0" height="1.17075" width="55.5556" style="fill: #fb3d30"/>
    <rect x="111.111"  y="0" height="482.716" width="55.5556" style="fill: #875cbf"/>
    <rect x="55.5556"  y="0" height="1.20852" width="55.5556" style="fill: #29abd5"/>
    <rect x="55.5556"  y="0" height="11.0907" width="55.5556" style="fill: #b1acf3"/>
    <rect x="55.5556"  y="0" height="3.49967" width="55.5556" style="fill: #8984b3"/>
    <rect x="222.222"  y="0" height="47.0819" width="55.5556" style="fill: #5ae882"/>
    <rect x="55.5556"  y="0" height="2.83247" width="55.5556" style="fill: #809dd4"/>
    <rect x="55.5556"  y="0" height="1.56101" width="55.5556" style="fill: #cfe7ab"/>
    <rect x="55.5556"  y="0" height="4.75855" width="55.5556" style="fill: #c5c61b"/>
    <rect x="277.778"  y="0" height="78.8182" width="55.5556" style="fill: #aa52e0"/>
    <rect x="55.5556"  y="0" height="1.01969" width="55.5556" style="fill: #53b4c3"/>
    <rect x="55.5556"  y="0" height="3.48708" width="55.5556" style="fill: #643f20"/>
    <rect x="333.333"  y="0" height="8.14492" width="55.5556" style="fill: #4ef259"/>
    <rect x="55.5556"  y="0" height="1.347" width="55.5556" style="fill: #d2e980"/>
    <rect x="55.5556"  y="0" height="8.49741" width="55.5556" style="fill: #42a948"/>
    <rect x="166.667"  y="0" height="5.31245" width="55.5556" style="fill: #aac5e8"/>
    <rect x="333.333"  y="0" height="4.98515" width="55.5556" style="fill: #84cb3e"/>
    <rect x="55.5556"  y="0" height="1.38476" width="55.5556" style="fill: #c7db92"/>
    <rect x="55.5556"  y="0" height="4.04099" width="55.5556" style="fill: #5643fd"/>
    <rect x="166.667"  y="0" height="6.0426" width="55.5556" style="fill: #34fdd4"/>
    <rect x="333.333"  y="0" height="11.0907" width="55.5556" style="fill: #67e2cc"/>
    <rect x="55.5556"  y="0" height="3.2479" width="55.5556" style="fill: #a40603"/>
    <rect x="166.667"  y="0" height="6.29438" width="55.5556" style="fill: #5cb274"/>
    <rect x="55.5556"  y="0" height="10.4487" width="55.5556" style="fill: #4cb90a"/>
    <rect x="388.889"  y="0" height="10.8011" width="55.5556" style="fill: #63e51c"/>
    <rect x="333.333"  y="0" height="2.07714" width="55.5556" style="fill: #973790"/>
    <rect x="166.667"  y="0" height="8.19528" width="55.5556" style="fill: #334394"/>
    <rect x="333.333"  y="0" height="3.21013" width="55.5556" style="fill: #7e0208"/>
    <rect x="333.333"  y="0" height="1.25888" width="55.5556" style="fill: #6541e4"/>
    <rect x="55.5556"  y="0" height="5.01032" width="55.5556" style="fill: #c48a99"/>
    <rect x="333.333"  y="0" height="6.8231" width="55.5556" style="fill: #630aa9"/>
    <rect x="166.667"  y="0" height="10.8641" width="55.5556" style="fill: #aece15"/>
    <rect x="222.222"  y="0" height="47.3337" width="55.5556" style="fill: #3843a4"/>
    <rect x="388.889"  y="0" height="12.4377" width="55.5556" style="fill: #b19027"/>
    <rect x="55.5556"  y="0" height="6.63427" width="55.5556" style="fill: #4ebc95"/>
    <rect x="333.333"  y="0" height="2.07714" width="55.5556" style="fill: #5f8592"/>
    <rect x="333.333"  y="0" height="3.67592" width="55.5556" style="fill: #e30a22"/>
    <rect x="55.5556"  y="0" height="4.60748" width="55.5556" style="fill: #05a485"/>
    <rect x="333.333"  y="0" height="2.17785" width="55.5556" style="fill: #846248"/>
    <rect x="166.667"  y="0" height="11.1033" width="55.5556" style="fill: #987550"/>
    <rect x="333.333"  y="0" height="2.29115" width="55.5556" style="fill: #aaf209"/>
    <rect x="388.889"  y="0" height="6.40767" width="55.5556" style="fill: #4ec59e"/>
    <rect x="55.5556"  y="0" height="2.61846" width="55.5556" style="fill: #7931dc"/>
    <rect x="333.333"  y="0" height="8.27081" width="55.5556" style="fill: #650c74"/>
    <rect x="55.5556"  y="0" height="1.32182" width="55.5556" style="fill: #51cc61"/>
    <rect x="55.5556"  y="0" height="1.05746" width="55.5556" style="fill: #c0cb2c"/>
    <rect x="55.5556"  y="0" height="1.64913" width="55.5556" style="fill: #46a1b3"/>
    <rect x="388.889"  y="0" height="7.03711" width="55.5556" style="fill: #f2c349"/>
    <rect x="55.5556"  y="0" height="4.67043" width="55.5556" style="fill: #faff76"/>
    <rect x="166.667"  y="0" height="1.37217" width="55.5556" style="fill: #3c7f8d"/>
    <rect x="333.333"  y="0" height="62.6416" width="55.5556" style="fill: #14ddff"/>
    <rect x="166.667"  y="0" height="1.03228" width="55.5556" style="fill: #946351"/>
    <rect x="166.667"  y="0" height="1.07004" width="55.5556" style="fill: #744378"/>
    <rect x="55.5556"  y="0" height="11.8082" width="55.5556" style="fill: #d62c59"/>
    <rect x="166.667"  y="0" height="1.37217" width="55.5556" style="fill: #285a8d"/>
    <rect x="388.889"  y="0" height="3.57521" width="55.5556" style="fill: #791561"/>
    <rect x="166.667"  y="0" height="4.54454" width="55.5556" style="fill: #4f5a2a"/>
    <rect x="388.889"  y="0" height="1.51065" width="55.5556" style="fill: #c9e0d6"/>
    <rect x="388.889"  y="0" height="7.59102" width="55.5556" style="fill: #8aca62"/>
    <rect x="166.667"  y="0" height="10.2221" width="55.5556" style="fill: #48a922"/>
    <rect x="55.5556"  y="0" height="320.95" width="55.5556" style="fill: #7ab8f1"/>
    <rect x="388.889"  y="0" height="1.15817" width="55.5556" style="fill: #930ee3"/>
    <rect x="388.889"  y="0" height="123.156" width="55.5556" style="fill: #8ac7a9"/>
    <rect x="277.778"  y="0" height="43.6452" width="55.5556" style="fill: #d239c9"/>
    <rect x="166.667"  y="0" height="70.4089" width="55.5556" style="fill: #b026a4"/>
    <rect x="222.222"  y="0" height="1.98902" width="55.5556" style="fill: #81e49d"/>
    <rect x="222.222"  y="0" height="29.7472" width="55.5556" style="fill: #53161f"/>
    <rect x="222.222"  y="0" height="2.07714" width="55.5556" style="fill: #9a9513"/>
    <rect x="0"  y="0" height="4.93479" width="55.5556" style="fill: #fe5271"/>
    <rect x="222.222"  y="0" height="2.0142" width="55.5556" style="fill: #c32e9c"/>
    <rect x="222.222"  y="0" height="3.62556" width="55.5556" style="fill: #21d156"/>
</svg>
</svg>
