<svg  xmlns="http://www.w3.org/2000/svg" xmlns:xlink="http://www.w3.org/1999/xlink" x="0" y="0" width="600" height="600">
<rect x="0%" y="0%" height="100%" width="100%" style="fill: #ffffff"/>
<svg x="0" y="0">
  <text fill="dark" font-size="35" transform="translate(250, 30)">cores</text>
</svg>
<svg x="0" y="0"> 
  <text fill="dark" font-size="35" transform="translate(30, 300) rotate(270)">time</text>
</svg>
<svg x = "50" y="550">
  <text fill="blue" font-size="30" transform="translate(0, 35)">t = 16s, lb = 0.552968</text>
</svg>
<svg x="50" y="50" width="500" height="500" >
  <rect x="0%" y="0%" height="100%" width="100%" style="fill: #eeeeee"/>
    <rect x="0"  y="0" height="3.59157" width="55.5556" style="fill: #76931f"/>
    <rect x="222.222"  y="0" height="17.7798" width="55.5556" style="fill: #ac9dab"/>
    <rect x="111.111"  y="0" height="39.2104" width="55.5556" style="fill: #2b36c2"/>
    <rect x="55.5556"  y="0" height="8.37044" width="55.5556" style="fill: #48b87d"/>
    <rect x="333.333"  y="0" height="17.0674" width="55.5556" style="fill: #6ae33f"/>
    <rect x="277.778"  y="0" height="33.1256" width="55.5556" style="fill: #9a62d7"/>
    <rect x="166.667"  y="0" height="147.878" width="55.5556" style="fill: #183a5d"/>
    <rect x="388.889"  y="0" height="23.5381" width="55.5556" style="fill: #5789e4"/>
    <rect x="0"  y="0" height="18.3437" width="55.5556" style="fill: #b2d6b4"/>
    <rect x="55.5556"  y="0" height="14.8115" width="55.5556" style="fill: #41e241"/>
    <rect x="333.333"  y="0" height="2.46364" width="55.5556" style="fill: #1dc709"/>
    <rect x="222.222"  y="0" height="6.08489" width="55.5556" style="fill: #e111c7"/>
    <rect x="333.333"  y="0" height="7.21282" width="55.5556" style="fill: #e1e7ac"/>
    <rect x="0"  y="0" height="478.005" width="55.5556" style="fill: #b6f8ca"/>
    <rect x="55.5556"  y="0" height="11.1903" width="55.5556" style="fill: #c0bb2f"/>
    <rect x="388.889"  y="0" height="19.2639" width="55.5556" style="fill: #c4c8bc"/>
    <rect x="222.222"  y="0" height="15.2271" width="55.5556" style="fill: #2ae3ba"/>
    <rect x="333.333"  y="0" height="4.24458" width="55.5556" style="fill: #aab916"/>
    <rect x="333.333"  y="0" height="27.1297" width="55.5556" style="fill: #5cc458"/>
    <rect x="277.778"  y="0" height="9.64678" width="55.5556" style="fill: #e199cb"/>
    <rect x="55.5556"  y="0" height="21.4604" width="55.5556" style="fill: #89f51b"/>
    <rect x="222.222"  y="0" height="12.1104" width="55.5556" style="fill: #135f70"/>
    <rect x="111.111"  y="0" height="33.1849" width="55.5556" style="fill: #91a5ab"/>
    <rect x="277.778"  y="0" height="4.92728" width="55.5556" style="fill: #b0874d"/>
    <rect x="388.889"  y="0" height="11.4574" width="55.5556" style="fill: #f3e8cb"/>
    <rect x="277.778"  y="0" height="9.91392" width="55.5556" style="fill: #4543a5"/>
    <rect x="222.222"  y="0" height="8.4298" width="55.5556" style="fill: #eb93b0"/>
    <rect x="388.889"  y="0" height="18.789" width="55.5556" style="fill: #441e9c"/>
    <rect x="55.5556"  y="0" height="11.6652" width="55.5556" style="fill: #a4c2b0"/>
    <rect x="277.778"  y="0" height="16.8002" width="55.5556" style="fill: #fb3d30"/>
    <rect x="333.333"  y="0" height="8.10329" width="55.5556" style="fill: #875cbf"/>
    <rect x="222.222"  y="0" height="18.4625" width="55.5556" style="fill: #29abd5"/>
    <rect x="333.333"  y="0" height="13.7133" width="55.5556" style="fill: #b1acf3"/>
    <rect x="55.5556"  y="0" height="4.98664" width="55.5556" style="fill: #8984b3"/>
    <rect x="111.111"  y="0" height="6.76759" width="55.5556" style="fill: #5ae882"/>
    <rect x="55.5556"  y="0" height="23.36" width="55.5556" style="fill: #809dd4"/>
    <rect x="388.889"  y="0" height="3.65093" width="55.5556" style="fill: #cfe7ab"/>
    <rect x="277.778"  y="0" height="10.4482" width="55.5556" style="fill: #c5c61b"/>
    <rect x="388.889"  y="0" height="12.6744" width="55.5556" style="fill: #aa52e0"/>
    <rect x="222.222"  y="0" height="14.1585" width="55.5556" style="fill: #53b4c3"/>
    <rect x="111.111"  y="0" height="9.88424" width="55.5556" style="fill: #643f20"/>
    <rect x="333.333"  y="0" height="16.7112" width="55.5556" style="fill: #4ef259"/>
    <rect x="277.778"  y="0" height="10.3592" width="55.5556" style="fill: #d2e980"/>
    <rect x="111.111"  y="0" height="30.0683" width="55.5556" style="fill: #42a948"/>
    <rect x="388.889"  y="0" height="24.4286" width="55.5556" style="fill: #aac5e8"/>
    <rect x="222.222"  y="0" height="12.4666" width="55.5556" style="fill: #84cb3e"/>
    <rect x="277.778"  y="0" height="7.06441" width="55.5556" style="fill: #c7db92"/>
    <rect x="55.5556"  y="0" height="3.7103" width="55.5556" style="fill: #5643fd"/>
    <rect x="333.333"  y="0" height="68.1805" width="55.5556" style="fill: #34fdd4"/>
    <rect x="55.5556"  y="0" height="7.12378" width="55.5556" style="fill: #67e2cc"/>
    <rect x="277.778"  y="0" height="2.55269" width="55.5556" style="fill: #a40603"/>
    <rect x="222.222"  y="0" height="8.22202" width="55.5556" style="fill: #5cb274"/>
    <rect x="277.778"  y="0" height="2.55269" width="55.5556" style="fill: #4cb90a"/>
    <rect x="55.5556"  y="0" height="47.4028" width="55.5556" style="fill: #63e51c"/>
    <rect x="277.778"  y="0" height="63.6391" width="55.5556" style="fill: #973790"/>
    <rect x="222.222"  y="0" height="9.49837" width="55.5556" style="fill: #334394"/>
    <rect x="388.889"  y="0" height="16.0879" width="55.5556" style="fill: #7e0208"/>
    <rect x="111.111"  y="0" height="15.4348" width="55.5556" style="fill: #6541e4"/>
    <rect x="222.222"  y="0" height="19.1451" width="55.5556" style="fill: #c48a99"/>
    <rect x="388.889"  y="0" height="2.31523" width="55.5556" style="fill: #630aa9"/>
    <rect x="388.889"  y="0" height="9.70614" width="55.5556" style="fill: #aece15"/>
    <rect x="111.111"  y="0" height="3.41348" width="55.5556" style="fill: #3843a4"/>
    <rect x="111.111"  y="0" height="10.8638" width="55.5556" style="fill: #b19027"/>
    <rect x="222.222"  y="0" height="22.0837" width="55.5556" style="fill: #4ebc95"/>
    <rect x="388.889"  y="0" height="2.40427" width="55.5556" style="fill: #5f8592"/>
    <rect x="388.889"  y="0" height="30.84" width="55.5556" style="fill: #e30a22"/>
    <rect x="166.667"  y="0" height="20.0653" width="55.5556" style="fill: #05a485"/>
    <rect x="111.111"  y="0" height="15.8504" width="55.5556" style="fill: #846248"/>
    <rect x="55.5556"  y="0" height="16.1175" width="55.5556" style="fill: #987550"/>
    <rect x="222.222"  y="0" height="32.71" width="55.5556" style="fill: #aaf209"/>
    <rect x="111.111"  y="0" height="5.31315" width="55.5556" style="fill: #4ec59e"/>
    <rect x="333.333"  y="0" height="14.6037" width="55.5556" style="fill: #7931dc"/>
    <rect x="166.667"  y="0" height="106.53" width="55.5556" style="fill: #650c74"/>
    <rect x="111.111"  y="0" height="6.4114" width="55.5556" style="fill: #51cc61"/>
    <rect x="55.5556"  y="0" height="8.34075" width="55.5556" style="fill: #c0cb2c"/>
    <rect x="277.778"  y="0" height="2.34491" width="55.5556" style="fill: #46a1b3"/>
    <rect x="277.778"  y="0" height="12.2291" width="55.5556" style="fill: #f2c349"/>
    <rect x="388.889"  y="0" height="2.46364" width="55.5556" style="fill: #faff76"/>
    <rect x="111.111"  y="0" height="6.82695" width="55.5556" style="fill: #3c7f8d"/>
    <rect x="388.889"  y="0" height="7.4206" width="55.5556" style="fill: #14ddff"/>
    <rect x="55.5556"  y="0" height="6.70822" width="55.5556" style="fill: #946351"/>
    <rect x="333.333"  y="0" height="15.4645" width="55.5556" style="fill: #744378"/>
    <rect x="111.111"  y="0" height="12.9118" width="55.5556" style="fill: #d62c59"/>
    <rect x="388.889"  y="0" height="48.8869" width="55.5556" style="fill: #285a8d"/>
    <rect x="55.5556"  y="0" height="59.068" width="55.5556" style="fill: #791561"/>
    <rect x="277.778"  y="0" height="26.6251" width="55.5556" style="fill: #4f5a2a"/>
    <rect x="333.333"  y="0" height="4.8976" width="55.5556" style="fill: #c9e0d6"/>
    <rect x="111.111"  y="0" height="2.76046" width="55.5556" style="fill: #8aca62"/>
    <rect x="222.222"  y="0" height="11.1012" width="55.5556" style="fill: #48a922"/>
    <rect x="111.111"  y="0" height="9.26091" width="55.5556" style="fill: #7ab8f1"/>
    <rect x="333.333"  y="0" height="8.81567" width="55.5556" style="fill: #930ee3"/>
    <rect x="222.222"  y="0" height="7.80647" width="55.5556" style="fill: #8ac7a9"/>
    <rect x="111.111"  y="0" height="8.48917" width="55.5556" style="fill: #d239c9"/>
    <rect x="333.333"  y="0" height="11.5761" width="55.5556" style="fill: #b026a4"/>
    <rect x="277.778"  y="0" height="2.40427" width="55.5556" style="fill: #81e49d"/>
    <rect x="277.778"  y="0" height="18.6702" width="55.5556" style="fill: #53161f"/>
    <rect x="222.222"  y="0" height="5.93648" width="55.5556" style="fill: #9a9513"/>
    <rect x="111.111"  y="0" height="12.4369" width="55.5556" style="fill: #fe5271"/>
    <rect x="333.333"  y="0" height="47.8777" width="55.5556" style="fill: #c32e9c"/>
    <rect x="222.222"  y="0" height="7.53933" width="55.5556" style="fill: #21d156"/>
</svg>
</svg>
